<?xml version="1.0" encoding="utf-8"?>
<!-- Generator: Adobe Illustrator 23.0.0, SVG Export Plug-In . SVG Version: 6.00 Build 0)  -->
<svg version="1.1" id="Layer_1" xmlns="http://www.w3.org/2000/svg" xmlns:xlink="http://www.w3.org/1999/xlink" x="0px" y="0px"
	 viewBox="0 0 64 86" style="enable-background:new 0 0 64 86;" xml:space="preserve">
<style type="text/css">
	.st0{fill:#FFFFFF;}
</style>
<path class="st0" d="M24,36h-2c0-5.5,4.5-10,10-10v2C27.6,28,24,31.6,24,36z M55.9,41c0-0.4,0.1-0.7,0.1-1c0-5-4-9-9-9
	c-0.6,0-1.2,0.1-1.9,0.2c-2-5.5-7.2-9.2-13.1-9.2s-11.1,3.7-13.1,9.2C18.2,31.1,17.6,31,17,31c-5,0-9,4-9,9c0,0.3,0,0.7,0.1,1
	C3.5,41.5,0,45.4,0,50c0,5,4,9,9,9h10v-2H9c-3.9,0-7-3.1-7-7s3.1-7,7.1-7l0,0h0.2c0.3,0,0.6-0.1,0.8-0.4c0.2-0.2,0.3-0.6,0.2-0.9
	C10.1,41.2,10,40.6,10,40c0-3.9,3.1-7,7-7c0.7,0,1.5,0.1,2.2,0.4c0.3,0.1,0.5,0.1,0.8-0.1c0.2-0.1,0.4-0.3,0.5-0.6
	C21.9,27.6,26.7,24,32,24s10.1,3.6,11.5,8.7c0.1,0.3,0.3,0.5,0.5,0.6c0.2,0.1,0.5,0.2,0.8,0.1c0.7-0.2,1.5-0.4,2.2-0.4
	c3.9,0,7,3.1,7,7c0,0.6-0.1,1.2-0.2,1.8c-0.1,0.3,0,0.6,0.2,0.9c0.2,0.2,0.5,0.4,0.8,0.4H55c3.9,0,7,3.1,7,7s-3.1,7-7,7H45v2h10
	c5,0,9-4,9-9C64,45.4,60.5,41.5,55.9,41z M38.8,44L48,84v2h-2v-1.9L45.3,81h-8l0.7,3v2h-2v-1.9l-3-12.9l1.9-0.4l1.9,8.2h8l-7.6-33
	h-0.4L28,84.1V86h-2v-2.2l0.6-2.8h-7.9L18,84.1V86h-2v-2.2L25.2,44h3.6l1.2,4.8l-2,0.4L27.2,46h-0.4l-1.2,5h7.9l1.6-7H38.8z
	 M25.2,53l-0.5,2h7.9l0.5-2H25.2z M29,71l0.5-2h-7.9L21,71H29z M20.6,73l-0.5,2H28l0.5-2H20.6z M29.9,67l0.5-2h-7.9L22,67H29.9z
	 M30.8,63l0.5-2h-7.9l-0.5,2H30.8z M31.7,59l0.5-2h-7.9l-0.5,2H31.7z M27.1,79l0.5-2h-7.9l-0.5,2H27.1z M58,28.4
	c-1.2-2-3.5-3.4-6-3.4v2c2.8,0,5,2.2,5,5h2c0-2.8,2.2-5,5-5v-2C61.5,25,59.2,26.4,58,28.4z"/>
<g>
	<path class="st0" d="M4.3,29.3c0.5,1.9,0.2,4-1,5.6C3,35.2,3,35.7,3.2,36s0.6,0.5,1,0.5c0.8-0.1,1.6,0,2.3,0.2
		c0.1-0.6,0.2-1.2,0.4-1.8c-0.4-0.1-0.9-0.2-1.3-0.2c0.8-1.8,0.9-3.8,0.4-5.8c-0.5-1.9-1.7-3.6-3.2-4.8c1.6-1.2,2.7-2.8,3.2-4.8
		c0.5-1.9,0.4-4-0.4-5.8c2-0.2,3.8-1.1,5.2-2.5c1.4-1.4,2.3-3.2,2.5-5.2c1.8,0.8,3.8,0.9,5.8,0.4c1.9-0.5,3.6-1.7,4.8-3.2
		c1.2,1.6,2.8,2.7,4.8,3.2c1.9,0.5,4,0.4,5.8-0.4c0.2,2,1.1,3.8,2.5,5.2c1.4,1.4,3.2,2.3,5.2,2.5c-0.8,1.8-0.9,3.8-0.4,5.8
		c0.5,1.9,1.7,3.6,3.2,4.8c-0.3,0.2-0.5,0.4-0.7,0.6c0.5,0.6,0.9,1.3,1.2,2c0.6-0.7,1.4-1.3,2.2-1.7c0.4-0.2,0.6-0.5,0.6-0.9
		c-0.3-0.4-0.5-0.7-0.9-0.9c-1.8-0.9-3.2-2.5-3.7-4.4c-0.5-1.9-0.2-4,1-5.6c0.2-0.3,0.2-0.7,0-1.1c-0.2-0.4-0.6-0.5-1-0.5
		c-2,0.2-4-0.5-5.4-2c-1.4-1.4-2.1-3.4-2-5.4c0-0.4-0.2-0.8-0.5-1s-0.8-0.2-1.1,0c-1.6,1.2-3.7,1.5-5.6,1c-1.9-0.5-3.5-1.9-4.4-3.7
		C24.7,0.2,24.4,0,24,0s-0.7,0.2-0.9,0.6c-0.9,1.8-2.5,3.2-4.4,3.7c-1.9,0.5-4,0.2-5.6-1C12.8,3,12.3,3,12,3.2
		c-0.3,0.2-0.5,0.6-0.5,1c0.2,2-0.5,4-2,5.4c-1.4,1.4-3.4,2.1-5.4,2c-0.4,0-0.8,0.2-1,0.5c-0.2,0.3-0.2,0.8,0,1.1
		c1.2,1.6,1.5,3.7,1,5.6c-0.5,1.9-1.9,3.5-3.7,4.4C0.2,23.3,0,23.6,0,24c0,0.4,0.2,0.7,0.6,0.9C2.4,25.8,3.8,27.3,4.3,29.3z"/>
</g>
</svg>
