<svg xmlns="http://www.w3.org/2000/svg" viewBox="0 0 64 64"><title>ladder_clouds_maxim_boretsch</title><path d="M24,14H22A10,10,0,0,1,32,4V6A8,8,0,0,0,24,14Zm31.9,5c0-.4.1-.7.1-1a9,9,0,0,0-9-9,13.66,13.66,0,0,0-1.9.2,13.93,13.93,0,0,0-26.2,0A13.66,13.66,0,0,0,17,9a9,9,0,0,0-9,9,3.4,3.4,0,0,0,.1,1A9.09,9.09,0,0,0,0,28a9,9,0,0,0,9,9H19V35H9a7,7,0,1,1,.1-14h.2a.91.91,0,0,0,.8-.4,1,1,0,0,0,.2-.9A4.67,4.67,0,0,1,10,18a7,7,0,0,1,7-7,5.7,5.7,0,0,1,2.2.4.78.78,0,0,0,.8-.1,1,1,0,0,0,.5-.6,12,12,0,0,1,23,0,1,1,0,0,0,.5.6,1.06,1.06,0,0,0,.8.1A8.51,8.51,0,0,1,47,11a7,7,0,0,1,7,7,11,11,0,0,1-.2,1.8,1,1,0,0,0,.2.9,1.23,1.23,0,0,0,.8.4H55a7,7,0,0,1,0,14H45v2H55a9,9,0,0,0,9-9A9.11,9.11,0,0,0,55.9,19ZM38.8,22,48,62v2H46V62.1L45.3,59h-8l.7,3v2H36V62.1L33,49.2l1.9-.4L36.8,57h8L37.2,24h-.4L28,62.1V64H26V61.8l.6-2.8H18.7L18,62.1V64H16V61.8L25.2,22h3.6L30,26.8l-2,.4L27.2,24h-.4l-1.2,5h7.9l1.6-7ZM25.2,31l-.5,2h7.9l.5-2ZM29,49l.5-2H21.6L21,49Zm-8.4,2-.5,2H28l.5-2Zm9.3-6,.5-2H22.5L22,45Zm.9-4,.5-2H23.4l-.5,2Zm.9-4,.5-2H24.3l-.5,2ZM27.1,57l.5-2H19.7l-.5,2ZM58,6.4A7.1,7.1,0,0,0,52,3V5a5,5,0,0,1,5,5h2a5,5,0,0,1,5-5V3A7.1,7.1,0,0,0,58,6.4Z" transform="translate(0 0)"/></svg>