<?xml version="1.0" encoding="utf-8"?>
<!-- Generator: Adobe Illustrator 23.0.0, SVG Export Plug-In . SVG Version: 6.00 Build 0)  -->
<svg version="1.1" id="Layer_1" xmlns="http://www.w3.org/2000/svg" xmlns:xlink="http://www.w3.org/1999/xlink" x="0px" y="0px"
	 viewBox="0 0 64 64" style="enable-background:new 0 0 64 64;" xml:space="preserve">
<style type="text/css">
	.st0{fill:#FFFFFF;}
</style>
<path class="st0" d="M24,14h-2c0-5.5,4.5-10,10-10v2C27.6,6,24,9.6,24,14z M55.9,19c0-0.4,0.1-0.7,0.1-1c0-5-4-9-9-9
	c-0.6,0-1.2,0.1-1.9,0.2C43.1,3.7,37.9,0,32,0S20.9,3.7,18.9,9.2C18.2,9.1,17.6,9,17,9c-5,0-9,4-9,9c0,0.3,0,0.7,0.1,1
	C3.5,19.5,0,23.4,0,28c0,5,4,9,9,9h10v-2H9c-3.9,0-7-3.1-7-7s3.1-7,7.1-7l0,0h0.2c0.3,0,0.6-0.1,0.8-0.4c0.2-0.2,0.3-0.6,0.2-0.9
	C10.1,19.2,10,18.6,10,18c0-3.9,3.1-7,7-7c0.7,0,1.5,0.1,2.2,0.4c0.3,0.1,0.5,0.1,0.8-0.1c0.2-0.1,0.4-0.3,0.5-0.6
	C21.9,5.6,26.7,2,32,2s10.1,3.6,11.5,8.7c0.1,0.3,0.3,0.5,0.5,0.6s0.5,0.2,0.8,0.1c0.7-0.2,1.5-0.4,2.2-0.4c3.9,0,7,3.1,7,7
	c0,0.6-0.1,1.2-0.2,1.8c-0.1,0.3,0,0.6,0.2,0.9c0.2,0.2,0.5,0.4,0.8,0.4H55c3.9,0,7,3.1,7,7s-3.1,7-7,7H45v2h10c5,0,9-4,9-9
	C64,23.4,60.5,19.5,55.9,19z M38.8,22L48,62v2h-2v-1.9L45.3,59h-8l0.7,3v2h-2v-1.9l-3-12.9l1.9-0.4l1.9,8.2h8l-7.6-33h-0.4L28,62.1
	V64h-2v-2.2l0.6-2.8h-7.9L18,62.1V64h-2v-2.2L25.2,22h3.6l1.2,4.8l-2,0.4L27.2,24h-0.4l-1.2,5h7.9l1.6-7H38.8z M25.2,31l-0.5,2h7.9
	l0.5-2H25.2z M29,49l0.5-2h-7.9L21,49H29z M20.6,51l-0.5,2H28l0.5-2H20.6z M29.9,45l0.5-2h-7.9L22,45H29.9z M30.8,41l0.5-2h-7.9
	l-0.5,2H30.8z M31.7,37l0.5-2h-7.9l-0.5,2H31.7z M27.1,57l0.5-2h-7.9l-0.5,2H27.1z M58,6.4c-1.2-2-3.5-3.4-6-3.4v2c2.8,0,5,2.2,5,5
	h2c0-2.8,2.2-5,5-5V3C61.5,3,59.2,4.4,58,6.4z"/>
</svg>
