<?xml version="1.0" encoding="utf-8"?>
<!-- Generator: Adobe Illustrator 23.0.0, SVG Export Plug-In . SVG Version: 6.00 Build 0)  -->
<svg version="1.1" xmlns="http://www.w3.org/2000/svg" xmlns:xlink="http://www.w3.org/1999/xlink" x="0px" y="0px"
	 viewBox="0 0 59.5 81.1" style="enable-background:new 0 0 59.5 81.1;" xml:space="preserve">
<style type="text/css">
	.st0{fill:#FFFFFF;}
</style>
<g id="Layer_1">
	<g>
		<g>
			<path class="st0" d="M42.1,55.1c-0.2,0-0.4,0-0.6-0.1c-0.1,0-0.2-0.1-0.4-0.2c-0.1-0.1-0.2-0.2-0.3-0.3c-0.1-0.2-0.2-0.3-0.3-0.4
				c-0.1-0.2-0.2-0.4-0.3-0.6c-0.1-0.4-0.2-0.8-0.3-1.2c-0.3-1.1-0.5-2-1.1-2.6c-0.2-0.2-0.4-0.5-0.6-0.7c-0.7-0.9-1.6-1.9-1.9-3.3
				c-0.3-0.9-0.2-1.9,0.2-2.7c0.4-0.7,1.1-1.5,2.2-1.6c0.7-0.4,1-0.8,0.8-1.3c-0.1-0.5-0.2-0.9-0.3-1.4c-0.5-2.1-1.2-4.5-0.2-6.5
				c1.5-3,3.1-3.4,6.1-4c0.6-0.1,1.2-0.2,1.8-0.2c2,0,3.5,0.7,5.4,1.8c0.4,0.2,0.5,0.8,0.4,1.2c-0.1,0.3-0.3,0.5-0.6,0.5
				c0,0,0,0,0,0c0.4,0.5,0.7,1.1,1,1.6c0.1-1,0.2-1.9,0.2-2.9c-0.1-2.9-0.9-5.8-2.4-8.7c0,0,0-0.1,0-0.2c0.2-0.4,0.4-0.9,0.6-1.4
				c0-0.1,0.1-0.1,0.1-0.1c0,0,0,0,0,0c0.1,0,0.1,0,0.1,0.1c2.1,3.4,3.1,6.8,3.2,10.3c0,0,0,0.1,0,0.1C55,39.3,51,48.1,44.6,53.5
				c-0.3,0.5-0.7,0.9-1.3,1.2C43,54.9,42.6,55.1,42.1,55.1L42.1,55.1z M41.6,51.3c0.1,0.2,0.1,0.5,0.2,0.7c0.1,0.3,0.2,0.7,0.3,1
				c0,0.1,0.1,0.2,0.1,0.3c0.1,0,0.1,0,0.2-0.1c0.2-0.1,0.4-0.2,0.6-0.4c0,0,0,0,0,0l0.2-0.2l0.2-0.2c-0.3-0.2-0.9-0.6-1.4-0.9
				C41.9,51.4,41.8,51.3,41.6,51.3z M37.9,44.3c0,0.3,0,0.7,0.1,1c0.3,0.9,1,1.8,1.8,2.6c0.2,0.2,0.4,0.4,0.6,0.7
				c0.1,0.2,0.2,0.3,0.4,0.5c0.1,0.1,0.1,0.1,0.1,0.2l0.8,0.5c1.1,0.7,2.2,1.4,2.7,1.8c0.1-0.1,0.3-0.3,0.4-0.4
				c-1.3-2.2-3.9-4.4-6-6.2C38.4,44.8,38.1,44.5,37.9,44.3z M39,43.3c2.4,2.1,4.8,4.2,6.6,7.1c0.3-0.4,0.7-0.8,1-1.2
				c-2.2-2.6-4.2-4.7-6.3-6.5c-0.2,0.2-0.5,0.3-0.8,0.4L39,43.3z M41,41.8c2.1,1.9,4.1,3.9,6.3,6.5c0.3-0.3,0.5-0.7,0.8-1.1
				c-2.2-2.7-4.5-5.2-7-7.6C41.2,40.4,41.2,41.1,41,41.8z M40.7,37.8c2.8,2.6,5.5,5.4,8,8.5c0.3-0.5,0.7-1.1,0.9-1.6l-0.5-0.4
				c-1.6-1.3-3.2-2.7-4.6-4.2c-0.9-1-1.8-2.1-2.5-3.2c-0.5-0.7-1.1-1.5-1.7-2.2C40.3,35.6,40.4,36.6,40.7,37.8z M40.5,33.2
				c0.8,0.9,1.4,1.8,2.1,2.7c0.7,1,1.4,2,2.3,2.9c1.6,1.8,3.5,3.4,5.3,4.9c0.2-0.3,0.3-0.7,0.5-1c-1.9-1.7-3.5-3.3-4.8-5.4
				c-1.3-2.2-3.1-3.7-4.9-5.2C40.8,32.3,40.6,32.7,40.5,33.2z M42.1,31.3c1.7,1.4,3.4,2.9,4.6,4.8c1.3,2.2,2.9,3.9,4.5,5.4
				c0.6-1.5,1.1-3,1.4-4.5c0,0-0.1,0-0.1,0c-0.2,0-0.3,0-0.4-0.1c-1.4-1.2-2.5-2.6-3.6-4c-0.8-1-1.6-2-2.5-2.9
				c-0.5,0.1-1,0.2-1.4,0.3l-0.4,0.1c3.1,2.6,5.4,5.4,7.4,8.1c0.1,0.2,0.1,0.3,0.1,0.4c-0.1,0.2-0.3,0.3-0.6,0.3
				c-0.2,0-0.4-0.1-0.5-0.2c-2.1-2.8-4.4-5.7-7.7-8.3c-0.4,0.1-0.7,0.3-1,0.5L42.1,31.3z M47.4,29.8c0.7,0.8,1.4,1.6,2,2.4
				c1.1,1.3,2.2,2.6,3.4,3.8c0.1-0.5,0.2-0.9,0.3-1.4c-0.1,0-0.1,0-0.2,0c-0.2,0-0.3-0.1-0.4-0.3c-0.4-0.9-0.8-1.5-1.2-2
				c-0.1-0.1-0.1-0.3,0-0.5c0.1-0.2,0.2-0.3,0.4-0.4c-0.2-0.1-0.3-0.2-0.5-0.3c-1-0.6-2.2-1.3-3.2-1.3
				C47.8,29.8,47.5,29.8,47.4,29.8z"/>
			<path class="st0" d="M51.8,20.2c-0.2,0.5-0.4,1-0.6,1.4c1.4,2.7,2.3,5.6,2.4,8.8c0,1.2-0.1,2.3-0.3,3.5c0,0,0,0,0,0
				c-0.4-0.8-0.8-1.5-1.3-2.2c-0.3-0.3-0.9,0.3-0.6,0.6c0.5,0.6,0.9,1.3,1.3,2.1c0.1,0.3,0.5,0.2,0.6-0.1c-0.1,0.7-0.2,1.4-0.4,2.1
				c0,0,0-0.1-0.1-0.1c-2.2-2-3.8-4.5-5.9-6.6c0.3,0,0.6-0.1,0.9-0.1c1.4,0,3,1.2,4.2,1.9c0.6,0.4,0.9-1,0.3-1.3
				c-2.5-1.4-4.1-2.1-7-1.6c-3.1,0.5-4.5,1-6,3.9c-1.2,2.4,0,5.3,0.5,7.8c0.2,0.7-0.3,1.2-1,1.5c-0.9,0.1-1.7,0.7-2.1,1.5
				c-0.4,0.8-0.5,1.8-0.2,2.6c0.5,1.7,1.6,2.8,2.5,3.9c0.8,0.9,1,2.3,1.4,3.9c0.1,0.2,0.1,0.4,0.2,0.6c0.1,0.1,0.1,0.2,0.2,0.4
				c0.1,0.1,0.1,0.1,0.2,0.2c0.1,0.1,0.2,0.1,0.3,0.2c0.8,0.2,1.3,0,1.7-0.2c0.5-0.3,1-0.7,1.2-1.2c6.4-5.4,10.4-14.2,10.5-22.8
				c0,0,0-0.1,0-0.1C54.9,26.7,53.7,23.3,51.8,20.2z M43.3,52.7c-0.1,0.1-0.1,0.1-0.2,0.2c0,0,0,0,0,0c-0.2,0.2-0.4,0.3-0.6,0.4
				c-0.1,0.1-0.3,0.1-0.4,0.1c0,0,0,0,0,0c-0.1-0.1-0.1-0.2-0.2-0.4c-0.2-0.6-0.4-1.4-0.6-2.1c0,0,0,0,0,0c0.5,0.3,1.9,1.2,2.4,1.5
				C43.6,52.5,43.4,52.6,43.3,52.7z M44.3,51.8c-0.6-0.5-2.3-1.5-3.6-2.4c-0.1-0.1-0.1-0.2-0.2-0.3c-0.1-0.2-0.2-0.3-0.4-0.5
				c-1-1.2-2-2.1-2.4-3.4c-0.1-0.5-0.2-1-0.1-1.4c2.3,2,5.6,4.6,7.2,7.3C44.7,51.4,44.5,51.6,44.3,51.8z M45.5,50.7
				c-1.8-3-4.2-5.2-6.9-7.5c0.3-0.1,0.6-0.2,0.8-0.3c0.4-0.1,0.6-0.3,0.8-0.5c2.4,2.1,4.5,4.3,6.5,6.7C46.4,49.7,46,50.2,45.5,50.7z
				 M47.3,48.6c-2-2.4-4.1-4.7-6.5-6.8c0.4-0.8,0.2-1.7,0-2.7c2.7,2.5,5.1,5.2,7.5,8.1C48,47.7,47.7,48.2,47.3,48.6z M48.7,46.6
				c-2.6-3.1-5.2-6-8.2-8.7c-0.2-1.2-0.4-2.4-0.3-3.6c1.6,1.8,2.8,3.9,4.5,5.7c1.6,1.7,3.4,3.2,5.2,4.7C49.5,45.3,49.1,46,48.7,46.6
				z M50.3,43.9c-1.9-1.6-3.8-3.2-5.5-5c-1.6-1.8-2.8-3.8-4.4-5.6c0.1-0.6,0.4-1.1,0.7-1.5c1.9,1.6,3.8,3.2,5.1,5.4
				c1.3,2.2,3,3.8,4.8,5.5C50.7,43,50.5,43.5,50.3,43.9z M51.3,41.8c-1.8-1.7-3.4-3.4-4.7-5.6c-1.2-2-3.1-3.6-4.9-5.1
				c0.4-0.3,0.8-0.5,1.3-0.7c3.1,2.4,5.4,5.2,7.8,8.4c0.2,0.3,1,0.1,0.7-0.3c-2.3-3.2-4.6-5.9-7.7-8.3c0.8-0.1,1.5-0.3,2.3-0.4
				c2.2,2.2,3.8,4.8,6.2,6.9c0.2,0.2,0.5,0.1,0.6,0C52.5,38.4,51.9,40.1,51.3,41.8z"/>
		</g>
		<g>
			<path class="st0" d="M14.3,54.9C14.3,54.9,14.3,54.9,14.3,54.9c-9.2-5.2-14.5-13.7-14-22.8c0.2-3.9,1.3-13.7,7-20
				c1.9-2.1,4.1-3.8,6.6-5c0,0,0.1,0,0.1-0.1c2.3-1.1,4.9-1.9,7.7-2.3c0,0,0.1,0,0.2,0c0,0,0.1,0,0.1,0c1-0.1,2-0.2,3-0.2l0.4,0
				c3.8,0,7.4,0.6,10.8,1.9c0.1,0,0.1,0.1,0.1,0.1c0,0.1,0,0.1-0.1,0.2c-0.4,0.2-0.8,0.5-1.2,0.7c0,0-0.1,0-0.1,0c0,0,0,0-0.1,0
				c-2.8-1-5.9-1.5-8.9-1.5c-0.6,0-1.2,0-1.8,0.1c-0.2,0-0.5,0-0.7,0.1L25,7.6c0.2-0.3,0.4-0.6,0.5-0.8c0.2-0.3,0.4-0.4,0.5-0.4
				c0.2,0,0.4,0.1,0.5,0.4c0.1,0.2,0.2,0.7,0,1l-1.6,2.9c-0.5,0.9,0.3,1.8,1,2.7c0.3,0.4,0.6,0.7,0.7,1c0.8,1.6,1.1,4.8-0.2,6.6
				c-0.3,0.5-0.7,0.8-1.1,1.1c0,0.1-0.1,0.2-0.1,0.3c-0.1,0.2-0.3,0.3-0.5,0.3l0,0c-0.1,0-0.1,0-0.2,0c-0.2,0.1-0.4,0.2-0.7,0.3
				c-1.8,0.8-2.1,1.2-1.3,2.9c0.9,1.9,1,3.5,0.5,5.7c-0.2,0.7-0.6,1.5-1.3,2.1c0,0-0.1,0.1-0.2,0.1c-0.8,0.7-1.8,1.3-2.8,1.6
				c-0.4,0.1-0.7,0.2-1,0.2c-0.9,0-1.7-0.4-2.5-0.7c-0.7-0.3-1.4-0.6-2.2-0.6c-0.6,0-1.1,0.2-1.7,0.5C11.1,35,11,35.1,11,35.3
				c-0.1,0.3,0.3,0.8,0.7,1.2c0.3,0.3,0.6,0.7,0.7,1c0.4,1.2,0.4,2.3,0,3.2c-0.6,1.8-2,3.2-3.3,4.5c-0.6,0.6-1.2,1.2-1.7,1.9
				c2,2.6,4.5,4.8,7.3,6.5c0.1,0,0.1,0.1,0.1,0.2c0,0.3-0.1,0.7-0.1,1C14.5,54.8,14.5,54.9,14.3,54.9C14.4,54.9,14.4,54.9,14.3,54.9
				z M3.8,41.1c0.7,1.6,1.5,3.2,2.6,4.7c0.4-0.4,0.7-0.9,1.1-1.3C7,44,6.5,43.4,6,42.8C5.3,42.2,4.6,41.7,3.8,41.1
				C3.8,41.1,3.8,41.1,3.8,41.1z M4.3,40.1c0.1,0,0.2,0,0.3,0.1c1,0.7,1.8,1.3,2.6,2.1c0.4,0.4,0.8,0.9,1.1,1.3
				c0.3-0.3,0.6-0.6,0.9-0.9c-2.2-2.8-4.5-5.2-6.9-7.5C2.5,37.2,3,39,3.7,40.8c0,0,0-0.1,0-0.1C3.8,40.4,4,40.1,4.3,40.1z M2.1,33.8
				c2.7,2.5,5.3,5.2,7.8,8.3c1.9-1.8,1.1-3.1,0.2-4.7c-0.1-0.2-0.3-0.5-0.4-0.7c-0.1-0.3-0.2-0.6-0.3-0.8c-2-2.3-4.4-5-6.9-7.6
				c-0.1,0.5-0.1,0.9-0.2,1.4c0.5,0.6,0.9,1.2,1.3,1.8c0.6,0.8,1.2,1.7,1.9,2.5C6.6,35,7.9,36,9.1,37l0.5,0.4
				c0.2,0.2,0.2,0.5,0.2,0.7c-0.1,0.2-0.3,0.4-0.5,0.4c-0.1,0-0.2,0-0.3-0.1l-0.8-0.6c-1.3-1-2.7-2.1-3.9-3.4
				c-0.6-0.7-1.1-1.4-1.5-2.1c-0.3-0.4-0.5-0.8-0.8-1.1c0,0.1,0,0.2,0,0.3C2,32.2,2.1,33,2.1,33.8z M2.6,26.8
				c2.6,2.5,4.9,5.2,6.9,7.6c0.2-0.3,0.5-0.6,0.9-0.9c-1.2-0.9-2.6-2.1-3.4-3.7C6,27.6,4.5,26.2,3,25C2.9,25.6,2.8,26.2,2.6,26.8z
				 M4.4,20.9c1.7,1.4,3.6,3.2,5.1,5.7c1.7,2.7,3.3,4.5,5.4,6.2c0.4,0.2,1,0.5,1.6,0.9c0.5,0.3,1,0.5,1.5,0.5c0.9,0,1.7-0.5,2.1-1
				C15.9,27.4,11,22.5,5.8,17.6c-0.2,0.4-0.4,0.8-0.6,1.2c2,1.8,3.8,3.6,6,6.5c1.2,1.6,2.8,2.9,4.3,4.1c1,0.9,2.1,1.8,3.1,2.8
				c0.2,0.2,0.2,0.5,0.1,0.8c-0.1,0.2-0.2,0.3-0.4,0.3c-0.1,0-0.2,0-0.3-0.1c-0.9-0.9-2-1.8-3-2.6c-1.4-1.1-2.9-2.3-4.1-3.8
				c-2.1-2.7-3.9-4.8-6.2-6.9C4.6,20.2,4.5,20.5,4.4,20.9z M3.4,23.8c1.6,1.3,2.8,2.4,3.8,3.9c0.3,0.4,0.5,0.8,0.7,1.2
				c0.4,0.7,0.8,1.4,1.3,2c0.7,0.8,1.5,1.4,2.3,1.9c0.5-0.2,0.9-0.4,1.3-0.4c-1.7-1.6-3.1-3.5-4.5-5.3C7,25.4,5.6,23.6,4,22
				C3.7,22.6,3.6,23.2,3.4,23.8z M6.4,16.6c5.2,5,10.2,9.9,14.4,15.6c0.3-0.5,0.6-1.1,0.7-1.7c-0.1,0-0.1-0.1-0.2-0.1
				c-4.9-5.6-9.1-10-13.2-14C8,16.3,7.9,16,8,15.8c0.1-0.2,0.3-0.4,0.5-0.4c0.1,0,0.2,0,0.3,0.1c4.1,3.8,8.2,8.2,13,13.7
				c0.1-0.7,0-1.3-0.3-1.8c-0.1-0.1-0.2-0.3-0.3-0.5c-0.6-1.2-1.6-3.1-0.4-4.1c0.1-0.1,0.2-0.2,0.3-0.3l-0.1,0
				c-1.5-1.2-3-2.4-4.3-3.8c-0.9-0.9-1.6-1.9-2.3-2.9c-0.7-1-1.4-2-2.2-2.9c-0.1-0.1-0.2-0.4-0.1-0.6c0.1-0.2,0.3-0.4,0.6-0.4
				c0.1,0,0.2,0.1,0.3,0.1c0.8,0.8,1.4,1.8,2.1,2.7c0.6,0.9,1.3,1.8,2,2.6c1.5,1.7,3.3,3.1,5,4.5c0.2-0.1,0.5-0.2,0.7-0.4l0.2-0.1
				c-1.6-1.7-3.1-3.4-4.6-5.2c-1.9-2.2-3.8-4.5-6-6.6c-1.2,0.8-2.3,1.7-3.3,2.7c3.7,3.5,7.2,7.2,10.6,11.4c0.1,0.2,0.1,0.3,0.1,0.4
				c-0.1,0.2-0.4,0.3-0.6,0.3c-0.2,0-0.4-0.1-0.5-0.2c-3.3-4-6.6-7.6-10.3-11c-0.4,0.5-0.7,0.9-1,1.3C7.3,15.1,6.8,15.7,6.4,16.6z
				 M13.6,9c2.1,2,4,4.3,5.8,6.4c1.5,1.8,3.1,3.6,4.7,5.4c0.4-0.3,0.7-0.6,1-1c-3.8-4.8-7.1-8.3-10.5-11.3C14.3,8.6,14,8.8,13.6,9z
				 M15.7,8c3.3,2.9,6.4,6.2,10,10.7c0-0.1,0.1-0.3,0.1-0.5c0.1-0.5,0.1-1,0-1.5c-0.1,0-0.1-0.1-0.2-0.1c-1.8-1.7-3.3-3.5-4.8-5.3
				c-1.1-1.3-2.2-2.6-3.4-3.9C16.8,7.5,16.2,7.7,15.7,8z M18.5,7c1.1,1.2,2.1,2.4,3.2,3.6c0.8,1,1.7,2,2.5,2.9
				c-0.4-0.6-0.7-1.3-0.7-2.2c-0.1,0-0.1-0.1-0.2-0.3c-0.2-0.9-0.3-1.5-1-2c-0.4-0.3-0.9-0.6-1.4-0.9L20.3,8
				c-0.2-0.1-0.3-0.3-0.2-0.5c0.1-0.3,0.3-0.5,0.6-0.5c0.1,0,0.2,0,0.2,0.1l0.4,0.2c0.6,0.3,1.3,0.7,1.8,1.2
				c0.3,0.3,0.5,0.6,0.7,0.9c0.1-0.3,0.3-0.5,0.5-0.8l-2.1-2.3C20.9,6.4,19.6,6.6,18.5,7z"/>
			<path class="st0" d="M24.8,10.6c0.5-1,1.1-2,1.6-2.9c0.3-0.6-0.3-1.6-0.8-0.8c-0.2,0.3-0.4,0.6-0.6,1c-0.6-0.7-1.2-1.3-1.8-2
				c0.4,0,0.7-0.1,1.1-0.1C28,5.6,31.6,6.1,35,7.3c0.4-0.3,0.8-0.5,1.2-0.7c-3.5-1.3-7.3-1.9-11.1-1.9c-1,0-2,0.1-3,0.2
				c-0.1,0-0.2,0-0.3,0c-2.7,0.3-5.3,1.1-7.7,2.3c0,0-0.1,0-0.1,0.1c-2.4,1.2-4.6,2.8-6.6,5c-4.7,5.1-6.7,13.1-7,19.9
				C0,42,6.2,50.1,14.3,54.7c0-0.3,0.1-0.7,0.1-1c-2.8-1.8-5.4-4-7.4-6.7c0,0,0,0,0,0c1.7-2.1,4.2-3.8,5.1-6.4
				c0.4-1.1,0.3-2.1,0-3.1c-0.3-0.9-2.3-2-0.9-2.8c3.1-1.8,4.5,1.5,7.5,0.6c0.9-0.3,1.9-0.8,2.7-1.6c0.1,0,0.1-0.1,0.1-0.1
				c0.6-0.6,1.1-1.3,1.3-2.1c0.5-2.1,0.4-3.7-0.5-5.6c-0.8-1.8-0.4-2.3,1.4-3.1c0.3-0.1,0.5-0.2,0.8-0.4c0.2,0.2,0.7-0.1,0.7-0.4
				c0.4-0.3,0.8-0.6,1.1-1.1c1.2-1.6,1-4.7,0.2-6.4C26,13.5,24,12.1,24.8,10.6z M22.3,6c0.8,0.8,1.5,1.7,2.3,2.5
				c-0.3,0.4-0.5,0.9-0.7,1.3c-0.1-0.5-0.3-0.8-0.8-1.2c-0.7-0.6-1.5-1-2.2-1.4c-0.4-0.2-0.8,0.5-0.5,0.7c0.6,0.4,1.3,0.7,1.9,1.1
				c0.8,0.6,0.9,1.2,1.1,2.1c0,0.1,0.1,0.2,0.2,0.2c0.1,1.5,1,2.5,1.6,3.7c-2.5-2.6-4.6-5.4-7.1-8C19.5,6.5,20.9,6.2,22.3,6z
				 M2.9,24.7c1.8,1.4,3.2,2.8,4.3,5c0.8,1.6,2.1,2.8,3.5,3.8c-0.5,0.3-0.9,0.7-1.1,1.2C7.3,32,5,29.4,2.5,26.9
				C2.6,26.2,2.8,25.4,2.9,24.7z M8.2,43.9c-0.4-0.5-0.8-1-1.2-1.5c-0.8-0.8-1.6-1.5-2.5-2.1c-0.3-0.2-0.9,0.4-0.5,0.6
				c0.8,0.5,1.5,1,2.2,1.7c0.6,0.6,1.1,1.2,1.6,1.8C7.3,45,6.9,45.5,6.5,46c0,0.1-0.1,0.1-0.1,0.2C4,42.8,2.5,39,2,34.9
				c2.7,2.5,5,5.1,7.3,7.9C9,43.2,8.6,43.6,8.2,43.9z M9.9,42.4c-2.5-3.1-5-5.8-7.9-8.5c0-0.8-0.1-1.6,0-2.4c0-0.2,0-0.5,0.1-0.7
				c0.9,1.2,1.6,2.5,2.6,3.6c1.3,1.5,3,2.7,4.6,3.9c0.4,0.3,0.7-0.5,0.4-0.7c-1.5-1.1-3-2.2-4.2-3.5C4,32.7,3.2,31,2.1,29.7
				c0.1-0.6,0.1-1.2,0.2-1.8c2.5,2.5,4.9,5.2,7.2,7.9c0.1,0.3,0.1,0.5,0.3,0.8C10.9,38.6,12.3,40.2,9.9,42.4z M11.5,33.1
				c-0.8-0.6-1.7-1.2-2.4-2c-0.9-1-1.4-2.2-2.1-3.3C6,26.2,4.7,25,3.2,23.9c0.2-0.7,0.4-1.5,0.7-2.2c3.6,3.4,5.8,7.7,9.4,10.9
				C12.7,32.6,12.2,32.8,11.5,33.1z M16.3,33.8c-0.6-0.4-1.1-0.7-1.6-0.9c-2.3-1.8-3.9-3.8-5.4-6.3c-1.4-2.3-3.1-4-5.1-5.7
				c0.2-0.4,0.3-0.9,0.5-1.3c2.5,2.1,4.4,4.4,6.4,7c1.9,2.5,4.8,4.1,7,6.4c0.3,0.3,0.6-0.4,0.4-0.7c-2.4-2.4-5.3-4.2-7.4-6.9
				c-1.9-2.5-3.7-4.5-6-6.5c0.2-0.5,0.5-1.1,0.8-1.6c5.2,5,10.2,10,14.5,15.8C19.3,34.2,17.8,34.7,16.3,33.8z M22.3,22.1
				c-1.8-1.5-3.5-2.9-5.1-4.6c-1.5-1.7-2.6-3.7-4.1-5.3c-0.3-0.3-0.8,0.3-0.6,0.6c1.7,1.8,2.9,4,4.5,5.8c1.4,1.5,2.9,2.7,4.5,4
				c-0.2,0.1-0.3,0.2-0.5,0.4c-1.3,1.1,0.2,3.4,0.7,4.4c0.3,0.7,0.4,1.5,0.2,2.3c0,0,0,0,0-0.1c-4.2-4.9-8.5-9.5-13.2-14
				C8.3,15.3,8,16,8.3,16.3c4.7,4.4,9,9.1,13.2,14c0.1,0.1,0.2,0.1,0.3,0c-0.2,0.8-0.5,1.5-1,2.2c-4.4-5.8-9.4-10.8-14.7-15.9
				c0.4-0.8,0.9-1.5,1.4-2.3c0.3-0.5,0.7-1,1.1-1.4c3.7,3.5,7.2,7.2,10.4,11.2c0.2,0.3,1,0.1,0.7-0.3C16.4,19.7,13,16,9.1,12.4
				c1.1-1.2,2.2-2.1,3.5-3c4,3.7,7,8.1,10.8,12C23.1,21.6,22.7,21.8,22.3,22.1z M24.2,21c-3.8-3.9-6.8-8.3-10.8-12
				c0.4-0.3,0.9-0.5,1.3-0.7c4,3.5,7.4,7.4,10.7,11.5C25.1,20.3,24.7,20.7,24.2,21z M25.9,18.2c-0.1,0.3-0.1,0.6-0.2,0.8
				c-3.2-4-6.5-7.7-10.3-11.1c0.6-0.3,1.3-0.5,2-0.8c2.9,3,5.3,6.4,8.3,9.3c0.1,0.1,0.1,0.1,0.2,0.1C26,17,26.1,17.5,25.9,18.2z"/>
		</g>
	</g>
	<g>
		<g>
			<path class="st0" d="M34.5,26.5c-0.2,0-0.3-0.1-0.4-0.2C34,26.3,34,26.1,34,25.9c0.1-1,0.1-1.9-0.1-3.1c0-0.2,0-0.4,0.1-0.5
				c0.1-0.2,0.3-0.2,0.5-0.2c0.6,0.1,1,0.1,1.5,0.1c0.6,0,1.1,0,1.7-0.1c0,0,0.1,0,0.1,0c0.3,0,0.5,0.2,0.5,0.5
				c0,0.3-0.2,0.6-0.5,0.7c-0.6,0.1-1.2,0.2-1.8,0.2c1.4,1,3,1.6,4.8,1.9c0.3,0.1,0.7,0.1,1,0.1c1.8,0,3.6-0.7,5.2-2.1
				c3.2-2.8,3.8-8.2,1.3-12.1c-0.1-0.2-0.1-0.4,0-0.5c0.1-0.2,0.3-0.3,0.6-0.3c0.2,0,0.4,0.1,0.5,0.3c2.6,4,2.5,10.6-1.8,13.7
				c-1.6,1.2-3.4,2.2-5.6,2.2l0,0c-0.3,0-0.7,0-1-0.1c-2.3-0.4-4.1-1.1-5.6-2.1c0,0,0,0.1,0,0.1c0,0.5,0,1-0.1,1.5l0,0.3
				C35.1,26.3,34.8,26.5,34.5,26.5z"/>
			<path class="st0" d="M49.1,10.7c-0.1-0.2-0.6-0.1-0.5,0.2c2.5,3.8,2.2,9.5-1.4,12.5c-1.8,1.6-4.1,2.5-6.5,2.1
				c-2.2-0.3-4.1-1.2-5.8-2.6c0.9,0.1,1.8,0,2.7-0.1c0.3,0,0.3-0.5,0-0.4c-1.1,0.2-2.1,0.2-3.2,0.1c-0.2,0-0.4,0.1-0.3,0.3
				c0.2,1.1,0.3,2.1,0.1,3.2c0,0.3,0.4,0.2,0.5,0c0.1-0.5,0.2-1.1,0.2-1.7c0-0.3-0.1-0.6-0.1-0.9c1.8,1.5,3.9,2.2,6.1,2.6
				c2.4,0.4,4.4-0.7,6.4-2.1C51.5,21,51.7,14.6,49.1,10.7z"/>
		</g>
		<g>
			<path class="st0" d="M33.3,22c-0.2,0-0.3-0.1-0.4-0.2c-1.8-2.7-2.3-5.2-1.7-7.4c0.5-2,1.8-3.9,3.9-6c1-1,3.1-2.6,5.6-2.6
				c0.2,0,0.4,0,0.6,0c2.2,0.2,4.2,1,5.9,2.1c-0.1-0.6-0.1-1.1,0-1.7c0-0.3,0.4-0.6,0.7-0.6c0.1,0,0.3,0.1,0.3,0.1
				c0.1,0.1,0.1,0.2,0.1,0.4c-0.1,1.1,0,2,0.4,3.2c0,0.2,0,0.4-0.1,0.5C48.4,10,48.2,10,48,10c-0.2,0-0.3,0-0.5,0
				c-1,0-1.8,0.1-2.6,0.3c0,0-0.1,0-0.2,0c-0.3,0-0.5-0.2-0.5-0.4c0-0.3,0.2-0.6,0.5-0.7C45.3,9.1,45.9,9,46.6,9
				c-1.5-1.1-3.3-1.8-5.1-2c-0.2,0-0.4,0-0.6,0c-1.8,0-3.6,0.8-5.2,2.4c-1.4,1.4-2.9,3.1-3.3,5.1c-0.4,2.1,0.1,4.2,1.6,6.6
				c0.1,0.2,0.1,0.4,0,0.6C33.8,21.8,33.6,22,33.3,22L33.3,22z"/>
			<path class="st0" d="M31.9,14.4c0.4-2.1,1.9-3.8,3.4-5.3c1.7-1.7,3.7-2.7,6.1-2.5c2.2,0.2,4.4,1.2,6,2.6c-0.9,0-1.7,0.1-2.7,0.4
				c-0.3,0.1-0.3,0.5,0,0.4c1.1-0.3,2.1-0.4,3.2-0.3c0.2,0,0.3-0.2,0.3-0.3c-0.3-1.1-0.5-2.1-0.4-3.3c0-0.3-0.5-0.1-0.5,0.1
				c-0.1,0.9,0,1.7,0.2,2.5c-1.8-1.5-4.1-2.3-6.4-2.6c-2.2-0.2-4.3,1-5.9,2.5c-1.7,1.6-3.2,3.5-3.8,5.8c-0.7,2.5,0.3,5.1,1.7,7.2
				c0.2,0.2,0.5-0.1,0.4-0.3C32.2,19.2,31.4,16.9,31.9,14.4z"/>
		</g>
		<g>
			<path class="st0" d="M35.2,11.9c-0.2,0-0.4-0.1-0.5-0.3c-0.1-0.2-0.1-0.5,0.1-0.6c0.3-0.4,0.7-0.8,1.1-1.1
				c0.1-0.1,0.3-0.1,0.4-0.1c0.2,0,0.4,0.1,0.5,0.4c0.1,0.2,0,0.5-0.2,0.7c-0.3,0.3-0.6,0.5-0.8,0.9C35.4,11.9,35.3,11.9,35.2,11.9
				L35.2,11.9z"/>
			<path class="st0" d="M36,10.2c-0.4,0.3-0.7,0.7-1,1c-0.2,0.2,0.1,0.6,0.3,0.3c0.3-0.4,0.6-0.7,0.9-0.9C36.4,10.4,36.3,10,36,10.2
				z"/>
		</g>
		<g>
			<path class="st0" d="M45.2,20.2l-0.5-0.1c-0.8-0.1-1.5-0.2-2.3-0.2c-0.3,0-0.6,0-0.9,0c-0.9,0.1-1.7,0.1-2.6,0.1
				c-0.5,0-0.9,0-1.4,0c-0.3,0-0.5-0.2-0.5-0.5c0.1-1.7,0.9-3.1,2.4-3.8c-0.6-0.5-0.9-1.2-0.8-2c0.2-1.5,0.9-2.6,2.1-2.8l0,0
				c0.2,0,0.5,0,0.5,0c1.4,0,2.9,0.9,3,2.4c0,0.9-0.4,1.7-1,2.3c0.7,0.2,1.2,0.5,1.7,0.9c0.9,0.7,1,1.9,1,3c0,0.3-0.3,0.5-0.5,0.6
				C45.4,20.2,45.2,20.2,45.2,20.2C45.2,20.2,45.2,20.2,45.2,20.2z M38.2,19.1c0-0.1-0.1-0.1-0.1-0.2c0,0.1,0,0.1,0,0.2L38.2,19.1z
				 M44.6,19.1c-0.4-0.4-0.9-0.9-1.3-1.4C43.7,18.2,44.1,18.6,44.6,19.1L44.6,19.1z M40.5,19C40.5,19,40.6,19,40.5,19
				c0-0.1-0.1-0.2-0.2-0.3C40.4,18.8,40.5,18.9,40.5,19z M43,18.9c0,0-0.1-0.1-0.1-0.1C42.9,18.8,42.9,18.8,43,18.9L43,18.9z
				 M40.2,17.2c0.5,0.6,1,1.1,1.5,1.6c0,0,0,0,0,0C41.3,18.2,40.8,17.7,40.2,17.2z M41.1,16.6c0.3,0.3,0.6,0.6,0.9,0.9
				c-0.2-0.3-0.4-0.6-0.6-0.8c0,0,0,0,0,0C41.3,16.6,41.1,16.6,41.1,16.6z M42.3,15C42.3,15,42.2,15,42.3,15
				C42.2,15,42.2,15,42.3,15z M40.7,12.2c0.4,0.3,0.8,0.7,1.1,1C41.5,12.8,41.1,12.5,40.7,12.2C40.7,12.2,40.7,12.2,40.7,12.2z
				 M42.7,12.8C42.7,12.9,42.7,12.9,42.7,12.8z"/>
			<path class="st0" d="M37.3,19.6c0,0.1,0.1,0.2,0.2,0.2c1.4,0.1,2.6,0,4-0.1c1.3-0.1,2.5,0.1,3.8,0.2c0,0,0.1,0,0.1,0
				c0.1,0,0.3-0.1,0.3-0.2c0-1-0.1-2.1-0.9-2.7c-0.7-0.5-1.4-0.8-2.3-1c0.8-0.5,1.3-1.5,1.4-2.5c-0.1-1.3-1.4-2-2.6-2.1
				c-0.2,0-0.5,0-0.5,0c-1.1,0.2-1.7,1.3-1.9,2.5c-0.1,1,0.5,1.7,1.2,2C38.4,16.4,37.3,17.7,37.3,19.6z"/>
			<path class="st0" d="M38.6,19.4c-0.3,0-0.6,0-0.9,0c-0.1,0,0.2-1,0.3-1.3c0,0,0,0,0-0.1c0.3,0.6,0.5,1,1,1.4
				C38.9,19.5,38.7,19.4,38.6,19.4z"/>
			<path class="st0" d="M41.6,19.2c-0.8-0.8-1.6-1.7-2.3-2.6c0.2-0.1,0.4-0.1,0.6-0.2c0.9,0.8,1.8,1.5,2.4,2.5
				c0.1,0.1,0.4,0,0.3-0.1c-0.6-1-1.5-1.7-2.3-2.5c0.5-0.1,1-0.1,1.4-0.1c0,0.1,0,0.1,0,0.2c0.7,1,1.3,2,2.2,2.9
				c-0.4,0-0.8-0.1-1.2-0.1C42.3,19.1,42,19.1,41.6,19.2z"/>
			<path class="st0" d="M42.7,16.5c0.7,0.9,1.5,1.7,2.3,2.5c0,0.2,0,0.3,0,0.5c-0.2,0-0.5-0.1-0.7-0.1c-1-0.9-1.7-2-2.4-3.1
				C42.2,16.3,42.5,16.4,42.7,16.5z"/>
			<path class="st0" d="M44.9,18.5c-0.6-0.6-1.1-1.2-1.7-1.9C44.1,17,44.6,17.6,44.9,18.5z"/>
			<path class="st0" d="M41.3,15.8c-0.6-0.7-1.3-1.4-1.9-2.1c0-0.2,0.1-0.4,0.1-0.6c0.9,0.8,1.8,1.5,2.5,2.5c-0.1,0-0.2,0.1-0.2,0.1
				c-0.1,0-0.1,0-0.2,0.1C41.5,15.8,41.3,15.8,41.3,15.8z"/>
			<path class="st0" d="M40.8,11.8c0.5,0.4,0.9,0.7,1.3,1.2c0.3,0.4,0.6,0.9,1,1.4c-0.1,0.2-0.1,0.3-0.2,0.4c-0.8-1-1.7-1.9-2.7-2.7
				C40.3,12,40.5,11.9,40.8,11.8z"/>
			<path class="st0" d="M43.3,13.4c0,0.2,0,0.4-0.1,0.6c-0.3-0.4-0.6-0.9-0.9-1.3c-0.3-0.4-0.7-0.7-1.1-1
				C42.2,11.7,43.2,12.3,43.3,13.4z"/>
			<path class="st0" d="M39.9,12.3c1,0.8,1.9,1.7,2.8,2.7c-0.1,0.2-0.3,0.3-0.5,0.5c-0.7-1.1-1.6-1.8-2.6-2.6
				C39.7,12.7,39.8,12.5,39.9,12.3z"/>
			<path class="st0" d="M39.4,14.2c0.5,0.5,1,1.1,1.5,1.6c0,0,0,0-0.1,0C40.1,15.7,39.4,15,39.4,14.2z"/>
			<path class="st0" d="M39.1,16.7C39.1,16.7,39.1,16.8,39.1,16.7c0.7,0.9,1.4,1.7,2.2,2.5c-0.3,0-0.6,0.1-0.9,0.2
				c-0.5-0.8-1-1.4-1.7-2.1c-0.1-0.1-0.3,0.1-0.2,0.2c0.7,0.6,1.1,1.1,1.6,1.9c-0.1,0-0.2,0-0.3,0c-0.1,0-0.3,0-0.4,0
				c-0.7-0.6-0.9-1-1.3-1.8C38.3,17.3,38.7,17,39.1,16.7z"/>
		</g>
	</g>
</g>
<g id="Layer_2">
	<g>
		<path class="st0" d="M58.9,1.3c-1.6-0.6-3.8-0.3-5.2,0.7c-1.4,1.1-2.3,2.9-2.3,4.8l0,0c0,0.3,0.2,0.2,0.4,0.3
			c0.2,0,0.4,0.1,0.5-0.1l0,0c0.5-1.7,0-3.7-1.4-4.8c-0.7-0.6-1.5-0.9-2.3-1c-0.8,0-1.6,0-2.2,0.5c-0.2,0.2-0.4,0.5-0.2,0.7
			c0.1,0.2,0.4,0.5,0.6,0.4l0,0c0.6-0.2,1.2-0.3,1.8-0.2c0.6,0.1,1.2,0.3,1.6,0.7c0.9,0.8,1.5,2.1,1.3,3.5L52.4,7l0,0
			c0.2-1.6,1.2-3.3,2.3-4.2c1.1-0.9,2-1.2,3.4-0.7C58.4,2.1,58.9,2.2,59,2C59.1,1.7,59.2,1.4,58.9,1.3z"/>
	</g>
	<g>
		<path class="st0" d="M11.3,80.2c1.2-7,2.7-14,4.4-20.9c1.7-6.9,3.6-13.8,5.8-20.6c0.2-0.2,0.6-0.4,1-0.5c0.1,0,0.2,0.1,0.3,0.2
			c0.8,0.8,1.3,1.9,1.6,2.9c0.3,1,0.5,1.9,0.8,2.9c0.1,0.4-0.1,0.5-0.5,0.6c-0.4,0.1-0.7,0-0.8-0.4l-0.2-0.4c-0.3-1-0.4-1.4-0.7-2.3
			c-0.3-0.9-0.6-1.7-1.2-2.2l1.3-0.3c-2.1,6.8-3.9,13.6-5.7,20.5c-1.7,6.9-3.2,13.8-4.5,20.8c-0.1,0.4-0.7,0.6-1.1,0.5
			C11.2,80.9,11.2,80.6,11.3,80.2z"/>
	</g>
	<g>
		<path class="st0" d="M21.7,79.6c1.7-6.7,3.1-13.5,4.4-20.4l2-10.3c0.7-3.4,1.4-6.8,2.2-10.2l0,0c0.1-0.2,0.7-0.4,1-0.5
			c0.2,0,0.2,0.1,0.3,0.2l0,0c0.1,0.1,0.2,0.3,0.2,0.3c0,0.1,0.1,0.1,0.1,0.2l0.1,0.4l0.2,0.7l0.4,1.3l0.7,2.6l1.4,5.2
			c0.9,3.4,1.7,6.9,2.6,10.4L40,69.6l1.2,5.2l0.6,2.6l0.3,1.3l0.1,0.7c0,0.2,0.1,0.4,0.1,0.8c0,0.5-0.4,0.7-1,0.8
			c-0.5,0-1-0.1-1-0.7c0,0,0,0,0,0l0-0.1c0,0,0-0.3-0.1-0.5L40,79.1l-0.2-1.3l-0.5-2.6L38.2,70l-2.3-10.4c-0.8-3.5-1.6-6.9-2.5-10.4
			l-1.3-5.2l-0.7-2.6L31,40.3l-0.2-0.6l-0.1-0.3c0-0.1-0.1-0.2,0-0.1l0,0L32,39c-0.8,3.4-1.5,6.8-2.1,10.2
			c-0.6,3.4-1.3,6.8-1.8,10.3c-1.2,6.9-2.4,13.7-3.8,20.6c-0.1,0.7-0.9,0.9-1.6,0.7C21.9,80.7,21.6,80.3,21.7,79.6
			C21.7,79.6,21.7,79.6,21.7,79.6z"/>
	</g>
	<g>
		<path class="st0" d="M39.3,74.5h-9.1c-0.6,0-1-0.4-1-1s0.4-1,1-1h9.1c0.6,0,1,0.4,1,1S39.9,74.5,39.3,74.5z"/>
	</g>
	<g>
		<path class="st0" d="M29.2,66c0.8,2.3,1.2,4.7,1.7,7c0.5,2.3,1,4.6,1.8,6.7c0.2,0.5-0.1,1.1-0.6,1.3c-0.5,0.2-1.1-0.1-1.3-0.6
			c0,0,0,0,0,0l0,0c-0.8-2.3-1.2-4.7-1.6-7.1c-0.4-2.3-0.7-4.6-1.4-6.9c-0.1-0.4,0.1-0.6,0.5-0.7C28.6,65.6,29,65.6,29.2,66z"/>
	</g>
	<g>
		<path class="st0" d="M19.6,48.8c-0.3,0-0.6-0.3-0.6-0.6c0-0.4,0.3-0.7,0.6-0.7l9.3-0.5c0.3,0,0.7,0.3,0.7,0.6
			c0,0.4-0.3,0.7-0.6,0.7L19.6,48.8C19.7,48.8,19.7,48.8,19.6,48.8z"/>
	</g>
	<g>
		<g>
			<path class="st0" d="M16.5,55.6c-0.3,0-0.4-0.3-0.4-0.7c0-0.4,0-0.6,0.3-0.6l11.4-0.6c0.4,0,0.7,0.3,0.7,0.6
				c0,0.4-0.3,0.7-0.6,0.7L16.5,55.6C16.5,55.6,16.5,55.6,16.5,55.6z"/>
		</g>
	</g>
	<g>
		<path class="st0" d="M15.4,63.1c-0.3,0-0.6-0.3-0.6-0.6c0-0.4,0.3-0.7,0.6-0.7l11.4-0.6c0.4,0,0.7,0.3,0.7,0.6
			c0,0.4-0.3,0.7-0.6,0.7L15.4,63.1C15.4,63.1,15.4,63.1,15.4,63.1z"/>
	</g>
	<g>
		<g>
			<path class="st0" d="M17.9,52.2c-0.3,0-0.5,0-0.6-0.3c0-0.4,0.2-0.9,0.5-1c1.8-0.1,3.7-0.3,5.5-0.4c1.8-0.2,3.7-0.3,5.5-0.4
				c0.4,0,0.7,0.3,0.7,0.6c0,0.4-0.3,0.7-0.6,0.7c-1.8,0.1-3.7,0.3-5.5,0.4C21.7,51.9,19.8,52.1,17.9,52.2
				C17.9,52.2,17.9,52.2,17.9,52.2z"/>
		</g>
	</g>
	<g>
		<path class="st0" d="M16.5,59.4c-0.3,0-0.6-0.3-0.6-0.6c0-0.4,0.3-0.7,0.6-0.7l10.6-0.6c0.4,0,0.7,0.3,0.7,0.6
			c0,0.4-0.3,0.7-0.6,0.7L16.5,59.4C16.5,59.4,16.5,59.4,16.5,59.4z"/>
	</g>
	<g>
		<path class="st0" d="M24.3,70.1H14.1c-0.4,0-0.6-0.3-0.6-0.7s0.3-0.7,0.6-0.7h10.2c0.4,0,0.6,0.3,0.6,0.7S24.7,70.1,24.3,70.1z"/>
	</g>
	<g>
		<path class="st0" d="M24.7,66.5H14.6c-0.4,0-0.6-0.3-0.6-0.7s0.3-0.7,0.6-0.7h10.2c0.4,0,0.6,0.3,0.6,0.7S25.1,66.5,24.7,66.5z"/>
	</g>
	<g>
		<path class="st0" d="M23.4,74.1H13.2c-0.4,0-0.6-0.3-0.6-0.7s0.3-0.7,0.6-0.7h10.2c0.4,0,0.6,0.3,0.6,0.7S23.8,74.1,23.4,74.1z"/>
	</g>
</g>
</svg>
