<svg xmlns="http://www.w3.org/2000/svg" viewBox="0 0 180.43 126.43"><defs><style>.cls-1{isolation:isolate;}.cls-2{fill:#952525;}.cls-3{fill:#882121;}.cls-4{fill:#481212;}.cls-5{fill:#852121;}.cls-6{fill:#892222;}.cls-7{fill:#7e1f1f;}.cls-8{fill:#7d1f1f;}.cls-9{fill:#7f1f1f;}.cls-10{fill:#691a1a;}.cls-11{fill:#781d1d;}.cls-12{fill:#932424;}.cls-13{fill:#4c1313;}.cls-14{fill:#681919;}.cls-15{fill:#561515;}.cls-16{fill:#5c1717;}.cls-17{fill:#591616;}.cls-18{fill:#6b1a1a;}.cls-19{fill:#942424;}.cls-20{fill:#801f1f;}.cls-21{fill:#a52828;}.cls-22{fill:#571515;}.cls-23{fill:#6f1b1b;}.cls-24{fill:#521414;}.cls-25{fill:#6c1b1b;}.cls-26{fill:#5b1616;}.cls-27{fill:#681a1a;}.cls-28{fill:#6a1a1a;}.cls-29{fill:#982525;}.cls-30{fill:#a12828;}.cls-31{fill:#a12727;}.cls-32{fill:#992525;}.cls-33{fill:#a22828;}.cls-34{fill:#a82929;}.cls-35{fill:#a92929;}.cls-36{fill:#8d2323;}.cls-37{fill:#9e2727;}.cls-38{fill:#952424;}.cls-39{fill:#a42828;}.cls-40{fill:#9d2626;}.cls-41{fill:#651919;}.cls-42{fill:#4f1313;}.cls-43{fill:#962525;}.cls-44{fill:#a02727;}.cls-45{fill:#9a2626;}.cls-46{fill:#992626;}.cls-47{fill:#9b2626;}.cls-48{fill:#c83131;}.cls-49{fill:#551515;}</style></defs><title>Algeria</title><g id="Layer_2" data-name="Layer 2"><g id="Layer_1-2" data-name="Layer 1"><g class="cls-1"><polygon class="cls-2" points="55.73 2.91 55.68 19.21 55.42 19.55 55.46 3.25 55.73 2.91"/><polygon class="cls-3" points="70.84 13.84 70.8 30.14 70.4 30.9 70.44 14.6 70.84 13.84"/><polygon class="cls-4" points="18.48 23.51 18.44 39.81 18.41 38.72 18.46 22.41 18.48 23.51"/><polygon class="cls-5" points="114.37 27.32 114.32 43.62 113.64 45.02 113.68 28.71 114.37 27.32"/><polygon class="cls-4" points="6.38 37.05 6.34 53.35 6.13 52.55 6.18 36.25 6.38 37.05"/><polygon class="cls-4" points="6.81 37.63 6.77 53.94 6.34 53.35 6.38 37.05 6.81 37.63"/><polygon class="cls-6" points="144.48 42.14 144.43 58.44 143.24 60.6 143.29 44.3 144.48 42.14"/><polygon class="cls-4" points="2.12 46.15 2.07 62.45 1.34 60.46 1.38 44.15 2.12 46.15"/><polygon class="cls-7" points="180.44 46.7 180.39 63 180.22 63.43 180.27 47.13 180.44 46.7"/><polygon class="cls-8" points="180.27 47.13 180.22 63.43 180.07 63.86 180.12 47.56 180.27 47.13"/><polygon class="cls-7" points="180.12 47.56 180.07 63.86 179.91 64.29 179.95 47.99 180.12 47.56"/><polygon class="cls-8" points="179.95 47.99 179.91 64.29 179.75 64.71 179.79 48.41 179.95 47.99"/><polygon class="cls-8" points="179.79 48.41 179.75 64.71 179.59 65.14 179.64 48.84 179.79 48.41"/><polygon class="cls-9" points="179.64 48.84 179.59 65.14 179.42 65.58 179.47 49.27 179.64 48.84"/><polygon class="cls-8" points="179.47 49.27 179.42 65.58 179.27 66 179.31 49.7 179.47 49.27"/><polygon class="cls-7" points="179.31 49.7 179.27 66 179.1 66.43 179.15 50.13 179.31 49.7"/><polygon class="cls-8" points="179.15 50.13 179.1 66.43 178.95 66.86 178.99 50.56 179.15 50.13"/><polygon class="cls-10" points="2.86 50.39 2.82 66.69 0 65.79 0.05 49.49 2.86 50.39"/><polygon class="cls-7" points="178.99 50.56 178.95 66.86 178.78 67.29 178.83 50.98 178.99 50.56"/><polygon class="cls-11" points="4.46 50.68 4.41 66.98 2.82 66.69 2.86 50.39 4.46 50.68"/><polygon class="cls-7" points="178.83 50.98 178.78 67.29 178.62 67.71 178.67 51.41 178.83 50.98"/><polygon class="cls-4" points="4.73 51.3 4.69 67.61 4.41 66.98 4.46 50.68 4.73 51.3"/><polygon class="cls-12" points="6.79 51.2 6.74 67.51 4.69 67.61 4.73 51.3 6.79 51.2"/><polygon class="cls-7" points="178.67 51.41 178.62 67.71 178.46 68.14 178.5 51.84 178.67 51.41"/><polygon class="cls-8" points="178.5 51.84 178.46 68.14 178.3 68.57 178.35 52.27 178.5 51.84"/><polygon class="cls-7" points="178.35 52.27 178.3 68.57 178.14 69 178.18 52.7 178.35 52.27"/><polygon class="cls-13" points="8.03 52.24 7.98 68.55 6.74 67.51 6.79 51.2 8.03 52.24"/><polygon class="cls-7" points="178.18 52.7 178.14 69 177.97 69.43 178.02 53.13 178.18 52.7"/><polygon class="cls-14" points="10.37 53.03 10.32 69.33 7.98 68.55 8.03 52.24 10.37 53.03"/><polygon class="cls-7" points="178.02 53.13 177.97 69.43 177.81 69.86 177.86 53.55 178.02 53.13"/><polygon class="cls-7" points="177.86 53.55 177.81 69.86 177.65 70.28 177.69 53.98 177.86 53.55"/><polygon class="cls-7" points="177.69 53.98 177.65 70.28 177.49 70.71 177.53 54.41 177.69 53.98"/><polygon class="cls-7" points="177.53 54.41 177.49 70.71 177.32 71.14 177.37 54.84 177.53 54.41"/><polygon class="cls-8" points="177.37 54.84 177.32 71.14 177.17 71.57 177.21 55.27 177.37 54.84"/><polygon class="cls-15" points="13.74 54.9 13.69 71.21 10.32 69.33 10.37 53.03 13.74 54.9"/><polygon class="cls-9" points="177.21 55.27 177.17 71.57 177 71.99 177.04 55.69 177.21 55.27"/><polygon class="cls-16" points="15.23 55.59 15.18 71.89 13.69 71.21 13.74 54.9 15.23 55.59"/><polygon class="cls-8" points="177.04 55.69 177 71.99 176.84 72.42 176.89 56.12 177.04 55.69"/><polygon class="cls-7" points="176.89 56.12 176.84 72.42 176.68 72.85 176.72 56.55 176.89 56.12"/><polygon class="cls-4" points="15.79 56.25 15.74 72.55 15.18 71.89 15.23 55.59 15.79 56.25"/><polygon class="cls-7" points="176.72 56.55 176.68 72.85 176.51 73.28 176.56 56.98 176.72 56.55"/><polygon class="cls-17" points="16.89 56.81 16.85 73.11 15.74 72.55 15.79 56.25 16.89 56.81"/><polygon class="cls-7" points="176.56 56.98 176.51 73.28 176.35 73.71 176.4 57.41 176.56 56.98"/><polygon class="cls-7" points="176.4 57.41 176.35 73.71 176.19 74.14 176.23 57.83 176.4 57.41"/><polygon class="cls-18" points="20.06 57.76 20.01 74.06 16.85 73.11 16.89 56.81 20.06 57.76"/><polygon class="cls-8" points="176.23 57.83 176.19 74.14 176.03 74.56 176.08 58.26 176.23 57.83"/><polygon class="cls-19" points="27 57.73 26.95 74.03 23.4 74.24 23.44 57.93 27 57.73"/><polygon class="cls-20" points="22.86 58.09 22.82 74.39 20.01 74.06 20.06 57.76 22.86 58.09"/><polygon class="cls-21" points="23.44 57.93 23.4 74.24 22.82 74.39 22.86 58.09 23.44 57.93"/><polygon class="cls-7" points="176.08 58.26 176.03 74.56 175.87 74.99 175.91 58.68 176.08 58.26"/><polygon class="cls-7" points="175.91 58.68 175.87 74.99 175.7 75.42 175.75 59.11 175.91 58.68"/><polygon class="cls-7" points="175.75 59.11 175.7 75.42 175.54 75.84 175.59 59.54 175.75 59.11"/><polygon class="cls-7" points="175.59 59.54 175.54 75.84 175.38 76.27 175.43 59.97 175.59 59.54"/><polygon class="cls-9" points="175.43 59.97 175.38 76.27 175.21 76.69 175.25 60.39 175.43 59.97"/><polygon class="cls-8" points="175.25 60.39 175.21 76.69 175.05 77.13 175.1 60.82 175.25 60.39"/><polygon class="cls-22" points="28.8 60.44 28.75 76.74 26.83 75.69 26.88 59.38 28.8 60.44"/><polygon class="cls-9" points="175.1 60.82 175.05 77.13 174.88 77.55 174.93 61.25 175.1 60.82"/><polygon class="cls-7" points="174.93 61.25 174.88 77.55 174.72 77.98 174.77 61.67 174.93 61.25"/><polygon class="cls-7" points="174.77 61.67 174.72 77.98 174.56 78.4 174.6 62.1 174.77 61.67"/><polygon class="cls-7" points="174.6 62.1 174.56 78.4 174.39 78.83 174.44 62.53 174.6 62.1"/><polygon class="cls-7" points="174.44 62.53 174.39 78.83 174.23 79.26 174.28 62.96 174.44 62.53"/><polygon class="cls-7" points="174.28 62.96 174.23 79.26 174.07 79.69 174.11 63.38 174.28 62.96"/><polygon class="cls-7" points="174.11 63.38 174.07 79.69 173.9 80.11 173.95 63.81 174.11 63.38"/><polygon class="cls-9" points="173.95 63.81 173.9 80.11 173.74 80.54 173.78 64.23 173.95 63.81"/><polygon class="cls-7" points="173.78 64.23 173.74 80.54 173.57 80.97 173.62 64.66 173.78 64.23"/><polygon class="cls-7" points="173.62 64.66 173.57 80.97 173.41 81.39 173.46 65.09 173.62 64.66"/><polygon class="cls-7" points="173.46 65.09 173.41 81.39 173.25 81.82 173.29 65.52 173.46 65.09"/><polygon class="cls-7" points="173.29 65.52 173.25 81.82 173.08 82.25 173.13 65.95 173.29 65.52"/><polygon class="cls-9" points="173.13 65.95 173.08 82.25 172.91 82.67 172.96 66.37 173.13 65.95"/><polygon class="cls-7" points="172.96 66.37 172.91 82.67 172.75 83.1 172.8 66.8 172.96 66.37"/><polygon class="cls-7" points="172.8 66.8 172.75 83.1 172.59 83.53 172.63 67.22 172.8 66.8"/><polygon class="cls-8" points="172.63 67.22 172.59 83.53 172.43 83.95 172.48 67.65 172.63 67.22"/><polygon class="cls-23" points="19.56 67.51 19.51 83.82 17.84 83.38 17.88 67.08 19.56 67.51"/><polygon class="cls-20" points="172.48 67.65 172.43 83.95 172.25 84.38 172.3 68.08 172.48 67.65"/><polygon class="cls-23" points="20.6 67.79 20.56 84.1 19.51 83.82 19.56 67.51 20.6 67.79"/><polygon class="cls-8" points="172.3 68.08 172.25 84.38 172.1 84.8 172.14 68.5 172.3 68.08"/><polygon class="cls-7" points="172.14 68.5 172.1 84.8 171.94 85.23 171.98 68.93 172.14 68.5"/><polygon class="cls-9" points="171.98 68.93 171.94 85.23 171.77 85.66 171.81 69.35 171.98 68.93"/><polygon class="cls-7" points="171.81 69.35 171.77 85.66 171.6 86.08 171.65 69.78 171.81 69.35"/><polygon class="cls-7" points="171.65 69.78 171.6 86.08 171.44 86.51 171.49 70.21 171.65 69.78"/><polygon class="cls-9" points="171.49 70.21 171.44 86.51 171.27 86.93 171.32 70.63 171.49 70.21"/><polygon class="cls-7" points="171.32 70.63 171.27 86.93 171.11 87.36 171.15 71.06 171.32 70.63"/><polygon class="cls-9" points="171.15 71.06 171.11 87.36 170.94 87.79 170.98 71.48 171.15 71.06"/><polygon class="cls-7" points="170.98 71.48 170.94 87.79 170.77 88.21 170.82 71.91 170.98 71.48"/><polygon class="cls-7" points="170.82 71.91 170.77 88.21 170.61 88.64 170.66 72.34 170.82 71.91"/><polygon class="cls-9" points="170.66 72.34 170.61 88.64 170.44 89.06 170.49 72.76 170.66 72.34"/><polygon class="cls-7" points="170.49 72.76 170.44 89.06 170.28 89.49 170.32 73.19 170.49 72.76"/><polygon class="cls-24" points="18.16 72.87 18.12 89.17 16.19 87.96 16.24 71.65 18.16 72.87"/><polygon class="cls-9" points="170.32 73.19 170.28 89.49 170.11 89.92 170.16 73.61 170.32 73.19"/><polygon class="cls-7" points="170.16 73.61 170.11 89.92 169.95 90.34 169.99 74.04 170.16 73.61"/><polygon class="cls-4" points="17.74 73.74 17.7 90.04 17.66 89.47 17.71 73.17 17.74 73.74"/><polygon class="cls-7" points="21.36 74.22 21.31 90.52 17.7 90.04 17.74 73.74 21.36 74.22"/><polygon class="cls-7" points="22.3 74.34 22.25 90.65 21.31 90.52 21.36 74.22 22.3 74.34"/><polygon class="cls-7" points="169.99 74.04 169.95 90.34 169.63 91.16 169.68 74.86 169.99 74.04"/><polygon class="cls-4" points="22.52 74.9 22.47 91.21 22.25 90.65 22.3 74.34 22.52 74.9"/><polygon class="cls-25" points="169.68 74.86 169.63 91.16 169.54 91.87 169.59 75.57 169.68 74.86"/><polygon class="cls-4" points="22.52 75.28 22.48 91.58 22.47 91.21 22.52 74.9 22.52 75.28"/><polygon class="cls-16" points="23.06 75.53 23.01 91.83 22.48 91.58 22.52 75.28 23.06 75.53"/><polygon class="cls-18" points="169.59 75.57 169.54 91.87 169.49 92.39 169.53 76.08 169.59 75.57"/><polygon class="cls-26" points="23.59 75.78 23.54 92.09 23.01 91.83 23.06 75.53 23.59 75.78"/><polygon class="cls-25" points="169.53 76.08 169.49 92.39 169.42 92.9 169.47 76.59 169.53 76.08"/><polygon class="cls-18" points="169.47 76.59 169.42 92.9 169.37 93.41 169.41 77.11 169.47 76.59"/><polygon class="cls-25" points="169.41 77.11 169.37 93.41 169.3 93.92 169.34 77.62 169.41 77.11"/><polygon class="cls-18" points="169.34 77.62 169.3 93.92 169.24 94.48 169.28 78.17 169.34 77.62"/><polygon class="cls-27" points="169.28 78.17 169.24 94.48 169.18 95.18 169.23 78.88 169.28 78.17"/><polygon class="cls-10" points="169.23 78.88 169.18 95.18 169.15 95.64 169.19 79.34 169.23 78.88"/><polygon class="cls-14" points="169.19 79.34 169.15 95.64 169.12 96.11 169.17 79.8 169.19 79.34"/><polygon class="cls-28" points="169.17 79.8 169.12 96.11 169.08 96.57 169.12 80.26 169.17 79.8"/><polygon class="cls-10" points="169.12 80.26 169.08 96.57 169.04 97.03 169.09 80.73 169.12 80.26"/><polygon class="cls-4" points="20.57 80.46 20.52 96.77 20.29 95.78 20.34 79.48 20.57 80.46"/><polygon class="cls-10" points="169.09 80.73 169.04 97.03 169.01 97.5 169.05 81.19 169.09 80.73"/><polygon class="cls-14" points="169.05 81.19 169.01 97.5 168.98 97.96 169.02 81.65 169.05 81.19"/><polygon class="cls-10" points="169.02 81.65 168.98 97.96 168.94 98.42 168.99 82.12 169.02 81.65"/><polygon class="cls-27" points="168.99 82.12 168.94 98.42 168.91 98.89 168.95 82.58 168.99 82.12"/><polygon class="cls-14" points="168.95 82.58 168.91 98.89 168.88 99.35 168.92 83.04 168.95 82.58"/><polygon class="cls-28" points="168.92 83.04 168.88 99.35 168.84 99.81 168.88 83.5 168.92 83.04"/><polygon class="cls-10" points="168.88 83.5 168.84 99.81 168.8 100.27 168.85 83.97 168.88 83.5"/><polygon class="cls-10" points="168.85 83.97 168.8 100.27 168.76 100.73 168.81 84.43 168.85 83.97"/><polygon class="cls-14" points="168.81 84.43 168.76 100.73 168.74 101.2 168.78 84.89 168.81 84.43"/><polygon class="cls-28" points="168.78 84.89 168.74 101.2 168.69 101.66 168.74 85.35 168.78 84.89"/><polygon class="cls-10" points="168.74 85.35 168.69 101.66 168.66 102.12 168.7 85.82 168.74 85.35"/><polygon class="cls-4" points="19.14 85.7 19.1 102 19.05 101.22 19.1 84.92 19.14 85.7"/><polygon class="cls-10" points="168.7 85.82 168.66 102.12 168.62 102.59 168.67 86.28 168.7 85.82"/><polygon class="cls-10" points="168.67 86.28 168.62 102.59 168.57 103.16 168.62 86.86 168.67 86.28"/><polygon class="cls-4" points="19.59 86.49 19.54 102.79 19.1 102 19.14 85.7 19.59 86.49"/><polygon class="cls-4" points="19.94 87.39 19.9 103.7 19.54 102.79 19.59 86.49 19.94 87.39"/><polygon class="cls-29" points="168.62 86.86 168.57 103.16 167.63 104.28 167.68 87.97 168.62 86.86"/><polygon class="cls-30" points="167.68 87.97 167.63 104.28 167.1 104.73 167.15 88.43 167.68 87.97"/><polygon class="cls-4" points="20.16 88.32 20.11 104.62 19.9 103.7 19.94 87.39 20.16 88.32"/><polygon class="cls-31" points="167.15 88.43 167.1 104.73 165.95 105.75 166 89.44 167.15 88.43"/><polygon class="cls-31" points="166 89.44 165.95 105.75 164.79 106.76 164.84 90.46 166 89.44"/><polygon class="cls-31" points="164.84 90.46 164.79 106.76 164.27 107.22 164.32 90.92 164.84 90.46"/><polygon class="cls-31" points="164.32 90.92 164.27 107.22 163.27 108.09 163.31 91.79 164.32 90.92"/><polygon class="cls-31" points="163.31 91.79 163.27 108.09 162.28 108.96 162.33 92.66 163.31 91.79"/><polygon class="cls-31" points="162.33 92.66 162.28 108.96 161.29 109.84 161.33 93.53 162.33 92.66"/><polygon class="cls-31" points="161.33 93.53 161.29 109.84 160.29 110.71 160.33 94.4 161.33 93.53"/><polygon class="cls-30" points="160.33 94.4 160.29 110.71 159.38 111.49 159.43 95.19 160.33 94.4"/><polygon class="cls-32" points="149.07 95.65 149.02 111.96 147.4 112.12 147.45 95.82 149.07 95.65"/><polygon class="cls-30" points="159.43 95.19 159.38 111.49 158.47 112.28 158.52 95.97 159.43 95.19"/><polygon class="cls-33" points="147.45 95.82 147.4 112.12 146.19 112.39 146.24 96.09 147.45 95.82"/><polygon class="cls-4" points="9.25 95.89 9.2 112.19 9.17 111.47 9.21 95.17 9.25 95.89"/><polygon class="cls-31" points="158.52 95.97 158.47 112.28 157.96 112.72 158.01 96.42 158.52 95.97"/><polygon class="cls-30" points="158.01 96.42 157.96 112.72 157.56 113.07 157.61 96.76 158.01 96.42"/><polygon class="cls-34" points="146.24 96.09 146.19 112.39 144 113.23 144.04 96.92 146.24 96.09"/><polygon class="cls-35" points="144.04 96.92 144 113.23 142.9 113.71 142.94 97.41 144.04 96.92"/><polygon class="cls-30" points="157.61 96.76 157.56 113.07 156.66 113.85 156.7 97.55 157.61 96.76"/><polygon class="cls-29" points="142.94 97.41 142.9 113.71 140.86 113.89 140.91 97.59 142.94 97.41"/><polygon class="cls-36" points="140.91 97.59 140.86 113.89 139.11 113.88 139.15 97.58 140.91 97.59"/><polygon class="cls-30" points="156.7 97.55 156.66 113.85 156.1 114.33 156.15 98.03 156.7 97.55"/><polygon class="cls-37" points="156.15 98.03 156.1 114.33 155.69 114.72 155.74 98.42 156.15 98.03"/><polygon class="cls-38" points="126.37 98.31 126.33 114.61 124.78 114.71 124.83 98.41 126.37 98.31"/><polygon class="cls-32" points="124.83 98.41 124.78 114.71 123.8 114.82 123.85 98.51 124.83 98.41"/><polygon class="cls-39" points="139.15 97.58 139.11 113.88 137.82 114.86 137.87 98.55 139.15 97.58"/><polygon class="cls-40" points="155.74 98.42 155.69 114.72 154.3 114.93 154.34 98.62 155.74 98.42"/><polygon class="cls-15" points="154.34 98.62 154.3 114.93 149.02 111.96 149.07 95.65 154.34 98.62"/><polygon class="cls-41" points="127.12 98.58 127.07 114.88 126.33 114.61 126.37 98.31 127.12 98.58"/><polygon class="cls-32" points="123.85 98.51 123.8 114.82 122.83 114.92 122.87 98.61 123.85 98.51"/><polygon class="cls-32" points="122.87 98.61 122.83 114.92 121.85 115.02 121.89 98.72 122.87 98.61"/><polygon class="cls-32" points="121.89 98.72 121.85 115.02 120.87 115.12 120.92 98.82 121.89 98.72"/><polygon class="cls-5" points="133.83 98.85 133.78 115.16 132.4 115.05 132.44 98.75 133.83 98.85"/><polygon class="cls-32" points="120.92 98.82 120.87 115.12 119.9 115.22 119.95 98.92 120.92 98.82"/><polygon class="cls-32" points="119.95 98.92 119.9 115.22 118.92 115.32 118.97 99.02 119.95 98.92"/><polygon class="cls-42" points="127.81 99.08 127.77 115.38 127.07 114.88 127.12 98.58 127.81 99.08"/><polygon class="cls-43" points="132.44 98.75 132.4 115.05 127.77 115.38 127.81 99.08 132.44 98.75"/><polygon class="cls-29" points="118.97 99.02 118.92 115.32 117.94 115.42 117.99 99.11 118.97 99.02"/><polygon class="cls-26" points="134.51 99.19 134.47 115.49 133.78 115.16 133.83 98.85 134.51 99.19"/><polygon class="cls-44" points="137.87 98.55 137.82 114.86 134.47 115.49 134.51 99.19 137.87 98.55"/><polygon class="cls-32" points="117.99 99.11 117.94 115.42 116.97 115.52 117.02 99.21 117.99 99.11"/><polygon class="cls-32" points="117.02 99.21 116.97 115.52 115.99 115.62 116.03 99.32 117.02 99.21"/><polygon class="cls-32" points="116.03 99.32 115.99 115.62 115.02 115.72 115.06 99.42 116.03 99.32"/><polygon class="cls-32" points="115.06 99.42 115.02 115.72 114.04 115.82 114.09 99.52 115.06 99.42"/><polygon class="cls-32" points="114.09 99.52 114.04 115.82 113.22 115.9 113.27 99.6 114.09 99.52"/><polygon class="cls-29" points="113.27 99.6 113.22 115.9 112.08 116.02 112.13 99.72 113.27 99.6"/><polygon class="cls-32" points="112.13 99.72 112.08 116.02 111.11 116.12 111.16 99.81 112.13 99.72"/><polygon class="cls-32" points="111.16 99.81 111.11 116.12 110.13 116.22 110.17 99.92 111.16 99.81"/><polygon class="cls-32" points="110.17 99.92 110.13 116.22 109.15 116.32 109.2 100.01 110.17 99.92"/><polygon class="cls-32" points="109.2 100.01 109.15 116.32 108.18 116.42 108.22 100.11 109.2 100.01"/><polygon class="cls-32" points="108.22 100.11 108.18 116.42 107.19 116.52 107.24 100.21 108.22 100.11"/><polygon class="cls-32" points="107.24 100.21 107.19 116.52 106.22 116.62 106.27 100.31 107.24 100.21"/><polygon class="cls-32" points="106.27 100.31 106.22 116.62 105.23 116.72 105.28 100.41 106.27 100.31"/><polygon class="cls-32" points="105.28 100.41 105.23 116.72 104.26 116.81 104.31 100.51 105.28 100.41"/><polygon class="cls-29" points="104.31 100.51 104.26 116.81 103.28 116.91 103.33 100.61 104.31 100.51"/><polygon class="cls-32" points="103.33 100.61 103.28 116.91 102.3 117.01 102.35 100.71 103.33 100.61"/><polygon class="cls-29" points="102.35 100.71 102.3 117.01 101.32 117.11 101.37 100.81 102.35 100.71"/><polygon class="cls-32" points="101.37 100.81 101.32 117.11 100.35 117.21 100.39 100.91 101.37 100.81"/><polygon class="cls-32" points="100.39 100.91 100.35 117.21 99.36 117.31 99.41 101.01 100.39 100.91"/><polygon class="cls-29" points="99.41 101.01 99.36 117.31 98.38 117.41 98.43 101.1 99.41 101.01"/><polygon class="cls-32" points="98.43 101.1 98.38 117.41 97.41 117.5 97.46 101.2 98.43 101.1"/><polygon class="cls-32" points="97.46 101.2 97.41 117.5 96.42 117.6 96.47 101.3 97.46 101.2"/><polygon class="cls-29" points="96.47 101.3 96.42 117.6 95.44 117.7 95.49 101.4 96.47 101.3"/><polygon class="cls-29" points="95.49 101.4 95.44 117.7 94.47 117.8 94.51 101.49 95.49 101.4"/><polygon class="cls-32" points="94.51 101.49 94.47 117.8 93.49 117.9 93.53 101.6 94.51 101.49"/><polygon class="cls-29" points="93.53 101.6 93.49 117.9 92.51 118 92.55 101.69 93.53 101.6"/><polygon class="cls-29" points="92.55 101.69 92.51 118 91.53 118.09 91.57 101.79 92.55 101.69"/><polygon class="cls-32" points="91.57 101.79 91.53 118.09 90.54 118.19 90.59 101.89 91.57 101.79"/><polygon class="cls-29" points="90.59 101.89 90.54 118.19 89.56 118.29 89.61 101.98 90.59 101.89"/><polygon class="cls-29" points="89.61 101.98 89.56 118.29 88.58 118.38 88.63 102.08 89.61 101.98"/><polygon class="cls-32" points="88.63 102.08 88.58 118.38 87.6 118.48 87.64 102.18 88.63 102.08"/><polygon class="cls-29" points="87.64 102.18 87.6 118.48 86.62 118.58 86.66 102.27 87.64 102.18"/><polygon class="cls-29" points="86.66 102.27 86.62 118.58 85.64 118.67 85.68 102.37 86.66 102.27"/><polygon class="cls-32" points="85.68 102.37 85.64 118.67 84.65 118.77 84.7 102.47 85.68 102.37"/><polygon class="cls-29" points="84.7 102.47 84.65 118.77 83.67 118.87 83.72 102.56 84.7 102.47"/><polygon class="cls-29" points="83.72 102.56 83.67 118.87 82.69 118.96 82.74 102.66 83.72 102.56"/><polygon class="cls-32" points="82.74 102.66 82.69 118.96 81.71 119.06 81.75 102.76 82.74 102.66"/><polygon class="cls-29" points="81.75 102.76 81.71 119.06 80.73 119.16 80.77 102.86 81.75 102.76"/><polygon class="cls-29" points="80.77 102.86 80.73 119.16 79.75 119.25 79.79 102.95 80.77 102.86"/><polygon class="cls-32" points="79.79 102.95 79.75 119.25 78.76 119.36 78.81 103.05 79.79 102.95"/><polygon class="cls-29" points="78.81 103.05 78.76 119.36 77.78 119.45 77.82 103.14 78.81 103.05"/><polygon class="cls-29" points="77.82 103.14 77.78 119.45 76.87 119.54 76.92 103.23 77.82 103.14"/><polygon class="cls-29" points="76.92 103.23 76.87 119.54 75.97 119.62 76.02 103.32 76.92 103.23"/><polygon class="cls-32" points="76.02 103.32 75.97 119.62 75.06 119.72 75.11 103.41 76.02 103.32"/><polygon class="cls-29" points="75.11 103.41 75.06 119.72 74.16 119.81 74.2 103.5 75.11 103.41"/><polygon class="cls-29" points="74.2 103.5 74.16 119.81 73.25 119.89 73.3 103.59 74.2 103.5"/><polygon class="cls-29" points="73.3 103.59 73.25 119.89 72.34 119.98 72.39 103.67 73.3 103.59"/><polygon class="cls-29" points="72.39 103.67 72.34 119.98 71.44 120.07 71.49 103.76 72.39 103.67"/><polygon class="cls-29" points="71.49 103.76 71.44 120.07 70.54 120.16 70.58 103.85 71.49 103.76"/><polygon class="cls-29" points="70.58 103.85 70.54 120.16 69.63 120.24 69.67 103.94 70.58 103.85"/><polygon class="cls-29" points="69.67 103.94 69.63 120.24 68.72 120.33 68.77 104.03 69.67 103.94"/><polygon class="cls-29" points="68.77 104.03 68.72 120.33 67.82 120.42 67.87 104.11 68.77 104.03"/><polygon class="cls-29" points="67.87 104.11 67.82 120.42 66.91 120.5 66.96 104.2 67.87 104.11"/><polygon class="cls-32" points="66.96 104.2 66.91 120.5 66 120.59 66.05 104.29 66.96 104.2"/><polygon class="cls-29" points="66.05 104.29 66 120.59 65.1 120.68 65.15 104.38 66.05 104.29"/><polygon class="cls-29" points="65.15 104.38 65.1 120.68 64.19 120.77 64.24 104.46 65.15 104.38"/><polygon class="cls-29" points="64.24 104.46 64.19 120.77 63.29 120.86 63.33 104.55 64.24 104.46"/><polygon class="cls-29" points="63.33 104.55 63.29 120.86 62.02 120.98 62.07 104.67 63.33 104.55"/><polygon class="cls-32" points="62.07 104.67 62.02 120.98 61.17 121.06 61.22 104.76 62.07 104.67"/><polygon class="cls-45" points="61.22 104.76 61.17 121.06 60.32 121.16 60.36 104.86 61.22 104.76"/><polygon class="cls-32" points="60.36 104.86 60.32 121.16 59.47 121.25 59.51 104.95 60.36 104.86"/><polygon class="cls-45" points="59.51 104.95 59.47 121.25 58.61 121.35 58.66 105.04 59.51 104.95"/><polygon class="cls-46" points="58.66 105.04 58.61 121.35 56.68 121.56 56.73 105.26 58.66 105.04"/><polygon class="cls-46" points="56.73 105.26 56.68 121.56 54.75 121.77 54.79 105.47 56.73 105.26"/><polygon class="cls-46" points="54.79 105.47 54.75 121.77 52.81 121.99 52.86 105.68 54.79 105.47"/><polygon class="cls-46" points="52.86 105.68 52.81 121.99 50.88 122.2 50.92 105.9 52.86 105.68"/><polygon class="cls-47" points="50.92 105.9 50.88 122.2 49.56 122.37 49.6 106.07 50.92 105.9"/><polygon class="cls-45" points="49.6 106.07 49.56 122.37 47.72 122.59 47.77 106.29 49.6 106.07"/><polygon class="cls-47" points="47.77 106.29 47.72 122.59 45.89 122.82 45.94 106.52 47.77 106.29"/><polygon class="cls-45" points="45.94 106.52 45.89 122.82 44.05 123.05 44.1 106.74 45.94 106.52"/><polygon class="cls-47" points="44.1 106.74 44.05 123.05 42.22 123.27 42.27 106.97 44.1 106.74"/><polygon class="cls-45" points="42.27 106.97 42.22 123.27 40.06 123.54 40.11 107.24 42.27 106.97"/><polygon class="cls-45" points="40.11 107.24 40.06 123.54 37.89 123.8 37.94 107.5 40.11 107.24"/><polygon class="cls-47" points="37.94 107.5 37.89 123.8 35.72 124.07 35.77 107.77 37.94 107.5"/><polygon class="cls-45" points="35.77 107.77 35.72 124.07 33.55 124.33 33.6 108.03 35.77 107.77"/><polygon class="cls-45" points="33.6 108.03 33.55 124.33 31.39 124.59 31.43 108.29 33.6 108.03"/><polygon class="cls-45" points="31.43 108.29 31.39 124.59 29.21 124.86 29.26 108.56 31.43 108.29"/><polygon class="cls-45" points="29.26 108.56 29.21 124.86 27.04 125.12 27.09 108.82 29.26 108.56"/><polygon class="cls-45" points="27.09 108.82 27.04 125.12 24.87 125.39 24.91 109.08 27.09 108.82"/><polygon class="cls-45" points="24.91 109.08 24.87 125.39 22.7 125.65 22.75 109.34 24.91 109.08"/><polygon class="cls-45" points="22.75 109.34 22.7 125.65 20.52 125.91 20.57 109.6 22.75 109.34"/><polygon class="cls-45" points="20.57 109.6 20.52 125.91 18.35 126.17 18.4 109.87 20.57 109.6"/><polygon class="cls-48" points="180.44 46.7 180.27 47.13 180.12 47.56 179.95 47.99 179.79 48.41 179.64 48.84 179.47 49.27 179.31 49.7 179.15 50.13 178.99 50.56 178.83 50.98 178.67 51.41 178.5 51.84 178.35 52.27 178.18 52.7 178.02 53.13 177.86 53.55 177.69 53.98 177.53 54.41 177.37 54.84 177.21 55.27 177.04 55.69 176.89 56.12 176.72 56.55 176.56 56.98 176.4 57.41 176.23 57.83 176.08 58.26 175.91 58.68 175.75 59.11 175.59 59.54 175.43 59.97 175.25 60.39 175.1 60.82 174.93 61.25 174.77 61.67 174.6 62.1 174.44 62.53 174.28 62.96 174.11 63.38 173.95 63.81 173.78 64.23 173.62 64.66 173.46 65.09 173.29 65.52 173.13 65.95 172.96 66.37 172.8 66.8 172.63 67.22 172.48 67.65 172.3 68.08 172.14 68.5 171.98 68.93 171.81 69.35 171.65 69.78 171.49 70.21 171.32 70.63 171.15 71.06 170.98 71.48 170.82 71.91 170.66 72.34 170.49 72.76 170.32 73.19 170.16 73.61 169.99 74.04 169.68 74.86 169.59 75.57 169.53 76.08 169.47 76.59 169.41 77.11 169.34 77.62 169.28 78.17 169.23 78.88 169.19 79.34 169.17 79.8 169.12 80.26 169.09 80.73 169.05 81.19 169.02 81.65 168.99 82.12 168.95 82.58 168.92 83.04 168.88 83.5 168.85 83.97 168.81 84.43 168.78 84.89 168.74 85.35 168.7 85.82 168.67 86.28 168.62 86.86 167.68 87.97 167.15 88.43 166 89.44 164.84 90.46 164.32 90.92 163.31 91.79 162.33 92.66 161.33 93.53 160.33 94.4 159.43 95.19 158.52 95.97 158.01 96.42 157.61 96.76 156.7 97.55 156.15 98.03 155.74 98.42 154.34 98.62 149.07 95.65 147.45 95.82 146.24 96.09 144.04 96.92 142.94 97.41 140.91 97.59 139.15 97.58 137.87 98.55 134.51 99.19 133.83 98.85 132.44 98.75 127.81 99.08 127.12 98.58 126.37 98.31 124.83 98.41 123.85 98.51 122.87 98.61 121.89 98.72 120.92 98.82 119.95 98.92 118.97 99.02 117.99 99.11 117.02 99.21 116.03 99.32 115.06 99.42 114.09 99.52 113.27 99.6 112.13 99.72 111.16 99.81 110.17 99.92 109.2 100.01 108.22 100.11 107.24 100.21 106.27 100.31 105.28 100.41 104.31 100.51 103.33 100.61 102.35 100.71 101.37 100.81 100.39 100.91 99.41 101.01 98.43 101.1 97.46 101.2 96.47 101.3 95.49 101.4 94.51 101.49 93.53 101.6 92.55 101.69 91.57 101.79 90.59 101.89 89.61 101.98 88.63 102.08 87.64 102.18 86.66 102.27 85.68 102.37 84.7 102.47 83.72 102.56 82.74 102.66 81.75 102.76 80.77 102.86 79.79 102.95 78.81 103.05 77.82 103.14 76.92 103.23 76.02 103.32 75.11 103.41 74.2 103.5 73.3 103.59 72.39 103.67 71.49 103.76 70.58 103.85 69.67 103.94 68.77 104.03 67.87 104.11 66.96 104.2 66.05 104.29 65.15 104.38 64.24 104.46 63.33 104.55 62.07 104.67 61.22 104.76 60.36 104.86 59.51 104.95 58.66 105.04 56.73 105.26 54.79 105.47 52.86 105.68 50.92 105.9 49.6 106.07 47.77 106.29 45.94 106.52 44.1 106.74 42.27 106.97 40.11 107.24 37.94 107.5 35.77 107.77 33.6 108.03 31.43 108.29 29.26 108.56 27.09 108.82 24.91 109.08 22.75 109.34 20.57 109.6 18.4 109.87 16.22 110.13 5.87 104.15 6.02 103 6.04 101.95 6.24 101.05 6.39 100.61 6.8 99.99 6.89 99.09 7.11 98.4 7.13 97.95 7.29 97.09 9.25 95.89 9.21 95.17 9.63 94.56 10.09 94.23 10.88 93.83 12.51 93.44 12.53 92.81 13.35 92.21 14.06 91.49 14.88 90.89 16.68 89.84 17.31 89.3 18.03 88.75 18.96 89.02 19.72 88.82 20.16 88.32 19.94 87.39 19.59 86.49 19.14 85.7 19.1 84.92 19.31 84.24 19.41 83.44 19.53 82.87 19.85 82.25 20.39 81.44 20.57 80.46 20.34 79.48 20.61 78.89 21.18 78.31 22.14 77.68 22.98 76.88 23.59 75.78 23.06 75.53 22.52 75.28 22.52 74.9 22.3 74.34 21.36 74.22 17.74 73.74 17.71 73.17 18.16 72.87 16.24 71.65 16.46 71.25 18.61 69.64 19.6 68.56 20.6 67.79 19.56 67.51 17.88 67.08 18.05 66.73 19.17 65.95 20.03 65.07 20.98 64.57 21.91 64.07 22.46 63.79 23.03 63.48 23.63 63.16 24.24 62.85 24.85 62.52 25.44 62.21 26 61.91 26.54 61.63 27.02 61.37 28.8 60.44 26.88 59.38 27 57.73 23.44 57.93 22.86 58.09 20.06 57.76 16.89 56.81 15.79 56.25 15.23 55.59 13.74 54.9 10.37 53.03 8.03 52.24 6.79 51.2 4.73 51.3 4.46 50.68 2.86 50.39 0.05 49.49 0.8 48.78 1.42 47.69 1.47 46.66 2.12 46.15 1.38 44.15 3.71 40.03 6.07 39.18 6.81 37.63 6.38 37.05 6.18 36.25 6.49 35.8 7.07 34.05 7.84 33.09 9.1 30.93 10.14 29.77 12.46 28.39 14.65 26.91 15.81 25.66 18.01 24.7 18.28 23.89 18.48 23.51 18.46 22.41 21.07 21.09 22.23 20.55 23.05 19.12 23.51 18.48 27.57 16.12 29.45 15.23 29.86 14.93 31.54 14.52 34.99 14.31 35.89 13.79 37.49 11.22 38.61 10.27 39.27 9.42 42.98 6.78 44.91 6.03 51.73 2.42 52.27 1.33 54.86 0 55.68 0.83 55.73 2.91 55.46 3.25 56.73 3.42 58.66 4.45 60.15 5.55 60.58 5.82 61.02 6.27 61.64 6.67 63.24 7.09 64.63 7.67 65.21 8.28 67.97 9.41 68.01 9.8 68.69 10.43 68.96 10.76 70.46 11.55 70.84 13.84 70.44 14.6 71.23 15.79 71.55 18.07 72.22 18.61 73.09 18.98 75.74 19.6 77.13 19.82 78.64 20.56 81.72 20.25 84.2 20.16 85.92 20.37 87.46 21.05 88.33 21.49 90.4 21.43 92.23 21.26 94.62 21.04 96.53 20.86 97.65 21.16 98.79 21.59 99.84 21.97 100.88 22.36 101.93 22.74 102.97 23.13 104.01 23.51 105.05 23.9 106.09 24.28 107.13 24.66 108.17 25.04 109.2 25.42 110.24 25.81 111.27 26.18 112.3 26.57 113.34 26.94 114.37 27.32 113.68 28.71 114.96 28.81 115.71 28.85 117.84 29.09 120.09 29.49 122.44 30.24 124.78 30.99 126.09 31.57 127.55 32.39 128.65 33.21 130.97 34.93 131.48 35.13 135.03 36.05 136.4 37.4 137.5 38.97 140.44 40.18 141.34 40.55 143.11 41.11 144.48 42.14 143.29 44.3 144.52 45.63 146.75 45.85 149.17 46.08 151.13 46.27 153.55 46.5 154.28 46.62 154.83 46.84 155.82 47.38 156.88 47.95 157.91 48.53 159.75 48.36 160.86 48.72 163.03 48.73 163.92 47.91 164.38 47.32 166.36 46.67 168.46 46.06 171.26 45.24 173.75 45.38 175.2 45.67 177.49 46.13 178.9 46.39 180.44 46.7"/><polygon class="cls-49" points="16.22 110.13 16.18 126.43 5.83 120.45 5.87 104.15 16.22 110.13"/><polygon class="cls-45" points="18.4 109.87 18.35 126.17 16.18 126.43 16.22 110.13 18.4 109.87"/></g></g></g></svg>