<svg xmlns="http://www.w3.org/2000/svg" viewBox="0 0 160.64 93.42"><defs><style>.cls-1{isolation:isolate;}.cls-2{fill:#982525;}.cls-3{fill:#481212;}.cls-4{fill:#9f2727;}.cls-5{fill:#852020;}.cls-6{fill:#832020;}.cls-7{fill:#6b1a1a;}.cls-8{fill:#9a2626;}.cls-9{fill:#571515;}.cls-10{fill:#4a1212;}.cls-11{fill:#a62929;}.cls-12{fill:#721c1c;}.cls-13{fill:#7e1f1f;}.cls-14{fill:#a52828;}.cls-15{fill:#a92929;}.cls-16{fill:#9c2626;}.cls-17{fill:#491212;}.cls-18{fill:#7a1e1e;}.cls-19{fill:#a32828;}.cls-20{fill:#551515;}.cls-21{fill:#4d1313;}.cls-22{fill:#7f1f1f;}.cls-23{fill:#a72929;}.cls-24{fill:#a02727;}.cls-25{fill:#621818;}.cls-26{fill:#9d2626;}.cls-27{fill:#a42828;}.cls-28{fill:#892222;}.cls-29{fill:#601818;}.cls-30{fill:#7b1e1e;}.cls-31{fill:#531414;}.cls-32{fill:#701c1c;}.cls-33{fill:#761d1d;}.cls-34{fill:#731c1c;}.cls-35{fill:#651919;}.cls-36{fill:#a82929;}.cls-37{fill:#7d1f1f;}.cls-38{fill:#862121;}.cls-39{fill:#c83131;}.cls-40{fill:#641919;}.cls-41{fill:#4e1313;}.cls-42{fill:#681919;}.cls-43{fill:#842020;}.cls-44{fill:#812020;}.cls-45{fill:#912323;}.cls-46{fill:#801f1f;}.cls-47{fill:#8d2323;}.cls-48{fill:#681a1a;}.cls-49{fill:#711c1c;}.cls-50{fill:#a12727;}.cls-51{fill:#741c1c;}.cls-52{fill:#781d1d;}.cls-53{fill:#671919;}.cls-54{fill:#a22828;}.cls-55{fill:#6e1b1b;}.cls-56{fill:#691a1a;}.cls-57{fill:#5d1717;}.cls-58{fill:#892121;}.cls-59{fill:#822020;}.cls-60{fill:#771d1d;}.cls-61{fill:#a12828;}.cls-62{fill:#4f1313;}.cls-63{fill:#8b2222;}.cls-64{fill:#6c1b1b;}.cls-65{fill:#9e2727;}.cls-66{fill:#631818;}.cls-67{fill:#942424;}.cls-68{fill:#541515;}.cls-69{fill:#501414;}.cls-70{fill:#521414;}.cls-71{fill:#561515;}.cls-72{fill:#4b1212;}.cls-73{fill:#852121;}.cls-74{fill:#8e2323;}.cls-75{fill:#581515;}.cls-76{fill:#751d1d;}.cls-77{fill:#6c1a1a;}.cls-78{fill:#5c1717;}.cls-79{fill:#511414;}.cls-80{fill:#8f2323;}.cls-81{fill:#601717;}.cls-82{fill:#9b2626;}.cls-83{fill:#972525;}</style></defs><title>Angola</title><g id="Layer_2" data-name="Layer 2"><g id="Layer_1-2" data-name="Layer 1"><g class="cls-1"><polygon class="cls-2" points="5.17 23.36 5.12 39.67 4.96 39.85 5.01 23.55 5.17 23.36"/><polygon class="cls-3" points="1.36 23.77 1.31 40.07 1.23 39.94 1.28 23.63 1.36 23.77"/><polygon class="cls-3" points="1.47 23.89 1.42 40.19 1.31 40.07 1.36 23.77 1.47 23.89"/><polygon class="cls-3" points="1.49 24 1.44 40.3 1.42 40.19 1.47 23.89 1.49 24"/><polygon class="cls-3" points="1.42 24.34 1.37 40.64 1.36 40.53 1.41 24.22 1.42 24.34"/><polygon class="cls-4" points="5.01 23.55 4.96 39.85 3.98 40.78 4.02 24.48 5.01 23.55"/><polygon class="cls-3" points="1.55 24.57 1.5 40.88 1.37 40.64 1.42 24.34 1.55 24.57"/><polygon class="cls-5" points="4.02 24.48 3.98 40.78 3.89 40.97 3.93 24.66 4.02 24.48"/><polygon class="cls-3" points="1.55 24.66 1.5 40.96 1.5 40.88 1.55 24.57 1.55 24.66"/><polygon class="cls-6" points="4.27 25.21 4.23 41.52 4.1 41.79 4.15 25.49 4.27 25.21"/><polygon class="cls-7" points="4.15 25.49 4.1 41.79 4.09 41.89 4.14 25.59 4.15 25.49"/><polygon class="cls-3" points="0.33 25.84 0.28 42.14 0.24 42.05 0.29 25.75 0.33 25.84"/><polygon class="cls-8" points="4.34 25.85 4.29 42.15 4.18 42.28 4.23 25.97 4.34 25.85"/><polygon class="cls-9" points="0.61 26 0.57 42.3 0.28 42.14 0.33 25.84 0.61 26"/><polygon class="cls-10" points="0.72 26.09 0.68 42.4 0.57 42.3 0.61 26 0.72 26.09"/><polygon class="cls-11" points="4.23 25.97 4.18 42.28 3.95 42.44 3.99 26.13 4.23 25.97"/><polygon class="cls-12" points="3.99 26.13 3.95 42.44 3.93 42.49 3.98 26.19 3.99 26.13"/><polygon class="cls-3" points="0.99 26.57 0.94 42.88 0.68 42.4 0.72 26.09 0.99 26.57"/><polygon class="cls-3" points="1 26.66 0.96 42.97 0.94 42.88 0.99 26.57 1 26.66"/><polygon class="cls-13" points="4.24 26.49 4.2 42.79 4.11 43.03 4.16 26.73 4.24 26.49"/><polygon class="cls-2" points="4.16 26.73 4.11 43.03 3.74 43.46 3.79 27.16 4.16 26.73"/><polygon class="cls-14" points="3.79 27.16 3.74 43.46 3.69 43.5 3.74 27.2 3.79 27.16"/><polygon class="cls-15" points="3.74 27.2 3.69 43.5 3.64 43.52 3.69 27.22 3.74 27.2"/><polygon class="cls-16" points="3.69 27.22 3.64 43.52 3.61 43.56 3.65 27.25 3.69 27.22"/><polygon class="cls-17" points="0.53 27.65 0.49 43.95 0 43.44 0.05 27.14 0.53 27.65"/><polygon class="cls-3" points="0.64 27.91 0.59 44.22 0.49 43.95 0.53 27.65 0.64 27.91"/><polygon class="cls-18" points="1.36 28.28 1.31 44.58 1.22 44.57 1.27 28.26 1.36 28.28"/><polygon class="cls-19" points="1.27 28.26 1.22 44.57 1.13 44.59 1.18 28.29 1.27 28.26"/><polygon class="cls-15" points="1.18 28.29 1.13 44.59 1.06 44.63 1.1 28.32 1.18 28.29"/><polygon class="cls-20" points="1.49 28.35 1.44 44.65 1.31 44.58 1.36 28.28 1.49 28.35"/><polygon class="cls-21" points="1.54 28.46 1.5 44.77 1.42 44.71 1.47 28.41 1.54 28.46"/><polygon class="cls-22" points="1.12 28.53 1.08 44.84 0.96 44.82 1.01 28.52 1.12 28.53"/><polygon class="cls-23" points="1.01 28.52 0.96 44.82 0.9 44.84 0.94 28.54 1.01 28.52"/><polygon class="cls-3" points="1.59 28.57 1.54 44.87 1.5 44.77 1.54 28.46 1.59 28.57"/><polygon class="cls-24" points="1.36 28.58 1.31 44.88 1.24 44.9 1.28 28.59 1.36 28.58"/><polygon class="cls-25" points="1.28 28.59 1.24 44.9 1.08 44.84 1.12 28.53 1.28 28.59"/><polygon class="cls-11" points="0.96 28.59 0.92 44.9 0.86 44.94 0.91 28.64 0.96 28.59"/><polygon class="cls-26" points="0.91 28.64 0.86 44.94 0.74 44.96 0.79 28.65 0.91 28.64"/><polygon class="cls-27" points="0.79 28.65 0.74 44.96 0.66 45.02 0.7 28.72 0.79 28.65"/><polygon class="cls-3" points="0.55 28.79 0.5 45.09 0.48 45.01 0.53 28.71 0.55 28.79"/><polygon class="cls-15" points="0.7 28.72 0.66 45.02 0.5 45.09 0.55 28.79 0.7 28.72"/><polygon class="cls-20" points="0.81 28.83 0.76 45.14 0.69 45.1 0.74 28.79 0.81 28.83"/><polygon class="cls-13" points="1.6 28.94 1.56 45.24 0.76 45.14 0.81 28.83 1.6 28.94"/><polygon class="cls-28" points="2.4 28.98 2.36 45.28 1.56 45.24 1.6 28.94 2.4 28.98"/><polygon class="cls-29" points="2.77 29.13 2.72 45.43 2.36 45.28 2.4 28.98 2.77 29.13"/><polygon class="cls-30" points="3.5 29.25 3.45 45.55 2.72 45.43 2.77 29.13 3.5 29.25"/><polygon class="cls-31" points="3.67 29.35 3.62 45.66 3.45 45.55 3.5 29.25 3.67 29.35"/><polygon class="cls-32" points="4.28 29.51 4.23 45.81 3.62 45.66 3.67 29.35 4.28 29.51"/><polygon class="cls-33" points="4.63 29.58 4.58 45.88 4.23 45.81 4.28 29.51 4.63 29.58"/><polygon class="cls-34" points="4.97 29.66 4.92 45.96 4.58 45.88 4.63 29.58 4.97 29.66"/><polygon class="cls-35" points="5.07 29.69 5.02 46 4.92 45.96 4.97 29.66 5.07 29.69"/><polygon class="cls-20" points="5.28 29.81 5.23 46.12 5.02 46 5.07 29.69 5.28 29.81"/><polygon class="cls-36" points="8.54 29.58 8.49 45.88 8 46.16 8.05 29.86 8.54 29.58"/><polygon class="cls-17" points="5.34 29.88 5.29 46.18 5.23 46.12 5.28 29.81 5.34 29.88"/><polygon class="cls-3" points="5.34 29.95 5.3 46.26 5.29 46.18 5.34 29.88 5.34 29.95"/><polygon class="cls-36" points="8.05 29.86 8 46.16 7.39 46.51 7.44 30.2 8.05 29.86"/><polygon class="cls-3" points="5.42 30.55 5.38 46.85 5.11 46.52 5.16 30.22 5.42 30.55"/><polygon class="cls-27" points="7.44 30.2 7.39 46.51 6.91 46.88 6.96 30.58 7.44 30.2"/><polygon class="cls-35" points="5.94 30.74 5.89 47.04 5.38 46.85 5.42 30.55 5.94 30.74"/><polygon class="cls-37" points="6.81 30.87 6.77 47.17 5.89 47.04 5.94 30.74 6.81 30.87"/><polygon class="cls-38" points="6.96 30.58 6.91 46.88 6.77 47.17 6.81 30.87 6.96 30.58"/><polygon class="cls-39" points="7.44 30.2 6.96 30.58 6.81 30.87 5.94 30.74 5.42 30.55 5.16 30.22 5.17 30.13 5.22 30.08 5.29 30.03 5.34 29.95 5.34 29.88 5.28 29.81 5.07 29.69 4.97 29.66 4.63 29.58 4.28 29.51 3.67 29.35 3.5 29.25 2.77 29.13 2.4 28.98 1.6 28.94 0.81 28.83 0.74 28.79 0.83 28.76 0.99 28.7 1.11 28.66 1.19 28.66 1.39 28.73 1.54 28.67 1.59 28.57 1.54 28.46 1.47 28.41 1.49 28.35 1.36 28.28 1.27 28.26 1.18 28.29 1.1 28.32 1.13 28.39 1.21 28.46 1.36 28.54 1.36 28.58 1.28 28.59 1.12 28.53 1.01 28.52 0.94 28.54 0.96 28.59 0.91 28.64 0.79 28.65 0.7 28.72 0.55 28.79 0.53 28.71 0.64 27.91 0.53 27.65 0.05 27.14 0.05 27.11 0.14 27.06 0.22 27.04 0.36 27.05 0.61 27.09 0.61 27.03 0.67 26.95 0.74 26.88 0.95 26.74 1 26.66 0.99 26.57 0.72 26.09 0.61 26 0.33 25.84 0.29 25.75 0.5 25.66 0.58 25.59 0.88 25.25 1.48 24.74 1.55 24.66 1.55 24.57 1.42 24.34 1.41 24.22 1.43 24.11 1.49 24 1.47 23.89 1.36 23.77 1.28 23.63 1.35 23.49 1.47 23.46 1.55 23.44 1.73 23.41 1.84 23.37 1.93 23.29 1.97 23.23 2.04 23.18 2.2 23.15 2.43 23.17 2.87 23.29 3.14 23.3 3.61 23.27 4.57 23.31 5.03 23.22 5.17 23.36 5.01 23.55 4.02 24.48 3.93 24.66 3.95 24.8 4.01 24.92 4.11 25.03 4.26 25.13 4.27 25.21 4.15 25.49 4.14 25.59 4.21 25.71 4.31 25.78 4.34 25.85 4.23 25.97 3.99 26.13 3.98 26.19 4.09 26.29 4.24 26.49 4.16 26.73 3.79 27.16 3.74 27.2 3.69 27.22 3.65 27.25 3.69 27.31 3.74 27.34 3.82 27.38 3.91 27.4 3.98 27.4 4.54 27.24 4.67 27.23 4.94 27.33 5.43 27.64 5.98 27.98 6.74 28.45 7.53 28.95 7.95 29.21 8.54 29.58 8.05 29.86 7.44 30.2"/></g><g class="cls-1"><polygon class="cls-40" points="63.95 7.72 63.91 24.03 63.37 23.83 63.42 7.52 63.95 7.72"/><polygon class="cls-3" points="64.2 8.24 64.15 24.54 63.91 24.03 63.95 7.72 64.2 8.24"/><polygon class="cls-20" points="65.72 9.12 65.67 25.42 64.15 24.54 64.2 8.24 65.72 9.12"/><polygon class="cls-41" points="66.52 9.73 66.47 26.03 65.67 25.42 65.72 9.12 66.52 9.73"/><polygon class="cls-3" points="66.63 10.12 66.58 26.42 66.47 26.03 66.52 9.73 66.63 10.12"/><polygon class="cls-17" points="67.32 10.88 67.27 27.18 66.58 26.42 66.63 10.12 67.32 10.88"/><polygon class="cls-3" points="67.73 11.35 67.69 27.65 67.27 27.18 67.32 10.88 67.73 11.35"/><polygon class="cls-5" points="106.98 11.22 106.93 27.52 106.65 28.11 106.69 11.81 106.98 11.22"/><polygon class="cls-21" points="68.32 11.8 68.28 28.1 67.69 27.65 67.73 11.35 68.32 11.8"/><polygon class="cls-42" points="68.98 12.01 68.93 28.32 68.28 28.1 68.32 11.8 68.98 12.01"/><polygon class="cls-3" points="110.48 12.34 110.44 28.64 110.13 28 110.18 11.7 110.48 12.34"/><polygon class="cls-3" points="61.38 17.26 61.34 33.57 61.12 32.84 61.17 16.54 61.38 17.26"/><polygon class="cls-36" points="133.35 13.58 133.31 29.89 119.94 37.65 119.99 21.35 133.35 13.58"/><polygon class="cls-30" points="10.57 32.2 10.52 48.5 9.78 48.38 9.82 32.08 10.57 32.2"/><polygon class="cls-6" points="10.96 32.24 10.92 48.54 10.52 48.5 10.57 32.2 10.96 32.24"/><polygon class="cls-6" points="11.35 32.27 11.3 48.58 10.92 48.54 10.96 32.24 11.35 32.27"/><polygon class="cls-43" points="11.77 32.31 11.72 48.61 11.3 48.58 11.35 32.27 11.77 32.31"/><polygon class="cls-33" points="12.32 32.42 12.27 48.73 11.72 48.61 11.77 32.31 12.32 32.42"/><polygon class="cls-34" points="13.12 32.61 13.08 48.91 12.27 48.73 12.32 32.42 13.12 32.61"/><polygon class="cls-18" points="14.84 32.9 14.8 49.2 13.08 48.91 13.12 32.61 14.84 32.9"/><polygon class="cls-44" points="15.99 33.02 15.94 49.33 14.8 49.2 14.84 32.9 15.99 33.02"/><polygon class="cls-45" points="17.09 33 17.04 49.3 15.94 49.33 15.99 33.02 17.09 33"/><polygon class="cls-46" points="19.2 33.25 19.16 49.55 17.04 49.3 17.09 33 19.2 33.25"/><polygon class="cls-29" points="21.53 34.21 21.49 50.51 19.16 49.55 19.2 33.25 21.53 34.21"/><polygon class="cls-47" points="21.91 34.21 21.86 50.52 21.49 50.51 21.53 34.21 21.91 34.21"/><polygon class="cls-48" points="22.77 34.5 22.72 50.8 21.86 50.52 21.91 34.21 22.77 34.5"/><polygon class="cls-49" points="23.85 34.76 23.8 51.06 22.72 50.8 22.77 34.5 23.85 34.76"/><polygon class="cls-50" points="160.64 34.73 160.6 51.03 159.52 51.97 159.57 35.66 160.64 34.73"/><polygon class="cls-51" points="26.8 35.41 26.75 51.71 23.8 51.06 23.85 34.76 26.8 35.41"/><polygon class="cls-30" points="28.02 35.61 27.98 51.92 26.75 51.71 26.8 35.41 28.02 35.61"/><polygon class="cls-25" points="28.39 35.76 28.34 52.06 27.98 51.92 28.02 35.61 28.39 35.76"/><polygon class="cls-52" points="29.43 35.95 29.38 52.26 28.34 52.06 28.39 35.76 29.43 35.95"/><polygon class="cls-33" points="29.96 36.06 29.92 52.37 29.38 52.26 29.43 35.95 29.96 36.06"/><polygon class="cls-50" points="159.57 35.66 159.52 51.97 158.44 52.91 158.49 36.6 159.57 35.66"/><polygon class="cls-30" points="31.93 36.38 31.88 52.69 29.92 52.37 29.96 36.06 31.93 36.38"/><polygon class="cls-10" points="32.6 37.01 32.55 53.31 31.88 52.69 31.93 36.38 32.6 37.01"/><polygon class="cls-50" points="158.49 36.6 158.44 52.91 157.36 53.85 157.41 37.55 158.49 36.6"/><polygon class="cls-53" points="33.41 37.29 33.37 53.59 32.55 53.31 32.6 37.01 33.41 37.29"/><polygon class="cls-51" points="34.09 37.44 34.05 53.74 33.37 53.59 33.41 37.29 34.09 37.44"/><polygon class="cls-3" points="34.25 37.64 34.2 53.94 34.05 53.74 34.09 37.44 34.25 37.64"/><polygon class="cls-3" points="34.4 38.01 34.35 54.32 34.2 53.94 34.25 37.64 34.4 38.01"/><polygon class="cls-50" points="157.41 37.55 157.36 53.85 156.28 54.79 156.32 38.49 157.41 37.55"/><polygon class="cls-54" points="156.32 38.49 156.28 54.79 154.94 55.94 154.98 39.64 156.32 38.49"/><polygon class="cls-3" points="34.02 39.91 33.97 56.21 33.55 54.87 33.59 38.56 34.02 39.91"/><polygon class="cls-55" points="33.73 39.48 33.68 55.78 33.6 56.29 33.65 39.98 33.73 39.48"/><polygon class="cls-3" points="33.55 40.02 33.5 56.33 33.43 55.85 33.48 39.55 33.55 40.02"/><polygon class="cls-54" points="154.98 39.64 154.94 55.94 153.59 57.09 153.64 40.79 154.98 39.64"/><polygon class="cls-3" points="33.83 40.48 33.78 56.78 33.5 56.33 33.55 40.02 33.83 40.48"/><polygon class="cls-56" points="34.56 40.71 34.51 57.01 33.78 56.78 33.83 40.48 34.56 40.71"/><polygon class="cls-34" points="35.19 40.85 35.14 57.15 34.51 57.01 34.56 40.71 35.19 40.85"/><polygon class="cls-13" points="36.95 41.09 36.91 57.39 35.14 57.15 35.19 40.85 36.95 41.09"/><polygon class="cls-51" points="37.44 41.2 37.4 57.5 36.91 57.39 36.95 41.09 37.44 41.2"/><polygon class="cls-20" points="37.87 41.44 37.83 57.75 37.4 57.5 37.44 41.2 37.87 41.44"/><polygon class="cls-54" points="153.64 40.79 153.59 57.09 152.26 58.24 152.3 41.93 153.64 40.79"/><polygon class="cls-57" points="39.68 42.28 39.64 58.58 37.83 57.75 37.87 41.44 39.68 42.28"/><polygon class="cls-58" points="40.84 42.33 40.79 58.64 39.64 58.58 39.68 42.28 40.84 42.33"/><polygon class="cls-59" points="41.29 42.38 41.24 58.68 40.79 58.64 40.84 42.33 41.29 42.38"/><polygon class="cls-60" points="41.73 42.47 41.68 58.77 41.24 58.68 41.29 42.38 41.73 42.47"/><polygon class="cls-61" points="152.3 41.93 152.26 58.24 150.92 59.39 150.97 43.09 152.3 41.93"/><polygon class="cls-62" points="42.26 42.86 42.22 59.16 41.68 58.77 41.73 42.47 42.26 42.86"/><polygon class="cls-13" points="43.3 43 43.25 59.3 42.22 59.16 42.26 42.86 43.3 43"/><polygon class="cls-63" points="44.05 43.02 44.01 59.32 43.25 59.3 43.3 43 44.05 43.02"/><polygon class="cls-54" points="150.97 43.09 150.92 59.39 150.53 59.72 150.58 43.42 150.97 43.09"/><polygon class="cls-64" points="44.69 43.2 44.64 59.5 44.01 59.32 44.05 43.02 44.69 43.2"/><polygon class="cls-18" points="45.92 43.41 45.87 59.71 44.64 59.5 44.69 43.2 45.92 43.41"/><polygon class="cls-19" points="150.58 43.42 150.53 59.72 149.34 60.01 149.39 43.7 150.58 43.42"/><polygon class="cls-65" points="149.39 43.7 149.34 60.01 148.88 60.08 148.92 43.78 149.39 43.7"/><polygon class="cls-15" points="148.92 43.78 148.88 60.08 148.48 60.3 148.53 43.99 148.92 43.78"/><polygon class="cls-66" points="46.78 43.74 46.73 60.04 45.87 59.71 45.92 43.41 46.78 43.74"/><polygon class="cls-67" points="47.54 43.69 47.5 60 46.73 60.04 46.78 43.74 47.54 43.69"/><polygon class="cls-38" points="49.15 43.81 49.1 60.11 47.5 60 47.54 43.69 49.15 43.81"/><polygon class="cls-6" points="50.09 43.9 50.04 60.21 49.1 60.11 49.15 43.81 50.09 43.9"/><polygon class="cls-3" points="50.48 44.37 50.44 60.67 50.04 60.21 50.09 43.9 50.48 44.37"/><polygon class="cls-19" points="148.53 43.99 148.48 60.3 147.53 61.08 147.57 44.78 148.53 43.99"/><polygon class="cls-18" points="52.55 44.72 52.5 61.02 50.44 60.67 50.48 44.37 52.55 44.72"/><polygon class="cls-16" points="147.57 44.78 147.53 61.08 147.09 61.54 147.13 45.23 147.57 44.78"/><polygon class="cls-68" points="53.03 45.01 52.98 61.31 52.5 61.02 52.55 44.72 53.03 45.01"/><polygon class="cls-68" points="53.42 45.24 53.37 61.54 52.98 61.31 53.03 45.01 53.42 45.24"/><polygon class="cls-15" points="147.13 45.23 147.09 61.54 144.93 62.73 144.98 46.43 147.13 45.23"/><polygon class="cls-10" points="54.61 46.33 54.56 62.63 53.37 61.54 53.42 45.24 54.61 46.33"/><polygon class="cls-4" points="144.98 46.43 144.93 62.73 142.49 63.18 142.54 46.88 144.98 46.43"/><polygon class="cls-69" points="55.47 46.92 55.43 63.22 54.56 62.63 54.61 46.33 55.47 46.92"/><polygon class="cls-4" points="142.54 46.88 142.49 63.18 141.97 63.68 142.01 47.38 142.54 46.88"/><polygon class="cls-70" points="56.17 47.36 56.12 63.66 55.43 63.22 55.47 46.92 56.17 47.36"/><polygon class="cls-23" points="142.01 47.38 141.97 63.68 140.68 64.54 140.72 48.23 142.01 47.38"/><polygon class="cls-54" points="140.72 48.23 140.68 64.54 139.9 64.72 139.94 48.41 140.72 48.23"/><polygon class="cls-71" points="57.77 48.24 57.72 64.55 56.12 63.66 56.17 47.36 57.77 48.24"/><polygon class="cls-36" points="139.94 48.41 139.9 64.72 138.86 65.32 138.9 49.02 139.94 48.41"/><polygon class="cls-3" points="58.59 49.23 58.55 65.54 57.72 64.55 57.77 48.24 58.59 49.23"/><polygon class="cls-15" points="138.9 49.02 138.86 65.32 137.49 66.07 137.53 49.77 138.9 49.02"/><polygon class="cls-72" points="59.13 49.72 59.09 66.02 58.55 65.54 58.59 49.23 59.13 49.72"/><polygon class="cls-3" points="59.34 50.06 59.29 66.37 59.09 66.02 59.13 49.72 59.34 50.06"/><polygon class="cls-36" points="137.53 49.77 137.49 66.07 136.37 66.75 136.42 50.44 137.53 49.77"/><polygon class="cls-3" points="59.76 50.55 59.71 66.86 59.29 66.37 59.34 50.06 59.76 50.55"/><polygon class="cls-11" points="136.42 50.44 136.37 66.75 135 67.17 135.04 50.87 136.42 50.44"/><polygon class="cls-15" points="135.04 50.87 135 67.17 134.55 67.38 134.6 51.08 135.04 50.87"/><polygon class="cls-11" points="134.6 51.08 134.55 67.38 133.46 68.14 133.5 51.83 134.6 51.08"/><polygon class="cls-3" points="59.91 51.83 59.86 68.14 59.62 67.28 59.67 50.98 59.91 51.83"/><polygon class="cls-36" points="133.5 51.83 133.46 68.14 132.43 68.54 132.48 52.24 133.5 51.83"/><polygon class="cls-73" points="127.74 52.36 127.69 68.67 127 68.61 127.05 52.31 127.74 52.36"/><polygon class="cls-24" points="132.48 52.24 132.43 68.54 131.55 68.72 131.6 52.41 132.48 52.24"/><polygon class="cls-74" points="130.02 52.49 129.97 68.8 128.6 68.8 128.64 52.49 130.02 52.49"/><polygon class="cls-37" points="128.64 52.49 128.6 68.8 127.69 68.67 127.74 52.36 128.64 52.49"/><polygon class="cls-3" points="60.24 52.31 60.2 68.61 59.86 68.14 59.91 51.83 60.24 52.31"/><polygon class="cls-63" points="131.28 52.52 131.23 68.83 129.97 68.8 130.02 52.49 131.28 52.52"/><polygon class="cls-23" points="131.6 52.41 131.55 68.72 131.23 68.83 131.28 52.52 131.6 52.41"/><polygon class="cls-11" points="127.05 52.31 127 68.61 126.3 68.82 126.35 52.51 127.05 52.31"/><polygon class="cls-36" points="126.35 52.51 126.3 68.82 124.6 69.8 124.65 53.49 126.35 52.51"/><polygon class="cls-36" points="124.65 53.49 124.6 69.8 123.71 70.32 123.75 54.01 124.65 53.49"/><polygon class="cls-36" points="123.75 54.01 123.71 70.32 122.9 70.78 122.95 54.48 123.75 54.01"/><polygon class="cls-36" points="122.95 54.48 122.9 70.78 121.21 71.77 121.25 55.47 122.95 54.48"/><polygon class="cls-72" points="60.09 56 60.05 72.3 58.88 71.32 58.93 55.01 60.09 56"/><polygon class="cls-36" points="121.25 55.47 121.21 71.77 119.51 72.76 119.55 56.45 121.25 55.47"/><polygon class="cls-36" points="119.55 56.45 119.51 72.76 118.93 73.09 118.98 56.79 119.55 56.45"/><polygon class="cls-3" points="60.18 56.96 60.13 73.26 60.05 72.3 60.09 56 60.18 56.96"/><polygon class="cls-36" points="118.98 56.79 118.93 73.09 117.81 73.75 117.85 57.44 118.98 56.79"/><polygon class="cls-36" points="117.85 57.44 117.81 73.75 116.11 74.73 116.16 58.43 117.85 57.44"/><polygon class="cls-36" points="116.16 58.43 116.11 74.73 114.41 75.72 114.46 59.41 116.16 58.43"/><polygon class="cls-3" points="61.55 60.16 61.5 76.46 60.13 73.26 60.18 56.96 61.55 60.16"/><polygon class="cls-36" points="114.46 59.41 114.41 75.72 112.72 76.7 112.77 60.4 114.46 59.41"/><polygon class="cls-75" points="62.24 60.53 62.2 76.83 61.5 76.46 61.55 60.16 62.24 60.53"/><polygon class="cls-36" points="112.77 60.4 112.72 76.7 109.33 78.67 109.37 62.37 112.77 60.4"/><polygon class="cls-36" points="109.37 62.37 109.33 78.67 107.63 79.66 107.67 63.36 109.37 62.37"/><polygon class="cls-17" points="65.13 63.5 65.08 79.8 62.2 76.83 62.24 60.53 65.13 63.5"/><polygon class="cls-70" points="65.54 63.76 65.49 80.06 65.08 79.8 65.13 63.5 65.54 63.76"/><polygon class="cls-36" points="107.67 63.36 107.63 79.66 105.93 80.65 105.98 64.34 107.67 63.36"/><polygon class="cls-17" points="66.21 64.48 66.17 80.78 65.49 80.06 65.54 63.76 66.21 64.48"/><polygon class="cls-69" points="66.72 64.82 66.67 81.13 66.17 80.78 66.21 64.48 66.72 64.82"/><polygon class="cls-36" points="105.98 64.34 105.93 80.65 104.23 81.63 104.28 65.33 105.98 64.34"/><polygon class="cls-3" points="67.96 66.21 67.91 82.51 66.67 81.13 66.72 64.82 67.96 66.21"/><polygon class="cls-36" points="104.28 65.33 104.23 81.63 102.54 82.62 102.59 66.31 104.28 65.33"/><polygon class="cls-3" points="68.61 67 68.57 83.31 67.91 82.51 67.96 66.21 68.61 67"/><polygon class="cls-36" points="102.59 66.31 102.54 82.62 100.83 83.6 100.88 67.3 102.59 66.31"/><polygon class="cls-17" points="69.48 67.86 69.44 84.16 68.57 83.31 68.61 67 69.48 67.86"/><polygon class="cls-36" points="100.88 67.3 100.83 83.6 99.14 84.59 99.19 68.28 100.88 67.3"/><polygon class="cls-3" points="69.57 68.28 69.53 84.58 69.44 84.16 69.48 67.86 69.57 68.28"/><polygon class="cls-36" points="99.19 68.28 99.14 84.59 98.68 84.85 98.73 68.55 99.19 68.28"/><polygon class="cls-69" points="70.32 68.79 70.27 85.09 69.53 84.58 69.57 68.28 70.32 68.79"/><polygon class="cls-65" points="98.73 68.55 98.68 84.85 98.25 85.27 98.3 68.97 98.73 68.55"/><polygon class="cls-41" points="71.15 69.4 71.11 85.71 70.27 85.09 70.32 68.79 71.15 69.4"/><polygon class="cls-23" points="98.3 68.97 98.25 85.27 96.29 85.93 96.34 69.63 98.3 68.97"/><polygon class="cls-26" points="96.34 69.63 96.29 85.93 95.16 86.1 95.21 69.8 96.34 69.63"/><polygon class="cls-65" points="95.21 69.8 95.16 86.1 94.17 86.26 94.21 69.96 95.21 69.8"/><polygon class="cls-67" points="94.21 69.96 94.17 86.26 93.11 86.32 93.16 70.02 94.21 69.96"/><polygon class="cls-24" points="91.42 69.88 91.37 86.18 90.26 86.4 90.31 70.09 91.42 69.88"/><polygon class="cls-17" points="71.78 70.05 71.73 86.36 71.11 85.71 71.15 69.4 71.78 70.05"/><polygon class="cls-53" points="92.27 70.16 92.23 86.47 91.37 86.18 91.42 69.88 92.27 70.16"/><polygon class="cls-65" points="93.16 70.02 93.11 86.32 92.23 86.47 92.27 70.16 93.16 70.02"/><polygon class="cls-3" points="72.03 70.94 71.98 87.24 71.73 86.36 71.78 70.05 72.03 70.94"/><polygon class="cls-36" points="90.31 70.09 90.26 86.4 87.88 87.84 87.92 71.54 90.31 70.09"/><polygon class="cls-6" points="87.92 71.54 87.88 87.84 87.73 88.16 87.78 71.86 87.92 71.54"/><polygon class="cls-17" points="71.74 71.99 71.69 88.3 71.4 88 71.45 71.7 71.74 71.99"/><polygon class="cls-71" points="72.04 72.16 71.99 88.46 71.69 88.3 71.74 71.99 72.04 72.16"/><polygon class="cls-22" points="72.86 72.26 72.81 88.56 71.99 88.46 72.04 72.16 72.86 72.26"/><polygon class="cls-76" points="73.32 72.36 73.27 88.66 72.81 88.56 72.86 72.26 73.32 72.36"/><polygon class="cls-3" points="73.7 72.78 73.65 89.09 73.27 88.66 73.32 72.36 73.7 72.78"/><polygon class="cls-44" points="87.78 71.86 87.73 88.16 87.15 89.53 87.2 73.22 87.78 71.86"/><polygon class="cls-77" points="87.2 73.22 87.15 89.53 87.12 89.77 87.17 73.47 87.2 73.22"/><polygon class="cls-38" points="87.17 73.47 87.12 89.77 86.78 90.44 86.83 74.14 87.17 73.47"/><polygon class="cls-78" points="76.59 74.13 76.55 90.44 73.65 89.09 73.7 72.78 76.59 74.13"/><polygon class="cls-79" points="77.27 74.58 77.22 90.88 76.55 90.44 76.59 74.13 77.27 74.58"/><polygon class="cls-36" points="86.83 74.14 86.78 90.44 85.91 90.95 85.96 74.65 86.83 74.14"/><polygon class="cls-3" points="75.94 74.91 75.9 91.21 75.88 91.13 75.92 74.83 75.94 74.91"/><polygon class="cls-79" points="76.12 75.03 76.08 91.33 75.9 91.21 75.94 74.91 76.12 75.03"/><polygon class="cls-9" points="78.12 75.04 78.08 91.35 77.22 90.88 77.27 74.58 78.12 75.04"/><polygon class="cls-15" points="85.96 74.65 85.91 90.95 84.92 91.49 84.96 75.19 85.96 74.65"/><polygon class="cls-7" points="77.02 75.3 76.97 91.6 76.08 91.33 76.12 75.03 77.02 75.3"/><polygon class="cls-9" points="78.67 75.34 78.62 91.64 78.08 91.35 78.12 75.04 78.67 75.34"/><polygon class="cls-39" points="77.19 75.2 77.5 75.31 77.61 75.36 77.31 75.36 77.02 75.3 76.12 75.03 75.94 74.91 75.92 74.83 75.95 74.68 76.11 74.63 76.45 74.82 76.64 74.89 76.92 75.06 77.19 75.2"/><polygon class="cls-80" points="77.61 75.36 77.56 91.66 77.26 91.66 77.31 75.36 77.61 75.36"/><polygon class="cls-34" points="77.31 75.36 77.26 91.66 76.97 91.6 77.02 75.3 77.31 75.36"/><polygon class="cls-11" points="84.96 75.19 84.92 91.49 84.49 91.79 84.53 75.49 84.96 75.19"/><polygon class="cls-81" points="79.01 75.85 78.96 92.15 78.4 91.92 78.44 75.61 79.01 75.85"/><polygon class="cls-27" points="84.53 75.49 84.49 91.79 82.55 92.31 82.59 76.01 84.53 75.49"/><polygon class="cls-69" points="79.5 76.19 79.45 92.49 78.96 92.15 79.01 75.85 79.5 76.19"/><polygon class="cls-82" points="82.59 76.01 82.55 92.31 82.33 92.54 82.38 76.24 82.59 76.01"/><polygon class="cls-47" points="82.38 76.24 82.33 92.54 82.19 92.77 82.23 76.47 82.38 76.24"/><polygon class="cls-21" points="80.01 76.58 79.96 92.88 79.45 92.49 79.5 76.19 80.01 76.58"/><polygon class="cls-51" points="82.23 76.47 82.19 92.77 82.11 93.09 82.16 76.79 82.23 76.47"/><polygon class="cls-47" points="82.16 76.79 82.11 93.09 81.97 93.32 82.01 77.02 82.16 76.79"/><polygon class="cls-39" points="147.13 45.23 144.98 46.43 142.54 46.88 142.01 47.38 140.72 48.23 139.94 48.41 138.9 49.02 137.53 49.77 136.42 50.44 135.04 50.87 134.6 51.08 133.5 51.83 132.48 52.24 131.6 52.41 131.28 52.52 130.02 52.49 128.64 52.49 127.74 52.36 127.05 52.31 126.35 52.51 124.65 53.49 123.75 54.01 122.95 54.48 121.25 55.47 119.55 56.45 118.98 56.79 117.85 57.44 116.16 58.43 114.46 59.41 112.77 60.4 109.37 62.37 107.67 63.36 105.98 64.34 104.28 65.33 102.59 66.31 100.88 67.3 99.19 68.28 98.73 68.55 98.3 68.97 96.34 69.63 95.21 69.8 94.21 69.96 93.16 70.02 92.27 70.16 91.42 69.88 90.31 70.09 87.92 71.54 87.78 71.86 87.2 73.22 87.17 73.47 86.83 74.14 85.96 74.65 84.96 75.19 84.53 75.49 82.59 76.01 82.38 76.24 82.23 76.47 82.16 76.79 82.01 77.02 80.91 77.11 80.01 76.58 79.5 76.19 79.01 75.85 78.44 75.61 78.65 75.55 78.67 75.34 78.12 75.04 77.27 74.58 76.59 74.13 73.7 72.78 73.32 72.36 72.86 72.26 72.04 72.16 71.74 71.99 71.45 71.7 72.03 70.94 71.78 70.05 71.15 69.4 70.32 68.79 69.57 68.28 69.48 67.86 68.61 67 67.96 66.21 66.72 64.82 66.21 64.48 65.54 63.76 65.13 63.5 62.24 60.53 61.55 60.16 60.18 56.96 60.09 56 58.93 55.01 59.01 54.38 59.5 53.21 60.24 52.31 59.91 51.83 59.67 50.98 59.76 50.55 59.34 50.06 59.13 49.72 58.59 49.23 57.77 48.24 56.17 47.36 55.47 46.92 54.61 46.33 53.42 45.24 53.03 45.01 52.55 44.72 50.48 44.37 50.09 43.9 49.15 43.81 47.54 43.69 46.78 43.74 45.92 43.41 44.69 43.2 44.05 43.02 43.3 43 42.26 42.86 41.73 42.47 41.29 42.38 40.84 42.33 39.68 42.28 37.87 41.44 37.44 41.2 36.95 41.09 35.19 40.85 34.56 40.71 33.83 40.48 33.55 40.02 33.48 39.55 33.66 39.27 33.73 39.48 33.65 39.98 33.98 40.45 34.02 39.91 33.59 38.56 33.7 38.73 34.4 38.01 34.25 37.64 34.09 37.44 33.41 37.29 32.6 37.01 31.93 36.38 29.96 36.06 29.43 35.95 28.39 35.76 28.02 35.61 26.8 35.41 23.85 34.76 22.77 34.5 21.91 34.21 21.53 34.21 19.2 33.25 17.09 33 15.99 33.02 14.84 32.9 13.12 32.61 12.32 32.42 11.77 32.31 11.35 32.27 10.96 32.24 10.57 32.2 9.82 32.08 10.58 31.34 10.91 31.04 11.41 30.28 12.61 29.56 12.8 29.34 13.01 28.95 13.81 27.56 14.48 27.18 14.83 27.06 15.93 26.3 16.95 25.76 17.96 25.07 18.79 24.51 19.13 24.4 20.24 23.84 20.94 23.61 21.79 23.15 22.4 22.81 22.65 22.6 23.18 22.42 24.09 21.74 24.45 21.52 25.29 21.01 25.89 20.66 26.48 20.3 27.07 19.95 27.66 19.59 28.25 19.23 28.85 18.88 29.44 18.52 30.04 18.16 30.63 17.8 31.23 17.45 31.82 17.09 32.41 16.74 33 16.38 33.59 16.02 34.19 15.67 34.58 15.44 36.45 14.71 36.91 14.62 37.77 15.09 40.21 15.63 44.12 17.06 45.92 17.25 47.38 17.99 47.73 18.2 49.29 18.26 51.83 18.6 52.55 18.53 58.02 19.13 58.56 18.58 59.34 17.97 60.59 17.69 61.38 17.26 61.17 16.54 61.77 16.19 62.11 16.01 62.45 15.92 63.17 15.36 63.45 14.69 64.44 14.12 68.98 12.01 68.32 11.8 67.73 11.35 67.32 10.88 66.63 10.12 66.52 9.73 65.72 9.12 64.2 8.24 63.95 7.72 63.42 7.52 68.52 4.56 68.55 3.88 69.1 3.56 69.67 3.23 70.05 3 70.3 3.33 70.59 3.71 70.76 3.92 70.98 4.21 71.26 4.42 71.58 4.59 71.91 4.78 72.22 4.6 72.7 4.32 73.18 4.04 73.66 3.76 74.14 3.48 74.62 3.2 75.1 2.92 75.58 2.64 76.06 2.36 76.54 2.08 77.02 1.79 77.5 1.51 77.98 1.24 78.46 0.95 78.94 0.67 79.42 0.39 79.89 0.11 81.03 0 83.35 1.61 83.9 2.17 84.82 2.78 87 3.2 87.39 3.35 87.94 3.38 88.8 3.68 89.14 3.82 89.41 4 89.76 4.39 90.58 5.02 90.93 5.3 91.67 5.99 92.04 6.18 92.71 6.68 93.46 7.01 93.73 7.18 93.94 7.38 94.16 7.74 95.31 8.23 95.98 8.53 96.32 8.65 96.76 8.71 97.62 8.72 97.97 8.82 99.39 8.88 100.25 8.69 101.44 8.99 101.78 9.12 102.5 9.41 102.97 9.49 103.39 9.6 103.83 9.67 104.79 10.29 105.88 10.69 106.98 11.22 106.69 11.81 107.56 12.53 107.83 12.68 109.39 13.13 109.66 13.3 109.84 13.51 110.02 12.95 110.48 12.34 110.18 11.7 111.1 11.36 111.45 11.28 111.76 11.17 112.05 11.04 113.2 10.3 113.98 9.96 114.53 9.51 114.98 9.14 115.3 8.48 115.5 8.08 115.7 7.87 115.94 7.71 116.23 7.57 116.75 7.4 117.47 7.16 117.94 6.89 118.59 6.65 118.9 6.52 119.11 5.56 120.28 6.08 120.51 6.25 121.72 6.79 122.88 7.07 122.94 7.42 123.56 8.11 123.71 8.33 125.11 8.94 125.55 9.34 126.38 9.86 127.29 10.44 127.62 10.59 129 10.91 129.37 11.05 129.64 11.55 129.78 11.98 130.24 12.48 130.62 12.84 130.8 13.09 131.02 13.27 132.36 13.4 133.35 13.58 119.99 21.35 121.01 21.94 122.03 22.53 124.08 23.72 124.7 24.07 125.11 24.31 126.14 24.9 127.17 25.49 128.2 26.08 129.22 26.68 131.29 27.87 132.31 28.46 133.35 29.06 134.38 29.65 135.42 30.25 136.45 30.84 137.38 31.38 138.08 31.78 138.78 32.19 139.48 32.6 140.18 33 140.49 33.18 141.48 33.75 142.04 33.85 142.65 33.94 146.77 34.84 149.81 34.67 151.81 34.58 152.59 34.58 153.58 34.8 154.73 34.75 155.6 34.58 156 34.45 156.73 34.44 158.45 34.48 160.64 34.73 159.57 35.66 158.49 36.6 157.41 37.55 156.32 38.49 154.98 39.64 153.64 40.79 152.3 41.93 150.97 43.09 150.58 43.42 149.39 43.7 148.92 43.78 148.53 43.99 147.57 44.78 147.13 45.23"/><polygon class="cls-83" points="82.01 77.02 81.97 93.32 80.87 93.42 80.91 77.11 82.01 77.02"/><polygon class="cls-20" points="80.91 77.11 80.87 93.42 79.96 92.88 80.01 76.58 80.91 77.11"/></g></g></g></svg>