<?xml version="1.0" encoding="utf-8"?>
<!-- Generator: Adobe Illustrator 22.1.0, SVG Export Plug-In . SVG Version: 6.00 Build 0)  -->
<svg version="1.1" id="Layer_1" xmlns="http://www.w3.org/2000/svg" xmlns:xlink="http://www.w3.org/1999/xlink" x="0px" y="0px"
	 viewBox="0 0 43.2 45.2" style="enable-background:new 0 0 43.2 45.2;" xml:space="preserve">
<style type="text/css">
	.st0{fill:#481212;}
	.st1{fill:#581616;}
	.st2{fill:#611818;}
	.st3{fill:#7C1E1E;}
	.st4{fill:#761D1D;}
	.st5{fill:#A22828;}
	.st6{fill:#9F2727;}
	.st7{fill:#A82929;}
	.st8{fill:#9C2626;}
	.st9{fill:#4F1313;}
	.st10{fill:#811F1F;}
	.st11{fill:#671919;}
	.st12{fill:#691A1A;}
	.st13{fill:#A92929;}
	.st14{fill:#9E2727;}
	.st15{fill:#922424;}
	.st16{fill:#731C1C;}
	.st17{fill:#852121;}
	.st18{fill:#9A2626;}
	.st19{fill:#741D1D;}
	.st20{fill:#6C1B1B;}
	.st21{fill:#8C2222;}
	.st22{fill:#751D1D;}
	.st23{fill:#7E1F1F;}
	.st24{fill:#5D1717;}
	.st25{fill:#5A1616;}
	.st26{fill:#8B2222;}
	.st27{fill:#9D2626;}
	.st28{fill:#A32828;}
	.st29{fill:#551515;}
	.st30{fill:#6A1A1A;}
	.st31{fill:#4D1313;}
	.st32{fill:#651919;}
	.st33{fill:#5B1616;}
	.st34{fill:#541414;}
	.st35{fill:#6B1A1A;}
	.st36{fill:#4A1212;}
	.st37{fill:#561515;}
	.st38{fill:#4E1313;}
	.st39{fill:#7B1E1E;}
	.st40{fill:#591616;}
	.st41{fill:#5E1717;}
	.st42{fill:#711C1C;}
	.st43{fill:#8A2222;}
	.st44{fill:#6E1B1B;}
	.st45{fill:#7F1F1F;}
	.st46{fill:#8D2323;}
	.st47{fill:#641818;}
	.st48{fill:#832020;}
	.st49{fill:#4B1212;}
	.st50{fill:#541515;}
	.st51{fill:#A62929;}
	.st52{fill:#A02727;}
	.st53{fill:#681919;}
	.st54{fill:#812020;}
	.st55{fill:#842020;}
	.st56{fill:#4C1313;}
	.st57{fill:#681A1A;}
	.st58{fill:#932424;}
	.st59{fill:#521414;}
	.st60{fill:#822020;}
	.st61{fill:#621818;}
	.st62{fill:#A52828;}
	.st63{fill:#C83131;}
</style>
<title>Benin</title>
<g id="Layer_2_1_">
	<g id="Layer_1-2">
		<g>
			<polygon class="st0" points="3.7,0.4 3.7,16.7 3.6,16.6 3.7,0.3 			"/>
			<polygon class="st0" points="3.2,1.4 3.2,17.7 3.2,17.5 3.2,1.2 			"/>
			<polygon class="st0" points="1.7,2.9 1.7,19.2 1.6,19.1 1.6,2.8 			"/>
			<polygon class="st1" points="1.9,2.9 1.8,19.2 1.7,19.2 1.7,2.9 			"/>
			<polygon class="st2" points="2.3,3.1 2.3,19.4 1.8,19.2 1.9,2.9 			"/>
			<polygon class="st3" points="3.8,3.3 3.8,19.7 2.3,19.4 2.3,3.1 			"/>
			<polygon class="st0" points="3.8,4 3.8,20.2 3.7,19.9 3.8,3.6 			"/>
			<polygon class="st4" points="4.1,4 4,20.3 3.8,20.2 3.8,4 			"/>
			<polygon class="st5" points="23.3,4.5 23.2,20.8 23.1,20.9 23.2,4.6 			"/>
			<polygon class="st0" points="4.5,4.5 4.4,20.8 4,20.3 4.1,4 			"/>
			<polygon class="st6" points="23.2,4.6 23.1,20.9 22.5,21 22.5,4.7 			"/>
			<polygon class="st0" points="4.6,4.7 4.5,21 4.4,20.8 4.5,4.5 			"/>
			<polygon class="st7" points="22.5,4.7 22.5,21 22.3,21 22.4,4.7 			"/>
			<polygon class="st8" points="22.4,4.7 22.3,21 22.2,21.1 22.3,4.8 			"/>
			<polygon class="st0" points="4.6,5 4.6,21.3 4.5,21 4.6,4.7 			"/>
			<polygon class="st0" points="4.7,5.1 4.7,21.4 4.6,21.3 4.6,5 			"/>
			<polygon class="st9" points="5,5.3 4.9,21.6 4.7,21.4 4.7,5.1 			"/>
			<polygon class="st0" points="5,5.4 4.9,21.7 4.9,21.6 5,5.3 			"/>
			<polygon class="st10" points="24.5,6.1 24.5,22.4 24.4,22.6 24.5,6.3 			"/>
			<polygon class="st11" points="24.5,6.3 24.4,22.6 24.4,22.7 24.5,6.4 			"/>
			<polygon class="st0" points="4.8,7.3 4.7,23.6 4.7,22.5 4.7,6.2 			"/>
			<polygon class="st12" points="25.3,7.5 25.3,23.8 25.3,24 25.3,7.7 			"/>
			<polygon class="st13" points="25.3,7.7 25.3,24 24.8,24.2 24.9,7.9 			"/>
			<polygon class="st14" points="24.9,7.9 24.8,24.2 24.6,24.4 24.7,8.1 			"/>
			<polygon class="st15" points="24.7,8.1 24.6,24.4 24.4,24.8 24.4,8.4 			"/>
			<polygon class="st16" points="24.4,8.4 24.4,24.8 24.3,24.9 24.4,8.6 			"/>
			<polygon class="st17" points="25.4,9.1 25.4,25.4 25.3,25.6 25.3,9.3 			"/>
			<polygon class="st13" points="25.3,9.3 25.3,25.6 25.2,25.7 25.2,9.4 			"/>
			<polygon class="st7" points="25.2,9.4 25.2,25.7 25,25.7 25,9.4 			"/>
			<polygon class="st18" points="25,9.4 25,25.7 24.9,25.8 25,9.5 			"/>
			<polygon class="st0" points="0.7,9.7 0.6,18 0.6,17.8 0.6,9.5 			"/>
			<polygon class="st19" points="0.9,9.8 0.8,18.1 0.6,18 0.7,9.7 			"/>
			<polygon class="st0" points="0.8,10.2 0.7,18.5 0.7,18.4 0.7,10.1 			"/>
			<polygon class="st20" points="0.9,10.3 0.9,18.6 0.7,18.5 0.8,10.2 			"/>
			<polygon class="st21" points="25.4,10.2 25.4,26.5 25.3,26.7 25.3,10.4 			"/>
			<polygon class="st22" points="1.2,10.3 1.1,18.6 0.9,18.6 0.9,10.3 			"/>
			<polygon class="st0" points="1,10.7 0.9,19 0.8,18.8 0.9,10.5 			"/>
			<polygon class="st0" points="1,10.9 1,19.1 0.9,19 1,10.7 			"/>
			<polygon class="st0" points="0.1,11.4 0.1,19.7 0,19.4 0.1,11.1 			"/>
			<polygon class="st23" points="0.5,11.4 0.4,19.7 0.1,19.7 0.1,11.4 			"/>
			<polygon class="st24" points="0.7,11.5 0.7,19.8 0.4,19.7 0.5,11.4 			"/>
			<polygon class="st0" points="0.8,11.6 0.7,19.9 0.7,19.8 0.7,11.5 			"/>
			<polygon class="st0" points="0.6,11.9 0.5,20.2 0.5,20 0.5,11.7 			"/>
			<polygon class="st25" points="1.2,12.2 1.2,20.5 0.5,20.2 0.6,11.9 			"/>
			<polygon class="st26" points="1.4,12.2 1.4,20.5 1.2,20.5 1.2,12.2 			"/>
			<polygon class="st3" points="27.5,12.2 27.4,28.5 27.4,28.7 27.4,12.4 			"/>
			<polygon class="st27" points="27.4,12.4 27.4,28.7 27,29 27.1,12.7 			"/>
			<polygon class="st7" points="27.1,12.7 27,29 26.4,29.3 26.4,13 			"/>
			<polygon class="st0" points="0.9,13.1 0.8,21.4 0.4,20.8 0.5,12.5 			"/>
			<polygon class="st28" points="26.4,13 26.4,29.3 25.6,21.9 25.7,13.6 			"/>
			<polygon class="st0" points="0.6,13.6 0.5,21.9 0.3,21.5 0.3,13.2 			"/>
			<polygon class="st29" points="0.8,13.7 0.7,22 0.5,21.9 0.6,13.6 			"/>
			<polygon class="st30" points="1,13.8 1,22.1 0.7,22 0.8,13.7 			"/>
			<polygon class="st0" points="1.2,14 1.2,22.3 1,22.1 1,13.8 			"/>
			<polygon class="st31" points="1.4,14.2 1.4,22.5 1.2,22.3 1.2,14 			"/>
			<polygon class="st0" points="1.4,14.3 1.4,22.6 1.4,22.5 1.4,14.2 			"/>
			<polygon class="st32" points="27.2,14.6 27.2,22.9 27.2,23.1 27.2,14.8 			"/>
			<polygon class="st0" points="1.6,14.9 1.5,23.2 1.4,23 1.4,14.7 			"/>
			<polygon class="st33" points="2.2,15.2 2.2,23.5 1.5,23.2 1.6,14.9 			"/>
			<polygon class="st34" points="2.5,15.4 2.4,23.6 2.2,23.5 2.2,15.2 			"/>
			<polygon class="st35" points="10.2,15.6 10.2,23.9 9.8,23.8 9.9,15.5 			"/>
			<polygon class="st18" points="9.9,15.5 9.8,23.8 8.7,23.9 8.7,15.6 			"/>
			<polygon class="st36" points="2.8,15.6 2.7,23.9 2.4,23.6 2.5,15.4 			"/>
			<polygon class="st18" points="8.7,15.6 8.7,23.9 7.1,24.1 7.1,15.8 			"/>
			<polygon class="st37" points="10.7,15.9 10.7,24.2 10.2,23.9 10.2,15.6 			"/>
			<polygon class="st18" points="7.1,15.8 7.1,24.1 6.1,24.2 6.2,15.9 			"/>
			<polygon class="st18" points="6.2,15.9 6.1,24.2 5.5,24.3 5.6,16 			"/>
			<polygon class="st38" points="3.4,16.1 3.3,24.4 2.7,23.9 2.8,15.6 			"/>
			<polygon class="st18" points="5.6,16 5.5,24.3 4.5,24.4 4.5,16.1 			"/>
			<polygon class="st29" points="3.5,16.2 3.5,24.5 3.3,24.4 3.4,16.1 			"/>
			<polygon class="st39" points="3.7,16.2 3.6,24.5 3.5,24.5 3.5,16.2 			"/>
			<polygon class="st18" points="4.5,16.1 4.5,24.4 3.6,24.5 3.7,16.2 			"/>
			<polygon class="st37" points="11.5,16.3 11.4,24.6 10.7,24.2 10.7,15.9 			"/>
			<polygon class="st37" points="12,16.6 12,24.9 11.4,24.6 11.5,16.3 			"/>
			<polygon class="st40" points="12.5,16.8 12.5,25.1 12,24.9 12,16.6 			"/>
			<polygon class="st31" points="12.8,17 12.7,25.3 12.5,25.1 12.5,16.8 			"/>
			<polygon class="st0" points="12.9,17.2 12.8,25.6 12.7,25.3 12.8,17 			"/>
			<polygon class="st41" points="13,17.3 13,25.6 12.8,25.6 12.9,17.2 			"/>
			<polygon class="st42" points="13.8,17.4 13.7,25.7 13.5,25.6 13.5,17.3 			"/>
			<polygon class="st16" points="13.3,17.4 13.2,25.7 13,25.6 13,17.3 			"/>
			<polygon class="st21" points="13.5,17.4 13.4,25.7 13.2,25.7 13.3,17.4 			"/>
			<polygon class="st43" points="13.5,17.3 13.5,25.6 13.4,25.7 13.5,17.4 			"/>
			<polygon class="st40" points="14.5,17.7 14.5,26 13.7,25.7 13.8,17.4 			"/>
			<polygon class="st44" points="14.9,17.8 14.8,26.1 14.5,26 14.5,17.7 			"/>
			<polygon class="st45" points="15.3,17.9 15.2,26.2 14.8,26.1 14.9,17.8 			"/>
			<polygon class="st46" points="16.4,17.9 16.3,26.2 15.2,26.2 15.3,17.9 			"/>
			<polygon class="st21" points="17.2,17.9 17.2,26.2 16.3,26.2 16.4,17.9 			"/>
			<polygon class="st3" points="17.6,18 17.5,26.2 17.2,26.2 17.2,17.9 			"/>
			<polygon class="st35" points="17.8,18 17.8,26.3 17.5,26.2 17.6,18 			"/>
			<polygon class="st47" points="18,18.1 18,26.4 17.8,26.3 17.8,18 			"/>
			<polygon class="st37" points="18.9,18.6 18.8,26.9 18,26.4 18,18.1 			"/>
			<polygon class="st37" points="19.6,19 19.6,27.3 18.8,26.9 18.9,18.6 			"/>
			<polygon class="st37" points="20.2,19.3 20.2,27.7 19.6,27.3 19.6,19 			"/>
			<polygon class="st37" points="21.1,19.9 21.1,28.2 20.2,27.7 20.2,19.3 			"/>
			<polygon class="st15" points="36.7,19.8 36.6,28.1 36.5,28.2 36.5,19.9 			"/>
			<polygon class="st41" points="21.5,20 21.5,28.3 21.1,28.2 21.1,19.9 			"/>
			<polygon class="st48" points="22,20.1 22,28.4 21.5,28.3 21.5,20 			"/>
			<polygon class="st49" points="22.1,20.2 22.1,28.5 22,28.4 22,20.1 			"/>
			<polygon class="st0" points="22.3,20.5 22.3,28.8 22.1,28.5 22.1,20.2 			"/>
			<polygon class="st29" points="22.4,20.6 22.4,28.9 22.3,28.8 22.3,20.5 			"/>
			<polygon class="st47" points="22.7,20.7 22.7,29 22.4,28.9 22.4,20.6 			"/>
			<polygon class="st24" points="23.4,21 23.3,29.3 22.7,29 22.7,20.7 			"/>
			<polygon class="st50" points="24.1,21.5 24.1,29.8 23.3,29.3 23.4,21 			"/>
			<polygon class="st50" points="25.2,22.1 25.1,30.4 24.1,29.8 24.1,21.5 			"/>
			<polygon class="st29" points="26.2,22.7 26.2,31 25.1,30.4 25.2,22.1 			"/>
			<polygon class="st29" points="27.6,23.5 27.5,31.8 26.2,31 26.2,22.7 			"/>
			<polygon class="st29" points="27.7,23.5 27.6,31.8 27.5,31.8 27.6,23.5 			"/>
			<polygon class="st37" points="28.3,23.9 28.2,32.2 27.6,31.8 27.7,23.5 			"/>
			<polygon class="st29" points="28.9,24.2 28.9,32.5 28.2,32.2 28.3,23.9 			"/>
			<polygon class="st37" points="29.9,24.8 29.9,33.1 28.9,32.5 28.9,24.2 			"/>
			<polygon class="st37" points="30.9,25.4 30.9,33.7 29.9,33.1 29.9,24.8 			"/>
			<polygon class="st51" points="43.2,24.2 43.2,32.5 40.8,34.2 40.8,25.9 			"/>
			<polygon class="st29" points="31.9,25.9 31.8,34.2 30.9,33.7 30.9,25.4 			"/>
			<polygon class="st52" points="40.8,25.9 40.8,34.2 40.4,34.5 40.4,26.2 			"/>
			<polygon class="st53" points="31.9,26.5 31.9,34.8 31.3,34.6 31.3,26.3 			"/>
			<polygon class="st54" points="32.1,26.5 32.1,34.8 31.9,34.8 31.9,26.5 			"/>
			<polygon class="st55" points="32.5,26.5 32.5,34.8 32.1,34.8 32.1,26.5 			"/>
			<polygon class="st56" points="32.7,26.7 32.7,35 32.5,34.8 32.5,26.5 			"/>
			<polygon class="st40" points="32.9,26.8 32.8,35.1 32.7,35 32.7,26.7 			"/>
			<polygon class="st57" points="33,26.9 33,35.2 32.8,35.1 32.9,26.8 			"/>
			<polygon class="st20" points="33.2,26.9 33.1,35.2 33,35.2 33,26.9 			"/>
			<polygon class="st12" points="33.4,27 33.3,35.3 33.1,35.2 33.2,26.9 			"/>
			<polygon class="st0" points="33.5,27.1 33.4,35.4 33.3,35.3 33.4,27 			"/>
			<polygon class="st0" points="33.5,27.2 33.5,35.5 33.4,35.4 33.5,27.1 			"/>
			<polygon class="st58" points="33.9,27.4 33.8,35.7 33.7,35.7 33.7,27.4 			"/>
			<polygon class="st59" points="33.7,27.4 33.7,35.7 33.5,35.5 33.5,27.2 			"/>
			<polygon class="st60" points="35.1,27.5 35,35.8 33.8,35.7 33.9,27.4 			"/>
			<polygon class="st17" points="35.4,27.5 35.4,35.8 35,35.8 35.1,27.5 			"/>
			<polygon class="st61" points="35.7,27.6 35.7,36 35.4,35.8 35.4,27.5 			"/>
			<polygon class="st8" points="36,27.6 36,35.9 35.7,36 35.7,27.6 			"/>
			<polygon class="st23" points="36.5,27.7 36.4,36 36,35.9 36,27.6 			"/>
			<polygon class="st62" points="40.4,26.2 40.4,34.5 38.4,36 38.4,27.7 			"/>
			<polygon class="st11" points="37.1,27.9 37.1,36.2 36.4,36 36.5,27.7 			"/>
			<polygon class="st11" points="37.7,28.1 37.7,36.4 37.1,36.2 37.1,27.9 			"/>
			<polygon class="st20" points="37.1,29 37,37.2 36.8,37.2 36.9,28.9 			"/>
			<polygon class="st6" points="38.4,27.7 38.4,36 37,37.2 37.1,29 			"/>
			<polygon class="st63" points="22.4,3.5 22.5,3.6 22.7,3.9 22.8,4.1 23.2,4.3 23.2,4.3 23.3,4.5 23.2,4.6 22.5,4.7 22.4,4.7 
				22.3,4.8 22.3,5 22.5,5.2 22.6,5.5 22.8,5.7 22.9,5.8 23.1,5.8 24,5.8 24.3,5.9 24.4,6 24.5,6.1 24.5,6.3 24.5,6.4 24.5,6.5 
				25.1,6.8 25.1,7 25.2,7.2 25.3,7.5 25.3,7.7 24.9,7.9 24.7,8.1 24.4,8.4 24.4,8.6 24.5,8.7 24.6,8.8 24.7,8.8 25,8.9 25.3,9 
				25.4,9.1 25.3,9.3 25.2,9.4 25,9.4 25,9.5 25.1,9.6 25.4,10.2 25.3,10.4 25.4,10.6 25.6,10.8 25.8,10.8 26.1,10.9 26.2,11 
				26.7,11.2 26.8,11.3 26.9,11.5 27.4,12.1 27.5,12.2 27.4,12.4 27.1,12.7 26.4,13 25.7,13.6 25.9,13.7 26.3,13.9 26.5,14.1 
				26.5,14.2 26.9,14.4 27,14.5 27.2,14.6 27.2,14.8 29.1,15.7 29.3,15.8 29.4,16 29.5,16.2 29.7,16.4 30,16.6 30.1,16.7 30.3,16.8 
				30.5,16.8 30.9,16.9 31.1,17 31.3,17.1 31.3,17.2 31.4,17.3 31.4,17.4 31.5,17.4 31.9,17.7 32.3,18 32.7,18.2 32.8,18.4 
				33.3,18.5 33.6,18.5 33.8,18.6 34.7,19.2 34.9,19.3 35.2,19.4 35.6,19.5 36,19.5 36.4,19.6 36.7,19.8 36.5,19.9 38.3,20.9 
				38.5,21.2 39.1,21.3 39.2,21.8 39.5,21.9 39.8,22 40.1,22.2 40.3,22.4 40.5,22.5 40.6,22.5 41.5,22.6 41.5,22.9 41.6,23 
				41.7,23.1 42,23.2 42.2,23.3 42.4,23.6 42.5,23.8 42.8,24 43.2,24.2 40.8,25.9 40.4,26.2 38.4,27.7 37.1,29 36.9,28.9 36.9,28.8 
				37.6,28.2 37.7,28.1 37.1,27.9 36.5,27.7 36,27.6 35.7,27.6 35.4,27.5 35.1,27.5 33.9,27.4 33.7,27.4 33.5,27.2 33.5,27.1 
				33.4,27 33.2,26.9 33,26.9 32.9,26.8 32.7,26.7 32.5,26.5 32.1,26.5 31.9,26.5 31.3,26.3 31.8,26 31.9,25.9 30.9,25.4 29.9,24.8 
				28.9,24.2 28.3,23.9 27.7,23.5 27.6,23.5 26.2,22.7 25.2,22.1 24.1,21.5 23.4,21 22.7,20.7 22.4,20.6 22.3,20.5 22.1,20.2 
				22,20.1 21.5,20 21.1,19.9 20.2,19.3 19.6,19 18.9,18.6 18,18.1 17.8,18 17.6,18 17.2,17.9 16.4,17.9 15.3,17.9 14.9,17.8 
				14.5,17.7 13.8,17.4 13.5,17.3 13.5,17.4 13.3,17.4 13,17.3 12.9,17.2 12.8,17 12.5,16.8 12,16.6 11.5,16.3 10.7,15.9 10.2,15.6 
				9.9,15.5 8.7,15.6 7.1,15.8 6.2,15.9 5.6,16 4.5,16.1 3.7,16.2 3.5,16.2 3.4,16.1 2.8,15.6 2.5,15.4 2.2,15.2 1.6,14.9 1.4,14.7 
				1.4,14.3 1.4,14.2 1.2,14 1,13.8 0.8,13.7 0.6,13.6 0.3,13.2 0.6,13.2 0.9,13.1 0.5,12.5 1.2,12.3 1.4,12.2 1.2,12.2 0.6,11.9 
				0.5,11.7 0.8,11.6 0.7,11.5 0.5,11.4 0.1,11.4 0.1,11.1 0.6,11 0.7,10.9 1,10.9 1,10.7 0.9,10.5 1.2,10.3 0.9,10.3 0.8,10.2 
				0.7,10.1 0.8,10 0.8,9.9 0.9,9.8 0.7,9.7 0.6,9.5 0.6,9.3 0.8,9.3 1,9.2 1.6,8.9 1.9,8.9 2.3,9 2.4,8.9 2.4,8.8 2.7,8.6 2.7,8.5 
				2.8,8.4 3.1,8.2 3.2,8.2 3.4,8 3.5,7.9 3.6,7.8 4,7.7 4.4,7.6 4.7,7.4 4.8,7.3 4.7,6.2 4.8,5.7 5,5.4 5,5.3 4.7,5.1 4.6,5 
				4.6,4.7 4.5,4.5 4.1,4 3.8,4 3.8,3.6 3.8,3.3 2.3,3.1 1.9,2.9 1.7,2.9 1.6,2.8 1.7,2.6 2,2.5 2.7,1.7 3.2,1.4 3.2,1.2 3.3,0.7 
				3.5,0.5 3.7,0.4 3.7,0.3 4.3,0.3 4.5,0.2 4.8,0.3 5,0.3 5.5,0.2 5.9,0.2 6.5,0.3 8.7,0.2 8.9,0.2 9.1,0.3 9.3,0.3 9.5,0.4 
				9.9,0.4 10.1,0.5 10.6,0.2 11.3,0.1 11.7,0 12.4,0 12.9,0.1 13.3,0.2 13.4,0.3 13.8,1 14,1.3 14,1.4 14.3,1.6 14.4,1.7 14.7,1.8 
				17.6,2 17.9,2 18.4,2.1 18.5,2.2 18.7,2.3 18.9,2.3 19,2.3 19.8,2.6 20,2.7 20.2,3 20.3,3.1 21.1,3.2 21.8,3.2 22,3.3 22.2,3.4 
							"/>
		</g>
	</g>
</g>
</svg>
