<svg xmlns="http://www.w3.org/2000/svg" viewBox="0 0 82.73 71.39"><defs><style>.cls-1{isolation:isolate;}.cls-2{fill:#481212;}.cls-3{fill:#a92929;}.cls-4{fill:#a02727;}.cls-5{fill:#a42828;}.cls-6{fill:#8a2222;}.cls-7{fill:#842020;}.cls-8{fill:#982525;}.cls-9{fill:#a72929;}.cls-10{fill:#a62929;}.cls-11{fill:#9e2727;}.cls-12{fill:#832020;}.cls-13{fill:#7b1e1e;}.cls-14{fill:#791e1e;}.cls-15{fill:#912424;}.cls-16{fill:#a52828;}.cls-17{fill:#701b1b;}.cls-18{fill:#942424;}.cls-19{fill:#7c1e1e;}.cls-20{fill:#9a2626;}.cls-21{fill:#641919;}.cls-22{fill:#862121;}.cls-23{fill:#551515;}.cls-24{fill:#561515;}.cls-25{fill:#7d1f1f;}.cls-26{fill:#6c1a1a;}.cls-27{fill:#761d1d;}.cls-28{fill:#972525;}.cls-29{fill:#711c1c;}.cls-30{fill:#8b2222;}.cls-31{fill:#a52929;}.cls-32{fill:#a82929;}.cls-33{fill:#721c1c;}.cls-34{fill:#9b2626;}.cls-35{fill:#992525;}.cls-36{fill:#882121;}.cls-37{fill:#9c2626;}.cls-38{fill:#932424;}.cls-39{fill:#9f2727;}.cls-40{fill:#a32828;}.cls-41{fill:#8c2222;}.cls-42{fill:#a22828;}.cls-43{fill:#661919;}.cls-44{fill:#751d1d;}.cls-45{fill:#9d2626;}.cls-46{fill:#5e1717;}.cls-47{fill:#952525;}.cls-48{fill:#7f1f1f;}.cls-49{fill:#781d1d;}.cls-50{fill:#922424;}.cls-51{fill:#511414;}.cls-52{fill:#691a1a;}.cls-53{fill:#741c1c;}.cls-54{fill:#731c1c;}.cls-55{fill:#5b1616;}.cls-56{fill:#4a1212;}.cls-57{fill:#621818;}.cls-58{fill:#491212;}.cls-59{fill:#571515;}.cls-60{fill:#5d1717;}.cls-61{fill:#671919;}.cls-62{fill:#8d2323;}.cls-63{fill:#852121;}.cls-64{fill:#c83131;}</style></defs><title>Botswana</title><g id="Layer_2" data-name="Layer 2"><g id="Layer_1-2" data-name="Layer 1"><g class="cls-1"><polygon class="cls-2" points="23.95 0.61 23.9 16.91 23.9 16.66 23.94 0.36 23.95 0.61"/><polygon class="cls-3" points="82.73 2.14 82.68 18.45 81.96 18.81 82.01 2.5 82.73 2.14"/><polygon class="cls-2" points="21.96 2.69 21.91 19 21.86 18.77 21.91 2.46 21.96 2.69"/><polygon class="cls-4" points="82.01 2.5 81.96 18.81 80.93 19.75 80.97 3.44 82.01 2.5"/><polygon class="cls-2" points="21.93 3.71 21.89 20.01 21.82 19.33 21.86 3.02 21.93 3.71"/><polygon class="cls-5" points="81.77 4.81 81.72 21.11 81.38 21.38 81.43 5.07 81.77 4.81"/><polygon class="cls-2" points="19.32 5.49 19.27 21.8 19.2 21.39 19.25 5.08 19.32 5.49"/><polygon class="cls-6" points="81.43 5.07 81.38 21.38 80.94 22.18 80.98 5.87 81.43 5.07"/><polygon class="cls-7" points="80.98 5.87 80.94 22.18 80.73 22.61 80.77 6.31 80.98 5.87"/><polygon class="cls-8" points="80.77 6.31 80.73 22.61 80.58 22.79 80.62 6.49 80.77 6.31"/><polygon class="cls-9" points="80.62 6.49 80.58 22.79 79.53 23.45 79.58 7.15 80.62 6.49"/><polygon class="cls-2" points="18.89 7.07 18.85 23.37 18.63 23.1 18.68 6.8 18.89 7.07"/><polygon class="cls-10" points="79.58 7.15 79.53 23.45 79.03 23.79 79.08 7.49 79.58 7.15"/><polygon class="cls-11" points="79.08 7.49 79.03 23.79 78.84 23.98 78.89 7.67 79.08 7.49"/><polygon class="cls-12" points="78.89 7.67 78.84 23.98 78.74 24.2 78.78 7.9 78.89 7.67"/><polygon class="cls-13" points="78.81 8.31 78.77 24.61 78.58 25.16 78.63 8.86 78.81 8.31"/><polygon class="cls-2" points="18.73 8.9 18.69 25.2 18.68 24.94 18.73 8.63 18.73 8.9"/><polygon class="cls-14" points="79.58 11.21 79.53 27.51 79.46 27.73 79.51 11.43 79.58 11.21"/><polygon class="cls-15" points="79.51 11.43 79.46 27.73 79.31 27.96 79.35 11.66 79.51 11.43"/><polygon class="cls-11" points="79.35 11.66 79.31 27.96 79.12 28.14 79.16 11.84 79.35 11.66"/><polygon class="cls-16" points="79.56 12.5 79.52 28.81 78.98 28.96 79.03 12.66 79.56 12.5"/><polygon class="cls-17" points="79.03 12.66 78.98 28.96 78.93 29.24 78.98 12.94 79.03 12.66"/><polygon class="cls-18" points="78.98 12.94 78.93 29.24 78.69 29.56 78.74 13.26 78.98 12.94"/><polygon class="cls-10" points="78.84 14.34 78.79 30.64 78.1 31.13 78.15 14.83 78.84 14.34"/><polygon class="cls-19" points="78.23 15.16 78.19 31.46 78.02 31.93 78.07 15.63 78.23 15.16"/><polygon class="cls-20" points="78.07 15.63 78.02 31.93 77.86 32.11 77.91 15.81 78.07 15.63"/><polygon class="cls-21" points="77.91 15.81 77.86 32.11 77.83 33.76 77.88 17.45 77.91 15.81"/><polygon class="cls-22" points="81.04 20.33 81 36.63 80.59 37.44 80.63 21.13 81.04 20.33"/><polygon class="cls-23" points="4.81 21.33 4.76 37.63 0 34.88 0.05 18.58 4.81 21.33"/><polygon class="cls-24" points="5.69 21.83 5.64 38.13 4.76 37.63 4.81 21.33 5.69 21.83"/><polygon class="cls-23" points="6.02 22.02 5.97 38.32 5.64 38.13 5.69 21.83 6.02 22.02"/><polygon class="cls-25" points="80.64 21.83 80.6 38.13 80.45 38.55 80.49 22.24 80.64 21.83"/><polygon class="cls-26" points="80.49 22.24 80.45 38.55 80.42 38.74 80.47 22.43 80.49 22.24"/><polygon class="cls-23" points="6.57 22.34 6.52 38.64 5.97 38.32 6.02 22.02 6.57 22.34"/><polygon class="cls-23" points="7.44 22.84 7.39 39.14 6.52 38.64 6.57 22.34 7.44 22.84"/><polygon class="cls-24" points="8.33 23.34 8.28 39.65 7.39 39.14 7.44 22.84 8.33 23.34"/><polygon class="cls-23" points="9.2 23.85 9.16 40.15 8.28 39.65 8.33 23.34 9.2 23.85"/><polygon class="cls-3" points="80.89 23.65 80.84 39.96 79.98 40.42 80.03 24.12 80.89 23.65"/><polygon class="cls-24" points="10.09 24.36 10.04 40.66 9.16 40.15 9.2 23.85 10.09 24.36"/><polygon class="cls-20" points="80.03 24.12 79.98 40.42 79.47 40.99 79.52 24.69 80.03 24.12"/><polygon class="cls-23" points="10.97 24.86 10.92 41.17 10.04 40.66 10.09 24.36 10.97 24.86"/><polygon class="cls-20" points="79.52 24.69 79.47 40.99 78.79 41.76 78.83 25.46 79.52 24.69"/><polygon class="cls-23" points="11.85 25.37 11.8 41.67 10.92 41.17 10.97 24.86 11.85 25.37"/><polygon class="cls-27" points="78.83 25.46 78.79 41.76 78.73 41.98 78.78 25.67 78.83 25.46"/><polygon class="cls-10" points="78.78 25.67 78.73 41.98 78.33 42.25 78.38 25.95 78.78 25.67"/><polygon class="cls-24" points="12.73 25.87 12.69 42.18 11.8 41.67 11.85 25.37 12.73 25.87"/><polygon class="cls-28" points="78.38 25.95 78.33 42.25 78.19 42.43 78.23 26.12 78.38 25.95"/><polygon class="cls-23" points="13.61 26.38 13.57 42.69 12.69 42.18 12.73 25.87 13.61 26.38"/><polygon class="cls-24" points="14.5 26.89 14.46 43.19 13.57 42.69 13.61 26.38 14.5 26.89"/><polygon class="cls-23" points="15.39 27.4 15.34 43.7 14.46 43.19 14.5 26.89 15.39 27.4"/><polygon class="cls-24" points="16.28 27.91 16.23 44.21 15.34 43.7 15.39 27.4 16.28 27.91"/><polygon class="cls-23" points="17.16 28.41 17.11 44.72 16.23 44.21 16.28 27.91 17.16 28.41"/><polygon class="cls-24" points="18.05 28.92 18 45.23 17.11 44.72 17.16 28.41 18.05 28.92"/><polygon class="cls-23" points="18.94 29.43 18.89 45.74 18 45.23 18.05 28.92 18.94 29.43"/><polygon class="cls-23" points="19.35 29.67 19.3 45.97 18.89 45.74 18.94 29.43 19.35 29.67"/><polygon class="cls-23" points="19.75 29.91 19.71 46.21 19.3 45.97 19.35 29.67 19.75 29.91"/><polygon class="cls-24" points="20.17 30.14 20.12 46.44 19.71 46.21 19.75 29.91 20.17 30.14"/><polygon class="cls-23" points="20.58 30.37 20.53 46.68 20.12 46.44 20.17 30.14 20.58 30.37"/><polygon class="cls-23" points="20.99 30.61 20.94 46.91 20.53 46.68 20.58 30.37 20.99 30.61"/><polygon class="cls-23" points="21.4 30.85 21.35 47.15 20.94 46.91 20.99 30.61 21.4 30.85"/><polygon class="cls-23" points="21.8 31.08 21.76 47.38 21.35 47.15 21.4 30.85 21.8 31.08"/><polygon class="cls-23" points="22.22 31.32 22.17 47.63 21.76 47.38 21.8 31.08 22.22 31.32"/><polygon class="cls-23" points="22.63 31.56 22.58 47.86 22.17 47.63 22.22 31.32 22.63 31.56"/><polygon class="cls-29" points="82.7 30.96 82.65 47.26 82.48 48.15 82.53 31.84 82.7 30.96"/><polygon class="cls-24" points="23.04 31.79 23 48.09 22.58 47.86 22.63 31.56 23.04 31.79"/><polygon class="cls-23" points="23.45 32.03 23.41 48.33 23 48.09 23.04 31.79 23.45 32.03"/><polygon class="cls-30" points="82.53 31.84 82.48 48.15 82.24 48.56 82.29 32.26 82.53 31.84"/><polygon class="cls-23" points="23.87 32.27 23.82 48.57 23.41 48.33 23.45 32.03 23.87 32.27"/><polygon class="cls-24" points="24.28 32.5 24.24 48.8 23.82 48.57 23.87 32.27 24.28 32.5"/><polygon class="cls-23" points="24.69 32.73 24.64 49.04 24.24 48.8 24.28 32.5 24.69 32.73"/><polygon class="cls-23" points="25.11 32.97 25.06 49.28 24.64 49.04 24.69 32.73 25.11 32.97"/><polygon class="cls-31" points="82.29 32.26 82.24 48.56 81.01 49.45 81.05 33.15 82.29 32.26"/><polygon class="cls-32" points="81.05 33.15 81.01 49.45 80.68 49.58 80.73 33.27 81.05 33.15"/><polygon class="cls-23" points="25.51 33.21 25.47 49.51 25.06 49.28 25.11 32.97 25.51 33.21"/><polygon class="cls-10" points="80.73 33.27 80.68 49.58 80.28 49.7 80.33 33.4 80.73 33.27"/><polygon class="cls-3" points="80.33 33.4 80.28 49.7 79.98 49.82 80.03 33.52 80.33 33.4"/><polygon class="cls-23" points="25.81 33.38 25.76 49.68 25.47 49.51 25.51 33.21 25.81 33.38"/><polygon class="cls-5" points="80.03 33.52 79.98 49.82 79.77 49.99 79.81 33.69 80.03 33.52"/><polygon class="cls-2" points="25.99 33.58 25.94 49.88 25.76 49.68 25.81 33.38 25.99 33.58"/><polygon class="cls-30" points="79.81 33.69 79.77 49.99 79.62 50.25 79.66 33.95 79.81 33.69"/><polygon class="cls-33" points="79.66 33.95 79.62 50.25 79.53 50.66 79.58 34.35 79.66 33.95"/><polygon class="cls-34" points="79.58 34.35 79.53 50.66 79.16 51.05 79.21 34.75 79.58 34.35"/><polygon class="cls-16" points="79.21 34.75 79.16 51.05 78.98 51.19 79.03 34.88 79.21 34.75"/><polygon class="cls-9" points="79.03 34.88 78.98 51.19 78.48 51.36 78.53 35.06 79.03 34.88"/><polygon class="cls-16" points="78.53 35.06 78.48 51.36 78.06 51.67 78.11 35.37 78.53 35.06"/><polygon class="cls-32" points="78.11 35.37 78.06 51.67 77.77 51.78 77.82 35.48 78.11 35.37"/><polygon class="cls-35" points="77.82 35.48 77.77 51.78 77.18 51.84 77.23 35.54 77.82 35.48"/><polygon class="cls-5" points="77.23 35.54 77.18 51.84 76.49 52.02 76.53 35.72 77.23 35.54"/><polygon class="cls-5" points="76.53 35.72 76.49 52.02 76.09 52.13 76.14 35.83 76.53 35.72"/><polygon class="cls-10" points="76.14 35.83 76.09 52.13 75.37 52.62 75.42 36.32 76.14 35.83"/><polygon class="cls-8" points="75.42 36.32 75.37 52.62 74.89 52.66 74.94 36.36 75.42 36.32"/><polygon class="cls-36" points="74.94 36.36 74.89 52.66 73.88 52.61 73.93 36.31 74.94 36.36"/><polygon class="cls-11" points="73.93 36.31 73.88 52.61 73.42 52.69 73.47 36.38 73.93 36.31"/><polygon class="cls-32" points="73.47 36.38 73.42 52.69 73.08 52.89 73.12 36.59 73.47 36.38"/><polygon class="cls-37" points="73.12 36.59 73.08 52.89 72.58 53.4 72.62 37.1 73.12 36.59"/><polygon class="cls-9" points="72.62 37.1 72.58 53.4 71.73 53.69 71.78 37.39 72.62 37.1"/><polygon class="cls-7" points="70.81 37.44 70.77 53.74 70.19 53.7 70.23 37.39 70.81 37.44"/><polygon class="cls-18" points="71.78 37.39 71.73 53.69 70.77 53.74 70.81 37.44 71.78 37.39"/><polygon class="cls-34" points="70.23 37.39 70.19 53.7 68.88 53.87 68.93 37.57 70.23 37.39"/><polygon class="cls-38" points="68.93 37.57 68.88 53.87 67.34 53.94 67.38 37.64 68.93 37.57"/><polygon class="cls-39" points="67.38 37.64 67.34 53.94 66.78 54.04 66.83 37.74 67.38 37.64"/><polygon class="cls-23" points="20.03 37.75 19.98 54.05 19.37 53.7 19.42 37.4 20.03 37.75"/><polygon class="cls-40" points="66.83 37.74 66.78 54.04 65.78 54.28 65.83 37.98 66.83 37.74"/><polygon class="cls-9" points="65.83 37.98 65.78 54.28 65.13 54.51 65.18 38.21 65.83 37.98"/><polygon class="cls-32" points="65.18 38.21 65.13 54.51 64.7 54.68 64.75 38.38 65.18 38.21"/><polygon class="cls-23" points="21.11 38.37 21.06 54.68 19.98 54.05 20.03 37.75 21.11 38.37"/><polygon class="cls-10" points="64.75 38.38 64.7 54.68 64.39 54.89 64.44 38.58 64.75 38.38"/><polygon class="cls-34" points="64.44 38.58 64.39 54.89 64.17 55.13 64.22 38.82 64.44 38.58"/><polygon class="cls-23" points="22.18 38.99 22.13 55.3 21.06 54.68 21.11 38.37 22.18 38.99"/><polygon class="cls-41" points="64.22 38.82 64.17 55.13 63.91 55.55 63.96 39.25 64.22 38.82"/><polygon class="cls-23" points="23.26 39.62 23.21 55.92 22.13 55.3 22.18 38.99 23.26 39.62"/><polygon class="cls-34" points="63.96 39.25 63.91 55.55 63.33 56.18 63.38 39.87 63.96 39.25"/><polygon class="cls-23" points="24.34 40.23 24.3 56.54 23.21 55.92 23.26 39.62 24.34 40.23"/><polygon class="cls-23" points="25.58 40.95 25.54 57.25 24.3 56.54 24.34 40.23 25.58 40.95"/><polygon class="cls-23" points="26.82 41.66 26.77 57.97 25.54 57.25 25.58 40.95 26.82 41.66"/><polygon class="cls-23" points="28.05 42.38 28.01 58.68 26.77 57.97 26.82 41.66 28.05 42.38"/><polygon class="cls-23" points="28.8 42.81 28.75 59.11 28.01 58.68 28.05 42.38 28.8 42.81"/><polygon class="cls-24" points="29.3 43.09 29.25 59.39 28.75 59.11 28.8 42.81 29.3 43.09"/><polygon class="cls-23" points="30.54 43.81 30.5 60.11 29.25 59.39 29.3 43.09 30.54 43.81"/><polygon class="cls-23" points="31.78 44.52 31.74 60.83 30.5 60.11 30.54 43.81 31.78 44.52"/><polygon class="cls-23" points="32.82 45.12 32.78 61.43 31.74 60.83 31.78 44.52 32.82 45.12"/><polygon class="cls-23" points="33.03 45.24 32.98 61.54 32.78 61.43 32.82 45.12 33.03 45.24"/><polygon class="cls-3" points="66.91 45.15 66.86 61.45 66.43 61.68 66.48 45.38 66.91 45.15"/><polygon class="cls-42" points="66.48 45.38 66.43 61.68 66.26 61.83 66.31 45.52 66.48 45.38"/><polygon class="cls-23" points="34.27 45.96 34.23 62.26 32.98 61.54 33.03 45.24 34.27 45.96"/><polygon class="cls-43" points="66.4 46 66.35 62.31 66.33 62.7 66.38 46.4 66.4 46"/><polygon class="cls-23" points="35.52 46.68 35.48 62.98 34.23 62.26 34.27 45.96 35.52 46.68"/><polygon class="cls-20" points="66.38 46.4 66.33 62.7 65.95 63.13 66 46.83 66.38 46.4"/><polygon class="cls-23" points="36.78 47.4 36.74 63.7 35.48 62.98 35.52 46.68 36.78 47.4"/><polygon class="cls-23" points="38.03 48.12 37.98 64.42 36.74 63.7 36.78 47.4 38.03 48.12"/><polygon class="cls-38" points="44.04 48.57 43.99 64.87 42.26 64.95 42.31 48.64 44.04 48.57"/><polygon class="cls-44" points="44.69 48.71 44.65 65.01 43.99 64.87 44.04 48.57 44.69 48.71"/><polygon class="cls-37" points="42.31 48.64 42.26 64.95 41.44 65.06 41.49 48.76 42.31 48.64"/><polygon class="cls-45" points="41.49 48.76 41.44 65.06 40.63 65.19 40.67 48.88 41.49 48.76"/><polygon class="cls-46" points="39.73 48.88 39.68 65.19 37.98 64.42 38.03 48.12 39.73 48.88"/><polygon class="cls-47" points="40.67 48.88 40.63 65.19 40.01 65.23 40.05 48.92 40.67 48.88"/><polygon class="cls-48" points="40.05 48.92 40.01 65.23 39.68 65.19 39.73 48.88 40.05 48.92"/><polygon class="cls-48" points="66.72 48.78 66.67 65.08 66.53 65.44 66.58 49.14 66.72 48.78"/><polygon class="cls-27" points="47.2 49.22 47.15 65.52 44.65 65.01 44.69 48.71 47.2 49.22"/><polygon class="cls-38" points="48.98 49.27 48.93 65.57 47.73 65.63 47.78 49.33 48.98 49.27"/><polygon class="cls-49" points="47.78 49.33 47.73 65.63 47.15 65.52 47.2 49.22 47.78 49.33"/><polygon class="cls-39" points="66.58 49.14 66.53 65.44 66.21 65.75 66.26 49.44 66.58 49.14"/><polygon class="cls-2" points="48.98 49.55 48.94 65.85 48.93 65.57 48.98 49.27 48.98 49.55"/><polygon class="cls-50" points="49.73 49.65 49.69 65.96 49.13 65.98 49.17 49.67 49.73 49.65"/><polygon class="cls-51" points="49.17 49.67 49.13 65.98 48.94 65.85 48.98 49.55 49.17 49.67"/><polygon class="cls-32" points="66.26 49.44 66.21 65.75 65.58 66.12 65.62 49.82 66.26 49.44"/><polygon class="cls-42" points="65.62 49.82 65.58 66.12 65.41 66.27 65.45 49.96 65.62 49.82"/><polygon class="cls-52" points="51.32 50.16 51.27 66.46 49.69 65.96 49.73 49.65 51.32 50.16"/><polygon class="cls-53" points="52.4 50.4 52.36 66.7 51.27 66.46 51.32 50.16 52.4 50.4"/><polygon class="cls-54" points="53.02 50.55 52.98 66.85 52.36 66.7 52.4 50.4 53.02 50.55"/><polygon class="cls-55" points="53.72 50.88 53.67 67.18 52.98 66.85 53.02 50.55 53.72 50.88"/><polygon class="cls-24" points="54.39 51.26 54.35 67.57 53.67 67.18 53.72 50.88 54.39 51.26"/><polygon class="cls-29" points="55.17 51.46 55.13 67.76 54.35 67.57 54.39 51.26 55.17 51.46"/><polygon class="cls-3" points="66.03 51.22 65.99 67.52 65.25 67.89 65.3 51.59 66.03 51.22"/><polygon class="cls-2" points="55.29 51.86 55.25 68.16 55.13 67.76 55.17 51.46 55.29 51.86"/><polygon class="cls-3" points="65.3 51.59 65.25 67.89 64.67 68.21 64.72 51.91 65.3 51.59"/><polygon class="cls-42" points="64.72 51.91 64.67 68.21 64.2 68.31 64.25 52.01 64.72 51.91"/><polygon class="cls-2" points="55.45 52.09 55.41 68.39 55.25 68.16 55.29 51.86 55.45 52.09"/><polygon class="cls-3" points="64.25 52.01 64.2 68.31 63.73 68.57 63.77 52.26 64.25 52.01"/><polygon class="cls-2" points="55.57 52.33 55.52 68.64 55.41 68.39 55.45 52.09 55.57 52.33"/><polygon class="cls-37" points="63.77 52.26 63.73 68.57 63.33 68.97 63.38 52.67 63.77 52.26"/><polygon class="cls-2" points="55.67 52.83 55.63 69.14 55.52 68.64 55.57 52.33 55.67 52.83"/><polygon class="cls-2" points="55.87 53.28 55.82 69.59 55.63 69.14 55.67 52.83 55.87 53.28"/><polygon class="cls-40" points="63.38 52.67 63.33 68.97 62.52 69.61 62.57 53.31 63.38 52.67"/><polygon class="cls-32" points="62.57 53.31 62.52 69.61 62.33 69.73 62.37 53.43 62.57 53.31"/><polygon class="cls-2" points="55.88 53.55 55.84 69.85 55.82 69.59 55.87 53.28 55.88 53.55"/><polygon class="cls-32" points="62.37 53.43 62.33 69.73 61.25 70.13 61.3 53.83 62.37 53.43"/><polygon class="cls-56" points="56.19 53.83 56.14 70.13 55.84 69.85 55.88 53.55 56.19 53.83"/><polygon class="cls-37" points="61.3 53.83 61.25 70.13 60.82 70.19 60.87 53.88 61.3 53.83"/><polygon class="cls-42" points="60.87 53.88 60.82 70.19 60.42 70.28 60.47 53.98 60.87 53.88"/><polygon class="cls-16" points="60.47 53.98 60.42 70.28 60.1 70.52 60.14 54.22 60.47 53.98"/><polygon class="cls-57" points="57.29 54.27 57.24 70.57 56.14 70.13 56.19 53.83 57.29 54.27"/><polygon class="cls-58" points="57.65 54.64 57.6 70.94 57.24 70.57 57.29 54.27 57.65 54.64"/><polygon class="cls-25" points="60.14 54.22 60.1 70.52 59.93 70.98 59.98 54.68 60.14 54.22"/><polygon class="cls-59" points="57.88 54.77 57.83 71.07 57.6 70.94 57.65 54.64 57.88 54.77"/><polygon class="cls-60" points="58.18 54.91 58.13 71.21 57.83 71.07 57.88 54.77 58.18 54.91"/><polygon class="cls-61" points="58.52 55.02 58.47 71.32 58.13 71.21 58.18 54.91 58.52 55.02"/><polygon class="cls-62" points="59.98 54.68 59.93 70.98 59.7 71.34 59.75 55.04 59.98 54.68"/><polygon class="cls-63" points="59.3 55.08 59.26 71.39 58.47 71.32 58.52 55.02 59.3 55.08"/><polygon class="cls-8" points="59.75 55.04 59.7 71.34 59.26 71.39 59.3 55.08 59.75 55.04"/><polygon class="cls-64" points="82.73 2.14 82.01 2.5 80.97 3.44 80.99 3.68 81.03 4.15 81.58 4.41 81.77 4.81 81.43 5.07 80.98 5.87 80.77 6.31 80.62 6.49 79.58 7.15 79.08 7.49 78.89 7.67 78.78 7.9 78.81 8.31 78.63 8.86 79.48 11.03 79.58 11.21 79.51 11.43 79.35 11.66 79.16 11.84 79.56 12.5 79.03 12.66 78.98 12.94 78.74 13.26 78.84 14.34 78.15 14.83 78.23 15.16 78.07 15.63 77.91 15.81 77.88 17.45 77.98 17.66 78.4 18.13 80.22 19.69 80.53 19.88 81.04 20.33 80.63 21.13 80.64 21.83 80.49 22.24 80.47 22.43 80.52 22.66 80.84 23.07 80.89 23.65 80.03 24.12 79.52 24.69 78.83 25.46 78.78 25.67 78.38 25.95 78.23 26.12 78.96 26.57 79.25 26.75 79.41 26.92 79.67 27.29 79.92 27.45 80.08 27.78 80.42 28.14 81.15 29.23 81.89 29.91 82.41 30.62 82.7 30.96 82.53 31.84 82.29 32.26 81.05 33.15 80.73 33.27 80.33 33.4 80.03 33.52 79.81 33.69 79.66 33.95 79.58 34.35 79.21 34.75 79.03 34.88 78.53 35.06 78.11 35.37 77.82 35.48 77.23 35.54 76.53 35.72 76.14 35.83 75.42 36.32 74.94 36.36 73.93 36.31 73.47 36.38 73.12 36.59 72.62 37.1 71.78 37.39 70.81 37.44 70.23 37.39 68.93 37.57 67.38 37.64 66.83 37.74 65.83 37.98 65.18 38.21 64.75 38.38 64.44 38.58 64.22 38.82 63.96 39.25 63.38 39.87 63.61 40.62 63.87 41.25 64.85 42.32 66.71 44.43 66.84 44.97 66.91 45.15 66.48 45.38 66.31 45.52 66.4 46 66.38 46.4 66 46.83 66.07 47.33 66.2 47.55 66.58 48.02 66.72 48.38 66.72 48.78 66.58 49.14 66.26 49.44 65.62 49.82 65.45 49.96 65.84 50.42 66.03 51.22 65.3 51.59 64.72 51.91 64.25 52.01 63.77 52.26 63.38 52.67 62.57 53.31 62.37 53.43 61.3 53.83 60.87 53.88 60.47 53.98 60.14 54.22 59.98 54.68 59.75 55.04 59.3 55.08 58.52 55.02 58.18 54.91 57.88 54.77 57.65 54.64 57.29 54.27 56.19 53.83 55.88 53.55 55.87 53.28 55.67 52.83 55.57 52.33 55.45 52.09 55.29 51.86 55.17 51.46 54.39 51.26 53.72 50.88 53.02 50.55 52.4 50.4 51.32 50.16 49.73 49.65 49.17 49.67 48.98 49.55 48.98 49.27 47.78 49.33 47.2 49.22 44.69 48.71 44.04 48.57 42.31 48.64 41.49 48.76 40.67 48.88 40.05 48.92 39.73 48.88 38.03 48.12 36.78 47.4 35.52 46.68 34.27 45.96 33.03 45.24 32.82 45.12 31.78 44.52 30.54 43.81 29.3 43.09 28.8 42.81 28.05 42.38 26.82 41.66 25.58 40.95 24.34 40.23 23.26 39.62 22.18 38.99 21.11 38.37 20.03 37.75 19.42 37.4 25.99 33.58 25.81 33.38 25.51 33.21 25.11 32.97 24.69 32.73 24.28 32.5 23.87 32.27 23.45 32.03 23.04 31.79 22.63 31.56 22.22 31.32 21.8 31.08 21.4 30.85 20.99 30.61 20.58 30.37 20.17 30.14 19.75 29.91 19.35 29.67 18.94 29.43 18.05 28.92 17.16 28.41 16.28 27.91 15.39 27.4 14.5 26.89 13.61 26.38 12.73 25.87 11.85 25.37 10.97 24.86 10.09 24.36 9.2 23.85 8.33 23.34 7.44 22.84 6.57 22.34 6.02 22.02 5.69 21.83 4.81 21.33 0.05 18.58 0.36 18.38 0.72 18.16 1.07 17.93 1.44 17.7 1.79 17.48 2.09 17.29 2.39 17.1 2.68 16.91 2.98 16.72 4.03 15.88 4.48 15.49 4.93 15.1 5.38 14.71 5.83 14.32 6.28 13.94 6.73 13.55 7.17 13.16 7.63 12.78 8.07 12.39 8.52 12 8.97 11.62 9.42 11.23 9.87 10.84 10.32 10.45 10.77 10.06 11.23 9.66 11.95 9.17 12.46 8.81 12.88 8.52 13.15 8.38 14.86 8.63 17.15 8.71 17.96 9.03 18.31 9.16 18.73 8.9 18.73 8.63 18.82 7.69 18.82 7.35 18.89 7.07 18.68 6.8 18.74 6.57 19.02 6.2 19.04 5.93 19.26 5.72 19.32 5.49 19.25 5.08 19.37 4.88 19.85 4.27 20.14 3.94 20.81 3.93 21.6 3.97 21.93 3.71 21.86 3.02 21.96 2.69 21.91 2.46 22.68 1.33 23.42 0.87 23.82 0.79 23.95 0.61 23.94 0.36 24.21 0.21 24.74 0 25.06 0.5 26.14 0.85 26.89 0.96 27.25 0.97 27.62 0.91 27.97 0.89 28.38 0.96 29.13 1.15 29.69 1.23 30.24 1.41 31.49 1.49 31.86 1.45 32.82 1.53 33.18 1.51 33.56 1.45 33.88 1.43 34.2 1.53 34.76 1.8 35.51 1.97 37.1 1.92 37.83 2.13 38.1 2.45 39.04 2.73 39.52 2.77 39.97 2.86 42.41 3.54 42.84 3.59 43.26 3.53 43.62 3.4 43.98 3.2 45.12 3.32 45.81 3.34 46.55 3.17 47.17 3.07 48.54 3.02 50.05 2.72 51.18 2.51 51.47 2.4 51.68 2.27 51.92 2.16 52.27 2.1 55.08 2.15 56.03 2.56 56.94 3.21 57.07 2.99 57.27 2.83 58.01 2.4 58.61 2.13 58.91 1.88 59.26 1.8 59.53 1.65 60.31 1.82 60.48 2.02 60.69 2.19 61.41 2.42 61.7 2.58 62.18 2.97 63.09 3.6 63.53 3.96 64.38 4.12 65.39 4.05 65.83 4.08 66.27 4.14 66.79 4.17 68.14 4.45 70.08 4.49 70.67 4.26 71.47 3.81 71.77 3.69 72.12 3.59 72.94 3.44 73.44 3.05 73.81 2.85 74.61 2.68 75.01 2.55 76.43 2.25 76.68 2.17 77.11 1.95 77.89 1.74 78.39 2.1 78.75 2.42 79.1 2.56 79.5 2.65 79.91 2.65 80.29 2.59 80.58 2.47 81.18 2.1 82.73 2.14"/></g></g></g></svg>