<?xml version="1.0" encoding="utf-8"?>
<!-- Generator: Adobe Illustrator 22.1.0, SVG Export Plug-In . SVG Version: 6.00 Build 0)  -->
<svg version="1.1" id="Layer_1" xmlns="http://www.w3.org/2000/svg" xmlns:xlink="http://www.w3.org/1999/xlink" x="0px" y="0px"
	 viewBox="0 0 53.8 55.9" style="enable-background:new 0 0 53.8 55.9;" xml:space="preserve">
<style type="text/css">
	.st0{fill:#932424;}
	.st1{fill:#A12727;}
	.st2{fill:#9F2727;}
	.st3{fill:#481212;}
	.st4{fill:#811F1F;}
	.st5{fill:#A72929;}
	.st6{fill:#A32828;}
	.st7{fill:#6F1B1B;}
	.st8{fill:#882121;}
	.st9{fill:#A92929;}
	.st10{fill:#A42828;}
	.st11{fill:#A22828;}
	.st12{fill:#A82929;}
	.st13{fill:#952424;}
	.st14{fill:#A62929;}
	.st15{fill:#892222;}
	.st16{fill:#7B1E1E;}
	.st17{fill:#A02727;}
	.st18{fill:#491212;}
	.st19{fill:#862121;}
	.st20{fill:#8E2323;}
	.st21{fill:#4F1313;}
	.st22{fill:#972525;}
	.st23{fill:#5B1616;}
	.st24{fill:#691A1A;}
	.st25{fill:#7D1F1F;}
	.st26{fill:#751D1D;}
	.st27{fill:#9B2626;}
	.st28{fill:#962525;}
	.st29{fill:#681919;}
	.st30{fill:#511414;}
	.st31{fill:#661919;}
	.st32{fill:#4A1212;}
	.st33{fill:#902323;}
	.st34{fill:#5A1616;}
	.st35{fill:#4E1313;}
	.st36{fill:#A52828;}
	.st37{fill:#611818;}
	.st38{fill:#6A1A1A;}
	.st39{fill:#631818;}
	.st40{fill:#581515;}
	.st41{fill:#6D1B1B;}
	.st42{fill:#721C1C;}
	.st43{fill:#641919;}
	.st44{fill:#671919;}
	.st45{fill:#771D1D;}
	.st46{fill:#872121;}
	.st47{fill:#701B1B;}
	.st48{fill:#731C1C;}
	.st49{fill:#781D1D;}
	.st50{fill:#852020;}
	.st51{fill:#912323;}
	.st52{fill:#912424;}
	.st53{fill:#501414;}
	.st54{fill:#5D1717;}
	.st55{fill:#551515;}
	.st56{fill:#541515;}
	.st57{fill:#581616;}
	.st58{fill:#852121;}
	.st59{fill:#9D2626;}
	.st60{fill:#761D1D;}
	.st61{fill:#9E2727;}
	.st62{fill:#812020;}
	.st63{fill:#8D2323;}
	.st64{fill:#741C1C;}
	.st65{fill:#5C1717;}
	.st66{fill:#C83131;}
</style>
<title>Burkina Faso</title>
<g id="Layer_2_1_">
	<g id="Layer_1-2">
		<g>
			<polygon class="st0" points="35.8,2.1 35.8,18.4 35.7,18.6 35.7,2.3 			"/>
			<polygon class="st1" points="35.7,2.3 35.7,18.6 35.5,18.6 35.5,2.3 			"/>
			<polygon class="st2" points="48.6,2 48.5,18.3 48.1,18.7 48.2,2.4 			"/>
			<polygon class="st3" points="44.6,2.5 44.6,18.8 44.5,18.6 44.6,2.3 			"/>
			<polygon class="st4" points="35.5,2.3 35.5,18.6 35.4,19 35.4,2.6 			"/>
			<polygon class="st5" points="35.4,2.6 35.4,19 35.1,19 35.2,2.7 			"/>
			<polygon class="st2" points="48.2,2.4 48.1,18.7 47.6,19.1 47.7,2.8 			"/>
			<polygon class="st5" points="35.2,2.7 35.1,19 34.7,19.2 34.7,2.9 			"/>
			<polygon class="st6" points="34.7,2.9 34.7,19.2 33.9,19.4 34,3.1 			"/>
			<polygon class="st3" points="10.7,3.7 10.6,20 10.6,19.6 10.7,3.3 			"/>
			<polygon class="st7" points="53.8,5.2 53.8,15.5 53.7,16 53.7,5.7 			"/>
			<polygon class="st8" points="53.8,6.7 53.7,17 53.6,17.2 53.7,6.9 			"/>
			<polygon class="st9" points="53.7,6.9 53.6,17.2 53.4,17.4 53.4,7.1 			"/>
			<polygon class="st10" points="53.4,7.1 53.4,17.4 53,17.5 53,7.2 			"/>
			<polygon class="st11" points="53,7.2 53,17.5 52.7,17.5 52.8,7.2 			"/>
			<polygon class="st11" points="52.8,7.2 52.7,17.5 52.2,18 52.2,7.7 			"/>
			<polygon class="st12" points="52.2,7.7 52.2,18 51.8,18.2 51.8,7.9 			"/>
			<polygon class="st13" points="51.8,7.9 51.8,18.2 51.6,18.4 51.7,8.1 			"/>
			<polygon class="st2" points="51.7,8.1 51.6,18.4 51.4,18.6 51.5,8.3 			"/>
			<polygon class="st6" points="51.5,8.3 51.4,18.6 50.9,18.7 50.9,8.4 			"/>
			<polygon class="st14" points="50.9,8.4 50.9,18.7 49.9,19 50,8.7 			"/>
			<polygon class="st7" points="50,8.7 49.9,19 49.8,19.5 49.9,9.2 			"/>
			<polygon class="st15" points="49.9,9.2 49.8,19.5 49.7,19.8 49.8,9.5 			"/>
			<polygon class="st16" points="49.8,9.5 49.7,19.8 49.7,19.9 49.7,9.6 			"/>
			<polygon class="st16" points="50.2,9.9 50.1,20.2 50,20.6 50.1,10.3 			"/>
			<polygon class="st17" points="50.1,10.3 50,20.6 49.7,20.7 49.7,10.4 			"/>
			<polygon class="st18" points="6.7,10.4 6.7,26.7 6.5,26.5 6.6,10.2 			"/>
			<polygon class="st19" points="49.7,10.4 49.7,20.7 49.4,21.2 49.5,10.9 			"/>
			<polygon class="st20" points="49.7,11 49.7,21.3 49.4,21.8 49.4,11.5 			"/>
			<polygon class="st21" points="8.3,11.5 8.3,27.9 6.7,26.7 6.7,10.4 			"/>
			<polygon class="st14" points="49.9,11.9 49.9,22.2 49.3,22.4 49.3,12.1 			"/>
			<polygon class="st12" points="49.3,12.7 49.3,23 48.5,23.5 48.5,13.2 			"/>
			<polygon class="st12" points="48.5,13.2 48.5,23.5 47.8,23.9 47.9,13.6 			"/>
			<polygon class="st11" points="47.9,13.6 47.8,23.9 47.5,24.2 47.5,13.9 			"/>
			<polygon class="st3" points="4.3,14.2 4.3,30.5 4.2,30 4.3,13.7 			"/>
			<polygon class="st3" points="4.4,14.3 4.3,30.6 4.3,30.5 4.3,14.2 			"/>
			<polygon class="st18" points="47,14.6 47,24.9 46.8,24.6 46.8,14.3 			"/>
			<polygon class="st22" points="47.5,13.9 47.5,24.2 47,24.9 47,14.6 			"/>
			<polygon class="st6" points="46.8,14.3 46.8,24.6 45.6,24.9 45.6,14.6 			"/>
			<polygon class="st12" points="45.6,14.6 45.6,24.9 44.9,25.2 45,14.9 			"/>
			<polygon class="st18" points="4.2,15.4 4.1,31.7 3.9,31.5 3.9,15.2 			"/>
			<polygon class="st12" points="45,14.9 44.9,25.2 43.1,25.9 43.1,15.6 			"/>
			<polygon class="st12" points="43.1,15.6 43.1,25.9 42.1,26.3 42.2,16 			"/>
			<polygon class="st12" points="42.2,16 42.1,26.3 41.7,26.4 41.7,16.1 			"/>
			<polygon class="st18" points="4.8,16.1 4.7,32.4 4.1,31.7 4.2,15.4 			"/>
			<polygon class="st12" points="41.7,16.1 41.7,26.4 41.3,26.6 41.3,16.3 			"/>
			<polygon class="st3" points="4.8,16.3 4.8,32.6 4.7,32.4 4.8,16.1 			"/>
			<polygon class="st3" points="5,16.5 5,32.8 4.8,32.6 4.8,16.3 			"/>
			<polygon class="st12" points="41.3,16.3 41.3,26.6 40.2,27 40.2,16.7 			"/>
			<polygon class="st23" points="5.4,16.7 5.3,33 5,32.8 5,16.5 			"/>
			<polygon class="st24" points="6.2,16.9 6.2,33.2 5.3,33 5.4,16.7 			"/>
			<polygon class="st13" points="40.2,17.3 40.2,27.6 39.9,27.6 40,17.3 			"/>
			<polygon class="st19" points="40.5,17.3 40.4,27.6 40.2,27.6 40.2,17.3 			"/>
			<polygon class="st25" points="40,17.3 39.9,27.6 39.8,27.9 39.9,17.6 			"/>
			<polygon class="st26" points="40.1,17.8 40,28 40,28.3 40,18 			"/>
			<polygon class="st27" points="40,18 40,28.3 39.7,28.7 39.7,18.3 			"/>
			<polygon class="st28" points="3.6,18.2 3.5,34.5 3.3,34.6 3.3,18.2 			"/>
			<polygon class="st3" points="3.3,18.2 3.3,34.6 3.3,34.4 3.3,18.1 			"/>
			<polygon class="st29" points="3.8,18.3 3.7,34.6 3.5,34.5 3.6,18.2 			"/>
			<polygon class="st30" points="4.1,18.5 4.1,34.8 3.7,34.6 3.8,18.3 			"/>
			<polygon class="st31" points="39.7,18.3 39.7,28.7 39.7,29 39.7,18.7 			"/>
			<polygon class="st32" points="4.2,18.6 4.2,35 4.1,34.8 4.1,18.5 			"/>
			<polygon class="st3" points="4.4,18.9 4.4,35.2 4.2,35 4.2,18.6 			"/>
			<polygon class="st2" points="39.8,18.9 39.8,29.2 39.1,29.3 39.1,19 			"/>
			<polygon class="st14" points="39.1,19 39.1,29.3 37.9,29.6 38,19.3 			"/>
			<polygon class="st33" points="38,19.3 37.9,29.6 37.7,30 37.7,19.7 			"/>
			<polygon class="st34" points="6.3,19.8 6.3,36.1 4.4,35.2 4.4,18.9 			"/>
			<polygon class="st5" points="37.7,19.7 37.7,30 36.1,30.5 36.2,20.2 			"/>
			<polygon class="st10" points="36.2,20.2 36.1,30.5 36,30.7 36,20.4 			"/>
			<polygon class="st35" points="5.4,20.7 5.3,37 5.2,36.9 5.2,20.6 			"/>
			<polygon class="st36" points="36,20.4 36,30.7 35.2,31.2 35.2,20.9 			"/>
			<polygon class="st18" points="5.7,21.1 5.7,37.4 5.3,37 5.4,20.7 			"/>
			<polygon class="st12" points="35.2,20.9 35.2,31.2 34.3,37.7 34.4,21.4 			"/>
			<polygon class="st12" points="34.4,21.4 34.3,37.7 34.2,37.8 34.2,21.5 			"/>
			<polygon class="st10" points="34.2,21.5 34.2,37.8 33.8,37.8 33.9,21.5 			"/>
			<polygon class="st9" points="33.9,21.5 33.8,37.8 32.8,38.4 32.8,22.1 			"/>
			<polygon class="st3" points="0.1,22.7 0.1,33 0,32.8 0.1,22.5 			"/>
			<polygon class="st6" points="32.8,22.1 32.8,38.4 31.7,39.2 31.8,22.9 			"/>
			<polygon class="st3" points="0.3,23 0.2,33.3 0.1,33 0.1,22.7 			"/>
			<polygon class="st3" points="0.3,23.1 0.3,33.4 0.2,33.3 0.3,23 			"/>
			<polygon class="st12" points="31.8,22.9 31.7,39.2 30.3,40.1 30.3,23.8 			"/>
			<polygon class="st18" points="0.3,23.9 0.2,34.2 0.1,34 0.1,23.7 			"/>
			<polygon class="st37" points="0.6,24 0.5,34.3 0.2,34.2 0.3,23.9 			"/>
			<polygon class="st12" points="30.3,23.8 30.3,40.1 28.8,41 28.9,24.6 			"/>
			<polygon class="st32" points="0.4,24.7 0.4,35 0,34.6 0.1,24.3 			"/>
			<polygon class="st33" points="0.8,24.7 0.7,35 0.4,35 0.4,24.7 			"/>
			<polygon class="st26" points="1.4,24.8 1.3,35.1 0.7,35 0.8,24.7 			"/>
			<polygon class="st0" points="1.9,24.8 1.9,35.1 1.5,35.1 1.5,24.8 			"/>
			<polygon class="st19" points="1.5,24.8 1.5,35.1 1.3,35.1 1.4,24.8 			"/>
			<polygon class="st19" points="2.2,24.8 2.1,35.1 1.9,35.1 1.9,24.8 			"/>
			<polygon class="st38" points="2.4,24.9 2.4,35.2 2.1,35.1 2.2,24.8 			"/>
			<polygon class="st30" points="2.8,25.1 2.7,35.4 2.4,35.2 2.4,24.9 			"/>
			<polygon class="st39" points="3.2,25.3 3.2,35.6 2.7,35.4 2.8,25.1 			"/>
			<polygon class="st12" points="28.9,24.6 28.8,41 27.2,41.9 27.3,25.6 			"/>
			<polygon class="st12" points="27.3,25.6 27.2,41.9 26,42.7 26,26.3 			"/>
			<polygon class="st12" points="26,26.3 26,42.7 25.3,43 25.4,26.7 			"/>
			<polygon class="st12" points="25.4,26.7 25.3,43 25.2,43.1 25.2,26.8 			"/>
			<polygon class="st33" points="3.3,26.9 3.2,37.2 3,37.2 3.1,26.9 			"/>
			<polygon class="st28" points="3.1,26.9 3,37.2 2.5,37.3 2.6,27 			"/>
			<polygon class="st40" points="2.6,27 2.5,37.3 2,37 2.1,26.7 			"/>
			<polygon class="st9" points="25.2,26.8 25.2,43.1 24.5,43.4 24.6,27.1 			"/>
			<polygon class="st41" points="4,27.1 4,37.5 3.2,37.2 3.3,26.9 			"/>
			<polygon class="st3" points="4.1,27.3 4,37.6 4,37.5 4,27.1 			"/>
			<polygon class="st3" points="4.1,27.4 4,37.7 4,37.6 4.1,27.3 			"/>
			<polygon class="st3" points="4.1,27.5 4,37.9 4,37.7 4.1,27.4 			"/>
			<polygon class="st3" points="4.2,27.7 4.2,38 4,37.9 4.1,27.5 			"/>
			<polygon class="st42" points="5,27.9 5,38.2 4.2,38 4.2,27.7 			"/>
			<polygon class="st43" points="5.4,28 5.3,38.3 5,38.2 5,27.9 			"/>
			<polygon class="st44" points="5.4,29.3 5.4,39.6 4.9,39.4 4.9,29.1 			"/>
			<polygon class="st3" points="5.3,29.9 5.3,40.2 5.1,39.9 5.1,29.6 			"/>
			<polygon class="st44" points="35.7,32.4 35.7,42.7 35.7,42.9 35.7,32.6 			"/>
			<polygon class="st20" points="32.2,32.7 32.2,43 32,43 32,32.7 			"/>
			<polygon class="st45" points="32.5,32.7 32.4,43 32.2,43 32.2,32.7 			"/>
			<polygon class="st3" points="2.8,32.7 2.8,43 2.7,42.8 2.8,32.5 			"/>
			<polygon class="st46" points="30.8,32.8 30.7,43.1 30.4,43.1 30.5,32.8 			"/>
			<polygon class="st47" points="32.9,32.8 32.9,43.1 32.4,43 32.5,32.7 			"/>
			<polygon class="st12" points="30.5,32.8 30.4,43.1 30.2,43.1 30.3,32.8 			"/>
			<polygon class="st36" points="32,32.7 32,43 31.7,43.2 31.7,32.9 			"/>
			<polygon class="st7" points="30.1,32.9 30.1,43.2 29.6,43.1 29.6,32.8 			"/>
			<polygon class="st9" points="30.3,32.8 30.2,43.1 30.1,43.2 30.1,32.9 			"/>
			<polygon class="st44" points="31.2,32.9 31.1,43.2 30.7,43.1 30.8,32.8 			"/>
			<polygon class="st48" points="31.4,33 31.3,43.3 31.1,43.2 31.2,32.9 			"/>
			<polygon class="st11" points="31.7,32.9 31.7,43.2 31.3,43.3 31.4,33 			"/>
			<polygon class="st49" points="33.9,33 33.8,43.3 32.9,43.1 32.9,32.8 			"/>
			<polygon class="st41" points="35.9,32.9 35.8,43.2 35.8,43.3 35.9,33 			"/>
			<polygon class="st9" points="35.9,33 35.8,43.3 35.7,43.4 35.7,33.1 			"/>
			<polygon class="st50" points="35.4,33.1 35.4,43.4 33.8,43.3 33.9,33 			"/>
			<polygon class="st22" points="35.7,33.1 35.7,43.4 35.4,43.4 35.4,33.1 			"/>
			<polygon class="st15" points="29.6,32.8 29.6,43.1 29.4,43.5 29.4,33.2 			"/>
			<polygon class="st51" points="29.4,33.2 29.4,43.5 29.2,43.7 29.3,33.4 			"/>
			<polygon class="st52" points="29.3,33.4 29.2,43.7 28.3,43.7 28.3,33.4 			"/>
			<polygon class="st53" points="3.7,33.7 3.6,44 3.5,44 3.5,33.7 			"/>
			<polygon class="st22" points="3.5,33.7 3.5,44 2.1,44.1 2.2,33.8 			"/>
			<polygon class="st9" points="28.3,33.4 28.3,43.7 27.1,44.3 27.1,34 			"/>
			<polygon class="st13" points="4.8,34 4.8,44.3 4.4,44.4 4.4,34.1 			"/>
			<polygon class="st54" points="4.4,34.1 4.4,44.4 3.6,44 3.7,33.7 			"/>
			<polygon class="st31" points="5.1,34.2 5.1,44.5 4.8,44.3 4.8,34 			"/>
			<polygon class="st36" points="27.1,34 27.1,44.3 26.7,44.5 26.8,34.2 			"/>
			<polygon class="st55" points="5.7,34.5 5.6,44.8 5.1,44.5 5.1,34.2 			"/>
			<polygon class="st56" points="6,34.7 5.9,45 5.6,44.8 5.7,34.5 			"/>
			<polygon class="st9" points="26.8,34.2 26.7,44.5 25.6,45 25.7,34.7 			"/>
			<polygon class="st16" points="25.7,34.7 25.6,45 25.5,45.3 25.6,35 			"/>
			<polygon class="st3" points="6,35 5.9,45.3 5.9,45 6,34.7 			"/>
			<polygon class="st10" points="25.6,35 25.5,45.3 25,45.7 25,35.4 			"/>
			<polygon class="st57" points="6.8,35.4 6.8,45.7 5.9,45.3 6,35 			"/>
			<polygon class="st3" points="6.9,35.5 6.8,45.8 6.8,45.7 6.8,35.4 			"/>
			<polygon class="st46" points="25,35.4 25,45.7 24.8,46.1 24.9,35.8 			"/>
			<polygon class="st3" points="6.9,35.8 6.8,46.1 6.8,45.8 6.9,35.5 			"/>
			<polygon class="st3" points="7,35.9 6.9,46.2 6.8,46.1 6.9,35.8 			"/>
			<polygon class="st58" points="24.9,35.8 24.8,46.1 24.6,46.5 24.6,36.2 			"/>
			<polygon class="st18" points="7.2,36.2 7.2,46.5 6.9,46.2 7,35.9 			"/>
			<polygon class="st12" points="24.6,36.2 24.6,46.5 23.9,46.9 23.9,36.6 			"/>
			<polygon class="st33" points="23.9,36.6 23.9,46.9 23.8,47.1 23.8,36.8 			"/>
			<polygon class="st39" points="7,37.3 7,47.6 6.6,47.5 6.6,37.2 			"/>
			<polygon class="st59" points="23.9,37.1 23.8,47.4 23.6,47.7 23.6,37.4 			"/>
			<polygon class="st60" points="7.5,37.4 7.5,47.7 7.2,47.6 7.3,37.3 			"/>
			<polygon class="st61" points="7.3,37.3 7.2,47.6 7.1,47.7 7.2,37.4 			"/>
			<polygon class="st32" points="7.2,37.4 7.1,47.7 7,47.6 7,37.3 			"/>
			<polygon class="st44" points="8.1,37.6 8.1,47.9 7.5,47.7 7.5,37.4 			"/>
			<polygon class="st60" points="8.5,37.7 8.4,48 8.1,47.9 8.1,37.6 			"/>
			<polygon class="st9" points="24.1,38.1 24,48.4 23.8,48.5 23.9,38.2 			"/>
			<polygon class="st3" points="8.9,38.2 8.9,48.5 8.4,48 8.5,37.7 			"/>
			<polygon class="st5" points="23.9,38.2 23.8,48.5 23.4,48.7 23.4,38.4 			"/>
			<polygon class="st27" points="23.4,38.4 23.4,48.7 23,48.7 23.1,38.4 			"/>
			<polygon class="st5" points="23.1,38.4 23,48.7 22.8,48.9 22.8,38.6 			"/>
			<polygon class="st18" points="22.4,38.7 22.3,49 22.1,48.8 22.2,38.5 			"/>
			<polygon class="st9" points="22.8,38.6 22.8,48.9 22.6,49 22.6,38.7 			"/>
			<polygon class="st62" points="22.6,38.7 22.6,49 22.3,49 22.4,38.7 			"/>
			<polygon class="st12" points="22.2,38.5 22.1,48.8 21.5,49.1 21.6,38.8 			"/>
			<polygon class="st40" points="9.9,38.8 9.9,49.1 8.9,48.5 8.9,38.2 			"/>
			<polygon class="st6" points="14.4,38.6 14.3,48.9 13.4,49.2 13.4,38.9 			"/>
			<polygon class="st39" points="15.2,38.9 15.1,49.2 14.3,48.9 14.4,38.6 			"/>
			<polygon class="st33" points="15.9,38.9 15.9,49.2 15.5,49.2 15.6,38.9 			"/>
			<polygon class="st63" points="15.6,38.9 15.5,49.2 15.1,49.2 15.2,38.9 			"/>
			<polygon class="st18" points="10.2,39 10.2,49.3 9.9,49.1 9.9,38.8 			"/>
			<polygon class="st9" points="13.4,38.9 13.4,49.2 12.9,49.4 13,39.1 			"/>
			<polygon class="st45" points="17.3,39.2 17.3,49.5 15.9,49.2 15.9,38.9 			"/>
			<polygon class="st64" points="17.6,39.3 17.6,49.6 17.3,49.5 17.3,39.2 			"/>
			<polygon class="st61" points="19.5,39.1 19.5,49.4 18.5,49.6 18.6,39.3 			"/>
			<polygon class="st3" points="10.3,39.3 10.3,49.6 10.2,49.3 10.2,39 			"/>
			<polygon class="st65" points="20,39.4 20,49.7 19.5,49.4 19.5,39.1 			"/>
			<polygon class="st12" points="21.6,38.8 21.5,49.1 20,49.7 20,39.4 			"/>
			<polygon class="st32" points="17.9,39.5 17.8,49.8 17.6,49.6 17.6,39.3 			"/>
			<polygon class="st5" points="18.6,39.3 18.5,49.6 17.8,49.8 17.9,39.5 			"/>
			<polygon class="st57" points="10.9,39.6 10.8,49.9 10.3,49.6 10.3,39.3 			"/>
			<polygon class="st19" points="11.1,39.6 11.1,49.9 10.8,49.9 10.9,39.6 			"/>
			<polygon class="st36" points="13,39.1 12.9,49.4 11.1,49.9 11.1,39.6 			"/>
			<polygon class="st66" points="53.1,3.5 53.5,4 53.6,4.2 53.6,4.5 53.7,4.6 53.8,5.2 53.7,5.7 53.8,6.7 53.7,6.9 53.4,7.1 53,7.2 
				52.8,7.2 52.2,7.7 51.8,7.9 51.7,8.1 51.5,8.3 50.9,8.4 50,8.7 49.9,9.2 49.8,9.5 49.7,9.6 50.2,9.9 50.1,10.3 49.7,10.4 
				49.5,10.9 49.7,11 49.4,11.5 49.9,11.9 49.3,12.1 49.3,12.7 48.5,13.2 47.9,13.6 47.5,13.9 47,14.6 46.8,14.3 45.6,14.6 45,14.9 
				43.1,15.6 42.2,16 41.7,16.1 41.3,16.3 40.2,16.7 40.5,17.3 40.2,17.3 40,17.3 39.9,17.6 40.1,17.8 40,18 39.7,18.3 39.7,18.7 
				39.8,18.9 39.1,19 38,19.3 37.7,19.7 36.2,20.2 36,20.4 35.2,20.9 34.4,21.4 34.2,21.5 33.9,21.5 32.8,22.1 31.8,22.9 30.3,23.8 
				28.9,24.6 27.3,25.6 26,26.3 25.4,26.7 25.2,26.8 24.6,27.1 25.3,27.4 25.4,27.8 25.6,28 25.7,28.2 25.8,28.3 26.4,28.8 27.1,29 
				27.4,29.1 28.5,29.2 28.9,29 30.2,29.9 30.3,30.1 30.8,30.3 31.4,30.6 31.9,30.7 32.2,30.9 32.5,31.1 32.7,31.2 33.1,31.2 
				33.2,31.6 33.3,31.8 33.6,31.9 35.2,32.3 35.7,32.4 35.7,32.6 35.9,32.9 35.9,33 35.7,33.1 35.4,33.1 33.9,33 32.9,32.8 
				32.5,32.7 32.2,32.7 32,32.7 31.7,32.9 31.4,33 31.2,32.9 30.8,32.8 30.5,32.8 30.3,32.8 30.1,32.9 29.6,32.8 29.4,33.2 
				29.3,33.4 28.3,33.4 27.1,34 26.8,34.2 25.7,34.7 25.6,35 25,35.4 24.9,35.8 24.6,36.2 23.9,36.6 23.8,36.8 23.9,37.1 23.6,37.4 
				23.7,37.8 23.9,37.9 24.1,38.1 23.9,38.2 23.4,38.4 23.1,38.4 22.8,38.6 22.6,38.7 22.4,38.7 22.2,38.5 21.6,38.8 20,39.4 
				19.5,39.1 18.6,39.3 17.9,39.5 17.6,39.3 17.3,39.2 15.9,38.9 15.6,38.9 15.2,38.9 14.4,38.6 13.4,38.9 13,39.1 11.1,39.6 
				10.9,39.6 10.3,39.3 10.2,39 9.9,38.8 8.9,38.2 8.5,37.7 8.1,37.6 7.5,37.4 7.3,37.3 7.2,37.4 7,37.3 6.6,37.2 7.1,36.5 
				7.2,36.2 7,35.9 6.9,35.8 6.9,35.5 6.8,35.4 6,35 6,34.7 5.7,34.5 5.1,34.2 4.8,34 4.4,34.1 3.7,33.7 3.5,33.7 2.2,33.8 
				2.5,33.3 2.8,33 2.8,32.7 2.8,32.5 2.9,32.2 3,32 3.4,31.7 3.8,31.3 4,31.2 4.4,30.9 4.8,30.8 5.1,30.5 5.3,29.9 5.1,29.6 
				5.2,29.4 5.4,29.3 4.9,29.1 5,28.5 5.4,28 5,27.9 4.2,27.7 4.1,27.5 4.1,27.4 4.1,27.3 4,27.1 3.3,26.9 3.1,26.9 2.6,27 
				2.1,26.7 2.3,26.5 2.5,26.3 2.7,26.2 2.9,26.1 3.2,26 3.2,25.3 2.8,25.1 2.4,24.9 2.2,24.8 1.9,24.8 1.5,24.8 1.4,24.8 0.8,24.7 
				0.4,24.7 0.1,24.3 0.6,24 0.3,23.9 0.1,23.7 0.1,23.5 0.3,23.1 0.3,23 0.1,22.7 0.1,22.5 0.2,22.3 0.2,22.1 0.8,21.7 0.8,22 
				1.1,22 1.8,21.8 2.2,21.6 3.2,21.5 3.7,21.5 4.7,21.4 5.1,21.3 5.4,21.2 5.7,21.1 5.4,20.7 5.2,20.6 5.3,20.5 6.3,19.8 4.4,18.9 
				4.2,18.6 4.1,18.5 3.8,18.3 3.6,18.2 3.3,18.2 3.3,18.1 3.6,18 4.1,18 4.3,17.9 4.4,17.8 4.8,17.7 5,17.7 5.4,17.6 5.7,17.4 
				6.1,17.1 6.2,16.9 5.4,16.7 5,16.5 4.8,16.3 4.8,16.1 4.2,15.4 3.9,15.2 4.4,14.3 4.3,14.2 4.3,13.7 4.3,13.5 4.5,13.1 4.8,12.8 
				5.4,12.6 7.7,12.1 8,12 8.3,11.5 6.7,10.4 6.6,10.2 6.7,10.1 7,9.9 7.6,9.6 8,9.3 8.4,9 9.2,6.8 9.4,6.6 10.3,5.7 10.4,5.4 
				10.5,5.2 10.7,3.7 10.7,3.3 10.7,3.1 10.9,2.9 12.3,2.1 12.5,2 13.2,2.1 13.5,2 13.7,1.8 13.8,1.4 14.2,1.1 14.7,0.9 16,0.6 
				18.2,0 18.4,0.1 18.6,0.5 19.2,0.6 19.5,0.7 20.3,1.7 20.7,1.9 21.2,1.9 23.2,1.9 23.9,2 24.2,2.3 24.3,2.6 24.7,2.7 26.9,3 
				28,3 28.7,3.2 29.1,3.4 29.3,3.3 30.1,2.8 30.8,2.8 31.2,2.6 31.6,2.5 32.1,2.4 32.7,2.4 33,2.6 33.4,2.6 33.7,2.6 34.8,2.4 
				35.3,2.2 35.8,2.1 35.7,2.3 35.5,2.3 35.4,2.6 35.2,2.7 34.7,2.9 34,3.1 34,3.3 34.6,3.7 35.2,4 35.7,4.3 36.4,4.4 36.9,4.2 
				37.2,4.1 37.9,4.1 38.6,4 39.5,4 39.8,4 40.8,3.9 41.5,3.9 42.4,3.8 42.7,3.8 42.9,3.7 43.7,3.3 44.6,2.9 44.6,2.5 44.6,2.3 
				44.7,1.9 45.4,1.5 45.8,1.4 46.1,1.4 47.7,1.7 48.6,2 48.2,2.4 47.7,2.8 47.8,3 48.2,3.1 48.9,3.2 50.1,3.3 51.2,3.4 52.5,3.5 
							"/>
		</g>
	</g>
</g>
</svg>
