<?xml version="1.0" encoding="utf-8"?>
<!-- Generator: Adobe Illustrator 22.1.0, SVG Export Plug-In . SVG Version: 6.00 Build 0)  -->
<svg version="1.1" id="Layer_1" xmlns="http://www.w3.org/2000/svg" xmlns:xlink="http://www.w3.org/1999/xlink" x="0px" y="0px"
	 viewBox="0 0 17.4 28.6" style="enable-background:new 0 0 17.4 28.6;" xml:space="preserve">
<style type="text/css">
	.st0{fill:#481212;}
	.st1{fill:#551515;}
	.st2{fill:#4A1212;}
	.st3{fill:#681919;}
	.st4{fill:#4F1313;}
	.st5{fill:#7A1E1E;}
	.st6{fill:#5B1616;}
	.st7{fill:#A62929;}
	.st8{fill:#9F2727;}
	.st9{fill:#812020;}
	.st10{fill:#491212;}
	.st11{fill:#952424;}
	.st12{fill:#801F1F;}
	.st13{fill:#661919;}
	.st14{fill:#521414;}
	.st15{fill:#651919;}
	.st16{fill:#8D2323;}
	.st17{fill:#6B1A1A;}
	.st18{fill:#902323;}
	.st19{fill:#A02727;}
	.st20{fill:#A22828;}
	.st21{fill:#A82929;}
	.st22{fill:#4C1313;}
	.st23{fill:#721C1C;}
	.st24{fill:#A52929;}
	.st25{fill:#7B1E1E;}
	.st26{fill:#7E1F1F;}
	.st27{fill:#6C1A1A;}
	.st28{fill:#832020;}
	.st29{fill:#A92929;}
	.st30{fill:#972525;}
	.st31{fill:#7D1F1F;}
	.st32{fill:#501414;}
	.st33{fill:#6E1B1B;}
	.st34{fill:#9B2626;}
	.st35{fill:#A32828;}
	.st36{fill:#791E1E;}
	.st37{fill:#5E1717;}
	.st38{fill:#A42828;}
	.st39{fill:#621818;}
	.st40{fill:#761D1D;}
	.st41{fill:#5F1717;}
	.st42{fill:#4B1212;}
	.st43{fill:#581616;}
	.st44{fill:#962525;}
	.st45{fill:#6F1B1B;}
	.st46{fill:#511414;}
	.st47{fill:#842020;}
	.st48{fill:#5A1616;}
	.st49{fill:#852121;}
	.st50{fill:#541414;}
	.st51{fill:#4D1313;}
	.st52{fill:#982525;}
	.st53{fill:#8F2323;}
	.st54{fill:#8B2222;}
	.st55{fill:#691A1A;}
	.st56{fill:#6A1A1A;}
	.st57{fill:#C83131;}
</style>
<title>Burundi</title>
<g id="Layer_2_1_">
	<g id="Layer_1-2">
		<g>
			<polygon class="st0" points="6.8,0.5 6.7,4.8 6.7,4.8 6.8,0.5 			"/>
			<polygon class="st0" points="6.8,0.5 6.7,4.8 6.7,4.8 6.8,0.5 			"/>
			<polygon class="st0" points="6.8,0.6 6.7,4.9 6.7,4.8 6.8,0.5 			"/>
			<polygon class="st0" points="6,1.1 5.9,5.5 5.9,5.4 6,1.1 			"/>
			<polygon class="st1" points="6,1.2 6,5.5 5.9,5.5 6,1.1 			"/>
			<polygon class="st2" points="6.1,1.2 6,5.5 6,5.5 6,1.2 			"/>
			<polygon class="st3" points="9.4,1.2 9.3,5.5 9.3,5.7 9.3,1.4 			"/>
			<polygon class="st0" points="6.1,1.6 6.1,5.9 6,5.5 6.1,1.2 			"/>
			<polygon class="st0" points="4,2.1 4,6.4 3.9,6.4 4,2.1 			"/>
			<polygon class="st1" points="4.1,2.2 4,6.5 4,6.4 4,2.1 			"/>
			<polygon class="st0" points="11.8,2.3 11.8,6.6 11.7,6.4 11.8,2.1 			"/>
			<polygon class="st4" points="4.4,2.4 4.3,6.7 4,6.5 4.1,2.2 			"/>
			<polygon class="st5" points="16.1,2.4 16,6.7 16,6.9 16,2.6 			"/>
			<polygon class="st6" points="4.9,2.6 4.9,6.9 4.3,6.7 4.4,2.4 			"/>
			<polygon class="st7" points="16,2.6 16,6.9 15.8,7 15.9,2.7 			"/>
			<polygon class="st8" points="15.9,2.7 15.8,7 15.5,7 15.6,2.7 			"/>
			<polygon class="st9" points="15.7,2.8 15.6,7.1 15.6,7.2 15.6,2.9 			"/>
			<polygon class="st7" points="15.6,2.9 15.6,7.2 15.5,7.3 15.6,3 			"/>
			<polygon class="st10" points="5.3,3 5.2,7.3 4.9,6.9 4.9,2.6 			"/>
			<polygon class="st11" points="15.6,3 15.5,7.3 15.4,7.4 15.4,3.1 			"/>
			<polygon class="st12" points="15.4,3.1 15.4,7.4 15.4,7.5 15.4,3.2 			"/>
			<polygon class="st13" points="15.4,3.2 15.4,7.5 15.4,7.7 15.4,3.4 			"/>
			<polygon class="st14" points="5.9,3.4 5.9,7.7 5.2,7.3 5.3,3 			"/>
			<polygon class="st1" points="6,3.5 5.9,7.8 5.9,7.7 5.9,3.4 			"/>
			<polygon class="st10" points="6.1,3.6 6.1,7.9 5.9,7.8 6,3.5 			"/>
			<polygon class="st0" points="6.2,3.7 6.1,8 6.1,7.9 6.1,3.6 			"/>
			<polygon class="st15" points="16,3.6 15.9,7.9 15.9,8.1 16,3.8 			"/>
			<polygon class="st0" points="6.2,3.8 6.2,8.1 6.1,8 6.2,3.7 			"/>
			<polygon class="st0" points="6.3,3.9 6.2,8.2 6.2,8.1 6.2,3.8 			"/>
			<polygon class="st16" points="16,3.8 15.9,8.1 15.8,8.3 15.8,4 			"/>
			<polygon class="st0" points="6.3,4.1 6.2,8.4 6.2,8.2 6.3,3.9 			"/>
			<polygon class="st17" points="15.8,4.1 15.8,8.5 15.8,8.5 15.8,4.2 			"/>
			<polygon class="st18" points="15.8,4.2 15.8,8.5 15.7,8.5 15.8,4.2 			"/>
			<polygon class="st19" points="15.8,4.2 15.7,8.5 15.6,8.7 15.6,4.4 			"/>
			<polygon class="st20" points="15.7,4.4 15.6,8.7 15.5,8.8 15.6,4.5 			"/>
			<polygon class="st0" points="5.7,4.6 5.7,8.9 5.6,8.8 5.7,4.5 			"/>
			<polygon class="st21" points="15.6,4.5 15.5,8.8 15.4,8.9 15.5,4.6 			"/>
			<polygon class="st22" points="5.8,4.6 5.8,9 5.7,8.9 5.7,4.6 			"/>
			<polygon class="st0" points="5.8,4.7 5.8,9 5.8,9 5.8,4.6 			"/>
			<polygon class="st23" points="15.5,4.7 15.5,9 15.4,9.2 15.5,4.9 			"/>
			<polygon class="st24" points="16.7,6 16.7,10.3 16.3,10.4 16.3,6.1 			"/>
			<polygon class="st12" points="16.3,6.1 16.3,10.4 16.2,10.5 16.2,6.2 			"/>
			<polygon class="st0" points="0.1,6.7 0,11 0,10.8 0.1,6.5 			"/>
			<polygon class="st22" points="0.6,7.1 0.6,11.4 0,11 0.1,6.7 			"/>
			<polygon class="st25" points="0.8,7.2 0.8,11.5 0.6,11.4 0.6,7.1 			"/>
			<polygon class="st26" points="1.6,7.4 1.6,11.7 1.5,11.7 1.5,7.4 			"/>
			<polygon class="st20" points="1.5,7.4 1.5,11.7 1.3,11.8 1.4,7.4 			"/>
			<polygon class="st0" points="0.8,7.4 0.7,11.8 0.7,11.7 0.7,7.4 			"/>
			<polygon class="st27" points="1.9,7.5 1.8,11.8 1.6,11.7 1.6,7.4 			"/>
			<polygon class="st28" points="2.1,7.5 2,11.8 1.8,11.8 1.9,7.5 			"/>
			<polygon class="st29" points="1.4,7.4 1.3,11.8 1.2,11.8 1.2,7.5 			"/>
			<polygon class="st30" points="4.1,7.5 4,11.8 3.8,11.8 3.9,7.5 			"/>
			<polygon class="st31" points="4.2,7.6 4.2,11.9 4,11.8 4.1,7.5 			"/>
			<polygon class="st32" points="0.9,7.5 0.9,11.8 0.7,11.8 0.8,7.4 			"/>
			<polygon class="st33" points="2.2,7.6 2.1,11.9 2,11.8 2.1,7.5 			"/>
			<polygon class="st34" points="2.9,7.6 2.9,11.9 2.7,11.9 2.8,7.6 			"/>
			<polygon class="st35" points="3.9,7.5 3.8,11.8 3.7,11.9 3.7,7.6 			"/>
			<polygon class="st36" points="1.1,7.6 1,11.9 0.9,11.8 0.9,7.5 			"/>
			<polygon class="st7" points="1.2,7.5 1.2,11.8 1,11.9 1.1,7.6 			"/>
			<polygon class="st33" points="3.1,7.6 3,11.9 2.9,11.9 2.9,7.6 			"/>
			<polygon class="st37" points="2.3,7.6 2.2,11.9 2.1,11.9 2.2,7.6 			"/>
			<polygon class="st38" points="2.8,7.6 2.7,11.9 2.5,11.9 2.6,7.6 			"/>
			<polygon class="st29" points="3.7,7.6 3.7,11.9 3.5,12 3.6,7.6 			"/>
			<polygon class="st33" points="2.4,7.6 2.4,12 2.2,11.9 2.3,7.6 			"/>
			<polygon class="st19" points="2.6,7.6 2.5,11.9 2.4,12 2.4,7.6 			"/>
			<polygon class="st39" points="3.2,7.7 3.2,12 3,11.9 3.1,7.6 			"/>
			<polygon class="st40" points="3.4,7.7 3.4,12 3.2,12 3.2,7.7 			"/>
			<polygon class="st35" points="3.6,7.6 3.5,12 3.4,12 3.4,7.7 			"/>
			<polygon class="st37" points="4.6,7.7 4.6,12 4.2,11.9 4.2,7.6 			"/>
			<polygon class="st41" points="4.7,7.8 4.6,12.1 4.6,12 4.6,7.7 			"/>
			<polygon class="st0" points="4.7,7.8 4.7,12.1 4.6,12.1 4.7,7.8 			"/>
			<polygon class="st0" points="4.8,8 4.7,12.3 4.6,12.2 4.7,7.9 			"/>
			<polygon class="st42" points="4.9,8.1 4.8,12.4 4.7,12.3 4.8,8 			"/>
			<polygon class="st43" points="5.3,8.3 5.3,12.6 4.8,12.4 4.9,8.1 			"/>
			<polygon class="st33" points="5.5,8.4 5.4,12.7 5.3,12.6 5.3,8.3 			"/>
			<polygon class="st44" points="5.7,8.4 5.7,12.7 5.4,12.7 5.5,8.4 			"/>
			<polygon class="st0" points="5.7,8.4 5.7,12.7 5.7,12.7 5.7,8.4 			"/>
			<polygon class="st0" points="5.7,8.6 5.7,12.9 5.6,12.9 5.7,8.6 			"/>
			<polygon class="st45" points="17.2,8.3 17.1,12.6 17.1,13 17.1,8.7 			"/>
			<polygon class="st46" points="5.9,8.8 5.9,13.1 5.7,12.9 5.7,8.6 			"/>
			<polygon class="st47" points="17.4,9.3 17.4,13.6 17.3,13.7 17.4,9.4 			"/>
			<polygon class="st40" points="17.4,9.4 17.3,13.7 17.3,13.8 17.3,9.5 			"/>
			<polygon class="st48" points="7.7,9.6 7.7,14 5.9,13.1 5.9,8.8 			"/>
			<polygon class="st49" points="17.3,9.5 17.3,13.8 17.2,14 17.2,9.7 			"/>
			<polygon class="st13" points="17.2,9.7 17.2,14 17.2,14.3 17.2,9.9 			"/>
			<polygon class="st50" points="8.2,10 8.2,14.3 7.7,14 7.7,9.6 			"/>
			<polygon class="st51" points="8.5,10.1 8.4,14.5 8.2,14.3 8.2,10 			"/>
			<polygon class="st16" points="17.2,9.9 17.2,14.3 17,14.6 17,10.3 			"/>
			<polygon class="st52" points="17,10.3 17,14.6 16.9,14.6 17,10.3 			"/>
			<polygon class="st21" points="17,10.3 16.9,14.6 16.8,14.6 16.9,10.4 			"/>
			<polygon class="st35" points="16.9,10.4 16.8,14.6 16.7,14.7 16.8,10.4 			"/>
			<polygon class="st21" points="16.8,10.4 16.7,14.7 16.6,14.7 16.7,10.4 			"/>
			<polygon class="st51" points="8.9,10.5 8.8,14.8 8.4,14.5 8.5,10.1 			"/>
			<polygon class="st5" points="16.7,10.4 16.6,14.7 16.6,14.8 16.6,10.5 			"/>
			<polygon class="st53" points="16.8,10.6 16.7,15 16.6,15 16.7,10.8 			"/>
			<polygon class="st48" points="9.7,10.9 9.7,15.2 8.8,14.8 8.9,10.5 			"/>
			<polygon class="st33" points="10,10.9 9.9,15.2 9.7,15.2 9.7,10.9 			"/>
			<polygon class="st28" points="10.2,11 10.2,15.3 9.9,15.2 10,10.9 			"/>
			<polygon class="st54" points="10.7,11 10.7,15.3 10.2,15.3 10.2,11 			"/>
			<polygon class="st33" points="16.9,11 16.9,15.3 16.8,15.4 16.9,11.1 			"/>
			<polygon class="st31" points="11.8,11.1 11.8,15.5 10.7,15.3 10.7,11 			"/>
			<polygon class="st29" points="16.9,11.1 16.8,15.4 16.5,15.5 16.6,11.2 			"/>
			<polygon class="st21" points="16.6,11.2 16.5,15.5 16.1,15.7 16.2,11.4 			"/>
			<polygon class="st55" points="12.6,11.4 12.6,15.7 11.8,15.5 11.8,11.1 			"/>
			<polygon class="st56" points="12.8,11.5 12.8,15.8 12.6,15.7 12.6,11.4 			"/>
			<polygon class="st21" points="16.2,11.4 16.1,15.7 14.6,16.6 14.6,12.3 			"/>
			<polygon class="st37" points="14.6,12.3 14.6,16.6 12.8,15.8 12.8,11.5 			"/>
			<polygon class="st57" points="15.5,1.8 15.6,1.9 15.7,2 15.8,2.2 15.8,2.2 15.9,2.2 16.1,2.4 16,2.6 15.9,2.7 15.6,2.7 15.6,2.8 
				15.7,2.8 15.6,2.9 15.6,3 15.4,3.1 15.4,3.2 15.4,3.4 15.4,3.5 15.5,3.5 15.8,3.5 16,3.6 16,3.8 15.8,4 15.8,4.1 15.8,4.2 
				15.8,4.2 15.6,4.4 15.7,4.4 15.6,4.5 15.5,4.6 15.5,4.7 15.5,4.9 15.5,4.9 15.7,5 15.8,5.1 15.9,5.2 16,5.6 16.1,5.7 16.2,5.8 
				16.4,5.8 16.5,5.8 16.6,5.9 16.7,6 16.3,6.1 16.2,6.2 16.4,6.7 16.5,7.1 16.5,7.2 16.9,7.5 17,7.7 17,7.8 17.1,8 17.2,8.3 
				17.1,8.7 17.1,8.8 17.4,9.2 17.4,9.3 17.4,9.4 17.3,9.5 17.2,9.7 17.2,9.9 17,10.3 17,10.3 16.9,10.4 16.8,10.4 16.7,10.4 
				16.6,10.5 16.7,10.6 16.8,10.6 16.7,10.8 16.7,10.8 16.8,10.9 16.9,10.9 16.9,11 16.9,11.1 16.6,11.2 16.2,11.4 14.6,12.3 
				12.8,11.5 12.6,11.4 11.8,11.1 10.7,11 10.2,11 10,10.9 9.7,10.9 8.9,10.5 8.5,10.1 8.2,10 7.7,9.6 5.9,8.8 5.7,8.6 5.7,8.6 
				5.7,8.4 5.7,8.4 5.5,8.4 5.3,8.3 4.9,8.1 4.8,8 4.7,7.9 4.7,7.8 4.7,7.8 4.6,7.7 4.2,7.6 4.1,7.5 3.9,7.5 3.7,7.6 3.6,7.6 
				3.4,7.7 3.2,7.7 3.1,7.6 2.9,7.6 2.8,7.6 2.6,7.6 2.4,7.6 2.3,7.6 2.2,7.6 2.1,7.5 1.9,7.5 1.6,7.4 1.5,7.4 1.4,7.4 1.2,7.5 
				1.1,7.6 0.9,7.5 0.8,7.4 0.7,7.4 0.7,7.3 0.8,7.2 0.6,7.1 0.1,6.7 0.1,6.5 0.4,6.3 0.5,6.2 1.1,6.1 1.3,6 1.6,5.9 1.8,5.8 2,5.8 
				2.1,5.8 2.2,5.8 2.3,5.9 2.6,5.9 2.8,5.9 2.8,6 2.8,6.1 2.9,6.1 3,6.2 3.2,6.2 3.3,6.3 3.4,6.3 3.6,6.2 3.8,6 3.8,5.9 4,5.8 
				4.3,5.7 4.5,5.7 4.6,5.6 4.7,5.4 4.8,5.4 4.9,5.3 4.9,5.3 4.9,5.2 5,5.1 5.1,5.1 5.2,5 5.6,4.9 5.7,4.9 5.8,4.8 5.8,4.7 5.8,4.6 
				5.7,4.6 5.7,4.5 5.8,4.4 5.9,4.4 6.1,4.3 6.2,4.2 6.3,4.1 6.3,3.9 6.2,3.8 6.2,3.7 6.1,3.6 6,3.5 5.9,3.4 5.3,3 4.9,2.6 4.4,2.4 
				4.1,2.2 4,2.1 4,2.1 4.1,2 4.1,2 4.2,2 4.5,2 4.5,2 4.6,2 4.6,1.9 4.7,1.9 4.9,1.9 5.3,1.9 5.5,1.9 5.8,1.9 6,1.8 6.1,1.7 
				6.1,1.6 6.1,1.2 6,1.2 6,1.1 6,1.1 6,1.1 6.3,1 6.5,1 6.6,0.9 6.7,0.8 6.7,0.7 6.8,0.6 6.8,0.5 6.8,0.5 6.8,0.5 6.8,0.4 6.8,0.3 
				7.2,0.2 7.2,0.2 7.4,0.2 7.5,0.2 8.1,0.2 8.4,0.1 8.7,0 8.7,0.3 8.8,0.4 9.1,0.9 9.3,1.1 9.3,1.1 9.4,1.2 9.3,1.4 9.4,1.5 
				9.5,1.6 9.6,1.6 9.8,1.5 9.9,1.4 10,1.2 10.1,1.1 10.2,1.2 10.2,1.6 10.2,1.7 10.3,1.8 10.5,1.9 10.5,2.1 10.6,2.2 10.7,2.3 
				11.1,2.3 11.3,2.3 11.4,2.2 11.5,2.3 11.6,2.3 11.7,2.3 11.8,2.3 11.8,2.1 11.8,2 11.9,2 11.9,1.9 12.6,1.8 12.7,1.8 12.8,1.8 
				13,1.9 13.1,1.8 13.2,1.8 13.2,1.7 13.3,1.7 13.4,1.6 13.6,1.6 13.8,1.6 13.9,1.5 14.1,1.3 14.3,1.2 14.3,1.2 14.4,1.5 14.4,1.6 
				14.6,1.6 14.9,1.6 15,1.7 15.1,1.8 15.2,1.8 15.4,1.8 15.4,1.8 			"/>
		</g>
	</g>
</g>
</svg>
