<svg xmlns="http://www.w3.org/2000/svg" viewBox="0 0 89.67 75.76"><defs><style>.cls-1{isolation:isolate;}.cls-2{fill:#631818;}.cls-3{fill:#7e1f1f;}.cls-4{fill:#a82929;}.cls-5{fill:#832020;}.cls-6{fill:#641818;}.cls-7{fill:#491212;}.cls-8{fill:#591616;}.cls-9{fill:#a92929;}.cls-10{fill:#751d1d;}.cls-11{fill:#6d1b1b;}.cls-12{fill:#4f1313;}.cls-13{fill:#481212;}.cls-14{fill:#4a1212;}.cls-15{fill:#541414;}.cls-16{fill:#9e2727;}.cls-17{fill:#a62929;}.cls-18{fill:#a52929;}.cls-19{fill:#972525;}.cls-20{fill:#a72929;}.cls-21{fill:#9a2626;}.cls-22{fill:#501414;}.cls-23{fill:#4c1313;}.cls-24{fill:#6c1a1a;}.cls-25{fill:#4e1313;}.cls-26{fill:#5f1717;}.cls-27{fill:#4b1212;}.cls-28{fill:#611818;}.cls-29{fill:#852121;}.cls-30{fill:#661919;}.cls-31{fill:#4d1313;}.cls-32{fill:#621818;}.cls-33{fill:#7b1e1e;}.cls-34{fill:#892222;}.cls-35{fill:#781e1e;}.cls-36{fill:#551515;}.cls-37{fill:#5c1717;}.cls-38{fill:#812020;}.cls-39{fill:#862121;}.cls-40{fill:#6a1a1a;}.cls-41{fill:#962525;}.cls-42{fill:#a32828;}.cls-43{fill:#a22828;}.cls-44{fill:#a12727;}.cls-45{fill:#912323;}.cls-46{fill:#942424;}.cls-47{fill:#902323;}.cls-48{fill:#a02727;}.cls-49{fill:#9f2727;}.cls-50{fill:#a42828;}.cls-51{fill:#801f1f;}.cls-52{fill:#7f1f1f;}.cls-53{fill:#7a1e1e;}.cls-54{fill:#a52828;}.cls-55{fill:#822020;}.cls-56{fill:#6c1b1b;}.cls-57{fill:#9c2626;}.cls-58{fill:#651919;}.cls-59{fill:#922424;}.cls-60{fill:#741c1c;}.cls-61{fill:#992626;}.cls-62{fill:#771d1d;}.cls-63{fill:#a12828;}.cls-64{fill:#521414;}.cls-65{fill:#681919;}.cls-66{fill:#c83131;}</style></defs><title>Cameroon</title><g id="Layer_2" data-name="Layer 2"><g id="Layer_1-2" data-name="Layer 1"><g class="cls-1"><polygon class="cls-2" points="2.22 2.2 2.17 18.5 0 17.67 0.05 1.37 2.22 2.2"/><polygon class="cls-3" points="8.46 2.73 8.41 19.03 7.81 18.95 7.86 2.64 8.46 2.73"/><polygon class="cls-4" points="7.86 2.64 7.81 18.95 7.28 19.13 7.33 2.83 7.86 2.64"/><polygon class="cls-5" points="10.3 2.9 10.26 19.2 8.41 19.03 8.46 2.73 10.3 2.9"/><polygon class="cls-6" points="4.4 3.02 4.36 19.33 2.17 18.5 2.22 2.2 4.4 3.02"/><polygon class="cls-7" points="10.85 3.46 10.8 19.77 10.26 19.2 10.3 2.9 10.85 3.46"/><polygon class="cls-8" points="5.25 3.45 5.21 19.76 4.36 19.33 4.4 3.02 5.25 3.45"/><polygon class="cls-9" points="7.33 2.83 7.28 19.13 5.88 19.9 5.93 3.59 7.33 2.83"/><polygon class="cls-10" points="5.93 3.59 5.88 19.9 5.21 19.76 5.25 3.45 5.93 3.59"/><polygon class="cls-11" points="11.41 3.62 11.36 19.92 10.8 19.77 10.85 3.46 11.41 3.62"/><polygon class="cls-12" points="11.61 3.77 11.56 20.07 11.36 19.92 11.41 3.62 11.61 3.77"/><polygon class="cls-13" points="11.74 3.93 11.7 20.24 11.56 20.07 11.61 3.77 11.74 3.93"/><polygon class="cls-14" points="12.36 4.51 12.31 20.81 11.7 20.24 11.74 3.93 12.36 4.51"/><polygon class="cls-15" points="14.2 5.62 14.15 21.93 12.31 20.81 12.36 4.51 14.2 5.62"/><polygon class="cls-16" points="31.57 7.19 31.53 23.49 30.33 24.65 30.38 8.35 31.57 7.19"/><polygon class="cls-4" points="30.38 8.35 30.33 24.65 29.96 24.87 30.01 8.57 30.38 8.35"/><polygon class="cls-17" points="30.01 8.57 29.96 24.87 28.5 25.31 28.54 9.01 30.01 8.57"/><polygon class="cls-9" points="28.54 9.01 28.5 25.31 28.08 25.53 28.13 9.23 28.54 9.01"/><polygon class="cls-13" points="11.65 9.29 11.6 25.59 11.6 25.29 11.65 8.99 11.65 9.29"/><polygon class="cls-18" points="28.13 9.23 28.08 25.53 27.81 25.73 27.86 9.42 28.13 9.23"/><polygon class="cls-13" points="11.71 9.57 11.67 25.88 11.6 25.59 11.65 9.29 11.71 9.57"/><polygon class="cls-13" points="11.84 9.83 11.79 26.13 11.67 25.88 11.71 9.57 11.84 9.83"/><polygon class="cls-19" points="27.86 9.42 27.81 25.73 27.35 26.28 27.4 9.98 27.86 9.42"/><polygon class="cls-20" points="27.4 9.98 27.35 26.28 26.87 26.45 26.92 10.14 27.4 9.98"/><polygon class="cls-13" points="12.02 10.15 11.97 26.45 11.79 26.13 11.84 9.83 12.02 10.15"/><polygon class="cls-9" points="26.92 10.14 26.87 26.45 26.56 26.62 26.61 10.32 26.92 10.14"/><polygon class="cls-13" points="12.04 10.71 12 27.01 11.97 26.45 12.02 10.15 12.04 10.71"/><polygon class="cls-21" points="26.61 10.32 26.56 26.62 25.99 27.25 26.03 10.95 26.61 10.32"/><polygon class="cls-22" points="12.45 10.98 12.41 27.29 12 27.01 12.04 10.71 12.45 10.98"/><polygon class="cls-9" points="26.03 10.95 25.99 27.25 25.71 27.4 25.75 11.1 26.03 10.95"/><polygon class="cls-20" points="25.75 11.1 25.71 27.4 23.29 28.25 23.34 11.94 25.75 11.1"/><polygon class="cls-13" points="12.96 12.65 12.92 28.95 12.41 27.29 12.45 10.98 12.96 12.65"/><polygon class="cls-20" points="23.34 11.94 23.29 28.25 21.79 29.25 21.84 12.94 23.34 11.94"/><polygon class="cls-13" points="13.17 12.98 13.12 29.28 12.92 28.95 12.96 12.65 13.17 12.98"/><polygon class="cls-7" points="13.77 13.61 13.72 29.91 13.12 29.28 13.17 12.98 13.77 13.61"/><polygon class="cls-23" points="14.81 14.47 14.76 30.77 13.72 29.91 13.77 13.61 14.81 14.47"/><polygon class="cls-24" points="22.26 14.01 22.22 30.31 22.14 30.9 22.19 14.6 22.26 14.01"/><polygon class="cls-25" points="15.51 15 15.46 31.3 14.76 30.77 14.81 14.47 15.51 15"/><polygon class="cls-13" points="15.14 16.47 15.09 32.78 14.85 32.5 14.89 16.2 15.14 16.47"/><polygon class="cls-26" points="15.72 16.72 15.68 33.03 15.09 32.78 15.14 16.47 15.72 16.72"/><polygon class="cls-27" points="16.24 17.17 16.2 33.47 15.68 33.03 15.72 16.72 16.24 17.17"/><polygon class="cls-28" points="17.09 17.52 17.04 33.82 16.2 33.47 16.24 17.17 17.09 17.52"/><polygon class="cls-23" points="17.46 17.83 17.41 34.13 17.04 33.82 17.09 17.52 17.46 17.83"/><polygon class="cls-22" points="17.86 18.1 17.81 34.41 17.41 34.13 17.46 17.83 17.86 18.1"/><polygon class="cls-13" points="18.15 18.48 18.1 34.79 17.81 34.41 17.86 18.1 18.15 18.48"/><polygon class="cls-29" points="47.17 18.81 47.12 35.12 46.9 35.58 46.94 19.28 47.17 18.81"/><polygon class="cls-13" points="17.22 20.05 17.17 36.35 17.13 35.96 17.17 19.66 17.22 20.05"/><polygon class="cls-13" points="17.55 20.47 17.5 36.77 17.17 36.35 17.22 20.05 17.55 20.47"/><polygon class="cls-30" points="17.8 20.55 17.75 36.86 17.5 36.77 17.55 20.47 17.8 20.55"/><polygon class="cls-31" points="18.24 20.89 18.19 37.19 17.75 36.86 17.8 20.55 18.24 20.89"/><polygon class="cls-13" points="18.48 21.38 18.43 37.68 18.19 37.19 18.24 20.89 18.48 21.38"/><polygon class="cls-13" points="18.67 21.64 18.62 37.95 18.43 37.68 18.48 21.38 18.67 21.64"/><polygon class="cls-15" points="18.93 21.8 18.88 38.1 18.62 37.95 18.67 21.64 18.93 21.8"/><polygon class="cls-32" points="19.21 21.91 19.17 38.22 18.88 38.1 18.93 21.8 19.21 21.91"/><polygon class="cls-33" points="48.75 22 48.7 38.3 48.54 38.81 48.58 22.51 48.75 22"/><polygon class="cls-12" points="20.33 22.73 20.29 39.03 19.17 38.22 19.21 21.91 20.33 22.73"/><polygon class="cls-7" points="20.55 22.94 20.5 39.24 20.29 39.03 20.33 22.73 20.55 22.94"/><polygon class="cls-13" points="20.52 23.96 20.48 40.26 20.35 39.94 20.4 23.63 20.52 23.96"/><polygon class="cls-28" points="19.92 25.64 19.88 41.94 19.04 41.59 19.08 25.29 19.92 25.64"/><polygon class="cls-34" points="50.17 25.18 50.13 41.48 49.62 42.4 49.66 26.1 50.17 25.18"/><polygon class="cls-4" points="49.66 26.1 49.62 42.4 49.35 42.56 49.39 26.26 49.66 26.1"/><polygon class="cls-13" points="19.48 26.68 19.44 42.98 19.37 42.77 19.42 26.46 19.48 26.68"/><polygon class="cls-35" points="49.47 26.7 49.42 43.01 49.34 43.26 49.39 26.95 49.47 26.7"/><polygon class="cls-23" points="19.72 26.87 19.67 43.18 19.44 42.98 19.48 26.68 19.72 26.87"/><polygon class="cls-8" points="20.04 27.04 19.99 43.34 19.67 43.18 19.72 26.87 20.04 27.04"/><polygon class="cls-8" points="20.91 27.48 20.86 43.78 19.99 43.34 20.04 27.04 20.91 27.48"/><polygon class="cls-13" points="21.15 27.98 21.1 44.28 20.86 43.78 20.91 27.48 21.15 27.98"/><polygon class="cls-36" points="21.41 28.13 21.36 44.43 21.1 44.28 21.15 27.98 21.41 28.13"/><polygon class="cls-37" points="22.1 28.45 22.05 44.75 21.36 44.43 21.41 28.13 22.1 28.45"/><polygon class="cls-13" points="22.11 28.75 22.07 45.05 22.05 44.75 22.1 28.45 22.11 28.75"/><polygon class="cls-13" points="22.37 29.66 22.32 45.96 22.07 45.05 22.11 28.75 22.37 29.66"/><polygon class="cls-13" points="22.93 30.32 22.89 46.63 22.32 45.96 22.37 29.66 22.93 30.32"/><polygon class="cls-23" points="23.49 30.78 23.45 47.09 22.89 46.63 22.93 30.32 23.49 30.78"/><polygon class="cls-13" points="23.58 31.03 23.54 47.34 23.45 47.09 23.49 30.78 23.58 31.03"/><polygon class="cls-9" points="67.61 32.36 67.57 48.66 67.08 48.9 67.13 32.6 67.61 32.36"/><polygon class="cls-13" points="24.18 32.8 24.13 49.11 23.52 48.26 23.57 31.96 24.18 32.8"/><polygon class="cls-38" points="24.98 32.89 24.93 49.2 24.13 49.11 24.18 32.8 24.98 32.89"/><polygon class="cls-27" points="25.49 33.35 25.45 49.65 24.93 49.2 24.98 32.89 25.49 33.35"/><polygon class="cls-7" points="25.5 35.37 25.45 51.68 25.12 51.35 25.16 35.05 25.5 35.37"/><polygon class="cls-32" points="26.26 35.67 26.21 51.98 25.45 51.68 25.5 35.37 26.26 35.67"/><polygon class="cls-13" points="26.51 36.05 26.46 52.35 26.21 51.98 26.26 35.67 26.51 36.05"/><polygon class="cls-13" points="26.58 36.26 26.53 52.56 26.46 52.35 26.51 36.05 26.58 36.26"/><polygon class="cls-13" points="26.35 36.96 26.3 53.27 26.18 53.08 26.23 36.77 26.35 36.96"/><polygon class="cls-39" points="89.61 37.72 89.57 54.02 88.97 53.98 89.02 37.68 89.61 37.72"/><polygon class="cls-40" points="89.67 37.07 89.63 53.38 89.57 54.02 89.61 37.72 89.67 37.07"/><polygon class="cls-41" points="89.02 37.68 88.97 53.98 85.87 54.23 85.92 37.92 89.02 37.68"/><polygon class="cls-13" points="17.06 38.01 17.01 54.31 16.92 54.15 16.96 37.85 17.06 38.01"/><polygon class="cls-4" points="85.92 37.92 85.87 54.23 84.64 54.68 84.69 38.38 85.92 37.92"/><polygon class="cls-13" points="17.21 38.2 17.17 54.5 17.01 54.31 17.06 38.01 17.21 38.2"/><polygon class="cls-14" points="17.41 38.38 17.36 54.68 17.17 54.5 17.21 38.2 17.41 38.38"/><polygon class="cls-17" points="84.69 38.38 84.64 54.68 83.91 54.92 83.95 38.61 84.69 38.38"/><polygon class="cls-4" points="83.95 38.61 83.91 54.92 83.56 55.05 83.61 38.75 83.95 38.61"/><polygon class="cls-42" points="83.61 38.75 83.56 55.05 83.32 55.24 83.36 38.94 83.61 38.75"/><polygon class="cls-5" points="83.36 38.94 83.32 55.24 83.18 55.55 83.23 39.25 83.36 38.94"/><polygon class="cls-7" points="18.12 39.15 18.08 55.45 17.36 54.68 17.41 38.38 18.12 39.15"/><polygon class="cls-43" points="83.23 39.25 83.18 55.55 81.88 55.84 81.93 39.54 83.23 39.25"/><polygon class="cls-42" points="81.93 39.54 81.88 55.84 80.94 56.08 80.99 39.77 81.93 39.54"/><polygon class="cls-9" points="81.09 39.94 81.05 56.24 79.86 56.76 79.91 40.46 81.09 39.94"/><polygon class="cls-21" points="79.91 40.46 79.86 56.76 79.46 57.2 79.51 40.9 79.91 40.46"/><polygon class="cls-44" points="79.51 40.9 79.46 57.2 78.22 57.47 78.27 41.16 79.51 40.9"/><polygon class="cls-41" points="78.27 41.16 78.22 57.47 76.15 57.63 76.19 41.33 78.27 41.16"/><polygon class="cls-45" points="76.19 41.33 76.15 57.63 75.66 58.33 75.71 42.03 76.19 41.33"/><polygon class="cls-9" points="75.71 42.03 75.66 58.33 74.58 58.77 74.63 42.47 75.71 42.03"/><polygon class="cls-46" points="74.63 42.47 74.58 58.77 74.4 59.01 74.45 42.71 74.63 42.47"/><polygon class="cls-4" points="74.45 42.71 74.4 59.01 73.65 59.45 73.69 43.15 74.45 42.71"/><polygon class="cls-4" points="73.69 43.15 73.65 59.45 72.59 60.06 72.64 43.76 73.69 43.15"/><polygon class="cls-13" points="15.08 43.65 15.03 59.95 13.95 58.64 13.99 42.33 15.08 43.65"/><polygon class="cls-4" points="72.64 43.76 72.59 60.06 71.4 60.74 71.44 44.43 72.64 43.76"/><polygon class="cls-13" points="14.66 44.57 14.62 60.87 14.55 60.37 14.59 44.07 14.66 44.57"/><polygon class="cls-4" points="71.44 44.43 71.4 60.74 70.32 61.36 70.36 45.05 71.44 44.43"/><polygon class="cls-9" points="70.36 45.05 70.32 61.36 70.03 61.51 70.08 45.21 70.36 45.05"/><polygon class="cls-13" points="14.59 45.33 14.55 61.64 14.35 61.3 14.4 44.99 14.59 45.33"/><polygon class="cls-4" points="70.08 45.21 70.03 61.51 69.01 62.1 69.06 45.8 70.08 45.21"/><polygon class="cls-13" points="14.44 46.2 14.39 62.5 14.18 62.16 14.23 45.86 14.44 46.2"/><polygon class="cls-4" points="69.06 45.8 69.01 62.1 67.86 62.75 67.91 46.45 69.06 45.8"/><polygon class="cls-13" points="14.51 46.43 14.46 62.73 14.39 62.5 14.44 46.2 14.51 46.43"/><polygon class="cls-19" points="67.91 46.45 67.86 62.75 65.97 62.9 66.02 46.6 67.91 46.45"/><polygon class="cls-47" points="66.02 46.6 65.97 62.9 65.63 63.41 65.68 47.11 66.02 46.6"/><polygon class="cls-9" points="65.68 47.11 65.63 63.41 64.74 63.78 64.78 47.48 65.68 47.11"/><polygon class="cls-13" points="14.36 48.11 14.31 64.41 14.29 63.69 14.34 47.38 14.36 48.11"/><polygon class="cls-4" points="64.78 47.48 64.74 63.78 62.73 65 62.78 48.7 64.78 47.48"/><polygon class="cls-20" points="62.78 48.7 62.73 65 61.58 65.38 61.63 49.07 62.78 48.7"/><polygon class="cls-9" points="61.63 49.07 61.58 65.38 61.31 65.51 61.35 49.21 61.63 49.07"/><polygon class="cls-48" points="61.35 49.21 61.31 65.51 61.02 65.78 61.07 49.47 61.35 49.21"/><polygon class="cls-44" points="61.07 49.47 61.02 65.78 60.52 65.88 60.57 49.58 61.07 49.47"/><polygon class="cls-49" points="60.57 49.58 60.52 65.88 59.97 66.41 60.01 50.11 60.57 49.58"/><polygon class="cls-4" points="60.01 50.11 59.97 66.41 59.56 66.66 59.61 50.36 60.01 50.11"/><polygon class="cls-9" points="59.61 50.36 59.56 66.66 59.25 66.79 59.3 50.49 59.61 50.36"/><polygon class="cls-20" points="59.3 50.49 59.25 66.79 58.76 67.1 58.81 50.8 59.3 50.49"/><polygon class="cls-9" points="58.81 50.8 58.76 67.1 58.24 67.37 58.28 51.07 58.81 50.8"/><polygon class="cls-12" points="16.93 51.13 16.88 67.43 14.14 65.48 14.18 49.17 16.93 51.13"/><polygon class="cls-17" points="58.28 51.07 58.24 67.37 57.77 67.69 57.82 51.39 58.28 51.07"/><polygon class="cls-9" points="57.82 51.39 57.77 67.69 57.18 68.02 57.22 51.71 57.82 51.39"/><polygon class="cls-31" points="17.57 51.63 17.53 67.94 16.88 67.43 16.93 51.13 17.57 51.63"/><polygon class="cls-50" points="57.22 51.71 57.18 68.02 56.98 68.17 57.03 51.87 57.22 51.71"/><polygon class="cls-20" points="57.03 51.87 56.98 68.17 56.41 68.36 56.46 52.05 57.03 51.87"/><polygon class="cls-13" points="18.2 52.59 18.16 68.89 17.53 67.94 17.57 51.63 18.2 52.59"/><polygon class="cls-13" points="18.31 52.85 18.27 69.16 18.16 68.89 18.2 52.59 18.31 52.85"/><polygon class="cls-13" points="31.9 53.71 31.85 70.01 31.37 69.09 31.42 52.78 31.9 53.71"/><polygon class="cls-51" points="31.52 52.61 31.47 68.92 31.21 69.55 31.26 53.24 31.52 52.61"/><polygon class="cls-4" points="56.46 52.05 56.41 68.36 54.09 69.69 54.14 53.39 56.46 52.05"/><polygon class="cls-13" points="18.62 53.33 18.58 69.63 18.27 69.16 18.31 52.85 18.62 53.33"/><polygon class="cls-52" points="32.8 53.69 32.76 69.99 32.08 69.9 32.12 53.6 32.8 53.69"/><polygon class="cls-9" points="32.12 53.6 32.08 69.9 31.85 70.01 31.9 53.71 32.12 53.6"/><polygon class="cls-53" points="33.15 53.74 33.1 70.05 32.76 69.99 32.8 53.69 33.15 53.74"/><polygon class="cls-13" points="18.85 53.81 18.8 70.11 18.58 69.63 18.62 53.33 18.85 53.81"/><polygon class="cls-9" points="31.26 53.24 31.21 69.55 29.72 70.19 29.77 53.89 31.26 53.24"/><polygon class="cls-17" points="23.32 54.19 23.28 70.49 23.2 70.54 23.25 54.24 23.32 54.19"/><polygon class="cls-34" points="23.25 54.24 23.2 70.54 22.54 70.51 22.59 54.21 23.25 54.24"/><polygon class="cls-13" points="34.95 54.43 34.91 70.73 34.89 70.59 34.94 54.29 34.95 54.43"/><polygon class="cls-20" points="22.59 54.21 22.54 70.51 21.96 70.7 22.01 54.4 22.59 54.21"/><polygon class="cls-13" points="32.99 54.44 32.95 70.75 32.7 70.31 32.74 54 32.99 54.44"/><polygon class="cls-54" points="33.37 54.34 33.32 70.64 32.95 70.75 32.99 54.44 33.37 54.34"/><polygon class="cls-13" points="19.32 54.55 19.28 70.86 18.8 70.11 18.85 53.81 19.32 54.55"/><polygon class="cls-26" points="20.45 54.56 20.4 70.86 20.1 70.73 20.15 54.43 20.45 54.56"/><polygon class="cls-13" points="23.57 54.57 23.53 70.87 23.28 70.49 23.32 54.19 23.57 54.57"/><polygon class="cls-14" points="32.59 54.63 32.54 70.94 32.41 70.82 32.46 54.52 32.59 54.63"/><polygon class="cls-54" points="22.01 54.4 21.96 70.7 21.13 70.93 21.18 54.63 22.01 54.4"/><polygon class="cls-55" points="21.18 54.63 21.13 70.93 20.4 70.86 20.45 54.56 21.18 54.63"/><polygon class="cls-5" points="33.33 54.7 33.28 71.01 32.54 70.94 32.59 54.63 33.33 54.7"/><polygon class="cls-13" points="29.35 54.74 29.3 71.04 29.27 70.88 29.31 54.57 29.35 54.74"/><polygon class="cls-4" points="30.7 54.72 30.65 71.02 30.22 71.18 30.27 54.88 30.7 54.72"/><polygon class="cls-25" points="29.56 54.9 29.51 71.2 29.3 71.04 29.35 54.74 29.56 54.9"/><polygon class="cls-12" points="19.85 54.92 19.81 71.23 19.28 70.86 19.32 54.55 19.85 54.92"/><polygon class="cls-56" points="29.86 54.99 29.82 71.29 29.51 71.2 29.56 54.9 29.86 54.99"/><polygon class="cls-50" points="30.27 54.88 30.22 71.18 29.82 71.29 29.86 54.99 30.27 54.88"/><polygon class="cls-57" points="34.94 54.29 34.89 70.59 34.19 71.33 34.24 55.03 34.94 54.29"/><polygon class="cls-58" points="34.24 55.03 34.19 71.33 33.28 71.01 33.33 54.7 34.24 55.03"/><polygon class="cls-28" points="24.68 55.02 24.63 71.32 23.53 70.87 23.57 54.57 24.68 55.02"/><polygon class="cls-46" points="36.22 55.08 36.18 71.38 35.66 71.41 35.71 55.1 36.22 55.08"/><polygon class="cls-59" points="54.14 53.39 54.09 69.69 52.8 71.47 52.85 55.16 54.14 53.39"/><polygon class="cls-11" points="29.31 54.57 29.27 70.88 29.2 71.42 29.24 55.11 29.31 54.57"/><polygon class="cls-60" points="25.05 55.1 25 71.41 24.63 71.32 24.68 55.02 25.05 55.1"/><polygon class="cls-39" points="37.33 55.15 37.28 71.46 36.18 71.38 36.22 55.08 37.33 55.15"/><polygon class="cls-5" points="25.43 55.14 25.38 71.44 25 71.41 25.05 55.1 25.43 55.14"/><polygon class="cls-61" points="35.71 55.1 35.66 71.41 34.58 71.53 34.63 55.22 35.71 55.1"/><polygon class="cls-62" points="26 55.25 25.96 71.55 25.38 71.44 25.43 55.14 26 55.25"/><polygon class="cls-33" points="38.53 55.34 38.48 71.65 37.28 71.46 37.33 55.15 38.53 55.34"/><polygon class="cls-27" points="20.29 55.29 20.24 71.6 19.81 71.23 19.85 54.92 20.29 55.29"/><polygon class="cls-48" points="29.24 55.11 29.2 71.42 27.4 71.76 27.45 55.46 29.24 55.11"/><polygon class="cls-63" points="27.45 55.46 27.4 71.76 26.56 71.94 26.6 55.64 27.45 55.46"/><polygon class="cls-64" points="26.6 55.64 26.56 71.94 25.96 71.55 26 55.25 26.6 55.64"/><polygon class="cls-2" points="21.26 55.67 21.22 71.98 20.24 71.6 20.29 55.29 21.26 55.67"/><polygon class="cls-3" points="21.53 54.99 21.48 71.29 21.22 71.98 21.26 55.67 21.53 54.99"/><polygon class="cls-65" points="39.74 55.75 39.7 72.06 38.48 71.65 38.53 55.34 39.74 55.75"/><polygon class="cls-7" points="40.04 56.04 39.99 72.34 39.7 72.06 39.74 55.75 40.04 56.04"/><polygon class="cls-13" points="40.07 56.22 40.02 72.52 39.99 72.34 40.04 56.04 40.07 56.22"/><polygon class="cls-4" points="52.85 55.16 52.8 71.47 50.83 72.62 50.87 56.31 52.85 55.16"/><polygon class="cls-13" points="40.14 56.4 40.09 72.7 40.02 72.52 40.07 56.22 40.14 56.4"/><polygon class="cls-13" points="40.31 56.62 40.26 72.92 40.09 72.7 40.14 56.4 40.31 56.62"/><polygon class="cls-14" points="40.54 56.83 40.49 73.13 40.26 72.92 40.31 56.62 40.54 56.83"/><polygon class="cls-64" points="41.44 57.41 41.39 73.71 40.49 73.13 40.54 56.83 41.44 57.41"/><polygon class="cls-4" points="50.87 56.31 50.83 72.62 48.75 73.82 48.8 57.52 50.87 56.31"/><polygon class="cls-13" points="41.6 57.63 41.55 73.94 41.39 73.71 41.44 57.41 41.6 57.63"/><polygon class="cls-14" points="42.29 58.26 42.25 74.56 41.55 73.94 41.6 57.63 42.29 58.26"/><polygon class="cls-4" points="48.8 57.52 48.75 73.82 47.31 74.67 47.35 58.37 48.8 57.52"/><polygon class="cls-4" points="47.35 58.37 47.31 74.67 46.87 74.92 46.92 58.62 47.35 58.37"/><polygon class="cls-4" points="46.92 58.62 46.87 74.92 45.99 75.44 46.03 59.13 46.92 58.62"/><polygon class="cls-42" points="46.03 59.13 45.99 75.44 45.2 75.62 45.24 59.32 46.03 59.13"/><polygon class="cls-66" points="84.83 34.64 86.72 35.36 87.44 36.5 87.98 36.54 88.79 36.74 89.67 37.07 89.61 37.72 89.02 37.68 85.92 37.92 84.69 38.38 83.95 38.61 83.61 38.75 83.36 38.94 83.23 39.25 81.93 39.54 80.99 39.77 81.09 39.94 79.91 40.46 79.51 40.9 78.27 41.16 76.19 41.33 75.71 42.03 74.63 42.47 74.45 42.71 73.69 43.15 72.64 43.76 71.44 44.43 70.36 45.05 70.08 45.21 69.06 45.8 67.91 46.45 66.02 46.6 65.68 47.11 64.78 47.48 62.78 48.7 61.63 49.07 61.35 49.21 61.07 49.47 60.57 49.58 60.01 50.11 59.61 50.36 59.3 50.49 58.81 50.8 58.28 51.07 57.82 51.39 57.22 51.71 57.03 51.87 56.46 52.05 54.14 53.39 52.85 55.16 50.87 56.31 48.8 57.52 47.35 58.37 46.92 58.62 46.03 59.13 45.24 59.32 44.37 59.46 42.29 58.26 41.6 57.63 41.44 57.41 40.54 56.83 40.31 56.62 40.14 56.4 40.07 56.22 40.04 56.04 39.74 55.75 38.53 55.34 37.33 55.15 36.22 55.08 35.71 55.1 34.63 55.22 34.95 54.43 34.94 54.29 34.24 55.03 33.33 54.7 32.59 54.63 32.46 54.52 33.37 54.34 32.99 54.44 32.74 54 33.15 53.74 32.8 53.69 32.12 53.6 31.9 53.71 31.42 52.78 31.52 52.61 31.26 53.24 29.77 53.89 30.35 54.23 30.7 54.72 30.27 54.88 29.86 54.99 29.56 54.9 29.35 54.74 29.31 54.57 29.24 55.11 27.45 55.46 26.6 55.64 26 55.25 25.43 55.14 25.05 55.1 24.68 55.02 23.57 54.57 23.32 54.19 23.25 54.24 22.59 54.21 22.01 54.4 21.18 54.63 20.45 54.56 20.15 54.43 20.74 54.73 21.53 54.99 21.26 55.67 20.29 55.29 19.85 54.92 19.32 54.55 18.85 53.81 18.62 53.33 18.31 52.85 18.2 52.59 17.57 51.63 16.93 51.13 14.18 49.17 14.36 48.11 14.34 47.38 14.51 46.43 14.44 46.2 14.23 45.86 14.59 45.33 14.4 44.99 14.48 44.81 14.66 44.57 14.59 44.07 15.08 43.65 13.99 42.33 14.83 40.13 15.76 40.21 18.12 39.15 17.41 38.38 17.21 38.2 17.06 38.01 16.96 37.85 17.61 38.03 18.76 37.83 19.51 37.63 19.88 37.59 20.25 37.68 20.61 37.82 21.04 37.91 21.46 37.91 22.19 37.61 22.59 37.59 22.98 37.67 23.33 37.84 23.58 38 23.86 38.14 24.49 38.37 24.93 38.48 25.71 38.12 26.35 36.96 26.23 36.77 26.26 36.59 26.5 36.43 26.58 36.26 26.51 36.05 26.26 35.67 25.5 35.37 25.16 35.05 25.19 34.59 25.33 34.23 25.49 33.35 24.98 32.89 24.18 32.8 23.57 31.96 23.57 31.51 23.58 31.03 23.49 30.78 22.93 30.32 22.37 29.66 22.11 28.75 22.1 28.45 21.41 28.13 21.15 27.98 20.91 27.48 20.04 27.04 19.72 26.87 19.48 26.68 19.42 26.46 19.8 26.22 19.92 25.64 19.08 25.29 20.01 24.68 20.52 23.96 20.4 23.63 20.55 22.94 20.33 22.73 19.21 21.91 18.93 21.8 18.67 21.64 18.48 21.38 18.24 20.89 17.8 20.55 17.55 20.47 17.22 20.05 17.17 19.66 17.45 19.18 17.89 18.83 18.15 18.48 17.86 18.1 17.46 17.83 17.09 17.52 16.24 17.17 15.72 16.72 15.14 16.47 14.89 16.2 15.03 16.02 15.49 15.69 15.51 15 14.81 14.47 13.77 13.61 13.17 12.98 12.96 12.65 12.45 10.98 12.04 10.71 12.02 10.15 11.84 9.83 11.71 9.57 11.65 9.29 11.65 8.99 11.7 8.72 12.23 8.5 12.9 8.35 13.25 7.71 13.52 6.83 13.85 6.41 13.93 6.02 14.2 5.62 12.36 4.51 11.74 3.93 11.61 3.77 11.41 3.62 10.85 3.46 10.3 2.9 8.46 2.73 7.86 2.64 7.33 2.83 5.93 3.59 5.25 3.45 4.4 3.02 2.22 2.2 0.05 1.37 2.36 0 3.32 0.07 4.17 0.48 4.77 0.52 5.27 0.67 6.61 0.34 7.04 0.52 8.01 0.19 9.28 0.58 10.72 1.07 11.23 1.39 12.2 1.76 12.52 1.78 15.74 2.41 16.7 3.16 17.31 3.22 17.6 3.3 17.7 3.46 17.73 3.83 18.19 4.26 18.76 4.75 19.2 5.1 19.94 5.47 20.56 5.77 21.17 5.92 21.84 6.3 22.12 6.44 23.6 6.72 25.69 7.17 28.67 7.37 29.27 7.42 30.02 7.4 30.72 7.3 31.03 7.21 31.57 7.19 30.38 8.35 30.01 8.57 28.54 9.01 28.13 9.23 27.86 9.42 27.4 9.98 26.92 10.14 26.61 10.32 26.03 10.95 25.75 11.1 23.34 11.94 21.84 12.94 22.19 13.73 22.26 14.01 22.19 14.6 22.37 15.17 23.53 15.15 27.6 15.31 27.95 15.44 28.29 15.49 30.95 15.33 33.6 15.16 34.56 14.9 35.99 14.91 37.43 14.94 38.19 14.93 38.98 15.06 41.78 15.65 43.62 16.25 44.39 16.43 44.94 16.38 45.34 16.21 46.19 16.54 46.5 16.82 46.69 17.13 46.77 17.49 46.94 18.07 47.17 18.81 46.94 19.28 47.1 19.8 47.68 20.25 48.06 21.05 48.42 21.52 48.55 21.76 48.75 22 48.58 22.51 49.61 24.3 49.67 24.52 50.17 25.18 49.66 26.1 49.39 26.26 49.47 26.7 49.39 26.95 51.25 27.37 51.41 27.13 52.85 27.57 53.36 27.97 53.54 28.21 54.56 28.61 54.7 28.83 56.2 29.66 57.54 29.98 57.83 30.11 58.02 30.28 59.64 30.89 60.61 31.44 61.02 31.57 61.47 31.63 61.94 31.63 63.71 31.43 64.1 31.32 65.2 31.45 65.48 31.5 66.19 31.76 66.58 31.97 67.61 32.36 67.13 32.6 68.32 32.98 69.74 33.13 70.84 33.15 71.9 33.16 73.05 33.18 74.47 33.2 75.82 33.22 77.09 33.24 78.11 33.26 78.89 32.84 80.12 32.99 81.01 32.87 81.33 32.93 82.06 33.43 82.46 33.67 83.57 33.93 83.95 34.28 84.83 34.64"/><polygon class="cls-16" points="45.24 59.32 45.2 75.62 44.32 75.76 44.37 59.46 45.24 59.32"/><polygon class="cls-36" points="44.37 59.46 44.32 75.76 42.25 74.56 42.29 58.26 44.37 59.46"/></g></g></g></svg>