<?xml version="1.0" encoding="utf-8"?>
<!-- Generator: Adobe Illustrator 22.1.0, SVG Export Plug-In . SVG Version: 6.00 Build 0)  -->
<svg version="1.1" id="Layer_1" xmlns="http://www.w3.org/2000/svg" xmlns:xlink="http://www.w3.org/1999/xlink" x="0px" y="0px"
	 viewBox="0 0 4.8 4.5" style="enable-background:new 0 0 4.8 4.5;" xml:space="preserve">
<style type="text/css">
	.st0{fill:#651919;}
	.st1{fill:#481212;}
	.st2{fill:#982525;}
	.st3{fill:#4C1313;}
	.st4{fill:#9B2626;}
	.st5{fill:#7B1E1E;}
	.st6{fill:#8A2222;}
	.st7{fill:#A32828;}
	.st8{fill:#952525;}
	.st9{fill:#4A1212;}
	.st10{fill:#551515;}
	.st11{fill:#7D1F1F;}
	.st12{fill:#A82929;}
	.st13{fill:#A72929;}
	.st14{fill:#872121;}
	.st15{fill:#6B1A1A;}
	.st16{fill:#A02727;}
	.st17{fill:#842020;}
	.st18{fill:#711C1C;}
	.st19{fill:#4F1313;}
	.st20{fill:#491212;}
	.st21{fill:#A12727;}
	.st22{fill:#701B1B;}
	.st23{fill:#912424;}
	.st24{fill:#C83131;}
	.st25{fill:#6E1B1B;}
	.st26{fill:#7E1F1F;}
	.st27{fill:#9D2626;}
	.st28{fill:#4D1313;}
	.st29{fill:#7F1F1F;}
	.st30{fill:#811F1F;}
	.st31{fill:#6F1B1B;}
	.st32{fill:#852020;}
	.st33{fill:#912323;}
	.st34{fill:#771D1D;}
	.st35{fill:#791E1E;}
	.st36{fill:#A52828;}
	.st37{fill:#A92929;}
	.st38{fill:#5B1616;}
</style>
<title>Cape Verde</title>
<g id="Layer_2_1_">
	<g id="Layer_1-2">
		<g>
			<polygon class="st0" points="3.9,1.3 3.9,2.6 3.8,2.8 3.9,1.5 			"/>
			<polygon class="st1" points="1.7,1.9 1.6,3.2 1.6,2.9 1.7,1.6 			"/>
			<polygon class="st2" points="4,1.9 4,3.2 4,3.2 4,1.9 			"/>
			<polygon class="st1" points="1.7,1.9 1.7,3.2 1.6,3.2 1.7,1.9 			"/>
			<polygon class="st3" points="1.7,1.9 1.7,3.2 1.7,3.2 1.7,1.9 			"/>
			<polygon class="st4" points="4,1.9 4,3.2 3.9,3.2 4,1.9 			"/>
			<polygon class="st1" points="1.8,2 1.7,3.3 1.7,3.2 1.7,1.9 			"/>
			<polygon class="st5" points="4,1.9 3.9,3.2 3.9,3.3 4,2 			"/>
			<polygon class="st6" points="4.1,2 4.1,3.3 4,3.4 4.1,2.1 			"/>
			<polygon class="st7" points="4.1,2.1 4,3.4 4,3.4 4,2.1 			"/>
			<polygon class="st1" points="1.8,2.1 1.7,3.4 1.7,3.3 1.8,2 			"/>
			<polygon class="st8" points="4,2.1 4,3.4 3.9,3.5 4,2.2 			"/>
			<polygon class="st9" points="1.8,2.2 1.8,3.5 1.7,3.4 1.8,2.1 			"/>
			<polygon class="st10" points="2,2.3 1.9,3.6 1.8,3.5 1.8,2.2 			"/>
			<polygon class="st9" points="2,2.3 2,3.6 1.9,3.6 2,2.3 			"/>
			<polygon class="st1" points="2,2.3 2,3.6 2,3.6 2,2.3 			"/>
			<polygon class="st11" points="2.1,2.4 2.1,3.7 2,3.6 2,2.3 			"/>
			<polygon class="st12" points="4,2.3 4,3.6 3.7,3.7 3.8,2.4 			"/>
			<polygon class="st13" points="3.8,2.4 3.7,3.7 3.7,3.7 3.8,2.4 			"/>
			<polygon class="st14" points="3.3,2.7 3.2,4 3.2,4 3.2,2.7 			"/>
			<polygon class="st15" points="3.1,2.7 3.1,4 2.1,3.7 2.1,2.4 			"/>
			<polygon class="st16" points="3.2,2.7 3.2,4 3.1,4 3.2,2.7 			"/>
			<polygon class="st17" points="3.2,2.7 3.1,4 3.1,4 3.1,2.7 			"/>
			<polygon class="st18" points="3.4,2.7 3.3,4 3.2,4 3.3,2.7 			"/>
			<polygon class="st6" points="4,2.7 3.9,4 3.7,4 3.8,2.7 			"/>
			<polygon class="st19" points="3.4,2.7 3.4,4 3.3,4 3.4,2.7 			"/>
			<polygon class="st20" points="3.5,2.8 3.4,4.1 3.4,4 3.4,2.7 			"/>
			<polygon class="st1" points="3.5,2.8 3.4,4.1 3.4,4.1 3.5,2.8 			"/>
			<polygon class="st21" points="3.8,2.8 3.8,4.1 3.7,4.2 3.8,2.8 			"/>
			<polygon class="st22" points="3.6,2.9 3.6,4.2 3.4,4.1 3.5,2.8 			"/>
			<polygon class="st23" points="3.8,2.8 3.7,4.2 3.6,4.2 3.6,2.9 			"/>
			<polygon class="st24" points="3.8,2.8 3.8,2.8 3.6,2.9 3.5,2.8 3.5,2.8 3.4,2.7 3.4,2.7 3.3,2.7 3.2,2.7 3.2,2.7 3.1,2.7 
				2.1,2.4 2,2.3 2,2.3 2,2.3 1.8,2.2 1.8,2.1 1.8,2 1.7,1.9 1.7,1.9 1.7,1.9 1.7,1.6 1.7,1.5 1.9,1.4 1.9,1.1 2,0.9 2.3,0.8 
				2.5,0.8 2.8,0.8 3.1,0.8 3.4,0.9 3.6,1 3.7,1 3.8,1.1 3.9,1.2 3.9,1.3 3.9,1.5 3.9,1.6 4,1.9 4,1.9 4,1.9 4,2 4.1,2 4.1,2.1 
				4,2.1 4,2.2 4,2.3 4,2.3 3.8,2.4 3.8,2.4 3.9,2.6 4,2.7 3.8,2.7 			"/>
		</g>
		<g>
			<polygon class="st25" points="0.7,0 0.6,1.3 0.6,1.4 0.7,0.1 			"/>
			<polygon class="st23" points="0.7,0.1 0.6,1.4 0.6,1.5 0.6,0.1 			"/>
			<polygon class="st26" points="0.6,0.1 0.6,1.5 0.6,1.5 0.6,0.2 			"/>
			<polygon class="st4" points="1,0.2 0.9,1.5 0.9,1.6 0.9,0.3 			"/>
			<polygon class="st27" points="0.9,0.3 0.9,1.6 0.8,1.6 0.9,0.3 			"/>
			<polygon class="st1" points="0.1,0.4 0,1.7 0,1.6 0.1,0.3 			"/>
			<polygon class="st20" points="0.2,0.5 0.1,1.8 0,1.7 0.1,0.4 			"/>
			<polygon class="st10" points="0.2,0.5 0.2,1.8 0.1,1.8 0.2,0.5 			"/>
			<polygon class="st28" points="0.3,0.6 0.3,1.9 0.2,1.8 0.2,0.5 			"/>
			<polygon class="st29" points="1.2,0.6 1.1,1.9 1.1,2 1.1,0.7 			"/>
			<polygon class="st1" points="0.3,0.7 0.3,2 0.3,1.9 0.3,0.6 			"/>
			<polygon class="st7" points="1.1,0.7 1.1,2 1,2 1.1,0.7 			"/>
			<polygon class="st30" points="1.1,0.8 1.1,2.1 1,2.1 1.1,0.8 			"/>
			<polygon class="st31" points="1.2,0.8 1.1,2.1 1.1,2.1 1.1,0.8 			"/>
			<polygon class="st32" points="1.2,0.8 1.2,2.1 1.1,2.1 1.2,0.8 			"/>
			<polygon class="st33" points="1.1,0.8 1,2.1 1,2.1 1,0.8 			"/>
			<polygon class="st10" points="0.3,0.9 0.3,2.2 0.2,2.1 0.2,0.8 			"/>
			<polygon class="st34" points="1,0.8 1,2.1 1,2.2 1,0.9 			"/>
			<polygon class="st35" points="1,0.9 1,2.2 0.8,2.2 0.9,0.9 			"/>
			<polygon class="st36" points="0.9,0.9 0.8,2.2 0.7,2.2 0.8,0.9 			"/>
			<polygon class="st37" points="0.8,0.9 0.7,2.2 0.6,2.2 0.6,0.9 			"/>
			<polygon class="st7" points="0.6,0.9 0.6,2.2 0.5,2.3 0.5,1 			"/>
			<polygon class="st38" points="0.5,1 0.5,2.3 0.3,2.2 0.3,0.9 			"/>
			<polygon class="st24" points="1.1,0.8 1.2,0.8 1.2,0.8 1.2,0.8 1.1,0.8 1.1,0.8 1,0.8 1,0.9 0.9,0.9 0.8,0.9 0.6,0.9 0.5,1 
				0.3,0.9 0.2,0.8 0.3,0.8 0.3,0.7 0.3,0.6 0.2,0.5 0.2,0.5 0.1,0.4 0.1,0.3 0.1,0.2 0.3,0.1 0.5,0 0.6,0 0.7,0 0.7,0.1 0.6,0.1 
				0.6,0.2 0.6,0.3 0.8,0.2 0.9,0.2 1,0.2 0.9,0.3 0.9,0.3 0.9,0.4 1,0.5 1.1,0.6 1.2,0.6 1.1,0.7 1.1,0.7 			"/>
		</g>
	</g>
</g>
</svg>
