<svg xmlns="http://www.w3.org/2000/svg" viewBox="0 0 95.28 75.32"><defs><style>.cls-1{isolation:isolate;}.cls-2{fill:#a42828;}.cls-3{fill:#a92929;}.cls-4{fill:#9b2626;}.cls-5{fill:#872121;}.cls-6{fill:#6f1b1b;}.cls-7{fill:#7c1e1e;}.cls-8{fill:#6c1a1a;}.cls-9{fill:#a72929;}.cls-10{fill:#481212;}.cls-11{fill:#a02727;}.cls-12{fill:#972525;}.cls-13{fill:#9e2727;}.cls-14{fill:#8d2323;}.cls-15{fill:#a62929;}.cls-16{fill:#a82929;}.cls-17{fill:#771d1d;}.cls-18{fill:#982525;}.cls-19{fill:#992525;}.cls-20{fill:#a12727;}.cls-21{fill:#8b2222;}.cls-22{fill:#9f2727;}.cls-23{fill:#791e1e;}.cls-24{fill:#a32828;}.cls-25{fill:#912424;}.cls-26{fill:#6e1b1b;}.cls-27{fill:#a52828;}.cls-28{fill:#541515;}.cls-29{fill:#a12828;}.cls-30{fill:#8f2323;}.cls-31{fill:#7e1f1f;}.cls-32{fill:#a22828;}.cls-33{fill:#962525;}.cls-34{fill:#721c1c;}.cls-35{fill:#952525;}.cls-36{fill:#801f1f;}.cls-37{fill:#812020;}.cls-38{fill:#4c1313;}.cls-39{fill:#661919;}.cls-40{fill:#781d1d;}.cls-41{fill:#671919;}.cls-42{fill:#7f1f1f;}.cls-43{fill:#7b1e1e;}.cls-44{fill:#4a1212;}.cls-45{fill:#9c2626;}.cls-46{fill:#922424;}.cls-47{fill:#a52929;}.cls-48{fill:#932424;}.cls-49{fill:#581616;}.cls-50{fill:#4e1313;}.cls-51{fill:#5e1717;}.cls-52{fill:#5f1717;}.cls-53{fill:#591616;}.cls-54{fill:#902323;}.cls-55{fill:#5b1616;}.cls-56{fill:#7d1f1f;}.cls-57{fill:#691a1a;}.cls-58{fill:#992626;}.cls-59{fill:#8e2323;}.cls-60{fill:#601818;}.cls-61{fill:#711c1c;}.cls-62{fill:#822020;}.cls-63{fill:#8c2222;}.cls-64{fill:#8d2222;}.cls-65{fill:#581515;}.cls-66{fill:#621818;}.cls-67{fill:#c83131;}.cls-68{fill:#701c1c;}</style></defs><title>Central African Rep</title><g id="Layer_2" data-name="Layer 2"><g id="Layer_1-2" data-name="Layer 1"><g class="cls-1"><polygon class="cls-2" points="95.28 4.95 95.23 21.25 92.75 21.91 92.8 5.61 95.28 4.95"/><polygon class="cls-2" points="92.8 5.61 92.75 21.91 92.37 22.01 92.42 5.71 92.8 5.61"/><polygon class="cls-3" points="92.42 5.71 92.37 22.01 92.07 22.16 92.11 5.86 92.42 5.71"/><polygon class="cls-4" points="92.11 5.86 92.07 22.16 91.85 22.39 91.9 6.09 92.11 5.86"/><polygon class="cls-5" points="91.9 6.09 91.85 22.39 91.75 22.6 91.79 6.3 91.9 6.09"/><polygon class="cls-6" points="22.13 6.24 22.09 22.54 20.98 22.25 21.02 5.95 22.13 6.24"/><polygon class="cls-7" points="91.79 6.3 91.75 22.6 91.68 22.8 91.72 6.5 91.79 6.3"/><polygon class="cls-8" points="91.72 6.5 91.68 22.8 91.65 23 91.7 6.69 91.72 6.5"/><polygon class="cls-9" points="91.72 6.93 91.67 23.24 90.77 23.81 90.81 7.5 91.72 6.93"/><polygon class="cls-3" points="90.81 7.5 90.77 23.81 90.27 24.05 90.32 7.75 90.81 7.5"/><polygon class="cls-10" points="22.04 8.22 21.99 24.52 21.93 24.28 21.98 7.97 22.04 8.22"/><polygon class="cls-3" points="90.32 7.75 90.27 24.05 88.55 24.97 88.59 8.67 90.32 7.75"/><polygon class="cls-10" points="22.49 8.88 22.45 25.18 21.99 24.52 22.04 8.22 22.49 8.88"/><polygon class="cls-10" points="22.58 9.14 22.54 25.44 22.45 25.18 22.49 8.88 22.58 9.14"/><polygon class="cls-10" points="22.58 9.39 22.54 25.69 22.54 25.44 22.58 9.14 22.58 9.39"/><polygon class="cls-10" points="21.94 10.45 21.89 26.75 21.75 26.13 21.8 9.83 21.94 10.45"/><polygon class="cls-9" points="88.59 8.67 88.55 24.97 82.45 27.1 82.5 10.79 88.59 8.67"/><polygon class="cls-3" points="82.5 10.79 82.45 27.1 80.41 27.98 80.45 11.68 82.5 10.79"/><polygon class="cls-10" points="22.41 12.82 22.37 29.13 21.82 27.21 21.87 10.91 22.41 12.82"/><polygon class="cls-11" points="81.24 13.56 81.19 29.87 80.75 30.26 80.8 13.96 81.24 13.56"/><polygon class="cls-12" points="80.8 13.96 80.75 30.26 80.22 30.9 80.27 14.6 80.8 13.96"/><polygon class="cls-13" points="80.27 14.6 80.22 30.9 79.88 30.96 79.93 14.66 80.27 14.6"/><polygon class="cls-9" points="79.93 14.66 79.88 30.96 79.56 31.07 79.61 14.76 79.93 14.66"/><polygon class="cls-8" points="22.42 14.7 22.38 31.01 22.01 30.9 22.06 14.6 22.42 14.7"/><polygon class="cls-14" points="79.61 14.76 79.56 31.07 79.21 31.63 79.26 15.33 79.61 14.76"/><polygon class="cls-15" points="79.26 15.33 79.21 31.63 77.99 32.49 78.03 16.19 79.26 15.33"/><polygon class="cls-16" points="78.03 16.19 77.99 32.49 75.03 33.6 75.08 17.3 78.03 16.19"/><polygon class="cls-17" points="75.08 17.3 75.03 33.6 74.78 34.49 74.83 18.18 75.08 17.3"/><polygon class="cls-13" points="74.83 18.18 74.78 34.49 73.96 35.29 74.01 18.99 74.83 18.18"/><polygon class="cls-18" points="74.01 18.99 73.96 35.29 73.46 35.88 73.51 19.57 74.01 18.99"/><polygon class="cls-19" points="73.51 19.57 73.46 35.88 72.92 36.5 72.96 20.19 73.51 19.57"/><polygon class="cls-20" points="72.96 20.19 72.92 36.5 72.56 36.81 72.61 20.5 72.96 20.19"/><polygon class="cls-21" points="72.61 20.5 72.56 36.81 72.37 37.14 72.41 20.84 72.61 20.5"/><polygon class="cls-22" points="72.41 20.84 72.37 37.14 72.13 37.36 72.18 21.05 72.41 20.84"/><polygon class="cls-23" points="72.18 21.05 72.13 37.36 71.97 37.9 72.02 21.59 72.18 21.05"/><polygon class="cls-3" points="72.02 21.59 71.97 37.9 69.52 38.95 69.56 22.64 72.02 21.59"/><polygon class="cls-24" points="69.56 22.64 69.52 38.95 69.19 39.21 69.23 22.91 69.56 22.64"/><polygon class="cls-25" points="16.41 23.06 16.36 39.36 15.72 39.38 15.76 23.08 16.41 23.06"/><polygon class="cls-22" points="15.76 23.08 15.72 39.38 14.26 39.64 14.31 23.34 15.76 23.08"/><polygon class="cls-26" points="14.31 23.34 14.26 39.64 13.34 39.39 13.38 23.09 14.31 23.34"/><polygon class="cls-10" points="16.59 23.96 16.54 40.26 16.28 39.8 16.32 23.49 16.59 23.96"/><polygon class="cls-27" points="69.23 22.91 69.19 39.21 67.08 40.75 67.13 24.44 69.23 22.91"/><polygon class="cls-10" points="16.88 25.15 16.83 41.45 16.54 40.26 16.59 23.96 16.88 25.15"/><polygon class="cls-10" points="16.94 26.05 16.9 42.36 16.82 41.69 16.86 25.39 16.94 26.05"/><polygon class="cls-10" points="16.65 27.07 16.6 43.38 16.48 43.15 16.52 26.85 16.65 27.07"/><polygon class="cls-28" points="16.97 27.27 16.92 43.57 16.6 43.38 16.65 27.07 16.97 27.27"/><polygon class="cls-10" points="17.06 27.54 17.01 43.84 16.92 43.57 16.97 27.27 17.06 27.54"/><polygon class="cls-2" points="68.58 27.64 68.54 43.95 67.65 44.62 67.7 28.31 68.58 27.64"/><polygon class="cls-16" points="67.7 28.31 67.65 44.62 66.88 44.9 66.92 28.6 67.7 28.31"/><polygon class="cls-29" points="66.92 28.6 66.88 44.9 65.43 45.21 65.47 28.91 66.92 28.6"/><polygon class="cls-3" points="65.47 28.91 65.43 45.21 64.21 45.78 64.25 29.48 65.47 28.91"/><polygon class="cls-16" points="64.25 29.48 64.21 45.78 62.23 46.49 62.28 30.18 64.25 29.48"/><polygon class="cls-30" points="62.28 30.18 62.23 46.49 61.82 47.12 61.87 30.81 62.28 30.18"/><polygon class="cls-16" points="61.87 30.81 61.82 47.12 60.85 47.48 60.9 31.18 61.87 30.81"/><polygon class="cls-24" points="60.9 31.18 60.85 47.48 59.85 47.72 59.89 31.41 60.9 31.18"/><polygon class="cls-15" points="59.89 31.41 59.85 47.72 57.87 48.31 57.92 32.01 59.89 31.41"/><polygon class="cls-2" points="57.92 32.01 57.87 48.31 56.77 48.6 56.81 32.3 57.92 32.01"/><polygon class="cls-16" points="56.81 32.3 56.77 48.6 56.03 48.88 56.07 32.58 56.81 32.3"/><polygon class="cls-9" points="56.07 32.58 56.03 48.88 55.79 49.04 55.83 32.74 56.07 32.58"/><polygon class="cls-29" points="55.83 32.74 55.79 49.04 55.02 49.7 55.07 33.4 55.83 32.74"/><polygon class="cls-31" points="50.98 33.45 50.94 49.75 50.6 49.71 50.65 33.4 50.98 33.45"/><polygon class="cls-24" points="50.65 33.4 50.6 49.71 49.67 49.93 49.72 33.63 50.65 33.4"/><polygon class="cls-30" points="49.72 33.63 49.67 49.93 48.58 49.94 48.62 33.64 49.72 33.63"/><polygon class="cls-2" points="55.07 33.4 55.02 49.7 54.54 50.08 54.59 33.77 55.07 33.4"/><polygon class="cls-32" points="48.62 33.64 48.58 49.94 47.76 50.12 47.81 33.82 48.62 33.64"/><polygon class="cls-19" points="47.81 33.82 47.76 50.12 47.41 50.16 47.45 33.86 47.81 33.82"/><polygon class="cls-33" points="54.59 33.77 54.54 50.08 52.81 50.2 52.86 33.9 54.59 33.77"/><polygon class="cls-34" points="52.86 33.9 52.81 50.2 50.94 49.75 50.98 33.45 52.86 33.9"/><polygon class="cls-2" points="47.45 33.86 47.41 50.16 46.12 50.48 46.17 34.18 47.45 33.86"/><polygon class="cls-25" points="46.17 34.18 46.12 50.48 44.39 50.53 44.44 34.23 46.17 34.18"/><polygon class="cls-3" points="44.44 34.23 44.39 50.53 43.11 51.12 43.16 34.82 44.44 34.23"/><polygon class="cls-20" points="43.16 34.82 43.11 51.12 42.75 51.19 42.8 34.89 43.16 34.82"/><polygon class="cls-35" points="42.8 34.89 42.75 51.19 42.54 51.47 42.59 35.16 42.8 34.89"/><polygon class="cls-16" points="42.59 35.16 42.54 51.47 41.97 51.79 42.02 35.49 42.59 35.16"/><polygon class="cls-26" points="42.02 35.49 41.97 51.79 41.91 52.21 41.96 35.9 42.02 35.49"/><polygon class="cls-36" points="41.96 35.9 41.91 52.21 41.69 52.76 41.73 36.46 41.96 35.9"/><polygon class="cls-14" points="41.73 36.46 41.69 52.76 41.52 53.02 41.57 36.72 41.73 36.46"/><polygon class="cls-37" points="41.57 36.72 41.52 53.02 41.25 53.67 41.3 37.37 41.57 36.72"/><polygon class="cls-38" points="4.89 37.51 4.84 53.81 4.35 53.41 4.4 37.1 4.89 37.51"/><polygon class="cls-10" points="3.33 39.64 3.29 55.94 3.23 55.63 3.27 39.33 3.33 39.64"/><polygon class="cls-39" points="41.81 39.23 41.77 55.53 41.74 56.1 41.79 39.8 41.81 39.23"/><polygon class="cls-40" points="42.42 40.92 42.37 57.22 42.31 57.43 42.36 41.13 42.42 40.92"/><polygon class="cls-12" points="42.36 41.13 42.31 57.43 42.11 57.68 42.16 41.37 42.36 41.13"/><polygon class="cls-41" points="42.16 41.37 42.11 57.68 42.07 58.43 42.12 42.13 42.16 41.37"/><polygon class="cls-10" points="0.48 42.51 0.43 58.81 0 57.9 0.05 41.59 0.48 42.51"/><polygon class="cls-10" points="0.49 44.05 0.45 60.36 0.09 59.86 0.14 43.56 0.49 44.05"/><polygon class="cls-10" points="0.99 44.77 0.94 61.08 0.45 60.36 0.49 44.05 0.99 44.77"/><polygon class="cls-42" points="46.89 45.03 46.84 61.33 46.14 61.24 46.18 44.94 46.89 45.03"/><polygon class="cls-3" points="47.7 44.94 47.65 61.24 47.35 61.41 47.4 45.11 47.7 44.94"/><polygon class="cls-43" points="47.4 45.11 47.35 61.41 46.84 61.33 46.89 45.03 47.4 45.11"/><polygon class="cls-44" points="1.29 45.07 1.25 61.37 0.94 61.08 0.99 44.77 1.29 45.07"/><polygon class="cls-10" points="1.66 45.53 1.61 61.83 1.25 61.37 1.29 45.07 1.66 45.53"/><polygon class="cls-10" points="1.79 45.77 1.74 62.08 1.61 61.83 1.66 45.53 1.79 45.77"/><polygon class="cls-15" points="46.18 44.94 46.14 61.24 44.69 62.22 44.74 45.91 46.18 44.94"/><polygon class="cls-10" points="2.01 46.18 1.97 62.48 1.74 62.08 1.79 45.77 2.01 46.18"/><polygon class="cls-45" points="44.74 45.91 44.69 62.22 44.02 62.91 44.06 46.61 44.74 45.91"/><polygon class="cls-13" points="44.06 46.61 44.02 62.91 43.48 63 43.53 46.7 44.06 46.61"/><polygon class="cls-16" points="43.53 46.7 43.48 63 43.25 63.14 43.29 46.84 43.53 46.7"/><polygon class="cls-16" points="43.29 46.84 43.25 63.14 42.44 63.61 42.48 47.31 43.29 46.84"/><polygon class="cls-46" points="42.48 47.31 42.44 63.61 42.24 63.88 42.29 47.57 42.48 47.31"/><polygon class="cls-47" points="42.29 47.57 42.24 63.88 40.05 64.52 40.1 48.21 42.29 47.57"/><polygon class="cls-3" points="40.1 48.21 40.05 64.52 39.75 64.65 39.8 48.34 40.1 48.21"/><polygon class="cls-10" points="2.85 48.31 2.8 64.61 1.84 63.18 1.88 46.88 2.85 48.31"/><polygon class="cls-32" points="39.8 48.34 39.75 64.65 39.4 64.72 39.45 48.42 39.8 48.34"/><polygon class="cls-48" points="39.45 48.42 39.4 64.72 38.95 64.75 39 48.44 39.45 48.42"/><polygon class="cls-10" points="3.35 48.87 3.3 65.17 2.8 64.61 2.85 48.31 3.35 48.87"/><polygon class="cls-27" points="39 48.44 38.95 64.75 38.14 65.34 38.19 49.03 39 48.44"/><polygon class="cls-10" points="3.4 49.3 3.35 65.61 3.3 65.17 3.35 48.87 3.4 49.3"/><polygon class="cls-36" points="38.19 49.03 38.14 65.34 37.95 65.82 37.99 49.52 38.19 49.03"/><polygon class="cls-11" points="37.99 49.52 37.95 65.82 37.15 66.55 37.2 50.25 37.99 49.52"/><polygon class="cls-6" points="5.34 51.2 5.29 67.5 2.65 66.8 2.7 50.49 5.34 51.2"/><polygon class="cls-49" points="6.32 51.72 6.28 68.02 5.29 67.5 5.34 51.2 6.32 51.72"/><polygon class="cls-15" points="37.2 50.25 37.15 66.55 34.67 68.29 34.72 51.98 37.2 50.25"/><polygon class="cls-44" points="6.6 51.98 6.55 68.28 6.28 68.02 6.32 51.72 6.6 51.98"/><polygon class="cls-2" points="34.72 51.98 34.67 68.29 34.16 68.68 34.21 52.38 34.72 51.98"/><polygon class="cls-43" points="34.21 52.38 34.16 68.68 34.08 68.94 34.12 52.64 34.21 52.38"/><polygon class="cls-50" points="9.06 53.78 9.01 70.08 6.55 68.28 6.6 51.98 9.06 53.78"/><polygon class="cls-14" points="10.44 53.8 10.4 70.1 9.01 70.08 9.06 53.78 10.44 53.8"/><polygon class="cls-28" points="10.78 54 10.73 70.3 10.4 70.1 10.44 53.8 10.78 54"/><polygon class="cls-51" points="11.06 54.13 11.02 70.43 10.73 70.3 10.78 54 11.06 54.13"/><polygon class="cls-52" points="12.15 54.6 12.1 70.9 11.02 70.43 11.06 54.13 12.15 54.6"/><polygon class="cls-53" points="13.3 55.19 13.26 71.49 12.1 70.9 12.15 54.6 13.3 55.19"/><polygon class="cls-54" points="17.92 55.43 17.87 71.73 16.9 71.75 16.95 55.44 17.92 55.43"/><polygon class="cls-55" points="13.85 55.45 13.8 71.75 13.26 71.49 13.3 55.19 13.85 55.45"/><polygon class="cls-56" points="18.97 55.58 18.92 71.88 17.87 71.73 17.92 55.43 18.97 55.58"/><polygon class="cls-57" points="14.25 55.58 14.21 71.89 13.8 71.75 13.85 55.45 14.25 55.58"/><polygon class="cls-58" points="16.95 55.44 16.9 71.75 15.13 71.94 15.18 55.64 16.95 55.44"/><polygon class="cls-59" points="15.18 55.64 15.13 71.94 14.66 71.94 14.71 55.64 15.18 55.64"/><polygon class="cls-36" points="14.71 55.64 14.66 71.94 14.21 71.89 14.25 55.58 14.71 55.64"/><polygon class="cls-60" points="19.43 55.77 19.38 72.08 18.92 71.88 18.97 55.58 19.43 55.77"/><polygon class="cls-61" points="20.99 56.15 20.94 72.45 19.38 72.08 19.43 55.77 20.99 56.15"/><polygon class="cls-54" points="33.91 56.84 33.86 73.14 32.88 73.16 32.93 56.86 33.91 56.84"/><polygon class="cls-37" points="34.25 56.88 34.2 73.18 33.86 73.14 33.91 56.84 34.25 56.88"/><polygon class="cls-34" points="21.56 56.99 21.51 73.29 20.2 72.98 20.25 56.68 21.56 56.99"/><polygon class="cls-13" points="32.93 56.86 32.88 73.16 31.82 73.34 31.87 57.04 32.93 56.86"/><polygon class="cls-62" points="22.98 57.14 22.93 73.44 21.51 73.29 21.56 56.99 22.98 57.14"/><polygon class="cls-63" points="24.21 57.16 24.17 73.47 22.93 73.44 22.98 57.14 24.21 57.16"/><polygon class="cls-64" points="25.14 57.17 25.09 73.48 24.17 73.47 24.21 57.16 25.14 57.17"/><polygon class="cls-63" points="26.29 57.19 26.24 73.5 25.09 73.48 25.14 57.17 26.29 57.19"/><polygon class="cls-63" points="27.7 57.21 27.66 73.52 26.24 73.5 26.29 57.19 27.7 57.21"/><polygon class="cls-41" points="35.3 57.24 35.25 73.54 34.2 73.18 34.25 56.88 35.3 57.24"/><polygon class="cls-63" points="29.05 57.24 29.01 73.54 27.66 73.52 27.7 57.21 29.05 57.24"/><polygon class="cls-45" points="31.87 57.04 31.82 73.34 30.29 73.56 30.33 57.25 31.87 57.04"/><polygon class="cls-63" points="30.33 57.25 30.29 73.56 29.01 73.54 29.05 57.24 30.33 57.25"/><polygon class="cls-65" points="36.48 57.87 36.43 74.17 35.25 73.54 35.3 57.24 36.48 57.87"/><polygon class="cls-66" points="37.06 58.1 37.01 74.41 36.43 74.17 36.48 57.87 37.06 58.1"/><polygon class="cls-49" points="37.83 58.51 37.78 74.81 37.01 74.41 37.06 58.1 37.83 58.51"/><polygon class="cls-67" points="39.46 58.41 39.84 59.02 37.83 58.51 37.06 58.1 36.48 57.87 35.3 57.24 34.25 56.88 33.91 56.84 32.93 56.86 31.87 57.04 30.33 57.25 29.05 57.24 27.7 57.21 26.29 57.19 25.14 57.17 24.21 57.16 22.98 57.14 21.56 56.99 20.25 56.68 20.99 56.15 19.43 55.77 18.97 55.58 17.92 55.43 16.95 55.44 15.18 55.64 14.71 55.64 14.25 55.58 13.85 55.45 13.3 55.19 12.15 54.6 11.06 54.13 10.78 54 10.44 53.8 9.06 53.78 6.6 51.98 6.32 51.72 5.34 51.2 2.7 50.49 2.9 50.11 3.4 49.3 3.35 48.87 2.85 48.31 1.88 46.88 2.01 46.18 1.79 45.77 1.66 45.53 1.29 45.07 0.99 44.77 0.49 44.05 0.14 43.56 0.4 42.83 0.48 42.51 0.05 41.59 0.31 41.42 0.56 41.29 0.98 40.97 1.29 40.81 1.95 40.8 2.29 40.7 2.51 40.55 3.18 39.93 3.33 39.64 3.27 39.33 3.79 38.72 3.92 38.55 4.32 38.01 4.89 37.51 4.4 37.1 4.76 36.07 6.93 36.45 7.95 36.4 8.34 36.45 8.71 35.51 8.95 35.32 9.68 34.15 10.28 32.85 10.73 32.48 11.01 31.93 11.12 31.52 12.52 30.84 12.81 30.68 13.03 30.5 13.35 30.09 13.83 29.64 16.64 27.92 17.06 27.54 16.97 27.27 16.65 27.07 16.52 26.85 16.55 26.6 16.69 26.36 16.94 26.05 16.86 25.39 16.88 25.15 16.59 23.96 16.32 23.49 16.41 23.06 15.76 23.08 14.31 23.34 13.38 23.09 13.78 22.03 13.97 21.83 14.8 21.3 16.08 20.59 16.67 20.28 17.91 19.51 18.98 18.68 19.53 17.69 20.39 17.13 21.62 16.61 22.42 14.7 22.06 14.6 22.19 14.36 22.4 14.13 22.41 12.82 21.87 10.91 21.94 10.45 21.8 9.83 22.34 9.61 22.58 9.39 22.58 9.14 22.49 8.88 22.04 8.22 21.98 7.97 22.06 7.78 22.13 6.24 21.02 5.95 21.21 4.37 21.57 3.98 21.85 3.15 22.06 2.53 24.44 0.51 24.82 0.36 25.66 0.19 26.06 0 28.58 0.35 29.76 0.23 32.13 0.21 35.02 0.6 37.91 0.99 38.34 1.09 39.7 1.65 39.92 1.81 40.17 2.34 41.7 3.2 42.26 3.91 42.63 5.16 43.47 4.83 44.31 5.23 44.42 5.74 47.55 4.71 47.88 4.47 48.26 4.38 49.36 3.86 49.69 3.61 49.98 3.42 50.88 4.05 51.14 4.71 51.29 4.88 53.07 4.9 54.01 4.37 55.18 4.15 55.78 3.73 56.22 3.55 56.83 3.35 57.26 3.15 58.66 3.06 59.09 3.21 60.52 3.28 60.87 3.25 63.53 3.2 63.69 3.9 64.37 4.27 64.98 4.16 67.15 4.15 67.61 4.11 68.8 3.87 69.48 3.67 71.51 3.26 72.31 3.26 73.26 3 73.82 3.25 75.81 3.3 76.27 3.25 76.84 3.19 77.38 3.05 77.88 2.97 78.29 3.62 78.43 3.85 80.14 4.29 80.66 4.14 82.21 4.68 83.64 4.57 84.32 4.18 84.98 4.02 85.67 4.15 87.15 3.7 88.59 3.51 91.51 4.39 92.28 4.73 93 4.91 94.24 4.91 94.58 4.89 94.95 4.98 95.28 4.95 92.8 5.61 92.42 5.71 92.11 5.86 91.9 6.09 91.79 6.3 91.72 6.5 91.7 6.69 91.72 6.93 90.81 7.5 90.32 7.75 88.59 8.67 82.5 10.79 80.45 11.68 81.24 13.56 80.8 13.96 80.27 14.6 79.93 14.66 79.61 14.76 79.26 15.33 78.03 16.19 75.08 17.3 74.83 18.18 74.01 18.99 73.51 19.57 72.96 20.19 72.61 20.5 72.41 20.84 72.18 21.05 72.02 21.59 69.56 22.64 69.23 22.91 67.13 24.44 67.37 25.77 68.27 26.84 68.58 27.64 67.7 28.31 66.92 28.6 65.47 28.91 64.25 29.48 62.28 30.18 61.87 30.81 60.9 31.18 59.89 31.41 57.92 32.01 56.81 32.3 56.07 32.58 55.83 32.74 55.07 33.4 54.59 33.77 52.86 33.9 50.98 33.45 50.65 33.4 49.72 33.63 48.62 33.64 47.81 33.82 47.45 33.86 46.17 34.18 44.44 34.23 43.16 34.82 42.8 34.89 42.59 35.16 42.02 35.49 41.96 35.9 41.73 36.46 41.57 36.72 41.3 37.37 41.71 38.53 41.81 39.23 41.79 39.8 41.85 40.02 42.35 40.7 42.42 40.92 42.36 41.13 42.16 41.37 42.12 42.13 43.06 42.32 43.41 42.41 44.06 42.69 44.47 42.93 44.8 43.37 45.93 44.18 47.7 44.94 47.4 45.11 46.89 45.03 46.18 44.94 44.74 45.91 44.06 46.61 43.53 46.7 43.29 46.84 42.48 47.31 42.29 47.57 40.1 48.21 39.8 48.34 39.45 48.42 39 48.44 38.19 49.03 37.99 49.52 37.2 50.25 34.72 51.98 34.21 52.38 34.12 52.64 34.16 52.91 34.35 53.13 34.85 53.49 35.1 53.83 35.45 54.34 36.47 54.88 36.71 55.31 37.02 55.47 37.95 55.98 38.12 56.26 38.55 56.93 38.88 57.48 39.12 57.86 39.46 58.41"/><polygon class="cls-68" points="39.84 59.02 39.8 75.32 37.78 74.81 37.83 58.51 39.84 59.02"/></g></g></g></svg>