<svg xmlns="http://www.w3.org/2000/svg" viewBox="0 0 135.9 95.88"><defs><style>.cls-1{isolation:isolate;}.cls-2{fill:#a92929;}.cls-3{fill:#a82929;}.cls-4{fill:#a02727;}.cls-5{fill:#952525;}.cls-6{fill:#a62929;}.cls-7{fill:#a52828;}.cls-8{fill:#6c1a1a;}.cls-9{fill:#7f1f1f;}.cls-10{fill:#621818;}.cls-11{fill:#611818;}.cls-12{fill:#6e1b1b;}.cls-13{fill:#5e1717;}.cls-14{fill:#561515;}.cls-15{fill:#791e1e;}.cls-16{fill:#8a2222;}.cls-17{fill:#731c1c;}.cls-18{fill:#9d2626;}.cls-19{fill:#601818;}.cls-20{fill:#801f1f;}.cls-21{fill:#481212;}.cls-22{fill:#4d1313;}.cls-23{fill:#8b2222;}.cls-24{fill:#932424;}.cls-25{fill:#6f1b1b;}.cls-26{fill:#511414;}.cls-27{fill:#4f1313;}.cls-28{fill:#501414;}.cls-29{fill:#8f2323;}.cls-30{fill:#701c1c;}.cls-31{fill:#a32828;}.cls-32{fill:#4a1212;}.cls-33{fill:#6d1b1b;}.cls-34{fill:#711c1c;}.cls-35{fill:#681a1a;}.cls-36{fill:#721c1c;}.cls-37{fill:#892222;}.cls-38{fill:#872121;}.cls-39{fill:#a42828;}.cls-40{fill:#a12727;}.cls-41{fill:#491212;}.cls-42{fill:#a72929;}.cls-43{fill:#551515;}.cls-44{fill:#681919;}.cls-45{fill:#781d1d;}.cls-46{fill:#671919;}.cls-47{fill:#8e2323;}.cls-48{fill:#771d1d;}.cls-49{fill:#641919;}.cls-50{fill:#832020;}.cls-51{fill:#6a1a1a;}.cls-52{fill:#4c1313;}.cls-53{fill:#5a1616;}.cls-54{fill:#9f2727;}.cls-55{fill:#952424;}.cls-56{fill:#4e1313;}.cls-57{fill:#7c1e1e;}.cls-58{fill:#912323;}.cls-59{fill:#761d1d;}.cls-60{fill:#852121;}.cls-61{fill:#982525;}.cls-62{fill:#9c2626;}.cls-63{fill:#7e1f1f;}.cls-64{fill:#992626;}.cls-65{fill:#8d2323;}.cls-66{fill:#962525;}.cls-67{fill:#9a2626;}.cls-68{fill:#701b1b;}.cls-69{fill:#751d1d;}.cls-70{fill:#691a1a;}.cls-71{fill:#c83131;}.cls-72{fill:#741c1c;}</style></defs><title>Chad</title><g id="Layer_2" data-name="Layer 2"><g id="Layer_1-2" data-name="Layer 1"><g class="cls-1"><polygon class="cls-2" points="110.67 15.12 110.62 31.42 109.53 31.98 109.58 15.68 110.67 15.12"/><polygon class="cls-2" points="109.58 15.68 109.53 31.98 108.6 32.38 108.64 16.07 109.58 15.68"/><polygon class="cls-3" points="108.64 16.07 108.6 32.38 107.84 32.82 107.89 16.51 108.64 16.07"/><polygon class="cls-4" points="107.89 16.51 107.84 32.82 107.5 33.13 107.55 16.82 107.89 16.51"/><polygon class="cls-5" points="107.55 16.82 107.5 33.13 106.96 33.82 107 17.52 107.55 16.82"/><polygon class="cls-6" points="107 17.52 106.96 33.82 106.51 34.13 106.55 17.83 107 17.52"/><polygon class="cls-3" points="106.55 17.83 106.51 34.13 105.27 34.6 105.31 18.3 106.55 17.83"/><polygon class="cls-7" points="105.31 18.3 105.27 34.6 105 34.8 105.04 18.5 105.31 18.3"/><polygon class="cls-8" points="105.04 18.5 105 34.8 104.89 35.63 104.94 19.32 105.04 18.5"/><polygon class="cls-9" points="104.94 19.32 104.89 35.63 104.7 36.12 104.74 19.81 104.94 19.32"/><polygon class="cls-10" points="0.58 20.46 0.53 36.76 0 36.55 0.05 20.25 0.58 20.46"/><polygon class="cls-11" points="1.1 20.68 1.06 36.98 0.53 36.76 0.58 20.46 1.1 20.68"/><polygon class="cls-11" points="1.63 20.89 1.58 37.19 1.06 36.98 1.1 20.68 1.63 20.89"/><polygon class="cls-10" points="2.16 21.1 2.12 37.41 1.58 37.19 1.63 20.89 2.16 21.1"/><polygon class="cls-10" points="2.69 21.31 2.65 37.62 2.12 37.41 2.16 21.1 2.69 21.31"/><polygon class="cls-11" points="3.22 21.53 3.17 37.83 2.65 37.62 2.69 21.31 3.22 21.53"/><polygon class="cls-10" points="3.75 21.74 3.71 38.05 3.17 37.83 3.22 21.53 3.75 21.74"/><polygon class="cls-11" points="4.28 21.95 4.23 38.26 3.71 38.05 3.75 21.74 4.28 21.95"/><polygon class="cls-10" points="4.8 22.17 4.76 38.47 4.23 38.26 4.28 21.95 4.8 22.17"/><polygon class="cls-11" points="5.33 22.38 5.28 38.68 4.76 38.47 4.8 22.17 5.33 22.38"/><polygon class="cls-12" points="107.7 21.62 107.65 37.92 107.47 39.15 107.52 22.85 107.7 21.62"/><polygon class="cls-10" points="5.86 22.59 5.82 38.9 5.28 38.68 5.33 22.38 5.86 22.59"/><polygon class="cls-11" points="6.39 22.81 6.34 39.11 5.82 38.9 5.86 22.59 6.39 22.81"/><polygon class="cls-10" points="6.92 23.02 6.87 39.32 6.34 39.11 6.39 22.81 6.92 23.02"/><polygon class="cls-11" points="7.44 23.23 7.39 39.53 6.87 39.32 6.92 23.02 7.44 23.23"/><polygon class="cls-10" points="7.8 23.38 7.76 39.68 7.39 39.53 7.44 23.23 7.8 23.38"/><polygon class="cls-11" points="8.15 23.52 8.11 39.82 7.76 39.68 7.8 23.38 8.15 23.52"/><polygon class="cls-13" points="8.64 23.73 8.59 40.03 8.11 39.82 8.15 23.52 8.64 23.73"/><polygon class="cls-14" points="9.02 23.95 8.97 40.25 8.59 40.03 8.64 23.73 9.02 23.95"/><polygon class="cls-14" points="9.55 24.25 9.51 40.55 8.97 40.25 9.02 23.95 9.55 24.25"/><polygon class="cls-14" points="10.16 24.58 10.12 40.89 9.51 40.55 9.55 24.25 10.16 24.58"/><polygon class="cls-14" points="10.77 24.93 10.72 41.23 10.12 40.89 10.16 24.58 10.77 24.93"/><polygon class="cls-15" points="108.48 24.02 108.44 40.32 108.06 41.58 108.1 25.28 108.48 24.02"/><polygon class="cls-14" points="11.31 25.23 11.26 41.53 10.72 41.23 10.77 24.93 11.31 25.23"/><polygon class="cls-16" points="108.1 25.28 108.06 41.58 107.92 41.83 107.96 25.52 108.1 25.28"/><polygon class="cls-17" points="107.96 25.52 107.92 41.83 107.86 42.1 107.9 25.8 107.96 25.52"/><polygon class="cls-18" points="13.06 25.56 13.01 41.87 12.32 41.97 12.37 25.67 13.06 25.56"/><polygon class="cls-19" points="12.37 25.67 12.32 41.97 11.26 41.53 11.31 25.23 12.37 25.67"/><polygon class="cls-20" points="18.8 26.26 18.76 42.56 13.01 41.87 13.06 25.56 18.8 26.26"/><polygon class="cls-21" points="18.8 26.75 18.75 43.06 18.64 42.8 18.69 26.5 18.8 26.75"/><polygon class="cls-22" points="19.07 26.97 19.03 43.28 18.75 43.06 18.8 26.75 19.07 26.97"/><polygon class="cls-23" points="22.38 27.2 22.34 43.5 21.52 43.48 21.56 27.18 22.38 27.2"/><polygon class="cls-16" points="23.19 27.23 23.15 43.53 22.34 43.5 22.38 27.2 23.19 27.23"/><polygon class="cls-17" points="20.21 27.23 20.16 43.53 19.03 43.28 19.07 26.97 20.21 27.23"/><polygon class="cls-24" points="21.56 27.18 21.52 43.48 20.16 43.53 20.21 27.23 21.56 27.18"/><polygon class="cls-23" points="24.01 27.25 23.96 43.55 23.15 43.53 23.19 27.23 24.01 27.25"/><polygon class="cls-25" points="25.72 27.7 25.68 44 23.96 43.55 24.01 27.25 25.72 27.7"/><polygon class="cls-21" points="25.94 28.13 25.89 44.43 25.68 44 25.72 27.7 25.94 28.13"/><polygon class="cls-16" points="111.69 27.69 111.64 43.99 111.06 45.02 111.11 28.71 111.69 27.69"/><polygon class="cls-21" points="26.17 28.57 26.12 44.87 25.89 44.43 25.94 28.13 26.17 28.57"/><polygon class="cls-21" points="26.39 29 26.34 45.31 26.12 44.87 26.17 28.57 26.39 29"/><polygon class="cls-21" points="26.69 29.6 26.65 45.9 26.34 45.31 26.39 29 26.69 29.6"/><polygon class="cls-21" points="27.03 30.04 26.99 46.34 26.65 45.9 26.69 29.6 27.03 30.04"/><polygon class="cls-26" points="27.31 30.22 27.26 46.52 26.99 46.34 27.03 30.04 27.31 30.22"/><polygon class="cls-27" points="27.6 30.42 27.55 46.73 27.26 46.52 27.31 30.22 27.6 30.42"/><polygon class="cls-28" points="27.9 30.63 27.85 46.93 27.55 46.73 27.6 30.42 27.9 30.63"/><polygon class="cls-28" points="28.19 30.82 28.14 47.13 27.85 46.93 27.9 30.63 28.19 30.82"/><polygon class="cls-28" points="28.48 31.02 28.44 47.33 28.14 47.13 28.19 30.82 28.48 31.02"/><polygon class="cls-27" points="28.77 31.23 28.73 47.53 28.44 47.33 28.48 31.02 28.77 31.23"/><polygon class="cls-28" points="29.07 31.43 29.02 47.73 28.73 47.53 28.77 31.23 29.07 31.43"/><polygon class="cls-28" points="29.36 31.63 29.32 47.93 29.02 47.73 29.07 31.43 29.36 31.63"/><polygon class="cls-28" points="29.66 31.83 29.61 48.13 29.32 47.93 29.36 31.63 29.66 31.83"/><polygon class="cls-28" points="29.95 32.03 29.91 48.33 29.61 48.13 29.66 31.83 29.95 32.03"/><polygon class="cls-27" points="30.24 32.23 30.19 48.53 29.91 48.33 29.95 32.03 30.24 32.23"/><polygon class="cls-28" points="30.53 32.43 30.49 48.73 30.19 48.53 30.24 32.23 30.53 32.43"/><polygon class="cls-29" points="115.74 32.18 115.69 48.48 115.24 49.17 115.28 32.87 115.74 32.18"/><polygon class="cls-28" points="30.83 32.63 30.78 48.93 30.49 48.73 30.53 32.43 30.83 32.63"/><polygon class="cls-28" points="31.13 32.83 31.08 49.13 30.78 48.93 30.83 32.63 31.13 32.83"/><polygon class="cls-30" points="115.28 32.87 115.24 49.17 115.17 49.53 115.22 33.23 115.28 32.87"/><polygon class="cls-28" points="31.42 33.03 31.38 49.33 31.08 49.13 31.13 32.83 31.42 33.03"/><polygon class="cls-27" points="31.71 33.23 31.66 49.53 31.38 49.33 31.42 33.03 31.71 33.23"/><polygon class="cls-28" points="32 33.43 31.96 49.73 31.66 49.53 31.71 33.23 32 33.43"/><polygon class="cls-28" points="32.3 33.63 32.25 49.93 31.96 49.73 32 33.43 32.3 33.63"/><polygon class="cls-21" points="119.32 33.97 119.27 50.27 119.18 50 119.22 33.7 119.32 33.97"/><polygon class="cls-28" points="32.59 33.83 32.55 50.13 32.25 49.93 32.3 33.63 32.59 33.83"/><polygon class="cls-28" points="32.88 34.03 32.84 50.33 32.55 50.13 32.59 33.83 32.88 34.03"/><polygon class="cls-27" points="33.17 34.23 33.13 50.53 32.84 50.33 32.88 34.03 33.17 34.23"/><polygon class="cls-28" points="33.47 34.43 33.42 50.73 33.13 50.53 33.17 34.23 33.47 34.43"/><polygon class="cls-28" points="33.76 34.63 33.71 50.93 33.42 50.73 33.47 34.43 33.76 34.63"/><polygon class="cls-28" points="34.05 34.83 34.01 51.13 33.71 50.93 33.76 34.63 34.05 34.83"/><polygon class="cls-28" points="34.35 35.03 34.3 51.33 34.01 51.13 34.05 34.83 34.35 35.03"/><polygon class="cls-27" points="34.64 35.23 34.59 51.53 34.3 51.33 34.35 35.03 34.64 35.23"/><polygon class="cls-28" points="34.92 35.42 34.88 51.73 34.59 51.53 34.64 35.23 34.92 35.42"/><polygon class="cls-28" points="35.22 35.62 35.17 51.93 34.88 51.73 34.92 35.42 35.22 35.62"/><polygon class="cls-28" points="35.51 35.82 35.47 52.13 35.17 51.93 35.22 35.62 35.51 35.82"/><polygon class="cls-28" points="35.8 36.02 35.76 52.33 35.47 52.13 35.51 35.82 35.8 36.02"/><polygon class="cls-27" points="36.09 36.23 36.05 52.53 35.76 52.33 35.8 36.02 36.09 36.23"/><polygon class="cls-28" points="36.39 36.42 36.34 52.73 36.05 52.53 36.09 36.23 36.39 36.42"/><polygon class="cls-28" points="36.68 36.62 36.63 52.93 36.34 52.73 36.39 36.42 36.68 36.62"/><polygon class="cls-28" points="36.97 36.82 36.93 53.13 36.63 52.93 36.68 36.62 36.97 36.82"/><polygon class="cls-27" points="37.26 37.02 37.21 53.32 36.93 53.13 36.97 36.82 37.26 37.02"/><polygon class="cls-28" points="37.55 37.22 37.5 53.52 37.21 53.32 37.26 37.02 37.55 37.22"/><polygon class="cls-28" points="37.84 37.42 37.8 53.72 37.5 53.52 37.55 37.22 37.84 37.42"/><polygon class="cls-28" points="38.14 37.62 38.09 53.92 37.8 53.72 37.84 37.42 38.14 37.62"/><polygon class="cls-28" points="38.43 37.82 38.38 54.12 38.09 53.92 38.14 37.62 38.43 37.82"/><polygon class="cls-28" points="38.72 38.01 38.67 54.32 38.38 54.12 38.43 37.82 38.72 38.01"/><polygon class="cls-2" points="135.9 38.29 135.85 54.59 135.44 54.79 135.49 38.48 135.9 38.29"/><polygon class="cls-6" points="135.49 38.48 135.44 54.79 134.92 54.95 134.96 38.64 135.49 38.48"/><polygon class="cls-28" points="39.3 38.41 39.25 54.72 38.67 54.32 38.72 38.01 39.3 38.41"/><polygon class="cls-28" points="39.59 38.61 39.54 54.91 39.25 54.72 39.3 38.41 39.59 38.61"/><polygon class="cls-28" points="39.88 38.81 39.83 55.11 39.54 54.91 39.59 38.61 39.88 38.81"/><polygon class="cls-27" points="40.17 39.01 40.12 55.31 39.83 55.11 39.88 38.81 40.17 39.01"/><polygon class="cls-28" points="40.46 39.21 40.41 55.51 40.12 55.31 40.17 39.01 40.46 39.21"/><polygon class="cls-28" points="40.75 39.41 40.7 55.71 40.41 55.51 40.46 39.21 40.75 39.41"/><polygon class="cls-28" points="41.04 39.6 41 55.91 40.7 55.71 40.75 39.41 41.04 39.6"/><polygon class="cls-28" points="41.33 39.8 41.28 56.1 41 55.91 41.04 39.6 41.33 39.8"/><polygon class="cls-27" points="41.62 40 41.57 56.31 41.28 56.1 41.33 39.8 41.62 40"/><polygon class="cls-28" points="41.91 40.2 41.87 56.51 41.57 56.31 41.62 40 41.91 40.2"/><polygon class="cls-28" points="42.2 40.4 42.15 56.7 41.87 56.51 41.91 40.2 42.2 40.4"/><polygon class="cls-28" points="42.49 40.6 42.45 56.9 42.15 56.7 42.2 40.4 42.49 40.6"/><polygon class="cls-28" points="42.78 40.79 42.73 57.09 42.45 56.9 42.49 40.6 42.78 40.79"/><polygon class="cls-27" points="43.07 40.99 43.02 57.3 42.73 57.09 42.78 40.79 43.07 40.99"/><polygon class="cls-28" points="43.36 41.19 43.32 57.5 43.02 57.3 43.07 40.99 43.36 41.19"/><polygon class="cls-28" points="43.65 41.39 43.6 57.69 43.32 57.5 43.36 41.19 43.65 41.39"/><polygon class="cls-31" points="134.96 38.64 134.92 54.95 131.02 58.04 131.07 41.73 134.96 38.64"/><polygon class="cls-28" points="43.94 41.59 43.9 57.89 43.6 57.69 43.65 41.39 43.94 41.59"/><polygon class="cls-28" points="44.52 41.99 44.47 58.29 43.9 57.89 43.94 41.59 44.52 41.99"/><polygon class="cls-28" points="44.81 42.18 44.76 58.48 44.47 58.29 44.52 41.99 44.81 42.18"/><polygon class="cls-28" points="45.09 42.38 45.05 58.68 44.76 58.48 44.81 42.18 45.09 42.38"/><polygon class="cls-28" points="45.39 42.58 45.34 58.88 45.05 58.68 45.09 42.38 45.39 42.58"/><polygon class="cls-28" points="45.67 42.77 45.63 59.08 45.34 58.88 45.39 42.58 45.67 42.77"/><polygon class="cls-32" points="46.28 43.32 46.23 59.62 45.63 59.08 45.67 42.77 46.28 43.32"/><polygon class="cls-21" points="46.29 43.59 46.24 59.89 46.23 59.62 46.28 43.32 46.29 43.59"/><polygon class="cls-21" points="46.33 44.04 46.28 60.34 46.24 59.89 46.29 43.59 46.33 44.04"/><polygon class="cls-21" points="46.36 44.49 46.31 60.79 46.28 60.34 46.33 44.04 46.36 44.49"/><polygon class="cls-21" points="46.39 44.94 46.35 61.24 46.31 60.79 46.36 44.49 46.39 44.94"/><polygon class="cls-21" points="46.42 45.38 46.38 61.69 46.35 61.24 46.39 44.94 46.42 45.38"/><polygon class="cls-21" points="46.46 45.83 46.41 62.13 46.38 61.69 46.42 45.38 46.46 45.83"/><polygon class="cls-33" points="132.1 44.85 132.06 61.15 131.82 62.82 131.87 46.51 132.1 44.85"/><polygon class="cls-21" points="46.48 46.28 46.44 62.58 46.41 62.13 46.46 45.83 46.48 46.28"/><polygon class="cls-21" points="46.52 46.73 46.47 63.03 46.44 62.58 46.48 46.28 46.52 46.73"/><polygon class="cls-21" points="46.55 47.18 46.5 63.48 46.47 63.03 46.52 46.73 46.55 47.18"/><polygon class="cls-21" points="46.58 47.62 46.53 63.93 46.5 63.48 46.55 47.18 46.58 47.62"/><polygon class="cls-2" points="132.42 47.68 132.37 63.98 131.75 64.31 131.79 48.01 132.42 47.68"/><polygon class="cls-21" points="46.61 48.07 46.56 64.38 46.53 63.93 46.58 47.62 46.61 48.07"/><polygon class="cls-34" points="131.79 48.01 131.75 64.31 131.64 64.85 131.69 48.55 131.79 48.01"/><polygon class="cls-21" points="46.64 48.52 46.6 64.82 46.56 64.38 46.61 48.07 46.64 48.52"/><polygon class="cls-35" points="131.69 48.55 131.64 64.85 131.6 65.39 131.65 49.09 131.69 48.55"/><polygon class="cls-21" points="46.67 48.97 46.63 65.27 46.6 64.82 46.64 48.52 46.67 48.97"/><polygon class="cls-21" points="46.7 49.41 46.66 65.72 46.63 65.27 46.67 48.97 46.7 49.41"/><polygon class="cls-21" points="46.73 49.86 46.69 66.17 46.66 65.72 46.7 49.41 46.73 49.86"/><polygon class="cls-21" points="46.77 50.31 46.72 66.61 46.69 66.17 46.73 49.86 46.77 50.31"/><polygon class="cls-21" points="46.79 50.76 46.74 67.06 46.72 66.61 46.77 50.31 46.79 50.76"/><polygon class="cls-21" points="46.82 51.06 46.77 67.37 46.74 67.06 46.79 50.76 46.82 51.06"/><polygon class="cls-21" points="46.84 51.53 46.8 67.83 46.77 67.37 46.82 51.06 46.84 51.53"/><polygon class="cls-21" points="46.88 51.97 46.83 68.27 46.8 67.83 46.84 51.53 46.88 51.97"/><polygon class="cls-21" points="46.95 52.23 46.9 68.53 46.83 68.27 46.88 51.97 46.95 52.23"/><polygon class="cls-36" points="132.27 51.43 132.23 67.73 131.98 68.95 132.03 52.65 132.27 51.43"/><polygon class="cls-21" points="47.03 52.51 46.99 68.81 46.9 68.53 46.95 52.23 47.03 52.51"/><polygon class="cls-37" points="132.03 52.65 131.98 68.95 131.85 69.19 131.89 52.89 132.03 52.65"/><polygon class="cls-21" points="47.12 52.78 47.07 69.09 46.99 68.81 47.03 52.51 47.12 52.78"/><polygon class="cls-21" points="47.2 53.06 47.16 69.36 47.07 69.09 47.12 52.78 47.2 53.06"/><polygon class="cls-21" points="47.29 53.34 47.24 69.64 47.16 69.36 47.2 53.06 47.29 53.34"/><polygon class="cls-21" points="47.37 53.62 47.32 69.92 47.24 69.64 47.29 53.34 47.37 53.62"/><polygon class="cls-21" points="47.44 53.89 47.4 70.19 47.32 69.92 47.37 53.62 47.44 53.89"/><polygon class="cls-21" points="47.53 54.16 47.48 70.47 47.4 70.19 47.44 53.89 47.53 54.16"/><polygon class="cls-21" points="47.61 54.44 47.56 70.75 47.48 70.47 47.53 54.16 47.61 54.44"/><polygon class="cls-21" points="47.7 54.72 47.65 71.02 47.56 70.75 47.61 54.44 47.7 54.72"/><polygon class="cls-38" points="131.91 53.2 131.87 69.5 130.84 71.5 130.88 55.2 131.91 53.2"/><polygon class="cls-21" points="47.77 54.99 47.73 71.29 47.65 71.02 47.7 54.72 47.77 54.99"/><polygon class="cls-21" points="47.86 55.27 47.81 71.57 47.73 71.29 47.77 54.99 47.86 55.27"/><polygon class="cls-21" points="47.94 55.54 47.9 71.85 47.81 71.57 47.86 55.27 47.94 55.54"/><polygon class="cls-21" points="48.03 55.82 47.98 72.12 47.9 71.85 47.94 55.54 48.03 55.82"/><polygon class="cls-21" points="48.1 56.1 48.05 72.4 47.98 72.12 48.03 55.82 48.1 56.1"/><polygon class="cls-21" points="48.18 56.37 48.14 72.68 48.05 72.4 48.1 56.1 48.18 56.37"/><polygon class="cls-21" points="48.27 56.65 48.22 72.95 48.14 72.68 48.18 56.37 48.27 56.65"/><polygon class="cls-21" points="48.34 56.91 48.3 73.22 48.22 72.95 48.27 56.65 48.34 56.91"/><polygon class="cls-39" points="130.88 55.2 130.84 71.5 128.19 73.58 128.23 57.28 130.88 55.2"/><polygon class="cls-21" points="48.54 57.23 48.5 73.53 48.3 73.22 48.34 56.91 48.54 57.23"/><polygon class="cls-40" points="128.23 57.28 128.19 73.58 127.39 74.27 127.44 57.97 128.23 57.28"/><polygon class="cls-41" points="49.31 58.05 49.27 74.36 48.5 73.53 48.54 57.23 49.31 58.05"/><polygon class="cls-42" points="127.44 57.97 127.39 74.27 125.96 75.18 126 58.87 127.44 57.97"/><polygon class="cls-21" points="49.66 58.7 49.61 75.01 49.27 74.36 49.31 58.05 49.66 58.7"/><polygon class="cls-21" points="49.68 60.38 49.63 76.69 49.61 75.01 49.66 58.7 49.68 60.38"/><polygon class="cls-21" points="49.77 60.69 49.73 76.99 49.63 76.69 49.68 60.38 49.77 60.69"/><polygon class="cls-43" points="50.17 60.92 50.13 77.22 49.73 76.99 49.77 60.69 50.17 60.92"/><polygon class="cls-44" points="50.78 61.12 50.73 77.42 50.13 77.22 50.17 60.92 50.78 61.12"/><polygon class="cls-45" points="126 58.87 125.96 75.18 125.22 77.67 125.27 61.37 126 58.87"/><polygon class="cls-46" points="51.21 61.27 51.17 77.57 50.73 77.42 50.78 61.12 51.21 61.27"/><polygon class="cls-47" points="71.3 62.53 71.25 78.84 66.98 78.85 67.02 62.55 71.3 62.53"/><polygon class="cls-48" points="67.02 62.55 66.98 78.85 65.57 78.58 65.61 62.28 67.02 62.55"/><polygon class="cls-49" points="55.83 62.97 55.78 79.28 51.17 77.57 51.21 61.27 55.83 62.97"/><polygon class="cls-35" points="73.15 63.14 73.11 79.44 71.25 78.84 71.3 62.53 73.15 63.14"/><polygon class="cls-50" points="59.47 63.33 59.43 79.63 55.78 79.28 55.83 62.97 59.47 63.33"/><polygon class="cls-11" points="73.83 63.41 73.78 79.72 73.11 79.44 73.15 63.14 73.83 63.41"/><polygon class="cls-50" points="63.12 63.67 63.07 79.97 59.43 79.63 59.47 63.33 63.12 63.67"/><polygon class="cls-2" points="65.61 62.28 65.57 78.58 63.07 79.97 63.12 63.67 65.61 62.28"/><polygon class="cls-23" points="126.85 64.09 126.81 80.39 126.48 80.95 126.52 64.65 126.85 64.09"/><polygon class="cls-25" points="78.25 64.59 78.21 80.89 73.78 79.72 73.83 63.41 78.25 64.59"/><polygon class="cls-23" points="126.52 64.65 126.48 80.95 126.33 81.2 126.38 64.9 126.52 64.65"/><polygon class="cls-51" points="126.38 64.9 126.33 81.2 126.31 81.44 126.36 65.14 126.38 64.9"/><polygon class="cls-28" points="79.35 65.35 79.31 81.66 78.21 80.89 78.25 64.59 79.35 65.35"/><polygon class="cls-36" points="79.96 65.5 79.91 81.8 79.31 81.66 79.35 65.35 79.96 65.5"/><polygon class="cls-44" points="80.77 65.77 80.72 82.07 79.91 81.8 79.96 65.5 80.77 65.77"/><polygon class="cls-4" points="126.89 65.83 126.85 82.14 126.43 82.51 126.48 66.21 126.89 65.83"/><polygon class="cls-21" points="80.95 66.34 80.9 82.64 80.72 82.07 80.77 65.77 80.95 66.34"/><polygon class="cls-52" points="81.89 67.13 81.84 83.44 80.9 82.64 80.95 66.34 81.89 67.13"/><polygon class="cls-27" points="82.27 67.4 82.22 83.71 81.84 83.44 81.89 67.13 82.27 67.4"/><polygon class="cls-53" points="83.01 67.77 82.96 84.07 82.22 83.71 82.27 67.4 83.01 67.77"/><polygon class="cls-3" points="126.48 66.21 126.43 82.51 123.61 84.24 123.66 67.93 126.48 66.21"/><polygon class="cls-53" points="83.63 68.08 83.58 84.38 82.96 84.07 83.01 67.77 83.63 68.08"/><polygon class="cls-54" points="123.66 67.93 123.61 84.24 123.14 84.68 123.19 68.38 123.66 67.93"/><polygon class="cls-8" points="84.71 68.39 84.66 84.7 83.58 84.38 83.63 68.08 84.71 68.39"/><polygon class="cls-55" points="123.19 68.38 123.14 84.68 122.82 85.1 122.86 68.8 123.19 68.38"/><polygon class="cls-56" points="85.19 68.74 85.14 85.05 84.66 84.7 84.71 68.39 85.19 68.74"/><polygon class="cls-2" points="122.86 68.8 122.82 85.1 121.25 85.87 121.3 69.57 122.86 68.8"/><polygon class="cls-57" points="94.57 69.58 94.52 85.88 94.06 85.81 94.1 69.51 94.57 69.58"/><polygon class="cls-4" points="94.1 69.51 94.06 85.81 93.04 86.01 93.08 69.7 94.1 69.51"/><polygon class="cls-58" points="91.74 69.67 91.7 85.97 89.93 86.01 89.98 69.71 91.74 69.67"/><polygon class="cls-59" points="89.98 69.71 89.93 86.01 85.14 85.05 85.19 68.74 89.98 69.71"/><polygon class="cls-60" points="92.52 69.73 92.47 86.03 91.7 85.97 91.74 69.67 92.52 69.73"/><polygon class="cls-24" points="93.08 69.7 93.04 86.01 92.47 86.03 92.52 69.73 93.08 69.7"/><polygon class="cls-61" points="121.3 69.57 121.25 85.87 120.11 87.21 120.15 70.9 121.3 69.57"/><polygon class="cls-47" points="120.15 70.9 120.11 87.21 119.5 88.14 119.55 71.84 120.15 70.9"/><polygon class="cls-62" points="119.57 72.74 119.52 89.04 118.5 90.11 118.55 73.81 119.57 72.74"/><polygon class="cls-6" points="118.55 73.81 118.5 90.11 117.22 90.97 117.27 74.67 118.55 73.81"/><polygon class="cls-3" points="117.27 74.67 117.22 90.97 114.64 91.96 114.69 75.66 117.27 74.67"/><polygon class="cls-21" points="85.25 76.04 85.21 92.34 84.89 91.78 84.93 75.47 85.25 76.04"/><polygon class="cls-61" points="114.69 75.66 114.64 91.96 114.18 92.49 114.22 76.19 114.69 75.66"/><polygon class="cls-21" points="85.33 76.32 85.29 92.62 85.21 92.34 85.25 76.04 85.33 76.32"/><polygon class="cls-63" points="100.5 77.25 100.45 93.55 99.71 93.44 99.76 77.14 100.5 77.25"/><polygon class="cls-64" points="114.22 76.19 114.18 92.49 113.2 93.59 113.25 77.29 114.22 76.19"/><polygon class="cls-65" points="101.48 77.26 101.44 93.56 100.45 93.55 100.5 77.25 101.48 77.26"/><polygon class="cls-24" points="99.76 77.14 99.71 93.44 97.14 93.55 97.18 77.25 99.76 77.14"/><polygon class="cls-59" points="102.05 77.37 102 93.67 101.44 93.56 101.48 77.26 102.05 77.37"/><polygon class="cls-21" points="85.56 77.53 85.51 93.83 85.21 93.21 85.26 76.91 85.56 77.53"/><polygon class="cls-66" points="86.6 77.45 86.55 93.75 85.51 93.83 85.56 77.53 86.6 77.45"/><polygon class="cls-37" points="90.67 77.62 90.62 93.92 86.55 93.75 86.6 77.45 90.67 77.62"/><polygon class="cls-67" points="97.18 77.25 97.14 93.55 93.97 93.94 94.01 77.63 97.18 77.25"/><polygon class="cls-68" points="91.36 77.8 91.31 94.1 90.62 93.92 90.67 77.62 91.36 77.8"/><polygon class="cls-55" points="94.01 77.63 93.97 93.94 91.31 94.1 91.36 77.8 94.01 77.63"/><polygon class="cls-69" points="104.85 77.96 104.81 94.26 102 93.67 102.05 77.37 104.85 77.96"/><polygon class="cls-70" points="106.69 78.55 106.64 94.85 104.81 94.26 104.85 77.96 106.69 78.55"/><polygon class="cls-34" points="107.46 78.74 107.42 95.04 106.64 94.85 106.69 78.55 107.46 78.74"/><polygon class="cls-39" points="108.59 78.45 108.54 94.75 107.42 95.04 107.46 78.74 108.59 78.45"/><polygon class="cls-23" points="113.25 77.29 113.2 93.59 112.3 95.15 112.34 78.84 113.25 77.29"/><polygon class="cls-43" points="109.26 78.84 109.22 95.15 108.54 94.75 108.59 78.45 109.26 78.84"/><polygon class="cls-40" points="112.34 78.84 112.3 95.15 111.08 95.41 111.12 79.1 112.34 78.84"/><polygon class="cls-32" points="109.57 79.12 109.52 95.43 109.22 95.15 109.26 78.84 109.57 79.12"/><polygon class="cls-2" points="111.12 79.1 111.08 95.41 110.77 95.56 110.81 79.26 111.12 79.1"/><polygon class="cls-21" points="109.76 79.44 109.71 95.74 109.52 95.43 109.57 79.12 109.76 79.44"/><polygon class="cls-71" points="110.67 15.12 109.58 15.68 108.64 16.07 107.89 16.51 107.55 16.82 107 17.52 106.55 17.83 105.31 18.3 105.04 18.5 104.94 19.32 104.74 19.81 107.35 21.01 107.7 21.62 107.52 22.85 107.83 23.64 108.48 24.02 108.1 25.28 107.96 25.52 107.9 25.8 108.42 26.07 109.76 26.43 111.14 26.66 111.69 27.69 111.11 28.71 111.21 29.88 111.32 30.13 113.48 30.45 114.24 30.77 115.16 30.9 115.7 31.45 115.74 32.18 115.28 32.87 115.22 33.23 115.3 33.5 115.8 34.41 116.14 34.8 116.78 35.07 117.53 35.21 119.2 34.44 119.31 34.21 119.32 33.97 119.22 33.7 120.61 33.54 121.54 33.29 122.16 33.93 122.89 34.26 124.89 34.85 125.72 35.51 126.08 35.04 126.9 35.16 128.61 36.57 128.97 36.74 129.42 36.84 129.91 36.89 130.37 36.89 131.43 36.62 132.7 36.33 133.6 36.45 134.27 36.65 135.9 38.29 135.49 38.48 134.96 38.64 131.07 41.73 131.11 42.56 132.1 44.85 131.87 46.51 132.32 47.17 132.42 47.43 132.42 47.68 131.79 48.01 131.69 48.55 131.65 49.09 132.27 51.43 132.03 52.65 131.89 52.89 131.91 53.2 130.88 55.2 128.23 57.28 127.44 57.97 126 58.87 125.27 61.37 126.42 62.25 126.52 63.08 126.7 63.68 126.85 64.09 126.52 64.65 126.38 64.9 126.36 65.14 126.48 65.37 126.8 65.56 126.89 65.83 126.48 66.21 123.66 67.93 123.19 68.38 122.86 68.8 121.3 69.57 120.15 70.9 119.55 71.84 119.57 72.74 118.55 73.81 117.27 74.67 114.69 75.66 114.22 76.19 113.25 77.29 112.34 78.84 111.12 79.1 110.81 79.26 110.39 79.58 109.76 79.44 109.57 79.12 109.26 78.84 108.59 78.45 107.46 78.74 106.69 78.55 104.85 77.96 102.05 77.37 101.48 77.26 100.5 77.25 99.76 77.14 97.18 77.25 94.01 77.63 91.36 77.8 90.67 77.62 86.6 77.45 85.56 77.53 85.26 76.91 85.33 76.32 85.25 76.04 84.93 75.47 86.41 74.25 88.82 73.4 89.68 72.62 89.99 72.45 90.47 72.28 91.2 71.53 91.61 71.31 93.08 70.88 93.45 70.65 94.57 69.58 94.1 69.51 93.08 69.7 92.52 69.73 91.74 69.67 89.98 69.71 85.19 68.74 84.71 68.39 83.63 68.08 83.01 67.77 82.27 67.4 81.89 67.13 80.95 66.34 80.77 65.77 79.96 65.5 79.35 65.35 78.25 64.59 73.83 63.41 73.15 63.14 71.3 62.53 67.02 62.55 65.61 62.28 63.12 63.67 59.47 63.33 55.83 62.97 51.21 61.27 50.78 61.12 50.17 60.92 49.77 60.69 49.68 60.38 49.66 58.7 49.31 58.05 48.54 57.23 48.34 56.91 48.27 56.65 48.18 56.37 48.1 56.1 48.03 55.82 47.94 55.54 47.86 55.27 47.77 54.99 47.7 54.72 47.61 54.44 47.53 54.16 47.44 53.89 47.37 53.62 47.29 53.34 47.2 53.06 47.12 52.78 47.03 52.51 46.95 52.23 46.88 51.97 46.84 51.53 46.82 51.06 46.79 50.76 46.77 50.31 46.73 49.86 46.7 49.41 46.67 48.97 46.64 48.52 46.61 48.07 46.58 47.62 46.55 47.18 46.52 46.73 46.48 46.28 46.46 45.83 46.42 45.38 46.39 44.94 46.36 44.49 46.33 44.04 46.29 43.59 46.28 43.32 45.67 42.77 45.39 42.58 45.09 42.38 44.81 42.18 44.52 41.99 43.94 41.59 43.65 41.39 43.36 41.19 43.07 40.99 42.78 40.79 42.49 40.6 42.2 40.4 41.91 40.2 41.62 40 41.33 39.8 41.04 39.6 40.75 39.41 40.46 39.21 40.17 39.01 39.88 38.81 39.59 38.61 39.3 38.41 38.72 38.01 38.43 37.82 38.14 37.62 37.84 37.42 37.55 37.22 37.26 37.02 36.97 36.82 36.68 36.62 36.39 36.42 36.09 36.23 35.8 36.02 35.51 35.82 35.22 35.62 34.92 35.42 34.64 35.23 34.35 35.03 34.05 34.83 33.76 34.63 33.47 34.43 33.17 34.23 32.88 34.03 32.59 33.83 32.3 33.63 32 33.43 31.71 33.23 31.42 33.03 31.13 32.83 30.83 32.63 30.53 32.43 30.24 32.23 29.95 32.03 29.66 31.83 29.36 31.63 29.07 31.43 28.77 31.23 28.48 31.02 28.19 30.82 27.9 30.63 27.6 30.42 27.31 30.22 27.03 30.04 26.69 29.6 26.39 29 26.17 28.57 25.94 28.13 25.72 27.7 24.01 27.25 23.19 27.23 22.38 27.2 21.56 27.18 20.21 27.23 19.07 26.97 18.8 26.75 18.69 26.5 18.8 26.26 13.06 25.56 12.37 25.67 11.31 25.23 10.77 24.93 10.16 24.58 9.55 24.25 9.02 23.95 8.64 23.73 8.15 23.52 7.8 23.38 7.44 23.23 6.92 23.02 6.39 22.81 5.86 22.59 5.33 22.38 4.8 22.17 4.28 21.95 3.75 21.74 3.22 21.53 2.69 21.31 2.16 21.1 1.63 20.89 1.1 20.68 0.58 20.46 0.05 20.25 0.3 19.81 0.49 19.48 0.68 19.15 0.88 18.83 1.07 18.49 1.26 18.17 1.45 17.83 1.65 17.51 1.84 17.17 2.04 16.84 2.23 16.51 2.42 16.18 2.61 15.85 2.81 15.52 3 15.19 3.19 14.86 3.34 14.61 4.38 14.35 5.64 14.13 6.9 13.91 8.15 13.69 9.41 13.47 10.67 13.25 11.93 13.03 13.18 12.81 14.43 12.59 15.69 12.36 16.94 12.14 18.2 11.92 19.46 11.7 20.7 11.47 21.96 11.25 23.22 11.03 24.47 10.8 25.73 10.58 26.97 10.36 28.23 10.14 29.48 9.92 30.74 9.69 31.99 9.47 33.24 9.24 34.49 9.02 35.75 8.8 37 8.57 38.25 8.35 39.5 8.13 40.75 7.9 42 7.68 43.26 7.45 44.5 7.23 45.75 7.01 47.01 6.78 48.26 6.56 49.51 6.34 50.75 6.11 52 5.88 53.26 5.66 54.51 5.43 55.75 5.21 57 4.98 58.25 4.76 59.5 4.53 60.75 4.31 62 4.08 63.24 3.86 64.49 3.63 65.74 3.4 66.99 3.17 68.24 2.95 69.48 2.72 70.73 2.5 71.98 2.27 73.22 2.04 74.47 1.81 75.72 1.59 76.96 1.36 78.21 1.14 79.45 0.91 80.69 0.68 81.95 0.46 83.19 0.23 84.44 0 86.07 0.94 87.69 1.88 89.32 2.82 90.94 3.75 92.57 4.68 94.19 5.62 95.8 6.55 97.41 7.48 99.03 8.41 100.64 9.34 102.25 10.27 103.85 11.2 105.46 12.12 107.07 13.04 108.67 13.97 110.26 14.89 110.67 15.12"/><polygon class="cls-72" points="110.39 79.58 110.35 95.88 109.71 95.74 109.76 79.44 110.39 79.58"/><polygon class="cls-39" points="110.81 79.26 110.77 95.56 110.35 95.88 110.39 79.58 110.81 79.26"/></g></g></g></svg>