<?xml version="1.0" encoding="utf-8"?>
<!-- Generator: Adobe Illustrator 22.1.0, SVG Export Plug-In . SVG Version: 6.00 Build 0)  -->
<svg version="1.1" id="Layer_1" xmlns="http://www.w3.org/2000/svg" xmlns:xlink="http://www.w3.org/1999/xlink" x="0px" y="0px"
	 viewBox="0 0 57.6 74.2" style="enable-background:new 0 0 57.6 74.2;" xml:space="preserve">
<style type="text/css">
	.st0{fill:#481212;}
	.st1{fill:#681919;}
	.st2{fill:#4F1313;}
	.st3{fill:#491212;}
	.st4{fill:#5D1717;}
	.st5{fill:#4B1212;}
	.st6{fill:#681A1A;}
	.st7{fill:#4E1313;}
	.st8{fill:#701B1B;}
	.st9{fill:#7C1E1E;}
	.st10{fill:#711C1C;}
	.st11{fill:#4C1313;}
	.st12{fill:#671919;}
	.st13{fill:#852121;}
	.st14{fill:#982525;}
	.st15{fill:#A42828;}
	.st16{fill:#952424;}
	.st17{fill:#9C2626;}
	.st18{fill:#A22828;}
	.st19{fill:#6B1A1A;}
	.st20{fill:#832020;}
	.st21{fill:#9B2626;}
	.st22{fill:#661919;}
	.st23{fill:#A02727;}
	.st24{fill:#541515;}
	.st25{fill:#992626;}
	.st26{fill:#771D1D;}
	.st27{fill:#6E1B1B;}
	.st28{fill:#551515;}
	.st29{fill:#801F1F;}
	.st30{fill:#8D2323;}
	.st31{fill:#4A1212;}
	.st32{fill:#5A1616;}
	.st33{fill:#5F1717;}
	.st34{fill:#A82929;}
	.st35{fill:#992525;}
	.st36{fill:#581616;}
	.st37{fill:#A52828;}
	.st38{fill:#7B1E1E;}
	.st39{fill:#862121;}
	.st40{fill:#761D1D;}
	.st41{fill:#8B2222;}
	.st42{fill:#4D1313;}
	.st43{fill:#651919;}
	.st44{fill:#791E1E;}
	.st45{fill:#6A1A1A;}
	.st46{fill:#972525;}
	.st47{fill:#842020;}
	.st48{fill:#751D1D;}
	.st49{fill:#A32828;}
	.st50{fill:#6C1A1A;}
	.st51{fill:#A62929;}
	.st52{fill:#8F2323;}
	.st53{fill:#A92929;}
	.st54{fill:#621818;}
	.st55{fill:#9D2727;}
	.st56{fill:#531414;}
	.st57{fill:#6F1B1B;}
	.st58{fill:#601717;}
	.st59{fill:#932424;}
	.st60{fill:#5B1616;}
	.st61{fill:#5C1616;}
	.st62{fill:#8A2222;}
	.st63{fill:#872121;}
	.st64{fill:#892222;}
	.st65{fill:#641919;}
	.st66{fill:#7E1F1F;}
	.st67{fill:#8E2323;}
	.st68{fill:#9F2727;}
	.st69{fill:#7F1F1F;}
	.st70{fill:#9E2727;}
	.st71{fill:#691A1A;}
	.st72{fill:#922424;}
	.st73{fill:#A52929;}
	.st74{fill:#A72929;}
	.st75{fill:#942424;}
	.st76{fill:#561515;}
	.st77{fill:#731C1C;}
	.st78{fill:#822020;}
	.st79{fill:#8C2222;}
	.st80{fill:#6D1B1B;}
	.st81{fill:#521414;}
	.st82{fill:#A12727;}
	.st83{fill:#601818;}
	.st84{fill:#9D2626;}
	.st85{fill:#962525;}
	.st86{fill:#9A2626;}
	.st87{fill:#912424;}
	.st88{fill:#882121;}
	.st89{fill:#902323;}
	.st90{fill:#C83131;}
</style>
<title>Congo</title>
<g id="Layer_2_1_">
	<g id="Layer_1-2">
		<g>
			<polygon class="st0" points="17.1,4.3 17.1,20.6 17,20.4 17.1,4.1 			"/>
			<polygon class="st1" points="30.5,4.6 30.4,20.9 30.4,21.4 30.4,5.1 			"/>
			<polygon class="st0" points="13.1,8 13,24.3 13,24 13,7.7 			"/>
			<polygon class="st0" points="13.3,8.2 13.2,24.5 13,24.3 13.1,8 			"/>
			<polygon class="st2" points="13.8,8.6 13.7,24.9 13.2,24.5 13.3,8.2 			"/>
			<polygon class="st3" points="14.3,9.1 14.2,25.4 13.7,24.9 13.8,8.6 			"/>
			<polygon class="st0" points="14.4,9.4 14.3,25.7 14.2,25.4 14.3,9.1 			"/>
			<polygon class="st4" points="15.2,9.8 15.1,26.1 14.3,25.7 14.4,9.4 			"/>
			<polygon class="st5" points="15.4,9.9 15.3,26.3 15.1,26.1 15.2,9.8 			"/>
			<polygon class="st0" points="15.6,10.4 15.6,26.7 15.3,26.3 15.4,9.9 			"/>
			<polygon class="st6" points="16.6,10.7 16.6,27 15.6,26.7 15.6,10.4 			"/>
			<polygon class="st0" points="16.9,11.1 16.8,27.4 16.6,27 16.6,10.7 			"/>
			<polygon class="st0" points="17,11.3 17,27.6 16.8,27.4 16.9,11.1 			"/>
			<polygon class="st0" points="17.1,11.5 17.1,27.8 17,27.6 17,11.3 			"/>
			<polygon class="st0" points="17.5,12 17.4,28.3 17.1,27.8 17.1,11.5 			"/>
			<polygon class="st0" points="17.8,12.6 17.7,28.9 17.4,28.3 17.5,12 			"/>
			<polygon class="st0" points="18,12.9 18,29.2 17.7,28.9 17.8,12.6 			"/>
			<polygon class="st0" points="18.4,13.5 18.3,29.8 18,29.2 18,12.9 			"/>
			<polygon class="st0" points="18.9,14.2 18.9,30.5 18.3,29.8 18.4,13.5 			"/>
			<polygon class="st7" points="19.2,15.3 19.2,31.6 18.5,31 18.5,14.7 			"/>
			<polygon class="st0" points="19.3,15.4 19.3,31.8 19.2,31.6 19.2,15.3 			"/>
			<polygon class="st8" points="19.8,15.6 19.8,31.9 19.3,31.8 19.3,15.4 			"/>
			<polygon class="st9" points="20.1,15.6 20.1,31.9 19.8,31.9 19.8,15.6 			"/>
			<polygon class="st10" points="20.9,15.8 20.9,32.1 20.1,31.9 20.1,15.6 			"/>
			<polygon class="st11" points="21.6,16.4 21.6,32.7 20.9,32.1 20.9,15.8 			"/>
			<polygon class="st0" points="21.8,16.8 21.7,33.1 21.6,32.7 21.6,16.4 			"/>
			<polygon class="st12" points="47.6,21.5 47.6,37.8 47.6,38 47.6,21.7 			"/>
			<polygon class="st13" points="47.7,21.8 47.6,38.1 47.5,38.3 47.6,22 			"/>
			<polygon class="st14" points="47.6,22.2 47.5,38.5 47.3,38.9 47.3,22.6 			"/>
			<polygon class="st15" points="47.3,22.6 47.3,38.9 47,39.1 47,22.8 			"/>
			<polygon class="st16" points="47,22.8 47,39.1 46.6,39.5 46.7,23.2 			"/>
			<polygon class="st17" points="46.7,23.2 46.6,39.5 46.4,39.8 46.5,23.5 			"/>
			<polygon class="st18" points="46.5,23.5 46.4,39.8 46.2,39.9 46.3,23.6 			"/>
			<polygon class="st1" points="46.3,23.6 46.2,39.9 46.2,40.3 46.2,24 			"/>
			<polygon class="st19" points="46.2,24 46.2,40.3 46.2,40.6 46.2,24.3 			"/>
			<polygon class="st10" points="46.3,24.5 46.2,40.8 46.2,41.2 46.2,24.9 			"/>
			<polygon class="st20" points="46.2,24.9 46.2,41.2 46.1,41.3 46.1,25 			"/>
			<polygon class="st21" points="12,25 11.9,35.3 10.7,35.5 10.8,25.2 			"/>
			<polygon class="st22" points="12.5,25.2 12.4,35.5 11.9,35.3 12,25 			"/>
			<polygon class="st4" points="12.7,25.3 12.6,35.6 12.4,35.5 12.5,25.2 			"/>
			<polygon class="st23" points="10.8,25.2 10.7,35.5 10.3,35.9 10.4,25.6 			"/>
			<polygon class="st24" points="13.2,25.6 13.1,35.9 12.6,35.6 12.7,25.3 			"/>
			<polygon class="st25" points="14.3,25.6 14.3,35.9 13.6,36 13.6,25.7 			"/>
			<polygon class="st26" points="13.6,25.7 13.6,36 13.1,35.9 13.2,25.6 			"/>
			<polygon class="st27" points="15,25.8 14.9,36.1 14.3,35.9 14.3,25.6 			"/>
			<polygon class="st28" points="0.4,25.8 0.4,36.1 0,35.8 0.1,25.5 			"/>
			<polygon class="st29" points="15.2,25.8 15.2,36.1 14.9,36.1 15,25.8 			"/>
			<polygon class="st30" points="15.7,25.8 15.7,36.1 15.2,36.1 15.2,25.8 			"/>
			<polygon class="st31" points="0.7,26 0.7,36.3 0.4,36.1 0.4,25.8 			"/>
			<polygon class="st32" points="16.2,26.1 16.2,36.4 15.7,36.1 15.7,25.8 			"/>
			<polygon class="st33" points="16.6,26.2 16.5,36.5 16.2,36.4 16.2,26.1 			"/>
			<polygon class="st34" points="10.4,25.6 10.3,35.9 8.1,36.7 8.2,26.4 			"/>
			<polygon class="st0" points="16.6,26.5 16.6,36.8 16.5,36.5 16.6,26.2 			"/>
			<polygon class="st0" points="16.6,27.1 16.6,37.4 16.5,37.2 16.6,26.9 			"/>
			<polygon class="st31" points="1.6,27.2 1.5,37.5 0.6,36.6 0.6,26.3 			"/>
			<polygon class="st7" points="17.1,27.5 17,37.8 16.6,37.4 16.6,27.1 			"/>
			<polygon class="st21" points="8.3,26.8 8.2,37.1 7.4,38 7.5,27.6 			"/>
			<polygon class="st0" points="2.2,28 2.2,38.2 1.5,37.5 1.6,27.2 			"/>
			<polygon class="st35" points="7.5,27.9 7.5,38.2 7.3,38.4 7.3,28.1 			"/>
			<polygon class="st34" points="7.3,28.1 7.3,38.4 7.1,38.5 7.1,28.2 			"/>
			<polygon class="st36" points="2.7,28.2 2.7,38.5 2.2,38.2 2.2,28 			"/>
			<polygon class="st34" points="7.1,28.2 7.1,38.5 6.8,38.6 6.9,28.3 			"/>
			<polygon class="st0" points="2.7,28.4 2.7,38.7 2.7,38.5 2.7,28.2 			"/>
			<polygon class="st37" points="6.9,28.3 6.8,38.6 6.5,38.7 6.6,28.4 			"/>
			<polygon class="st38" points="3,28.4 3,38.7 2.7,38.7 2.7,28.4 			"/>
			<polygon class="st39" points="3.9,28.5 3.9,38.8 3,38.7 3,28.4 			"/>
			<polygon class="st40" points="4.6,28.6 4.5,38.9 3.9,38.8 3.9,28.5 			"/>
			<polygon class="st41" points="6.6,28.4 6.5,38.7 6.1,39.4 6.1,29.1 			"/>
			<polygon class="st42" points="16.5,29.2 16.5,39.5 15.9,39 15.9,28.7 			"/>
			<polygon class="st0" points="16.5,29.4 16.5,39.7 16.5,39.5 16.5,29.2 			"/>
			<polygon class="st15" points="6.1,29.1 6.1,39.4 5.7,39.7 5.7,29.4 			"/>
			<polygon class="st2" points="5.7,29.4 5.7,39.7 4.5,38.9 4.6,28.6 			"/>
			<polygon class="st40" points="48,29.6 48,45.9 47.9,46.2 47.9,29.9 			"/>
			<polygon class="st0" points="16.3,30 16.3,40.3 16.3,40.1 16.3,29.8 			"/>
			<polygon class="st43" points="47.9,29.9 47.9,46.2 47.9,46.6 47.9,30.3 			"/>
			<polygon class="st44" points="47.9,30.3 47.9,46.6 47.8,46.8 47.9,30.5 			"/>
			<polygon class="st0" points="16.6,30.4 16.6,40.7 16.3,40.3 16.3,30 			"/>
			<polygon class="st45" points="47.9,30.5 47.8,46.8 47.8,46.9 47.8,30.6 			"/>
			<polygon class="st0" points="17,30.9 17,41.2 16.6,40.7 16.6,30.4 			"/>
			<polygon class="st12" points="17.5,31.1 17.5,41.4 17,41.2 17,30.9 			"/>
			<polygon class="st46" points="25.8,31.4 25.7,47.7 25.1,47.8 25.1,31.5 			"/>
			<polygon class="st47" points="25.1,31.5 25.1,47.8 24.7,41.7 24.8,25.4 			"/>
			<polygon class="st21" points="24.8,25.4 24.7,41.7 24.4,41.8 24.4,25.5 			"/>
			<polygon class="st48" points="26.2,31.5 26.2,47.8 25.7,47.7 25.8,31.4 			"/>
			<polygon class="st49" points="24.4,25.5 24.4,41.8 24,41.8 24.1,25.5 			"/>
			<polygon class="st50" points="26.5,31.6 26.4,47.9 26.2,47.8 26.2,31.5 			"/>
			<polygon class="st51" points="24.1,25.5 24,41.8 23.8,41.9 23.8,25.6 			"/>
			<polygon class="st31" points="26.6,31.7 26.6,48 26.4,47.9 26.5,31.6 			"/>
			<polygon class="st52" points="21.8,25.8 21.8,42.1 21.4,42.1 21.5,25.8 			"/>
			<polygon class="st40" points="22.1,25.8 22.1,42.1 21.8,42.1 21.8,25.8 			"/>
			<polygon class="st23" points="21.5,25.8 21.4,42.1 21.1,42.2 21.1,25.8 			"/>
			<polygon class="st24" points="18.9,31.9 18.8,42.2 17.5,41.4 17.5,31.1 			"/>
			<polygon class="st19" points="22.5,25.9 22.4,42.2 22.1,42.1 22.1,25.8 			"/>
			<polygon class="st53" points="21.1,25.8 21.1,42.2 20.8,42.3 20.8,26 			"/>
			<polygon class="st54" points="22.8,26.1 22.8,42.4 22.4,42.2 22.5,25.9 			"/>
			<polygon class="st53" points="23.8,25.6 23.8,41.9 22.8,42.4 22.8,26.1 			"/>
			<polygon class="st55" points="20.8,26 20.8,42.3 20.6,42.5 20.6,26.2 			"/>
			<polygon class="st0" points="27,32.2 26.9,48.5 26.6,48 26.6,31.7 			"/>
			<polygon class="st0" points="19,32.3 18.9,42.6 18.8,42.2 18.9,31.9 			"/>
			<polygon class="st49" points="20.6,26.2 20.6,42.5 20,42.6 20,26.3 			"/>
			<polygon class="st7" points="27.2,32.4 27.2,48.7 26.9,48.5 27,32.2 			"/>
			<polygon class="st0" points="19.1,32.4 19,42.7 18.9,42.6 19,32.3 			"/>
			<polygon class="st1" points="27.5,32.5 27.4,48.8 27.2,48.7 27.2,32.4 			"/>
			<polygon class="st37" points="20,26.3 20,42.6 19.2,42.8 19.2,32.5 			"/>
			<polygon class="st56" points="19.2,32.5 19.2,42.8 19,42.7 19.1,32.4 			"/>
			<polygon class="st7" points="27.8,32.7 27.7,49 27.4,48.8 27.5,32.5 			"/>
			<polygon class="st0" points="27.8,32.9 27.7,49.2 27.7,49 27.8,32.7 			"/>
			<polygon class="st0" points="27.9,33.1 27.9,49.4 27.7,49.2 27.8,32.9 			"/>
			<polygon class="st5" points="28.4,33.5 28.3,49.8 27.9,49.4 27.9,33.1 			"/>
			<polygon class="st57" points="30.2,34 30.1,50.3 28.3,49.8 28.4,33.5 			"/>
			<polygon class="st7" points="31,34.6 30.9,50.9 30.1,50.3 30.2,34 			"/>
			<polygon class="st36" points="31.7,35 31.7,51.3 30.9,50.9 31,34.6 			"/>
			<polygon class="st58" points="32.3,35.2 32.3,51.5 31.7,51.3 31.7,35 			"/>
			<polygon class="st52" points="33.1,35.8 33.1,52.1 32.3,52.1 32.4,35.8 			"/>
			<polygon class="st0" points="32.4,35.8 32.3,52.1 32.3,51.5 32.3,35.2 			"/>
			<polygon class="st0" points="33.2,36.2 33.1,52.5 33.1,52.1 33.1,35.8 			"/>
			<polygon class="st56" points="33.7,36.5 33.6,52.8 33.1,52.5 33.2,36.2 			"/>
			<polygon class="st5" points="33.9,36.6 33.8,52.9 33.6,52.8 33.7,36.5 			"/>
			<polygon class="st28" points="34.2,36.8 34.2,53.1 33.8,52.9 33.9,36.6 			"/>
			<polygon class="st0" points="34.3,38 34.2,54.3 34.1,53.3 34.2,37 			"/>
			<polygon class="st0" points="34.9,38.7 34.8,55 34.2,54.3 34.3,38 			"/>
			<polygon class="st43" points="57.6,38.7 57.5,49 57.5,49.2 57.6,38.9 			"/>
			<polygon class="st47" points="57.6,38.9 57.5,49.2 57.4,49.5 57.5,39.2 			"/>
			<polygon class="st59" points="35.9,39.1 35.8,55.4 34.9,55.4 35,39.1 			"/>
			<polygon class="st60" points="35,39.1 34.9,55.4 34.7,55.3 34.7,39 			"/>
			<polygon class="st61" points="36.1,39.2 36,55.5 35.8,55.4 35.9,39.1 			"/>
			<polygon class="st17" points="57.5,39.2 57.4,49.5 57.2,49.7 57.2,39.4 			"/>
			<polygon class="st49" points="57.2,39.4 57.2,49.7 57,49.9 57,39.6 			"/>
			<polygon class="st15" points="57,39.6 57,49.9 56.7,50.1 56.8,39.8 			"/>
			<polygon class="st25" points="56.8,39.8 56.7,50.1 56,50.8 56.1,40.5 			"/>
			<polygon class="st0" points="31.6,40.7 31.5,57 31.1,56.4 31.2,40.1 			"/>
			<polygon class="st20" points="56.5,41.5 56.5,51.8 56.4,52.1 56.4,41.8 			"/>
			<polygon class="st16" points="56.4,41.8 56.4,52.1 56.2,52.3 56.3,42 			"/>
			<polygon class="st0" points="31.6,42 31.5,58.3 31.5,57 31.6,40.7 			"/>
			<polygon class="st62" points="56.3,42 56.2,52.3 55.9,52.9 55.9,42.6 			"/>
			<polygon class="st63" points="55.9,42.6 55.9,52.9 55.7,53.2 55.8,42.9 			"/>
			<polygon class="st20" points="55.8,42.9 55.7,53.2 55.6,53.3 55.7,43 			"/>
			<polygon class="st6" points="56.1,44.1 56,54.4 56,54.5 56,44.2 			"/>
			<polygon class="st64" points="56,44.2 56,54.5 55.8,54.8 55.9,44.5 			"/>
			<polygon class="st32" points="21.9,44.8 21.9,55.1 21.1,54.7 21.1,44.4 			"/>
			<polygon class="st65" points="22.2,44.9 22.2,55.2 21.9,55.1 21.9,44.8 			"/>
			<polygon class="st66" points="22.6,44.9 22.5,55.2 22.2,55.2 22.2,44.9 			"/>
			<polygon class="st67" points="23,44.9 23,61.2 22.5,55.2 22.6,44.9 			"/>
			<polygon class="st0" points="23.2,45.3 23.2,61.6 23,61.2 23,44.9 			"/>
			<polygon class="st54" points="23.6,45.4 23.5,61.7 23.2,61.6 23.2,45.3 			"/>
			<polygon class="st3" points="23.7,45.5 23.6,61.8 23.5,61.7 23.6,45.4 			"/>
			<polygon class="st0" points="23.8,45.7 23.8,62 23.6,61.8 23.7,45.5 			"/>
			<polygon class="st60" points="24.2,45.9 24.2,62.2 23.8,62 23.8,45.7 			"/>
			<polygon class="st29" points="50.7,46.2 50.7,56.5 50.4,56.5 50.4,46.2 			"/>
			<polygon class="st64" points="51,46.2 50.9,56.5 50.7,56.5 50.7,46.2 			"/>
			<polygon class="st46" points="50.4,46.2 50.4,56.5 49.6,56.6 49.6,46.3 			"/>
			<polygon class="st68" points="49.6,46.3 49.6,56.6 49.3,56.8 49.4,46.5 			"/>
			<polygon class="st10" points="56.3,46.1 56.2,56.4 56.1,57 56.2,46.7 			"/>
			<polygon class="st42" points="51.6,46.8 51.6,57 50.9,56.5 51,46.2 			"/>
			<polygon class="st57" points="49.4,46.5 49.3,56.8 49.3,57.2 49.3,46.9 			"/>
			<polygon class="st69" points="56.2,46.7 56.1,57 56,57.4 56,47.1 			"/>
			<polygon class="st67" points="49.3,46.9 49.3,57.2 49.2,57.4 49.2,47.1 			"/>
			<polygon class="st14" points="56,47.1 56,57.4 55.8,57.5 55.9,47.2 			"/>
			<polygon class="st0" points="51.8,47.2 51.7,57.5 51.6,57 51.6,46.8 			"/>
			<polygon class="st35" points="49.2,47.1 49.2,57.4 49,57.6 49,47.3 			"/>
			<polygon class="st51" points="55.9,47.2 55.8,57.5 55.6,57.7 55.7,47.4 			"/>
			<polygon class="st70" points="55.7,47.4 55.6,57.7 55.2,57.8 55.2,47.5 			"/>
			<polygon class="st37" points="49,47.3 49,57.6 48.5,58 48.5,47.7 			"/>
			<polygon class="st71" points="53.4,47.8 53.3,58.1 51.7,57.5 51.8,47.2 			"/>
			<polygon class="st72" points="48.5,47.7 48.5,58 48.3,58.2 48.4,47.9 			"/>
			<polygon class="st53" points="55.2,47.5 55.2,57.8 54.2,58.3 54.2,48 			"/>
			<polygon class="st73" points="54.2,48 54.2,58.3 53.7,58.4 53.8,48.1 			"/>
			<polygon class="st5" points="53.8,48.1 53.7,58.4 53.3,58.1 53.4,47.8 			"/>
			<polygon class="st53" points="48.4,48.4 48.4,58.7 48.1,58.9 48.1,48.6 			"/>
			<polygon class="st62" points="47.9,48.7 47.9,59 47.4,59 47.4,48.7 			"/>
			<polygon class="st74" points="48.1,48.6 48.1,58.9 47.9,59 47.9,48.7 			"/>
			<polygon class="st75" points="47.4,48.7 47.4,59 47,59 47.1,48.7 			"/>
			<polygon class="st23" points="47.1,48.7 47,59 46.6,59.4 46.6,49.1 			"/>
			<polygon class="st19" points="19.1,49.7 19,59.9 18.4,59.7 18.4,49.4 			"/>
			<polygon class="st76" points="19.7,50 19.7,60.3 19,59.9 19.1,49.7 			"/>
			<polygon class="st6" points="20.8,50.4 20.8,60.7 19.7,60.3 19.7,50 			"/>
			<polygon class="st0" points="20.9,50.5 20.9,60.8 20.8,60.7 20.8,50.4 			"/>
			<polygon class="st77" points="48.1,50.1 48.1,60.4 47.9,61.2 47.9,50.9 			"/>
			<polygon class="st15" points="47.9,50.9 47.9,61.2 47.4,61.3 47.5,51 			"/>
			<polygon class="st78" points="22.9,51 22.9,61.4 22.3,61.3 22.4,51 			"/>
			<polygon class="st79" points="24,51.1 23.9,61.4 22.9,61.4 22.9,51 			"/>
			<polygon class="st80" points="24.3,51.2 24.3,61.5 23.9,61.4 24,51.1 			"/>
			<polygon class="st74" points="22.4,51 22.3,61.3 21.8,61.5 21.8,51.2 			"/>
			<polygon class="st70" points="47.5,51 47.4,61.3 47.1,61.6 47.2,51.3 			"/>
			<polygon class="st0" points="21.3,51.3 21.2,61.6 20.9,60.8 20.9,50.5 			"/>
			<polygon class="st38" points="21.8,51.2 21.8,61.5 21.7,61.8 21.7,51.5 			"/>
			<polygon class="st65" points="21.7,51.5 21.7,61.8 21.2,61.6 21.3,51.3 			"/>
			<polygon class="st18" points="27.3,51.6 27.2,61.9 26.8,62 26.9,51.7 			"/>
			<polygon class="st0" points="24.2,51.8 24.1,62.1 24,61.8 24,51.5 			"/>
			<polygon class="st74" points="26.9,51.7 26.8,62 26.4,62.1 26.5,51.8 			"/>
			<polygon class="st81" points="27.6,51.8 27.6,62.1 27.2,61.9 27.3,51.6 			"/>
			<polygon class="st82" points="26.5,51.8 26.4,62.1 26.1,62.2 26.1,51.9 			"/>
			<polygon class="st16" points="26.1,51.9 26.1,62.2 25.6,62.2 25.6,51.9 			"/>
			<polygon class="st65" points="46.9,52 46.9,62.3 46.6,62.2 46.6,51.9 			"/>
			<polygon class="st41" points="47.3,52 47.3,62.3 46.9,62.3 46.9,52 			"/>
			<polygon class="st47" points="43.9,52 43.9,62.3 43.4,62.3 43.4,52 			"/>
			<polygon class="st70" points="46.6,51.9 46.6,62.2 45.7,62.4 45.7,52 			"/>
			<polygon class="st29" points="44.2,52.1 44.1,62.4 43.9,62.3 43.9,52 			"/>
			<polygon class="st16" points="45.7,52 45.7,62.4 44.9,62.4 44.9,52.1 			"/>
			<polygon class="st83" points="24.9,52.1 24.9,62.4 24.1,62.1 24.2,51.8 			"/>
			<polygon class="st82" points="25.6,51.9 25.6,62.2 24.9,62.4 24.9,52.1 			"/>
			<polygon class="st21" points="44.9,52.1 44.9,62.4 44.6,62.4 44.6,52.1 			"/>
			<polygon class="st44" points="44.6,52.1 44.6,62.4 44.1,62.4 44.2,52.1 			"/>
			<polygon class="st20" points="43.4,52 43.4,62.3 43.3,62.5 43.3,52.2 			"/>
			<polygon class="st0" points="27.6,52.2 27.6,62.6 27.5,62.4 27.5,52.1 			"/>
			<polygon class="st8" points="41.4,52.4 41.4,62.7 40.9,62.6 41,52.3 			"/>
			<polygon class="st16" points="42.2,52.4 42.1,62.7 41.6,62.7 41.7,52.4 			"/>
			<polygon class="st64" points="41.7,52.4 41.6,62.7 41.4,62.7 41.4,52.4 			"/>
			<polygon class="st64" points="43.1,52.5 43.1,62.8 42.1,62.7 42.2,52.4 			"/>
			<polygon class="st23" points="43.6,52.4 43.5,62.7 43.1,62.8 43.1,52.5 			"/>
			<polygon class="st34" points="41,52.3 40.9,62.6 39.8,63.1 39.8,52.8 			"/>
			<polygon class="st36" points="29.4,53.2 29.3,63.5 27.6,62.6 27.6,52.2 			"/>
			<polygon class="st0" points="29.4,53.3 29.3,63.6 29.3,63.5 29.4,53.2 			"/>
			<polygon class="st84" points="40.1,53.7 40,64 39.4,64.7 39.4,54.4 			"/>
			<polygon class="st0" points="25.6,54.5 25.5,64.8 25.5,64.7 25.5,54.3 			"/>
			<polygon class="st35" points="39.4,54.4 39.4,64.7 39.1,65 39.1,54.7 			"/>
			<polygon class="st0" points="25.6,54.7 25.6,65 25.5,64.8 25.6,54.5 			"/>
			<polygon class="st53" points="39.1,54.7 39.1,65 38.8,65.2 38.8,54.9 			"/>
			<polygon class="st85" points="39.5,55.7 39.5,66 39.2,66.3 39.3,56 			"/>
			<polygon class="st0" points="25.1,56.1 25.1,66.4 25,66.2 25,55.9 			"/>
			<polygon class="st53" points="39.3,56 39.2,66.3 38.8,66.5 38.9,56.2 			"/>
			<polygon class="st67" points="34.8,57 34.8,67.3 33.2,67.3 33.3,57 			"/>
			<polygon class="st0" points="25.9,57 25.8,67.3 25.1,66.4 25.1,56.1 			"/>
			<polygon class="st59" points="33.3,57 33.2,67.3 32,67.4 32,57.1 			"/>
			<polygon class="st72" points="32,57.1 32,67.4 30.8,67.4 30.9,57.1 			"/>
			<polygon class="st39" points="29.1,57.1 29.1,67.4 27.7,67.3 27.7,57 			"/>
			<polygon class="st86" points="27.7,57 27.7,67.3 26.6,67.4 26.6,57.2 			"/>
			<polygon class="st69" points="29.4,57.2 29.4,67.5 29.1,67.4 29.1,57.1 			"/>
			<polygon class="st43" points="35.3,57.2 35.2,67.5 34.8,67.3 34.8,57 			"/>
			<polygon class="st21" points="30.9,57.1 30.8,67.4 30.3,67.5 30.4,57.2 			"/>
			<polygon class="st14" points="26.6,57.2 26.6,67.4 26.2,67.5 26.2,57.2 			"/>
			<polygon class="st69" points="29.8,57.2 29.7,67.5 29.4,67.5 29.4,57.2 			"/>
			<polygon class="st72" points="30.4,57.2 30.3,67.5 29.7,67.5 29.8,57.2 			"/>
			<polygon class="st86" points="26.2,57.2 26.2,67.5 25.9,67.5 26,57.2 			"/>
			<polygon class="st0" points="26,57.2 25.9,67.5 25.8,67.3 25.9,57 			"/>
			<polygon class="st87" points="35.8,57.5 35.8,67.8 35.3,67.8 35.3,57.5 			"/>
			<polygon class="st0" points="35.3,57.5 35.3,67.8 35.2,67.5 35.3,57.2 			"/>
			<polygon class="st60" points="36.4,57.8 36.4,68.1 35.8,67.8 35.8,57.5 			"/>
			<polygon class="st79" points="37.2,57.8 37.1,68.1 36.4,68.1 36.4,57.8 			"/>
			<polygon class="st52" points="37.7,57.8 37.7,68.1 37.4,68.1 37.4,57.8 			"/>
			<polygon class="st27" points="37.4,57.8 37.4,68.1 37.1,68.1 37.2,57.8 			"/>
			<polygon class="st80" points="39.2,57 39.1,67.3 39,68.2 39.1,57.8 			"/>
			<polygon class="st88" points="38.3,57.9 38.2,68.2 37.7,68.1 37.7,57.8 			"/>
			<polygon class="st89" points="39.1,57.8 39,68.2 38.2,68.2 38.3,57.9 			"/>
			<polygon class="st90" points="27.7,0.5 28.6,1.1 28.7,1.7 29.1,2.5 29.2,2.6 29.4,3 29.6,3.3 29.8,3.5 30.1,3.8 30.5,4.6 
				30.4,5.1 30.8,5.6 31.2,6.1 31.2,6.6 31.6,7.2 32,7.3 32.2,7.4 32.8,7.8 33.2,8 33.5,8.3 35.5,9.4 36.1,10.2 36.4,10.5 37,11 
				37.3,11.3 37.6,11.8 37.6,12 37.8,12.2 38.4,12.6 38.9,12.9 40,13.2 40.1,13.3 40.5,13.7 40.7,13.8 41.4,14 42.6,14.5 42.9,15.4 
				43.8,16.5 43.9,16.7 44.9,17.5 46,18 47.3,18.7 47.3,19.3 47.4,19.9 47.5,20.3 47.6,21.5 47.6,21.7 47.7,21.8 47.6,22 47.6,22.2 
				47.3,22.6 47,22.8 46.7,23.2 46.5,23.5 46.3,23.6 46.2,24 46.2,24.3 46.3,24.5 46.2,24.9 46.1,25 46.3,25.2 46.4,25.5 46.5,25.7 
				46.6,25.8 46.8,26.3 46.9,26.5 47,26.8 47.2,27.1 47.6,27.5 47.8,27.6 47.8,27.8 48,28.5 48,29.6 47.9,29.9 47.9,30.3 47.9,30.5 
				47.8,30.6 47.9,30.9 48.5,31.5 49.3,31.8 51.2,32.6 52,33.2 52.3,33.6 52.9,33.9 53.2,34 53.5,34.2 53.9,34.4 54.2,34.7 54.9,35 
				55.8,35.4 56.1,36 56.3,36.2 56.5,36.5 56.5,37 56.8,37.5 57.1,38 57.3,38.3 57.6,38.7 57.6,38.9 57.5,39.2 57.2,39.4 57,39.6 
				56.8,39.8 56.1,40.5 56.5,41.3 56.5,41.5 56.4,41.8 56.3,42 55.9,42.6 55.8,42.9 55.7,43 55.9,43.6 56.1,44.1 56,44.2 55.9,44.5 
				55.9,45.3 56.3,46.1 56.2,46.7 56,47.1 55.9,47.2 55.7,47.4 55.2,47.5 54.2,48 53.8,48.1 53.4,47.8 51.8,47.2 51.6,46.8 51,46.2 
				50.7,46.2 50.4,46.2 49.6,46.3 49.4,46.5 49.3,46.9 49.2,47.1 49,47.3 48.5,47.7 48.4,47.9 48.4,48.1 48.4,48.4 48.1,48.6 
				47.9,48.7 47.4,48.7 47.1,48.7 46.6,49.1 47.4,49.6 47.6,49.9 48.1,50.1 47.9,50.9 47.5,51 47.2,51.3 47.3,51.8 47.3,52 46.9,52 
				46.6,51.9 45.7,52 44.9,52.1 44.6,52.1 44.2,52.1 43.9,52 43.4,52 43.3,52.2 43.6,52.4 43.1,52.5 42.2,52.4 41.7,52.4 41.4,52.4 
				41,52.3 39.8,52.8 39.9,52.9 40.1,53.7 39.4,54.4 39.1,54.7 38.8,54.9 39.2,55.1 39.5,55.7 39.3,56 38.9,56.2 39.1,56.8 39.2,57 
				39.1,57.8 38.3,57.9 37.7,57.8 37.4,57.8 37.2,57.8 36.4,57.8 35.8,57.5 35.3,57.5 35.3,57.2 34.8,57 33.3,57 32,57.1 30.9,57.1 
				30.4,57.2 29.8,57.2 29.4,57.2 29.1,57.1 27.7,57 26.6,57.2 26.2,57.2 26,57.2 25.9,57 25.1,56.1 25,55.9 25.1,55.7 25.1,55.5 
				25.2,55.3 25.2,55.1 25.5,54.9 25.6,54.7 25.6,54.5 25.5,54.3 25.6,54.2 26,54 26.4,54 27.8,54.2 28.5,53.9 29.1,53.6 29.4,53.3 
				29.4,53.2 27.6,52.2 27.5,52.1 27.6,51.8 27.3,51.6 26.9,51.7 26.5,51.8 26.1,51.9 25.6,51.9 24.9,52.1 24.2,51.8 24,51.5 
				24.3,51.2 24,51.1 22.9,51 22.4,51 21.8,51.2 21.7,51.5 21.3,51.3 20.9,50.5 20.8,50.4 19.7,50 19.1,49.7 18.4,49.4 18.6,49.2 
				19,49 19.8,49 20.2,48.6 20.5,48.3 20.7,48.1 20.8,47.9 21.6,47.9 21.9,47.9 22.2,47.8 24.2,45.9 23.8,45.7 23.7,45.5 23.6,45.4 
				23.2,45.3 23,44.9 22.6,44.9 22.2,44.9 21.9,44.8 21.1,44.4 21.6,44.3 21.7,43.6 22,43.3 22.4,43.2 23.2,43.1 23.6,43 24,43 
				24.7,43.2 26.5,43.5 26.9,43.5 27.3,43.6 28.8,43.5 30.8,42.8 31.6,42 31.6,40.7 31.2,40.1 32.2,40.2 32.7,40.3 33.2,40.4 
				33.5,40.5 34.1,40.7 34.3,41.1 35.7,40.4 35.8,39.8 36.1,39.2 35.9,39.1 35,39.1 34.7,39 34.9,38.7 34.3,38 34.2,37 34.2,36.8 
				33.9,36.6 33.7,36.5 33.2,36.2 33.1,35.8 32.4,35.8 32.3,35.2 31.7,35 31,34.6 30.2,34 28.4,33.5 27.9,33.1 27.8,32.9 27.8,32.7 
				27.5,32.5 27.2,32.4 27,32.2 26.6,31.7 26.5,31.6 26.2,31.5 25.8,31.4 25.1,31.5 24.8,31.4 24.4,31.5 24.1,31.5 23.8,31.6 
				22.8,32.1 22.5,31.9 22.1,31.8 21.8,31.8 21.5,31.8 21.1,31.8 20.8,32 20.6,32.2 20,32.3 19.2,32.5 19.1,32.4 19,32.3 18.9,31.9 
				17.5,31.1 17,30.9 16.6,30.4 16.3,30 16.3,29.8 16.5,29.4 16.5,29.2 15.9,28.7 16.2,28.5 16.6,28.3 17,28.1 17.1,27.5 16.6,27.1 
				16.6,26.9 16.6,26.5 16.6,26.2 16.2,26.1 15.7,25.8 15.2,25.8 15,25.8 14.3,25.6 13.6,25.7 13.2,25.6 12.7,25.3 12.5,25.2 12,25 
				10.8,25.2 10.4,25.6 8.2,26.4 8.2,26.6 8.3,26.8 7.5,27.6 7.5,27.9 7.3,28.1 7.1,28.2 6.9,28.3 6.6,28.4 6.1,29.1 5.7,29.4 
				4.6,28.6 3.9,28.5 3,28.4 2.7,28.4 2.7,28.2 2.2,28 1.6,27.2 0.6,26.3 0.7,26 0.4,25.8 0.1,25.5 1.2,24.9 2.2,24.3 2.5,24.1 
				3.6,23.5 4.8,22.8 5.8,22.2 6.5,21.8 6.8,21.6 7.2,21.4 7.7,21.3 8.2,20.8 8.3,20.4 8.8,20.4 9,20.4 9.3,20.4 9.8,20.3 10,20.1 
				10.8,20 11.5,19.9 11.9,19.9 12.6,19.5 13.1,18.9 13.4,18.8 14.4,18.5 15.5,18 15.7,17.8 16.1,17.7 16.8,17.5 17.5,17.1 18.6,17 
				19,17 19.2,16.9 21.8,16.8 21.6,16.4 20.9,15.8 20.1,15.6 19.8,15.6 19.3,15.4 19.2,15.3 18.5,14.7 18.9,14.4 18.9,14.2 
				18.4,13.5 18,12.9 17.8,12.6 17.5,12 17.1,11.5 17,11.3 16.9,11.1 16.6,10.7 15.6,10.4 15.4,9.9 15.2,9.8 14.4,9.4 14.3,9.1 
				13.8,8.6 13.3,8.2 13.1,8 13,7.7 13.1,7.5 13.3,7.2 14.3,6.8 14.9,6.2 15.8,5.6 16,5.4 16.4,5.2 16.9,4.6 17.1,4.4 17.1,4.3 
				17.1,4.1 17.2,3.9 18.4,3.5 18.7,3.4 19,3.3 19.5,3 21.3,2.4 21.8,2.3 22,2.1 22.2,1.9 22.4,1.8 22.7,1.7 23.3,1.8 23.5,1.2 
				24.1,0.7 24.5,0.2 24.9,0 25.8,0.1 26.1,0.2 26.6,0 26.8,0.1 			"/>
		</g>
	</g>
</g>
</svg>
