<svg xmlns="http://www.w3.org/2000/svg" viewBox="0 0 192.6 123.27"><defs><style>.cls-1{isolation:isolate;}.cls-2{fill:#701b1b;}.cls-3{fill:#701c1c;}.cls-4{fill:#6f1b1b;}.cls-5{fill:#691a1a;}.cls-6{fill:#481212;}.cls-7{fill:#751d1d;}.cls-8{fill:#601818;}.cls-9{fill:#a32828;}.cls-10{fill:#4d1313;}.cls-11{fill:#4c1313;}.cls-12{fill:#a42828;}.cls-13{fill:#591616;}.cls-14{fill:#511414;}.cls-15{fill:#641818;}.cls-16{fill:#561515;}.cls-17{fill:#761d1d;}.cls-18{fill:#8d2222;}.cls-19{fill:#491212;}.cls-20{fill:#611818;}.cls-21{fill:#551515;}.cls-22{fill:#621818;}.cls-23{fill:#4f1313;}.cls-24{fill:#661919;}.cls-25{fill:#972525;}.cls-26{fill:#922424;}.cls-27{fill:#7b1e1e;}.cls-28{fill:#882121;}.cls-29{fill:#9a2626;}.cls-30{fill:#822020;}.cls-31{fill:#a72929;}.cls-32{fill:#721c1c;}.cls-33{fill:#9c2626;}.cls-34{fill:#a92929;}.cls-35{fill:#952424;}.cls-36{fill:#711c1c;}.cls-37{fill:#7f1f1f;}.cls-38{fill:#9f2727;}.cls-39{fill:#a82929;}.cls-40{fill:#962525;}.cls-41{fill:#a12727;}.cls-42{fill:#5f1717;}.cls-43{fill:#a62929;}.cls-44{fill:#852121;}.cls-45{fill:#9b2626;}.cls-46{fill:#6c1a1a;}.cls-47{fill:#4a1212;}.cls-48{fill:#521414;}.cls-49{fill:#4e1313;}.cls-50{fill:#531414;}.cls-51{fill:#9e2727;}.cls-52{fill:#681a1a;}.cls-53{fill:#862121;}.cls-54{fill:#852020;}.cls-55{fill:#6e1b1b;}.cls-56{fill:#8e2323;}.cls-57{fill:#7a1e1e;}.cls-58{fill:#5d1717;}.cls-59{fill:#a52828;}.cls-60{fill:#952525;}.cls-61{fill:#731c1c;}.cls-62{fill:#982525;}.cls-63{fill:#a22828;}.cls-64{fill:#c83131;}.cls-65{fill:#9d2626;}.cls-66{fill:#801f1f;}.cls-67{fill:#912323;}</style></defs><title>Dem. Rep. Congo</title><g id="Layer_2" data-name="Layer 2"><g id="Layer_1-2" data-name="Layer 1"><g class="cls-1"><polygon class="cls-2" points="99.36 5.7 99.31 22 99.22 22.5 99.27 6.19 99.36 5.7"/><polygon class="cls-3" points="99.27 6.19 99.22 22.5 99.04 23.45 99.09 7.15 99.27 6.19"/><polygon class="cls-2" points="99.09 7.15 99.04 23.45 98.87 24.39 98.92 8.08 99.09 7.15"/><polygon class="cls-4" points="99.3 9.86 99.26 26.17 98.73 29.23 98.78 12.93 99.3 9.86"/><polygon class="cls-4" points="101.87 16.54 101.83 32.84 101.72 33.46 101.77 17.16 101.87 16.54"/><polygon class="cls-5" points="110.23 25.17 110.19 41.47 110.15 41.9 110.2 25.6 110.23 25.17"/><polygon class="cls-6" points="26.85 29.75 26.81 46.06 26.46 44.74 26.51 28.44 26.85 29.75"/><polygon class="cls-6" points="0.26 41.94 0.21 58.24 0 57.1 0.05 40.8 0.26 41.94"/><polygon class="cls-6" points="0.79 44.12 0.74 60.43 0.21 58.24 0.26 41.94 0.79 44.12"/><polygon class="cls-7" points="1.81 44.34 1.76 60.64 0.74 60.43 0.79 44.12 1.81 44.34"/><polygon class="cls-8" points="2.46 44.61 2.41 60.91 1.76 60.64 1.81 44.34 2.46 44.61"/><polygon class="cls-9" points="163.68 44.93 163.63 61.23 162.68 61.99 162.73 45.69 163.68 44.93"/><polygon class="cls-10" points="3.64 45.55 3.6 61.85 2.41 60.91 2.46 44.61 3.64 45.55"/><polygon class="cls-11" points="4.33 46.1 4.29 62.41 3.6 61.85 3.64 45.55 4.33 46.1"/><polygon class="cls-12" points="162.73 45.69 162.68 61.99 161.24 63.13 161.28 46.83 162.73 45.69"/><polygon class="cls-8" points="6.34 46.94 6.29 63.24 4.29 62.41 4.33 46.1 6.34 46.94"/><polygon class="cls-9" points="161.28 46.83 161.24 63.13 160.11 64.02 160.16 47.72 161.28 46.83"/><polygon class="cls-13" points="7.22 47.39 7.17 63.69 6.29 63.24 6.34 46.94 7.22 47.39"/><polygon class="cls-9" points="160.16 47.72 160.11 64.02 158.63 65.19 158.67 48.89 160.16 47.72"/><polygon class="cls-6" points="8.18 48.82 8.13 65.12 7.17 63.69 7.22 47.39 8.18 48.82"/><polygon class="cls-9" points="158.67 48.89 158.63 65.19 157.14 66.38 157.19 50.07 158.67 48.89"/><polygon class="cls-6" points="9.33 50.32 9.28 66.63 8.13 65.12 8.18 48.82 9.33 50.32"/><polygon class="cls-9" points="157.19 50.07 157.14 66.38 155.87 67.38 155.92 51.08 157.19 50.07"/><polygon class="cls-6" points="9.61 50.68 9.56 66.98 9.28 66.63 9.33 50.32 9.61 50.68"/><polygon class="cls-9" points="155.92 51.08 155.87 67.38 154.99 68.08 155.04 51.77 155.92 51.08"/><polygon class="cls-6" points="9.95 51.57 9.91 67.87 9.56 66.98 9.61 50.68 9.95 51.57"/><polygon class="cls-12" points="155.04 51.77 154.99 68.08 154.02 68.84 154.07 52.54 155.04 51.77"/><polygon class="cls-6" points="10.01 52.19 9.96 68.5 9.91 67.87 9.95 51.57 10.01 52.19"/><polygon class="cls-12" points="154.07 52.54 154.02 68.84 153.34 69.37 153.39 53.07 154.07 52.54"/><polygon class="cls-6" points="10.71 53.48 10.67 69.78 9.96 68.5 10.01 52.19 10.71 53.48"/><polygon class="cls-11" points="11.71 54.29 11.66 70.59 10.67 69.78 10.71 53.48 11.71 54.29"/><polygon class="cls-14" points="13.1 55.2 13.06 71.5 11.66 70.59 11.71 54.29 13.1 55.2"/><polygon class="cls-15" points="155.49 55.43 155.44 71.73 155.43 73 155.48 56.69 155.49 55.43"/><polygon class="cls-16" points="15.17 56.36 15.13 72.66 13.06 71.5 13.1 55.2 15.17 56.36"/><polygon class="cls-17" points="155.48 56.69 155.43 73 155.27 73.62 155.32 57.31 155.48 56.69"/><polygon class="cls-6" points="15.94 57.33 15.89 73.64 15.13 72.66 15.17 56.36 15.94 57.33"/><polygon class="cls-18" points="155.32 57.31 155.27 73.62 154.96 74.13 155 57.83 155.32 57.31"/><polygon class="cls-19" points="16.45 57.89 16.41 74.2 15.89 73.64 15.94 57.33 16.45 57.89"/><polygon class="cls-10" points="16.93 58.25 16.88 74.56 16.41 74.2 16.45 57.89 16.93 58.25"/><polygon class="cls-6" points="17.36 59.19 17.31 75.49 16.88 74.56 16.93 58.25 17.36 59.19"/><polygon class="cls-20" points="17.89 59.41 17.85 75.71 17.31 75.49 17.36 59.19 17.89 59.41"/><polygon class="cls-21" points="18.42 59.71 18.37 76.01 17.85 75.71 17.89 59.41 18.42 59.71"/><polygon class="cls-22" points="19.64 60.19 19.6 76.49 18.37 76.01 18.42 59.71 19.64 60.19"/><polygon class="cls-22" points="21.51 60.93 21.46 77.23 19.6 76.49 19.64 60.19 21.51 60.93"/><polygon class="cls-23" points="22.18 61.41 22.13 77.71 21.46 77.23 21.51 60.93 22.18 61.41"/><polygon class="cls-6" points="22.4 62.19 22.36 78.5 22.13 77.71 22.18 61.41 22.4 62.19"/><polygon class="cls-6" points="23.42 63.52 23.38 79.83 22.36 78.5 22.4 62.19 23.42 63.52"/><polygon class="cls-11" points="24.71 64.59 24.67 80.89 23.38 79.83 23.42 63.52 24.71 64.59"/><polygon class="cls-24" points="25.54 64.87 25.5 81.18 24.67 80.89 24.71 64.59 25.54 64.87"/><polygon class="cls-14" points="26.82 65.71 26.77 82.02 25.5 81.18 25.54 64.87 26.82 65.71"/><polygon class="cls-6" points="26.88 66.71 26.84 83.02 26.77 82.02 26.82 65.71 26.88 66.71"/><polygon class="cls-6" points="26.96 67.19 26.91 83.5 26.84 83.02 26.88 66.71 26.96 67.19"/><polygon class="cls-25" points="192.6 68.94 192.56 85.25 192.15 85.74 192.2 69.44 192.6 68.94"/><polygon class="cls-25" points="192.2 69.44 192.15 85.74 189.46 85.97 189.51 69.67 192.2 69.44"/><polygon class="cls-26" points="189.51 69.67 189.46 85.97 188.84 86.85 188.88 70.55 189.51 69.67"/><polygon class="cls-27" points="188.88 70.55 188.84 86.85 188.71 87.22 188.76 70.92 188.88 70.55"/><polygon class="cls-28" points="181.76 71.04 181.71 87.34 176.3 87.03 176.34 70.73 181.76 71.04"/><polygon class="cls-29" points="188.76 70.92 188.71 87.22 184.86 87.66 184.91 71.35 188.76 70.92"/><polygon class="cls-30" points="184.91 71.35 184.86 87.66 181.71 87.34 181.76 71.04 184.91 71.35"/><polygon class="cls-31" points="176.34 70.73 176.3 87.03 173.61 87.97 173.66 71.67 176.34 70.73"/><polygon class="cls-25" points="173.66 71.67 173.61 87.97 172.02 88.11 172.06 71.8 173.66 71.67"/><polygon class="cls-32" points="167.84 72.47 167.79 88.77 166.64 88.5 166.69 72.2 167.84 72.47"/><polygon class="cls-5" points="164.7 72.47 164.65 88.78 163.9 88.53 163.95 72.23 164.7 72.47"/><polygon class="cls-33" points="166.69 72.2 166.64 88.5 164.65 88.78 164.7 72.47 166.69 72.2"/><polygon class="cls-34" points="172.06 71.8 172.02 88.11 170 89.1 170.05 72.8 172.06 71.8"/><polygon class="cls-35" points="170.05 72.8 170 89.1 169.29 89.15 169.34 72.84 170.05 72.8"/><polygon class="cls-36" points="169.34 72.84 169.29 89.15 167.79 88.77 167.84 72.47 169.34 72.84"/><polygon class="cls-6" points="26.08 72.68 26.03 88.98 25.72 87.68 25.76 71.37 26.08 72.68"/><polygon class="cls-37" points="163.95 72.23 163.9 88.53 163.3 90.05 163.34 73.74 163.95 72.23"/><polygon class="cls-6" points="27.33 74.62 27.29 90.92 26.03 88.98 26.08 72.68 27.33 74.62"/><polygon class="cls-38" points="163.34 73.74 163.3 90.05 161.06 92.14 161.11 75.84 163.34 73.74"/><polygon class="cls-6" points="27.51 75.94 27.47 92.24 27.29 90.92 27.33 74.62 27.51 75.94"/><polygon class="cls-39" points="97.45 76.38 97.41 92.68 96.93 92.96 96.97 76.66 97.45 76.38"/><polygon class="cls-39" points="96.97 76.66 96.93 92.96 96.45 93.24 96.5 76.94 96.97 76.66"/><polygon class="cls-39" points="96.5 76.94 96.45 93.24 95.97 93.52 96.02 77.22 96.5 76.94"/><polygon class="cls-34" points="161.11 75.84 161.06 92.14 157.1 93.92 157.14 77.61 161.11 75.84"/><polygon class="cls-39" points="96.02 77.22 95.97 93.52 95.49 93.8 95.53 77.5 96.02 77.22"/><polygon class="cls-40" points="157.14 77.61 157.1 93.92 155.51 94.03 155.55 77.73 157.14 77.61"/><polygon class="cls-39" points="95.53 77.5 95.49 93.8 95 94.08 95.05 77.78 95.53 77.5"/><polygon class="cls-39" points="95.05 77.78 95 94.08 94.53 94.37 94.58 78.06 95.05 77.78"/><polygon class="cls-41" points="147.34 78.16 147.29 94.47 146.98 94.74 147.03 78.44 147.34 78.16"/><polygon class="cls-39" points="94.58 78.06 94.53 94.37 94.05 94.65 94.09 78.34 94.58 78.06"/><polygon class="cls-42" points="102.37 78.51 102.33 94.81 97.41 92.68 97.45 76.38 102.37 78.51"/><polygon class="cls-39" points="94.09 78.34 94.05 94.65 93.57 94.92 93.62 78.62 94.09 78.34"/><polygon class="cls-36" points="150.05 78.84 150.01 95.14 147.29 94.47 147.34 78.16 150.05 78.84"/><polygon class="cls-43" points="155.55 77.73 155.51 94.03 151.64 95.27 151.69 78.97 155.55 77.73"/><polygon class="cls-44" points="151.69 78.97 151.64 95.27 150.01 95.14 150.05 78.84 151.69 78.97"/><polygon class="cls-6" points="28.85 78.65 28.81 94.96 27.39 93.01 27.43 76.7 28.85 78.65"/><polygon class="cls-43" points="147.03 78.44 146.98 94.74 146.12 95.35 146.17 79.04 147.03 78.44"/><polygon class="cls-39" points="93.62 78.62 93.57 94.92 93.09 95.2 93.14 78.9 93.62 78.62"/><polygon class="cls-39" points="93.14 78.9 93.09 95.2 92.61 95.48 92.65 79.18 93.14 78.9"/><polygon class="cls-6" points="88.33 79.31 88.29 95.61 88.04 95.29 88.08 78.99 88.33 79.31"/><polygon class="cls-39" points="92.65 79.18 92.61 95.48 92.13 95.76 92.17 79.46 92.65 79.18"/><polygon class="cls-39" points="88.08 78.99 88.04 95.29 87.08 95.84 87.13 79.54 88.08 78.99"/><polygon class="cls-42" points="30.66 79.44 30.61 95.74 28.81 94.96 28.85 78.65 30.66 79.44"/><polygon class="cls-45" points="146.17 79.04 146.12 95.35 145.41 96.12 145.45 79.81 146.17 79.04"/><polygon class="cls-39" points="92.17 79.46 92.13 95.76 91.65 96.05 91.7 79.74 92.17 79.46"/><polygon class="cls-39" points="87.13 79.54 87.08 95.84 86.54 96.17 86.59 79.87 87.13 79.54"/><polygon class="cls-46" points="107.44 79.99 107.39 96.29 102.33 94.81 102.37 78.51 107.44 79.99"/><polygon class="cls-39" points="91.7 79.74 91.65 96.05 91.17 96.33 91.21 80.02 91.7 79.74"/><polygon class="cls-43" points="145.45 79.81 145.41 96.12 144.71 96.59 144.75 80.28 145.45 79.81"/><polygon class="cls-10" points="31.5 80.08 31.45 96.39 30.61 95.74 30.66 79.44 31.5 80.08"/><polygon class="cls-39" points="91.21 80.02 91.17 96.33 90.69 96.6 90.74 80.3 91.21 80.02"/><polygon class="cls-39" points="90.74 80.3 90.69 96.6 90.21 96.88 90.26 80.58 90.74 80.3"/><polygon class="cls-14" points="90.26 80.58 90.21 96.88 88.29 95.61 88.33 79.31 90.26 80.58"/><polygon class="cls-47" points="108.2 80.67 108.15 96.98 107.39 96.29 107.44 79.99 108.2 80.67"/><polygon class="cls-10" points="108.61 81 108.56 97.3 108.15 96.98 108.2 80.67 108.61 81"/><polygon class="cls-34" points="144.75 80.28 144.71 96.59 142.33 97.73 142.38 81.42 144.75 80.28"/><polygon class="cls-19" points="109.23 81.63 109.19 97.93 108.56 97.3 108.61 81 109.23 81.63"/><polygon class="cls-48" points="110.08 82.16 110.03 98.47 109.19 97.93 109.23 81.63 110.08 82.16"/><polygon class="cls-21" points="35.35 82.29 35.3 98.59 31.45 96.39 31.5 80.08 35.35 82.29"/><polygon class="cls-49" points="110.75 82.66 110.7 98.96 110.03 98.47 110.08 82.16 110.75 82.66"/><polygon class="cls-12" points="142.38 81.42 142.33 97.73 134.74 99.69 134.79 83.39 142.38 81.42"/><polygon class="cls-21" points="111.98 83.36 111.93 99.67 110.7 98.96 110.75 82.66 111.98 83.36"/><polygon class="cls-31" points="134.79 83.39 134.74 99.69 134.22 99.86 134.27 83.56 134.79 83.39"/><polygon class="cls-6" points="35.95 83.34 35.9 99.64 35.3 98.59 35.35 82.29 35.95 83.34"/><polygon class="cls-43" points="86.59 79.87 86.54 96.17 81.41 99.81 81.45 83.51 86.59 79.87"/><polygon class="cls-6" points="36.04 83.87 35.99 100.17 35.9 99.64 35.95 83.34 36.04 83.87"/><polygon class="cls-50" points="113.35 84.22 113.3 100.52 111.93 99.67 111.98 83.36 113.35 84.22"/><polygon class="cls-51" points="134.27 83.56 134.22 99.86 133.29 100.77 133.34 84.47 134.27 83.56"/><polygon class="cls-52" points="114.79 84.69 114.75 101 113.3 100.52 113.35 84.22 114.79 84.69"/><polygon class="cls-53" points="116.59 84.82 116.55 101.13 114.75 101 114.79 84.69 116.59 84.82"/><polygon class="cls-6" points="36.63 84.81 36.58 101.11 35.99 100.17 36.04 83.87 36.63 84.81"/><polygon class="cls-54" points="133.34 84.47 133.29 100.77 132.97 101.42 133.02 85.12 133.34 84.47"/><polygon class="cls-9" points="133.02 85.12 132.97 101.42 132.52 101.79 132.56 85.49 133.02 85.12"/><polygon class="cls-6" points="36.81 85.25 36.77 101.56 36.58 101.11 36.63 84.81 36.81 85.25"/><polygon class="cls-9" points="132.56 85.49 132.52 101.79 131.97 102.25 132.01 85.94 132.56 85.49"/><polygon class="cls-3" points="84.37 85.26 84.32 101.56 84.12 102.65 84.17 86.35 84.37 85.26"/><polygon class="cls-34" points="132.01 85.94 131.97 102.25 128.38 103.83 128.42 87.52 132.01 85.94"/><polygon class="cls-8" points="125 88.32 124.95 104.63 116.55 101.13 116.59 84.82 125 88.32"/><polygon class="cls-55" points="126.75 88.81 126.71 105.11 124.95 104.63 125 88.32 126.75 88.81"/><polygon class="cls-56" points="128.54 88.11 128.5 104.42 128.04 105.14 128.09 88.83 128.54 88.11"/><polygon class="cls-6" points="35.77 88.82 35.72 105.12 35.5 103.97 35.55 87.66 35.77 88.82"/><polygon class="cls-15" points="128.09 88.83 128.04 105.14 128.03 105.58 128.08 89.28 128.09 88.83"/><polygon class="cls-24" points="128.08 89.28 128.03 105.58 126.71 105.11 126.75 88.81 128.08 89.28"/><polygon class="cls-39" points="87.01 88 86.97 104.3 83.12 106.53 83.17 90.23 87.01 88"/><polygon class="cls-6" points="35.41 90.42 35.36 106.72 35.26 106.38 35.31 90.07 35.41 90.42"/><polygon class="cls-12" points="83.17 90.23 83.12 106.53 81.44 106.98 81.49 90.68 83.17 90.23"/><polygon class="cls-39" points="81.49 90.68 81.44 106.98 80.96 107.26 81.01 90.95 81.49 90.68"/><polygon class="cls-17" points="57.75 91.33 57.71 107.64 55.3 107.15 55.35 90.85 57.75 91.33"/><polygon class="cls-57" points="81.01 90.95 80.96 107.26 80.76 107.88 80.81 91.58 81.01 90.95"/><polygon class="cls-6" points="35.44 91.53 35.39 107.83 35.36 106.72 35.41 90.42 35.44 91.53"/><polygon class="cls-43" points="55.35 90.85 55.3 107.15 51.58 108.31 51.63 92.01 55.35 90.85"/><polygon class="cls-39" points="51.63 92.01 51.58 108.31 51.16 108.56 51.21 92.26 51.63 92.01"/><polygon class="cls-39" points="80.81 91.58 80.76 107.88 79.25 108.75 79.29 92.45 80.81 91.58"/><polygon class="cls-39" points="51.21 92.26 51.16 108.56 50.4 109.02 50.44 92.72 51.21 92.26"/><polygon class="cls-58" points="61.27 92.96 61.23 109.27 57.71 107.64 57.75 91.33 61.27 92.96"/><polygon class="cls-39" points="50.44 92.72 50.4 109.02 49.8 109.38 49.85 93.08 50.44 92.72"/><polygon class="cls-39" points="49.85 93.08 49.8 109.38 49.22 109.74 49.26 93.44 49.85 93.08"/><polygon class="cls-37" points="79.29 92.45 79.25 108.75 78.8 109.9 78.84 93.6 79.29 92.45"/><polygon class="cls-6" points="35.69 93.51 35.64 109.81 35.38 108.42 35.43 92.11 35.69 93.51"/><polygon class="cls-45" points="78.84 93.6 78.8 109.9 77.95 110.01 78 93.7 78.84 93.6"/><polygon class="cls-32" points="64.84 93.8 64.8 110.11 61.23 109.27 61.27 92.96 64.84 93.8"/><polygon class="cls-39" points="49.26 93.44 49.22 109.74 48.62 110.09 48.67 93.79 49.26 93.44"/><polygon class="cls-39" points="48.67 93.79 48.62 110.09 48.03 110.45 48.08 94.15 48.67 93.79"/><polygon class="cls-12" points="78 93.7 77.95 110.01 77.15 110.63 77.2 94.32 78 93.7"/><polygon class="cls-39" points="48.08 94.15 48.03 110.45 47.43 110.8 47.48 94.5 48.08 94.15"/><polygon class="cls-39" points="47.48 94.5 47.43 110.8 46.84 111.16 46.88 94.86 47.48 94.5"/><polygon class="cls-30" points="76.24 95 76.19 111.31 64.8 110.11 64.84 93.8 76.24 95"/><polygon class="cls-43" points="77.2 94.32 77.15 110.63 76.19 111.31 76.24 95 77.2 94.32"/><polygon class="cls-39" points="46.88 94.86 46.84 111.16 46.24 111.52 46.29 95.22 46.88 94.86"/><polygon class="cls-39" points="46.29 95.22 46.24 111.52 45.65 111.88 45.7 95.57 46.29 95.22"/><polygon class="cls-39" points="45.7 95.57 45.65 111.88 45.06 112.23 45.11 95.93 45.7 95.57"/><polygon class="cls-39" points="45.11 95.93 45.06 112.23 44.47 112.59 44.51 96.28 45.11 95.93"/><polygon class="cls-39" points="44.51 96.28 44.47 112.59 43.88 112.94 43.92 96.64 44.51 96.28"/><polygon class="cls-39" points="43.92 96.64 43.88 112.94 43.28 113.3 43.33 97 43.92 96.64"/><polygon class="cls-39" points="43.33 97 43.28 113.3 42.68 113.66 42.73 97.36 43.33 97"/><polygon class="cls-59" points="42.73 97.36 42.68 113.66 41.39 114.6 41.44 98.3 42.73 97.36"/><polygon class="cls-6" points="26.89 98.29 26.85 114.59 26.1 112.41 26.15 96.1 26.89 98.29"/><polygon class="cls-39" points="41.44 98.3 41.39 114.6 40.64 114.89 40.69 98.59 41.44 98.3"/><polygon class="cls-31" points="40.69 98.59 40.64 114.89 39.78 115.44 39.83 99.13 40.69 98.59"/><polygon class="cls-39" points="39.83 99.13 39.78 115.44 39.07 115.83 39.12 99.53 39.83 99.13"/><polygon class="cls-43" points="39.12 99.53 39.07 115.83 38.4 116.05 38.45 99.74 39.12 99.53"/><polygon class="cls-31" points="38.45 99.74 38.4 116.05 37.5 116.61 37.55 100.31 38.45 99.74"/><polygon class="cls-34" points="37.55 100.31 37.5 116.61 35.95 117.36 36 101.05 37.55 100.31"/><polygon class="cls-43" points="36 101.05 35.95 117.36 34.94 118.05 34.99 101.74 36 101.05"/><polygon class="cls-34" points="34.99 101.74 34.94 118.05 34.37 118.32 34.42 102.02 34.99 101.74"/><polygon class="cls-39" points="34.42 102.02 34.37 118.32 33.38 118.89 33.42 102.59 34.42 102.02"/><polygon class="cls-60" points="22.98 103.32 22.93 119.62 21.97 119.68 22.02 103.38 22.98 103.32"/><polygon class="cls-39" points="33.42 102.59 33.38 118.89 31.87 119.77 31.91 103.47 33.42 102.59"/><polygon class="cls-50" points="23.47 103.62 23.42 119.93 22.93 119.62 22.98 103.32 23.47 103.62"/><polygon class="cls-50" points="24.01 103.96 23.97 120.26 23.42 119.93 23.47 103.62 24.01 103.96"/><polygon class="cls-61" points="30.73 104.24 30.69 120.54 30.65 120.71 30.7 104.41 30.73 104.24"/><polygon class="cls-50" points="24.77 104.43 24.73 120.74 23.97 120.26 24.01 103.96 24.77 104.43"/><polygon class="cls-62" points="30.7 104.41 30.65 120.71 30.52 120.86 30.57 104.56 30.7 104.41"/><polygon class="cls-63" points="30.57 104.56 30.52 120.86 30.22 121.12 30.27 104.81 30.57 104.56"/><polygon class="cls-27" points="30.27 104.81 30.22 121.12 30.19 121.21 30.23 104.91 30.27 104.81"/><polygon class="cls-50" points="25.57 104.93 25.52 121.23 24.73 120.74 24.77 104.43 25.57 104.93"/><polygon class="cls-25" points="30.23 104.91 30.19 121.21 30.06 121.37 30.1 105.06 30.23 104.91"/><polygon class="cls-48" points="25.98 105.19 25.94 121.5 25.52 121.23 25.57 104.93 25.98 105.19"/><polygon class="cls-4" points="30.1 105.06 30.06 121.37 30.02 121.59 30.07 105.29 30.1 105.06"/><polygon class="cls-6" points="29.56 105.47 29.52 121.78 29.52 121.62 29.56 105.32 29.56 105.47"/><polygon class="cls-28" points="29.79 105.48 29.74 121.79 29.52 121.78 29.56 105.47 29.79 105.48"/><polygon class="cls-50" points="26.57 105.56 26.53 121.87 25.94 121.5 25.98 105.19 26.57 105.56"/><polygon class="cls-64" points="192.6 68.94 192.2 69.44 189.51 69.67 188.88 70.55 188.76 70.92 184.91 71.35 181.76 71.04 176.34 70.73 173.66 71.67 172.06 71.8 170.05 72.8 169.34 72.84 167.84 72.47 166.69 72.2 164.7 72.47 163.95 72.23 163.34 73.74 161.11 75.84 157.14 77.61 155.55 77.73 151.69 78.97 150.05 78.84 147.34 78.16 147.03 78.44 146.17 79.04 145.45 79.81 144.75 80.28 142.38 81.42 134.79 83.39 134.27 83.56 133.34 84.47 133.02 85.12 132.56 85.49 132.01 85.94 128.42 87.52 128.54 88.11 128.09 88.83 128.08 89.28 126.75 88.81 125 88.32 116.59 84.82 114.79 84.69 113.35 84.22 111.98 83.36 110.75 82.66 110.08 82.16 109.23 81.63 108.61 81 108.2 80.67 107.44 79.99 102.37 78.51 97.45 76.38 96.97 76.66 96.5 76.94 96.02 77.22 95.53 77.5 95.05 77.78 94.58 78.06 94.09 78.34 93.62 78.62 93.14 78.9 92.65 79.18 92.17 79.46 91.7 79.74 91.21 80.02 90.74 80.3 90.26 80.58 88.33 79.31 88.08 78.99 87.13 79.54 86.59 79.87 81.45 83.51 83.24 84.89 84.37 85.26 84.17 86.35 85.63 87.17 87.01 88 83.17 90.23 81.49 90.68 81.01 90.95 80.81 91.58 79.29 92.45 78.84 93.6 78 93.7 77.2 94.32 76.24 95 64.84 93.8 61.27 92.96 57.75 91.33 55.35 90.85 51.63 92.01 51.21 92.26 50.44 92.72 49.85 93.08 49.26 93.44 48.67 93.79 48.08 94.15 47.48 94.5 46.88 94.86 46.29 95.22 45.7 95.57 45.11 95.93 44.51 96.28 43.92 96.64 43.33 97 42.73 97.36 41.44 98.3 40.69 98.59 39.83 99.13 39.12 99.53 38.45 99.74 37.55 100.31 36 101.05 34.99 101.74 34.42 102.02 33.42 102.59 31.91 103.47 29.03 106.23 28.48 106.91 25.8 106.97 24.85 106.85 25.48 106.19 26.08 105.84 26.57 105.56 25.98 105.19 25.57 104.93 24.77 104.43 24.01 103.96 23.47 103.62 22.98 103.32 22.02 103.38 22.19 102.71 23.05 99.53 24.99 98.92 25.73 98.75 26.89 98.29 26.15 96.1 26.4 95.65 28.53 94.14 33.28 94.97 35.69 93.51 35.43 92.11 35.44 91.53 35.41 90.42 35.31 90.07 35.77 88.82 35.55 87.66 36.25 86.6 36.81 85.25 36.63 84.81 36.04 83.87 35.95 83.34 35.35 82.29 31.5 80.08 30.66 79.44 28.85 78.65 27.43 76.7 27.51 75.94 27.33 74.62 26.08 72.68 25.76 71.37 26.44 69.73 26.96 67.19 26.88 66.71 26.82 65.71 25.54 64.87 24.71 64.59 23.42 63.52 22.4 62.19 22.18 61.41 21.51 60.93 19.64 60.19 18.42 59.71 17.89 59.41 17.36 59.19 16.93 58.25 16.45 57.89 15.94 57.33 15.17 56.36 13.1 55.2 11.71 54.29 10.71 53.48 10.01 52.19 9.95 51.57 9.61 50.68 9.33 50.32 8.18 48.82 7.22 47.39 6.34 46.94 4.33 46.1 3.64 45.55 2.46 44.61 1.81 44.34 0.79 44.12 0.26 41.94 0.05 40.8 0.36 37.83 0.87 37.18 2.33 36.31 5.28 35.83 6.82 35.58 7.7 35.6 12.58 35.79 13.47 35.32 13.99 35.02 15.21 34.22 16.08 33.99 20.57 32.18 26.1 30.24 26.85 29.75 26.51 28.44 30.5 23.1 33.89 18.92 36.92 17.89 39.6 15.63 49.78 9.44 52 7.37 56.35 6.8 65.44 5.61 65.7 4.13 67.87 3.14 70.08 2.99 70.55 1.6 79.98 0.3 80.58 0.13 81.43 0 83.61 0.15 88.71 1.57 91.38 2.6 91.8 3.34 93.45 4.06 95.8 3.53 98.34 3.26 99.09 4.34 99.2 4.89 99.36 5.7 99.27 6.19 99.09 7.15 98.92 8.08 99.07 8.82 99.16 9.2 99.3 9.86 98.78 12.93 99.58 14.3 100.37 14.62 100.85 15.56 101.87 16.54 101.77 17.16 103.28 18.31 104.02 18.9 104.8 19.54 105.78 19.92 106.49 20.72 109.06 22.55 110.08 24.66 110.23 25.17 110.2 25.6 110.6 26.57 112.45 27.59 114.55 30.82 120.55 31.79 122.95 33.12 123.47 33.43 124.11 33.93 124.95 34.35 127.05 34.61 127.88 34.87 129.85 35.73 130.74 36.27 131.43 37.13 131.86 37.52 132.44 37.84 133.09 38.07 133.9 38.27 135.37 38.52 136.71 38.98 138.87 39.49 139.56 39.73 140.01 40.07 140.16 40.41 140.34 41.08 140.63 41.4 141.85 41.86 142.76 42.26 144.64 42.51 145.86 42.83 148.26 42.77 149.22 42.59 150.61 42.45 152.67 42.54 153.69 42.67 155.25 43 156.33 43.35 156.83 43.56 157.63 43.82 161.25 44.28 162.92 44.68 163.68 44.93 162.73 45.69 161.28 46.83 160.16 47.72 158.67 48.89 157.19 50.07 155.92 51.08 155.04 51.77 154.07 52.54 153.39 53.07 154.32 53.45 154.88 53.81 155.2 54.29 155.49 55.43 155.48 56.69 155.32 57.31 155 57.83 161.26 59.81 161.9 60.16 162.42 60.48 169.68 66.75 171.58 67.34 172.56 67.68 178.31 67.43 180.23 67.71 181.83 66.88 184.75 64.4 185.54 64.86 186.67 65.51 187.68 66.09 188.86 66.78 189.87 67.36 190.84 67.92 191.85 68.51 192.6 68.94"/><polygon class="cls-64" points="29.81 104.78 30.15 104.58 30.37 104.49 30.48 104.41 30.59 104.32 30.73 104.24 30.7 104.41 30.57 104.56 30.27 104.81 30.23 104.91 30.1 105.06 30.07 105.29 29.95 105.41 29.79 105.48 29.56 105.47 29.56 105.32 29.61 105.12 29.66 104.89 29.81 104.78"/><polygon class="cls-51" points="31.91 103.47 31.87 119.77 28.99 122.53 29.03 106.23 31.91 103.47"/><polygon class="cls-65" points="30.07 105.29 30.02 121.59 29.9 121.71 29.95 105.41 30.07 105.29"/><polygon class="cls-34" points="29.95 105.41 29.9 121.71 29.74 121.79 29.79 105.48 29.95 105.41"/><polygon class="cls-40" points="29.03 106.23 28.99 122.53 28.43 123.22 28.48 106.91 29.03 106.23"/><polygon class="cls-66" points="25.8 106.97 25.76 123.27 24.8 123.16 24.85 106.85 25.8 106.97"/><polygon class="cls-67" points="28.48 106.91 28.43 123.22 25.76 123.27 25.8 106.97 28.48 106.91"/></g></g></g></svg>