<?xml version="1.0" encoding="utf-8"?>
<!-- Generator: Adobe Illustrator 22.1.0, SVG Export Plug-In . SVG Version: 6.00 Build 0)  -->
<svg version="1.1" id="Layer_1" xmlns="http://www.w3.org/2000/svg" xmlns:xlink="http://www.w3.org/1999/xlink" x="0px" y="0px"
	 viewBox="0 0 13.6 28.2" style="enable-background:new 0 0 13.6 28.2;" xml:space="preserve">
<style type="text/css">
	.st0{fill:#481212;}
	.st1{fill:#7D1F1F;}
	.st2{fill:#9E2727;}
	.st3{fill:#A22828;}
	.st4{fill:#5C1616;}
	.st5{fill:#6A1A1A;}
	.st6{fill:#892121;}
	.st7{fill:#A12727;}
	.st8{fill:#4B1212;}
	.st9{fill:#A82929;}
	.st10{fill:#781D1D;}
	.st11{fill:#812020;}
	.st12{fill:#8A2222;}
	.st13{fill:#962525;}
	.st14{fill:#771D1D;}
	.st15{fill:#932424;}
	.st16{fill:#761D1D;}
	.st17{fill:#902323;}
	.st18{fill:#A42828;}
	.st19{fill:#972525;}
	.st20{fill:#7F1F1F;}
	.st21{fill:#7B1E1E;}
	.st22{fill:#9D2626;}
	.st23{fill:#A62929;}
	.st24{fill:#882121;}
	.st25{fill:#A92929;}
	.st26{fill:#9A2626;}
	.st27{fill:#852121;}
	.st28{fill:#952424;}
	.st29{fill:#A72929;}
	.st30{fill:#741C1C;}
	.st31{fill:#691A1A;}
	.st32{fill:#982525;}
	.st33{fill:#A32828;}
	.st34{fill:#942424;}
	.st35{fill:#741D1D;}
	.st36{fill:#9B2626;}
	.st37{fill:#4C1313;}
	.st38{fill:#8E2323;}
	.st39{fill:#A52828;}
	.st40{fill:#491212;}
	.st41{fill:#551515;}
	.st42{fill:#9C2626;}
	.st43{fill:#651919;}
	.st44{fill:#5D1717;}
	.st45{fill:#9F2727;}
	.st46{fill:#912323;}
	.st47{fill:#701C1C;}
	.st48{fill:#801F1F;}
	.st49{fill:#541515;}
	.st50{fill:#4D1313;}
	.st51{fill:#842020;}
	.st52{fill:#822020;}
	.st53{fill:#C83131;}
</style>
<title>Djibouti</title>
<g id="Layer_2_1_">
	<g id="Layer_1-2">
		<g>
			<polygon class="st0" points="2.4,1.7 2.4,5 2.2,4.7 2.2,1.4 			"/>
			<polygon class="st1" points="9.8,1.8 9.8,5.1 9.7,5.2 9.7,1.9 			"/>
			<polygon class="st2" points="9.7,1.9 9.7,5.2 9.6,5.3 9.7,2 			"/>
			<polygon class="st3" points="9.7,2 9.6,5.3 9.5,5.4 9.6,2.1 			"/>
			<polygon class="st4" points="2.6,2.2 2.6,5.5 2.4,5.3 2.4,2 			"/>
			<polygon class="st5" points="2.9,2.2 2.9,5.5 2.6,5.5 2.6,2.2 			"/>
			<polygon class="st6" points="9.6,2.1 9.5,5.4 9.4,5.6 9.5,2.3 			"/>
			<polygon class="st7" points="9.5,2.3 9.4,5.6 9.3,5.6 9.4,2.3 			"/>
			<polygon class="st8" points="3,2.4 3,5.7 2.9,5.5 2.9,2.2 			"/>
			<polygon class="st9" points="9.4,2.3 9.3,5.6 9,5.8 9.1,2.5 			"/>
			<polygon class="st2" points="9.1,2.5 9,5.8 8.9,5.9 9,2.6 			"/>
			<polygon class="st0" points="2.9,2.6 2.8,5.9 2.8,5.9 2.8,2.6 			"/>
			<polygon class="st0" points="2.9,2.8 2.8,6.1 2.8,5.9 2.9,2.6 			"/>
			<polygon class="st10" points="9,2.6 8.9,5.9 8.9,6.1 8.9,2.8 			"/>
			<polygon class="st0" points="2.8,3.1 2.7,6.4 2.7,6.2 2.7,2.9 			"/>
			<polygon class="st11" points="9,3.5 9,6.8 9,6.8 9,3.5 			"/>
			<polygon class="st12" points="9,3.5 9,6.8 8.9,6.8 9,3.5 			"/>
			<polygon class="st13" points="9,3.5 8.9,6.8 8.9,6.9 8.9,3.6 			"/>
			<polygon class="st14" points="8.9,3.6 8.9,6.9 8.9,6.9 8.9,3.6 			"/>
			<polygon class="st0" points="0.1,3.8 0,7.1 0,6.7 0.1,3.4 			"/>
			<polygon class="st15" points="9,3.8 9,7.1 8.9,7.2 9,3.9 			"/>
			<polygon class="st9" points="9,3.9 8.9,7.2 8.6,7.4 8.6,4.1 			"/>
			<polygon class="st15" points="8.6,4.1 8.6,7.4 8.5,7.5 8.6,4.2 			"/>
			<polygon class="st16" points="8.6,4.2 8.5,7.5 8.5,7.6 8.5,4.3 			"/>
			<polygon class="st0" points="10.9,4.3 10.9,7.6 10.9,7.5 10.9,4.2 			"/>
			<polygon class="st17" points="8.5,4.3 8.5,7.6 8.4,7.6 8.5,4.3 			"/>
			<polygon class="st0" points="0.2,4.3 0.2,7.6 0,7.1 0.1,3.8 			"/>
			<polygon class="st0" points="11,4.4 10.9,7.7 10.9,7.6 10.9,4.3 			"/>
			<polygon class="st18" points="8.5,4.3 8.4,7.6 8.2,7.7 8.2,4.4 			"/>
			<polygon class="st7" points="8.2,4.4 8.2,7.7 8.1,7.8 8.1,4.5 			"/>
			<polygon class="st0" points="0.5,4.7 0.4,8 0.2,7.6 0.2,4.3 			"/>
			<polygon class="st19" points="8.1,4.5 8.1,7.8 7.7,8.3 7.7,5 			"/>
			<polygon class="st20" points="7.7,5 7.7,8.3 7.6,8.4 7.7,5.1 			"/>
			<polygon class="st0" points="9.1,5.5 9,8.8 9,8.7 9.1,5.4 			"/>
			<polygon class="st0" points="0.8,5.9 0.7,9.2 0.4,8 0.5,4.7 			"/>
			<polygon class="st0" points="0.9,6.1 0.9,9.4 0.7,9.2 0.8,5.9 			"/>
			<polygon class="st21" points="8.1,6.1 8,9.4 8,9.5 8.1,6.2 			"/>
			<polygon class="st0" points="1,6.2 0.9,9.5 0.9,9.4 0.9,6.1 			"/>
			<polygon class="st22" points="8.1,6.2 8,9.5 7.9,9.7 7.9,6.3 			"/>
			<polygon class="st23" points="7.9,6.3 7.9,9.7 7.8,9.7 7.8,6.4 			"/>
			<polygon class="st12" points="8.7,6.4 8.6,9.7 8.5,9.7 8.6,6.4 			"/>
			<polygon class="st0" points="8.4,6.4 8.4,9.7 8.3,9.6 8.3,6.3 			"/>
			<polygon class="st24" points="8.5,6.4 8.4,9.7 8.4,9.7 8.4,6.4 			"/>
			<polygon class="st3" points="8.6,6.4 8.5,9.7 8.4,9.7 8.5,6.4 			"/>
			<polygon class="st0" points="0.9,6.4 0.8,9.7 0.8,9.6 0.9,6.3 			"/>
			<polygon class="st9" points="7.8,6.4 7.8,9.7 7.6,9.8 7.7,6.5 			"/>
			<polygon class="st0" points="8.7,6.5 8.7,9.8 8.6,9.7 8.7,6.4 			"/>
			<polygon class="st9" points="7.7,6.5 7.6,9.8 7.4,9.9 7.5,6.6 			"/>
			<polygon class="st25" points="7.5,6.6 7.4,9.9 7.4,9.9 7.4,6.6 			"/>
			<polygon class="st26" points="7.2,6.6 7.2,9.9 7.1,9.9 7.2,6.6 			"/>
			<polygon class="st27" points="7.4,6.6 7.3,9.9 7.2,9.9 7.2,6.6 			"/>
			<polygon class="st28" points="7.4,6.6 7.4,9.9 7.3,9.9 7.4,6.6 			"/>
			<polygon class="st29" points="7.2,6.6 7.1,9.9 7,10 7,6.7 			"/>
			<polygon class="st30" points="7,6.7 7,10 7,10.1 7,6.8 			"/>
			<polygon class="st0" points="1.1,6.9 1.1,10.2 0.8,9.7 0.9,6.4 			"/>
			<polygon class="st18" points="13.6,7.4 13.5,10.7 13.4,10.8 13.4,7.5 			"/>
			<polygon class="st31" points="13.4,7.5 13.4,10.8 13.4,10.8 13.4,7.5 			"/>
			<polygon class="st0" points="1.4,7.6 1.3,11 1.1,10.2 1.1,6.9 			"/>
			<polygon class="st32" points="13.4,7.6 13.4,10.9 13.3,11 13.4,7.7 			"/>
			<polygon class="st25" points="13.4,7.7 13.3,11 13.2,11 13.3,7.8 			"/>
			<polygon class="st29" points="13.3,7.8 13.2,11 13,11.1 13.1,7.8 			"/>
			<polygon class="st25" points="13.1,7.8 13,11.1 12.7,11.3 12.8,8 			"/>
			<polygon class="st33" points="11.9,7.9 11.8,11.2 11.6,11.3 11.7,8 			"/>
			<polygon class="st9" points="12.8,8 12.7,11.3 12.6,11.3 12.6,8 			"/>
			<polygon class="st0" points="1.5,8 1.4,11.3 1.3,11 1.4,7.6 			"/>
			<polygon class="st34" points="12.6,8 12.6,11.3 12.3,11.3 12.4,8 			"/>
			<polygon class="st35" points="12.4,8 12.3,11.3 11.8,11.2 11.9,7.9 			"/>
			<polygon class="st25" points="11.7,8 11.6,11.3 11.5,11.4 11.5,8.1 			"/>
			<polygon class="st0" points="1.5,8.1 1.4,11.4 1.4,11.3 1.5,8 			"/>
			<polygon class="st9" points="11.5,8.1 11.5,11.4 10.9,11.6 10.9,8.3 			"/>
			<polygon class="st9" points="10.9,8.3 10.9,11.6 10.8,11.6 10.9,8.3 			"/>
			<polygon class="st23" points="10.9,8.3 10.8,11.6 10.6,11.8 10.7,8.5 			"/>
			<polygon class="st0" points="1.4,8.4 1.3,11.8 1.3,11.7 1.3,8.4 			"/>
			<polygon class="st0" points="1.4,8.5 1.4,11.8 1.3,11.8 1.4,8.4 			"/>
			<polygon class="st36" points="10.7,8.5 10.6,11.8 10.2,12.2 10.2,8.9 			"/>
			<polygon class="st0" points="1.3,9 1.3,12.3 1.2,12.1 1.2,8.9 			"/>
			<polygon class="st21" points="10.2,8.9 10.2,12.2 10.1,12.6 10.1,9.3 			"/>
			<polygon class="st37" points="1.8,9.4 1.7,12.7 1.3,12.3 1.3,9 			"/>
			<polygon class="st38" points="10.1,9.3 10.1,12.6 10,12.8 10,9.4 			"/>
			<polygon class="st25" points="10,9.4 10,12.8 9.9,12.8 9.9,9.5 			"/>
			<polygon class="st23" points="9.9,9.5 9.9,12.8 9.7,12.9 9.8,9.5 			"/>
			<polygon class="st25" points="9.8,9.5 9.7,12.9 9.6,12.9 9.6,9.6 			"/>
			<polygon class="st19" points="9.6,9.6 9.6,12.9 9.4,13.1 9.5,9.8 			"/>
			<polygon class="st39" points="9.5,9.8 9.4,13.1 9.4,13.1 9.4,9.8 			"/>
			<polygon class="st40" points="2.2,9.9 2.1,13.1 1.7,12.7 1.8,9.4 			"/>
			<polygon class="st25" points="9.4,9.8 9.4,13.1 9.2,13.2 9.3,9.9 			"/>
			<polygon class="st39" points="9.3,9.9 9.2,13.2 9.2,13.2 9.2,9.9 			"/>
			<polygon class="st41" points="2.5,10.1 2.5,13.4 2.1,13.1 2.2,9.9 			"/>
			<polygon class="st17" points="9.2,9.9 9.2,13.2 9.1,13.4 9.1,10.1 			"/>
			<polygon class="st42" points="9.1,10.1 9.1,13.4 9,13.5 9,10.2 			"/>
			<polygon class="st9" points="9,10.2 9,13.5 8.9,13.6 8.9,10.3 			"/>
			<polygon class="st29" points="8.9,10.3 8.9,13.6 8.4,13.7 8.5,10.4 			"/>
			<polygon class="st43" points="3.5,10.4 3.5,13.7 2.5,13.4 2.5,10.1 			"/>
			<polygon class="st39" points="8.5,10.4 8.4,13.7 8.1,14 8.2,10.6 			"/>
			<polygon class="st32" points="8.2,10.6 8.1,14 8,14.1 8.1,10.8 			"/>
			<polygon class="st44" points="4.3,10.8 4.3,14.1 3.5,13.7 3.5,10.4 			"/>
			<polygon class="st45" points="8.1,11 8,14.3 7.9,14.5 7.9,11.2 			"/>
			<polygon class="st9" points="7.9,11.2 7.9,14.5 7.5,14.7 7.6,11.4 			"/>
			<polygon class="st46" points="7.6,11.4 7.5,14.7 7.5,14.7 7.5,11.4 			"/>
			<polygon class="st47" points="7.5,11.5 7.5,14.8 7.5,14.8 7.5,11.5 			"/>
			<polygon class="st48" points="7.3,11.5 7.3,14.8 7.2,14.8 7.3,11.5 			"/>
			<polygon class="st9" points="7.5,11.5 7.5,14.8 7.4,14.8 7.5,11.5 			"/>
			<polygon class="st34" points="7.5,11.5 7.4,14.8 7.3,14.8 7.4,11.5 			"/>
			<polygon class="st14" points="7.4,11.5 7.3,14.8 7.3,14.8 7.3,11.5 			"/>
			<polygon class="st49" points="5.6,11.5 5.6,14.8 4.3,14.1 4.3,10.8 			"/>
			<polygon class="st50" points="5.8,11.7 5.8,15 5.6,14.8 5.6,11.5 			"/>
			<polygon class="st9" points="7.3,11.5 7.2,14.8 6.3,15.2 6.3,11.9 			"/>
			<polygon class="st0" points="5.9,11.9 5.9,15.2 5.8,15 5.8,11.7 			"/>
			<polygon class="st51" points="6,11.9 5.9,15.2 5.9,15.2 5.9,11.9 			"/>
			<polygon class="st39" points="6.3,11.9 6.3,15.2 6.1,15.2 6.1,11.9 			"/>
			<polygon class="st52" points="6.1,11.9 6.1,15.2 5.9,15.2 6,11.9 			"/>
			<polygon class="st53" points="9.5,1.3 9.7,1.4 9.8,1.6 9.8,1.8 9.7,1.9 9.7,2 9.6,2.1 9.5,2.3 9.4,2.3 9.1,2.5 9,2.6 8.9,2.8 
				9,3.5 9,3.5 9,3.5 8.9,3.6 8.9,3.6 8.9,3.7 9,3.8 9,3.8 9,3.9 8.6,4.1 8.6,4.2 8.5,4.3 8.5,4.3 8.2,4.4 8.1,4.5 7.7,5 7.7,5.1 
				7.7,5.3 8.1,6.1 8.1,6.1 8.1,6.2 7.9,6.3 7.8,6.4 7.7,6.5 7.5,6.6 7.4,6.6 7.4,6.6 7.2,6.6 7.2,6.6 7,6.7 7,6.8 7.1,6.8 7.1,6.7 
				7.3,6.8 7.5,6.9 7.6,6.9 7.9,6.9 8.2,6.9 8.3,6.8 8.4,6.8 8.4,6.7 8.4,6.6 8.5,6.6 8.6,6.6 8.7,6.5 8.7,6.5 8.7,6.4 8.6,6.4 
				8.5,6.4 8.4,6.4 8.3,6.3 8.4,6.2 8.6,5.9 9,5.7 9.1,5.5 9.1,5.5 9.1,5.4 9.1,5.4 9.2,5.4 9.3,5.3 9.5,5.2 10.4,4.7 10.5,4.6 
				10.6,4.5 10.9,4.5 11,4.4 10.9,4.3 10.9,4.2 11,4.2 11.1,4.2 11.6,4.4 11.8,4.4 11.9,4.4 12.2,4.3 12.4,4.3 12.6,4.8 13.6,7.4 
				13.4,7.5 13.4,7.5 13.4,7.6 13.4,7.7 13.3,7.8 13.1,7.8 12.8,8 12.6,8 12.4,8 11.9,7.9 11.7,8 11.5,8.1 10.9,8.3 10.9,8.3 
				10.7,8.5 10.2,8.9 10.1,9.3 10,9.4 9.9,9.5 9.8,9.5 9.6,9.6 9.5,9.8 9.4,9.8 9.3,9.9 9.2,9.9 9.1,10.1 9,10.2 8.9,10.3 8.5,10.4 
				8.2,10.6 8.1,10.8 8.1,11 7.9,11.2 7.6,11.4 7.5,11.4 7.5,11.5 7.5,11.5 7.5,11.5 7.4,11.5 7.3,11.5 7.3,11.5 6.3,11.9 6.1,11.9 
				6,11.9 5.9,11.9 5.8,11.7 5.6,11.5 4.3,10.8 3.5,10.4 2.5,10.1 2.2,9.9 1.8,9.4 1.3,9 1.2,8.9 1.3,8.8 1.4,8.5 1.4,8.4 1.3,8.4 
				1.3,8.3 1.4,8.3 1.5,8.2 1.5,8.1 1.5,8 1.4,7.6 1.1,6.9 0.9,6.4 0.9,6.3 1,6.2 0.9,6.1 0.8,5.9 0.5,4.7 0.2,4.3 0.1,3.8 0.1,3.4 
				0.1,3.3 0.4,3.2 0.8,3.1 2.8,3.1 2.7,2.9 2.9,2.8 2.9,2.6 2.8,2.6 3,2.4 3,2.4 2.9,2.2 2.6,2.2 2.4,2 2.4,1.7 2.2,1.4 2.2,1.3 
				2.3,1.3 2.4,1.3 2.5,1.2 3.3,0 3.5,0 3.7,0 3.9,0.1 4.1,0.1 5.4,0.2 5.8,0.2 6,0.2 6.2,0.2 6.2,0.1 6.4,0.2 6.6,0.3 6.7,0.3 
				6.9,0.3 7,0.3 7.1,0.3 7.3,0.4 7.5,0.6 7.7,0.6 7.8,0.7 8.4,0.7 8.6,0.8 8.9,1 			"/>
		</g>
	</g>
</g>
</svg>
