<svg xmlns="http://www.w3.org/2000/svg" viewBox="0 0 149.4 91.66"><defs><style>.cls-1{isolation:isolate;}.cls-2{fill:#992525;}.cls-3{fill:#a22828;}.cls-4{fill:#a92929;}.cls-5{fill:#c83131;}.cls-6{fill:#6e1b1b;}.cls-7{fill:#a82929;}.cls-8{fill:#9c2626;}.cls-9{fill:#962525;}.cls-10{fill:#872121;}.cls-11{fill:#6c1a1a;}.cls-12{fill:#481212;}.cls-13{fill:#771d1d;}.cls-14{fill:#912424;}.cls-15{fill:#711c1c;}.cls-16{fill:#932424;}.cls-17{fill:#9d2626;}.cls-18{fill:#9f2727;}.cls-19{fill:#862121;}.cls-20{fill:#a32828;}.cls-21{fill:#561515;}.cls-22{fill:#842020;}.cls-23{fill:#8b2222;}.cls-24{fill:#761d1d;}.cls-25{fill:#7a1e1e;}.cls-26{fill:#922424;}.cls-27{fill:#a52828;}.cls-28{fill:#882121;}.cls-29{fill:#a02727;}.cls-30{fill:#a62929;}.cls-31{fill:#5d1717;}.cls-32{fill:#982525;}.cls-33{fill:#611818;}.cls-34{fill:#a42828;}.cls-35{fill:#661919;}.cls-36{fill:#4e1313;}.cls-37{fill:#8e2323;}.cls-38{fill:#531414;}.cls-39{fill:#741d1d;}.cls-40{fill:#521414;}.cls-41{fill:#641818;}.cls-42{fill:#511414;}.cls-43{fill:#491212;}.cls-44{fill:#7c1e1e;}.cls-45{fill:#6a1a1a;}.cls-46{fill:#852020;}.cls-47{fill:#8c2222;}.cls-48{fill:#731c1c;}.cls-49{fill:#992626;}.cls-50{fill:#7e1f1f;}.cls-51{fill:#902323;}.cls-52{fill:#892222;}.cls-53{fill:#9e2727;}.cls-54{fill:#6c1b1b;}.cls-55{fill:#8a2222;}.cls-56{fill:#7b1e1e;}.cls-57{fill:#681a1a;}.cls-58{fill:#541515;}.cls-59{fill:#5c1717;}.cls-60{fill:#631818;}.cls-61{fill:#651919;}.cls-62{fill:#751d1d;}.cls-63{fill:#4c1313;}.cls-64{fill:#4d1313;}.cls-65{fill:#4a1212;}.cls-66{fill:#5e1717;}.cls-67{fill:#6d1b1b;}.cls-68{fill:#5f1717;}.cls-69{fill:#621818;}.cls-70{fill:#4f1313;}.cls-71{fill:#581616;}.cls-72{fill:#721c1c;}.cls-73{fill:#691a1a;}.cls-74{fill:#a52929;}.cls-75{fill:#a72929;}.cls-76{fill:#551515;}</style></defs><title>Egypt</title><g id="Layer_2" data-name="Layer 2"><g id="Layer_1-2" data-name="Layer 1"><g class="cls-1"><polygon class="cls-2" points="59.18 3.54 59.14 19.85 58.89 19.87 58.93 3.57 59.18 3.54"/><polygon class="cls-3" points="58.93 3.57 58.89 19.87 57.41 20.21 57.46 3.91 58.93 3.57"/><polygon class="cls-4" points="57.46 3.91 57.41 20.21 57.19 20.3 57.24 4 57.46 3.91"/><polygon class="cls-5" points="59.18 3.54 58.93 3.57 57.46 3.91 57.24 4 57.45 3.88 57.95 3.78 58.15 3.71 58.39 3.62 58.66 3.57 59.18 3.54"/><polygon class="cls-6" points="57.13 4 57.09 20.3 57.08 20.34 57.13 4.04 57.13 4"/><polygon class="cls-7" points="57.13 4.04 57.08 20.34 57 20.39 57.05 4.09 57.13 4.04"/><polygon class="cls-7" points="57.05 4.09 57 20.39 56.75 20.49 56.8 4.19 57.05 4.09"/><polygon class="cls-4" points="56.8 4.19 56.75 20.49 56.52 20.59 56.57 4.28 56.8 4.19"/><polygon class="cls-4" points="56.57 4.28 56.52 20.59 56.3 20.69 56.35 4.38 56.57 4.28"/><polygon class="cls-8" points="56.35 4.38 56.3 20.69 56.14 20.85 56.19 4.55 56.35 4.38"/><polygon class="cls-7" points="56.19 4.55 56.14 20.85 56.01 20.9 56.06 4.6 56.19 4.55"/><polygon class="cls-9" points="56.06 4.6 56.01 20.9 55.9 21.04 55.94 4.74 56.06 4.6"/><polygon class="cls-10" points="55.94 4.74 55.9 21.04 55.53 21.75 55.58 5.45 55.94 4.74"/><polygon class="cls-5" points="56.8 4.19 56.57 4.28 56.35 4.38 56.19 4.55 56.06 4.6 55.94 4.74 55.58 5.45 55.56 5.6 55.52 5.48 55.59 5.35 55.65 5.23 55.68 5.16 55.7 5.07 55.89 4.78 55.9 4.69 55.97 4.53 57.13 4 57.13 4.04 57.05 4.09 56.8 4.19"/><polygon class="cls-11" points="55.58 5.45 55.53 21.75 55.51 21.9 55.56 5.6 55.58 5.45"/><polygon class="cls-12" points="55.56 5.6 55.51 21.9 55.47 21.79 55.52 5.48 55.56 5.6"/><polygon class="cls-13" points="56.36 5.72 56.31 22.03 56.25 22.02 56.3 5.71 56.36 5.72"/><polygon class="cls-14" points="56.49 5.72 56.44 22.02 56.31 22.03 56.36 5.72 56.49 5.72"/><polygon class="cls-5" points="56.3 5.71 56.26 5.74 56.27 5.68 56.32 5.67 56.4 5.68 56.49 5.72 56.36 5.72 56.3 5.71"/><polygon class="cls-7" points="56.3 5.71 56.25 22.02 56.21 22.04 56.26 5.74 56.3 5.71"/><polygon class="cls-15" points="55.38 5.69 55.34 22 55.24 22.47 55.29 6.17 55.38 5.69"/><polygon class="cls-16" points="55.29 6.17 55.24 22.47 54.9 22.94 54.94 6.63 55.29 6.17"/><polygon class="cls-17" points="54.94 6.63 54.9 22.94 54.48 23.36 54.52 7.05 54.94 6.63"/><polygon class="cls-18" points="49.44 7.78 49.39 24.08 48.2 24.3 48.24 8 49.44 7.78"/><polygon class="cls-19" points="48.24 8 48.2 24.3 46.29 24.17 46.33 7.87 48.24 8"/><polygon class="cls-20" points="39.98 10.89 39.94 27.19 39.49 27.3 39.53 11 39.98 10.89"/><polygon class="cls-21" points="40.37 11.1 40.32 27.41 39.94 27.19 39.98 10.89 40.37 11.1"/><polygon class="cls-4" points="39.53 11 39.49 27.3 39.18 27.46 39.22 11.16 39.53 11"/><polygon class="cls-14" points="39.18 11.17 39.13 27.47 38.72 28.05 38.77 11.75 39.18 11.17"/><polygon class="cls-22" points="38.77 11.75 38.72 28.05 38.5 28.52 38.55 12.22 38.77 11.75"/><polygon class="cls-23" points="38.55 12.22 38.5 28.52 38.33 28.82 38.37 12.52 38.55 12.22"/><polygon class="cls-24" points="64.25 12.75 64.2 29.05 62.48 28.71 62.53 12.4 64.25 12.75"/><polygon class="cls-25" points="38.37 12.52 38.33 28.82 38.24 29.1 38.28 12.79 38.37 12.52"/><polygon class="cls-26" points="92.03 12.88 91.99 29.19 91.88 29.34 91.93 13.03 92.03 12.88"/><polygon class="cls-27" points="91.93 13.03 91.88 29.34 91.68 29.4 91.72 13.09 91.93 13.03"/><polygon class="cls-5" points="91.72 13.09 91.47 13.1 91.4 12.9 91.75 12.72 92.03 12.88 91.93 13.03 91.72 13.09"/><polygon class="cls-12" points="91.47 13.1 91.43 29.41 91.35 29.21 91.4 12.9 91.47 13.1"/><polygon class="cls-16" points="91.72 13.09 91.68 29.4 91.43 29.41 91.47 13.1 91.72 13.09"/><polygon class="cls-28" points="38.28 12.79 38.24 29.1 38.04 29.48 38.08 13.18 38.28 12.79"/><polygon class="cls-29" points="90.21 13.27 90.16 29.57 90.03 29.7 90.08 13.39 90.21 13.27"/><polygon class="cls-12" points="89.86 13.41 89.81 29.71 89.8 29.67 89.85 13.36 89.86 13.41"/><polygon class="cls-14" points="90.08 13.39 90.03 29.7 89.99 29.76 90.03 13.46 90.08 13.39"/><polygon class="cls-12" points="89.89 13.46 89.85 29.76 89.81 29.71 89.86 13.41 89.89 13.46"/><polygon class="cls-30" points="91.28 13.31 91.23 29.61 91 29.77 91.05 13.47 91.28 13.31"/><polygon class="cls-12" points="89.85 13.48 89.8 29.78 89.78 29.75 89.83 13.45 89.85 13.48"/><polygon class="cls-25" points="89.94 13.49 89.89 29.8 89.8 29.78 89.85 13.48 89.94 13.49"/><polygon class="cls-31" points="65.76 13.43 65.71 29.74 64.2 29.05 64.25 12.75 65.76 13.43"/><polygon class="cls-32" points="66.12 13.4 66.08 29.7 65.71 29.74 65.76 13.43 66.12 13.4"/><polygon class="cls-33" points="90.11 13.56 90.06 29.87 89.89 29.8 89.94 13.49 90.11 13.56"/><polygon class="cls-34" points="38.08 13.18 38.04 29.48 37.71 29.74 37.76 13.43 38.08 13.18"/><polygon class="cls-4" points="91.05 13.47 91 29.77 90.76 29.89 90.8 13.59 91.05 13.47"/><polygon class="cls-35" points="66.51 13.53 66.46 29.84 66.08 29.7 66.12 13.4 66.51 13.53"/><polygon class="cls-36" points="90.2 13.63 90.15 29.93 90.06 29.87 90.11 13.56 90.2 13.63"/><polygon class="cls-37" points="90.22 13.63 90.18 29.93 90.15 29.93 90.2 13.63 90.22 13.63"/><polygon class="cls-5" points="89.85 13.36 89.85 13.32 89.88 13.29 90.06 13.26 90.13 13.26 90.21 13.27 90.08 13.39 90.03 13.46 90.09 13.52 90.15 13.52 90.21 13.52 90.33 13.46 90.49 13.33 90.55 13.27 90.58 13.26 90.59 13.26 90.67 13.27 90.76 13.29 90.79 13.29 90.99 13.29 91.22 13.27 91.28 13.31 91.05 13.47 90.8 13.59 90.53 13.65 90.22 13.63 90.2 13.63 90.11 13.56 89.94 13.49 89.85 13.48 89.83 13.45 89.83 13.44 89.89 13.46 89.86 13.41 89.85 13.36"/><polygon class="cls-3" points="90.8 13.59 90.76 29.89 90.48 29.96 90.53 13.65 90.8 13.59"/><polygon class="cls-19" points="90.53 13.65 90.48 29.96 90.18 29.93 90.22 13.63 90.53 13.65"/><polygon class="cls-38" points="66.85 13.75 66.8 30.05 66.46 29.84 66.51 13.53 66.85 13.75"/><polygon class="cls-16" points="68.23 13.79 68.19 30.09 67.21 30.14 67.26 13.83 68.23 13.79"/><polygon class="cls-39" points="67.26 13.83 67.21 30.14 66.8 30.05 66.85 13.75 67.26 13.83"/><polygon class="cls-40" points="68.51 13.96 68.46 30.26 68.19 30.09 68.23 13.79 68.51 13.96"/><polygon class="cls-19" points="70.62 14.11 70.57 30.42 68.46 30.26 68.51 13.96 70.62 14.11"/><polygon class="cls-41" points="36.03 14.11 35.99 30.41 35.65 30.29 35.7 13.99 36.03 14.11"/><polygon class="cls-42" points="36.33 14.31 36.29 30.62 35.99 30.41 36.03 14.11 36.33 14.31"/><polygon class="cls-43" points="36.55 14.55 36.5 30.85 36.29 30.62 36.33 14.31 36.55 14.55"/><polygon class="cls-44" points="74.46 14.7 74.42 31 70.57 30.42 70.62 14.11 74.46 14.7"/><polygon class="cls-12" points="36.65 14.77 36.6 31.07 36.5 30.85 36.55 14.55 36.65 14.77"/><polygon class="cls-45" points="75.83 15.13 75.78 31.43 74.42 31 74.46 14.7 75.83 15.13"/><polygon class="cls-43" points="76.18 15.51 76.13 31.81 75.78 31.43 75.83 15.13 76.18 15.51"/><polygon class="cls-39" points="76.69 15.62 76.64 31.92 76.13 31.81 76.18 15.51 76.69 15.62"/><polygon class="cls-46" points="77.37 15.67 77.32 31.98 76.64 31.92 76.69 15.62 77.37 15.67"/><polygon class="cls-30" points="37.03 15.43 36.98 31.74 36.33 31.94 36.38 15.63 37.03 15.43"/><polygon class="cls-10" points="82.3 15.8 82.25 32.11 81.61 32.06 81.66 15.76 82.3 15.8"/><polygon class="cls-47" points="88.59 15.91 88.54 32.21 87.3 32.19 87.34 15.88 88.59 15.91"/><polygon class="cls-7" points="90.01 15.35 89.97 31.66 88.54 32.21 88.59 15.91 90.01 15.35"/><polygon class="cls-48" points="78.31 15.89 78.26 32.19 77.32 31.98 77.37 15.67 78.31 15.89"/><polygon class="cls-14" points="79.5 15.85 79.45 32.16 78.26 32.19 78.31 15.89 79.5 15.85"/><polygon class="cls-9" points="87.34 15.88 87.3 32.19 86.47 32.25 86.52 15.94 87.34 15.88"/><polygon class="cls-49" points="81.66 15.76 81.61 32.06 80.03 32.23 80.08 15.93 81.66 15.76"/><polygon class="cls-50" points="80.08 15.93 80.03 32.23 79.45 32.16 79.5 15.85 80.08 15.93"/><polygon class="cls-8" points="86.52 15.94 86.47 32.25 85.38 32.4 85.43 16.09 86.52 15.94"/><polygon class="cls-51" points="85.43 16.09 85.38 32.4 84.09 32.42 84.14 16.11 85.43 16.09"/><polygon class="cls-25" points="84.14 16.11 84.09 32.42 82.25 32.11 82.3 15.8 84.14 16.11"/><polygon class="cls-4" points="91.04 17.53 91 33.83 90.94 33.86 90.98 17.55 91.04 17.53"/><polygon class="cls-52" points="90.63 17.58 90.58 33.89 90.5 33.88 90.55 17.58 90.63 17.58"/><polygon class="cls-4" points="90.98 17.55 90.94 33.86 90.84 33.9 90.89 17.59 90.98 17.55"/><polygon class="cls-52" points="90.89 17.59 90.84 33.9 90.58 33.89 90.63 17.58 90.89 17.59"/><polygon class="cls-30" points="90.55 17.58 90.5 33.88 90.31 33.94 90.36 17.64 90.55 17.58"/><polygon class="cls-22" points="90.25 17.65 90.21 33.96 90.07 33.95 90.12 17.64 90.25 17.65"/><polygon class="cls-53" points="90.36 17.64 90.31 33.94 90.21 33.96 90.25 17.65 90.36 17.64"/><polygon class="cls-32" points="90.12 17.64 90.07 33.95 89.95 33.96 90 17.65 90.12 17.64"/><polygon class="cls-12" points="89.57 17.74 89.53 34.04 89.51 33.99 89.56 17.69 89.57 17.74"/><polygon class="cls-54" points="89.67 17.77 89.63 34.07 89.53 34.04 89.57 17.74 89.67 17.77"/><polygon class="cls-55" points="90 17.65 89.95 33.96 89.88 34.09 89.92 17.79 90 17.65"/><polygon class="cls-5" points="89.57 17.64 89.61 17.61 89.66 17.57 89.83 17.5 89.92 17.49 90.01 17.48 90.11 17.47 90.18 17.47 90.29 17.44 90.49 17.39 90.67 17.44 90.82 17.5 91 17.5 91.04 17.53 90.98 17.55 90.89 17.59 90.63 17.58 90.55 17.58 90.36 17.64 90.25 17.65 90.12 17.64 90 17.65 89.92 17.79 89.81 17.79 89.67 17.77 89.57 17.74 89.56 17.69 89.57 17.64"/><polygon class="cls-56" points="89.81 17.79 89.77 34.09 89.63 34.07 89.67 17.77 89.81 17.79"/><polygon class="cls-26" points="89.92 17.79 89.88 34.09 89.77 34.09 89.81 17.79 89.92 17.79"/><polygon class="cls-48" points="95.9 20.86 95.86 37.17 95.27 37.03 95.31 20.73 95.9 20.86"/><polygon class="cls-48" points="96.05 20.9 96 37.2 95.86 37.17 95.9 20.86 96.05 20.9"/><polygon class="cls-5" points="95.9 20.86 95.31 20.73 95.41 20.66 95.44 20.65 95.86 20.73 96.06 20.79 96.23 20.89 96.05 20.9 95.9 20.86"/><polygon class="cls-51" points="96.23 20.89 96.19 37.2 96 37.2 96.05 20.9 96.23 20.89"/><polygon class="cls-30" points="128.34 25.86 128.3 42.16 127.85 42.48 127.89 26.17 128.34 25.86"/><polygon class="cls-53" points="127.89 26.17 127.85 42.48 126.81 43.48 126.86 27.18 127.89 26.17"/><polygon class="cls-57" points="135.6 30.33 135.55 46.64 135.11 46.49 135.16 30.19 135.6 30.33"/><polygon class="cls-34" points="149.4 29.41 149.36 45.71 147.96 46.8 148 30.5 149.4 29.41"/><polygon class="cls-7" points="148 30.5 147.96 46.8 146.41 47.7 146.46 31.39 148 30.5"/><polygon class="cls-7" points="146.46 31.39 146.41 47.7 144.87 48.59 144.92 32.29 146.46 31.39"/><polygon class="cls-7" points="144.92 32.29 144.87 48.59 141.8 50.38 141.84 34.08 144.92 32.29"/><polygon class="cls-12" points="0.12 33.93 0.08 50.23 0 49.97 0.05 33.67 0.12 33.93"/><polygon class="cls-12" points="0.55 34.45 0.5 50.76 0.08 50.23 0.12 33.93 0.55 34.45"/><polygon class="cls-7" points="141.84 34.08 141.8 50.38 140.25 51.28 140.3 34.97 141.84 34.08"/><polygon class="cls-43" points="0.52 35.77 0.48 52.08 0.3 51.89 0.35 35.59 0.52 35.77"/><polygon class="cls-58" points="0.8 35.94 0.75 52.24 0.48 52.08 0.52 35.77 0.8 35.94"/><polygon class="cls-59" points="1.52 36.28 1.48 52.58 0.75 52.24 0.8 35.94 1.52 36.28"/><polygon class="cls-21" points="2.16 36.64 2.12 52.95 1.48 52.58 1.52 36.28 2.16 36.64"/><polygon class="cls-60" points="3.34 37.09 3.3 53.4 2.12 52.95 2.16 36.64 3.34 37.09"/><polygon class="cls-24" points="4.05 37.24 4 53.54 3.3 53.4 3.34 37.09 4.05 37.24"/><polygon class="cls-7" points="140.3 34.97 140.25 51.28 135.64 53.96 135.69 37.65 140.3 34.97"/><polygon class="cls-61" points="4.54 37.41 4.49 53.72 4 53.54 4.05 37.24 4.54 37.41"/><polygon class="cls-62" points="5.44 37.61 5.39 53.91 4.49 53.72 4.54 37.41 5.44 37.61"/><polygon class="cls-45" points="5.85 37.73 5.8 54.04 5.39 53.91 5.44 37.61 5.85 37.73"/><polygon class="cls-63" points="6.07 37.91 6.02 54.21 5.8 54.04 5.85 37.73 6.07 37.91"/><polygon class="cls-12" points="6.23 38.12 6.18 54.43 6.02 54.21 6.07 37.91 6.23 38.12"/><polygon class="cls-7" points="135.69 37.65 135.64 53.96 134.1 54.85 134.15 38.55 135.69 37.65"/><polygon class="cls-43" points="6.46 38.35 6.41 54.65 6.18 54.43 6.23 38.12 6.46 38.35"/><polygon class="cls-64" points="6.81 38.63 6.77 54.93 6.41 54.65 6.46 38.35 6.81 38.63"/><polygon class="cls-7" points="134.15 38.55 134.1 54.85 132.56 55.75 132.61 39.45 134.15 38.55"/><polygon class="cls-12" points="7.28 39.15 7.23 55.45 6.77 54.93 6.81 38.63 7.28 39.15"/><polygon class="cls-65" points="7.47 39.34 7.43 55.64 7.23 55.45 7.28 39.15 7.47 39.34"/><polygon class="cls-12" points="7.6 39.57 7.55 55.87 7.43 55.64 7.47 39.34 7.6 39.57"/><polygon class="cls-12" points="7.82 40.13 7.77 56.44 7.55 55.87 7.6 39.57 7.82 40.13"/><polygon class="cls-12" points="7.82 40.37 7.77 56.67 7.77 56.44 7.82 40.13 7.82 40.37"/><polygon class="cls-12" points="7.91 40.7 7.87 57.01 7.77 56.67 7.82 40.37 7.91 40.7"/><polygon class="cls-12" points="8.06 40.92 8.02 57.22 7.87 57.01 7.91 40.7 8.06 40.92"/><polygon class="cls-12" points="8.29 41.37 8.24 57.67 8.02 57.22 8.06 40.92 8.29 41.37"/><polygon class="cls-12" points="8.45 41.58 8.4 57.89 8.24 57.67 8.29 41.37 8.45 41.58"/><polygon class="cls-66" points="8.96 41.82 8.92 58.12 8.4 57.89 8.45 41.58 8.96 41.82"/><polygon class="cls-56" points="9.49 41.9 9.45 58.2 8.92 58.12 8.96 41.82 9.49 41.9"/><polygon class="cls-67" points="11.84 42.57 11.79 58.88 9.45 58.2 9.49 41.9 11.84 42.57"/><polygon class="cls-7" points="132.61 39.45 132.56 55.75 126.41 59.33 126.45 43.02 132.61 39.45"/><polygon class="cls-43" points="12.13 42.87 12.09 59.17 11.79 58.88 11.84 42.57 12.13 42.87"/><polygon class="cls-68" points="12.49 43.02 12.44 59.33 12.09 59.17 12.13 42.87 12.49 43.02"/><polygon class="cls-44" points="13.4 43.16 13.35 59.46 12.44 59.33 12.49 43.02 13.4 43.16"/><polygon class="cls-69" points="13.99 43.39 13.95 59.69 13.35 59.46 13.4 43.16 13.99 43.39"/><polygon class="cls-7" points="126.45 43.02 126.41 59.33 125.01 60.14 125.05 43.84 126.45 43.02"/><polygon class="cls-70" points="14.49 43.74 14.45 60.05 13.95 59.69 13.99 43.39 14.49 43.74"/><polygon class="cls-71" points="14.8 43.91 14.75 60.21 14.45 60.05 14.49 43.74 14.8 43.91"/><polygon class="cls-35" points="15.12 44.02 15.08 60.32 14.75 60.21 14.8 43.91 15.12 44.02"/><polygon class="cls-72" points="17.01 44.47 16.96 60.77 15.08 60.32 15.12 44.02 17.01 44.47"/><polygon class="cls-73" points="17.53 44.64 17.49 60.94 16.96 60.77 17.01 44.47 17.53 44.64"/><polygon class="cls-59" points="18.02 44.87 17.97 61.17 17.49 60.94 17.53 44.64 18.02 44.87"/><polygon class="cls-74" points="112.78 49.7 112.74 66 111.58 66.34 111.63 50.04 112.78 49.7"/><polygon class="cls-12" points="113.09 50.05 113.05 66.36 112.74 66 112.78 49.7 113.09 50.05"/><polygon class="cls-7" points="125.05 43.84 125.01 60.14 114.03 66.52 114.08 50.21 125.05 43.84"/><polygon class="cls-12" points="113.51 50.55 113.46 66.85 113.05 66.36 113.09 50.05 113.51 50.55"/><polygon class="cls-7" points="114.08 50.21 114.03 66.52 113.46 66.85 113.51 50.55 114.08 50.21"/><polygon class="cls-75" points="112.31 51.19 112.27 67.49 111.34 68.09 111.38 51.79 112.31 51.19"/><polygon class="cls-7" points="111.38 51.79 111.34 68.09 110.69 68.47 110.74 52.16 111.38 51.79"/><polygon class="cls-7" points="110.74 52.16 110.69 68.47 110.05 68.84 110.09 52.54 110.74 52.16"/><polygon class="cls-7" points="110.09 52.54 110.05 68.84 106.83 70.71 106.87 54.41 110.09 52.54"/><polygon class="cls-7" points="106.87 54.41 106.83 70.71 106.19 71.08 106.23 54.78 106.87 54.41"/><polygon class="cls-7" points="106.23 54.78 106.19 71.08 103.61 72.58 103.66 56.28 106.23 54.78"/><polygon class="cls-7" points="103.66 56.28 103.61 72.58 102.97 72.95 103.02 56.65 103.66 56.28"/><polygon class="cls-7" points="103.02 56.65 102.97 72.95 102.32 73.33 102.37 57.03 103.02 56.65"/><polygon class="cls-7" points="102.37 57.03 102.32 73.33 100.39 74.45 100.44 58.15 102.37 57.03"/><polygon class="cls-7" points="100.44 58.15 100.39 74.45 99.75 74.83 99.79 58.52 100.44 58.15"/><polygon class="cls-7" points="99.79 58.52 99.75 74.83 97.17 76.32 97.22 60.02 99.79 58.52"/><polygon class="cls-7" points="97.22 60.02 97.17 76.32 96.53 76.69 96.58 60.39 97.22 60.02"/><polygon class="cls-7" points="96.58 60.39 96.53 76.69 95.89 77.07 95.93 60.77 96.58 60.39"/><polygon class="cls-7" points="95.93 60.77 95.89 77.07 92.67 78.94 92.72 62.64 95.93 60.77"/><polygon class="cls-7" points="92.72 62.64 92.67 78.94 92.02 79.31 92.07 63.01 92.72 62.64"/><polygon class="cls-7" points="92.07 63.01 92.02 79.31 90.73 80.06 90.78 63.76 92.07 63.01"/><polygon class="cls-7" points="90.78 63.76 90.73 80.06 90.09 80.44 90.14 64.13 90.78 63.76"/><polygon class="cls-7" points="90.14 64.13 90.09 80.44 89.45 80.81 89.5 64.5 90.14 64.13"/><polygon class="cls-7" points="89.5 64.5 89.45 80.81 86.23 82.68 86.28 66.38 89.5 64.5"/><polygon class="cls-7" points="86.28 66.38 86.23 82.68 85.58 83.06 85.63 66.75 86.28 66.38"/><polygon class="cls-7" points="85.63 66.75 85.58 83.06 83.02 84.55 83.06 68.25 85.63 66.75"/><polygon class="cls-7" points="83.06 68.25 83.02 84.55 82.36 84.92 82.41 68.62 83.06 68.25"/><polygon class="cls-7" points="82.41 68.62 82.36 84.92 81.72 85.29 81.77 68.99 82.41 68.62"/><polygon class="cls-7" points="81.77 68.99 81.72 85.29 79.79 86.42 79.83 70.11 81.77 68.99"/><polygon class="cls-7" points="79.83 70.11 79.79 86.42 79.14 86.79 79.19 70.49 79.83 70.11"/><polygon class="cls-7" points="79.19 70.49 79.14 86.79 77.86 87.54 77.9 71.24 79.19 70.49"/><polygon class="cls-7" points="77.9 71.24 77.86 87.54 77.21 87.92 77.26 71.61 77.9 71.24"/><polygon class="cls-7" points="77.26 71.61 77.21 87.92 76.57 88.29 76.62 71.98 77.26 71.61"/><polygon class="cls-7" points="76.62 71.98 76.57 88.29 74.64 89.41 74.68 73.11 76.62 71.98"/><polygon class="cls-7" points="74.68 73.11 74.64 89.41 74 89.78 74.04 73.48 74.68 73.11"/><polygon class="cls-7" points="74.04 73.48 74 89.78 71.42 91.28 71.47 74.98 74.04 73.48"/><polygon class="cls-5" points="112.31 51.19 111.38 51.79 110.74 52.16 110.09 52.54 106.87 54.41 106.23 54.78 103.66 56.28 103.02 56.65 102.37 57.03 100.44 58.15 99.79 58.52 97.22 60.02 96.58 60.39 95.93 60.77 92.72 62.64 92.07 63.01 90.78 63.76 90.14 64.13 89.5 64.5 86.28 66.38 85.63 66.75 83.06 68.25 82.41 68.62 81.77 68.99 79.83 70.11 79.19 70.49 77.9 71.24 77.26 71.61 76.62 71.98 74.68 73.11 74.04 73.48 71.47 74.98 70.82 75.35 18.02 44.87 17.53 44.64 17.01 44.47 15.12 44.02 14.8 43.91 14.49 43.74 13.99 43.39 13.4 43.16 12.49 43.02 12.13 42.87 11.84 42.57 9.49 41.9 8.96 41.82 8.45 41.58 8.29 41.37 8.06 40.92 7.91 40.7 7.82 40.37 7.82 40.13 7.6 39.57 7.47 39.34 7.28 39.15 6.81 38.63 6.46 38.35 6.23 38.12 6.07 37.91 5.85 37.73 5.44 37.61 4.54 37.41 4.05 37.24 3.34 37.09 2.16 36.64 1.52 36.28 0.8 35.94 0.52 35.77 0.35 35.59 0.55 34.45 0.12 33.93 0.05 33.67 0.12 33.23 0.77 33.52 1.08 33.62 1.9 33.4 2.29 33.33 2.68 33.05 4.08 31.8 4.9 30.84 5.15 30.64 5.83 30.28 9.18 29.18 11.35 28.23 11.96 27.95 12.82 27.73 13.17 27.63 13.48 27.45 13.63 27.26 15.2 26.87 15.69 26.64 16.62 26.13 19.43 26.07 20.42 25.72 20.75 25.46 21.13 24.79 22.14 24.95 22.41 25.08 23.17 24.9 24.36 24.21 25.56 23.8 25.95 23.39 29.03 22.48 29.4 22.42 32.2 22.04 33.21 21.39 33.84 20.48 34.34 19.64 34.43 19.28 34.56 19.04 34.81 17.89 35.06 17.13 35.07 16.59 35.71 15.89 36.06 15.79 36.33 15.66 36.81 15.68 37.03 15.43 36.38 15.63 36.5 15.43 36.6 15.21 36.65 14.77 36.55 14.55 36.33 14.31 36.03 14.11 35.7 13.99 35.84 13.97 36.12 13.81 36.99 13.59 37.24 13.4 37.92 12.72 39.18 11.17 38.77 11.75 38.55 12.22 38.37 12.52 38.28 12.79 38.08 13.18 37.76 13.43 40.29 11.81 40.37 11.1 39.98 10.89 39.53 11 39.22 11.16 39.84 10.6 40.87 10.25 42.11 9.98 42.88 9.88 43.88 9.67 45.12 8.66 45.37 8.12 45.54 7.94 45.8 7.79 47.04 7.87 47.99 7.96 48.76 7.84 49.44 7.78 48.24 8 46.33 7.87 50.33 7.44 52.33 7.35 53.06 7.41 54.32 7.1 54.57 6.92 54.93 6.56 55.23 6.05 55.38 5.69 55.29 6.17 54.94 6.63 54.52 7.05 54.85 6.87 55.4 6.3 55.63 6.04 56.72 5.4 57.06 4.84 57.8 5.1 58.06 4.64 58.8 4.01 59.28 3.56 59.98 3.26 61.52 1.99 62.28 0.96 62.63 0 63.1 0.07 63.75 0.27 65.1 0.66 65.96 0.92 66.89 1.16 68.12 1.48 69.61 1.87 70.37 2.14 70.7 2.31 72.57 2.75 73.61 3.01 75.14 3.44 76.12 3.71 76.8 4.01 77.88 4.31 78.86 4.57 79.81 4.92 80.33 5.23 81.02 5.41 81.56 6.49 82.36 7.32 83.25 8.25 84.36 9.11 85.39 10.18 85.64 10.44 85.78 10.82 86.23 11.13 86.63 11.97 88.66 13.19 89.53 13.78 90.01 15.35 88.59 15.91 87.34 15.88 86.52 15.94 85.43 16.09 84.14 16.11 82.3 15.8 81.66 15.76 80.08 15.93 79.5 15.85 78.31 15.89 77.37 15.67 76.69 15.62 76.18 15.51 75.83 15.13 74.46 14.7 70.62 14.11 68.51 13.96 68.23 13.79 67.26 13.83 66.85 13.75 66.51 13.53 66.12 13.4 65.76 13.43 64.25 12.75 62.53 12.4 62.8 13.82 63 14.26 63.39 14.54 64.94 14.82 65.76 14.84 66.09 14.79 66.48 14.8 66.86 14.83 67.6 15.08 67.93 15.16 69.24 15.63 70.16 16.4 70.7 16.42 72.24 16.65 73.15 16.63 74.56 17.1 75.34 17.07 77.13 17.23 77.78 17.25 79.05 17.49 79.71 17.5 81.34 17.55 82.76 17.42 83.66 17.39 84.14 17.5 84.9 17.62 86.04 18.42 86.91 18.87 87.73 18.94 89.31 19.34 89.89 19.37 90.32 19.32 90.74 19.23 91.54 19.45 95.96 21.28 97.81 21.4 98.99 21.7 99.62 21.8 100.3 21.9 102.16 22.33 102.78 22.4 103.68 22.62 104.92 22.73 106.45 22.97 106.95 22.98 108.8 23.32 109.24 23.47 109.72 23.55 110.15 23.73 111.13 23.82 112.17 24.03 112.57 24.17 113.41 24.3 114.97 24.54 116.46 24.98 118.59 25.36 119.38 25.5 119.8 25.75 120.38 25.77 121.32 25.94 122.9 25.81 124.16 26.09 124.53 26.11 125.14 26.16 126.01 25.94 128.34 25.86 127.89 26.17 126.86 27.18 127.1 27.39 128.6 28.07 129.22 28.44 130.19 28.84 130.52 28.9 131.15 29.2 131.55 29.37 131.88 29.49 133 29.72 133.69 29.86 134.43 30.19 134.97 30.3 135.6 30.33 135.16 30.19 136.2 30.34 137.65 30.38 137.98 30.29 138.99 29.97 139.64 29.73 140.31 29.53 141.24 29.48 141.89 29.68 142.23 29.74 142.6 29.73 142.96 29.7 144.03 29.82 144.68 29.68 145.02 29.62 146.01 29.56 147.18 29.54 148.91 29.32 149.4 29.41 148 30.5 146.46 31.39 144.92 32.29 141.84 34.08 140.3 34.97 135.69 37.65 134.15 38.55 132.61 39.45 126.45 43.02 125.05 43.84 114.08 50.21 113.51 50.55 113.09 50.05 112.78 49.7 111.63 50.04 111.95 50.57 112.31 51.19"/><polygon class="cls-76" points="70.82 75.35 70.77 91.66 17.97 61.17 18.02 44.87 70.82 75.35"/><polygon class="cls-7" points="71.47 74.98 71.42 91.28 70.77 91.66 70.82 75.35 71.47 74.98"/></g></g></g></svg>