<?xml version="1.0" encoding="utf-8"?>
<!-- Generator: Adobe Illustrator 22.1.0, SVG Export Plug-In . SVG Version: 6.00 Build 0)  -->
<svg version="1.1" id="Layer_1" xmlns="http://www.w3.org/2000/svg" xmlns:xlink="http://www.w3.org/1999/xlink" x="0px" y="0px"
	 viewBox="0 0 35.8 52.1" style="enable-background:new 0 0 35.8 52.1;" xml:space="preserve">
<style type="text/css">
	.st0{fill:#481212;}
	.st1{fill:#5A1616;}
	.st2{fill:#7C1E1E;}
	.st3{fill:#C83131;}
	.st4{fill:#982525;}
	.st5{fill:#6F1B1B;}
	.st6{fill:#A82929;}
	.st7{fill:#771D1D;}
	.st8{fill:#5E1717;}
	.st9{fill:#501414;}
	.st10{fill:#4B1212;}
	.st11{fill:#5B1616;}
	.st12{fill:#6C1B1B;}
	.st13{fill:#791E1E;}
	.st14{fill:#6D1B1B;}
	.st15{fill:#491212;}
	.st16{fill:#4D1313;}
	.st17{fill:#A72929;}
	.st18{fill:#7D1F1F;}
	.st19{fill:#7B1E1E;}
	.st20{fill:#902323;}
	.st21{fill:#4C1313;}
	.st22{fill:#A42828;}
	.st23{fill:#A62929;}
	.st24{fill:#942424;}
	.st25{fill:#A92929;}
	.st26{fill:#681919;}
	.st27{fill:#A32828;}
	.st28{fill:#9F2727;}
	.st29{fill:#4A1212;}
	.st30{fill:#8B2222;}
	.st31{fill:#6A1A1A;}
	.st32{fill:#912424;}
	.st33{fill:#581616;}
	.st34{fill:#A12727;}
	.st35{fill:#551515;}
	.st36{fill:#6E1B1B;}
	.st37{fill:#6B1A1A;}
	.st38{fill:#7E1F1F;}
	.st39{fill:#842020;}
	.st40{fill:#A02727;}
	.st41{fill:#922424;}
	.st42{fill:#8E2323;}
	.st43{fill:#862121;}
	.st44{fill:#661919;}
	.st45{fill:#9E2727;}
	.st46{fill:#9A2626;}
	.st47{fill:#8A2222;}
	.st48{fill:#751D1D;}
	.st49{fill:#812020;}
	.st50{fill:#511414;}
	.st51{fill:#7F1F1F;}
	.st52{fill:#601717;}
	.st53{fill:#992525;}
	.st54{fill:#892222;}
	.st55{fill:#A22828;}
	.st56{fill:#A52828;}
	.st57{fill:#9C2626;}
	.st58{fill:#9B2626;}
	.st59{fill:#741D1D;}
	.st60{fill:#952424;}
</style>
<title>Eq. Guinea</title>
<g id="Layer_2_1_">
	<g id="Layer_1-2">
		<g>
			<polygon class="st0" points="14,35.7 14,38 13.9,37.9 14,35.6 			"/>
			<polygon class="st1" points="14.1,35.7 14.1,38 14,38 14,35.7 			"/>
			<polygon class="st2" points="14.2,35.7 14.2,38 14.1,38 14.1,35.7 			"/>
			<polygon class="st3" points="14.4,35.7 14.4,35.8 14.2,35.8 14.2,35.8 14.2,35.8 14.2,35.7 14.1,35.7 14,35.7 14,35.6 14,35.5 
				14.2,35.6 			"/>
			<polygon class="st4" points="14.4,35.8 14.3,38.1 14.1,38.1 14.2,35.8 			"/>
		</g>
		<g>
			<polygon class="st0" points="16.7,5.4 16.6,7.7 16.6,7.6 16.7,5.3 			"/>
			<polygon class="st5" points="16.9,5.5 16.9,7.8 16.6,7.7 16.7,5.4 			"/>
			<polygon class="st6" points="35.8,4.4 35.7,6.7 33.7,7.9 33.8,5.6 			"/>
			<polygon class="st7" points="17.1,5.5 17,7.8 16.9,7.8 16.9,5.5 			"/>
			<polygon class="st8" points="17.2,5.6 17.2,7.9 17,7.8 17.1,5.5 			"/>
			<polygon class="st6" points="33.8,5.6 33.7,7.9 33.2,8.1 33.3,5.8 			"/>
			<polygon class="st9" points="18,6.1 18,8.4 17.2,7.9 17.2,5.6 			"/>
			<polygon class="st0" points="18,6.2 18,8.5 18,8.4 18,6.1 			"/>
			<polygon class="st0" points="18,6.2 18,8.5 18,8.5 18,6.2 			"/>
			<polygon class="st10" points="18.1,6.2 18,8.5 18,8.5 18,6.2 			"/>
			<polygon class="st11" points="18.2,6.3 18.1,8.6 18,8.5 18.1,6.2 			"/>
			<polygon class="st12" points="18.2,6.3 18.2,8.6 18.1,8.6 18.2,6.3 			"/>
			<polygon class="st13" points="18.4,6.3 18.4,8.6 18.2,8.6 18.2,6.3 			"/>
			<polygon class="st14" points="19.2,6.6 19.1,8.9 18.4,8.6 18.4,6.3 			"/>
			<polygon class="st6" points="33.3,5.8 33.2,8.1 31.7,9 31.8,6.7 			"/>
			<polygon class="st11" points="19.5,6.7 19.4,9 19.1,8.9 19.2,6.6 			"/>
			<polygon class="st15" points="19.6,6.9 19.6,9.2 19.4,9 19.5,6.7 			"/>
			<polygon class="st0" points="19.7,7.2 19.6,9.5 19.6,9.4 19.6,7.1 			"/>
			<polygon class="st0" points="19.7,7.3 19.6,9.6 19.6,9.5 19.7,7.2 			"/>
			<polygon class="st0" points="19.7,7.3 19.6,9.6 19.6,9.6 19.7,7.3 			"/>
			<polygon class="st16" points="19.8,7.4 19.8,9.7 19.6,9.6 19.7,7.3 			"/>
			<polygon class="st0" points="19.8,7.4 19.8,9.8 19.8,9.7 19.8,7.4 			"/>
			<polygon class="st0" points="19.8,7.5 19.8,9.8 19.8,9.8 19.8,7.5 			"/>
			<polygon class="st0" points="19.9,7.6 19.9,9.9 19.8,9.8 19.8,7.5 			"/>
			<polygon class="st0" points="19.9,7.7 19.9,10 19.9,9.9 19.9,7.6 			"/>
			<polygon class="st0" points="19.9,7.7 19.9,10 19.9,10 19.9,7.7 			"/>
			<polygon class="st6" points="31.8,6.7 31.7,9 29.7,10.1 29.8,7.8 			"/>
			<polygon class="st0" points="19.9,7.9 19.9,10.2 19.9,10.2 19.9,7.9 			"/>
			<polygon class="st6" points="29.8,7.8 29.7,10.1 29.6,10.2 29.6,7.9 			"/>
			<polygon class="st0" points="19.9,8 19.9,10.3 19.9,10.2 19.9,7.9 			"/>
			<polygon class="st17" points="21.2,8.2 21.2,10.5 21.1,10.6 21.1,8.3 			"/>
			<polygon class="st0" points="19.9,8.4 19.9,10.8 19.9,10.3 19.9,8 			"/>
			<polygon class="st18" points="21.1,8.3 21.1,10.6 21,10.9 21,8.6 			"/>
			<polygon class="st0" points="20,8.6 20,10.9 19.9,10.8 19.9,8.4 			"/>
			<polygon class="st6" points="21,8.6 21,10.9 20.8,10.9 20.9,8.6 			"/>
			<polygon class="st19" points="20.3,8.6 20.3,10.9 20,10.9 20,8.6 			"/>
			<polygon class="st20" points="20.9,8.6 20.8,10.9 20.3,10.9 20.3,8.6 			"/>
			<polygon class="st6" points="29.6,7.9 29.6,10.2 27.8,11.3 27.8,9 			"/>
			<polygon class="st0" points="20.5,9.1 20.5,11.4 20.4,11.2 20.4,8.9 			"/>
			<polygon class="st0" points="20.6,9.2 20.6,11.5 20.5,11.4 20.5,9.1 			"/>
			<polygon class="st21" points="20.7,9.3 20.6,11.6 20.6,11.5 20.6,9.2 			"/>
			<polygon class="st0" points="20.7,9.3 20.7,11.6 20.6,11.6 20.7,9.3 			"/>
			<polygon class="st6" points="27.8,9 27.8,11.3 27,11.7 27.1,9.4 			"/>
			<polygon class="st0" points="20.7,9.4 20.7,11.7 20.7,11.6 20.7,9.3 			"/>
			<polygon class="st22" points="27.1,9.4 27,11.7 26.9,11.8 26.9,9.5 			"/>
			<polygon class="st0" points="20.8,9.6 20.7,11.9 20.7,11.7 20.7,9.4 			"/>
			<polygon class="st23" points="26.9,9.5 26.9,11.8 26.8,11.9 26.8,9.6 			"/>
			<polygon class="st24" points="25.4,9.9 25.4,12.1 25.3,12.1 25.3,9.9 			"/>
			<polygon class="st22" points="25.3,9.9 25.3,12.1 25.2,12.2 25.2,9.9 			"/>
			<polygon class="st25" points="25.2,9.9 25.2,12.2 25.1,12.2 25.1,9.9 			"/>
			<polygon class="st26" points="27.1,9.9 27.1,12.2 27.1,12.3 27.1,10 			"/>
			<polygon class="st25" points="25.1,9.9 25.1,12.2 25,12.3 25,10 			"/>
			<polygon class="st27" points="25,10 25,12.3 24.9,12.3 24.9,10 			"/>
			<polygon class="st28" points="27.1,10 27.1,12.3 27,12.3 27,10 			"/>
			<polygon class="st28" points="24.9,10 24.9,12.3 24.6,12.3 24.7,10 			"/>
			<polygon class="st6" points="24.7,10 24.6,12.3 24.5,12.4 24.6,10.1 			"/>
			<polygon class="st25" points="27,10 27,12.3 26.9,12.4 26.9,10.1 			"/>
			<polygon class="st29" points="20.7,10.1 20.7,12.4 20.6,12.3 20.6,10 			"/>
			<polygon class="st22" points="26.9,10.1 26.9,12.4 26.7,12.4 26.7,10.1 			"/>
			<polygon class="st29" points="25.2,10.1 25.2,12.4 25.1,12.4 25.2,10.1 			"/>
			<polygon class="st30" points="26.5,10.1 26.5,12.5 26.1,12.4 26.2,10.1 			"/>
			<polygon class="st24" points="26.7,10.1 26.7,12.4 26.5,12.5 26.5,10.1 			"/>
			<polygon class="st4" points="26.2,10.1 26.1,12.4 25.9,12.5 26,10.2 			"/>
			<polygon class="st23" points="26,10.2 25.9,12.5 25.8,12.5 25.8,10.2 			"/>
			<polygon class="st31" points="25.5,10.2 25.4,12.5 25.2,12.4 25.2,10.1 			"/>
			<polygon class="st32" points="24.2,10.1 24.1,12.4 24,12.5 24.1,10.2 			"/>
			<polygon class="st0" points="24.1,10.2 24.1,12.5 24.1,12.5 24.1,10.1 			"/>
			<polygon class="st33" points="21,10.2 20.9,12.5 20.7,12.4 20.7,10.1 			"/>
			<polygon class="st34" points="24.6,10.1 24.5,12.4 24.3,12.6 24.4,10.3 			"/>
			<polygon class="st0" points="24.2,10.3 24.1,12.6 24.1,12.5 24.1,10.2 			"/>
			<polygon class="st25" points="25.8,10.2 25.8,12.5 25.6,12.6 25.6,10.3 			"/>
			<polygon class="st35" points="25.6,10.3 25.6,12.6 25.4,12.5 25.5,10.2 			"/>
			<polygon class="st17" points="24.4,10.3 24.3,12.6 24.2,12.6 24.3,10.3 			"/>
			<polygon class="st36" points="24.3,10.3 24.2,12.6 24.1,12.6 24.2,10.3 			"/>
			<polygon class="st15" points="21.1,10.3 21,12.6 20.9,12.5 21,10.2 			"/>
			<polygon class="st37" points="24.1,10.2 24,12.5 24,12.7 24.1,10.4 			"/>
			<polygon class="st0" points="21.1,10.4 21.1,12.7 21,12.6 21.1,10.3 			"/>
			<polygon class="st0" points="21.2,10.6 21.1,12.9 21.1,12.7 21.1,10.4 			"/>
			<polygon class="st32" points="23.2,10.8 23.1,13.1 23,13.1 23,10.8 			"/>
			<polygon class="st28" points="24.1,10.7 24.1,13 23.9,13.1 24,10.8 			"/>
			<polygon class="st38" points="23.3,10.8 23.3,13.1 23.1,13.1 23.2,10.8 			"/>
			<polygon class="st0" points="21.2,10.8 21.1,13.1 21.1,13 21.1,10.7 			"/>
			<polygon class="st28" points="23,10.8 23,13.1 22.8,13.2 22.9,10.9 			"/>
			<polygon class="st6" points="22.9,10.9 22.8,13.2 22.7,13.2 22.7,10.9 			"/>
			<polygon class="st14" points="23.7,11 23.7,13.3 23.3,13.1 23.3,10.8 			"/>
			<polygon class="st39" points="23.9,11 23.8,13.3 23.7,13.3 23.7,11 			"/>
			<polygon class="st32" points="24,10.8 23.9,13.1 23.8,13.3 23.9,11 			"/>
			<polygon class="st40" points="22.7,10.9 22.7,13.2 22.6,13.3 22.7,11 			"/>
			<polygon class="st41" points="22.7,11 22.6,13.3 22.6,13.3 22.6,11 			"/>
			<polygon class="st0" points="21.4,11.1 21.4,13.4 21.1,13.1 21.2,10.8 			"/>
			<polygon class="st0" points="21.4,11.2 21.4,13.5 21.4,13.4 21.4,11.1 			"/>
			<polygon class="st40" points="22.6,11 22.6,13.3 22.4,13.5 22.5,11.2 			"/>
			<polygon class="st42" points="22.5,11.2 22.4,13.5 22.3,13.6 22.4,11.4 			"/>
			<polygon class="st43" points="21.6,11.4 21.5,13.7 21.3,13.7 21.4,11.4 			"/>
			<polygon class="st44" points="21.6,11.4 21.6,13.7 21.5,13.7 21.6,11.4 			"/>
			<polygon class="st45" points="22.4,11.4 22.3,13.6 22.2,13.7 22.3,11.4 			"/>
			<polygon class="st46" points="22.3,11.4 22.2,13.7 22.1,13.7 22.2,11.4 			"/>
			<polygon class="st47" points="22.2,11.4 22.1,13.7 21.8,13.7 21.9,11.4 			"/>
			<polygon class="st10" points="21.7,11.4 21.6,13.7 21.6,13.7 21.6,11.4 			"/>
			<polygon class="st4" points="21.9,11.4 21.8,13.7 21.6,13.7 21.7,11.4 			"/>
			<polygon class="st3" points="27.1,9.9 27.1,10 27,10 26.9,10.1 26.7,10.1 26.5,10.1 26.2,10.1 26,10.2 25.8,10.2 25.6,10.3 
				25.5,10.2 25.2,10.1 25.2,10.1 25.2,10 25.3,10 25.3,9.9 25.4,9.9 25.3,9.9 25.2,9.9 25.1,9.9 25,10 24.9,10 24.7,10 24.6,10.1 
				24.4,10.3 24.3,10.3 24.2,10.3 24.1,10.2 24.1,10.1 24.2,10.1 24.1,10.2 24.1,10.4 24.1,10.5 24.1,10.6 24.1,10.7 24,10.8 
				23.9,11 23.7,11 23.3,10.8 23.2,10.8 23,10.8 22.9,10.9 22.7,10.9 22.7,11 22.6,11 22.5,11.2 22.4,11.4 22.3,11.4 22.2,11.4 
				21.9,11.4 21.7,11.4 21.6,11.4 21.6,11.4 21.4,11.4 21.4,11.3 21.4,11.2 21.4,11.1 21.2,10.8 21.1,10.7 21.1,10.7 21.2,10.6 
				21.1,10.4 21.1,10.3 21,10.2 20.7,10.1 20.6,10 20.7,9.9 20.8,9.6 20.7,9.4 20.7,9.3 20.7,9.3 20.6,9.2 20.5,9.1 20.4,8.9 
				20.5,8.8 20.6,8.7 20.7,8.7 20.9,8.7 21.1,8.6 21.1,8.5 21.2,8.4 21.2,8.2 21.1,8.3 21,8.6 20.9,8.6 20.3,8.6 20,8.6 19.9,8.4 
				19.9,8 19.9,7.9 19.9,7.9 19.9,7.7 19.9,7.7 19.9,7.6 19.8,7.5 19.8,7.5 19.8,7.4 19.8,7.4 19.7,7.3 19.7,7.3 19.7,7.2 19.6,7.1 
				19.6,6.9 19.5,6.7 19.2,6.6 18.4,6.3 18.2,6.3 18.2,6.3 18.1,6.2 18,6.2 18,6.2 18,6.1 17.2,5.6 17.1,5.5 16.9,5.5 16.7,5.4 
				16.7,5.3 16.7,5.2 16.9,5.2 17,5.3 17.1,5.4 17.3,5.4 17.5,5.4 17.8,5.4 18,5.4 18.2,5.4 18.4,5.3 19,5.2 19.1,5.1 20,4.6 
				20.5,4.3 21.9,3.5 24,2.3 26,1.1 27.9,0 28.2,0.1 28.8,0.4 30.5,1.4 30.9,1.6 32.3,2.4 34,3.4 35.8,4.4 33.8,5.6 33.3,5.8 
				31.8,6.7 29.8,7.8 29.6,7.9 27.8,9 27.1,9.4 26.9,9.5 26.8,9.6 26.9,9.7 27.1,9.8 			"/>
		</g>
		<g>
			<polygon class="st26" points="2.6,3.6 2.6,6.9 2.5,7.2 2.6,3.9 			"/>
			<polygon class="st0" points="0.1,4.2 0,7.5 0,7.3 0.1,4 			"/>
			<polygon class="st0" points="0.2,4.5 0.1,7.8 0,7.5 0.1,4.2 			"/>
			<polygon class="st0" points="0.3,4.7 0.3,8 0.1,7.8 0.2,4.5 			"/>
			<polygon class="st48" points="3,4.6 2.9,7.9 2.9,8 2.9,4.7 			"/>
			<polygon class="st49" points="3.1,4.9 3,8.2 3,8.4 3,5.1 			"/>
			<polygon class="st50" points="0.9,5.1 0.8,8.4 0.3,8 0.3,4.7 			"/>
			<polygon class="st0" points="0.9,5.1 0.9,8.5 0.8,8.4 0.9,5.1 			"/>
			<polygon class="st0" points="0.9,5.2 0.9,8.5 0.9,8.5 0.9,5.1 			"/>
			<polygon class="st51" points="1,5.4 0.9,8.7 0.8,8.7 0.9,5.4 			"/>
			<polygon class="st52" points="1.1,5.5 1.1,8.8 0.9,8.7 1,5.4 			"/>
			<polygon class="st0" points="1.2,5.6 1.2,8.9 1.1,8.8 1.1,5.5 			"/>
			<polygon class="st53" points="3.7,6.2 3.6,9.5 3.5,9.5 3.6,6.2 			"/>
			<polygon class="st54" points="3.4,6.2 3.3,9.5 3.2,9.5 3.3,6.2 			"/>
			<polygon class="st55" points="3.6,6.2 3.5,9.5 3.3,9.5 3.4,6.2 			"/>
			<polygon class="st0" points="0.6,6.3 0.5,9.6 0.4,9.4 0.5,6.1 			"/>
			<polygon class="st20" points="3.3,6.2 3.2,9.5 3.2,9.6 3.2,6.3 			"/>
			<polygon class="st56" points="3.2,6.3 3.2,9.6 3.1,9.6 3.1,6.3 			"/>
			<polygon class="st45" points="3.1,6.3 3.1,9.6 2.8,9.7 2.8,6.4 			"/>
			<polygon class="st0" points="0.7,6.4 0.6,9.7 0.5,9.6 0.6,6.3 			"/>
			<polygon class="st57" points="2.8,6.4 2.8,9.7 2.8,9.7 2.8,6.4 			"/>
			<polygon class="st34" points="2.8,6.4 2.8,9.7 2.6,9.8 2.7,6.5 			"/>
			<polygon class="st6" points="2.7,6.5 2.6,9.8 2.6,9.9 2.6,6.6 			"/>
			<polygon class="st16" points="0.9,6.6 0.9,9.9 0.6,9.7 0.7,6.4 			"/>
			<polygon class="st55" points="2.6,6.6 2.6,9.9 2.5,9.9 2.5,6.6 			"/>
			<polygon class="st58" points="2.5,6.6 2.5,9.9 2.2,9.9 2.3,6.6 			"/>
			<polygon class="st0" points="0.9,6.6 0.9,9.9 0.9,9.9 0.9,6.6 			"/>
			<polygon class="st6" points="2.3,6.6 2.2,9.9 2.1,9.9 2.2,6.6 			"/>
			<polygon class="st15" points="1,6.7 0.9,10 0.9,9.9 0.9,6.6 			"/>
			<polygon class="st7" points="1.1,6.7 1.1,10 0.9,10 1,6.7 			"/>
			<polygon class="st51" points="1.3,6.7 1.2,10 1.1,10 1.1,6.7 			"/>
			<polygon class="st6" points="2.2,6.6 2.1,9.9 2,10 2,6.7 			"/>
			<polygon class="st59" points="1.4,6.7 1.3,10 1.2,10 1.3,6.7 			"/>
			<polygon class="st6" points="2,6.7 2,10 1.8,10.1 1.8,6.8 			"/>
			<polygon class="st3" points="3.5,5.8 3.7,6.1 3.7,6.2 3.6,6.2 3.4,6.2 3.3,6.2 3.2,6.3 3.1,6.3 2.8,6.4 2.8,6.4 2.7,6.5 2.6,6.6 
				2.5,6.6 2.3,6.6 2.2,6.6 2,6.7 1.8,6.8 1.6,6.8 1.4,6.7 1.3,6.7 1.1,6.7 1,6.7 0.9,6.6 0.9,6.6 0.7,6.4 0.6,6.3 0.5,6.1 0.5,6 
				0.7,5.9 0.7,5.8 0.9,5.8 1.1,5.7 1.2,5.6 1.1,5.5 1,5.4 0.9,5.4 0.9,5.3 0.9,5.2 0.9,5.1 0.9,5.1 0.3,4.7 0.2,4.5 0.1,4.2 0.1,4 
				0.2,3.8 0.3,3.8 0.3,3.8 0.5,3.8 0.6,3.7 0.7,3.6 0.9,3.6 1.1,3.5 1.3,3.3 1.4,3.2 1.5,3.2 1.5,3.2 1.6,3.2 2,3.2 2.1,3.2 
				2.3,3.3 2.4,3.4 2.5,3.4 2.6,3.5 2.6,3.6 2.6,3.9 2.7,4 2.7,4.3 2.8,4.3 3,4.6 2.9,4.7 3.1,4.8 3.1,4.9 3.1,4.9 3,5.1 3.1,5.1 
				3.4,5.3 3.5,5.4 			"/>
			<polygon class="st26" points="1.6,6.8 1.6,10.1 1.3,10 1.4,6.7 			"/>
			<polygon class="st60" points="1.8,6.8 1.8,10.1 1.6,10.1 1.6,6.8 			"/>
		</g>
	</g>
</g>
</svg>
