<svg xmlns="http://www.w3.org/2000/svg" viewBox="0 0 70.39 39.09"><defs><style>.cls-1{isolation:isolate;}.cls-2{fill:#481212;}.cls-3{fill:#972525;}.cls-4{fill:#4c1313;}.cls-5{fill:#551515;}.cls-6{fill:#631818;}.cls-7{fill:#671919;}.cls-8{fill:#741c1c;}.cls-9{fill:#9d2727;}.cls-10{fill:#a52828;}.cls-11{fill:#9f2727;}.cls-12{fill:#a92929;}.cls-13{fill:#c83131;}.cls-14{fill:#912424;}.cls-15{fill:#872121;}.cls-16{fill:#a02727;}.cls-17{fill:#a82929;}.cls-18{fill:#5f1717;}.cls-19{fill:#832020;}.cls-20{fill:#771d1d;}.cls-21{fill:#a22828;}.cls-22{fill:#842020;}.cls-23{fill:#a72929;}.cls-24{fill:#9e2727;}.cls-25{fill:#4a1212;}.cls-26{fill:#721c1c;}.cls-27{fill:#581616;}.cls-28{fill:#491212;}.cls-29{fill:#a62929;}.cls-30{fill:#801f1f;}.cls-31{fill:#a42828;}.cls-32{fill:#4d1313;}.cls-33{fill:#6c1b1b;}.cls-34{fill:#a32828;}.cls-35{fill:#7f1f1f;}.cls-36{fill:#4b1212;}.cls-37{fill:#8a2222;}.cls-38{fill:#9c2626;}.cls-39{fill:#7b1e1e;}.cls-40{fill:#4f1313;}.cls-41{fill:#8e2323;}.cls-42{fill:#501414;}.cls-43{fill:#a12727;}.cls-44{fill:#6f1b1b;}.cls-45{fill:#6d1b1b;}.cls-46{fill:#822020;}.cls-47{fill:#8f2323;}.cls-48{fill:#661919;}.cls-49{fill:#621818;}.cls-50{fill:#9b2626;}.cls-51{fill:#531414;}.cls-52{fill:#5b1616;}.cls-53{fill:#7c1e1e;}.cls-54{fill:#9d2626;}.cls-55{fill:#922424;}.cls-56{fill:#8c2222;}.cls-57{fill:#852121;}.cls-58{fill:#952424;}.cls-59{fill:#982525;}.cls-60{fill:#7d1f1f;}.cls-61{fill:#942424;}.cls-62{fill:#932424;}.cls-63{fill:#751d1d;}.cls-64{fill:#8d2222;}.cls-65{fill:#902323;}.cls-66{fill:#912323;}.cls-67{fill:#9a2626;}.cls-68{fill:#8d2323;}.cls-69{fill:#701b1b;}.cls-70{fill:#541414;}.cls-71{fill:#521414;}.cls-72{fill:#511414;}.cls-73{fill:#7a1e1e;}.cls-74{fill:#691a1a;}.cls-75{fill:#681a1a;}.cls-76{fill:#781e1e;}.cls-77{fill:#651919;}.cls-78{fill:#641919;}.cls-79{fill:#731c1c;}.cls-80{fill:#5e1717;}.cls-81{fill:#812020;}.cls-82{fill:#6a1a1a;}.cls-83{fill:#882121;}.cls-84{fill:#5d1717;}.cls-85{fill:#a52929;}</style></defs><title>Eritrea</title><g id="Layer_2" data-name="Layer 2"><g id="Layer_1-2" data-name="Layer 1"><g class="cls-1"><polygon class="cls-2" points="4.11 1.27 4.06 17.57 3.97 17.31 4.02 1.01 4.11 1.27"/><polygon class="cls-3" points="27.67 2 27.62 18.3 27.55 18.39 27.6 2.08 27.67 2"/><polygon class="cls-4" points="26.93 2.11 26.89 18.41 26.82 18.36 26.87 2.06 26.93 2.11"/><polygon class="cls-5" points="27 2.15 26.96 18.46 26.89 18.41 26.93 2.11 27 2.15"/><polygon class="cls-2" points="4.77 2.12 4.72 18.42 4.06 17.57 4.11 1.27 4.77 2.12"/><polygon class="cls-6" points="27.08 2.18 27.04 18.48 26.96 18.46 27 2.15 27.08 2.18"/><polygon class="cls-7" points="27.6 2.08 27.55 18.39 27.54 18.49 27.59 2.19 27.6 2.08"/><polygon class="cls-8" points="27.16 2.2 27.12 18.5 27.04 18.48 27.08 2.18 27.16 2.2"/><polygon class="cls-9" points="28.14 2.25 28.1 18.55 28.01 18.64 28.06 2.34 28.14 2.25"/><polygon class="cls-10" points="28.06 2.34 28.01 18.64 27.76 18.72 27.8 2.41 28.06 2.34"/><polygon class="cls-2" points="4.89 2.39 4.84 18.7 4.72 18.42 4.77 2.12 4.89 2.39"/><polygon class="cls-11" points="27.8 2.41 27.76 18.72 27.5 18.76 27.55 2.46 27.8 2.41"/><polygon class="cls-2" points="26.99 2.54 26.94 18.84 26.89 18.75 26.94 2.44 26.99 2.54"/><polygon class="cls-12" points="27.55 2.46 27.5 18.76 27.19 18.91 27.24 2.6 27.55 2.46"/><polygon class="cls-13" points="26.93 2.11 26.87 2.06 26.88 2.02 27.19 1.99 27.26 1.98 27.35 1.95 27.51 1.92 27.65 1.93 27.67 2 27.6 2.08 27.59 2.19 27.67 2.26 27.75 2.26 27.84 2.25 27.93 2.25 28.05 2.23 28.14 2.25 28.06 2.34 27.8 2.41 27.55 2.46 27.24 2.6 27.1 2.61 26.99 2.54 26.94 2.44 27.01 2.35 27.14 2.26 27.16 2.2 27.08 2.18 27 2.15 26.93 2.11"/><polygon class="cls-5" points="27.1 2.61 27.06 18.91 26.94 18.84 26.99 2.54 27.1 2.61"/><polygon class="cls-14" points="27.24 2.6 27.19 18.91 27.06 18.91 27.1 2.61 27.24 2.6"/><polygon class="cls-15" points="32.88 2.73 32.83 19.04 32.78 19.12 32.83 2.82 32.88 2.73"/><polygon class="cls-16" points="32.83 2.82 32.78 19.12 32.58 19.16 32.62 2.86 32.83 2.82"/><polygon class="cls-12" points="32.62 2.86 32.58 19.16 32.52 19.19 32.57 2.88 32.62 2.86"/><polygon class="cls-17" points="32.57 2.88 32.52 19.19 32.45 19.21 32.5 2.91 32.57 2.88"/><polygon class="cls-18" points="29.42 2.98 29.38 19.28 29.32 19.26 29.37 2.95 29.42 2.98"/><polygon class="cls-19" points="29.5 2.98 29.45 19.29 29.38 19.28 29.42 2.98 29.5 2.98"/><polygon class="cls-20" points="29.54 2.99 29.49 19.29 29.45 19.29 29.5 2.98 29.54 2.99"/><polygon class="cls-21" points="31.34 2.97 31.29 19.27 31.16 19.3 31.21 3 31.34 2.97"/><polygon class="cls-2" points="30.9 3.04 30.86 19.35 30.83 19.27 30.88 2.97 30.9 3.04"/><polygon class="cls-2" points="31.3 3.05 31.25 19.36 31.25 19.31 31.3 3.01 31.3 3.05"/><polygon class="cls-22" points="31.04 3.06 30.99 19.36 30.86 19.35 30.9 3.04 31.04 3.06"/><polygon class="cls-23" points="31.21 3 31.16 19.3 30.99 19.36 31.04 3.06 31.21 3"/><polygon class="cls-15" points="28.5 3.1 28.45 19.4 28.28 19.39 28.33 3.08 28.5 3.1"/><polygon class="cls-24" points="28.33 3.08 28.28 19.39 28.17 19.41 28.22 3.1 28.33 3.08"/><polygon class="cls-25" points="4.79 3.04 4.74 19.34 4.64 19.25 4.68 2.94 4.79 3.04"/><polygon class="cls-11" points="32.5 2.91 32.45 19.21 32.21 19.44 32.25 3.14 32.5 2.91"/><polygon class="cls-26" points="28.65 3.13 28.61 19.44 28.45 19.4 28.5 3.1 28.65 3.13"/><polygon class="cls-27" points="4.95 3.12 4.9 19.43 4.74 19.34 4.79 3.04 4.95 3.12"/><polygon class="cls-28" points="28.71 3.2 28.66 19.5 28.61 19.44 28.65 3.13 28.71 3.2"/><polygon class="cls-2" points="31.4 3.23 31.35 19.53 31.25 19.36 31.3 3.05 31.4 3.23"/><polygon class="cls-29" points="32.25 3.14 32.21 19.44 32.08 19.53 32.13 3.23 32.25 3.14"/><polygon class="cls-23" points="28.22 3.1 28.17 19.41 27.96 19.55 28 3.24 28.22 3.1"/><polygon class="cls-30" points="27.89 3.27 27.84 19.57 27.65 19.55 27.7 3.24 27.89 3.27"/><polygon class="cls-16" points="28 3.24 27.96 19.55 27.84 19.57 27.89 3.27 28 3.24"/><polygon class="cls-31" points="32.13 3.23 32.08 19.53 31.89 19.58 31.94 3.28 32.13 3.23"/><polygon class="cls-32" points="5.06 3.21 5.01 19.51 4.9 19.43 4.95 3.12 5.06 3.21"/><polygon class="cls-16" points="31.94 3.28 31.89 19.58 31.55 19.65 31.59 3.35 31.94 3.28"/><polygon class="cls-2" points="5.07 3.34 5.02 19.64 5.01 19.51 5.06 3.21 5.07 3.34"/><polygon class="cls-12" points="31.59 3.35 31.55 19.65 31.38 19.73 31.42 3.42 31.59 3.35"/><polygon class="cls-33" points="28.43 3.47 28.38 19.78 28.35 19.77 28.4 3.46 28.43 3.47"/><polygon class="cls-34" points="58.17 3.46 58.12 19.76 57.64 19.88 57.69 3.58 58.17 3.46"/><polygon class="cls-33" points="28.58 3.52 28.53 19.82 28.38 19.78 28.43 3.47 28.58 3.52"/><polygon class="cls-35" points="28.77 3.54 28.73 19.85 28.53 19.82 28.58 3.52 28.77 3.54"/><polygon class="cls-2" points="28.81 3.59 28.76 19.89 28.73 19.85 28.77 3.54 28.81 3.59"/><polygon class="cls-36" points="58.43 3.68 58.38 19.98 58.12 19.76 58.17 3.46 58.43 3.68"/><polygon class="cls-37" points="29.82 3.62 29.77 19.92 29.44 19.91 29.48 3.6 29.82 3.62"/><polygon class="cls-38" points="29.48 3.6 29.44 19.91 29.12 19.95 29.16 3.65 29.48 3.6"/><polygon class="cls-16" points="31.42 3.42 31.38 19.73 31.12 19.96 31.16 3.66 31.42 3.42"/><polygon class="cls-39" points="30.16 3.67 30.11 19.98 29.77 19.92 29.82 3.62 30.16 3.67"/><polygon class="cls-40" points="58.53 3.76 58.49 20.06 58.38 19.98 58.43 3.68 58.53 3.76"/><polygon class="cls-17" points="31.16 3.66 31.12 19.96 31.04 19.99 31.09 3.69 31.16 3.66"/><polygon class="cls-41" points="30.84 3.69 30.8 20 30.76 20 30.81 3.69 30.84 3.69"/><polygon class="cls-15" points="30.9 3.7 30.86 20 30.8 20 30.84 3.69 30.9 3.7"/><polygon class="cls-3" points="30.81 3.69 30.76 20 30.72 20 30.76 3.7 30.81 3.69"/><polygon class="cls-12" points="31.09 3.69 31.04 19.99 31 20.01 31.04 3.71 31.09 3.69"/><polygon class="cls-22" points="30.99 3.71 30.95 20.01 30.86 20 30.9 3.7 30.99 3.71"/><polygon class="cls-41" points="31.04 3.71 31 20.01 30.95 20.01 30.99 3.71 31.04 3.71"/><polygon class="cls-2" points="68.68 3.82 68.63 20.13 68.61 19.61 68.66 3.3 68.68 3.82"/><polygon class="cls-17" points="29.16 3.65 29.12 19.95 28.85 20.06 28.9 3.75 29.16 3.65"/><polygon class="cls-2" points="28.33 3.81 28.29 20.11 28.27 20.03 28.31 3.73 28.33 3.81"/><polygon class="cls-8" points="30.81 3.8 30.76 20.1 30.74 20.18 30.79 3.87 30.81 3.8"/><polygon class="cls-42" points="28.45 3.89 28.41 20.2 28.29 20.11 28.33 3.81 28.45 3.89"/><polygon class="cls-2" points="4.39 3.83 4.34 20.13 4.32 19.79 4.36 3.49 4.39 3.83"/><polygon class="cls-43" points="28.9 3.75 28.85 20.06 28.67 20.21 28.72 3.91 28.9 3.75"/><polygon class="cls-44" points="28.62 3.94 28.57 20.24 28.41 20.2 28.45 3.89 28.62 3.94"/><polygon class="cls-10" points="28.72 3.91 28.67 20.21 28.57 20.24 28.62 3.94 28.72 3.91"/><polygon class="cls-10" points="30.79 3.87 30.74 20.18 30.65 20.25 30.69 3.94 30.79 3.87"/><polygon class="cls-17" points="30.69 3.94 30.65 20.25 30.45 20.32 30.5 4.02 30.69 3.94"/><polygon class="cls-2" points="4.46 3.95 4.41 20.25 4.34 20.13 4.39 3.83 4.46 3.95"/><polygon class="cls-34" points="30.5 4.02 30.45 20.32 30.07 20.42 30.12 4.11 30.5 4.02"/><polygon class="cls-17" points="30.12 4.11 30.07 20.42 30.04 20.43 30.08 4.13 30.12 4.11"/><polygon class="cls-17" points="30.08 4.13 30.04 20.43 29.92 20.48 29.97 4.17 30.08 4.13"/><polygon class="cls-45" points="29.62 4.26 29.57 20.56 28.88 20.36 28.93 4.06 29.62 4.26"/><polygon class="cls-46" points="29.73 4.27 29.68 20.57 29.57 20.56 29.62 4.26 29.73 4.27"/><polygon class="cls-13" points="28 3.24 27.89 3.27 27.7 3.24 27.96 3.12 28.27 3 28.61 2.92 28.85 2.89 28.93 2.88 29.09 2.9 29.17 2.91 29.24 2.99 29.24 3.07 29.31 3.12 29.4 3.13 29.47 3.09 29.51 3.04 29.54 2.99 29.5 2.98 29.42 2.98 29.37 2.95 29.41 2.9 29.53 2.88 29.63 2.93 29.64 2.93 30.16 3.27 30.28 3.32 30.4 3.35 30.42 3.35 30.74 3.4 30.82 3.42 30.89 3.38 31.4 3.23 31.3 3.05 31.3 3.01 31.34 2.97 31.21 3 31.04 3.06 30.9 3.04 30.88 2.97 30.96 2.88 31.09 2.79 31.24 2.72 31.33 2.68 31.41 2.65 31.45 2.65 31.48 2.64 31.56 2.63 31.64 2.65 31.71 2.68 31.78 2.7 31.86 2.68 31.97 2.64 32.21 2.61 32.31 2.57 32.42 2.52 32.47 2.51 32.79 2.64 32.88 2.73 32.83 2.82 32.62 2.86 32.57 2.88 32.5 2.91 32.25 3.14 32.13 3.23 31.94 3.28 31.59 3.35 31.42 3.42 31.16 3.66 31.09 3.69 31.04 3.71 30.99 3.71 30.9 3.7 30.84 3.69 30.81 3.69 30.76 3.7 30.81 3.8 30.79 3.87 30.69 3.94 30.5 4.02 30.12 4.11 30.08 4.13 29.97 4.17 29.86 4.28 29.73 4.27 29.62 4.26 28.93 4.06 29 4.02 29.06 4 29.09 4.01 29.1 4.01 29.11 4.06 29.19 4.05 29.27 4.05 29.32 4.05 29.35 4.07 29.43 4.09 29.48 4.06 29.52 4.01 29.64 3.98 29.79 3.96 29.89 3.93 29.97 3.88 30.16 3.67 29.82 3.62 29.48 3.6 29.16 3.65 28.9 3.75 28.72 3.91 28.62 3.94 28.45 3.89 28.33 3.81 28.31 3.73 28.38 3.67 28.64 3.64 28.71 3.64 28.81 3.59 28.77 3.54 28.58 3.52 28.43 3.47 28.4 3.46 28.46 3.35 28.62 3.24 28.7 3.2 28.71 3.2 28.65 3.13 28.5 3.1 28.33 3.08 28.22 3.1 28 3.24"/><polygon class="cls-22" points="29.86 4.28 29.82 20.58 29.68 20.57 29.73 4.27 29.86 4.28"/><polygon class="cls-9" points="29.97 4.17 29.92 20.48 29.82 20.58 29.86 4.28 29.97 4.17"/><polygon class="cls-47" points="70.39 3.58 70.34 19.89 69.53 21.13 69.58 4.83 70.39 3.58"/><polygon class="cls-2" points="3.44 4.84 3.39 21.14 3.33 20.86 3.38 4.56 3.44 4.84"/><polygon class="cls-29" points="69.58 4.83 69.53 21.13 69.25 21.34 69.3 5.03 69.58 4.83"/><polygon class="cls-2" points="36.73 5.21 36.69 21.51 36.67 21.39 36.71 5.09 36.73 5.21"/><polygon class="cls-2" points="36.8 5.35 36.76 21.65 36.69 21.51 36.73 5.21 36.8 5.35"/><polygon class="cls-2" points="36.84 5.49 36.79 21.79 36.76 21.65 36.8 5.35 36.84 5.49"/><polygon class="cls-48" points="69.5 5.33 69.46 21.64 69.44 21.96 69.49 5.66 69.5 5.33"/><polygon class="cls-2" points="2.66 5.88 2.61 22.18 2.37 21.71 2.42 5.41 2.66 5.88"/><polygon class="cls-2" points="30.07 5.96 30.02 22.27 29.71 21.89 29.76 5.59 30.07 5.96"/><polygon class="cls-49" points="30.31 6.06 30.26 22.36 30.02 22.27 30.07 5.96 30.31 6.06"/><polygon class="cls-50" points="70.13 5.97 70.08 22.28 69.89 22.49 69.93 6.18 70.13 5.97"/><polygon class="cls-51" points="30.66 6.27 30.61 22.58 30.26 22.36 30.31 6.06 30.66 6.27"/><polygon class="cls-7" points="31.52 6.33 31.48 22.64 31.13 22.52 31.18 6.21 31.52 6.33"/><polygon class="cls-52" points="30.8 6.34 30.76 22.65 30.61 22.58 30.66 6.27 30.8 6.34"/><polygon class="cls-23" points="31.18 6.21 31.13 22.52 30.76 22.65 30.8 6.34 31.18 6.21"/><polygon class="cls-31" points="26.45 6.26 26.4 22.57 26.28 22.66 26.32 6.36 26.45 6.26"/><polygon class="cls-53" points="31.88 6.39 31.84 22.69 31.48 22.64 31.52 6.33 31.88 6.39"/><polygon class="cls-54" points="69.98 6.38 69.93 22.68 69.78 22.84 69.83 6.54 69.98 6.38"/><polygon class="cls-42" points="32.01 6.47 31.96 22.78 31.84 22.69 31.88 6.39 32.01 6.47"/><polygon class="cls-55" points="69.85 6.69 69.8 22.99 67.84 23.06 67.89 6.75 69.85 6.69"/><polygon class="cls-21" points="67.89 6.75 67.84 23.06 67.4 23.16 67.45 6.85 67.89 6.75"/><polygon class="cls-23" points="67.45 6.85 67.4 23.16 67.17 23.23 67.22 6.93 67.45 6.85"/><polygon class="cls-56" points="57.95 6.93 57.91 23.23 57.39 23.22 57.43 6.92 57.95 6.93"/><polygon class="cls-57" points="58.48 6.97 58.44 23.27 57.91 23.23 57.95 6.93 58.48 6.97"/><polygon class="cls-58" points="57.43 6.92 57.39 23.22 56.46 23.28 56.51 6.97 57.43 6.92"/><polygon class="cls-37" points="47.26 6.98 47.21 23.29 45.73 23.23 45.77 6.93 47.26 6.98"/><polygon class="cls-59" points="45.77 6.93 45.73 23.23 45.04 23.3 45.09 6.99 45.77 6.93"/><polygon class="cls-60" points="59.04 7.05 59 23.35 58.44 23.27 58.48 6.97 59.04 7.05"/><polygon class="cls-61" points="56.51 6.97 56.46 23.28 55.2 23.35 55.24 7.04 56.51 6.97"/><polygon class="cls-37" points="48.77 7.04 48.72 23.34 47.21 23.29 47.26 6.98 48.77 7.04"/><polygon class="cls-2" points="32.37 7.01 32.32 23.31 31.96 22.78 32.01 6.47 32.37 7.01"/><polygon class="cls-62" points="64.06 7.12 64.01 23.43 63.42 23.45 63.47 7.15 64.06 7.12"/><polygon class="cls-31" points="45.09 6.99 45.04 23.3 44.42 23.46 44.46 7.16 45.09 6.99"/><polygon class="cls-9" points="63.47 7.15 63.42 23.45 62.84 23.54 62.89 7.24 63.47 7.15"/><polygon class="cls-53" points="65.23 7.3 65.18 23.6 64.01 23.43 64.06 7.12 65.23 7.3"/><polygon class="cls-39" points="50.19 7.26 50.15 23.57 48.72 23.34 48.77 7.04 50.19 7.26"/><polygon class="cls-50" points="55.24 7.04 55.2 23.35 53.31 23.59 53.35 7.28 55.24 7.04"/><polygon class="cls-34" points="62.89 7.24 62.84 23.54 62.31 23.67 62.36 7.37 62.89 7.24"/><polygon class="cls-22" points="66.5 7.41 66.46 23.71 65.18 23.6 65.23 7.3 66.5 7.41"/><polygon class="cls-63" points="60.67 7.39 60.63 23.7 59 23.35 59.04 7.05 60.67 7.39"/><polygon class="cls-64" points="67.15 7.42 67.11 23.72 66.46 23.71 66.5 7.41 67.15 7.42"/><polygon class="cls-45" points="67.22 6.93 67.17 23.23 67.11 23.72 67.15 7.42 67.22 6.93"/><polygon class="cls-49" points="2.25 7.29 2.21 23.59 1.68 23.39 1.73 7.08 2.25 7.29"/><polygon class="cls-50" points="62.36 7.37 62.31 23.67 61.46 23.78 61.51 7.48 62.36 7.37"/><polygon class="cls-46" points="61.51 7.48 61.46 23.78 60.63 23.7 60.67 7.39 61.51 7.48"/><polygon class="cls-50" points="53.35 7.28 53.31 23.59 51.84 23.77 51.89 7.47 53.35 7.28"/><polygon class="cls-41" points="51.89 7.47 51.84 23.77 51.45 23.77 51.49 7.47 51.89 7.47"/><polygon class="cls-39" points="51.49 7.47 51.45 23.77 50.15 23.57 50.19 7.26 51.49 7.47"/><polygon class="cls-12" points="44.46 7.16 44.42 23.46 43.74 23.76 43.78 7.45 44.46 7.16"/><polygon class="cls-10" points="43.78 7.45 43.74 23.76 43.49 23.83 43.54 7.52 43.78 7.45"/><polygon class="cls-40" points="2.52 7.48 2.47 23.78 2.21 23.59 2.25 7.29 2.52 7.48"/><polygon class="cls-2" points="2.61 7.59 2.56 23.89 2.47 23.78 2.52 7.48 2.61 7.59"/><polygon class="cls-43" points="43.54 7.52 43.49 23.83 42.45 24.04 42.49 7.74 43.54 7.52"/><polygon class="cls-16" points="42.49 7.74 42.45 24.04 41.86 24.15 41.91 7.85 42.49 7.74"/><polygon class="cls-65" points="41.91 7.85 41.86 24.15 41 24.17 41.04 7.86 41.91 7.85"/><polygon class="cls-66" points="41.04 7.86 41 24.17 40.02 24.19 40.06 7.88 41.04 7.86"/><polygon class="cls-2" points="2.72 7.82 2.67 24.12 2.56 23.89 2.61 7.59 2.72 7.82"/><polygon class="cls-54" points="40.06 7.88 40.02 24.19 39.6 24.25 39.65 7.95 40.06 7.88"/><polygon class="cls-32" points="2.85 7.92 2.81 24.23 2.67 24.12 2.72 7.82 2.85 7.92"/><polygon class="cls-34" points="39.65 7.95 39.6 24.25 39.19 24.35 39.24 8.05 39.65 7.95"/><polygon class="cls-2" points="2.93 8.04 2.88 24.34 2.81 24.23 2.85 7.92 2.93 8.04"/><polygon class="cls-23" points="39.24 8.05 39.19 24.35 38.45 24.61 38.5 8.3 39.24 8.05"/><polygon class="cls-2" points="3.01 8.52 2.96 24.82 2.88 24.34 2.93 8.04 3.01 8.52"/><polygon class="cls-11" points="38.5 8.3 38.45 24.61 38.11 24.93 38.16 8.62 38.5 8.3"/><polygon class="cls-12" points="38.16 8.62 38.11 24.93 37.84 25.05 37.89 8.75 38.16 8.62"/><polygon class="cls-17" points="37.89 8.75 37.84 25.05 37.68 25.12 37.73 8.81 37.89 8.75"/><polygon class="cls-24" points="37.73 8.81 37.68 25.12 37.59 25.21 37.63 8.91 37.73 8.81"/><polygon class="cls-45" points="37.63 8.91 37.59 25.21 37.55 25.43 37.6 9.12 37.63 8.91"/><polygon class="cls-50" points="37.6 9.12 37.55 25.43 37.47 25.52 37.51 9.22 37.6 9.12"/><polygon class="cls-67" points="37.51 9.22 37.47 25.52 36.52 25.64 36.57 9.33 37.51 9.22"/><polygon class="cls-38" points="36.57 9.33 36.52 25.64 36.22 25.68 36.27 9.37 36.57 9.33"/><polygon class="cls-29" points="36.27 9.37 36.22 25.68 35.96 25.75 36.01 9.45 36.27 9.37"/><polygon class="cls-17" points="36.01 9.45 35.96 25.75 35.75 25.88 35.8 9.58 36.01 9.45"/><polygon class="cls-34" points="35.8 9.58 35.75 25.88 35.44 26.14 35.49 9.84 35.8 9.58"/><polygon class="cls-12" points="35.49 9.84 35.44 26.14 35.25 26.23 35.3 9.93 35.49 9.84"/><polygon class="cls-29" points="35.3 9.93 35.25 26.23 34.8 26.37 34.84 10.07 35.3 9.93"/><polygon class="cls-68" points="34.84 10.07 34.8 26.37 34.37 26.37 34.42 10.06 34.84 10.07"/><polygon class="cls-55" points="34.42 10.06 34.37 26.37 34.18 26.37 34.23 10.07 34.42 10.06"/><polygon class="cls-11" points="34.23 10.07 34.18 26.37 33.98 26.41 34.02 10.11 34.23 10.07"/><polygon class="cls-2" points="0.06 10.1 0.01 26.41 0 26.19 0.05 9.89 0.06 10.1"/><polygon class="cls-19" points="0.38 10.13 0.33 26.44 0.01 26.41 0.06 10.1 0.38 10.13"/><polygon class="cls-69" points="34.02 10.11 33.98 26.41 33.95 26.58 33.99 10.28 34.02 10.11"/><polygon class="cls-70" points="0.63 10.29 0.59 26.59 0.33 26.44 0.38 10.13 0.63 10.29"/><polygon class="cls-56" points="34.03 10.44 33.99 26.75 33.85 26.98 33.89 10.67 34.03 10.44"/><polygon class="cls-5" points="1.18 10.61 1.14 26.91 0.59 26.59 0.63 10.29 1.18 10.61"/><polygon class="cls-71" points="1.68 10.92 1.64 27.23 1.14 26.91 1.18 10.61 1.68 10.92"/><polygon class="cls-38" points="33.89 10.67 33.85 26.98 33.45 27.38 33.5 11.08 33.89 10.67"/><polygon class="cls-72" points="2.07 11.18 2.02 27.48 1.64 27.23 1.68 10.92 2.07 11.18"/><polygon class="cls-12" points="33.5 11.08 33.45 27.38 32.92 27.63 32.97 11.33 33.5 11.08"/><polygon class="cls-34" points="32.97 11.33 32.92 27.63 32.78 27.74 32.83 11.44 32.97 11.33"/><polygon class="cls-65" points="31.11 11.53 31.07 27.83 30.8 27.83 30.85 11.53 31.11 11.53"/><polygon class="cls-15" points="31.37 11.54 31.32 27.84 31.07 27.83 31.11 11.53 31.37 11.54"/><polygon class="cls-38" points="30.85 11.53 30.8 27.83 30.57 27.87 30.61 11.56 30.85 11.53"/><polygon class="cls-60" points="31.6 11.57 31.55 27.88 31.32 27.84 31.37 11.54 31.6 11.57"/><polygon class="cls-23" points="30.61 11.56 30.57 27.87 30.25 27.97 30.29 11.67 30.61 11.56"/><polygon class="cls-2" points="2.35 11.61 2.3 27.91 2.02 27.48 2.07 11.18 2.35 11.61"/><polygon class="cls-45" points="32.35 11.79 32.31 28.09 31.55 27.88 31.6 11.57 32.35 11.79"/><polygon class="cls-12" points="30.29 11.67 30.25 27.97 29.98 28.09 30.03 11.79 30.29 11.67"/><polygon class="cls-17" points="32.91 11.76 32.87 28.06 32.7 28.16 32.75 11.86 32.91 11.76"/><polygon class="cls-73" points="32.75 11.86 32.7 28.16 32.31 28.09 32.35 11.79 32.75 11.86"/><polygon class="cls-28" points="2.46 12.12 2.41 28.42 2.23 28.24 2.28 11.94 2.46 12.12"/><polygon class="cls-30" points="30.37 12.23 30.32 28.53 30.27 28.66 30.32 12.36 30.37 12.23"/><polygon class="cls-51" points="2.8 12.33 2.76 28.64 2.41 28.42 2.46 12.12 2.8 12.33"/><polygon class="cls-56" points="30.32 12.36 30.27 28.66 30.13 28.9 30.18 12.6 30.32 12.36"/><polygon class="cls-25" points="3.09 12.6 3.04 28.9 2.76 28.64 2.8 12.33 3.09 12.6"/><polygon class="cls-74" points="3.29 12.66 3.25 28.96 3.04 28.9 3.09 12.6 3.29 12.66"/><polygon class="cls-46" points="3.51 12.68 3.46 28.99 3.25 28.96 3.29 12.66 3.51 12.68"/><polygon class="cls-56" points="3.72 12.69 3.67 28.99 3.46 28.99 3.51 12.68 3.72 12.69"/><polygon class="cls-75" points="30.18 12.6 30.13 28.9 30.11 29.14 30.16 12.84 30.18 12.6"/><polygon class="cls-76" points="30.16 12.84 30.11 29.14 30.07 29.26 30.12 12.96 30.16 12.84"/><polygon class="cls-77" points="4.35 12.92 4.3 29.22 3.67 28.99 3.72 12.69 4.35 12.92"/><polygon class="cls-71" points="4.49 13.01 4.44 29.31 4.3 29.22 4.35 12.92 4.49 13.01"/><polygon class="cls-78" points="4.67 13.07 4.62 29.38 4.44 29.31 4.49 13.01 4.67 13.07"/><polygon class="cls-29" points="30.12 12.96 30.07 29.26 29.81 29.45 29.85 13.14 30.12 12.96"/><polygon class="cls-79" points="5.07 13.16 5.02 29.47 4.62 29.38 4.67 13.07 5.07 13.16"/><polygon class="cls-80" points="5.23 13.24 5.19 29.54 5.02 29.47 5.07 13.16 5.23 13.24"/><polygon class="cls-2" points="5.33 13.38 5.29 29.68 5.19 29.54 5.23 13.24 5.33 13.38"/><polygon class="cls-14" points="29.85 13.14 29.81 29.45 29.58 29.77 29.63 13.47 29.85 13.14"/><polygon class="cls-24" points="29.63 13.47 29.58 29.77 29.49 29.86 29.53 13.56 29.63 13.47"/><polygon class="cls-2" points="5.34 13.71 5.3 30.01 5.29 29.68 5.33 13.38 5.34 13.71"/><polygon class="cls-12" points="29.53 13.56 29.49 29.86 28.94 30.12 28.99 13.82 29.53 13.56"/><polygon class="cls-2" points="5.42 13.87 5.37 30.17 5.3 30.01 5.34 13.71 5.42 13.87"/><polygon class="cls-15" points="28.99 13.82 28.94 30.12 28.75 30.48 28.8 14.18 28.99 13.82"/><polygon class="cls-24" points="28.8 14.18 28.75 30.48 28.57 30.66 28.61 14.36 28.8 14.18"/><polygon class="cls-2" points="5.83 14.36 5.79 30.66 5.37 30.17 5.42 13.87 5.83 14.36"/><polygon class="cls-10" points="28.61 14.36 28.57 30.66 28.12 30.99 28.16 14.69 28.61 14.36"/><polygon class="cls-59" points="24.98 14.73 24.94 31.03 24.28 31.09 24.33 14.79 24.98 14.73"/><polygon class="cls-35" points="25.8 14.83 25.75 31.13 24.94 31.03 24.98 14.73 25.8 14.83"/><polygon class="cls-17" points="28.16 14.69 28.12 30.99 27.79 31.18 27.84 14.88 28.16 14.69"/><polygon class="cls-65" points="27.84 14.88 27.79 31.18 27.26 31.19 27.31 14.88 27.84 14.88"/><polygon class="cls-77" points="26.11 14.94 26.06 31.25 25.75 31.13 25.8 14.83 26.11 14.94"/><polygon class="cls-54" points="27.31 14.88 27.26 31.19 26.6 31.29 26.65 14.98 27.31 14.88"/><polygon class="cls-61" points="26.65 14.98 26.6 31.29 26.42 31.3 26.47 14.99 26.65 14.98"/><polygon class="cls-60" points="26.47 14.99 26.42 31.3 26.06 31.25 26.11 14.94 26.47 14.99"/><polygon class="cls-21" points="24.33 14.79 24.28 31.09 23.97 31.35 24.02 15.05 24.33 14.79"/><polygon class="cls-2" points="6.39 15.03 6.34 31.33 5.79 30.66 5.83 14.36 6.39 15.03"/><polygon class="cls-55" points="21.25 15.17 21.2 31.48 20.99 31.48 21.03 15.18 21.25 15.17"/><polygon class="cls-81" points="21.45 15.19 21.41 31.5 21.2 31.48 21.25 15.17 21.45 15.19"/><polygon class="cls-31" points="24.02 15.05 23.97 31.35 22.81 31.66 22.86 15.35 24.02 15.05"/><polygon class="cls-81" points="22.86 15.35 22.81 31.66 21.41 31.5 21.45 15.19 22.86 15.35"/><polygon class="cls-2" points="6.98 15.74 6.93 32.04 6.34 31.33 6.39 15.03 6.98 15.74"/><polygon class="cls-2" points="7.09 16.01 7.05 32.31 6.93 32.04 6.98 15.74 7.09 16.01"/><polygon class="cls-2" points="7.1 16.4 7.06 32.7 7.05 32.31 7.09 16.01 7.1 16.4"/><polygon class="cls-2" points="7.17 16.53 7.13 32.84 7.06 32.7 7.1 16.4 7.17 16.53"/><polygon class="cls-28" points="8.13 17.5 8.09 33.8 7.13 32.84 7.17 16.53 8.13 17.5"/><polygon class="cls-72" points="8.41 17.68 8.36 33.98 8.09 33.8 8.13 17.5 8.41 17.68"/><polygon class="cls-82" points="8.8 17.8 8.75 34.1 8.36 33.98 8.41 17.68 8.8 17.8"/><polygon class="cls-2" points="8.81 18.21 8.77 34.51 8.68 34.31 8.73 18.01 8.81 18.21"/><polygon class="cls-2" points="9.47 18.98 9.43 35.28 8.77 34.51 8.81 18.21 9.47 18.98"/><polygon class="cls-38" points="20.47 19.1 20.42 35.41 20.22 35.44 20.27 19.13 20.47 19.1"/><polygon class="cls-55" points="20.27 19.13 20.22 35.44 19.92 35.45 19.97 19.14 20.27 19.13"/><polygon class="cls-81" points="21.08 19.17 21.03 35.47 20.42 35.41 20.47 19.1 21.08 19.17"/><polygon class="cls-2" points="9.54 19.16 9.5 35.46 9.43 35.28 9.47 18.98 9.54 19.16"/><polygon class="cls-73" points="21.48 19.23 21.43 35.54 21.03 35.47 21.08 19.17 21.48 19.23"/><polygon class="cls-54" points="19.97 19.14 19.92 35.45 19.75 35.62 19.8 19.32 19.97 19.14"/><polygon class="cls-44" points="21.87 19.34 21.82 35.64 21.43 35.54 21.48 19.23 21.87 19.34"/><polygon class="cls-55" points="22.43 19.32 22.38 35.62 21.82 35.64 21.87 19.34 22.43 19.32"/><polygon class="cls-69" points="22.61 19.36 22.57 35.67 22.38 35.62 22.43 19.32 22.61 19.36"/><polygon class="cls-83" points="23.42 19.41 23.37 35.71 22.57 35.67 22.61 19.36 23.42 19.41"/><polygon class="cls-82" points="23.89 19.56 23.85 35.86 23.37 35.71 23.42 19.41 23.89 19.56"/><polygon class="cls-17" points="24.09 19.45 24.05 35.75 23.85 35.86 23.89 19.56 24.09 19.45"/><polygon class="cls-17" points="19.8 19.32 19.75 35.62 19.25 35.9 19.3 19.6 19.8 19.32"/><polygon class="cls-16" points="19.3 19.6 19.25 35.9 19.08 36.06 19.12 19.76 19.3 19.6"/><polygon class="cls-2" points="9.6 19.81 9.55 36.12 9.49 36.01 9.53 19.71 9.6 19.81"/><polygon class="cls-51" points="9.74 19.91 9.7 36.21 9.55 36.12 9.6 19.81 9.74 19.91"/><polygon class="cls-79" points="19.12 19.76 19.08 36.06 19.03 36.26 19.08 19.95 19.12 19.76"/><polygon class="cls-84" points="10.46 20.23 10.42 36.54 9.7 36.21 9.74 19.91 10.46 20.23"/><polygon class="cls-84" points="11.75 20.82 11.7 37.12 10.42 36.54 10.46 20.23 11.75 20.82"/><polygon class="cls-84" points="12.17 21.01 12.12 37.31 11.7 37.12 11.75 20.82 12.17 21.01"/><polygon class="cls-29" points="19.61 20.49 19.56 36.8 18.73 37.38 18.78 21.07 19.61 20.49"/><polygon class="cls-17" points="18.78 21.07 18.73 37.38 18.42 37.49 18.47 21.19 18.78 21.07"/><polygon class="cls-84" points="12.91 21.35 12.86 37.65 12.12 37.31 12.17 21.01 12.91 21.35"/><polygon class="cls-29" points="18.47 21.19 18.42 37.49 17.86 37.67 17.91 21.36 18.47 21.19"/><polygon class="cls-12" points="17.91 21.36 17.86 37.67 17.62 37.78 17.67 21.48 17.91 21.36"/><polygon class="cls-17" points="17.67 21.48 17.62 37.78 17.17 38.04 17.22 21.74 17.67 21.48"/><polygon class="cls-84" points="13.87 21.79 13.83 38.09 12.86 37.65 12.91 21.35 13.87 21.79"/><polygon class="cls-21" points="17.22 21.74 17.17 38.04 16.74 38.4 16.79 22.1 17.22 21.74"/><polygon class="cls-31" points="16.79 22.1 16.74 38.4 16.63 38.49 16.67 22.19 16.79 22.1"/><polygon class="cls-84" points="14.82 22.22 14.77 38.52 13.83 38.09 13.87 21.79 14.82 22.22"/><polygon class="cls-68" points="16.67 22.19 16.63 38.49 16.52 38.66 16.57 22.36 16.67 22.19"/><polygon class="cls-85" points="16.57 22.36 16.52 38.66 16.31 38.81 16.36 22.51 16.57 22.36"/><polygon class="cls-48" points="16.36 22.51 16.31 38.81 16.3 39.09 16.35 22.78 16.36 22.51"/><polygon class="cls-78" points="16.35 22.78 16.3 39.09 14.77 38.52 14.82 22.22 16.35 22.78"/><polygon class="cls-13" points="67.22 6.93 67.15 7.42 66.5 7.41 65.23 7.3 64.06 7.12 63.47 7.15 62.89 7.24 62.36 7.37 61.51 7.48 60.67 7.39 59.04 7.05 58.48 6.97 57.95 6.93 57.43 6.92 56.51 6.97 55.24 7.04 53.35 7.28 51.89 7.47 51.49 7.47 50.19 7.26 48.77 7.04 47.26 6.98 45.77 6.93 45.09 6.99 44.46 7.16 43.78 7.45 43.54 7.52 42.49 7.74 41.91 7.85 41.04 7.86 40.06 7.88 39.65 7.95 39.24 8.05 38.5 8.3 38.16 8.62 37.89 8.75 37.73 8.81 37.63 8.91 37.6 9.12 37.51 9.22 36.57 9.33 36.27 9.37 36.01 9.45 35.8 9.58 35.49 9.84 35.3 9.93 34.84 10.07 34.42 10.06 34.23 10.07 34.02 10.11 33.99 10.28 34.03 10.44 33.89 10.67 33.5 11.08 32.97 11.33 32.83 11.44 32.91 11.76 32.75 11.86 32.35 11.79 31.6 11.57 31.37 11.54 31.11 11.53 30.85 11.53 30.61 11.56 30.29 11.67 30.03 11.79 30.37 12.23 30.32 12.36 30.18 12.6 30.16 12.84 30.12 12.96 29.85 13.14 29.63 13.47 29.53 13.56 28.99 13.82 28.8 14.18 28.61 14.36 28.16 14.69 27.84 14.88 27.31 14.88 26.65 14.98 26.47 14.99 26.11 14.94 25.8 14.83 24.98 14.73 24.33 14.79 24.02 15.05 22.86 15.35 21.45 15.19 21.25 15.17 21.03 15.18 21.42 15.72 22.03 16.56 22.63 17.4 23.21 18.23 23.75 18.98 24.09 19.45 23.89 19.56 23.42 19.41 22.61 19.36 22.43 19.32 21.87 19.34 21.48 19.23 21.08 19.17 20.47 19.1 20.27 19.13 19.97 19.14 19.8 19.32 19.3 19.6 19.12 19.76 19.08 19.95 19.13 20.1 19.21 20.2 19.32 20.3 19.48 20.4 19.61 20.49 18.78 21.07 18.47 21.19 17.91 21.36 17.67 21.48 17.22 21.74 16.79 22.1 16.67 22.19 16.57 22.36 16.36 22.51 16.35 22.78 14.82 22.22 13.87 21.79 12.91 21.35 12.17 21.01 11.75 20.82 10.46 20.23 9.74 19.91 9.6 19.81 9.53 19.71 9.54 19.16 9.47 18.98 8.81 18.21 8.73 18.01 8.8 17.8 8.41 17.68 8.13 17.5 7.17 16.53 7.1 16.4 7.09 16.01 6.98 15.74 6.39 15.03 5.83 14.36 5.42 13.87 5.34 13.71 5.33 13.38 5.23 13.24 5.07 13.16 4.67 13.07 4.49 13.01 4.35 12.92 3.72 12.69 3.51 12.68 3.29 12.66 3.09 12.6 2.8 12.33 2.46 12.12 2.28 11.94 2.28 11.82 2.35 11.61 2.07 11.18 1.68 10.92 1.18 10.61 0.63 10.29 0.38 10.13 0.06 10.1 0.05 9.89 0.54 9.8 0.74 9.72 1.25 9.64 1.62 9.36 1.92 9.19 2.04 8.89 2.22 8.77 3.01 8.52 2.93 8.04 2.85 7.92 2.72 7.82 2.61 7.59 2.52 7.48 2.25 7.29 1.73 7.08 2.3 6.3 2.53 6.12 2.66 5.88 2.42 5.41 2.53 5.2 2.7 5.15 3.09 5.14 3.29 5.08 3.41 4.97 3.44 4.84 3.38 4.56 3.52 4.13 3.62 4 3.77 3.91 4.16 4.06 4.34 4.13 4.46 3.95 4.39 3.83 4.36 3.49 4.74 3.47 4.93 3.44 5.07 3.34 5.06 3.21 4.95 3.12 4.79 3.04 4.68 2.94 4.69 2.81 4.86 2.53 4.89 2.39 4.77 2.12 4.11 1.27 4.02 1.01 4.17 0 4.66 0.14 5.34 0.21 5.58 0.31 5.96 0.37 7.75 0.63 9.29 0.98 10.55 1.18 11.3 1.43 11.52 1.46 11.71 1.66 12.04 1.71 12.41 1.72 12.72 1.79 13.02 1.92 13.3 2.02 13.91 2.15 14.07 2.2 14.37 2.35 14.55 2.41 14.85 2.47 15.17 2.61 16.04 2.82 16.73 3.05 17.03 3.17 17.21 3.24 17.42 3.35 17.43 3.5 17.86 3.62 18 3.74 18.49 3.87 19.17 4.16 19.83 4.47 21.03 4.94 21.36 5.09 21.98 5.25 23.12 5.63 23.48 5.7 24.12 5.61 24.73 5.55 25.37 5.82 25.64 5.93 26.17 5.99 26.45 6.26 26.32 6.36 26.65 6.47 26.91 6.59 27.27 6.49 27.4 6.4 27.63 6.12 28.15 6.12 29.63 6.56 29.86 6.52 30.75 6.91 31.32 7.27 32.08 7.22 32.37 7.01 32.01 6.47 31.88 6.39 31.52 6.33 31.18 6.21 30.8 6.34 30.66 6.27 30.31 6.06 30.07 5.96 29.76 5.59 29.8 5.35 29.89 5.16 30.15 5.13 30.43 5.13 31.58 5.07 31.91 4.98 32.51 5.22 32.71 5.56 33.47 5.62 33.94 5.73 35.33 6.06 35.56 6.01 36.23 5.83 36.65 5.84 36.74 5.61 36.84 5.49 36.8 5.35 36.73 5.21 36.71 5.09 37.89 4.51 38.97 4.59 39.31 4.55 39.39 4.35 40.06 4.5 40.43 4.61 40.54 4.73 41.05 4.77 41.31 4.86 41.4 4.59 41.62 4.54 41.96 4.33 42.27 4.28 42.61 4.24 42.85 4.17 43.31 3.92 44.25 3.57 44.55 3.56 44.9 3.65 45.11 3.66 45.61 3.61 45.94 3.58 46.3 3.6 46.64 3.67 46.93 3.79 47.88 3.8 48.24 3.91 48.55 3.92 49.12 3.9 49.49 3.92 50.09 4.08 50.84 4.06 51.05 4.05 51.27 4.06 51.98 4.19 52.33 4.31 53.03 4.17 53.26 3.94 53.77 3.94 53.98 3.94 54.36 3.73 54.95 3.61 55.52 3.69 56.13 3.7 56.66 3.74 57.23 3.83 57.81 3.67 58.18 3.76 58.53 3.76 58.43 3.68 58.17 3.46 57.69 3.58 58.11 3.43 58.69 3.48 59.02 3.42 59.24 3.49 59.51 3.66 59.81 3.74 60.44 3.83 61.34 4.22 61.59 4.26 61.95 4.43 62.34 4.41 62.53 4.35 62.85 4.19 64.24 3.89 64.87 3.98 65.16 3.9 66.22 4.07 66.58 4.15 66.94 4.3 67.74 4.15 67.98 4.15 68.22 4.07 68.47 3.94 68.68 3.82 68.66 3.3 69.77 3.45 70.39 3.58 69.58 4.83 69.3 5.03 69.5 5.33 69.49 5.66 69.71 5.76 69.99 5.85 70.13 5.97 69.93 6.18 69.98 6.38 69.83 6.54 69.85 6.69 67.89 6.75 67.45 6.85 67.22 6.93"/></g></g></g></svg>