<svg xmlns="http://www.w3.org/2000/svg" viewBox="0 0 118.51 75.96"><defs><style>.cls-1{isolation:isolate;}.cls-2{fill:#651919;}.cls-3{fill:#641818;}.cls-4{fill:#661919;}.cls-5{fill:#641919;}.cls-6{fill:#751d1d;}.cls-7{fill:#481212;}.cls-8{fill:#4a1212;}.cls-9{fill:#6d1b1b;}.cls-10{fill:#591616;}.cls-11{fill:#4d1313;}.cls-12{fill:#a52929;}.cls-13{fill:#a92929;}.cls-14{fill:#491212;}.cls-15{fill:#992626;}.cls-16{fill:#9f2727;}.cls-17{fill:#8e2323;}.cls-18{fill:#8c2222;}.cls-19{fill:#8d2222;}.cls-20{fill:#6f1b1b;}.cls-21{fill:#701b1b;}.cls-22{fill:#7b1e1e;}.cls-23{fill:#932424;}.cls-24{fill:#a22828;}.cls-25{fill:#a32828;}.cls-26{fill:#a82929;}.cls-27{fill:#842020;}.cls-28{fill:#801f1f;}.cls-29{fill:#a62929;}.cls-30{fill:#a72929;}.cls-31{fill:#a12727;}.cls-32{fill:#962525;}.cls-33{fill:#832020;}.cls-34{fill:#9e2727;}.cls-35{fill:#912424;}.cls-36{fill:#a42828;}.cls-37{fill:#942424;}.cls-38{fill:#5b1616;}.cls-39{fill:#952424;}.cls-40{fill:#561515;}.cls-41{fill:#852121;}.cls-42{fill:#982525;}.cls-43{fill:#882121;}.cls-44{fill:#4b1212;}.cls-45{fill:#581616;}.cls-46{fill:#691a1a;}.cls-47{fill:#511414;}.cls-48{fill:#9b2626;}.cls-49{fill:#862121;}.cls-50{fill:#a02727;}.cls-51{fill:#812020;}.cls-52{fill:#972525;}.cls-53{fill:#7c1e1e;}.cls-54{fill:#711c1c;}.cls-55{fill:#6e1b1b;}.cls-56{fill:#902323;}.cls-57{fill:#771d1d;}.cls-58{fill:#5a1616;}.cls-59{fill:#9c2626;}.cls-60{fill:#7f1f1f;}.cls-61{fill:#521414;}.cls-62{fill:#5d1717;}.cls-63{fill:#9d2626;}.cls-64{fill:#681919;}.cls-65{fill:#541515;}.cls-66{fill:#611818;}.cls-67{fill:#c83131;}</style></defs><title>Ethiopia</title><g id="Layer_2" data-name="Layer 2"><g id="Layer_1-2" data-name="Layer 1"><g class="cls-1"><polygon class="cls-2" points="118.06 0 118.02 16.3 118.01 16.67 118.05 0.37 118.06 0"/><polygon class="cls-3" points="118.05 0.37 118.01 16.67 118 17.04 118.05 0.74 118.05 0.37"/><polygon class="cls-4" points="118.05 0.74 118 17.04 117.98 17.41 118.03 1.11 118.05 0.74"/><polygon class="cls-5" points="118.03 1.11 117.98 17.41 117.98 17.77 118.03 1.47 118.03 1.11"/><polygon class="cls-2" points="118.03 1.47 117.98 17.77 117.97 18.14 118.02 1.84 118.03 1.47"/><polygon class="cls-5" points="118.02 1.84 117.97 18.14 117.97 18.51 118.01 2.2 118.02 1.84"/><polygon class="cls-2" points="118.01 2.2 117.97 18.51 117.95 18.88 118 2.57 118.01 2.2"/><polygon class="cls-2" points="118 2.57 117.95 18.88 117.94 19.25 117.99 2.94 118 2.57"/><polygon class="cls-2" points="117.99 2.94 117.94 19.25 117.93 19.61 117.98 3.31 117.99 2.94"/><polygon class="cls-5" points="117.98 3.31 117.93 19.61 117.93 19.98 117.97 3.67 117.98 3.31"/><polygon class="cls-2" points="117.97 3.67 117.93 19.98 117.92 20.35 117.97 4.04 117.97 3.67"/><polygon class="cls-5" points="117.97 4.04 117.92 20.35 117.91 20.71 117.96 4.41 117.97 4.04"/><polygon class="cls-2" points="117.96 4.41 117.91 20.71 117.9 21.08 117.95 4.78 117.96 4.41"/><polygon class="cls-2" points="117.95 4.78 117.9 21.08 117.89 21.45 117.94 5.15 117.95 4.78"/><polygon class="cls-2" points="117.94 5.15 117.89 21.45 117.88 21.82 117.93 5.51 117.94 5.15"/><polygon class="cls-5" points="117.93 5.51 117.88 21.82 117.88 22.18 117.92 5.88 117.93 5.51"/><polygon class="cls-2" points="117.92 5.88 117.88 22.18 117.87 22.55 117.91 6.25 117.92 5.88"/><polygon class="cls-2" points="117.91 6.25 117.87 22.55 117.86 22.92 117.9 6.62 117.91 6.25"/><polygon class="cls-5" points="117.9 6.62 117.86 22.92 117.85 23.29 117.9 6.98 117.9 6.62"/><polygon class="cls-2" points="117.9 6.98 117.85 23.29 117.84 23.65 117.89 7.35 117.9 6.98"/><polygon class="cls-2" points="117.89 7.35 117.84 23.65 117.83 24.02 117.88 7.72 117.89 7.35"/><polygon class="cls-5" points="117.88 7.72 117.83 24.02 117.83 24.39 117.87 8.08 117.88 7.72"/><polygon class="cls-2" points="117.87 8.08 117.83 24.39 117.82 24.76 117.86 8.45 117.87 8.08"/><polygon class="cls-6" points="64.76 8.14 64.71 24.44 64.6 24.88 64.65 8.58 64.76 8.14"/><polygon class="cls-4" points="117.86 8.45 117.82 24.76 117.8 25.12 117.84 8.82 117.86 8.45"/><polygon class="cls-5" points="117.84 8.82 117.8 25.12 117.79 25.49 117.84 9.18 117.84 8.82"/><polygon class="cls-2" points="117.84 9.18 117.79 25.49 117.78 25.85 117.83 9.55 117.84 9.18"/><polygon class="cls-2" points="117.83 9.55 117.78 25.85 117.77 26.22 117.82 9.92 117.83 9.55"/><polygon class="cls-5" points="117.82 9.92 117.77 26.22 117.77 26.59 117.81 10.29 117.82 9.92"/><polygon class="cls-2" points="117.81 10.29 117.77 26.59 117.76 27.08 117.81 10.78 117.81 10.29"/><polygon class="cls-2" points="117.81 10.78 117.76 27.08 117.75 27.42 117.79 11.12 117.81 10.78"/><polygon class="cls-2" points="117.79 11.12 117.75 27.42 117.73 28.06 117.78 11.76 117.79 11.12"/><polygon class="cls-7" points="5.24 12.48 5.2 28.78 4.81 28.24 4.86 11.94 5.24 12.48"/><polygon class="cls-7" points="5.85 13.32 5.81 29.63 5.2 28.78 5.24 12.48 5.85 13.32"/><polygon class="cls-7" points="6.46 14.16 6.41 30.47 5.81 29.63 5.85 13.32 6.46 14.16"/><polygon class="cls-7" points="7.04 14.98 6.99 31.29 6.41 30.47 6.46 14.16 7.04 14.98"/><polygon class="cls-7" points="7.58 15.74 7.53 32.04 6.99 31.29 7.04 14.98 7.58 15.74"/><polygon class="cls-8" points="1.81 21.31 1.76 37.61 0 35.92 0.05 19.62 1.81 21.31"/><polygon class="cls-9" points="2.26 21.44 2.21 37.74 1.76 37.61 1.81 21.31 2.26 21.44"/><polygon class="cls-10" points="2.62 21.62 2.57 37.93 2.21 37.74 2.26 21.44 2.62 21.62"/><polygon class="cls-7" points="2.79 21.87 2.74 38.17 2.57 37.93 2.62 21.62 2.79 21.87"/><polygon class="cls-7" points="3.31 22.52 3.27 38.82 2.74 38.17 2.79 21.87 3.31 22.52"/><polygon class="cls-11" points="3.81 22.9 3.76 39.2 3.27 38.82 3.31 22.52 3.81 22.9"/><polygon class="cls-12" points="118.51 23.54 118.46 39.84 117.97 40.19 118.01 23.89 118.51 23.54"/><polygon class="cls-13" points="118.01 23.89 117.97 40.19 117.61 40.38 117.66 24.07 118.01 23.89"/><polygon class="cls-13" points="117.66 24.07 117.61 40.38 117.24 40.57 117.29 24.27 117.66 24.07"/><polygon class="cls-13" points="117.29 24.27 117.24 40.57 116.88 40.76 116.93 24.45 117.29 24.27"/><polygon class="cls-7" points="4.25 24.29 4.2 40.6 3.76 39.2 3.81 22.9 4.25 24.29"/><polygon class="cls-13" points="116.93 24.45 116.88 40.76 116.52 40.95 116.57 24.64 116.93 24.45"/><polygon class="cls-13" points="116.57 24.64 116.52 40.95 116.16 41.13 116.2 24.83 116.57 24.64"/><polygon class="cls-13" points="116.2 24.83 116.16 41.13 115.8 41.32 115.84 25.02 116.2 24.83"/><polygon class="cls-13" points="115.84 25.02 115.8 41.32 115.43 41.51 115.47 25.2 115.84 25.02"/><polygon class="cls-13" points="115.47 25.2 115.43 41.51 115.07 41.69 115.11 25.39 115.47 25.2"/><polygon class="cls-13" points="115.11 25.39 115.07 41.69 114.7 41.88 114.75 25.58 115.11 25.39"/><polygon class="cls-13" points="114.75 25.58 114.7 41.88 114.34 42.07 114.39 25.77 114.75 25.58"/><polygon class="cls-13" points="114.39 25.77 114.34 42.07 113.98 42.26 114.03 25.95 114.39 25.77"/><polygon class="cls-13" points="114.03 25.95 113.98 42.26 113.62 42.45 113.67 26.14 114.03 25.95"/><polygon class="cls-13" points="113.67 26.14 113.62 42.45 113.26 42.63 113.3 26.33 113.67 26.14"/><polygon class="cls-13" points="113.3 26.33 113.26 42.63 112.9 42.82 112.94 26.52 113.3 26.33"/><polygon class="cls-13" points="112.94 26.52 112.9 42.82 112.53 43.01 112.58 26.7 112.94 26.52"/><polygon class="cls-14" points="6.53 26.51 6.48 42.81 4.2 40.6 4.25 24.29 6.53 26.51"/><polygon class="cls-13" points="112.58 26.7 112.53 43.01 112.17 43.19 112.21 26.89 112.58 26.7"/><polygon class="cls-9" points="7.25 26.71 7.2 43.02 6.48 42.81 6.53 26.51 7.25 26.71"/><polygon class="cls-13" points="112.21 26.89 112.17 43.19 111.75 43.41 111.79 27.11 112.21 26.89"/><polygon class="cls-15" points="111.79 27.11 111.75 43.41 111.19 44.04 111.24 27.74 111.79 27.11"/><polygon class="cls-7" points="7.28 27.6 7.24 43.91 7.2 43.02 7.25 26.71 7.28 27.6"/><polygon class="cls-16" points="111.24 27.74 111.19 44.04 110.54 44.65 110.59 28.35 111.24 27.74"/><polygon class="cls-16" points="110.59 28.35 110.54 44.65 110.15 45.01 110.2 28.7 110.59 28.35"/><polygon class="cls-16" points="110.2 28.7 110.15 45.01 109.58 45.54 109.63 29.23 110.2 28.7"/><polygon class="cls-17" points="109.63 29.23 109.58 45.54 109.34 45.93 109.38 29.62 109.63 29.23"/><polygon class="cls-18" points="109.38 29.62 109.34 45.93 108.95 46.56 109 30.26 109.38 29.62"/><polygon class="cls-19" points="109 30.26 108.95 46.56 108.56 47.21 108.6 30.91 109 30.26"/><polygon class="cls-19" points="108.6 30.91 108.56 47.21 108.16 47.85 108.2 31.55 108.6 30.91"/><polygon class="cls-20" points="108.2 31.55 108.16 47.85 108.06 48.44 108.11 32.13 108.2 31.55"/><polygon class="cls-21" points="108.11 32.13 108.06 48.44 107.97 48.96 108.01 32.66 108.11 32.13"/><polygon class="cls-7" points="6.68 32.44 6.63 48.74 5.46 46.05 5.51 29.75 6.68 32.44"/><polygon class="cls-7" points="6.85 32.67 6.81 48.98 6.63 48.74 6.68 32.44 6.85 32.67"/><polygon class="cls-7" points="7.29 33.21 7.24 49.52 6.81 48.98 6.85 32.67 7.29 33.21"/><polygon class="cls-7" points="7.42 33.69 7.37 50 7.24 49.52 7.29 33.21 7.42 33.69"/><polygon class="cls-22" points="108.67 33.73 108.63 50.04 108.55 50.28 108.59 33.98 108.67 33.73"/><polygon class="cls-23" points="108.59 33.98 108.55 50.28 108.38 50.5 108.43 34.2 108.59 33.98"/><polygon class="cls-7" points="7.45 33.94 7.41 50.24 7.37 50 7.42 33.69 7.45 33.94"/><polygon class="cls-24" points="108.43 34.2 108.38 50.5 107.99 50.83 108.04 34.52 108.43 34.2"/><polygon class="cls-25" points="108.04 34.52 107.99 50.83 107.17 51.5 107.21 35.2 108.04 34.52"/><polygon class="cls-14" points="8.19 35.61 8.15 51.91 7.04 50.72 7.08 34.41 8.19 35.61"/><polygon class="cls-24" points="107.21 35.2 107.17 51.5 106.33 52.19 106.38 35.89 107.21 35.2"/><polygon class="cls-4" points="8.86 35.84 8.81 52.15 8.15 51.91 8.19 35.61 8.86 35.84"/><polygon class="cls-25" points="106.38 35.89 106.33 52.19 105.68 52.72 105.72 36.42 106.38 35.89"/><polygon class="cls-26" points="105.72 36.42 105.68 52.72 105.18 53.01 105.23 36.71 105.72 36.42"/><polygon class="cls-26" points="105.23 36.71 105.18 53.01 104.62 53.35 104.67 37.05 105.23 36.71"/><polygon class="cls-27" points="104.67 37.05 104.62 53.35 104.27 54.09 104.32 37.79 104.67 37.05"/><polygon class="cls-8" points="10.9 37.73 10.86 54.04 8.81 52.15 8.86 35.84 10.9 37.73"/><polygon class="cls-28" points="104.32 37.79 104.27 54.09 104.09 54.53 104.14 38.23 104.32 37.79"/><polygon class="cls-26" points="104.35 39.16 104.3 55.46 103.95 55.59 104 39.29 104.35 39.16"/><polygon class="cls-16" points="104 39.29 103.95 55.59 103.51 55.68 103.55 39.37 104 39.29"/><polygon class="cls-11" points="12.68 39.12 12.63 55.42 10.86 54.04 10.9 37.73 12.68 39.12"/><polygon class="cls-29" points="103.55 39.37 103.51 55.68 103.09 55.8 103.13 39.5 103.55 39.37"/><polygon class="cls-27" points="103.13 39.5 103.09 55.8 102.97 56.05 103.01 39.75 103.13 39.5"/><polygon class="cls-30" points="103.01 39.75 102.97 56.05 102.02 56.67 102.07 40.37 103.01 39.75"/><polygon class="cls-31" points="102.07 40.37 102.02 56.67 101.62 57.02 101.66 40.72 102.07 40.37"/><polygon class="cls-30" points="101.66 40.72 101.62 57.02 100.92 57.48 100.97 41.18 101.66 40.72"/><polygon class="cls-30" points="100.97 41.18 100.92 57.48 100.28 57.9 100.33 41.59 100.97 41.18"/><polygon class="cls-13" points="100.33 41.59 100.28 57.9 99.89 58.07 99.94 41.77 100.33 41.59"/><polygon class="cls-25" points="99.94 41.77 99.89 58.07 99.45 58.18 99.49 41.88 99.94 41.77"/><polygon class="cls-32" points="99.49 41.88 99.45 58.18 98.92 58.22 98.97 41.92 99.49 41.88"/><polygon class="cls-33" points="98.97 41.92 98.92 58.22 97.91 58.12 97.95 41.82 98.97 41.92"/><polygon class="cls-34" points="97.95 41.82 97.91 58.12 96.98 58.28 97.02 41.98 97.95 41.82"/><polygon class="cls-35" points="97.02 41.98 96.98 58.28 95.32 58.32 95.37 42.02 97.02 41.98"/><polygon class="cls-7" points="10 41.92 9.95 58.22 9.71 57.79 9.75 41.48 10 41.92"/><polygon class="cls-36" points="95.37 42.02 95.32 58.32 94.84 58.7 94.89 42.4 95.37 42.02"/><polygon class="cls-37" points="94.89 42.4 94.84 58.7 94.51 59.14 94.55 42.83 94.89 42.4"/><polygon class="cls-7" points="10.42 42.89 10.38 59.19 9.95 58.22 10 41.92 10.42 42.89"/><polygon class="cls-38" points="10.73 43.03 10.68 59.34 10.38 59.19 10.42 42.89 10.73 43.03"/><polygon class="cls-39" points="94.55 42.83 94.51 59.14 94.07 59.7 94.12 43.4 94.55 42.83"/><polygon class="cls-5" points="12.53 43.7 12.48 60 10.68 59.34 10.73 43.03 12.53 43.7"/><polygon class="cls-37" points="94.12 43.4 94.07 59.7 93.55 60.39 93.6 44.08 94.12 43.4"/><polygon class="cls-40" points="12.84 43.87 12.79 60.17 12.48 60 12.53 43.7 12.84 43.87"/><polygon class="cls-41" points="93.6 44.08 93.55 60.39 93.28 60.96 93.32 44.66 93.6 44.08"/><polygon class="cls-14" points="13.51 44.6 13.46 60.9 12.79 60.17 12.84 43.87 13.51 44.6"/><polygon class="cls-42" points="93.32 44.66 93.28 60.96 92.83 61.48 92.88 45.18 93.32 44.66"/><polygon class="cls-43" points="92.88 45.18 92.83 61.48 92.62 61.88 92.67 45.58 92.88 45.18"/><polygon class="cls-18" points="92.67 45.58 92.62 61.88 92.29 62.44 92.34 46.13 92.67 45.58"/><polygon class="cls-18" points="92.34 46.13 92.29 62.44 92 62.93 92.04 46.62 92.34 46.13"/><polygon class="cls-7" points="14.99 46.85 14.94 63.16 13.44 61.34 13.48 45.03 14.99 46.85"/><polygon class="cls-18" points="92.04 46.62 92 62.93 91.71 63.41 91.75 47.11 92.04 46.62"/><polygon class="cls-44" points="15.78 47.55 15.73 63.85 14.94 63.16 14.99 46.85 15.78 47.55"/><polygon class="cls-45" points="16.31 47.83 16.27 64.13 15.73 63.85 15.78 47.55 16.31 47.83"/><polygon class="cls-45" points="18.07 48.75 18.02 65.05 16.27 64.13 16.31 47.83 18.07 48.75"/><polygon class="cls-46" points="92.39 48.88 92.35 65.18 92.3 65.66 92.35 49.36 92.39 48.88"/><polygon class="cls-45" points="20.1 49.81 20.06 66.12 18.02 65.05 18.07 48.75 20.1 49.81"/><polygon class="cls-13" points="92.68 49.91 92.64 66.22 90.81 67.01 90.86 50.71 92.68 49.91"/><polygon class="cls-13" points="90.86 50.71 90.81 67.01 90.43 67.2 90.47 50.9 90.86 50.71"/><polygon class="cls-30" points="90.47 50.9 90.43 67.2 89 67.66 89.05 51.36 90.47 50.9"/><polygon class="cls-47" points="22.47 51.39 22.43 67.7 20.06 66.12 20.1 49.81 22.47 51.39"/><polygon class="cls-30" points="89.05 51.36 89 67.66 88.5 67.98 88.55 51.68 89.05 51.36"/><polygon class="cls-26" points="88.55 51.68 88.5 67.98 87.91 68.33 87.95 52.02 88.55 51.68"/><polygon class="cls-26" points="87.95 52.02 87.91 68.33 87.11 68.64 87.16 52.34 87.95 52.02"/><polygon class="cls-30" points="87.16 52.34 87.11 68.64 86.28 68.92 86.33 52.61 87.16 52.34"/><polygon class="cls-17" points="86.33 52.61 86.28 68.92 85.47 68.91 85.52 52.61 86.33 52.61"/><polygon class="cls-37" points="85.52 52.61 85.47 68.91 85.23 69.23 85.28 52.93 85.52 52.61"/><polygon class="cls-26" points="85.28 52.93 85.23 69.23 84.18 69.82 84.23 53.52 85.28 52.93"/><polygon class="cls-29" points="84.23 53.52 84.18 69.82 83.85 70.05 83.89 53.75 84.23 53.52"/><polygon class="cls-13" points="83.89 53.75 83.85 70.05 83.06 70.42 83.11 54.12 83.89 53.75"/><polygon class="cls-13" points="83.11 54.12 83.06 70.42 82.28 70.78 82.32 54.48 83.11 54.12"/><polygon class="cls-31" points="82.32 54.48 82.28 70.78 80.5 71.15 80.54 54.84 82.32 54.48"/><polygon class="cls-15" points="80.54 54.84 80.5 71.15 78.84 71.33 78.88 55.02 80.54 54.84"/><polygon class="cls-48" points="78.88 55.02 78.84 71.33 77.8 71.46 77.85 55.15 78.88 55.02"/><polygon class="cls-48" points="77.85 55.15 77.8 71.46 76.68 71.6 76.72 55.3 77.85 55.15"/><polygon class="cls-48" points="76.72 55.3 76.68 71.6 75.68 71.73 75.72 55.43 76.72 55.3"/><polygon class="cls-48" points="75.72 55.43 75.68 71.73 74.8 71.84 74.85 55.54 75.72 55.43"/><polygon class="cls-48" points="74.85 55.54 74.8 71.84 73.56 72 73.61 55.7 74.85 55.54"/><polygon class="cls-48" points="73.61 55.7 73.56 72 72.5 72.14 72.54 55.83 73.61 55.7"/><polygon class="cls-48" points="72.54 55.83 72.5 72.14 71.44 72.27 71.49 55.96 72.54 55.83"/><polygon class="cls-48" points="71.49 55.96 71.44 72.27 70.85 72.34 70.9 56.04 71.49 55.96"/><polygon class="cls-42" points="70.9 56.04 70.85 72.34 69.29 72.5 69.34 56.19 70.9 56.04"/><polygon class="cls-49" points="30.13 56.12 30.08 72.42 27.86 72.26 27.9 55.96 30.13 56.12"/><polygon class="cls-50" points="27.9 55.96 27.86 72.26 26.64 72.49 26.68 56.19 27.9 55.96"/><polygon class="cls-33" points="26.68 56.19 26.64 72.49 26.13 72.44 26.18 56.14 26.68 56.19"/><polygon class="cls-50" points="69.34 56.19 69.29 72.5 68.59 72.63 68.63 56.33 69.34 56.19"/><polygon class="cls-51" points="40.19 56.38 40.14 72.68 38.2 72.47 38.25 56.17 40.19 56.38"/><polygon class="cls-30" points="68.63 56.33 68.59 72.63 68.08 72.8 68.13 56.49 68.63 56.33"/><polygon class="cls-52" points="32.68 56.33 32.64 72.63 31.36 72.73 31.41 56.43 32.68 56.33"/><polygon class="cls-13" points="38.25 56.17 38.2 72.47 37.61 72.75 37.65 56.45 38.25 56.17"/><polygon class="cls-53" points="37.65 56.45 37.61 72.75 35.54 72.44 35.59 56.14 37.65 56.45"/><polygon class="cls-38" points="30.87 56.47 30.82 72.77 30.08 72.42 30.13 56.12 30.87 56.47"/><polygon class="cls-32" points="31.41 56.43 31.36 72.73 30.82 72.77 30.87 56.47 31.41 56.43"/><polygon class="cls-54" points="40.72 56.51 40.68 72.82 40.14 72.68 40.19 56.38 40.72 56.51"/><polygon class="cls-30" points="35.59 56.14 35.54 72.44 34.38 72.85 34.43 56.55 35.59 56.14"/><polygon class="cls-55" points="33.55 56.56 33.5 72.86 32.64 72.63 32.68 56.33 33.55 56.56"/><polygon class="cls-56" points="34.43 56.55 34.38 72.85 33.5 72.86 33.55 56.56 34.43 56.55"/><polygon class="cls-30" points="26.18 56.14 26.13 72.44 24.8 72.88 24.85 56.58 26.18 56.14"/><polygon class="cls-3" points="41.35 56.75 41.3 73.05 40.68 72.82 40.72 56.51 41.35 56.75"/><polygon class="cls-57" points="42.28 56.93 42.23 73.24 41.3 73.05 41.35 56.75 42.28 56.93"/><polygon class="cls-7" points="19.16 56.91 19.12 73.21 18.4 70.8 18.45 54.5 19.16 56.91"/><polygon class="cls-29" points="24.85 56.58 24.8 72.88 23.26 73.36 23.31 57.06 24.85 56.58"/><polygon class="cls-26" points="68.13 56.49 68.08 72.8 66.82 73.55 66.87 57.24 68.13 56.49"/><polygon class="cls-50" points="55.46 57.11 55.42 73.41 54.83 73.53 54.87 57.23 55.46 57.11"/><polygon class="cls-58" points="42.84 57.21 42.79 73.52 42.23 73.24 42.28 56.93 42.84 57.21"/><polygon class="cls-59" points="54.87 57.23 54.83 73.53 54.12 73.63 54.17 57.33 54.87 57.23"/><polygon class="cls-53" points="43.48 57.31 43.44 73.62 42.79 73.52 42.84 57.21 43.48 57.31"/><polygon class="cls-60" points="44.84 57.49 44.8 73.79 43.44 73.62 43.48 57.31 44.84 57.49"/><polygon class="cls-30" points="23.31 57.06 23.26 73.36 22.63 73.78 22.68 57.47 23.31 57.06"/><polygon class="cls-26" points="54.17 57.33 54.12 73.63 52.9 74.1 52.95 57.8 54.17 57.33"/><polygon class="cls-61" points="56.62 57.86 56.57 74.16 55.42 73.41 55.46 57.11 56.62 57.86"/><polygon class="cls-13" points="66.87 57.24 66.82 73.55 65.52 74.23 65.56 57.93 66.87 57.24"/><polygon class="cls-7" points="19.45 57.92 19.4 74.22 19.12 73.21 19.16 56.91 19.45 57.92"/><polygon class="cls-59" points="22.68 57.47 22.63 73.78 19.4 74.22 19.45 57.92 22.68 57.47"/><polygon class="cls-7" points="56.74 58.26 56.7 74.56 56.57 74.16 56.62 57.86 56.74 58.26"/><polygon class="cls-62" points="46.48 58.24 46.43 74.55 44.8 73.79 44.84 57.49 46.48 58.24"/><polygon class="cls-51" points="48.05 58.42 48 74.72 46.43 74.55 46.48 58.24 48.05 58.42"/><polygon class="cls-34" points="52.95 57.8 52.9 74.1 52.1 74.89 52.15 58.59 52.95 57.8"/><polygon class="cls-63" points="50.04 58.47 49.99 74.77 49.15 74.9 49.2 58.59 50.04 58.47"/><polygon class="cls-26" points="65.56 57.93 65.52 74.23 64.3 74.96 64.35 58.66 65.56 57.93"/><polygon class="cls-42" points="49.2 58.59 49.15 74.9 48.64 74.94 48.68 58.64 49.2 58.59"/><polygon class="cls-4" points="48.68 58.64 48.64 74.94 48 74.72 48.05 58.42 48.68 58.64"/><polygon class="cls-50" points="52.15 58.59 52.1 74.89 50.98 75.1 51.02 58.8 52.15 58.59"/><polygon class="cls-64" points="51.02 58.8 50.98 75.1 49.99 74.77 50.04 58.47 51.02 58.8"/><polygon class="cls-65" points="58.1 59.08 58.06 75.38 56.7 74.56 56.74 58.26 58.1 59.08"/><polygon class="cls-66" points="58.49 59.23 58.44 75.53 58.06 75.38 58.1 59.08 58.49 59.23"/><polygon class="cls-53" points="58.92 59.3 58.87 75.6 58.44 75.53 58.49 59.23 58.92 59.3"/><polygon class="cls-13" points="64.35 58.66 64.3 74.96 62.73 75.83 62.77 59.52 64.35 58.66"/><polygon class="cls-28" points="61.84 59.65 61.8 75.96 58.87 75.6 58.92 59.3 61.84 59.65"/><polygon class="cls-59" points="62.77 59.52 62.73 75.83 61.8 75.96 61.84 59.65 62.77 59.52"/><polygon class="cls-67" points="118.06 0 118.05 0.37 118.05 0.74 118.03 1.11 118.03 1.47 118.02 1.84 118.01 2.2 118 2.57 117.99 2.94 117.98 3.31 117.97 3.67 117.97 4.04 117.96 4.41 117.95 4.78 117.94 5.15 117.93 5.51 117.92 5.88 117.91 6.25 117.9 6.62 117.9 6.98 117.89 7.35 117.88 7.72 117.87 8.08 117.86 8.45 117.84 8.82 117.84 9.18 117.83 9.55 117.82 9.92 117.81 10.29 117.81 10.78 117.79 11.12 117.78 11.76 117.79 12.23 117.8 12.7 117.81 13.18 117.83 13.65 117.84 14.13 117.85 14.6 117.87 15.08 117.88 15.55 117.94 16.41 118.01 17.28 118.09 18.14 118.14 18.9 118.22 19.86 118.29 20.72 118.36 21.58 118.42 22.45 118.47 22.9 118.51 23.54 118.01 23.89 117.66 24.07 117.29 24.27 116.93 24.45 116.57 24.64 116.2 24.83 115.84 25.02 115.47 25.2 115.11 25.39 114.75 25.58 114.39 25.77 114.03 25.95 113.67 26.14 113.3 26.33 112.94 26.52 112.58 26.7 112.21 26.89 111.79 27.11 111.24 27.74 110.59 28.35 110.2 28.7 109.63 29.23 109.38 29.62 109 30.26 108.6 30.91 108.2 31.55 108.11 32.13 108.01 32.66 108.54 33.31 108.67 33.73 108.59 33.98 108.43 34.2 108.04 34.52 107.21 35.2 106.38 35.89 105.72 36.42 105.23 36.71 104.67 37.05 104.32 37.79 104.14 38.23 104.35 39.16 104 39.29 103.55 39.37 103.13 39.5 103.01 39.75 102.07 40.37 101.66 40.72 100.97 41.18 100.33 41.59 99.94 41.77 99.49 41.88 98.97 41.92 97.95 41.82 97.02 41.98 95.37 42.02 94.89 42.4 94.55 42.83 94.12 43.4 93.6 44.08 93.32 44.66 92.88 45.18 92.67 45.58 92.34 46.13 92.04 46.62 91.75 47.11 91.99 47.56 92.3 47.95 92.39 48.88 92.35 49.36 92.68 49.91 90.86 50.71 90.47 50.9 89.05 51.36 88.55 51.68 87.95 52.02 87.16 52.34 86.33 52.61 85.52 52.61 85.28 52.93 84.23 53.52 83.89 53.75 83.11 54.12 82.32 54.48 80.54 54.84 78.88 55.02 77.85 55.15 76.72 55.3 75.72 55.43 74.85 55.54 73.61 55.7 72.54 55.83 71.49 55.96 70.9 56.04 69.34 56.19 68.63 56.33 68.13 56.49 66.87 57.24 65.56 57.93 64.35 58.66 62.77 59.52 61.84 59.65 58.92 59.3 58.49 59.23 58.1 59.08 56.74 58.26 56.62 57.86 55.46 57.11 54.87 57.23 54.17 57.33 52.95 57.8 52.15 58.59 51.02 58.8 50.04 58.47 49.2 58.59 48.68 58.64 48.05 58.42 46.48 58.24 44.84 57.49 43.48 57.31 42.84 57.21 42.28 56.93 41.35 56.75 40.72 56.51 40.19 56.38 38.25 56.17 37.65 56.45 35.59 56.14 34.43 56.55 33.55 56.56 32.68 56.33 31.41 56.43 30.87 56.47 30.13 56.12 27.9 55.96 26.68 56.19 26.18 56.14 24.85 56.58 23.31 57.06 22.68 57.47 19.45 57.92 19.16 56.91 18.45 54.5 19.09 53.95 21.41 53.3 21.53 52.93 22.27 52.33 22.47 51.39 20.1 49.81 18.07 48.75 16.31 47.83 15.78 47.55 14.99 46.85 13.48 45.03 13.51 44.6 12.84 43.87 12.53 43.7 10.73 43.03 10.42 42.89 10 41.92 9.75 41.48 9.97 40.44 11.67 40.26 12.68 39.12 10.9 37.73 8.86 35.84 8.19 35.61 7.08 34.41 7.45 33.94 7.42 33.69 7.29 33.21 6.85 32.67 6.68 32.44 5.51 29.75 7.28 27.6 7.25 26.71 6.53 26.51 4.25 24.29 3.81 22.9 3.31 22.52 2.79 21.87 2.62 21.62 2.26 21.44 1.81 21.31 0.05 19.62 0.91 18.69 1.5 18.24 2.3 17.95 3.62 16.08 4.91 15.93 6.19 16.07 7.58 15.74 7.04 14.98 6.46 14.16 5.85 13.32 5.24 12.48 4.86 11.94 7.7 11.87 8.15 11.55 11.02 11.65 11.99 11.45 12.44 11.12 12.81 10.58 13.68 9.9 13.95 9.72 14 9.36 14.15 9.12 16.18 8.55 16.57 8.62 17.21 7.91 17.72 7.43 17.86 7.2 19.12 6.69 19.56 6.39 21.05 6.07 22.21 5.14 23.06 4.81 23.48 4.71 23.89 4.64 24.87 4.62 25.74 4.61 26.32 4.5 27.36 4.28 28.29 3.92 28.91 3.75 29.6 3.69 31.08 3.74 32.59 3.8 34.02 4.03 35.32 4.23 37.18 4.04 39.07 3.81 40.34 3.73 41.26 3.68 41.78 3.69 42.31 3.73 42.87 3.81 44.5 4.16 45.33 4.24 46.19 4.13 46.71 4 47.29 3.91 47.88 3.88 49.06 4.06 50.33 4.17 50.98 4.18 51.12 4.72 51.36 5.09 51.69 6.31 52.03 7.25 52.26 8.02 52.37 8.38 52.66 9.76 53.09 10.22 53.46 10.44 54.4 10.78 55.22 11.16 56.5 11.91 56.74 12.11 58.17 11.88 58.82 11.53 58.96 11.16 59.4 10.79 59.82 10.64 61.15 9.28 61.56 8.83 62.42 8.43 63.29 8.41 64.76 8.14 64.65 8.58 64.84 9.35 65.18 9.78 65.72 10.47 66.17 10.53 66.89 10.53 68.08 10.91 68.64 11.09 69.23 11.22 70.66 11.11 72.31 11.44 73.38 11.21 75.34 11.69 75.69 11.79 77.68 11.83 78.98 11.98 79.79 11.86 81.25 11.55 82.38 11.52 83.99 11.47 84.88 11.45 85.29 11.39 85.99 11.18 86.78 10.96 87.55 10.73 88.33 10.5 89.1 10.27 89.88 10.04 90.66 9.82 91.43 9.59 92.21 9.37 92.98 9.14 93.76 8.91 94.54 8.69 95.31 8.46 96.09 8.23 96.86 8 97.65 7.77 98.42 7.55 99.17 7.34 99.91 7.12 100.64 6.9 101.39 6.69 102.13 6.48 102.88 6.26 103.62 6.05 104.37 5.83 105.11 5.62 105.85 5.4 106.59 5.19 107.34 4.98 108.08 4.77 108.82 4.55 109.57 4.33 110.31 4.12 110.87 3.96 111.45 3.85 112.04 3.5 117.12 0.55 118.06 0"/></g></g></g></svg>