<?xml version="1.0" encoding="utf-8"?>
<!-- Generator: Adobe Illustrator 22.1.0, SVG Export Plug-In . SVG Version: 6.00 Build 0)  -->
<svg version="1.1" id="Layer_1" xmlns="http://www.w3.org/2000/svg" xmlns:xlink="http://www.w3.org/1999/xlink" x="0px" y="0px"
	 viewBox="0 0 53.1 48.5" style="enable-background:new 0 0 53.1 48.5;" xml:space="preserve">
<style type="text/css">
	.st0{fill:#852121;}
	.st1{fill:#481212;}
	.st2{fill:#6C1B1B;}
	.st3{fill:#6C1A1A;}
	.st4{fill:#9F2727;}
	.st5{fill:#A92929;}
	.st6{fill:#A42828;}
	.st7{fill:#7E1F1F;}
	.st8{fill:#862121;}
	.st9{fill:#631818;}
	.st10{fill:#551515;}
	.st11{fill:#561515;}
	.st12{fill:#7D1F1F;}
	.st13{fill:#6E1B1B;}
	.st14{fill:#942424;}
	.st15{fill:#952525;}
	.st16{fill:#A32828;}
	.st17{fill:#7B1E1E;}
	.st18{fill:#8E2323;}
	.st19{fill:#812020;}
	.st20{fill:#711C1C;}
	.st21{fill:#641818;}
	.st22{fill:#771D1D;}
	.st23{fill:#8A2222;}
	.st24{fill:#801F1F;}
	.st25{fill:#511414;}
	.st26{fill:#A02727;}
	.st27{fill:#A72929;}
	.st28{fill:#A52828;}
	.st29{fill:#521414;}
	.st30{fill:#7F1F1F;}
	.st31{fill:#691A1A;}
	.st32{fill:#731C1C;}
	.st33{fill:#9B2626;}
	.st34{fill:#9E2727;}
	.st35{fill:#9A2626;}
	.st36{fill:#761D1D;}
	.st37{fill:#A62929;}
	.st38{fill:#982525;}
	.st39{fill:#6A1A1A;}
	.st40{fill:#781D1D;}
	.st41{fill:#8D2222;}
	.st42{fill:#9D2727;}
	.st43{fill:#5A1616;}
	.st44{fill:#A82929;}
	.st45{fill:#A22828;}
	.st46{fill:#5B1616;}
	.st47{fill:#8B2222;}
	.st48{fill:#651919;}
	.st49{fill:#5D1717;}
	.st50{fill:#701B1B;}
	.st51{fill:#501414;}
	.st52{fill:#621818;}
	.st53{fill:#601818;}
	.st54{fill:#932424;}
	.st55{fill:#C83131;}
	.st56{fill:#842020;}
	.st57{fill:#992525;}
	.st58{fill:#A12727;}
	.st59{fill:#9C2626;}
	.st60{fill:#A52929;}
	.st61{fill:#7A1E1E;}
	.st62{fill:#922424;}
	.st63{fill:#741C1C;}
	.st64{fill:#912424;}
	.st65{fill:#972525;}
	.st66{fill:#992626;}
	.st67{fill:#4A1212;}
	.st68{fill:#681A1A;}
	.st69{fill:#962525;}
	.st70{fill:#9D2626;}
	.st71{fill:#4E1313;}
	.st72{fill:#681919;}
	.st73{fill:#4D1313;}
	.st74{fill:#822020;}
	.st75{fill:#8F2323;}
	.st76{fill:#661919;}
	.st77{fill:#952424;}
	.st78{fill:#4B1212;}
	.st79{fill:#791E1E;}
	.st80{fill:#491212;}
	.st81{fill:#581616;}
	.st82{fill:#671919;}
	.st83{fill:#531414;}
	.st84{fill:#6F1B1B;}
	.st85{fill:#892222;}
	.st86{fill:#721C1C;}
	.st87{fill:#832020;}
	.st88{fill:#8C2222;}
	.st89{fill:#872121;}
	.st90{fill:#7C1E1E;}
	.st91{fill:#5E1717;}
	.st92{fill:#5C1616;}
	.st93{fill:#882121;}
	.st94{fill:#8D2323;}
	.st95{fill:#591616;}
	.st96{fill:#611818;}
</style>
<title>Gabon</title>
<g id="Layer_2_1_">
	<g id="Layer_1-2">
		<g>
			<polygon class="st0" points="17.7,0.9 17.7,17.2 17.5,17.5 17.6,1.1 			"/>
			<polygon class="st1" points="25.2,1.5 25.2,17.8 25,17.7 25.1,1.4 			"/>
			<polygon class="st2" points="33.6,1.4 33.5,17.7 33.5,18.1 33.5,1.8 			"/>
			<polygon class="st1" points="24.5,2.8 24.4,19.1 24.4,18.9 24.5,2.5 			"/>
			<polygon class="st3" points="34,2.3 34,18.6 33.9,19.2 34,2.9 			"/>
			<polygon class="st4" points="34,2.9 33.9,19.2 33.6,19.5 33.6,3.2 			"/>
			<polygon class="st5" points="33.6,3.2 33.6,19.5 33.2,19.7 33.2,3.4 			"/>
			<polygon class="st6" points="33.2,3.4 33.2,19.7 32.9,19.9 32.9,3.6 			"/>
			<polygon class="st1" points="23.1,4 23.1,20.3 23,20.1 23.1,3.8 			"/>
			<polygon class="st7" points="22.3,3.9 22.2,20.2 22,20.8 22.1,4.4 			"/>
			<polygon class="st8" points="33.5,4.2 33.5,20.5 33.2,21 33.3,4.7 			"/>
			<polygon class="st9" points="4.2,8.1 4.2,24.4 3.9,24.3 4,8 			"/>
			<polygon class="st10" points="4.8,8.4 4.7,24.7 4.2,24.4 4.2,8.1 			"/>
			<polygon class="st11" points="6.5,9.4 6.5,25.7 4.7,24.7 4.8,8.4 			"/>
			<polygon class="st10" points="6.9,9.6 6.8,25.9 6.5,25.7 6.5,9.4 			"/>
			<polygon class="st12" points="49.2,10.1 49.2,26.4 49.1,26.6 49.1,10.3 			"/>
			<polygon class="st11" points="8.3,10.4 8.2,26.7 6.8,25.9 6.9,9.6 			"/>
			<polygon class="st3" points="49.1,10.3 49.1,26.6 49,27 49.1,10.7 			"/>
			<polygon class="st10" points="10,11.4 10,27.7 8.2,26.7 8.3,10.4 			"/>
			<polygon class="st13" points="51.2,11.6 51.1,22 51.1,22.2 51.1,11.9 			"/>
			<polygon class="st11" points="11.8,12.4 11.7,28.7 10,27.7 10,11.4 			"/>
			<polygon class="st14" points="51.1,11.9 51.1,22.2 50.6,22.8 50.7,12.5 			"/>
			<polygon class="st15" points="51.8,13.6 51.8,23.9 51.7,24.1 51.7,13.8 			"/>
			<polygon class="st16" points="53.1,14.1 53.1,24.4 52.8,24.6 52.8,14.3 			"/>
			<polygon class="st17" points="52.8,14.3 52.8,24.6 52.7,24.9 52.7,14.6 			"/>
			<polygon class="st18" points="48.5,15 48.4,25.3 48.3,25.3 48.3,15 			"/>
			<polygon class="st19" points="48.7,15 48.7,25.3 48.4,25.3 48.5,15 			"/>
			<polygon class="st20" points="48.9,15 48.8,25.3 48.7,25.3 48.7,15 			"/>
			<polygon class="st21" points="49.2,15.1 49.2,25.5 48.8,25.3 48.9,15 			"/>
			<polygon class="st22" points="48.3,15 48.3,25.3 48.2,25.5 48.2,15.2 			"/>
			<polygon class="st22" points="49.7,15.2 49.6,25.5 49.2,25.5 49.2,15.1 			"/>
			<polygon class="st19" points="49.9,15.3 49.8,25.6 49.6,25.5 49.7,15.2 			"/>
			<polygon class="st23" points="50.2,15.3 50.2,25.6 49.8,25.6 49.9,15.3 			"/>
			<polygon class="st24" points="50.8,15.3 50.7,25.6 50.2,25.6 50.2,15.3 			"/>
			<polygon class="st25" points="51,15.5 50.9,25.8 50.7,25.6 50.8,15.3 			"/>
			<polygon class="st26" points="53,15.1 53,25.4 52.4,25.9 52.5,15.6 			"/>
			<polygon class="st1" points="51.1,15.6 51,25.9 50.9,25.8 51,15.5 			"/>
			<polygon class="st27" points="52.5,15.6 52.4,25.9 51.9,26 52,15.7 			"/>
			<polygon class="st4" points="52,15.7 51.9,26 51.8,26.1 51.9,15.8 			"/>
			<polygon class="st5" points="51.9,15.8 51.8,26.1 51.6,26.2 51.7,15.9 			"/>
			<polygon class="st28" points="51.7,15.9 51.6,26.2 51.4,26.3 51.5,16 			"/>
			<polygon class="st29" points="51.3,16 51.2,26.3 51,26.1 51,15.8 			"/>
			<polygon class="st14" points="51.5,16 51.4,26.3 51.2,26.3 51.3,16 			"/>
			<polygon class="st30" points="48.7,16.3 48.6,26.6 48.5,26.8 48.6,16.5 			"/>
			<polygon class="st31" points="48.6,16.5 48.5,26.8 48.5,27.1 48.6,16.8 			"/>
			<polygon class="st32" points="48.6,16.8 48.5,27.1 48.5,27.4 48.5,17.1 			"/>
			<polygon class="st33" points="48.5,17.1 48.5,27.4 48,27.9 48,17.6 			"/>
			<polygon class="st34" points="48,17.6 48,27.9 47.9,28 48,17.6 			"/>
			<polygon class="st35" points="40.8,17.9 40.7,34.2 40.5,34.2 40.6,17.9 			"/>
			<polygon class="st36" points="41,18 41,34.2 40.7,34.2 40.8,17.9 			"/>
			<polygon class="st37" points="40.6,17.9 40.5,34.2 40.2,34.3 40.2,18 			"/>
			<polygon class="st38" points="40.2,18 40.2,34.3 39.4,34.4 39.4,18.1 			"/>
			<polygon class="st28" points="48,17.6 47.9,28 46.2,28.4 46.2,18.1 			"/>
			<polygon class="st39" points="41.6,18.1 41.6,34.5 41,34.2 41,18 			"/>
			<polygon class="st40" points="41.9,18.2 41.9,34.5 41.6,34.5 41.6,18.1 			"/>
			<polygon class="st41" points="42.2,18.2 42.2,34.5 41.9,34.5 41.9,18.2 			"/>
			<polygon class="st1" points="2.9,18.1 2.9,28.4 2.8,28 2.9,17.7 			"/>
			<polygon class="st16" points="39.4,18.1 39.4,34.4 39,34.5 39,18.2 			"/>
			<polygon class="st42" points="46.2,18.1 46.2,28.4 46,28.6 46,18.3 			"/>
			<polygon class="st43" points="42.5,18.3 42.4,34.6 42.2,34.5 42.2,18.2 			"/>
			<polygon class="st44" points="39,18.2 39,34.5 38.7,34.7 38.7,18.4 			"/>
			<polygon class="st19" points="44,18.4 44,28.7 43.5,28.7 43.6,18.4 			"/>
			<polygon class="st5" points="46,18.3 46,28.6 45.8,28.7 45.8,18.4 			"/>
			<polygon class="st40" points="43.4,18.5 43.3,28.8 42.4,34.6 42.5,18.3 			"/>
			<polygon class="st28" points="43.6,18.4 43.5,28.7 43.3,28.8 43.4,18.5 			"/>
			<polygon class="st45" points="45.8,18.4 45.8,28.7 45.2,28.9 45.2,18.6 			"/>
			<polygon class="st5" points="45.2,18.6 45.2,28.9 45,29 45,18.7 			"/>
			<polygon class="st24" points="38.7,18.4 38.7,34.7 38.5,35.1 38.5,18.8 			"/>
			<polygon class="st17" points="45,18.7 45,29 44.9,29.2 44.9,18.9 			"/>
			<polygon class="st46" points="44.9,18.9 44.9,29.2 44,28.7 44,18.4 			"/>
			<polygon class="st47" points="38.5,18.8 38.5,35.1 38.2,35.5 38.3,19.2 			"/>
			<polygon class="st1" points="0.2,19.3 0.1,29.6 0.1,29.4 0.1,19.1 			"/>
			<polygon class="st48" points="0.6,19.4 0.6,29.7 0.1,29.6 0.2,19.3 			"/>
			<polygon class="st49" points="0.8,19.5 0.8,29.8 0.6,29.7 0.6,19.4 			"/>
			<polygon class="st50" points="1.7,19.7 1.6,30 0.8,29.8 0.8,19.5 			"/>
			<polygon class="st46" points="2.5,20.1 2.5,30.5 1.6,30 1.7,19.7 			"/>
			<polygon class="st51" points="2.8,20.4 2.8,30.7 2.5,30.5 2.5,20.1 			"/>
			<polygon class="st52" points="3,20.4 2.9,30.7 2.8,30.7 2.8,20.4 			"/>
			<polygon class="st53" points="3.2,20.5 3.2,30.8 2.9,30.7 3,20.4 			"/>
			<polygon class="st54" points="0.1,20.6 0.1,30.9 0,31 0.1,20.7 			"/>
			<polygon class="st18" points="0.1,20.7 0,31 0,31 0.1,20.7 			"/>
			<polygon class="st55" points="0.1,20.7 0.1,20.6 0.1,20.7 			"/>
			<polygon class="st5" points="8.4,20.5 8.4,30.8 8,31 8.1,20.7 			"/>
			<polygon class="st27" points="8.1,20.7 8,31 7.9,31.1 7.9,20.8 			"/>
			<polygon class="st54" points="7.9,20.8 7.9,31.1 7.6,31.1 7.7,20.8 			"/>
			<polygon class="st0" points="2.5,20.7 2.5,31 2.4,31.1 2.5,20.8 			"/>
			<polygon class="st44" points="2.5,20.8 2.4,31.1 2.1,31.2 2.1,20.9 			"/>
			<polygon class="st1" points="3.6,21 3.5,31.2 3.2,30.8 3.2,20.5 			"/>
			<polygon class="st56" points="7.7,20.8 7.6,31.1 7.5,31.3 7.6,21 			"/>
			<polygon class="st6" points="2.1,20.9 2.1,31.2 1.9,31.3 2,21 			"/>
			<polygon class="st38" points="7.6,21 7.5,31.3 7.4,31.4 7.5,21.1 			"/>
			<polygon class="st1" points="3.6,21.1 3.5,31.4 3.5,31.2 3.6,21 			"/>
			<polygon class="st27" points="7.5,21.1 7.4,31.4 7,31.7 7,21.4 			"/>
			<polygon class="st44" points="7,21.4 7,31.7 6.5,31.9 6.6,21.6 			"/>
			<polygon class="st1" points="7.6,21.6 7.5,31.9 7.5,31.7 7.5,21.4 			"/>
			<polygon class="st15" points="6.6,21.6 6.5,31.9 6.2,31.9 6.2,21.6 			"/>
			<polygon class="st5" points="6.2,21.6 6.2,31.9 5.9,32 5.9,21.7 			"/>
			<polygon class="st57" points="5.9,21.7 5.9,32 5.2,32.1 5.3,21.8 			"/>
			<polygon class="st23" points="2.3,21.8 2.3,32.1 1.9,32.1 1.9,21.8 			"/>
			<polygon class="st56" points="2.5,21.8 2.5,32.1 2.3,32.1 2.3,21.8 			"/>
			<polygon class="st58" points="1.9,21.8 1.9,32.1 1.7,32.1 1.8,21.8 			"/>
			<polygon class="st1" points="7.2,21.9 7.2,32.2 7.1,32 7.2,21.7 			"/>
			<polygon class="st59" points="5.3,21.8 5.2,32.1 4.9,32.2 4.9,21.9 			"/>
			<polygon class="st18" points="4.9,21.9 4.9,32.2 4.7,32.2 4.7,21.9 			"/>
			<polygon class="st31" points="4.7,21.9 4.7,32.2 4.5,32.1 4.6,21.8 			"/>
			<polygon class="st56" points="7.4,21.9 7.4,32.2 7.2,32.2 7.2,21.9 			"/>
			<polygon class="st29" points="1.3,21.9 1.3,32.2 0.9,32 0.9,21.7 			"/>
			<polygon class="st60" points="1.8,21.8 1.7,32.1 1.3,32.2 1.3,21.9 			"/>
			<polygon class="st61" points="8.1,22 8.1,32.3 7.4,32.2 7.4,21.9 			"/>
			<polygon class="st32" points="3.6,22 3.5,32.4 2.5,32.1 2.5,21.8 			"/>
			<polygon class="st62" points="3.9,22 3.8,32.3 3.5,32.4 3.6,22 			"/>
			<polygon class="st63" points="4.3,22.1 4.3,32.4 3.8,32.3 3.9,22 			"/>
			<polygon class="st64" points="4.6,21.8 4.5,32.1 4.3,32.4 4.3,22.1 			"/>
			<polygon class="st26" points="41.2,20.8 41.2,37.1 39.1,39 39.2,22.6 			"/>
			<polygon class="st5" points="39.2,22.6 39.1,39 38.9,39.1 38.9,22.8 			"/>
			<polygon class="st65" points="38.1,22.8 38,39.1 37.8,39.1 37.9,22.8 			"/>
			<polygon class="st8" points="38.6,22.8 38.5,39.1 38,39.1 38.1,22.8 			"/>
			<polygon class="st66" points="38.9,22.8 38.9,39.1 38.5,39.1 38.6,22.8 			"/>
			<polygon class="st1" points="5.2,22.7 5.1,33 5,32.8 5,22.5 			"/>
			<polygon class="st4" points="37.9,22.8 37.8,39.1 37.6,39.3 37.7,23 			"/>
			<polygon class="st1" points="5.3,23 5.3,33.3 5.1,33 5.2,22.7 			"/>
			<polygon class="st67" points="3,23 3,33.3 2.8,33.1 2.8,22.8 			"/>
			<polygon class="st13" points="3.3,23 3.3,33.3 3,33.3 3,23 			"/>
			<polygon class="st66" points="37.7,23 37.6,39.3 37.4,39.5 37.5,23.2 			"/>
			<polygon class="st26" points="37.5,23.2 37.4,39.5 37.2,39.7 37.3,23.4 			"/>
			<polygon class="st14" points="37.3,23.4 37.2,39.7 37.1,39.8 37.2,23.5 			"/>
			<polygon class="st52" points="4.8,23.6 4.8,33.9 3.3,33.3 3.3,23 			"/>
			<polygon class="st68" points="37.2,23.5 37.1,39.8 37.1,40 37.2,23.7 			"/>
			<polygon class="st0" points="37.2,23.7 37.1,40 37.1,40.1 37.1,23.8 			"/>
			<polygon class="st37" points="37.1,23.8 37.1,40.1 36.8,40.2 36.8,23.9 			"/>
			<polygon class="st69" points="36.8,23.9 36.8,40.2 36.4,40.2 36.4,24 			"/>
			<polygon class="st70" points="36.4,24 36.4,40.2 35.5,40.4 35.6,24.1 			"/>
			<polygon class="st71" points="5.4,24.1 5.3,34.4 4.8,33.9 4.8,23.6 			"/>
			<polygon class="st5" points="35.6,24.1 35.5,40.4 35.3,34.5 35.3,24.2 			"/>
			<polygon class="st72" points="5.8,24.2 5.7,34.5 5.3,34.4 5.4,24.1 			"/>
			<polygon class="st73" points="5.9,24.3 5.9,34.6 5.7,34.5 5.8,24.2 			"/>
			<polygon class="st67" points="6,24.4 6,34.7 5.9,34.6 5.9,24.3 			"/>
			<polygon class="st1" points="6.2,24.7 6.1,35 6,34.7 6,24.4 			"/>
			<polygon class="st1" points="6.3,24.8 6.2,35.1 6.1,35 6.2,24.7 			"/>
			<polygon class="st11" points="7.1,25.3 7.1,35.6 6.2,35.1 6.3,24.8 			"/>
			<polygon class="st1" points="7.3,25.5 7.3,35.8 7.1,35.6 7.1,25.3 			"/>
			<polygon class="st1" points="7.4,25.8 7.4,36 7.3,35.8 7.3,25.5 			"/>
			<polygon class="st24" points="41.3,26.1 41.3,36.4 41.2,36.5 41.3,26.2 			"/>
			<polygon class="st37" points="41.3,26.2 41.2,36.5 41.1,36.6 41.1,26.3 			"/>
			<polygon class="st1" points="7.5,26.5 7.4,36.8 7.4,36 7.4,25.8 			"/>
			<polygon class="st20" points="41.1,26.3 41.1,36.6 41,36.9 41.1,26.6 			"/>
			<polygon class="st1" points="7.6,26.7 7.5,37 7.4,36.8 7.5,26.5 			"/>
			<polygon class="st63" points="44.6,26.7 44.5,37 44.5,37.3 44.5,27 			"/>
			<polygon class="st10" points="7.8,27.3 7.8,37.6 7.5,37.4 7.6,27.1 			"/>
			<polygon class="st74" points="8,27.3 8,37.6 7.8,37.6 7.8,27.3 			"/>
			<polygon class="st46" points="8.2,27.4 8.1,37.7 8,37.6 8,27.3 			"/>
			<polygon class="st1" points="6.9,27.5 6.8,37.8 6.8,37.7 6.9,27.4 			"/>
			<polygon class="st75" points="7,27.5 7,37.8 7,37.9 7,27.6 			"/>
			<polygon class="st1" points="6.8,27.8 6.8,38.1 6.8,38 6.8,27.7 			"/>
			<polygon class="st67" points="6.9,27.9 6.8,38.2 6.8,38.1 6.8,27.8 			"/>
			<polygon class="st1" points="8.2,27.9 8.1,38.2 8.1,37.7 8.2,27.4 			"/>
			<polygon class="st10" points="6.9,27.9 6.9,38.2 6.8,38.2 6.9,27.9 			"/>
			<polygon class="st76" points="7.1,28 7,38.2 6.9,38.2 6.9,27.9 			"/>
			<polygon class="st18" points="7.2,28 7.2,38.2 7,38.2 7.1,28 			"/>
			<polygon class="st61" points="7.3,28 7.3,38.3 7.2,38.2 7.2,28 			"/>
			<polygon class="st22" points="8.1,27.9 8,38.2 8,38.3 8.1,28 			"/>
			<polygon class="st10" points="7.4,28 7.4,38.3 7.3,38.3 7.3,28 			"/>
			<polygon class="st1" points="8.2,28.1 8.2,38.4 8.1,38.2 8.2,27.9 			"/>
			<polygon class="st77" points="8.1,28 8,38.3 7.9,38.4 8,28.1 			"/>
			<polygon class="st78" points="7.5,28.1 7.5,38.4 7.4,38.3 7.4,28 			"/>
			<polygon class="st5" points="8,28.1 7.9,38.4 7.8,38.4 7.9,28.1 			"/>
			<polygon class="st10" points="7.6,28.1 7.5,38.4 7.5,38.4 7.5,28.1 			"/>
			<polygon class="st33" points="7.9,28.1 7.8,38.4 7.7,38.5 7.7,28.1 			"/>
			<polygon class="st55" points="6.8,27.6 6.9,27.5 6.9,27.4 7,27.5 7,27.5 7,27.5 7,27.6 7.1,27.6 7.3,27.5 7.6,27.6 7.9,27.8 
				8.1,27.9 8.1,28 8,28.1 7.9,28.1 7.7,28.1 7.6,28.1 7.5,28.1 7.4,28 7.3,28 7.2,28 7.1,28 6.9,27.9 6.9,27.9 6.8,27.8 6.8,27.7 
							"/>
			<polygon class="st30" points="7.7,28.1 7.7,38.5 7.5,38.4 7.6,28.1 			"/>
			<polygon class="st67" points="8.3,28.2 8.2,38.5 8.2,38.4 8.2,28.1 			"/>
			<polygon class="st79" points="46.4,28.2 46.3,38.5 46.3,38.7 46.3,28.4 			"/>
			<polygon class="st80" points="8.6,28.5 8.6,38.8 8.2,38.5 8.3,28.2 			"/>
			<polygon class="st5" points="46.3,28.4 46.3,38.7 45.6,39 45.6,28.7 			"/>
			<polygon class="st1" points="4.8,28.6 4.7,38.9 4.7,38.8 4.7,28.5 			"/>
			<polygon class="st5" points="45.6,28.7 45.6,39 45.4,39.1 45.5,28.8 			"/>
			<polygon class="st73" points="7.1,28.8 7.1,39.1 6.8,38.8 6.8,28.5 			"/>
			<polygon class="st69" points="43.4,28.9 43.3,39.2 42.9,39.2 42.9,28.9 			"/>
			<polygon class="st3" points="5.4,28.8 5.4,39.1 4.7,38.9 4.8,28.6 			"/>
			<polygon class="st8" points="5.9,28.8 5.8,39.1 5.4,39.1 5.4,28.8 			"/>
			<polygon class="st44" points="13.7,28.9 13.7,39.2 13.6,39.2 13.6,28.9 			"/>
			<polygon class="st6" points="45.5,28.8 45.4,39.1 45.1,39.3 45.2,29 			"/>
			<polygon class="st7" points="44.7,29 44.7,39.3 43.3,39.2 43.4,28.9 			"/>
			<polygon class="st28" points="45.2,29 45.1,39.3 44.9,39.4 45,29 			"/>
			<polygon class="st23" points="45,29 44.9,39.4 44.7,39.3 44.7,29 			"/>
			<polygon class="st5" points="42.9,28.9 42.9,39.2 42.5,39.4 42.5,29.1 			"/>
			<polygon class="st20" points="14.2,29 14.1,39.3 13.7,39.2 13.7,28.9 			"/>
			<polygon class="st76" points="6.3,29 6.3,39.3 5.8,39.1 5.9,28.8 			"/>
			<polygon class="st7" points="6.7,29 6.7,39.3 6.3,39.3 6.3,29 			"/>
			<polygon class="st56" points="16,29.1 16,39.4 15.6,39.4 15.7,29 			"/>
			<polygon class="st81" points="16.2,29.2 16.1,39.5 16,39.4 16,29.1 			"/>
			<polygon class="st1" points="14.3,29.2 14.2,39.5 14.1,39.3 14.2,29 			"/>
			<polygon class="st79" points="42.5,29.1 42.5,39.4 42.5,39.5 42.5,29.2 			"/>
			<polygon class="st32" points="7.3,29.2 7.2,39.5 6.7,39.3 6.7,29 			"/>
			<polygon class="st79" points="7.7,29.2 7.6,39.5 7.2,39.5 7.3,29.2 			"/>
			<polygon class="st82" points="16.5,29.3 16.4,39.6 16.1,39.5 16.2,29.2 			"/>
			<polygon class="st6" points="17.2,29.2 17.2,39.5 16.8,39.6 16.9,29.3 			"/>
			<polygon class="st65" points="16.9,29.3 16.8,39.6 16.6,39.6 16.7,29.3 			"/>
			<polygon class="st7" points="16.7,29.3 16.6,39.6 16.4,39.6 16.5,29.3 			"/>
			<polygon class="st56" points="8.2,29.3 8.1,39.6 7.6,39.5 7.7,29.2 			"/>
			<polygon class="st19" points="8.7,29.3 8.6,39.6 8.1,39.6 8.2,29.3 			"/>
			<polygon class="st1" points="14.4,29.4 14.3,39.7 14.2,39.5 14.3,29.2 			"/>
			<polygon class="st83" points="8.8,29.4 8.8,39.7 8.6,39.6 8.7,29.3 			"/>
			<polygon class="st8" points="10,29.5 9.9,39.8 8.4,39.7 8.5,29.4 			"/>
			<polygon class="st15" points="10.8,29.6 10.7,39.9 10.5,39.9 10.5,29.6 			"/>
			<polygon class="st56" points="11,29.6 11,39.9 10.7,39.9 10.8,29.6 			"/>
			<polygon class="st84" points="10.4,29.6 10.4,40 9.9,39.8 10,29.5 			"/>
			<polygon class="st40" points="15.8,29.6 15.8,39.9 15.7,40 15.8,29.7 			"/>
			<polygon class="st21" points="11.2,29.7 11.2,40 11,39.9 11,29.6 			"/>
			<polygon class="st57" points="42.6,29.6 42.6,39.9 42.4,40.1 42.5,29.8 			"/>
			<polygon class="st1" points="16.5,29.8 16.5,40.1 16.4,39.9 16.5,29.6 			"/>
			<polygon class="st2" points="11,29.8 10.9,40.1 10.4,40 10.4,29.6 			"/>
			<polygon class="st59" points="15.8,29.7 15.7,40 15.6,40.1 15.6,29.8 			"/>
			<polygon class="st51" points="13,29.9 13,40.2 12.9,40.1 12.9,29.8 			"/>
			<polygon class="st54" points="14.1,29.1 14,39.4 13.4,40.2 13.5,29.9 			"/>
			<polygon class="st85" points="13.5,29.9 13.4,40.2 13,40.2 13,29.9 			"/>
			<polygon class="st58" points="42.5,29.8 42.4,40.1 42.2,40.3 42.2,30 			"/>
			<polygon class="st1" points="11.4,29.9 11.3,40.2 11.2,40 11.2,29.7 			"/>
			<polygon class="st11" points="15.4,30 15.4,40.3 14.3,39.7 14.4,29.4 			"/>
			<polygon class="st37" points="15.6,29.8 15.6,40.1 15.4,40.3 15.4,30 			"/>
			<polygon class="st0" points="12,30 11.9,40.3 11.3,40.2 11.4,29.9 			"/>
			<polygon class="st16" points="12.9,29.8 12.9,40.1 11.9,40.3 12,30 			"/>
			<polygon class="st48" points="11.1,30 11.1,40.3 10.9,40.3 10.9,30 			"/>
			<polygon class="st20" points="11.3,30.1 11.3,40.4 11.1,40.3 11.1,30 			"/>
			<polygon class="st24" points="42.2,30 42.2,40.3 42.1,40.5 42.2,30.2 			"/>
			<polygon class="st86" points="11.6,30.1 11.5,40.4 11.3,40.4 11.3,30.1 			"/>
			<polygon class="st61" points="11.7,30.2 11.7,40.5 11.5,40.4 11.6,30.1 			"/>
			<polygon class="st50" points="42.2,30.2 42.1,40.5 42.1,40.7 42.1,30.4 			"/>
			<polygon class="st87" points="13.7,30.3 13.7,40.7 11.7,40.5 11.7,30.2 			"/>
			<polygon class="st88" points="14.5,30.4 14.4,40.7 13.7,40.7 13.7,30.3 			"/>
			<polygon class="st87" points="14.8,30.4 14.8,40.7 14.4,40.7 14.5,30.4 			"/>
			<polygon class="st88" points="18.5,30.5 18.5,40.8 18.2,40.8 18.2,30.5 			"/>
			<polygon class="st89" points="27.3,30.5 27.3,40.8 26.9,40.8 27,30.5 			"/>
			<polygon class="st13" points="15.3,30.5 15.2,40.8 14.8,40.7 14.8,30.4 			"/>
			<polygon class="st28" points="27,30.5 26.9,40.8 26.7,40.9 26.7,30.6 			"/>
			<polygon class="st8" points="26.7,30.6 26.7,40.9 26.5,40.9 26.5,30.6 			"/>
			<polygon class="st90" points="42.1,30.4 42.1,40.7 42,40.9 42,30.6 			"/>
			<polygon class="st91" points="27.6,30.6 27.5,40.9 27.3,40.8 27.3,30.5 			"/>
			<polygon class="st84" points="19.1,30.6 19.1,41 18.5,40.8 18.5,30.5 			"/>
			<polygon class="st81" points="15.6,30.7 15.5,41 15.2,40.8 15.3,30.5 			"/>
			<polygon class="st54" points="18.3,30.7 18.2,41 18,41 18.1,30.7 			"/>
			<polygon class="st17" points="18.1,30.7 18,41 17.5,41 17.6,30.7 			"/>
			<polygon class="st2" points="42,30.6 42,40.9 42,41.1 42,30.8 			"/>
			<polygon class="st3" points="15.9,30.8 15.8,41 15.5,41 15.6,30.7 			"/>
			<polygon class="st62" points="27.1,30.8 27,41.1 26.4,41.1 26.5,30.8 			"/>
			<polygon class="st78" points="19.3,30.8 19.2,41.1 19.1,41 19.1,30.6 			"/>
			<polygon class="st77" points="19.9,30.7 19.9,41 19.2,41.1 19.3,30.8 			"/>
			<polygon class="st1" points="20,31 19.9,41.3 19.9,41 19.9,30.7 			"/>
			<polygon class="st13" points="19,30.8 19,41.1 19,41.3 19,31 			"/>
			<polygon class="st5" points="25.6,31 25.5,41.3 25.3,41.4 25.4,31.1 			"/>
			<polygon class="st47" points="25.4,31.1 25.3,41.4 24.8,41.3 24.8,31 			"/>
			<polygon class="st23" points="17.3,31.1 17.2,41.4 16.9,41.3 16.9,31 			"/>
			<polygon class="st15" points="17.6,30.7 17.5,41 17.2,41.4 17.3,31.1 			"/>
			<polygon class="st51" points="16.3,31.1 16.3,41.4 15.8,41 15.9,30.8 			"/>
			<polygon class="st44" points="26.5,30.8 26.4,41.1 25.8,41.4 25.9,31.1 			"/>
			<polygon class="st81" points="25.9,31.1 25.8,41.4 25.5,41.3 25.6,31 			"/>
			<polygon class="st92" points="16.6,31.2 16.5,41.5 16.3,41.4 16.3,31.1 			"/>
			<polygon class="st12" points="16.9,31 16.9,41.3 16.8,41.5 16.9,31.2 			"/>
			<polygon class="st47" points="16.9,31.2 16.8,41.5 16.5,41.5 16.6,31.2 			"/>
			<polygon class="st44" points="24.8,31 24.8,41.3 24.3,41.6 24.4,31.3 			"/>
			<polygon class="st75" points="18.2,31.3 18.2,41.6 17.6,41.6 17.6,31.3 			"/>
			<polygon class="st17" points="17.6,31.3 17.6,41.6 17.2,41.6 17.3,31.3 			"/>
			<polygon class="st13" points="18.5,31.4 18.5,41.7 18.2,41.6 18.2,31.3 			"/>
			<polygon class="st88" points="21.3,31.4 21.3,41.7 19.8,41.7 19.9,31.4 			"/>
			<polygon class="st87" points="18.7,31.4 18.7,41.7 18.5,41.7 18.5,31.4 			"/>
			<polygon class="st88" points="19.1,31.4 19.1,41.7 18.7,41.7 18.7,31.4 			"/>
			<polygon class="st22" points="24.4,31.3 24.3,41.6 24.3,41.8 24.4,31.5 			"/>
			<polygon class="st4" points="19.9,31.4 19.8,41.7 19.5,41.8 19.6,31.5 			"/>
			<polygon class="st93" points="19.6,31.5 19.5,41.8 19.1,41.7 19.1,31.4 			"/>
			<polygon class="st1" points="24.7,31.5 24.7,41.8 24.7,41.7 24.7,31.4 			"/>
			<polygon class="st94" points="33.6,31.6 33.6,41.9 33.2,41.9 33.2,31.6 			"/>
			<polygon class="st88" points="33.9,31.6 33.8,41.9 33.6,41.9 33.6,31.6 			"/>
			<polygon class="st22" points="35.8,31.6 35.8,41.9 35.6,41.9 35.7,31.6 			"/>
			<polygon class="st93" points="34.1,31.6 34,41.9 33.8,41.9 33.9,31.6 			"/>
			<polygon class="st66" points="35.7,31.6 35.6,41.9 35.2,41.9 35.2,31.6 			"/>
			<polygon class="st47" points="34.6,31.6 34.5,41.9 34,41.9 34.1,31.6 			"/>
			<polygon class="st8" points="34.9,31.6 34.9,41.9 34.5,41.9 34.6,31.6 			"/>
			<polygon class="st69" points="35.2,31.6 35.2,41.9 34.9,41.9 34.9,31.6 			"/>
			<polygon class="st48" points="24.4,31.5 24.3,41.8 24.3,41.9 24.3,31.6 			"/>
			<polygon class="st14" points="33.2,31.6 33.2,41.9 31.9,42 32,31.6 			"/>
			<polygon class="st9" points="36,31.7 36,42 35.8,41.9 35.8,31.6 			"/>
			<polygon class="st47" points="40.6,31.8 40.6,42.1 40.3,42.1 40.3,31.8 			"/>
			<polygon class="st74" points="24.2,31.7 24.2,42 23.5,42 23.5,31.7 			"/>
			<polygon class="st33" points="24.3,31.6 24.3,41.9 24.2,42 24.2,31.7 			"/>
			<polygon class="st69" points="32,31.6 31.9,42 30.4,42.1 30.5,31.8 			"/>
			<polygon class="st38" points="40.3,31.8 40.3,42.1 39.9,42.1 40,31.8 			"/>
			<polygon class="st95" points="21.9,31.8 21.9,42 21.3,41.7 21.3,31.4 			"/>
			<polygon class="st77" points="30.5,31.8 30.4,42.1 29.8,42.1 29.9,31.8 			"/>
			<polygon class="st81" points="40.8,31.8 40.7,42.2 40.6,42.1 40.6,31.8 			"/>
			<polygon class="st45" points="23.5,31.7 23.5,42 22.9,42.1 22.9,31.8 			"/>
			<polygon class="st54" points="40,31.8 39.9,42.1 38.4,42.2 38.5,31.9 			"/>
			<polygon class="st35" points="22.9,31.8 22.9,42.1 22.7,42.1 22.7,31.8 			"/>
			<polygon class="st68" points="22.2,31.8 22.1,42.1 21.9,42 21.9,31.8 			"/>
			<polygon class="st78" points="36.3,31.9 36.2,42.2 36,42 36,31.7 			"/>
			<polygon class="st90" points="24.1,31.9 24.1,42.2 23.7,42.1 23.7,31.8 			"/>
			<polygon class="st20" points="22.4,31.9 22.4,42.2 22.1,42.1 22.2,31.8 			"/>
			<polygon class="st31" points="41.1,32 41,42.2 40.7,42.2 40.8,31.8 			"/>
			<polygon class="st44" points="23.2,31.9 23.2,42.2 23.1,42.2 23.1,31.9 			"/>
			<polygon class="st8" points="22.8,31.9 22.7,42.2 22.4,42.2 22.4,31.9 			"/>
			<polygon class="st75" points="23.1,31.9 23.1,42.2 22.7,42.2 22.8,31.9 			"/>
			<polygon class="st38" points="29.9,31.8 29.8,42.1 28.3,42.2 28.4,31.9 			"/>
			<polygon class="st79" points="41.3,32 41.2,42.3 41,42.2 41.1,32 			"/>
			<polygon class="st14" points="28.4,31.9 28.3,42.2 27.6,42.3 27.6,32 			"/>
			<polygon class="st96" points="36.7,32.1 36.6,42.4 36.2,42.2 36.3,31.9 			"/>
			<polygon class="st66" points="38.5,31.9 38.4,42.2 36.6,42.4 36.7,32.1 			"/>
			<polygon class="st69" points="27.6,32 27.6,42.3 26.7,42.3 26.8,32 			"/>
			<polygon class="st89" points="26.8,32 26.7,42.3 24.1,42.2 24.1,31.9 			"/>
			<polygon class="st35" points="43,32.1 42.9,42.4 42.7,42.4 42.7,32.1 			"/>
			<polygon class="st76" points="41.8,32.2 41.8,42.5 41.2,42.3 41.3,32 			"/>
			<polygon class="st94" points="42.5,32.2 42.4,42.5 41.8,42.5 41.8,32.2 			"/>
			<polygon class="st55" points="42.9,32 43,32.1 42.7,32.1 42.5,32.2 41.8,32.2 41.3,32 41.1,32 40.8,31.8 40.6,31.8 40.3,31.8 
				40,31.8 38.5,31.9 36.7,32.1 36.3,31.9 36,31.7 35.8,31.6 35.7,31.6 35.2,31.6 34.9,31.6 34.6,31.6 34.1,31.6 33.9,31.6 
				33.6,31.6 33.2,31.6 32,31.6 30.5,31.8 29.9,31.8 28.4,31.9 27.6,32 26.8,32 24.1,31.9 23.7,31.8 23.9,31.8 24.3,31.8 24.5,31.8 
				24.7,31.7 24.7,31.5 24.7,31.4 25.3,31.6 25.8,31.4 26.1,31.4 26.3,31.5 26.7,31.5 27,31.1 27.2,30.9 27.3,30.8 27.6,30.6 
				27.3,30.5 27,30.5 26.7,30.6 26.5,30.6 26.7,30.6 27.1,30.8 26.5,30.8 25.9,31.1 25.6,31 25.4,31.1 24.8,31 24.4,31.3 24.4,31.5 
				24.3,31.6 24.2,31.7 23.5,31.7 22.9,31.8 22.7,31.8 23.2,31.9 23.1,31.9 22.8,31.9 22.4,31.9 22.2,31.8 21.9,31.8 21.3,31.4 
				19.9,31.4 19.6,31.5 19.1,31.4 18.7,31.4 18.5,31.4 18.2,31.3 17.6,31.3 17.3,31.3 17.5,31.2 17.7,31.2 17.8,31.1 17.9,31 
				18.1,31 18.5,30.8 18.7,30.7 18.9,30.8 19,30.8 19,31 19.5,30.9 20,31 19.9,30.7 19.3,30.8 19.1,30.6 18.5,30.5 18.2,30.5 
				18.3,30.7 18.1,30.7 17.6,30.7 17.3,31.1 16.9,31 16.9,31.2 16.6,31.2 16.3,31.1 15.9,30.8 15.6,30.7 15.3,30.5 14.8,30.4 
				14.5,30.4 13.7,30.3 11.7,30.2 11.6,30.1 11.3,30.1 11.1,30 10.9,30 11.2,30 11.5,30.1 11.7,30.1 11.9,30.1 12.6,30.1 12.9,30.1 
				13.1,30.1 13.7,30.2 14.5,30.1 14.8,30 15.7,30.5 15.9,30.2 16,30 16.1,29.9 16.2,29.8 16.5,29.8 16.5,29.6 17.1,29.3 17.2,29.2 
				16.9,29.3 16.7,29.3 16.5,29.3 16.2,29.2 16,29.1 15.7,29 15.8,29.6 15.8,29.7 15.6,29.8 15.4,30 14.4,29.4 14.3,29.2 14.2,29 
				13.7,28.9 13.6,28.9 14.1,29.1 13.5,29.9 13,29.9 12.9,29.8 12,30 11.4,29.9 11.2,29.7 11,29.6 10.8,29.6 10.5,29.6 10.8,29.7 
				11,29.8 10.4,29.6 10,29.5 8.5,29.4 8.8,29.4 8.7,29.3 8.2,29.3 7.7,29.2 7.3,29.2 6.7,29 6.3,29 5.9,28.8 5.4,28.8 4.8,28.6 
				4.7,28.5 4.9,28.6 5.3,28.5 5.6,28.5 5.9,28.5 6.1,28.6 6.4,28.8 7.1,28.8 6.8,28.5 7,28.1 7.6,28.2 8.1,28.2 8.3,28.2 8.4,28.3 
				8.6,28.5 8.3,28.2 8.2,28.1 8.2,27.9 8.2,27.4 8,27.3 7.8,27.3 7.6,27.1 7.6,26.7 7.5,26.5 7.4,25.8 7.3,25.5 7.1,25.3 6.3,24.8 
				6.2,24.7 6,24.4 5.9,24.3 5.8,24.2 5.4,24.1 4.8,23.6 3.3,23 3,23 2.8,22.8 2.8,22.5 3.2,22.5 3.4,22.6 3.5,22.6 3.7,22.8 
				4.3,22.8 4.9,22.8 5.1,22.8 5.3,23 5.2,22.7 5,22.5 5.4,22.4 5.9,22.5 6,22.3 6.5,22.2 6.7,22 7.2,21.9 7.7,22 8.1,22 7.4,21.9 
				7.2,21.9 7.2,21.7 7.3,21.6 7.6,21.6 7.5,21.4 7.6,21 8.1,20.9 8.4,20.5 8.1,20.7 7.9,20.8 7.7,20.8 7.6,21 7.5,21.1 7,21.4 
				6.6,21.6 6.2,21.6 5.9,21.7 5.3,21.8 4.9,21.9 4.7,21.9 4.6,21.8 4.3,22.1 3.9,22 3.6,22 2.5,21.8 2.3,21.8 1.9,21.8 1.8,21.8 
				1.3,21.9 0.9,21.7 1,21.5 1.1,21.4 1.2,21.2 1.7,20.8 1.8,20.6 2,20.5 2.2,20.5 2.4,20.6 2.5,20.7 2.5,20.8 2.1,20.9 2,21 
				2,21.1 2.1,21 2.3,20.9 2.6,20.9 2.8,20.9 2.9,20.7 3.1,20.8 3.3,21 3.6,21.1 3.6,21 3.2,20.5 3,20.4 2.8,20.4 2.5,20.1 
				1.7,19.7 0.8,19.5 0.6,19.4 0.2,19.3 0.1,19.1 0.8,18.3 1.2,18.3 1.5,18.4 1.8,18.5 1.9,18.2 2.2,18.1 2.5,18.1 2.7,18.1 
				2.9,18.1 2.9,17.7 2.9,17.5 3.1,17.4 3.8,17 5.6,15.9 5.8,15.8 7.8,14.7 9.3,13.8 9.8,13.6 11.8,12.4 10,11.4 8.3,10.4 6.9,9.6 
				6.5,9.4 4.8,8.4 4.2,8.1 4,8 4.9,6.3 5.1,6.2 5.6,6 6,5.9 6.3,5.7 6.9,5.4 7.4,5.1 7.9,4.8 8.3,4.5 8.7,4.3 9,4.2 9.1,4.1 
				9.3,3.9 9.4,3.8 9.5,3.6 10,3.5 10.5,3.2 10.7,3.1 11.2,2.9 11.5,2.8 11.7,2.7 11.9,2.7 12.9,2.2 13,2.2 13.5,1.8 13.6,1.8 
				14.2,1.4 14.8,1.1 15.1,0.9 15.1,0.7 15.4,0.5 15.6,0.4 16.2,0.2 16.4,0.2 16.9,0.3 17,0.4 17.4,0.7 17.6,0.8 17.7,0.9 17.6,1.1 
				17.6,1.3 17.8,1.5 18.1,2 18.2,2 18.7,2.3 19.1,2.8 19.2,2.8 19.5,3 19.7,3.1 19.7,3.2 20,3.3 20.3,3.3 20.9,3.3 21.3,3.5 
				21.9,3.7 22.3,3.9 22.1,4.4 22.7,4.3 23,4.2 23,4.1 23.1,4 23.1,3.8 23.3,3.4 23.4,3.3 23.9,3.2 24.1,3.1 24.3,3 24.5,2.8 
				24.5,2.5 24.6,2.3 24.8,2.1 25.2,1.5 25.1,1.4 26.5,0.6 26.8,0.6 27,0.6 27.2,0.5 27.4,0.5 27.5,0.3 27.7,0.1 28.1,0 29.5,0.1 
				29.7,0.2 30.2,0.5 30.4,0.6 30.6,0.6 31.1,0.5 31.3,0.5 31.8,0.7 32,0.7 32.2,0.7 32.5,0.8 32.7,0.7 32.9,0.7 33.5,1.1 33.6,1.4 
				33.5,1.8 33.6,2 34,2.2 34,2.3 34,2.9 33.6,3.2 33.2,3.4 32.9,3.6 33,3.9 33.2,3.9 33.4,4 33.5,4.1 33.5,4.2 33.3,4.7 33.3,4.8 
				33.6,5.3 33.7,5.6 33.8,5.7 34,5.8 34.3,5.9 34.5,6 35,6.2 35.5,6.3 35.8,6.8 36,7.2 36,7.3 36.2,7.4 36.9,7.4 37.3,7.1 
				37.8,6.9 38.1,6.7 38.5,6.7 38.8,6.7 39.1,6.7 39.5,6.8 39.8,7 40.1,7.1 40.1,7 40.5,6.8 41,6.4 41.4,6.4 41.8,6.3 42.1,6.3 
				42.6,6.3 43.2,6.4 43.5,6.5 43.6,6.6 43.9,7.1 44.1,7.2 44.2,7.3 44.4,7.4 44.7,7.5 44.7,7.6 44.8,7.8 44.8,7.9 44.9,8 45.2,8.2 
				45.2,8.3 46,8.6 46.3,8.6 47,8.8 47.4,9 47.5,9.1 47.8,9.5 48,9.5 48.4,9.4 48.5,9.5 48.7,9.9 48.8,10 49.2,10.1 49.1,10.3 
				49.1,10.7 49.3,10.7 49.7,10.8 50,10.7 50,10.8 50.2,11 50.7,11.4 50.8,11.5 51.2,11.6 51.1,11.9 50.7,12.5 51.3,12.9 51.6,13.2 
				51.8,13.6 51.7,13.8 51.9,14 52.8,14 53.1,14.1 52.8,14.3 52.7,14.6 53,14.8 53,15.1 52.5,15.6 52,15.7 51.9,15.8 51.7,15.9 
				51.5,16 51.3,16 51,15.8 51.1,15.6 51,15.5 50.8,15.3 50.2,15.3 49.9,15.3 49.7,15.2 49.2,15.1 48.9,15 48.7,15 48.5,15 48.3,15 
				48.2,15.2 48.3,15.3 48.5,15.4 48.5,16.2 48.7,16.3 48.6,16.5 48.6,16.8 48.5,17.1 48,17.6 48,17.6 46.2,18.1 46,18.3 45.8,18.4 
				45.2,18.6 45,18.7 44.9,18.9 44,18.4 43.6,18.4 43.4,18.5 42.5,18.3 42.2,18.2 41.9,18.2 41.6,18.1 41,18 40.8,17.9 40.6,17.9 
				40.2,18 39.4,18.1 39,18.2 38.7,18.4 38.5,18.8 38.3,19.2 38.9,19.7 39.2,19.8 39.5,19.8 39.9,19.8 40.1,20 40.5,20.3 40.7,20.4 
				40.8,20.6 41,20.8 41.2,20.8 39.2,22.6 38.9,22.8 38.6,22.8 38.1,22.8 37.9,22.8 37.7,23 37.5,23.2 37.3,23.4 37.2,23.5 
				37.2,23.7 37.1,23.8 36.8,23.9 36.4,24 35.6,24.1 35.3,24.2 35.4,24.3 35.9,24.5 36.1,24.5 36.4,24.8 36.7,24.9 37.1,25 37.3,25 
				37.5,25.1 37.7,25.2 37.8,25.3 37.9,25.4 38.2,26.1 38.4,26.4 38.6,26.4 38.8,26.1 38.9,25.9 39.1,25.9 39.3,25.9 39.9,26 
				40.9,26 41.2,26 41.3,26.1 41.3,26.2 41.1,26.3 41.1,26.6 41.6,26.9 42.4,26.9 42.6,26.8 43.1,26.8 43.5,26.7 43.9,26.6 
				44.2,26.5 44.5,26.6 44.6,26.7 44.5,27 44.6,27.1 45.1,27.9 45.2,28 45.4,28 45.7,28 45.9,27.9 46,27.9 46.2,28 46.3,28.1 
				46.4,28.2 46.3,28.4 45.6,28.7 45.5,28.8 45.2,29 45,29 44.7,29 43.4,28.9 42.9,28.9 42.5,29.1 42.5,29.2 42.6,29.4 42.6,29.6 
				42.5,29.8 42.2,30 42.2,30.2 42.1,30.4 42,30.6 42,30.8 42.1,31 			"/>
			<polygon class="st59" points="42.7,32.1 42.7,42.4 42.4,42.5 42.5,32.2 			"/>
		</g>
	</g>
</g>
</svg>
