<svg xmlns="http://www.w3.org/2000/svg" viewBox="0 0 19.92 29.19"><defs><style>.cls-1{isolation:isolate;}.cls-2{fill:#912424;}.cls-3{fill:#a62929;}.cls-4{fill:#9d2727;}.cls-5{fill:#a82929;}.cls-6{fill:#962525;}.cls-7{fill:#8d2323;}.cls-8{fill:#731c1c;}.cls-9{fill:#8c2222;}.cls-10{fill:#a92929;}.cls-11{fill:#a72929;}.cls-12{fill:#9f2727;}.cls-13{fill:#8b2222;}.cls-14{fill:#982525;}.cls-15{fill:#8e2323;}.cls-16{fill:#902323;}.cls-17{fill:#a32828;}.cls-18{fill:#9d2626;}.cls-19{fill:#9b2626;}.cls-20{fill:#a22828;}.cls-21{fill:#832020;}.cls-22{fill:#922424;}.cls-23{fill:#972525;}.cls-24{fill:#9a2626;}.cls-25{fill:#952424;}.cls-26{fill:#481212;}.cls-27{fill:#4a1212;}.cls-28{fill:#491212;}.cls-29{fill:#691a1a;}.cls-30{fill:#4d1313;}.cls-31{fill:#7b1e1e;}.cls-32{fill:#521414;}.cls-33{fill:#952525;}.cls-34{fill:#912323;}.cls-35{fill:#a02727;}.cls-36{fill:#942424;}.cls-37{fill:#812020;}.cls-38{fill:#a12727;}.cls-39{fill:#862121;}.cls-40{fill:#992525;}.cls-41{fill:#a52828;}.cls-42{fill:#a42828;}.cls-43{fill:#771d1d;}.cls-44{fill:#781e1e;}.cls-45{fill:#551515;}.cls-46{fill:#721c1c;}.cls-47{fill:#8a2222;}.cls-48{fill:#661919;}.cls-49{fill:#631818;}.cls-50{fill:#741c1c;}.cls-51{fill:#5b1616;}.cls-52{fill:#611818;}.cls-53{fill:#801f1f;}.cls-54{fill:#7f1f1f;}.cls-55{fill:#591616;}.cls-56{fill:#4c1313;}.cls-57{fill:#9c2626;}.cls-58{fill:#5a1616;}.cls-59{fill:#7c1e1e;}.cls-60{fill:#791e1e;}.cls-61{fill:#5e1717;}.cls-62{fill:#7a1e1e;}.cls-63{fill:#6e1b1b;}.cls-64{fill:#641818;}.cls-65{fill:#6f1b1b;}.cls-66{fill:#c83131;}</style></defs><title>Gambia</title><g id="Layer_2" data-name="Layer 2"><g id="Layer_1-2" data-name="Layer 1"><g class="cls-1"><polygon class="cls-2" points="19.92 0.62 19.88 16.92 19.69 17.19 19.73 0.89 19.92 0.62"/><polygon class="cls-3" points="19.73 0.89 19.69 17.19 19.23 17.51 19.27 1.21 19.73 0.89"/><polygon class="cls-4" points="19.27 1.21 19.23 17.51 19.03 17.7 19.08 1.4 19.27 1.21"/><polygon class="cls-5" points="19.08 1.4 19.03 17.7 18.77 17.86 18.82 1.56 19.08 1.4"/><polygon class="cls-6" points="18.82 1.56 18.77 17.86 18.6 18.08 18.64 1.78 18.82 1.56"/><polygon class="cls-5" points="18.64 1.78 18.6 18.08 18.48 18.15 18.52 1.85 18.64 1.78"/><polygon class="cls-7" points="18.52 1.85 18.48 18.15 18.43 18.23 18.47 1.93 18.52 1.85"/><polygon class="cls-8" points="18.47 1.93 18.43 18.23 18.35 18.56 18.4 2.26 18.47 1.93"/><polygon class="cls-9" points="18.4 2.26 18.35 18.56 18.27 18.68 18.32 2.38 18.4 2.26"/><polygon class="cls-5" points="18.32 2.38 18.27 18.68 18.09 18.8 18.14 2.5 18.32 2.38"/><polygon class="cls-5" points="18.14 2.5 18.09 18.8 17.66 18.97 17.7 2.67 18.14 2.5"/><polygon class="cls-3" points="17.7 2.67 17.66 18.97 17.32 19.2 17.36 2.9 17.7 2.67"/><polygon class="cls-10" points="17.36 2.9 17.32 19.2 17.13 19.3 17.17 3 17.36 2.9"/><polygon class="cls-11" points="17.17 3 17.13 19.3 16.9 19.38 16.95 3.07 17.17 3"/><polygon class="cls-12" points="16.95 3.07 16.9 19.38 16.54 19.44 16.58 3.14 16.95 3.07"/><polygon class="cls-13" points="16.23 3.15 16.18 19.45 16.03 19.45 16.08 3.14 16.23 3.15"/><polygon class="cls-14" points="16.58 3.14 16.54 19.44 16.41 19.45 16.46 3.15 16.58 3.14"/><polygon class="cls-15" points="16.46 3.15 16.41 19.45 16.3 19.45 16.35 3.15 16.46 3.15"/><polygon class="cls-13" points="16.35 3.15 16.3 19.45 16.18 19.45 16.23 3.15 16.35 3.15"/><polygon class="cls-11" points="16.08 3.14 16.03 19.45 15.92 19.48 15.96 3.18 16.08 3.14"/><polygon class="cls-10" points="15.96 3.18 15.92 19.48 15.7 19.6 15.74 3.29 15.96 3.18"/><polygon class="cls-11" points="15.74 3.29 15.7 19.6 15.58 19.64 15.62 3.34 15.74 3.29"/><polygon class="cls-4" points="15.62 3.34 15.58 19.64 15.44 19.66 15.48 3.36 15.62 3.34"/><polygon class="cls-2" points="15.48 3.36 15.44 19.66 15.31 19.66 15.36 3.36 15.48 3.36"/><polygon class="cls-16" points="15.36 3.36 15.31 19.66 14.96 19.67 15.01 3.37 15.36 3.36"/><polygon class="cls-17" points="15.01 3.37 14.96 19.67 14.85 19.7 14.9 3.4 15.01 3.37"/><polygon class="cls-18" points="14.9 3.4 14.85 19.7 14.69 19.86 14.74 3.55 14.9 3.4"/><polygon class="cls-3" points="14.74 3.55 14.69 19.86 14.47 20.02 14.52 3.71 14.74 3.55"/><polygon class="cls-10" points="14.52 3.71 14.47 20.02 14.2 20.14 14.25 3.84 14.52 3.71"/><polygon class="cls-19" points="13.26 3.89 13.22 20.2 13.1 20.21 13.15 3.91 13.26 3.89"/><polygon class="cls-20" points="14.25 3.84 14.2 20.14 13.89 20.21 13.93 3.91 14.25 3.84"/><polygon class="cls-21" points="13.58 3.92 13.54 20.23 13.22 20.2 13.26 3.89 13.58 3.92"/><polygon class="cls-22" points="13.93 3.91 13.89 20.21 13.54 20.23 13.58 3.92 13.93 3.91"/><polygon class="cls-5" points="13.15 3.91 13.1 20.21 12.95 20.27 12.99 3.97 13.15 3.91"/><polygon class="cls-3" points="12.99 3.97 12.95 20.27 12.79 20.32 12.83 4.02 12.99 3.97"/><polygon class="cls-19" points="12.83 4.02 12.79 20.32 12.42 20.37 12.47 4.07 12.83 4.02"/><polygon class="cls-11" points="12.47 4.07 12.42 20.37 12.3 20.41 12.34 4.11 12.47 4.07"/><polygon class="cls-10" points="12.34 4.11 12.3 20.41 12.02 20.55 12.06 4.24 12.34 4.11"/><polygon class="cls-11" points="12.06 4.24 12.02 20.55 11.74 20.64 11.78 4.34 12.06 4.24"/><polygon class="cls-12" points="11.78 4.34 11.74 20.64 11.08 20.76 11.13 4.46 11.78 4.34"/><polygon class="cls-23" points="11.13 4.46 11.08 20.76 10.51 20.82 10.56 4.51 11.13 4.46"/><polygon class="cls-2" points="10.56 4.51 10.51 20.82 9.94 20.83 9.98 4.53 10.56 4.51"/><polygon class="cls-24" points="9.98 4.53 9.94 20.83 9.63 20.87 9.68 4.56 9.98 4.53"/><polygon class="cls-25" points="9.68 4.56 9.63 20.87 9.54 20.99 9.58 4.68 9.68 4.56"/><polygon class="cls-26" points="6.69 5.37 6.65 21.67 6.63 21.42 6.68 5.12 6.69 5.37"/><polygon class="cls-26" points="6.73 5.48 6.68 21.78 6.65 21.67 6.69 5.37 6.73 5.48"/><polygon class="cls-5" points="9.28 5.54 9.23 21.84 9.18 21.87 9.23 5.57 9.28 5.54"/><polygon class="cls-26" points="6.81 5.6 6.76 21.9 6.68 21.78 6.73 5.48 6.81 5.6"/><polygon class="cls-26" points="6.91 5.71 6.86 22.02 6.76 21.9 6.81 5.6 6.91 5.71"/><polygon class="cls-27" points="9.49 5.73 9.44 22.04 9.23 21.84 9.28 5.54 9.49 5.73"/><polygon class="cls-28" points="6.94 5.75 6.9 22.05 6.86 22.02 6.91 5.71 6.94 5.75"/><polygon class="cls-29" points="9.36 5.71 9.31 22.01 9.31 22.09 9.35 5.79 9.36 5.71"/><polygon class="cls-30" points="7.02 5.81 6.97 22.11 6.9 22.05 6.94 5.75 7.02 5.81"/><polygon class="cls-14" points="9.35 5.79 9.31 22.09 9.26 22.15 9.3 5.85 9.35 5.79"/><polygon class="cls-10" points="9.3 5.85 9.26 22.15 9.12 22.21 9.17 5.91 9.3 5.85"/><polygon class="cls-31" points="10.24 5.74 10.2 22.04 10.14 22.22 10.18 5.92 10.24 5.74"/><polygon class="cls-32" points="7.28 5.97 7.24 22.27 6.97 22.11 7.02 5.81 7.28 5.97"/><polygon class="cls-11" points="9.17 5.91 9.12 22.21 8.83 22.31 8.88 6 9.17 5.91"/><polygon class="cls-10" points="8.88 6 8.83 22.31 8.72 22.36 8.76 6.06 8.88 6"/><polygon class="cls-17" points="8.76 6.06 8.72 22.36 8.58 22.39 8.63 6.09 8.76 6.06"/><polygon class="cls-33" points="10.18 5.92 10.14 22.22 10 22.4 10.04 6.1 10.18 5.92"/><polygon class="cls-14" points="8.63 6.09 8.58 22.39 8.4 22.41 8.45 6.11 8.63 6.09"/><polygon class="cls-34" points="8.45 6.11 8.4 22.41 8.1 22.42 8.14 6.12 8.45 6.11"/><polygon class="cls-17" points="8.14 6.12 8.1 22.42 8.01 22.44 8.05 6.14 8.14 6.12"/><polygon class="cls-35" points="8.05 6.14 8.01 22.44 7.96 22.48 8.01 6.18 8.05 6.14"/><polygon class="cls-14" points="8.01 6.18 7.96 22.48 7.92 22.53 7.97 6.22 8.01 6.18"/><polygon class="cls-20" points="10.04 6.1 10 22.4 9.83 22.54 9.87 6.24 10.04 6.1"/><polygon class="cls-25" points="7.97 6.22 7.92 22.53 7.89 22.57 7.94 6.26 7.97 6.22"/><polygon class="cls-3" points="7.94 6.26 7.89 22.57 7.81 22.59 7.86 6.29 7.94 6.26"/><polygon class="cls-19" points="7.86 6.29 7.81 22.59 7.73 22.6 7.77 6.3 7.86 6.29"/><polygon class="cls-36" points="7.77 6.3 7.73 22.6 7.66 22.61 7.7 6.3 7.77 6.3"/><polygon class="cls-11" points="7.7 6.3 7.66 22.61 7.5 22.66 7.55 6.36 7.7 6.3"/><polygon class="cls-35" points="7.55 6.36 7.5 22.66 7.39 22.68 7.44 6.38 7.55 6.36"/><polygon class="cls-5" points="9.87 6.24 9.83 22.54 9.58 22.69 9.63 6.38 9.87 6.24"/><polygon class="cls-5" points="7.44 6.38 7.39 22.68 7.29 22.72 7.33 6.41 7.44 6.38"/><polygon class="cls-12" points="7.33 6.41 7.29 22.72 7.19 22.81 7.23 6.51 7.33 6.41"/><polygon class="cls-29" points="7.23 6.51 7.19 22.81 7.18 22.88 7.23 6.58 7.23 6.51"/><polygon class="cls-26" points="7.51 6.71 7.46 23.01 7.4 22.85 7.44 6.55 7.51 6.71"/><polygon class="cls-5" points="9.63 6.38 9.58 22.69 8.7 23.02 8.75 6.72 9.63 6.38"/><polygon class="cls-37" points="7.26 6.72 7.21 23.02 7.19 23.08 7.23 6.78 7.26 6.72"/><polygon class="cls-26" points="7.52 6.78 7.47 23.08 7.46 23.01 7.51 6.71 7.52 6.78"/><polygon class="cls-10" points="8.75 6.72 8.7 23.02 8.49 23.13 8.54 6.83 8.75 6.72"/><polygon class="cls-11" points="7.23 6.78 7.19 23.08 7.08 23.15 7.13 6.84 7.23 6.78"/><polygon class="cls-38" points="7.13 6.84 7.08 23.15 6.82 23.2 6.87 6.9 7.13 6.84"/><polygon class="cls-6" points="8.54 6.83 8.49 23.13 8.39 23.26 8.44 6.96 8.54 6.83"/><polygon class="cls-10" points="6.87 6.9 6.82 23.2 6.69 23.26 6.74 6.96 6.87 6.9"/><polygon class="cls-35" points="6.74 6.96 6.69 23.26 6.6 23.35 6.64 7.04 6.74 6.96"/><polygon class="cls-39" points="8.44 6.96 8.39 23.26 8.32 23.4 8.37 7.09 8.44 6.96"/><polygon class="cls-40" points="8.37 7.09 8.32 23.4 8.19 23.55 8.24 7.24 8.37 7.09"/><polygon class="cls-39" points="6.64 7.04 6.6 23.35 6.47 23.61 6.51 7.31 6.64 7.04"/><polygon class="cls-41" points="8.24 7.24 8.19 23.55 8.1 23.62 8.14 7.31 8.24 7.24"/><polygon class="cls-19" points="6.51 7.31 6.47 23.61 6.3 23.79 6.35 7.48 6.51 7.31"/><polygon class="cls-10" points="8.14 7.31 8.1 23.62 7.61 23.85 7.65 7.55 8.14 7.31"/><polygon class="cls-11" points="7.65 7.55 7.61 23.85 7.52 23.9 7.57 7.6 7.65 7.55"/><polygon class="cls-24" points="7.57 7.6 7.52 23.9 7.32 24.13 7.37 7.82 7.57 7.6"/><polygon class="cls-3" points="7.37 7.82 7.32 24.13 6.9 24.42 6.95 8.12 7.37 7.82"/><polygon class="cls-21" points="6.95 8.12 6.9 24.42 6.87 24.49 6.92 8.19 6.95 8.12"/><polygon class="cls-3" points="6.35 7.48 6.3 23.79 4.35 25.11 4.39 8.81 6.35 7.48"/><polygon class="cls-42" points="4.39 8.81 4.35 25.11 4.06 25.19 4.11 8.89 4.39 8.81"/><polygon class="cls-43" points="8.04 8.89 7.99 25.19 7.98 25.24 8.02 8.94 8.04 8.89"/><polygon class="cls-10" points="4.11 8.89 4.06 25.19 3.91 25.26 3.96 8.95 4.11 8.89"/><polygon class="cls-35" points="3.96 8.95 3.91 25.26 3.81 25.34 3.86 9.04 3.96 8.95"/><polygon class="cls-5" points="8.02 8.94 7.98 25.24 7.73 25.38 7.78 9.08 8.02 8.94"/><polygon class="cls-21" points="3.86 9.04 3.81 25.34 3.77 25.45 3.81 9.15 3.86 9.04"/><polygon class="cls-5" points="7.78 9.08 7.73 25.38 7.55 25.49 7.6 9.18 7.78 9.08"/><polygon class="cls-28" points="4.06 9.22 4.01 25.52 3.96 25.47 4.01 9.17 4.06 9.22"/><polygon class="cls-26" points="4.07 9.28 4.02 25.59 4.01 25.52 4.06 9.22 4.07 9.28"/><polygon class="cls-44" points="3.81 9.15 3.77 25.45 3.71 25.64 3.75 9.34 3.81 9.15"/><polygon class="cls-5" points="7.6 9.18 7.55 25.49 7.12 25.73 7.17 9.43 7.6 9.18"/><polygon class="cls-26" points="4.06 9.64 4.01 25.95 3.97 25.86 4.02 9.56 4.06 9.64"/><polygon class="cls-45" points="5.11 9.69 5.06 25.99 5.01 25.96 5.05 9.66 5.11 9.69"/><polygon class="cls-3" points="5.05 9.66 5.01 25.96 4.95 26.01 4.99 9.71 5.05 9.66"/><polygon class="cls-30" points="4.16 9.72 4.11 26.03 4.01 25.95 4.06 9.64 4.16 9.72"/><polygon class="cls-44" points="3.77 9.66 3.72 25.96 3.71 26.03 3.75 9.72 3.77 9.66"/><polygon class="cls-46" points="3.41 9.73 3.37 26.04 3.26 26.01 3.31 9.71 3.41 9.73"/><polygon class="cls-45" points="4.22 9.76 4.17 26.06 4.11 26.03 4.16 9.72 4.22 9.76"/><polygon class="cls-6" points="4.99 9.71 4.95 26.01 4.9 26.06 4.95 9.76 4.99 9.71"/><polygon class="cls-47" points="3.75 9.72 3.71 26.03 3.68 26.07 3.73 9.77 3.75 9.72"/><polygon class="cls-36" points="4.46 9.78 4.42 26.08 4.35 26.08 4.39 9.78 4.46 9.78"/><polygon class="cls-48" points="4.28 9.78 4.23 26.08 4.17 26.06 4.22 9.76 4.28 9.78"/><polygon class="cls-15" points="4.39 9.78 4.35 26.08 4.23 26.08 4.28 9.78 4.39 9.78"/><polygon class="cls-30" points="3.48 9.79 3.44 26.09 3.37 26.04 3.41 9.73 3.48 9.79"/><polygon class="cls-49" points="4.54 9.8 4.49 26.11 4.42 26.08 4.46 9.78 4.54 9.8"/><polygon class="cls-37" points="4.95 9.76 4.9 26.06 4.88 26.12 4.92 9.82 4.95 9.76"/><polygon class="cls-50" points="3.73 9.77 3.68 26.07 3.67 26.12 3.71 9.82 3.73 9.77"/><polygon class="cls-48" points="3.31 9.71 3.26 26.01 3.25 26.13 3.3 9.83 3.31 9.71"/><polygon class="cls-28" points="3.54 9.84 3.49 26.15 3.44 26.09 3.48 9.79 3.54 9.84"/><polygon class="cls-51" points="4.62 9.85 4.58 26.15 4.49 26.11 4.54 9.8 4.62 9.85"/><polygon class="cls-25" points="3.71 9.82 3.67 26.12 3.63 26.16 3.68 9.86 3.71 9.82"/><polygon class="cls-45" points="3.59 9.87 3.54 26.18 3.49 26.15 3.54 9.84 3.59 9.87"/><polygon class="cls-24" points="3.68 9.86 3.63 26.16 3.54 26.18 3.59 9.87 3.68 9.86"/><polygon class="cls-5" points="7.17 9.43 7.12 25.73 6.25 26.23 6.3 9.92 7.17 9.43"/><polygon class="cls-52" points="4.84 9.93 4.79 26.24 4.58 26.15 4.62 9.85 4.84 9.93"/><polygon class="cls-53" points="4.9 9.94 4.86 26.25 4.79 26.24 4.84 9.93 4.9 9.94"/><polygon class="cls-44" points="4.92 9.88 4.88 26.18 4.86 26.25 4.9 9.94 4.92 9.88"/><polygon class="cls-39" points="3.46 9.89 3.41 26.2 3.38 26.26 3.43 9.96 3.46 9.89"/><polygon class="cls-54" points="0.39 10.06 0.35 26.37 0.23 26.35 0.28 10.05 0.39 10.06"/><polygon class="cls-8" points="0.52 10.09 0.47 26.4 0.35 26.37 0.39 10.06 0.52 10.09"/><polygon class="cls-55" points="0.64 10.15 0.59 26.45 0.47 26.4 0.52 10.09 0.64 10.15"/><polygon class="cls-42" points="3.52 10.09 3.48 26.39 3.29 26.54 3.33 10.23 3.52 10.09"/><polygon class="cls-56" points="0.86 10.34 0.82 26.65 0.59 26.45 0.64 10.15 0.86 10.34"/><polygon class="cls-11" points="3.33 10.23 3.29 26.54 3.07 26.68 3.12 10.37 3.33 10.23"/><polygon class="cls-31" points="1.55 10.43 1.51 26.73 1.44 26.72 1.48 10.42 1.55 10.43"/><polygon class="cls-57" points="1.15 10.42 1.1 26.72 1 26.73 1.04 10.43 1.15 10.42"/><polygon class="cls-58" points="1.04 10.43 1 26.73 0.82 26.65 0.86 10.34 1.04 10.43"/><polygon class="cls-59" points="1.27 10.44 1.22 26.74 1.1 26.72 1.15 10.42 1.27 10.44"/><polygon class="cls-33" points="1.48 10.42 1.44 26.72 1.22 26.74 1.27 10.44 1.48 10.42"/><polygon class="cls-10" points="3.12 10.37 3.07 26.68 2.91 26.75 2.96 10.45 3.12 10.37"/><polygon class="cls-48" points="1.62 10.45 1.57 26.76 1.51 26.73 1.55 10.43 1.62 10.45"/><polygon class="cls-60" points="1.82 10.49 1.77 26.79 1.57 26.76 1.62 10.45 1.82 10.49"/><polygon class="cls-26" points="3.76 10.54 3.72 26.84 3.71 26.73 3.75 10.43 3.76 10.54"/><polygon class="cls-61" points="1.93 10.54 1.88 26.84 1.77 26.79 1.82 10.49 1.93 10.54"/><polygon class="cls-56" points="1.99 10.59 1.94 26.89 1.88 26.84 1.93 10.54 1.99 10.59"/><polygon class="cls-11" points="2.96 10.45 2.91 26.75 2.27 26.98 2.32 10.68 2.96 10.45"/><polygon class="cls-26" points="2.08 10.73 2.03 27.04 1.94 26.89 1.99 10.59 2.08 10.73"/><polygon class="cls-39" points="3.53 10.75 3.48 27.05 3.38 27.05 3.43 10.74 3.53 10.75"/><polygon class="cls-18" points="1.1 10.71 1.05 27.01 1 27.06 1.05 10.76 1.1 10.71"/><polygon class="cls-5" points="6.3 9.92 6.25 26.23 4.77 27.07 4.82 10.77 6.3 9.92"/><polygon class="cls-42" points="3.43 10.74 3.38 27.05 3.28 27.07 3.33 10.77 3.43 10.74"/><polygon class="cls-15" points="3.92 10.78 3.87 27.09 3.63 27.09 3.67 10.78 3.92 10.78"/><polygon class="cls-8" points="3.67 10.78 3.63 27.09 3.48 27.05 3.53 10.75 3.67 10.78"/><polygon class="cls-10" points="2.32 10.68 2.27 26.98 2.05 27.09 2.1 10.79 2.32 10.68"/><polygon class="cls-26" points="2.1 10.79 2.05 27.09 2.03 27.04 2.08 10.73 2.1 10.79"/><polygon class="cls-62" points="4.02 10.8 3.98 27.1 3.87 27.09 3.92 10.78 4.02 10.8"/><polygon class="cls-11" points="3.33 10.77 3.28 27.07 3.19 27.13 3.24 10.83 3.33 10.77"/><polygon class="cls-41" points="1.05 10.76 1 27.06 0.9 27.13 0.95 10.83 1.05 10.76"/><polygon class="cls-5" points="4.82 10.77 4.77 27.07 3.76 27.65 3.81 11.34 4.82 10.77"/><polygon class="cls-26" points="0.18 11.54 0.14 27.84 0.05 27.34 0.09 11.04 0.18 11.54"/><polygon class="cls-5" points="3.81 11.34 3.76 27.65 2.66 28.28 2.71 11.97 3.81 11.34"/><polygon class="cls-26" points="0.19 11.98 0.14 28.28 0 28.12 0.05 11.82 0.19 11.98"/><polygon class="cls-26" points="0.2 12.05 0.15 28.36 0.14 28.28 0.19 11.98 0.2 12.05"/><polygon class="cls-50" points="0.47 12.11 0.42 28.42 0.15 28.36 0.2 12.05 0.47 12.11"/><polygon class="cls-10" points="2.71 11.97 2.66 28.28 2.37 28.44 2.42 12.13 2.71 11.97"/><polygon class="cls-26" points="0.53 12.21 0.49 28.51 0.42 28.42 0.47 12.11 0.53 12.21"/><polygon class="cls-63" points="0.65 12.24 0.61 28.55 0.49 28.51 0.53 12.21 0.65 12.24"/><polygon class="cls-13" points="0.9 12.25 0.85 28.55 0.61 28.55 0.65 12.24 0.9 12.25"/><polygon class="cls-63" points="1.02 12.28 0.97 28.59 0.85 28.55 0.9 12.25 1.02 12.28"/><polygon class="cls-35" points="2.42 12.13 2.37 28.44 2.19 28.6 2.23 12.3 2.42 12.13"/><polygon class="cls-64" points="1.13 12.32 1.08 28.63 0.97 28.59 1.02 12.28 1.13 12.32"/><polygon class="cls-32" points="1.43 12.52 1.38 28.82 1.08 28.63 1.13 12.32 1.43 12.52"/><polygon class="cls-51" points="1.51 12.56 1.46 28.86 1.38 28.82 1.43 12.52 1.51 12.56"/><polygon class="cls-48" points="2.35 12.5 2.31 28.81 2.3 28.93 2.35 12.63 2.35 12.5"/><polygon class="cls-65" points="1.97 12.68 1.93 28.98 1.46 28.86 1.51 12.56 1.97 12.68"/><polygon class="cls-61" points="2.09 12.73 2.04 29.04 1.93 28.98 1.97 12.68 2.09 12.73"/><polygon class="cls-26" points="2.14 12.81 2.09 29.12 2.04 29.04 2.09 12.73 2.14 12.81"/><polygon class="cls-22" points="2.56 12.84 2.51 29.14 2.32 29.15 2.37 12.84 2.56 12.84"/><polygon class="cls-26" points="2.17 12.87 2.12 29.17 2.09 29.12 2.14 12.81 2.17 12.87"/><polygon class="cls-3" points="2.37 12.84 2.32 29.15 2.19 29.19 2.23 12.88 2.37 12.84"/><polygon class="cls-65" points="2.23 12.88 2.19 29.19 2.12 29.17 2.17 12.87 2.23 12.88"/><polygon class="cls-66" points="19.49 0.13 19.81 0.34 19.92 0.62 19.73 0.89 19.27 1.21 19.08 1.4 18.82 1.56 18.64 1.78 18.52 1.85 18.47 1.93 18.4 2.26 18.32 2.38 18.14 2.5 17.7 2.67 17.36 2.9 17.17 3 16.95 3.07 16.58 3.14 16.46 3.15 16.35 3.15 16.23 3.15 16.08 3.14 15.96 3.18 15.74 3.29 15.62 3.34 15.48 3.36 15.36 3.36 15.01 3.37 14.9 3.4 14.74 3.55 14.52 3.71 14.25 3.84 13.93 3.91 13.58 3.92 13.26 3.89 13.15 3.91 12.99 3.97 12.83 4.02 12.47 4.07 12.34 4.11 12.06 4.24 11.78 4.34 11.13 4.46 10.56 4.51 9.98 4.53 9.68 4.56 9.58 4.68 9.59 4.85 9.6 5.02 9.66 5.17 10.05 5.43 10.2 5.55 10.24 5.74 10.18 5.92 10.04 6.1 9.87 6.24 9.63 6.38 8.75 6.72 8.54 6.83 8.44 6.96 8.37 7.09 8.24 7.24 8.14 7.31 7.65 7.55 7.57 7.6 7.37 7.82 6.95 8.12 6.92 8.19 6.99 8.26 7.46 8.54 7.56 8.6 8.04 8.89 8.02 8.94 7.78 9.08 7.6 9.18 7.17 9.43 6.3 9.92 4.82 10.77 3.81 11.34 2.71 11.97 2.42 12.13 2.23 12.3 2.3 12.45 2.35 12.5 2.35 12.63 2.36 12.68 2.41 12.74 2.56 12.84 2.37 12.84 2.23 12.88 2.17 12.87 2.14 12.81 2.09 12.73 1.97 12.68 1.51 12.56 1.43 12.52 1.13 12.32 1.02 12.28 0.9 12.25 0.65 12.24 0.53 12.21 0.47 12.11 0.2 12.05 0.19 11.98 0.05 11.82 0.07 11.75 0.14 11.69 0.17 11.61 0.18 11.54 0.09 11.04 0.12 10.86 0.21 10.89 0.3 10.9 0.39 10.88 0.49 10.86 0.54 10.76 0.66 10.69 0.8 10.65 0.94 10.65 1.1 10.71 1.05 10.76 0.95 10.83 0.95 10.91 1.15 10.91 1.43 10.97 1.68 11.06 1.78 11.14 2.31 11.16 2.4 11.15 2.75 10.97 2.87 10.93 3.02 10.91 3.12 10.91 3.22 10.88 3.36 10.81 3.47 10.8 3.62 10.85 3.75 10.91 3.8 10.99 3.81 10.85 3.87 10.81 4.02 10.8 3.92 10.78 3.67 10.78 3.53 10.75 3.43 10.74 3.33 10.77 3.24 10.83 3.4 10.69 3.47 10.63 3.51 10.56 3.71 10.6 3.76 10.54 3.75 10.43 3.81 10.34 3.9 10.24 3.98 10.01 4.07 9.91 4.31 9.84 4.47 9.9 4.61 10 4.75 10.06 4.89 10.02 5 9.89 5.11 9.69 5.05 9.66 4.99 9.71 4.95 9.76 4.92 9.82 4.92 9.88 4.9 9.94 4.84 9.93 4.62 9.85 4.54 9.8 4.46 9.78 4.39 9.78 4.28 9.78 4.22 9.76 4.16 9.72 4.06 9.64 4.02 9.56 4.07 9.28 4.06 9.22 4.01 9.17 4.08 9.1 4.23 9.06 5.21 8.55 5.48 8.3 5.59 8.22 5.67 8.18 5.8 8.1 5.83 8.06 5.83 8.02 5.97 7.88 6.45 7.66 6.57 7.58 6.84 7.28 6.87 7.22 6.9 7.1 6.94 7.05 7.03 7.03 7.22 7.03 7.31 7 7.4 6.95 7.46 6.9 7.5 6.85 7.52 6.78 7.51 6.71 7.44 6.55 7.46 6.49 7.54 6.44 7.65 6.41 7.77 6.38 7.87 6.38 7.97 6.36 8.03 6.31 8.07 6.25 8.12 6.21 8.28 6.16 8.45 6.16 8.6 6.17 8.74 6.17 9.04 6.09 9.35 5.93 9.49 5.73 9.28 5.54 9.23 5.57 9.32 5.63 9.36 5.71 9.35 5.79 9.3 5.85 9.17 5.91 8.88 6 8.76 6.06 8.63 6.09 8.45 6.11 8.14 6.12 8.05 6.14 8.01 6.18 7.97 6.22 7.94 6.26 7.86 6.29 7.77 6.3 7.7 6.3 7.55 6.36 7.44 6.38 7.33 6.41 7.23 6.51 7.23 6.58 7.26 6.72 7.23 6.78 7.13 6.84 6.87 6.9 6.74 6.96 6.64 7.04 6.51 7.31 6.35 7.48 4.39 8.81 4.11 8.89 3.96 8.95 3.86 9.04 3.81 9.15 3.75 9.34 3.77 9.66 3.75 9.72 3.73 9.77 3.71 9.82 3.68 9.86 3.59 9.87 3.54 9.84 3.48 9.79 3.41 9.73 3.31 9.71 3.3 9.83 3.34 9.87 3.46 9.89 3.43 9.96 3.52 10.09 3.33 10.23 3.12 10.37 2.96 10.45 2.32 10.68 2.1 10.79 2.08 10.73 1.99 10.59 1.93 10.54 1.82 10.49 1.62 10.45 1.55 10.43 1.48 10.42 1.27 10.44 1.15 10.42 1.04 10.43 0.86 10.34 0.64 10.15 0.52 10.09 0.39 10.06 0.28 10.05 0.7 9.8 1.11 9.57 1.52 9.33 1.93 9.09 2.35 8.85 2.77 8.62 3.17 8.38 3.44 8.22 3.58 8.14 4 7.9 4.41 7.67 4.82 7.43 5.23 7.19 5.64 6.95 6.06 6.72 6.47 6.48 6.88 6.24 7.21 6.05 7.28 5.97 7.02 5.81 6.94 5.75 6.91 5.71 6.81 5.6 6.73 5.48 6.69 5.37 6.68 5.12 6.75 4.83 6.94 4.59 7.27 4.45 7.39 4.45 7.69 4.47 7.79 4.46 7.89 4.37 8.08 3.89 8.38 3.51 8.53 3.43 9.07 3.28 9.77 2.92 10.09 2.82 10.32 2.81 10.51 2.79 10.71 2.82 10.9 2.85 11.46 3.03 11.57 3.04 12 2.97 12.13 2.94 12.19 2.88 12.37 2.51 12.56 2.31 12.85 2.16 13.27 2.08 13.5 2.06 13.71 2.08 13.9 2.11 14.28 2.23 14.41 2.26 14.55 2.26 14.64 2.26 15.47 2.17 15.7 2.13 15.84 2.07 15.93 1.98 16.18 1.67 16.31 1.33 16.39 1.23 16.68 0.95 16.82 0.69 16.93 0.59 17 0.55 17.12 0.48 17.18 0.44 17.22 0.37 17.28 0.25 17.35 0.19 17.51 0.12 17.74 0.06 17.98 0.01 18.18 0 18.28 0.02 18.45 0.07 18.54 0.08 18.65 0.07 18.89 0.04 19.01 0.03 19.49 0.13"/></g></g></g></svg>