<svg xmlns="http://www.w3.org/2000/svg" viewBox="0 0 70.89 45.87"><defs><style>.cls-1{isolation:isolate;}.cls-2{fill:#481212;}.cls-3{fill:#862121;}.cls-4{fill:#922424;}.cls-5{fill:#6f1b1b;}.cls-6{fill:#952424;}.cls-7{fill:#541414;}.cls-8{fill:#a62929;}.cls-9{fill:#641919;}.cls-10{fill:#501414;}.cls-11{fill:#691a1a;}.cls-12{fill:#521414;}.cls-13{fill:#491212;}.cls-14{fill:#8b2222;}.cls-15{fill:#4b1212;}.cls-16{fill:#852121;}.cls-17{fill:#a42828;}.cls-18{fill:#a92929;}.cls-19{fill:#771d1d;}.cls-20{fill:#9b2626;}.cls-21{fill:#a82929;}.cls-22{fill:#942424;}.cls-23{fill:#7d1f1f;}.cls-24{fill:#a32828;}.cls-25{fill:#962525;}.cls-26{fill:#a72929;}.cls-27{fill:#9d2626;}.cls-28{fill:#8a2222;}.cls-29{fill:#4d1313;}.cls-30{fill:#681919;}.cls-31{fill:#661919;}.cls-32{fill:#972525;}.cls-33{fill:#882121;}.cls-34{fill:#4e1313;}.cls-35{fill:#5b1616;}.cls-36{fill:#6e1b1b;}.cls-37{fill:#872121;}.cls-38{fill:#8e2323;}.cls-39{fill:#812020;}.cls-40{fill:#992626;}.cls-41{fill:#611818;}.cls-42{fill:#6a1a1a;}.cls-43{fill:#a52828;}.cls-44{fill:#902323;}.cls-45{fill:#571515;}.cls-46{fill:#a52929;}.cls-47{fill:#671919;}.cls-48{fill:#791e1e;}.cls-49{fill:#852020;}.cls-50{fill:#4a1212;}.cls-51{fill:#7f1f1f;}.cls-52{fill:#912424;}.cls-53{fill:#711c1c;}.cls-54{fill:#8d2323;}.cls-55{fill:#731c1c;}.cls-56{fill:#581616;}.cls-57{fill:#741d1d;}.cls-58{fill:#631818;}.cls-59{fill:#982525;}.cls-60{fill:#741c1c;}.cls-61{fill:#511414;}.cls-62{fill:#651919;}.cls-63{fill:#7b1e1e;}.cls-64{fill:#822020;}.cls-65{fill:#842020;}.cls-66{fill:#a12727;}.cls-67{fill:#a22828;}.cls-68{fill:#5d1717;}.cls-69{fill:#6d1b1b;}.cls-70{fill:#591616;}.cls-71{fill:#912323;}.cls-72{fill:#952525;}.cls-73{fill:#9c2626;}.cls-74{fill:#5c1717;}.cls-75{fill:#641818;}.cls-76{fill:#9d2727;}.cls-77{fill:#a02727;}.cls-78{fill:#8d2222;}.cls-79{fill:#761d1d;}.cls-80{fill:#4c1313;}.cls-81{fill:#6c1b1b;}.cls-82{fill:#892121;}.cls-83{fill:#7e1f1f;}.cls-84{fill:#5e1717;}.cls-85{fill:#9e2727;}.cls-86{fill:#8c2222;}.cls-87{fill:#4f1313;}.cls-88{fill:#832020;}.cls-89{fill:#751d1d;}.cls-90{fill:#6b1a1a;}.cls-91{fill:#551515;}.cls-92{fill:#9a2626;}.cls-93{fill:#8f2323;}.cls-94{fill:#932424;}.cls-95{fill:#c83131;}</style></defs><title>Guinea</title><g id="Layer_2" data-name="Layer 2"><g id="Layer_1-2" data-name="Layer 1"><g class="cls-1"><polygon class="cls-2" points="30.17 1.36 30.12 17.67 29.99 17.52 30.04 1.22 30.17 1.36"/><polygon class="cls-3" points="30.38 1.38 30.34 17.68 30.12 17.67 30.17 1.36 30.38 1.38"/><polygon class="cls-4" points="30.61 1.37 30.57 17.68 30.34 17.68 30.38 1.38 30.61 1.37"/><polygon class="cls-5" points="31.58 1.63 31.54 17.93 30.57 17.68 30.61 1.37 31.58 1.63"/><polygon class="cls-6" points="44.28 1.6 44.23 17.91 44.07 18.11 44.12 1.81 44.28 1.6"/><polygon class="cls-7" points="31.82 1.78 31.78 18.08 31.54 17.93 31.58 1.63 31.82 1.78"/><polygon class="cls-2" points="31.82 1.96 31.78 18.26 31.78 18.08 31.82 1.78 31.82 1.96"/><polygon class="cls-8" points="44.76 1.89 44.72 18.19 44.08 18.64 44.13 2.34 44.76 1.89"/><polygon class="cls-9" points="44.19 2.53 44.15 18.84 44.14 19.15 44.19 2.85 44.19 2.53"/><polygon class="cls-2" points="45.77 3.74 45.73 20.04 45.49 19.64 45.54 3.33 45.77 3.74"/><polygon class="cls-2" points="30.67 3.77 30.63 20.07 30.45 19.79 30.5 3.49 30.67 3.77"/><polygon class="cls-10" points="30.88 3.91 30.83 20.21 30.63 20.07 30.67 3.77 30.88 3.91"/><polygon class="cls-2" points="30.91 4.03 30.86 20.33 30.83 20.21 30.88 3.91 30.91 4.03"/><polygon class="cls-2" points="30.92 4.22 30.88 20.52 30.86 20.33 30.91 4.03 30.92 4.22"/><polygon class="cls-3" points="55.16 5.28 55.12 21.58 55.05 21.72 55.09 5.42 55.16 5.28"/><polygon class="cls-6" points="55.09 5.42 55.05 21.72 54.84 21.99 54.88 5.68 55.09 5.42"/><polygon class="cls-11" points="54.88 5.68 54.84 21.99 54.83 22.13 54.87 5.82 54.88 5.68"/><polygon class="cls-2" points="25.49 6.62 25.45 22.93 25.45 22.53 25.49 6.23 25.49 6.62"/><polygon class="cls-12" points="25.5 7.16 25.45 23.46 25.09 23.23 25.14 6.93 25.5 7.16"/><polygon class="cls-13" points="25.52 7.63 25.48 23.93 25.35 23.8 25.4 7.49 25.52 7.63"/><polygon class="cls-2" points="25.57 8.11 25.53 24.41 25.42 24.05 25.46 7.75 25.57 8.11"/><polygon class="cls-6" points="63.67 8.3 63.63 24.6 63.1 25.29 63.14 8.98 63.67 8.3"/><polygon class="cls-2" points="21.17 9.02 21.12 25.32 20.9 25.01 20.95 8.7 21.17 9.02"/><polygon class="cls-14" points="17.34 9.14 17.3 25.45 17.15 25.69 17.2 9.39 17.34 9.14"/><polygon class="cls-15" points="21.23 9.67 21.18 25.98 21.02 25.84 21.07 9.54 21.23 9.67"/><polygon class="cls-2" points="21.28 9.79 21.23 26.09 21.18 25.98 21.23 9.67 21.28 9.79"/><polygon class="cls-8" points="69.09 10.47 69.04 26.77 68.7 27.02 68.75 10.71 69.09 10.47"/><polygon class="cls-16" points="67.67 10.72 67.63 27.02 67.29 26.99 67.33 10.69 67.67 10.72"/><polygon class="cls-17" points="67.33 10.69 67.29 26.99 67.16 27.09 67.21 10.79 67.33 10.69"/><polygon class="cls-18" points="68.75 10.71 68.7 27.02 68.49 27.11 68.54 10.8 68.75 10.71"/><polygon class="cls-19" points="68.29 10.84 68.24 27.14 67.63 27.02 67.67 10.72 68.29 10.84"/><polygon class="cls-20" points="68.54 10.8 68.49 27.11 68.24 27.14 68.29 10.84 68.54 10.8"/><polygon class="cls-18" points="67.21 10.79 67.16 27.09 65.95 27.69 66 11.39 67.21 10.79"/><polygon class="cls-21" points="66 11.39 65.95 27.69 65.32 27.95 65.37 11.65 66 11.39"/><polygon class="cls-22" points="65.37 11.65 65.32 27.95 65.19 28.13 65.23 11.82 65.37 11.65"/><polygon class="cls-17" points="65.23 11.82 65.19 28.13 65.07 28.22 65.11 11.91 65.23 11.82"/><polygon class="cls-21" points="65.11 11.91 65.07 28.22 64.78 28.32 64.83 12.02 65.11 11.91"/><polygon class="cls-23" points="64.83 12.02 64.78 28.32 64.64 28.72 64.68 12.41 64.83 12.02"/><polygon class="cls-8" points="69.33 12.94 69.28 29.25 68.77 29.61 68.81 13.31 69.33 12.94"/><polygon class="cls-24" points="70.89 15.84 70.84 32.15 70.5 32.23 70.55 15.92 70.89 15.84"/><polygon class="cls-25" points="70.55 15.92 70.5 32.23 70.05 32.26 70.09 15.96 70.55 15.92"/><polygon class="cls-26" points="70.09 15.96 70.05 32.26 69.77 32.36 69.81 16.05 70.09 15.96"/><polygon class="cls-20" points="69.81 16.05 69.77 32.36 69.6 32.53 69.65 16.23 69.81 16.05"/><polygon class="cls-27" points="69.65 16.23 69.6 32.53 69.16 32.6 69.2 16.3 69.65 16.23"/><polygon class="cls-28" points="69.2 16.3 69.16 32.6 69.08 32.74 69.12 16.44 69.2 16.3"/><polygon class="cls-29" points="67.9 16.76 67.86 33.06 67.65 32.9 67.69 16.59 67.9 16.76"/><polygon class="cls-30" points="69.12 16.44 69.08 32.74 69.05 33.08 69.1 16.78 69.12 16.44"/><polygon class="cls-20" points="69.1 16.78 69.05 33.08 68.73 33.12 68.78 16.82 69.1 16.78"/><polygon class="cls-31" points="68.13 16.84 68.09 33.14 67.86 33.06 67.9 16.76 68.13 16.84"/><polygon class="cls-32" points="68.78 16.82 68.73 33.12 68.35 33.16 68.4 16.85 68.78 16.82"/><polygon class="cls-33" points="68.4 16.85 68.35 33.16 68.09 33.14 68.13 16.84 68.4 16.85"/><polygon class="cls-18" points="67.69 16.59 67.65 32.9 66.81 33.33 66.86 17.02 67.69 16.59"/><polygon class="cls-34" points="0.44 17.37 0.39 33.67 0 33.38 0.05 17.08 0.44 17.37"/><polygon class="cls-35" points="0.6 17.45 0.56 33.75 0.39 33.67 0.44 17.37 0.6 17.45"/><polygon class="cls-36" points="0.84 17.52 0.8 33.82 0.56 33.75 0.6 17.45 0.84 17.52"/><polygon class="cls-37" points="1.6 17.57 1.56 33.87 0.8 33.82 0.84 17.52 1.6 17.57"/><polygon class="cls-38" points="56.13 17.76 56.08 34.07 55.29 34.06 55.33 17.76 56.13 17.76"/><polygon class="cls-39" points="56.33 17.79 56.29 34.09 56.08 34.07 56.13 17.76 56.33 17.79"/><polygon class="cls-24" points="56.8 17.67 56.75 33.98 56.29 34.09 56.33 17.79 56.8 17.67"/><polygon class="cls-40" points="55.33 17.76 55.29 34.06 54.92 34.1 54.97 17.8 55.33 17.76"/><polygon class="cls-41" points="2.04 17.74 1.99 34.05 1.56 33.87 1.6 17.57 2.04 17.74"/><polygon class="cls-42" points="35.26 17.9 35.21 34.2 35.02 34.14 35.06 17.84 35.26 17.9"/><polygon class="cls-43" points="35.06 17.84 35.02 34.14 34.49 34.28 34.54 17.98 35.06 17.84"/><polygon class="cls-44" points="37.26 18 37.22 34.31 36.68 34.31 36.73 18.01 37.26 18"/><polygon class="cls-16" points="37.79 18.04 37.74 34.35 37.22 34.31 37.26 18 37.79 18.04"/><polygon class="cls-18" points="34.54 17.98 34.49 34.28 34.3 34.37 34.35 18.07 34.54 17.98"/><polygon class="cls-45" points="57.66 18.14 57.62 34.45 56.75 33.98 56.8 17.67 57.66 18.14"/><polygon class="cls-46" points="54.97 18.07 54.93 34.37 54.82 34.45 54.87 18.14 54.97 18.07"/><polygon class="cls-47" points="54.87 18.14 54.82 34.45 54.13 34.21 54.18 17.91 54.87 18.14"/><polygon class="cls-30" points="35.92 18.12 35.87 34.42 35.21 34.2 35.26 17.9 35.92 18.12"/><polygon class="cls-20" points="36.73 18.01 36.68 34.31 35.87 34.42 35.92 18.12 36.73 18.01"/><polygon class="cls-48" points="38.25 18.13 38.2 34.43 37.74 34.35 37.79 18.04 38.25 18.13"/><polygon class="cls-2" points="2.32 18.06 2.28 34.37 1.99 34.05 2.04 17.74 2.32 18.06"/><polygon class="cls-49" points="39.02 18.19 38.97 34.49 38.2 34.43 38.25 18.13 39.02 18.19"/><polygon class="cls-50" points="57.81 18.28 57.77 34.58 57.62 34.45 57.66 18.14 57.81 18.28"/><polygon class="cls-51" points="67.88 18.15 67.83 34.45 67.76 34.62 67.81 18.32 67.88 18.15"/><polygon class="cls-52" points="39.85 18.26 39.81 34.56 39.31 34.58 39.36 18.27 39.85 18.26"/><polygon class="cls-53" points="39.36 18.27 39.31 34.58 38.97 34.49 39.02 18.19 39.36 18.27"/><polygon class="cls-54" points="54.18 17.91 54.13 34.21 53.87 34.63 53.92 18.32 54.18 17.91"/><polygon class="cls-4" points="58.64 18.35 58.59 34.65 58.12 34.66 58.17 18.36 58.64 18.35"/><polygon class="cls-55" points="58.17 18.36 58.12 34.66 57.77 34.58 57.81 18.28 58.17 18.36"/><polygon class="cls-56" points="2.61 18.21 2.56 34.52 2.28 34.37 2.32 18.06 2.61 18.21"/><polygon class="cls-57" points="40.46 18.39 40.42 34.69 39.81 34.56 39.85 18.26 40.46 18.39"/><polygon class="cls-2" points="2.69 18.32 2.64 34.63 2.56 34.52 2.61 18.21 2.69 18.32"/><polygon class="cls-4" points="42.4 18.46 42.35 34.77 41.76 34.79 41.8 18.49 42.4 18.46"/><polygon class="cls-29" points="2.84 18.44 2.79 34.75 2.64 34.63 2.69 18.32 2.84 18.44"/><polygon class="cls-58" points="59.3 18.6 59.26 34.91 58.59 34.65 58.64 18.35 59.3 18.6"/><polygon class="cls-41" points="40.91 18.57 40.87 34.88 40.42 34.69 40.46 18.39 40.91 18.57"/><polygon class="cls-59" points="41.8 18.49 41.76 34.79 40.87 34.88 40.91 18.57 41.8 18.49"/><polygon class="cls-60" points="59.93 18.74 59.88 35.05 59.26 34.91 59.3 18.6 59.93 18.74"/><polygon class="cls-2" points="2.91 18.6 2.86 34.91 2.79 34.75 2.84 18.44 2.91 18.6"/><polygon class="cls-13" points="60.13 18.96 60.09 35.26 59.88 35.05 59.93 18.74 60.13 18.96"/><polygon class="cls-21" points="34.35 18.07 34.3 34.37 32.91 35.2 32.96 18.89 34.35 18.07"/><polygon class="cls-12" points="43.34 19.07 43.3 35.37 42.35 34.77 42.4 18.46 43.34 19.07"/><polygon class="cls-61" points="60.39 19.13 60.35 35.44 60.09 35.26 60.13 18.96 60.39 19.13"/><polygon class="cls-20" points="53.92 18.32 53.87 34.63 53.09 35.47 53.13 19.16 53.92 18.32"/><polygon class="cls-22" points="45.27 19.16 45.22 35.46 44.77 35.49 44.81 19.18 45.27 19.16"/><polygon class="cls-62" points="60.74 19.26 60.69 35.56 60.35 35.44 60.39 19.13 60.74 19.26"/><polygon class="cls-2" points="43.44 19.26 43.4 35.56 43.3 35.37 43.34 19.07 43.44 19.26"/><polygon class="cls-63" points="61.16 19.33 61.12 35.63 60.69 35.56 60.74 19.26 61.16 19.33"/><polygon class="cls-18" points="44.81 19.18 44.77 35.49 44.48 35.62 44.52 19.32 44.81 19.18"/><polygon class="cls-64" points="61.74 19.39 61.69 35.69 61.12 35.63 61.16 19.33 61.74 19.39"/><polygon class="cls-16" points="62.12 19.41 62.07 35.72 61.69 35.69 61.74 19.39 62.12 19.41"/><polygon class="cls-65" points="53.13 19.16 53.09 35.47 52.97 35.71 53.02 19.41 53.13 19.16"/><polygon class="cls-66" points="52.42 19.28 52.38 35.59 51.61 35.74 51.65 19.44 52.42 19.28"/><polygon class="cls-50" points="45.57 19.45 45.52 35.75 45.22 35.46 45.27 19.16 45.57 19.45"/><polygon class="cls-13" points="43.65 19.47 43.61 35.77 43.4 35.56 43.44 19.26 43.65 19.47"/><polygon class="cls-67" points="53.02 19.41 52.97 35.71 52.86 35.81 52.91 19.5 53.02 19.41"/><polygon class="cls-68" points="52.91 19.5 52.86 35.81 52.38 35.59 52.42 19.28 52.91 19.5"/><polygon class="cls-26" points="44.52 19.32 44.48 35.62 44.21 35.79 44.26 19.48 44.52 19.32"/><polygon class="cls-2" points="62.22 19.55 62.18 35.86 62.07 35.72 62.12 19.41 62.22 19.55"/><polygon class="cls-52" points="68.54 19.31 68.5 35.61 68.29 35.91 68.33 19.61 68.54 19.31"/><polygon class="cls-52" points="68.33 19.61 68.29 35.91 67.89 35.92 67.93 19.62 68.33 19.61"/><polygon class="cls-58" points="43.95 19.58 43.91 35.88 43.61 35.77 43.65 19.47 43.95 19.58"/><polygon class="cls-8" points="44.26 19.48 44.21 35.79 43.91 35.88 43.95 19.58 44.26 19.48"/><polygon class="cls-34" points="45.77 19.6 45.72 35.9 45.52 35.75 45.57 19.45 45.77 19.6"/><polygon class="cls-69" points="67.93 19.62 67.89 35.92 67.87 36.05 67.91 19.75 67.93 19.62"/><polygon class="cls-13" points="62.39 19.73 62.34 36.03 62.18 35.86 62.22 19.55 62.39 19.73"/><polygon class="cls-70" points="62.63 19.85 62.58 36.16 62.34 36.03 62.39 19.73 62.63 19.85"/><polygon class="cls-65" points="51.65 19.44 51.61 35.74 51.41 36.15 51.46 19.85 51.65 19.44"/><polygon class="cls-56" points="46.35 19.91 46.3 36.21 45.72 35.9 45.77 19.6 46.35 19.91"/><polygon class="cls-22" points="4.75 19.75 4.7 36.06 4.02 36.1 4.06 19.8 4.75 19.75"/><polygon class="cls-71" points="67.91 19.75 67.87 36.05 67.7 36.3 67.74 19.99 67.91 19.75"/><polygon class="cls-72" points="4.06 19.8 4.02 36.1 3.43 36.14 3.47 19.84 4.06 19.8"/><polygon class="cls-6" points="3.47 19.84 3.43 36.14 2.94 36.17 2.99 19.86 3.47 19.84"/><polygon class="cls-52" points="2.99 19.86 2.94 36.17 2.57 36.18 2.61 19.88 2.99 19.86"/><polygon class="cls-21" points="51.46 19.85 51.41 36.15 51.11 36.33 51.16 20.02 51.46 19.85"/><polygon class="cls-73" points="2.61 19.88 2.57 36.18 2.36 36.21 2.41 19.91 2.61 19.88"/><polygon class="cls-2" points="1.77 19.92 1.72 36.22 1.66 35.99 1.7 19.69 1.77 19.92"/><polygon class="cls-5" points="46.88 20.05 46.84 36.35 46.3 36.21 46.35 19.91 46.88 20.05"/><polygon class="cls-61" points="63 20.1 62.96 36.4 62.58 36.16 62.63 19.85 63 20.1"/><polygon class="cls-15" points="4.96 19.95 4.92 36.25 4.7 36.06 4.75 19.75 4.96 19.95"/><polygon class="cls-43" points="2.41 19.91 2.36 36.21 2.19 36.26 2.23 19.96 2.41 19.91"/><polygon class="cls-37" points="47.79 20.1 47.74 36.4 46.84 36.35 46.88 20.05 47.79 20.1"/><polygon class="cls-65" points="48.45 20.15 48.41 36.46 47.74 36.4 47.79 20.1 48.45 20.15"/><polygon class="cls-74" points="2.04 20.05 2 36.35 1.72 36.22 1.77 19.92 2.04 20.05"/><polygon class="cls-18" points="2.23 19.96 2.19 36.26 2 36.35 2.04 20.05 2.23 19.96"/><polygon class="cls-61" points="5.22 20.12 5.18 36.42 4.92 36.25 4.96 19.95 5.22 20.12"/><polygon class="cls-2" points="63.17 20.3 63.13 36.6 62.96 36.4 63 20.1 63.17 20.3"/><polygon class="cls-2" points="48.54 20.26 48.5 36.57 48.41 36.46 48.45 20.15 48.54 20.26"/><polygon class="cls-18" points="51.16 20.02 51.11 36.33 50.52 36.57 50.57 20.27 51.16 20.02"/><polygon class="cls-16" points="65.56 20.36 65.52 36.66 65.28 36.64 65.33 20.34 65.56 20.36"/><polygon class="cls-2" points="48.58 20.4 48.54 36.7 48.5 36.57 48.54 20.26 48.58 20.4"/><polygon class="cls-8" points="50.57 20.27 50.52 36.57 50.3 36.73 50.35 20.43 50.57 20.27"/><polygon class="cls-67" points="67.74 19.99 67.7 36.3 67.11 36.79 67.15 20.48 67.74 19.99"/><polygon class="cls-38" points="67.15 20.48 67.11 36.79 66.8 36.79 66.85 20.48 67.15 20.48"/><polygon class="cls-2" points="63.32 20.48 63.27 36.78 63.13 36.6 63.17 20.3 63.32 20.48"/><polygon class="cls-32" points="66.85 20.48 66.8 36.79 66.38 36.82 66.43 20.52 66.85 20.48"/><polygon class="cls-75" points="66.07 20.55 66.02 36.85 65.52 36.66 65.56 20.36 66.07 20.55"/><polygon class="cls-25" points="66.43 20.52 66.38 36.82 66.02 36.85 66.07 20.55 66.43 20.52"/><polygon class="cls-17" points="65.33 20.34 65.28 36.64 65 36.86 65.05 20.55 65.33 20.34"/><polygon class="cls-2" points="63.41 20.6 63.36 36.9 63.27 36.78 63.32 20.48 63.41 20.6"/><polygon class="cls-21" points="32.96 18.89 32.91 35.2 30.11 36.84 30.15 20.54 32.96 18.89"/><polygon class="cls-68" points="6.25 20.59 6.2 36.9 5.18 36.42 5.22 20.12 6.25 20.59"/><polygon class="cls-2" points="63.48 20.82 63.43 37.12 63.36 36.9 63.41 20.6 63.48 20.82"/><polygon class="cls-18" points="65.05 20.55 65 36.86 64.16 37.32 64.2 21.02 65.05 20.55"/><polygon class="cls-64" points="64.2 21.02 64.16 37.32 63.66 37.27 63.71 20.96 64.2 21.02"/><polygon class="cls-2" points="48.31 20.98 48.27 37.28 48.23 37.14 48.28 20.84 48.31 20.98"/><polygon class="cls-2" points="6.53 20.96 6.48 37.26 6.2 36.9 6.25 20.59 6.53 20.96"/><polygon class="cls-2" points="48.4 21.16 48.36 37.46 48.27 37.28 48.31 20.98 48.4 21.16"/><polygon class="cls-62" points="63.75 21.07 63.7 37.38 63.7 37.59 63.74 21.29 63.75 21.07"/><polygon class="cls-2" points="63.74 21.29 63.7 37.59 63.43 37.12 63.48 20.82 63.74 21.29"/><polygon class="cls-2" points="48.56 21.54 48.51 37.84 48.36 37.46 48.4 21.16 48.56 21.54"/><polygon class="cls-29" points="5.71 21.46 5.66 37.77 5.47 37.62 5.52 21.32 5.71 21.46"/><polygon class="cls-76" points="30.53 20.79 30.48 37.09 29.54 38.04 29.58 21.73 30.53 20.79"/><polygon class="cls-63" points="50.46 21.6 50.41 37.9 50.34 38.13 50.39 21.83 50.46 21.6"/><polygon class="cls-29" points="49.04 21.93 49 38.23 48.51 37.84 48.56 21.54 49.04 21.93"/><polygon class="cls-77" points="29.58 21.73 29.54 38.04 29.37 38.19 29.42 21.88 29.58 21.73"/><polygon class="cls-26" points="50.39 21.83 50.34 38.13 49.86 38.3 49.91 21.99 50.39 21.83"/><polygon class="cls-2" points="49.11 22.08 49.06 38.38 49 38.23 49.04 21.93 49.11 22.08"/><polygon class="cls-43" points="29.42 21.88 29.37 38.19 28.7 38.38 28.74 22.07 29.42 21.88"/><polygon class="cls-4" points="28.74 22.07 28.7 38.38 28.47 38.38 28.52 22.08 28.74 22.07"/><polygon class="cls-18" points="49.91 21.99 49.86 38.3 49.49 38.45 49.54 22.15 49.91 21.99"/><polygon class="cls-40" points="28.52 22.08 28.47 38.38 28.27 38.41 28.31 22.1 28.52 22.08"/><polygon class="cls-2" points="49.13 22.23 49.08 38.53 49.06 38.38 49.11 22.08 49.13 22.23"/><polygon class="cls-21" points="28.31 22.1 28.27 38.41 28.11 38.49 28.16 22.19 28.31 22.1"/><polygon class="cls-32" points="49.54 22.15 49.49 38.45 49.38 38.59 49.42 22.29 49.54 22.15"/><polygon class="cls-2" points="49.2 22.45 49.15 38.75 49.08 38.53 49.13 22.23 49.2 22.45"/><polygon class="cls-52" points="49.6 22.61 49.55 38.91 49.3 38.92 49.35 22.61 49.6 22.61"/><polygon class="cls-2" points="49.35 22.61 49.3 38.92 49.15 38.75 49.2 22.45 49.35 22.61"/><polygon class="cls-66" points="28.16 22.19 28.11 38.49 27.33 39.2 27.37 22.89 28.16 22.19"/><polygon class="cls-25" points="27.37 22.89 27.33 39.2 27.14 39.43 27.18 23.13 27.37 22.89"/><polygon class="cls-64" points="27.18 23.13 27.14 39.43 27.04 39.65 27.09 23.34 27.18 23.13"/><polygon class="cls-2" points="3.19 23.58 3.15 39.88 3.06 39.59 3.1 23.29 3.19 23.58"/><polygon class="cls-2" points="1.51 25.6 1.47 41.9 1.45 41.75 1.5 25.45 1.51 25.6"/><polygon class="cls-2" points="1.82 26.53 1.78 42.84 1.47 41.9 1.51 25.6 1.82 26.53"/><polygon class="cls-2" points="1.98 26.74 1.93 43.04 1.78 42.84 1.82 26.53 1.98 26.74"/><polygon class="cls-36" points="28.82 26.73 28.77 43.03 28.76 43.15 28.8 26.85 28.82 26.73"/><polygon class="cls-17" points="28.8 26.85 28.76 43.15 28.64 43.24 28.68 26.94 28.8 26.85"/><polygon class="cls-50" points="2.38 27.12 2.33 43.43 1.93 43.04 1.98 26.74 2.38 27.12"/><polygon class="cls-67" points="28.68 26.94 28.64 43.24 28.31 43.52 28.36 27.21 28.68 26.94"/><polygon class="cls-78" points="28.36 27.21 28.31 43.52 28.05 43.52 28.1 27.21 28.36 27.21"/><polygon class="cls-79" points="28.1 27.21 28.05 43.52 28.01 43.66 28.06 27.35 28.1 27.21"/><polygon class="cls-80" points="7.23 27.39 7.19 43.69 6.84 43.4 6.89 27.1 7.23 27.39"/><polygon class="cls-68" points="18.97 27.65 18.92 43.95 18.67 43.84 18.72 27.54 18.97 27.65"/><polygon class="cls-2" points="7.39 27.66 7.35 43.97 7.19 43.69 7.23 27.39 7.39 27.66"/><polygon class="cls-22" points="20.54 27.79 20.5 44.1 19.7 44.14 19.75 27.84 20.54 27.79"/><polygon class="cls-2" points="19.08 27.84 19.04 44.15 18.92 43.95 18.97 27.65 19.08 27.84"/><polygon class="cls-2" points="15.07 28.05 15.02 44.35 14.89 44.07 14.94 27.77 15.07 28.05"/><polygon class="cls-6" points="4.86 27.16 4.82 43.47 4.15 44.33 4.2 28.02 4.86 27.16"/><polygon class="cls-69" points="14.94 27.77 14.89 44.07 14.85 44.38 14.9 28.08 14.94 27.77"/><polygon class="cls-26" points="3.44 27.98 3.4 44.28 3.24 44.38 3.28 28.07 3.44 27.98"/><polygon class="cls-21" points="4.2 28.02 4.15 44.33 3.91 44.43 3.95 28.12 4.2 28.02"/><polygon class="cls-81" points="3.95 28.12 3.91 44.43 3.4 44.28 3.44 27.98 3.95 28.12"/><polygon class="cls-2" points="20.64 28.18 20.6 44.48 20.5 44.1 20.54 27.79 20.64 28.18"/><polygon class="cls-38" points="15.48 28.19 15.44 44.49 15.06 44.49 15.1 28.19 15.48 28.19"/><polygon class="cls-2" points="15.1 28.19 15.06 44.49 15.02 44.35 15.07 28.05 15.1 28.19"/><polygon class="cls-2" points="19.15 28.2 19.1 44.51 19.04 44.15 19.08 27.84 19.15 28.2"/><polygon class="cls-65" points="15.81 28.22 15.77 44.52 15.44 44.49 15.48 28.19 15.81 28.22"/><polygon class="cls-2" points="2.97 28.2 2.93 44.51 2.33 43.43 2.38 27.12 2.97 28.2"/><polygon class="cls-2" points="7.57 28.22 7.52 44.52 7.35 43.97 7.39 27.66 7.57 28.22"/><polygon class="cls-82" points="18.88 27.99 18.84 44.29 18.67 44.59 18.72 28.29 18.88 27.99"/><polygon class="cls-33" points="14.9 28.08 14.85 44.38 14.73 44.61 14.78 28.3 14.9 28.08"/><polygon class="cls-2" points="19.28 28.35 19.24 44.66 19.1 44.51 19.15 28.2 19.28 28.35"/><polygon class="cls-38" points="20.17 28.18 20.13 44.49 20.01 44.66 20.06 28.36 20.17 28.18"/><polygon class="cls-18" points="18.72 28.29 18.67 44.59 18.49 44.68 18.54 28.38 18.72 28.29"/><polygon class="cls-55" points="6.42 28.04 6.38 44.34 6.31 44.65 6.35 28.35 6.42 28.04"/><polygon class="cls-83" points="28.77 28.31 28.73 44.61 28.68 44.72 28.73 28.42 28.77 28.31"/><polygon class="cls-33" points="14.37 28.38 14.32 44.69 14.13 44.68 14.17 28.37 14.37 28.38"/><polygon class="cls-2" points="6.64 28.39 6.59 44.69 6.38 44.34 6.42 28.04 6.64 28.39"/><polygon class="cls-25" points="18.54 28.38 18.49 44.68 17.8 44.74 17.85 28.44 18.54 28.38"/><polygon class="cls-44" points="17.85 28.44 17.8 44.74 17.58 44.74 17.62 28.44 17.85 28.44"/><polygon class="cls-2" points="5.45 28.42 5.4 44.72 4.82 43.47 4.86 27.16 5.45 28.42"/><polygon class="cls-69" points="5.49 28.12 5.45 44.43 5.4 44.72 5.45 28.42 5.49 28.12"/><polygon class="cls-7" points="21.12 28.47 21.08 44.77 20.6 44.48 20.64 28.18 21.12 28.47"/><polygon class="cls-35" points="19.51 28.46 19.47 44.77 19.24 44.66 19.28 28.35 19.51 28.46"/><polygon class="cls-84" points="25.5 28.5 25.45 44.8 25.28 44.73 25.33 28.43 25.5 28.5"/><polygon class="cls-18" points="20.06 28.36 20.01 44.66 19.75 44.79 19.79 28.49 20.06 28.36"/><polygon class="cls-16" points="19.79 28.49 19.75 44.79 19.47 44.77 19.51 28.46 19.79 28.49"/><polygon class="cls-13" points="24.13 28.5 24.09 44.8 23.99 44.7 24.03 28.39 24.13 28.5"/><polygon class="cls-50" points="26.38 28.53 26.34 44.83 26.23 44.73 26.27 28.43 26.38 28.53"/><polygon class="cls-23" points="17.19 28.51 17.14 44.81 16.82 44.76 16.87 28.46 17.19 28.51"/><polygon class="cls-27" points="17.62 28.44 17.58 44.74 17.14 44.81 17.19 28.51 17.62 28.44"/><polygon class="cls-2" points="14.4 28.51 14.35 44.81 14.32 44.69 14.37 28.38 14.4 28.51"/><polygon class="cls-2" points="3.01 28.48 2.97 44.79 2.93 44.51 2.97 28.2 3.01 28.48"/><polygon class="cls-85" points="16.87 28.46 16.82 44.76 16.18 44.86 16.23 28.56 16.87 28.46"/><polygon class="cls-39" points="24.03 28.39 23.99 44.7 23.9 44.89 23.95 28.59 24.03 28.39"/><polygon class="cls-52" points="16.23 28.56 16.18 44.86 15.49 44.88 15.54 28.58 16.23 28.56"/><polygon class="cls-2" points="15.54 28.58 15.49 44.88 15.4 44.71 15.45 28.41 15.54 28.58"/><polygon class="cls-2" points="21.19 28.62 21.14 44.92 21.08 44.77 21.12 28.47 21.19 28.62"/><polygon class="cls-61" points="8.12 28.58 8.07 44.88 7.52 44.52 7.57 28.22 8.12 28.58"/><polygon class="cls-86" points="28.73 28.42 28.68 44.72 28.55 44.94 28.6 28.64 28.73 28.42"/><polygon class="cls-33" points="8.26 28.59 8.21 44.89 8.07 44.88 8.12 28.58 8.26 28.59"/><polygon class="cls-2" points="5.86 28.61 5.81 44.92 5.45 44.43 5.49 28.12 5.86 28.61"/><polygon class="cls-21" points="27.27 28.57 27.23 44.88 26.88 45 26.93 28.7 27.27 28.57"/><polygon class="cls-62" points="7.39 28.66 7.35 44.96 6.59 44.69 6.64 28.39 7.39 28.66"/><polygon class="cls-11" points="7.41 28.46 7.36 44.76 7.35 44.96 7.39 28.66 7.41 28.46"/><polygon class="cls-87" points="22.95 28.71 22.9 45.02 22.63 44.82 22.68 28.52 22.95 28.71"/><polygon class="cls-8" points="23.95 28.59 23.9 44.89 23.68 45.04 23.73 28.74 23.95 28.59"/><polygon class="cls-79" points="22.27 28.74 22.22 45.04 22 45 22.05 28.69 22.27 28.74"/><polygon class="cls-66" points="22.72 28.65 22.67 44.95 22.22 45.04 22.27 28.74 22.72 28.65"/><polygon class="cls-31" points="4.09 28.55 4.04 44.86 4.04 45 4.08 28.7 4.09 28.55"/><polygon class="cls-43" points="6.57 28.65 6.53 44.95 6.31 45.01 6.36 28.71 6.57 28.65"/><polygon class="cls-19" points="6.36 28.71 6.31 45.01 5.81 44.92 5.86 28.61 6.36 28.71"/><polygon class="cls-2" points="21.29 28.76 21.25 45.07 21.14 44.92 21.19 28.62 21.29 28.76"/><polygon class="cls-29" points="26.72 28.8 26.67 45.1 26.34 44.83 26.38 28.53 26.72 28.8"/><polygon class="cls-18" points="26.93 28.7 26.88 45 26.67 45.1 26.72 28.8 26.93 28.7"/><polygon class="cls-21" points="22.05 28.69 22 45 21.73 45.09 21.78 28.79 22.05 28.69"/><polygon class="cls-9" points="23.19 28.8 23.15 45.11 22.9 45.02 22.95 28.71 23.19 28.8"/><polygon class="cls-88" points="23.42 28.83 23.38 45.13 23.15 45.11 23.19 28.8 23.42 28.83"/><polygon class="cls-43" points="23.73 28.74 23.68 45.04 23.38 45.13 23.42 28.83 23.73 28.74"/><polygon class="cls-19" points="28.6 28.64 28.55 44.94 28.49 45.14 28.54 28.84 28.6 28.64"/><polygon class="cls-15" points="9.47 28.82 9.42 45.13 9.3 45.02 9.35 28.72 9.47 28.82"/><polygon class="cls-84" points="25.96 28.87 25.92 45.18 25.32 44.92 25.37 28.61 25.96 28.87"/><polygon class="cls-59" points="9.35 28.72 9.3 45.02 8.1 45.13 8.15 28.83 9.35 28.72"/><polygon class="cls-89" points="4.08 28.7 4.04 45 4 45.12 4.05 28.82 4.08 28.7"/><polygon class="cls-90" points="25.33 28.43 25.28 44.73 25.23 45.19 25.28 28.89 25.33 28.43"/><polygon class="cls-11" points="14.21 28.74 14.16 45.04 14.15 45.17 14.2 28.87 14.21 28.74"/><polygon class="cls-2" points="14.49 28.88 14.44 45.18 14.31 44.98 14.36 28.67 14.49 28.88"/><polygon class="cls-22" points="15.15 28.57 15.11 44.88 14.85 45.22 14.9 28.91 15.15 28.57"/><polygon class="cls-2" points="21.3 28.93 21.26 45.24 21.25 45.07 21.29 28.76 21.3 28.93"/><polygon class="cls-88" points="21.78 28.79 21.73 45.09 21.67 45.24 21.71 28.94 21.78 28.79"/><polygon class="cls-4" points="14.9 28.91 14.85 45.22 14.63 45.23 14.68 28.92 14.9 28.91"/><polygon class="cls-55" points="14.68 28.92 14.63 45.23 14.44 45.18 14.49 28.88 14.68 28.92"/><polygon class="cls-18" points="28.54 28.84 28.49 45.14 28.21 45.27 28.26 28.97 28.54 28.84"/><polygon class="cls-91" points="9.64 28.92 9.59 45.23 9.42 45.13 9.47 28.82 9.64 28.92"/><polygon class="cls-56" points="25.07 29 25.03 45.3 24.09 44.8 24.13 28.5 25.07 29"/><polygon class="cls-18" points="25.28 28.89 25.23 45.19 25.03 45.3 25.07 29 25.28 28.89"/><polygon class="cls-92" points="14.2 28.87 14.15 45.17 14.05 45.28 14.1 28.98 14.2 28.87"/><polygon class="cls-20" points="28.26 28.97 28.21 45.27 27.8 45.33 27.85 29.02 28.26 28.97"/><polygon class="cls-93" points="14.1 28.98 14.05 45.28 13.15 45.3 13.2 28.99 14.1 28.98"/><polygon class="cls-84" points="9.8 28.99 9.75 45.3 9.59 45.23 9.64 28.92 9.8 28.99"/><polygon class="cls-52" points="13.2 28.99 13.15 45.3 12.39 45.32 12.43 29.01 13.2 28.99"/><polygon class="cls-41" points="26.41 29.06 26.36 45.36 25.92 45.18 25.96 28.87 26.41 29.06"/><polygon class="cls-67" points="26.64 29.01 26.59 45.31 26.36 45.36 26.41 29.06 26.64 29.01"/><polygon class="cls-79" points="10.02 29.04 9.97 45.34 9.75 45.3 9.8 28.99 10.02 29.04"/><polygon class="cls-2" points="3.12 29.05 3.07 45.35 2.97 44.79 3.01 28.48 3.12 29.05"/><polygon class="cls-2" points="26.96 29.14 26.91 45.44 26.83 45.25 26.88 28.95 26.96 29.14"/><polygon class="cls-88" points="21.71 28.94 21.67 45.24 21.57 45.45 21.62 29.15 21.71 28.94"/><polygon class="cls-3" points="11.21 29.12 11.16 45.42 9.97 45.34 10.02 29.04 11.21 29.12"/><polygon class="cls-21" points="27.85 29.02 27.8 45.33 27.53 45.49 27.57 29.19 27.85 29.02"/><polygon class="cls-73" points="21.62 29.15 21.57 45.45 21.44 45.59 21.48 29.29 21.62 29.15"/><polygon class="cls-2" points="21.48 29.29 21.44 45.59 21.26 45.24 21.3 28.93 21.48 29.29"/><polygon class="cls-50" points="11.37 29.28 11.33 45.58 11.16 45.42 11.21 29.12 11.37 29.28"/><polygon class="cls-92" points="27.57 29.19 27.53 45.49 27.33 45.71 27.38 29.41 27.57 29.19"/><polygon class="cls-91" points="11.52 29.36 11.47 45.66 11.33 45.58 11.37 29.28 11.52 29.36"/><polygon class="cls-2" points="3.37 29.35 3.33 45.66 3.07 45.35 3.12 29.05 3.37 29.35"/><polygon class="cls-26" points="4.77 29.24 4.73 45.55 4.27 45.7 4.32 29.4 4.77 29.24"/><polygon class="cls-57" points="3.58 29.4 3.53 45.7 3.33 45.66 3.37 29.35 3.58 29.4"/><polygon class="cls-94" points="4.32 29.4 4.27 45.7 3.8 45.72 3.85 29.42 4.32 29.4"/><polygon class="cls-65" points="3.85 29.42 3.8 45.72 3.53 45.7 3.58 29.4 3.85 29.42"/><polygon class="cls-5" points="11.84 29.45 11.8 45.75 11.47 45.66 11.52 29.36 11.84 29.45"/><polygon class="cls-43" points="12.43 29.01 12.39 45.32 11.8 45.75 11.84 29.45 12.43 29.01"/><polygon class="cls-2" points="27.34 29.56 27.29 45.87 26.91 45.44 26.96 29.14 27.34 29.56"/><polygon class="cls-19" points="27.38 29.41 27.33 45.71 27.29 45.87 27.34 29.56 27.38 29.41"/><polygon class="cls-95" points="69.09 10.47 68.75 10.71 68.54 10.8 68.29 10.84 67.67 10.72 67.33 10.69 67.21 10.79 66 11.39 65.37 11.65 65.23 11.82 65.11 11.91 64.83 12.02 64.68 12.41 65.27 12.65 65.56 12.92 65.9 13.24 66.87 13.17 67.71 12.91 68.03 12.56 68.43 12.84 68.87 12.9 69.1 12.9 69.33 12.94 68.81 13.31 68.93 13.48 69.12 13.68 69.3 14.16 69.55 14.32 69.94 14.32 70.37 14.73 70.46 15.07 70.6 15.44 70.89 15.84 70.55 15.92 70.09 15.96 69.81 16.05 69.65 16.23 69.2 16.3 69.12 16.44 69.1 16.78 68.78 16.82 68.4 16.85 68.13 16.84 67.9 16.76 67.69 16.59 66.86 17.02 66.94 17.13 66.98 17.36 67.07 17.46 67.28 17.61 67.71 17.82 67.86 18.01 67.88 18.15 67.81 18.32 67.92 18.91 68.54 19.31 68.33 19.61 67.93 19.62 67.91 19.75 67.74 19.99 67.15 20.48 66.85 20.48 66.43 20.52 66.07 20.55 65.56 20.36 65.33 20.34 65.05 20.55 64.2 21.02 63.71 20.96 63.75 21.07 63.74 21.29 63.48 20.82 63.41 20.6 63.32 20.48 63.17 20.3 63 20.1 62.63 19.85 62.39 19.73 62.22 19.55 62.12 19.41 61.74 19.39 61.16 19.33 60.74 19.26 60.39 19.13 60.13 18.96 59.93 18.74 59.3 18.6 58.64 18.35 58.17 18.36 57.81 18.28 57.66 18.14 56.8 17.67 56.33 17.79 56.13 17.76 55.33 17.76 54.97 17.8 54.97 18.07 54.87 18.14 54.18 17.91 53.92 18.32 53.13 19.16 53.02 19.41 52.91 19.5 52.42 19.28 51.65 19.44 51.46 19.85 51.16 20.02 50.57 20.27 50.35 20.43 50.45 21.05 50.46 21.6 50.39 21.83 49.91 21.99 49.54 22.15 49.42 22.29 49.43 22.45 49.6 22.61 49.35 22.61 49.2 22.45 49.13 22.23 49.11 22.08 49.04 21.93 48.56 21.54 48.4 21.16 48.31 20.98 48.28 20.84 48.29 20.7 48.41 20.61 48.55 20.51 48.58 20.4 48.54 20.26 48.45 20.15 47.79 20.1 46.88 20.05 46.35 19.91 45.77 19.6 45.57 19.45 45.27 19.16 44.81 19.18 44.52 19.32 44.26 19.48 43.95 19.58 43.65 19.47 43.44 19.26 43.34 19.07 42.4 18.46 41.8 18.49 40.91 18.57 40.46 18.39 39.85 18.26 39.36 18.27 39.02 18.19 38.25 18.13 37.79 18.04 37.26 18 36.73 18.01 35.92 18.12 35.26 17.9 35.06 17.84 34.54 17.98 34.35 18.07 32.96 18.89 30.15 20.54 30.53 20.79 29.58 21.73 29.42 21.88 28.74 22.07 28.52 22.08 28.31 22.1 28.16 22.19 27.37 22.89 27.18 23.13 27.09 23.34 27.68 23.83 27.78 24.24 27.87 24.49 28.15 24.68 28.21 25.05 28.76 25.79 28.82 26.73 28.8 26.85 28.68 26.94 28.36 27.21 28.1 27.21 28.06 27.35 28.16 27.53 28.32 27.66 28.62 27.7 28.75 28.19 28.77 28.31 28.73 28.42 28.6 28.64 28.54 28.84 28.26 28.97 27.85 29.02 27.57 29.19 27.38 29.41 27.34 29.56 26.96 29.14 26.88 28.95 27.27 28.57 26.93 28.7 26.72 28.8 26.38 28.53 26.27 28.43 26.28 28.6 26.38 28.73 26.52 28.86 26.64 29.01 26.41 29.06 25.96 28.87 25.37 28.61 25.5 28.5 25.33 28.43 25.28 28.89 25.07 29 24.13 28.5 24.03 28.39 23.95 28.59 23.73 28.74 23.42 28.83 23.19 28.8 22.95 28.71 22.68 28.52 22.72 28.65 22.27 28.74 22.05 28.69 21.78 28.79 21.71 28.94 21.62 29.15 21.48 29.29 21.3 28.93 21.29 28.76 21.19 28.62 21.12 28.47 20.64 28.18 20.54 27.79 19.75 27.84 19.88 27.96 20.1 28.06 20.17 28.18 20.06 28.36 19.79 28.49 19.51 28.46 19.28 28.35 19.15 28.2 19.08 27.84 18.97 27.65 18.72 27.54 18.88 27.99 18.72 28.29 18.54 28.38 17.85 28.44 17.62 28.44 17.19 28.51 16.87 28.46 16.23 28.56 15.54 28.58 15.45 28.41 15.52 28.25 15.81 28.22 15.48 28.19 15.1 28.19 15.07 28.05 14.94 27.77 14.9 28.08 14.78 28.3 15.15 28.57 14.9 28.91 14.68 28.92 14.49 28.88 14.36 28.67 14.4 28.51 14.37 28.38 14.17 28.37 14.21 28.74 14.2 28.87 14.1 28.98 13.2 28.99 12.43 29.01 11.84 29.45 11.52 29.36 11.37 29.28 11.21 29.12 10.02 29.04 9.8 28.99 9.64 28.92 9.47 28.82 9.35 28.72 8.15 28.83 8.26 28.59 8.12 28.58 7.57 28.22 7.39 27.66 7.23 27.39 6.89 27.1 7.05 27.45 7.09 27.75 7.17 27.91 7.31 28.08 7.37 28.21 7.41 28.46 7.39 28.66 6.64 28.39 6.42 28.04 6.35 28.35 6.39 28.46 6.57 28.65 6.36 28.71 5.86 28.61 5.49 28.12 5.45 28.42 4.86 27.16 4.2 28.02 3.95 28.12 3.44 27.98 3.28 28.07 3.51 28.07 3.55 28.33 3.73 28.39 4.09 28.55 4.08 28.7 4.05 28.82 4.33 29.09 4.77 29.24 4.32 29.4 3.85 29.42 3.58 29.4 3.37 29.35 3.12 29.05 3.01 28.48 2.97 28.2 2.38 27.12 1.98 26.74 1.82 26.53 1.51 25.6 1.5 25.45 1.57 25.31 1.81 25.13 2.42 24.84 2.65 24.66 2.91 24.13 3.19 23.58 3.1 23.29 3.81 22.83 3.95 22.73 4.72 22.43 5.15 22.23 5.35 21.87 5.58 21.77 5.71 21.46 5.52 21.32 5.76 21.26 6.43 21.09 6.53 20.96 6.25 20.59 5.22 20.12 4.96 19.95 4.75 19.75 4.06 19.8 3.47 19.84 2.99 19.86 2.61 19.88 2.41 19.91 2.23 19.96 2.04 20.05 1.77 19.92 1.7 19.69 1.91 19.34 1.94 19.18 1.99 19.06 2.13 18.93 2.34 19.02 2.78 18.76 2.91 18.6 2.84 18.44 2.69 18.32 2.61 18.21 2.32 18.06 2.04 17.74 1.6 17.57 0.84 17.52 0.6 17.45 0.44 17.37 0.05 17.08 2.26 15.88 2.64 15.76 3.07 15.49 4.28 14.92 5.07 14.87 5.29 15.14 6.13 14.62 6.37 14.48 6.76 14.41 7.06 14.4 7.63 14.34 8.13 14.27 8.53 14.01 8.68 13.94 8.87 13.9 9.06 13.89 9.45 13.9 9.88 13.67 9.97 13.56 10.35 13.36 10.73 13.26 10.94 13.23 11.42 13.3 12.4 12.45 12.51 12.22 12.54 11.98 12.75 11.78 13.28 11.62 13.44 11.55 13.62 11.26 14.31 11.01 14.48 10.94 15.04 10.64 15.25 10.47 15.57 10.07 15.79 9.88 16.32 9.52 16.56 9.4 17.16 9.24 17.34 9.14 17.2 9.39 17.28 9.58 17.59 9.72 17.75 9.8 17.89 10.03 17.9 10.25 17.99 10.43 18.39 10.52 18.63 10.51 19.21 10.38 19.43 10.37 20.05 10.42 20.26 10.41 20.48 10.38 20.68 10.35 20.86 10.3 21.1 10.05 21.28 9.79 21.23 9.67 21.07 9.54 21.12 9.28 21.17 9.02 20.95 8.7 21.16 8.49 21.36 8.27 21.69 8.12 21.89 8.1 22.57 8.19 22.85 8.16 23.07 8.11 23.29 8.1 23.52 8.19 23.61 8.34 24.12 8.4 24.91 8.54 25.3 8.54 25.56 8.38 25.57 8.11 25.46 7.75 25.52 7.63 25.4 7.49 25.46 7.29 25.5 7.16 25.14 6.93 25.49 6.62 25.49 6.23 26.02 5.55 26.52 5.45 26.87 5.38 27.18 5.22 28.23 5 28.87 4.86 29.59 4.72 30.92 4.22 30.91 4.03 30.88 3.91 30.67 3.77 30.5 3.49 30.57 3.29 31.07 2.71 31.08 2.57 31.25 2.23 31.82 1.96 31.82 1.78 31.58 1.63 30.61 1.37 30.38 1.38 30.17 1.36 30.04 1.22 30.27 0.99 31.38 0.39 31.75 0.29 32.95 0.06 33.29 0 33.54 0 33.77 0.05 33.93 0.13 34.02 0.25 34.06 0.38 34.14 0.51 34.3 0.61 34.94 0.55 35.3 0.54 35.5 0.6 35.64 0.69 35.81 0.9 35.93 1 36.31 1.05 36.46 0.97 36.59 0.87 36.76 0.8 36.99 0.8 37.41 1 39.2 2.29 39.93 2.01 40.84 2.04 41.17 2.14 41.38 2.17 42.08 2.07 42.27 1.97 42.3 1.8 42.6 1.89 43.19 1.84 43.72 1.68 44.01 1.62 44.28 1.6 44.12 1.81 44.76 1.89 44.13 2.34 44.19 2.53 44.19 2.85 44.2 3.01 44.41 3.17 44.57 3.75 44.58 4.11 45.77 3.74 45.54 3.33 45.96 3.13 46.36 2.85 46.65 2.76 46.92 2.75 47.18 2.79 47.37 2.85 48.08 3.25 48.45 3.74 48.57 3.83 48.82 3.76 50.4 4.53 50.65 4.59 51.13 4.63 51.61 4.71 51.79 4.68 51.94 4.6 52.06 4.49 52.66 4.49 53 4.5 53.2 4.42 53.58 4.22 53.79 4.19 54.03 4.21 54.27 4.27 54.46 4.34 54.65 4.43 54.77 4.54 54.95 4.81 55.16 5.28 55.09 5.42 54.88 5.68 54.87 5.82 54.92 6 55.02 6.14 55.21 6.37 56.19 6.55 57.7 7.7 57.9 7.82 58.07 7.9 59.31 8.07 59.54 8.08 59.89 7.98 60.04 7.9 60.23 7.71 60.34 7.49 60.45 7.39 60.72 7.23 61.18 7.66 61.31 7.76 61.66 8.23 61.91 8.37 62.38 8.25 62.81 8.16 63.22 8.14 63.65 8.07 63.67 8.3 63.14 8.98 63.15 9.1 63.25 9.23 63.37 9.34 63.67 9.55 64.14 9.95 64.4 10.03 64.8 9.91 64.96 9.84 65.48 9.67 66.09 9.58 66.64 9.66 67.09 9.63 67.59 9.84 67.75 9.92 68.11 10.03 68.34 10.22 68.48 10.32 68.67 10.38 69.09 10.47"/></g></g></g></svg>