<svg xmlns="http://www.w3.org/2000/svg" viewBox="0 0 24.09 32.17"><defs><style>.cls-1{isolation:isolate;}.cls-2{fill:#972525;}.cls-3{fill:#a62929;}.cls-4{fill:#a82929;}.cls-5{fill:#481212;}.cls-6{fill:#9f2727;}.cls-7{fill:#862121;}.cls-8{fill:#6d1b1b;}.cls-9{fill:#8c2222;}.cls-10{fill:#731c1c;}.cls-11{fill:#932424;}.cls-12{fill:#9a2626;}.cls-13{fill:#a22828;}.cls-14{fill:#621818;}.cls-15{fill:#9e2727;}.cls-16{fill:#4a1212;}.cls-17{fill:#842020;}.cls-18{fill:#a92929;}.cls-19{fill:#852121;}.cls-20{fill:#a72929;}.cls-21{fill:#a12727;}.cls-22{fill:#741c1c;}.cls-23{fill:#812020;}.cls-24{fill:#a12828;}.cls-25{fill:#9c2626;}.cls-26{fill:#962525;}.cls-27{fill:#992525;}.cls-28{fill:#a52828;}.cls-29{fill:#872121;}.cls-30{fill:#751d1d;}.cls-31{fill:#a32828;}.cls-32{fill:#8a2222;}.cls-33{fill:#952525;}.cls-34{fill:#721c1c;}.cls-35{fill:#7c1e1e;}.cls-36{fill:#922424;}.cls-37{fill:#701b1b;}.cls-38{fill:#8b2222;}.cls-39{fill:#7a1e1e;}.cls-40{fill:#9d2626;}.cls-41{fill:#892222;}.cls-42{fill:#761d1d;}.cls-43{fill:#992626;}.cls-44{fill:#491212;}.cls-45{fill:#6c1b1b;}.cls-46{fill:#4b1212;}.cls-47{fill:#7b1e1e;}.cls-48{fill:#8e2323;}.cls-49{fill:#9d2727;}.cls-50{fill:#681919;}.cls-51{fill:#7f1f1f;}.cls-52{fill:#6a1a1a;}.cls-53{fill:#4f1313;}.cls-54{fill:#741d1d;}.cls-55{fill:#8f2323;}.cls-56{fill:#a02727;}.cls-57{fill:#601717;}.cls-58{fill:#551515;}.cls-59{fill:#6b1a1a;}.cls-60{fill:#982525;}.cls-61{fill:#7d1f1f;}.cls-62{fill:#711c1c;}.cls-63{fill:#691a1a;}.cls-64{fill:#a42828;}.cls-65{fill:#4e1313;}.cls-66{fill:#631818;}.cls-67{fill:#6f1b1b;}.cls-68{fill:#501414;}.cls-69{fill:#9b2626;}.cls-70{fill:#671919;}.cls-71{fill:#952424;}.cls-72{fill:#4d1313;}.cls-73{fill:#661919;}.cls-74{fill:#591616;}.cls-75{fill:#832020;}.cls-76{fill:#6e1b1b;}.cls-77{fill:#a52929;}.cls-78{fill:#6c1a1a;}.cls-79{fill:#801f1f;}.cls-80{fill:#681a1a;}.cls-81{fill:#7e1f1f;}.cls-82{fill:#651919;}.cls-83{fill:#771d1d;}.cls-84{fill:#942424;}.cls-85{fill:#882121;}.cls-86{fill:#4c1313;}.cls-87{fill:#581616;}.cls-88{fill:#902323;}.cls-89{fill:#5d1717;}.cls-90{fill:#701c1c;}.cls-91{fill:#c83131;}.cls-92{fill:#781d1d;}.cls-93{fill:#541515;}.cls-94{fill:#5b1616;}.cls-95{fill:#601818;}.cls-96{fill:#611818;}.cls-97{fill:#5f1717;}.cls-98{fill:#791e1e;}.cls-99{fill:#912424;}.cls-100{fill:#5a1616;}.cls-101{fill:#511414;}</style></defs><title>Guinea-Bissau</title><g id="Layer_2" data-name="Layer 2"><g id="Layer_1-2" data-name="Layer 1"><g class="cls-1"><polygon class="cls-2" points="20.44 1.53 20.4 17.83 20.27 17.98 20.32 1.68 20.44 1.53"/><polygon class="cls-3" points="19.81 1.81 19.76 18.11 19.62 18.15 19.67 1.85 19.81 1.81"/><polygon class="cls-4" points="20.32 1.68 20.27 17.98 19.83 18.25 19.88 1.94 20.32 1.68"/><polygon class="cls-5" points="19.88 1.94 19.83 18.25 19.76 18.11 19.81 1.81 19.88 1.94"/><polygon class="cls-6" points="19.67 1.85 19.62 18.15 19.48 18.29 19.53 1.98 19.67 1.85"/><polygon class="cls-7" points="19.53 1.98 19.48 18.29 19.43 18.4 19.47 2.1 19.53 1.98"/><polygon class="cls-8" points="19.47 2.1 19.43 18.4 19.4 18.57 19.45 2.27 19.47 2.1"/><polygon class="cls-9" points="19.45 2.27 19.4 18.57 19.19 18.91 19.24 2.61 19.45 2.27"/><polygon class="cls-10" points="24.09 3.77 24.04 20.07 24.02 20.18 24.06 3.88 24.09 3.77"/><polygon class="cls-11" points="24.06 3.88 24.02 20.18 23.92 20.31 23.97 4.01 24.06 3.88"/><polygon class="cls-12" points="23.13 4.11 23.08 20.42 22.99 20.43 23.03 4.13 23.13 4.11"/><polygon class="cls-13" points="23.97 4.01 23.92 20.31 23.78 20.43 23.83 4.13 23.97 4.01"/><polygon class="cls-2" points="23.55 4.15 23.5 20.45 23.34 20.47 23.39 4.17 23.55 4.15"/><polygon class="cls-14" points="23.3 4.18 23.25 20.48 23.08 20.42 23.13 4.11 23.3 4.18"/><polygon class="cls-15" points="23.39 4.17 23.34 20.47 23.25 20.48 23.3 4.18 23.39 4.17"/><polygon class="cls-4" points="23.03 4.13 22.99 20.43 22.89 20.48 22.94 4.18 23.03 4.13"/><polygon class="cls-16" points="23.59 4.19 23.54 20.49 23.5 20.45 23.55 4.15 23.59 4.19"/><polygon class="cls-17" points="23.68 4.2 23.63 20.5 23.54 20.49 23.59 4.19 23.68 4.2"/><polygon class="cls-18" points="23.83 4.13 23.78 20.43 23.63 20.5 23.68 4.2 23.83 4.13"/><polygon class="cls-19" points="23.29 4.51 23.25 20.81 23.2 20.91 23.24 4.61 23.29 4.51"/><polygon class="cls-20" points="23.24 4.61 23.2 20.91 23.07 21 23.11 4.69 23.24 4.61"/><polygon class="cls-21" points="23.11 4.69 23.07 21 22.85 21.04 22.9 4.74 23.11 4.69"/><polygon class="cls-22" points="22.9 4.74 22.85 21.04 22.84 21.09 22.89 4.79 22.9 4.74"/><polygon class="cls-23" points="22.89 4.79 22.84 21.09 22.73 21.36 22.77 5.05 22.89 4.79"/><polygon class="cls-2" points="22.77 5.05 22.73 21.36 22.64 21.46 22.69 5.15 22.77 5.05"/><polygon class="cls-18" points="22.69 5.15 22.64 21.46 22.31 21.6 22.36 5.29 22.69 5.15"/><polygon class="cls-4" points="22.36 5.29 22.31 21.6 22.21 21.66 22.25 5.36 22.36 5.29"/><polygon class="cls-24" points="22.25 5.36 22.21 21.66 22.05 21.8 22.09 5.49 22.25 5.36"/><polygon class="cls-4" points="22.09 5.49 22.05 21.8 21.96 21.85 22 5.54 22.09 5.49"/><polygon class="cls-4" points="22 5.54 21.96 21.85 21.82 21.89 21.87 5.59 22 5.54"/><polygon class="cls-25" points="21.87 5.59 21.82 21.89 21.72 21.91 21.77 5.61 21.87 5.59"/><polygon class="cls-26" points="21.77 5.61 21.72 21.91 21.62 21.92 21.67 5.61 21.77 5.61"/><polygon class="cls-27" points="21.67 5.61 21.62 21.92 21.51 21.93 21.56 5.63 21.67 5.61"/><polygon class="cls-4" points="21.56 5.63 21.51 21.93 21.44 21.96 21.48 5.66 21.56 5.63"/><polygon class="cls-28" points="21.48 5.66 21.44 21.96 21.3 22.06 21.35 5.75 21.48 5.66"/><polygon class="cls-18" points="21.35 5.75 21.3 22.06 20.72 22.36 20.77 6.06 21.35 5.75"/><polygon class="cls-3" points="20.77 6.06 20.72 22.36 20.59 22.45 20.63 6.15 20.77 6.06"/><polygon class="cls-10" points="20.75 6.41 20.7 22.72 20.68 22.8 20.73 6.5 20.75 6.41"/><polygon class="cls-29" points="20.73 6.5 20.68 22.8 20.4 23.36 20.45 7.05 20.73 6.5"/><polygon class="cls-19" points="20.45 7.05 20.4 23.36 20.14 23.89 20.19 7.58 20.45 7.05"/><polygon class="cls-25" points="13.92 7.64 13.88 23.94 13.69 23.97 13.74 7.66 13.92 7.64"/><polygon class="cls-30" points="14.06 7.67 14.02 23.97 13.88 23.94 13.92 7.64 14.06 7.67"/><polygon class="cls-18" points="13.74 7.66 13.69 23.97 13.61 24.01 13.65 7.7 13.74 7.66"/><polygon class="cls-31" points="20.19 7.58 20.14 23.89 19.92 24.07 19.96 7.77 20.19 7.58"/><polygon class="cls-32" points="13.65 7.7 13.61 24.01 13.58 24.06 13.62 7.76 13.65 7.7"/><polygon class="cls-20" points="13.62 7.76 13.58 24.06 13.33 24.15 13.38 7.84 13.62 7.76"/><polygon class="cls-20" points="13.38 7.84 13.33 24.15 13.23 24.18 13.28 7.88 13.38 7.84"/><polygon class="cls-25" points="13.28 7.88 13.23 24.18 13.17 24.25 13.22 7.94 13.28 7.88"/><polygon class="cls-18" points="19.96 7.77 19.92 24.07 19.3 24.35 19.35 8.05 19.96 7.77"/><polygon class="cls-5" points="14.15 8.09 14.11 24.39 13.9 24.13 13.95 7.83 14.15 8.09"/><polygon class="cls-23" points="13.22 7.94 13.17 24.25 13.09 24.44 13.14 8.14 13.22 7.94"/><polygon class="cls-5" points="14.19 8.16 14.15 24.46 14.11 24.39 14.15 8.09 14.19 8.16"/><polygon class="cls-28" points="19.35 8.05 19.3 24.35 19.06 24.53 19.11 8.23 19.35 8.05"/><polygon class="cls-15" points="13.14 8.14 13.09 24.44 13.01 24.52 13.06 8.21 13.14 8.14"/><polygon class="cls-5" points="15.82 8.24 15.78 24.55 15.73 24.44 15.78 8.13 15.82 8.24"/><polygon class="cls-11" points="15.2 8.24 15.15 24.55 14.99 24.55 15.03 8.25 15.2 8.24"/><polygon class="cls-33" points="15.78 8.13 15.73 24.44 15.62 24.57 15.67 8.27 15.78 8.13"/><polygon class="cls-34" points="13.06 8.21 13.01 24.52 13 24.57 13.05 8.27 13.06 8.21"/><polygon class="cls-35" points="15.44 8.28 15.39 24.58 15.15 24.55 15.2 8.24 15.44 8.28"/><polygon class="cls-36" points="15.67 8.27 15.62 24.57 15.39 24.58 15.44 8.28 15.67 8.27"/><polygon class="cls-5" points="13.53 8.32 13.48 24.62 13.46 24.51 13.51 8.21 13.53 8.32"/><polygon class="cls-5" points="14.21 8.34 14.16 24.64 14.14 24.56 14.19 8.25 14.21 8.34"/><polygon class="cls-18" points="15.03 8.25 14.99 24.55 14.76 24.65 14.81 8.35 15.03 8.25"/><polygon class="cls-19" points="19.11 8.23 19.06 24.53 18.99 24.68 19.04 8.37 19.11 8.23"/><polygon class="cls-37" points="14.32 8.37 14.27 24.67 14.16 24.64 14.21 8.34 14.32 8.37"/><polygon class="cls-28" points="14.81 8.35 14.76 24.65 14.69 24.68 14.73 8.37 14.81 8.35"/><polygon class="cls-38" points="14.44 8.37 14.39 24.68 14.27 24.67 14.32 8.37 14.44 8.37"/><polygon class="cls-39" points="14.53 8.39 14.48 24.69 14.39 24.68 14.44 8.37 14.53 8.39"/><polygon class="cls-40" points="14.73 8.37 14.69 24.68 14.57 24.69 14.61 8.39 14.73 8.37"/><polygon class="cls-41" points="14.61 8.39 14.57 24.69 14.48 24.69 14.53 8.39 14.61 8.39"/><polygon class="cls-42" points="13.07 8.5 13.02 24.81 13 24.9 13.04 8.6 13.07 8.5"/><polygon class="cls-31" points="13.04 8.6 13 24.9 12.87 25.01 12.92 8.7 13.04 8.6"/><polygon class="cls-4" points="12.92 8.7 12.87 25.01 12.72 25.06 12.77 8.76 12.92 8.7"/><polygon class="cls-28" points="12.77 8.76 12.72 25.06 12.37 25.16 12.41 8.86 12.77 8.76"/><polygon class="cls-18" points="12.41 8.86 12.37 25.16 12.06 25.29 12.11 8.99 12.41 8.86"/><polygon class="cls-24" points="12.11 8.99 12.06 25.29 11.94 25.32 11.99 9.01 12.11 8.99"/><polygon class="cls-11" points="11.99 9.01 11.94 25.32 11.76 25.32 11.81 9.02 11.99 9.01"/><polygon class="cls-43" points="11.81 9.02 11.76 25.32 11.56 25.35 11.61 9.04 11.81 9.02"/><polygon class="cls-4" points="11.61 9.04 11.56 25.35 11.38 25.42 11.42 9.11 11.61 9.04"/><polygon class="cls-12" points="16.3 9.06 16.26 25.37 16.2 25.43 16.25 9.13 16.3 9.06"/><polygon class="cls-44" points="16.37 9.13 16.32 25.43 16.26 25.37 16.3 9.06 16.37 9.13"/><polygon class="cls-20" points="15.71 9.14 15.67 25.45 15.57 25.48 15.62 9.18 15.71 9.14"/><polygon class="cls-5" points="16.4 9.19 16.35 25.49 16.32 25.43 16.37 9.13 16.4 9.19"/><polygon class="cls-23" points="16.25 9.13 16.2 25.43 16.18 25.49 16.22 9.19 16.25 9.13"/><polygon class="cls-20" points="11.42 9.11 11.38 25.42 11.23 25.51 11.28 9.21 11.42 9.11"/><polygon class="cls-45" points="15.3 9.22 15.25 25.52 15.07 25.47 15.12 9.17 15.3 9.22"/><polygon class="cls-46" points="15.81 9.23 15.76 25.53 15.67 25.45 15.71 9.14 15.81 9.23"/><polygon class="cls-47" points="15.62 9.18 15.57 25.48 15.55 25.53 15.6 9.23 15.62 9.18"/><polygon class="cls-11" points="16.22 9.19 16.18 25.49 16.14 25.54 16.18 9.24 16.22 9.19"/><polygon class="cls-46" points="14.94 9.25 14.89 25.56 14.79 25.47 14.83 9.16 14.94 9.25"/><polygon class="cls-19" points="14.84 9.23 14.79 25.54 14.77 25.59 14.82 9.29 14.84 9.23"/><polygon class="cls-48" points="14.26 9.29 14.21 25.59 14.1 25.59 14.14 9.29 14.26 9.29"/><polygon class="cls-18" points="14.82 9.29 14.77 25.59 14.7 25.62 14.75 9.32 14.82 9.29"/><polygon class="cls-49" points="14.14 9.29 14.1 25.59 13.88 25.62 13.93 9.32 14.14 9.29"/><polygon class="cls-49" points="11.28 9.21 11.23 25.51 11.12 25.61 11.17 9.31 11.28 9.21"/><polygon class="cls-2" points="14.75 9.32 14.7 25.62 14.61 25.63 14.66 9.33 14.75 9.32"/><polygon class="cls-50" points="14.38 9.33 14.33 25.63 14.21 25.59 14.26 9.29 14.38 9.33"/><polygon class="cls-9" points="15.71 9.36 15.67 25.66 15.47 25.66 15.52 9.35 15.71 9.36"/><polygon class="cls-15" points="15.52 9.35 15.47 25.66 15.38 25.67 15.43 9.37 15.52 9.35"/><polygon class="cls-5" points="15.83 9.37 15.78 25.67 15.76 25.53 15.81 9.23 15.83 9.37"/><polygon class="cls-51" points="11.17 9.31 11.12 25.61 11.1 25.66 11.15 9.36 11.17 9.31"/><polygon class="cls-3" points="16.18 9.24 16.14 25.54 15.94 25.68 15.98 9.38 16.18 9.24"/><polygon class="cls-50" points="15.92 9.4 15.87 25.7 15.78 25.67 15.83 9.37 15.92 9.4"/><polygon class="cls-20" points="15.98 9.38 15.94 25.68 15.87 25.7 15.92 9.4 15.98 9.38"/><polygon class="cls-4" points="15.43 9.37 15.38 25.67 15.3 25.71 15.35 9.41 15.43 9.37"/><polygon class="cls-5" points="15.35 9.41 15.3 25.71 15.25 25.52 15.3 9.22 15.35 9.41"/><polygon class="cls-15" points="15.21 9.38 15.16 25.68 15.11 25.74 15.15 9.44 15.21 9.38"/><polygon class="cls-15" points="15.15 9.44 15.11 25.74 14.95 25.77 14.99 9.46 15.15 9.44"/><polygon class="cls-5" points="14.19 9.46 14.15 25.77 14.12 25.7 14.16 9.4 14.19 9.46"/><polygon class="cls-52" points="11.15 9.36 11.1 25.66 11.09 25.78 11.14 9.48 11.15 9.36"/><polygon class="cls-53" points="14.25 9.5 14.2 25.81 14.15 25.77 14.19 9.46 14.25 9.5"/><polygon class="cls-23" points="14.67 9.39 14.62 25.7 14.57 25.81 14.62 9.51 14.67 9.39"/><polygon class="cls-18" points="14.99 9.46 14.95 25.77 14.85 25.82 14.89 9.51 14.99 9.46"/><polygon class="cls-5" points="14.89 9.51 14.85 25.82 14.81 25.71 14.86 9.41 14.89 9.51"/><polygon class="cls-22" points="14.33 9.52 14.29 25.82 14.2 25.81 14.25 9.5 14.33 9.52"/><polygon class="cls-26" points="14.44 9.51 14.39 25.82 14.29 25.82 14.33 9.52 14.44 9.51"/><polygon class="cls-54" points="15.57 9.54 15.53 25.84 15.43 25.82 15.47 9.52 15.57 9.54"/><polygon class="cls-23" points="13.66 9.54 13.61 25.84 13.59 25.9 13.63 9.6 13.66 9.54"/><polygon class="cls-4" points="11.14 9.48 11.09 25.78 10.91 25.89 10.96 9.59 11.14 9.48"/><polygon class="cls-51" points="14.73 9.55 14.69 25.86 14.67 25.91 14.72 9.6 14.73 9.55"/><polygon class="cls-10" points="14.61 9.62 14.57 25.92 14.44 25.89 14.49 9.59 14.61 9.62"/><polygon class="cls-25" points="14.72 9.6 14.67 25.91 14.57 25.92 14.61 9.62 14.72 9.6"/><polygon class="cls-24" points="15.9 9.46 15.85 25.77 15.64 25.95 15.69 9.64 15.9 9.46"/><polygon class="cls-3" points="10.96 9.59 10.91 25.89 10.85 25.93 10.9 9.63 10.96 9.59"/><polygon class="cls-16" points="13.81 9.68 13.77 25.98 13.61 25.84 13.66 9.54 13.81 9.68"/><polygon class="cls-55" points="10.9 9.63 10.85 25.93 10.82 25.98 10.87 9.68 10.9 9.63"/><polygon class="cls-4" points="15.69 9.64 15.64 25.95 15.54 26 15.59 9.7 15.69 9.64"/><polygon class="cls-26" points="14.21 9.64 14.17 25.95 14.12 26 14.17 9.7 14.21 9.64"/><polygon class="cls-56" points="14.02 9.7 13.98 26 13.86 26.02 13.91 9.72 14.02 9.7"/><polygon class="cls-57" points="13.91 9.72 13.86 26.02 13.77 25.98 13.81 9.68 13.91 9.72"/><polygon class="cls-5" points="16.03 9.73 15.99 26.04 15.87 25.89 15.92 9.59 16.03 9.73"/><polygon class="cls-44" points="14.44 9.74 14.39 26.05 14.31 25.96 14.35 9.66 14.44 9.74"/><polygon class="cls-12" points="14.53 9.73 14.49 26.04 14.39 26.05 14.44 9.74 14.53 9.73"/><polygon class="cls-5" points="11.6 9.75 11.55 26.05 11.55 25.96 11.6 9.65 11.6 9.75"/><polygon class="cls-5" points="14.84 9.78 14.8 26.08 14.8 26.02 14.84 9.72 14.84 9.78"/><polygon class="cls-5" points="14.05 9.79 14.01 26.1 13.98 26 14.02 9.7 14.05 9.79"/><polygon class="cls-5" points="11.62 9.81 11.58 26.11 11.55 26.05 11.6 9.75 11.62 9.81"/><polygon class="cls-58" points="14.93 9.83 14.88 26.13 14.8 26.08 14.84 9.78 14.93 9.83"/><polygon class="cls-59" points="14.16 9.83 14.12 26.13 14.01 26.1 14.05 9.79 14.16 9.83"/><polygon class="cls-55" points="14.2 9.78 14.15 26.08 14.12 26.13 14.16 9.83 14.2 9.78"/><polygon class="cls-7" points="15.13 9.84 15.09 26.14 14.88 26.13 14.93 9.83 15.13 9.84"/><polygon class="cls-39" points="15.22 9.86 15.17 26.16 15.09 26.14 15.13 9.84 15.22 9.86"/><polygon class="cls-20" points="13.78 9.76 13.73 26.06 13.57 26.16 13.62 9.86 13.78 9.76"/><polygon class="cls-44" points="11.67 9.86 11.62 26.16 11.58 26.11 11.62 9.81 11.67 9.86"/><polygon class="cls-21" points="13.62 9.86 13.57 26.16 13.52 26.2 13.57 9.9 13.62 9.86"/><polygon class="cls-5" points="11.72 9.96 11.67 26.26 11.62 26.16 11.67 9.86 11.72 9.96"/><polygon class="cls-5" points="15.22 9.99 15.17 26.29 15.17 26.16 15.22 9.86 15.22 9.99"/><polygon class="cls-60" points="14.16 9.96 14.12 26.26 14.08 26.31 14.13 10 14.16 9.96"/><polygon class="cls-61" points="14.04 10.03 13.99 26.33 13.89 26.32 13.94 10.01 14.04 10.03"/><polygon class="cls-31" points="14.13 10 14.08 26.31 13.99 26.33 14.04 10.03 14.13 10"/><polygon class="cls-9" points="10.87 9.92 10.82 26.23 10.75 26.34 10.8 10.04 10.87 9.92"/><polygon class="cls-56" points="14.72 10.04 14.67 26.34 14.6 26.36 14.64 10.05 14.72 10.04"/><polygon class="cls-50" points="14.81 10.07 14.76 26.37 14.67 26.34 14.72 10.04 14.81 10.07"/><polygon class="cls-62" points="13.77 10.08 13.72 26.38 13.59 26.35 13.64 10.04 13.77 10.08"/><polygon class="cls-4" points="14.64 10.05 14.6 26.36 14.54 26.39 14.59 10.09 14.64 10.05"/><polygon class="cls-63" points="14.52 10.1 14.47 26.41 14.35 26.37 14.4 10.07 14.52 10.1"/><polygon class="cls-64" points="14.59 10.09 14.54 26.39 14.47 26.41 14.52 10.1 14.59 10.09"/><polygon class="cls-26" points="13.64 10.04 13.59 26.35 13.53 26.42 13.58 10.12 13.64 10.04"/><polygon class="cls-65" points="14.9 10.14 14.86 26.44 14.76 26.37 14.81 10.07 14.9 10.14"/><polygon class="cls-18" points="15 10.1 14.95 26.4 14.86 26.44 14.9 10.14 15 10.1"/><polygon class="cls-66" points="14.08 10.2 14.03 26.5 13.72 26.38 13.77 10.08 14.08 10.2"/><polygon class="cls-4" points="13.71 10.14 13.67 26.44 13.57 26.5 13.62 10.2 13.71 10.14"/><polygon class="cls-36" points="9 10.2 8.95 26.51 8.86 26.51 8.9 10.21 9 10.2"/><polygon class="cls-44" points="9.06 10.27 9.01 26.57 8.95 26.51 9 10.2 9.06 10.27"/><polygon class="cls-5" points="11.71 10.32 11.66 26.63 11.65 26.33 11.7 10.03 11.71 10.32"/><polygon class="cls-67" points="8.9 10.21 8.86 26.51 8.84 26.62 8.88 10.31 8.9 10.21"/><polygon class="cls-11" points="14.63 10.36 14.59 26.66 14.41 26.66 14.45 10.36 14.63 10.36"/><polygon class="cls-18" points="4.32 10.24 4.28 26.54 4.09 26.64 4.14 10.34 4.32 10.24"/><polygon class="cls-5" points="9.11 10.35 9.07 26.65 9.01 26.57 9.06 10.27 9.11 10.35"/><polygon class="cls-17" points="14.81 10.37 14.76 26.67 14.59 26.66 14.63 10.36 14.81 10.37"/><polygon class="cls-23" points="13.77 10.39 13.73 26.7 13.39 26.66 13.44 10.36 13.77 10.39"/><polygon class="cls-5" points="11.73 10.39 11.68 26.7 11.66 26.63 11.71 10.32 11.73 10.39"/><polygon class="cls-9" points="13.96 10.4 13.91 26.7 13.73 26.7 13.77 10.39 13.96 10.4"/><polygon class="cls-43" points="14.13 10.38 14.08 26.68 13.91 26.7 13.96 10.4 14.13 10.38"/><polygon class="cls-61" points="8.88 10.31 8.84 26.62 8.81 26.7 8.85 10.4 8.88 10.31"/><polygon class="cls-58" points="14.9 10.42 14.85 26.72 14.76 26.67 14.81 10.37 14.9 10.42"/><polygon class="cls-34" points="10.87 10.35 10.82 26.65 10.81 26.71 10.86 10.41 10.87 10.35"/><polygon class="cls-44" points="9.18 10.42 9.14 26.72 9.07 26.65 9.11 10.35 9.18 10.42"/><polygon class="cls-68" points="13.12 10.45 13.08 26.76 12.94 26.66 12.98 10.36 13.12 10.45"/><polygon class="cls-55" points="4.14 10.34 4.09 26.64 4.03 26.73 4.07 10.43 4.14 10.34"/><polygon class="cls-60" points="14.45 10.36 14.41 26.66 14.32 26.77 14.36 10.46 14.45 10.36"/><polygon class="cls-18" points="8.85 10.4 8.81 26.7 8.68 26.77 8.73 10.46 8.85 10.4"/><polygon class="cls-32" points="8.73 10.46 8.68 26.77 8.49 26.76 8.54 10.46 8.73 10.46"/><polygon class="cls-69" points="8.54 10.46 8.49 26.76 8.41 26.77 8.45 10.47 8.54 10.46"/><polygon class="cls-28" points="8.45 10.47 8.41 26.77 8.33 26.79 8.38 10.49 8.45 10.47"/><polygon class="cls-5" points="11.82 10.51 11.78 26.81 11.68 26.7 11.73 10.39 11.82 10.51"/><polygon class="cls-25" points="10.86 10.41 10.81 26.71 10.72 26.81 10.76 10.51 10.86 10.41"/><polygon class="cls-5" points="13.18 10.56 13.13 26.86 13.08 26.76 13.12 10.45 13.18 10.56"/><polygon class="cls-70" points="4.07 10.43 4.03 26.73 4.02 26.84 4.07 10.54 4.07 10.43"/><polygon class="cls-71" points="19.02 10.58 18.97 26.88 18.8 26.89 18.84 10.59 19.02 10.58"/><polygon class="cls-4" points="12.47 10.54 12.43 26.84 12.34 26.89 12.39 10.59 12.47 10.54"/><polygon class="cls-72" points="12.54 10.59 12.5 26.89 12.43 26.84 12.47 10.54 12.54 10.59"/><polygon class="cls-3" points="14.04 10.54 13.99 26.85 13.81 26.9 13.86 10.6 14.04 10.54"/><polygon class="cls-73" points="12.98 10.36 12.94 26.66 12.93 26.91 12.97 10.6 12.98 10.36"/><polygon class="cls-74" points="19.14 10.64 19.09 26.95 18.97 26.88 19.02 10.58 19.14 10.64"/><polygon class="cls-44" points="14.43 10.63 14.38 26.94 14.32 26.87 14.37 10.57 14.43 10.63"/><polygon class="cls-32" points="12.39 10.59 12.34 26.89 12.31 26.93 12.36 10.63 12.39 10.59"/><polygon class="cls-5" points="4.17 10.62 4.12 26.92 4.08 26.81 4.13 10.51 4.17 10.62"/><polygon class="cls-5" points="13.22 10.66 13.17 26.97 13.13 26.86 13.18 10.56 13.22 10.66"/><polygon class="cls-58" points="12.69 10.67 12.64 26.98 12.5 26.89 12.54 10.59 12.69 10.67"/><polygon class="cls-5" points="14.46 10.68 14.41 26.98 14.38 26.94 14.43 10.63 14.46 10.68"/><polygon class="cls-58" points="13.74 10.69 13.7 26.99 13.58 26.92 13.63 10.62 13.74 10.69"/><polygon class="cls-5" points="11.89 10.68 11.84 26.99 11.78 26.81 11.82 10.51 11.89 10.68"/><polygon class="cls-75" points="13.86 10.7 13.82 27 13.7 26.99 13.74 10.69 13.86 10.7"/><polygon class="cls-4" points="13.92 10.66 13.87 26.97 13.82 27 13.86 10.7 13.92 10.66"/><polygon class="cls-76" points="13.63 10.62 13.58 26.92 13.57 27 13.62 10.7 13.63 10.62"/><polygon class="cls-77" points="8.38 10.49 8.33 26.79 8.06 26.99 8.1 10.69 8.38 10.49"/><polygon class="cls-32" points="12.97 10.6 12.93 26.91 12.87 27 12.91 10.7 12.97 10.6"/><polygon class="cls-5" points="4.18 10.69 4.14 26.99 4.12 26.92 4.17 10.62 4.18 10.69"/><polygon class="cls-5" points="12.71 10.72 12.66 27.03 12.64 26.98 12.69 10.67 12.71 10.72"/><polygon class="cls-43" points="12.91 10.7 12.87 27 12.66 27.03 12.71 10.72 12.91 10.7"/><polygon class="cls-78" points="12.36 10.68 12.31 26.98 12.31 27.03 12.36 10.72 12.36 10.68"/><polygon class="cls-5" points="19.21 10.74 19.17 27.05 19.09 26.95 19.14 10.64 19.21 10.74"/><polygon class="cls-57" points="14.6 10.74 14.55 27.04 14.41 26.98 14.46 10.68 14.6 10.74"/><polygon class="cls-20" points="8.1 10.69 8.06 26.99 7.94 27.03 7.99 10.72 8.1 10.69"/><polygon class="cls-39" points="7.99 10.72 7.94 27.03 7.82 27 7.86 10.7 7.99 10.72"/><polygon class="cls-44" points="13.29 10.74 13.24 27.05 13.17 26.97 13.22 10.66 13.29 10.74"/><polygon class="cls-58" points="12 10.74 11.95 27.05 11.84 26.99 11.89 10.68 12 10.74"/><polygon class="cls-79" points="10.76 10.51 10.72 26.81 10.6 27.09 10.65 10.78 10.76 10.51"/><polygon class="cls-80" points="12.14 10.79 12.1 27.1 11.95 27.05 12 10.74 12.14 10.79"/><polygon class="cls-47" points="4.1 10.66 4.05 26.96 4.01 27.09 4.06 10.79 4.1 10.66"/><polygon class="cls-5" points="19.29 10.84 19.25 27.14 19.17 27.05 19.21 10.74 19.29 10.84"/><polygon class="cls-60" points="19.37 10.83 19.32 27.14 19.25 27.14 19.29 10.84 19.37 10.83"/><polygon class="cls-5" points="15.84 10.83 15.8 27.14 15.74 27.07 15.79 10.76 15.84 10.83"/><polygon class="cls-81" points="19.45 10.85 19.41 27.15 19.32 27.14 19.37 10.83 19.45 10.85"/><polygon class="cls-82" points="12.28 10.84 12.23 27.14 12.1 27.1 12.14 10.79 12.28 10.84"/><polygon class="cls-73" points="19.52 10.87 19.47 27.17 19.41 27.15 19.45 10.85 19.52 10.87"/><polygon class="cls-13" points="13.81 10.84 13.77 27.14 13.68 27.16 13.73 10.86 13.81 10.84"/><polygon class="cls-83" points="12.36 10.86 12.31 27.16 12.23 27.14 12.28 10.84 12.36 10.86"/><polygon class="cls-23" points="12.38 10.8 12.33 27.1 12.31 27.16 12.36 10.86 12.38 10.8"/><polygon class="cls-5" points="13.29 10.86 13.24 27.16 13.22 27.12 13.27 10.81 13.29 10.86"/><polygon class="cls-34" points="13.4 10.88 13.35 27.19 13.24 27.16 13.29 10.86 13.4 10.88"/><polygon class="cls-11" points="10.65 10.78 10.6 27.09 10.53 27.19 10.57 10.88 10.65 10.78"/><polygon class="cls-79" points="13.53 10.9 13.48 27.2 13.35 27.19 13.4 10.88 13.53 10.9"/><polygon class="cls-50" points="13.62 10.93 13.57 27.23 13.48 27.2 13.53 10.9 13.62 10.93"/><polygon class="cls-5" points="15.88 10.94 15.84 27.24 15.8 27.14 15.84 10.83 15.88 10.94"/><polygon class="cls-17" points="14.27 10.95 14.22 27.25 14.14 27.24 14.18 10.94 14.27 10.95"/><polygon class="cls-75" points="7.88 10.82 7.83 27.13 7.79 27.24 7.83 10.93 7.88 10.82"/><polygon class="cls-69" points="13.82 10.94 13.77 27.24 13.66 27.25 13.71 10.95 13.82 10.94"/><polygon class="cls-62" points="13.71 10.95 13.66 27.25 13.57 27.23 13.62 10.93 13.71 10.95"/><polygon class="cls-31" points="9.83 10.9 9.78 27.2 9.61 27.24 9.65 10.94 9.83 10.9"/><polygon class="cls-5" points="15.19 10.96 15.14 27.27 15.12 27.2 15.17 10.89 15.19 10.96"/><polygon class="cls-39" points="14.36 10.96 14.31 27.27 14.22 27.25 14.27 10.95 14.36 10.96"/><polygon class="cls-36" points="9.65 10.94 9.61 27.24 9.32 27.25 9.37 10.95 9.65 10.94"/><polygon class="cls-17" points="18.99 10.86 18.95 27.16 18.89 27.28 18.94 10.98 18.99 10.86"/><polygon class="cls-18" points="15.17 10.89 15.12 27.2 14.97 27.28 15.02 10.97 15.17 10.89"/><polygon class="cls-5" points="8.19 10.96 8.15 27.26 8.14 27.19 8.19 10.89 8.19 10.96"/><polygon class="cls-52" points="14.44 10.99 14.4 27.29 14.31 27.27 14.36 10.96 14.44 10.99"/><polygon class="cls-5" points="15.89 11.03 15.85 27.34 15.84 27.24 15.88 10.94 15.89 11.03"/><polygon class="cls-4" points="9.37 10.95 9.32 27.25 9.19 27.33 9.24 11.03 9.37 10.95"/><polygon class="cls-5" points="14.46 11.05 14.42 27.36 14.4 27.29 14.44 10.99 14.46 11.05"/><polygon class="cls-5" points="15.2 11.05 15.15 27.36 15.14 27.27 15.19 10.96 15.2 11.05"/><polygon class="cls-21" points="7.83 10.93 7.79 27.24 7.67 27.34 7.71 11.04 7.83 10.93"/><polygon class="cls-21" points="4.06 10.79 4.01 27.09 3.74 27.33 3.78 11.03 4.06 10.79"/><polygon class="cls-70" points="15.02 10.97 14.97 27.28 14.96 27.38 15.01 11.07 15.02 10.97"/><polygon class="cls-21" points="18.94 10.98 18.89 27.28 18.76 27.39 18.81 11.09 18.94 10.98"/><polygon class="cls-5" points="12.79 11.1 12.74 27.4 12.72 27.32 12.76 11.02 12.79 11.1"/><polygon class="cls-64" points="13.54 11.03 13.49 27.33 13.39 27.41 13.43 11.11 13.54 11.03"/><polygon class="cls-5" points="15.22 11.12 15.17 27.43 15.15 27.36 15.2 11.05 15.22 11.12"/><polygon class="cls-16" points="19.38 11.15 19.33 27.45 19.23 27.36 19.28 11.05 19.38 11.15"/><polygon class="cls-76" points="15.79 10.76 15.74 27.07 15.68 27.45 15.72 11.15 15.79 10.76"/><polygon class="cls-5" points="14.32 11.14 14.27 27.45 14.24 27.37 14.29 11.07 14.32 11.14"/><polygon class="cls-3" points="7.71 11.04 7.67 27.34 7.54 27.43 7.59 11.13 7.71 11.04"/><polygon class="cls-10" points="9.24 11.03 9.19 27.33 9.17 27.44 9.21 11.14 9.24 11.03"/><polygon class="cls-18" points="13.43 11.11 13.39 27.41 13.29 27.45 13.34 11.15 13.43 11.11"/><polygon class="cls-12" points="13.34 11.15 13.29 27.45 13.2 27.46 13.24 11.16 13.34 11.15"/><polygon class="cls-84" points="3.78 11.03 3.74 27.33 3.66 27.44 3.7 11.14 3.78 11.03"/><polygon class="cls-3" points="13.24 11.16 13.2 27.46 13.14 27.51 13.19 11.2 13.24 11.16"/><polygon class="cls-21" points="10.57 10.88 10.53 27.19 10.17 27.5 10.22 11.2 10.57 10.88"/><polygon class="cls-44" points="14.38 11.21 14.34 27.51 14.27 27.45 14.32 11.14 14.38 11.21"/><polygon class="cls-5" points="14.2 11.22 14.15 27.52 14.14 27.45 14.19 11.15 14.2 11.22"/><polygon class="cls-21" points="19 11.19 18.95 27.5 18.9 27.54 18.94 11.24 19 11.19"/><polygon class="cls-5" points="8.28 11.21 8.23 27.51 8.15 27.26 8.19 10.96 8.28 11.21"/><polygon class="cls-67" points="7.66 11.14 7.61 27.45 7.6 27.52 7.65 11.22 7.66 11.14"/><polygon class="cls-12" points="18.94 11.24 18.9 27.54 18.77 27.55 18.82 11.25 18.94 11.24"/><polygon class="cls-5" points="15.81 11.25 15.77 27.55 15.77 27.45 15.81 11.15 15.81 11.25"/><polygon class="cls-72" points="15.39 11.26 15.35 27.56 15.17 27.43 15.22 11.12 15.39 11.26"/><polygon class="cls-85" points="15.72 11.15 15.68 27.45 15.61 27.57 15.66 11.27 15.72 11.15"/><polygon class="cls-7" points="10.22 11.2 10.17 27.5 10.14 27.56 10.19 11.26 10.22 11.2"/><polygon class="cls-5" points="12.78 11.27 12.73 27.57 12.72 27.49 12.77 11.18 12.78 11.27"/><polygon class="cls-5" points="19.31 11.29 19.27 27.6 19.23 27.53 19.27 11.23 19.31 11.29"/><polygon class="cls-69" points="15.66 11.27 15.61 27.57 15.45 27.59 15.49 11.29 15.66 11.27"/><polygon class="cls-45" points="15.49 11.29 15.45 27.59 15.35 27.56 15.39 11.26 15.49 11.29"/><polygon class="cls-5" points="9.53 11.3 9.48 27.61 9.37 27.4 9.42 11.1 9.53 11.3"/><polygon class="cls-65" points="12.87 11.34 12.82 27.64 12.73 27.57 12.78 11.27 12.87 11.34"/><polygon class="cls-63" points="10.19 11.26 10.14 27.56 10.13 27.63 10.18 11.33 10.19 11.26"/><polygon class="cls-5" points="19.38 11.37 19.33 27.67 19.27 27.6 19.31 11.29 19.38 11.37"/><polygon class="cls-73" points="13.19 11.22 13.14 27.52 13.14 27.67 13.19 11.37 13.19 11.22"/><polygon class="cls-81" points="18.82 11.25 18.77 27.55 18.72 27.69 18.77 11.38 18.82 11.25"/><polygon class="cls-86" points="14.1 11.38 14.05 27.69 13.97 27.62 14.01 11.31 14.1 11.38"/><polygon class="cls-81" points="3.7 11.14 3.66 27.44 3.57 27.66 3.62 11.35 3.7 11.14"/><polygon class="cls-21" points="13.19 11.37 13.14 27.67 13.11 27.69 13.16 11.39 13.19 11.37"/><polygon class="cls-64" points="17.54 11.31 17.49 27.61 17.36 27.7 17.41 11.4 17.54 11.31"/><polygon class="cls-29" points="15.21 11.32 15.16 27.62 15.12 27.71 15.16 11.4 15.21 11.32"/><polygon class="cls-5" points="17.63 11.44 17.58 27.74 17.49 27.61 17.54 11.31 17.63 11.44"/><polygon class="cls-18" points="14.38 11.37 14.33 27.67 14.21 27.73 14.26 11.43 14.38 11.37"/><polygon class="cls-5" points="19.42 11.45 19.38 27.75 19.33 27.67 19.38 11.37 19.42 11.45"/><polygon class="cls-48" points="14.26 11.43 14.21 27.73 14.12 27.73 14.17 11.43 14.26 11.43"/><polygon class="cls-68" points="14.17 11.43 14.12 27.73 14.05 27.69 14.1 11.38 14.17 11.43"/><polygon class="cls-67" points="3.62 11.35 3.57 27.66 3.56 27.73 3.61 11.43 3.62 11.35"/><polygon class="cls-18" points="13.16 11.39 13.11 27.69 12.96 27.77 13.01 11.47 13.16 11.39"/><polygon class="cls-2" points="15.16 11.4 15.12 27.71 15.05 27.79 15.1 11.49 15.16 11.4"/><polygon class="cls-5" points="8.33 11.5 8.29 27.8 8.23 27.51 8.28 11.21 8.33 11.5"/><polygon class="cls-5" points="12.71 11.52 12.66 27.82 12.66 27.72 12.71 11.42 12.71 11.52"/><polygon class="cls-59" points="7.83 11.42 7.79 27.72 7.78 27.83 7.82 11.53 7.83 11.42"/><polygon class="cls-75" points="15.1 11.49 15.05 27.79 15.02 27.86 15.06 11.56 15.1 11.49"/><polygon class="cls-5" points="19.44 11.58 19.39 27.88 19.34 27.81 19.39 11.51 19.44 11.58"/><polygon class="cls-81" points="18.91 11.52 18.87 27.82 18.84 27.89 18.89 11.59 18.91 11.52"/><polygon class="cls-87" points="3.25 11.55 3.2 27.85 3.07 27.78 3.11 11.48 3.25 11.55"/><polygon class="cls-5" points="3.89 11.56 3.84 27.86 3.8 27.76 3.85 11.46 3.89 11.56"/><polygon class="cls-5" points="8.38 11.57 8.34 27.88 8.29 27.8 8.33 11.5 8.38 11.57"/><polygon class="cls-23" points="13.33 11.52 13.28 27.82 13.24 27.91 13.29 11.61 13.33 11.52"/><polygon class="cls-85" points="13.29 11.61 13.24 27.91 13.1 27.9 13.15 11.6 13.29 11.61"/><polygon class="cls-5" points="12.75 11.61 12.7 27.91 12.66 27.82 12.71 11.52 12.75 11.61"/><polygon class="cls-29" points="10.18 11.33 10.13 27.63 9.99 27.91 10.04 11.6 10.18 11.33"/><polygon class="cls-88" points="7.82 11.53 7.78 27.83 7.72 27.91 7.77 11.6 7.82 11.53"/><polygon class="cls-68" points="3.96 11.61 3.91 27.91 3.84 27.86 3.89 11.56 3.96 11.61"/><polygon class="cls-79" points="4.12 11.63 4.07 27.93 3.91 27.91 3.96 11.61 4.12 11.63"/><polygon class="cls-15" points="13.15 11.6 13.1 27.9 13.05 27.96 13.09 11.66 13.15 11.6"/><polygon class="cls-62" points="18.89 11.59 18.84 27.89 18.82 27.98 18.87 11.68 18.89 11.59"/><polygon class="cls-5" points="14.5 11.67 14.45 27.98 14.33 27.67 14.38 11.37 14.5 11.67"/><polygon class="cls-5" points="20.24 11.7 20.19 28 20.19 27.95 20.24 11.65 20.24 11.7"/><polygon class="cls-15" points="20.24 11.65 20.19 27.95 20.14 28.01 20.18 11.71 20.24 11.65"/><polygon class="cls-55" points="9.12 11.58 9.07 27.89 9.01 27.98 9.06 11.68 9.12 11.58"/><polygon class="cls-16" points="4.16 11.67 4.12 27.97 4.07 27.93 4.12 11.63 4.16 11.67"/><polygon class="cls-5" points="15.47 11.7 15.43 28 15.37 27.78 15.41 11.47 15.47 11.7"/><polygon class="cls-5" points="3.35 11.67 3.3 27.97 3.2 27.85 3.25 11.55 3.35 11.67"/><polygon class="cls-18" points="13.09 11.66 13.05 27.96 12.94 28 12.99 11.7 13.09 11.66"/><polygon class="cls-16" points="9.94 11.7 9.9 28 9.48 27.61 9.53 11.3 9.94 11.7"/><polygon class="cls-15" points="10.04 11.6 9.99 27.91 9.9 28 9.94 11.7 10.04 11.6"/><polygon class="cls-89" points="18.27 11.73 18.22 28.03 17.58 27.74 17.63 11.44 18.27 11.73"/><polygon class="cls-5" points="14.52 11.72 14.47 28.02 14.45 27.98 14.5 11.67 14.52 11.72"/><polygon class="cls-20" points="12.99 11.7 12.94 28 12.85 28.04 12.89 11.73 12.99 11.7"/><polygon class="cls-7" points="9.62 11.67 9.58 27.97 9.55 28.03 9.59 11.73 9.62 11.67"/><polygon class="cls-31" points="12.89 11.73 12.85 28.04 12.8 28.05 12.85 11.74 12.89 11.73"/><polygon class="cls-5" points="15.5 11.76 15.46 28.06 15.43 28 15.47 11.7 15.5 11.76"/><polygon class="cls-86" points="9.32 11.75 9.28 28.05 9.07 27.89 9.12 11.58 9.32 11.75"/><polygon class="cls-53" points="3.46 11.75 3.42 28.05 3.3 27.97 3.35 11.67 3.46 11.75"/><polygon class="cls-31" points="3.64 11.7 3.6 28.01 3.42 28.05 3.46 11.75 3.64 11.7"/><polygon class="cls-90" points="12.85 11.74 12.8 28.05 12.8 28.08 12.84 11.78 12.85 11.74"/><polygon class="cls-66" points="12.74 11.79 12.7 28.09 12.62 28.06 12.67 11.76 12.74 11.79"/><polygon class="cls-91" points="12.78 11.27 12.77 11.18 12.79 11.1 12.76 11.02 12.91 10.97 12.98 10.89 13.02 10.82 13.08 10.78 13.17 10.83 13.18 10.92 13.24 10.98 13.36 11 13.49 11 13.54 11.03 13.43 11.11 13.34 11.15 13.24 11.16 13.19 11.2 13.19 11.22 13.19 11.37 13.16 11.39 13.01 11.47 13.05 11.49 13.24 11.44 13.33 11.52 13.29 11.61 13.15 11.6 13.09 11.66 12.99 11.7 12.89 11.73 12.85 11.74 12.84 11.78 12.74 11.79 12.67 11.76 12.71 11.69 12.75 11.61 12.71 11.52 12.71 11.42 12.87 11.34 12.78 11.27"/><polygon class="cls-26" points="12.84 11.78 12.8 28.08 12.7 28.09 12.74 11.79 12.84 11.78"/><polygon class="cls-59" points="20.2 11.76 20.16 28.06 20.15 28.11 20.2 11.81 20.2 11.76"/><polygon class="cls-68" points="15.57 11.8 15.52 28.1 15.46 28.06 15.5 11.76 15.57 11.8"/><polygon class="cls-59" points="9.43 11.79 9.39 28.09 9.28 28.05 9.32 11.75 9.43 11.79"/><polygon class="cls-20" points="9.59 11.73 9.55 28.03 9.39 28.09 9.43 11.79 9.59 11.73"/><polygon class="cls-5" points="20.29 11.84 20.24 28.15 20.19 28 20.24 11.7 20.29 11.84"/><polygon class="cls-26" points="20.2 11.81 20.15 28.11 20.1 28.17 20.15 11.87 20.2 11.81"/><polygon class="cls-39" points="20.56 11.63 20.52 27.93 20.43 28.18 20.48 11.88 20.56 11.63"/><polygon class="cls-16" points="8.66 11.85 8.62 28.15 8.34 27.88 8.38 11.57 8.66 11.85"/><polygon class="cls-5" points="15.62 11.87 15.57 28.18 15.52 28.1 15.57 11.8 15.62 11.87"/><polygon class="cls-31" points="18.11 11.84 18.06 28.14 17.82 28.2 17.87 11.9 18.11 11.84"/><polygon class="cls-13" points="15.17 11.8 15.12 28.1 15.01 28.2 15.05 11.89 15.17 11.8"/><polygon class="cls-4" points="20.15 11.87 20.1 28.17 20.03 28.21 20.07 11.91 20.15 11.87"/><polygon class="cls-4" points="7.77 11.6 7.72 27.91 7.24 28.2 7.29 11.89 7.77 11.6"/><polygon class="cls-86" points="18.51 11.93 18.46 28.23 18.22 28.03 18.27 11.73 18.51 11.93"/><polygon class="cls-16" points="19.81 11.93 19.76 28.23 19.39 27.88 19.44 11.58 19.81 11.93"/><polygon class="cls-5" points="14.66 11.92 14.61 28.22 14.47 28.02 14.52 11.72 14.66 11.92"/><polygon class="cls-92" points="15.94 11.93 15.89 28.24 15.57 28.18 15.62 11.87 15.94 11.93"/><polygon class="cls-18" points="20.07 11.91 20.03 28.21 19.94 28.25 19.99 11.95 20.07 11.91"/><polygon class="cls-5" points="7.55 11.92 7.5 28.22 7.5 28.21 7.55 11.9 7.55 11.92"/><polygon class="cls-62" points="19.9 11.95 19.85 28.26 19.76 28.23 19.81 11.93 19.9 11.95"/><polygon class="cls-2" points="19.99 11.95 19.94 28.25 19.85 28.26 19.9 11.95 19.99 11.95"/><polygon class="cls-29" points="7.61 11.92 7.56 28.23 7.5 28.22 7.55 11.92 7.61 11.92"/><polygon class="cls-12" points="15.05 11.89 15.01 28.2 14.95 28.26 15 11.95 15.05 11.89"/><polygon class="cls-69" points="7.29 11.89 7.24 28.2 7.2 28.24 7.25 11.94 7.29 11.89"/><polygon class="cls-16" points="14.72 11.98 14.67 28.28 14.61 28.22 14.66 11.92 14.72 11.98"/><polygon class="cls-44" points="15.99 11.98 15.94 28.29 15.89 28.24 15.94 11.93 15.99 11.98"/><polygon class="cls-5" points="18.56 11.99 18.51 28.3 18.46 28.23 18.51 11.93 18.56 11.99"/><polygon class="cls-5" points="20.25 12 20.2 28.31 20.2 28.25 20.25 11.95 20.25 12"/><polygon class="cls-29" points="20.48 11.88 20.43 28.18 20.36 28.33 20.41 12.03 20.48 11.88"/><polygon class="cls-32" points="15 11.95 14.95 28.26 14.91 28.32 14.96 12.02 15 11.95"/><polygon class="cls-4" points="17.87 11.9 17.82 28.2 17.59 28.34 17.64 12.04 17.87 11.9"/><polygon class="cls-28" points="14.96 12.02 14.91 28.32 14.84 28.35 14.88 12.04 14.96 12.02"/><polygon class="cls-14" points="14.88 12.04 14.84 28.35 14.67 28.28 14.72 11.98 14.88 12.04"/><polygon class="cls-5" points="3.86 12.01 3.81 28.32 3.79 28.23 3.84 11.92 3.86 12.01"/><polygon class="cls-46" points="20.32 12.06 20.27 28.37 20.2 28.31 20.25 12 20.32 12.06"/><polygon class="cls-18" points="20.41 12.03 20.36 28.33 20.27 28.37 20.32 12.06 20.41 12.03"/><polygon class="cls-12" points="3.46 11.94 3.42 28.24 3.35 28.32 3.4 12.02 3.46 11.94"/><polygon class="cls-20" points="17.64 12.04 17.59 28.34 17.5 28.37 17.55 12.07 17.64 12.04"/><polygon class="cls-5" points="8.79 12.05 8.74 28.35 8.62 28.15 8.66 11.85 8.79 12.05"/><polygon class="cls-69" points="17.55 12.07 17.5 28.37 17.42 28.38 17.47 12.08 17.55 12.07"/><polygon class="cls-9" points="7.25 11.94 7.2 28.24 7.13 28.36 7.18 12.05 7.25 11.94"/><polygon class="cls-13" points="3.4 12.02 3.35 28.32 3.17 28.36 3.21 12.06 3.4 12.02"/><polygon class="cls-36" points="9.35 11.93 9.3 28.24 9.19 28.39 9.24 12.08 9.35 11.93"/><polygon class="cls-15" points="7.18 12.05 7.13 28.36 7.09 28.39 7.14 12.09 7.18 12.05"/><polygon class="cls-48" points="3.22 12.11 3.17 28.42 2.98 28.42 3.03 12.11 3.22 12.11"/><polygon class="cls-23" points="9.24 12.08 9.19 28.39 9.17 28.45 9.21 12.14 9.24 12.08"/><polygon class="cls-44" points="8.89 12.15 8.84 28.46 8.74 28.35 8.79 12.05 8.89 12.15"/><polygon class="cls-93" points="16.31 12.18 16.26 28.48 15.94 28.29 15.99 11.98 16.31 12.18"/><polygon class="cls-48" points="16.94 12.18 16.89 28.48 16.79 28.48 16.84 12.18 16.94 12.18"/><polygon class="cls-44" points="12.56 12.18 12.51 28.48 12.46 28.43 12.51 12.13 12.56 12.18"/><polygon class="cls-18" points="17.47 12.08 17.42 28.38 17.18 28.5 17.23 12.19 17.47 12.08"/><polygon class="cls-31" points="16.84 12.18 16.79 28.48 16.7 28.5 16.75 12.2 16.84 12.18"/><polygon class="cls-8" points="7.14 12.09 7.09 28.39 7.08 28.48 7.13 12.18 7.14 12.09"/><polygon class="cls-14" points="17.02 12.21 16.98 28.52 16.89 28.48 16.94 12.18 17.02 12.21"/><polygon class="cls-83" points="17.14 12.23 17.09 28.54 16.98 28.52 17.02 12.21 17.14 12.23"/><polygon class="cls-18" points="17.23 12.19 17.18 28.5 17.09 28.54 17.14 12.23 17.23 12.19"/><polygon class="cls-63" points="9.21 12.14 9.17 28.45 9.16 28.52 9.21 12.21 9.21 12.14"/><polygon class="cls-18" points="16.75 12.2 16.7 28.5 16.61 28.54 16.66 12.24 16.75 12.2"/><polygon class="cls-5" points="12.59 12.23 12.54 28.53 12.51 28.48 12.56 12.18 12.59 12.23"/><polygon class="cls-94" points="9.04 12.22 8.99 28.53 8.84 28.46 8.89 12.15 9.04 12.22"/><polygon class="cls-71" points="9.21 12.21 9.16 28.52 8.99 28.53 9.04 12.22 9.21 12.21"/><polygon class="cls-2" points="16.66 12.24 16.61 28.54 16.45 28.56 16.49 12.25 16.66 12.24"/><polygon class="cls-95" points="16.49 12.25 16.45 28.56 16.26 28.48 16.31 12.18 16.49 12.25"/><polygon class="cls-50" points="19.05 12.18 19 28.48 18.99 28.56 19.04 12.26 19.05 12.18"/><polygon class="cls-34" points="3.1 12.17 3.06 28.48 3.04 28.53 3.09 12.23 3.1 12.17"/><polygon class="cls-5" points="12.61 12.29 12.56 28.59 12.54 28.53 12.59 12.23 12.61 12.29"/><polygon class="cls-73" points="12.92 12.3 12.87 28.6 12.84 28.59 12.88 12.29 12.92 12.3"/><polygon class="cls-36" points="19.04 12.26 18.99 28.56 18.95 28.63 19 12.32 19.04 12.26"/><polygon class="cls-31" points="7.13 12.24 7.08 28.54 7.02 28.59 7.06 12.29 7.13 12.24"/><polygon class="cls-3" points="3.09 12.23 3.04 28.53 2.98 28.58 3.02 12.28 3.09 12.23"/><polygon class="cls-34" points="13.04 12.16 13 28.47 12.97 28.62 13.01 12.32 13.04 12.16"/><polygon class="cls-83" points="13.01 12.32 12.97 28.62 12.87 28.6 12.92 12.3 13.01 12.32"/><polygon class="cls-4" points="12.88 12.29 12.84 28.59 12.79 28.62 12.84 12.32 12.88 12.29"/><polygon class="cls-94" points="18.5 12.35 18.45 28.65 18.38 28.61 18.42 12.31 18.5 12.35"/><polygon class="cls-3" points="7.06 12.29 7.02 28.59 6.93 28.62 6.98 12.32 7.06 12.29"/><polygon class="cls-13" points="19 12.32 18.95 28.63 18.82 28.66 18.87 12.35 19 12.32"/><polygon class="cls-36" points="6.98 12.32 6.93 28.62 6.83 28.62 6.87 12.32 6.98 12.32"/><polygon class="cls-9" points="6.87 12.32 6.83 28.62 6.6 28.62 6.65 12.32 6.87 12.32"/><polygon class="cls-36" points="18.87 12.35 18.82 28.66 18.63 28.66 18.68 12.36 18.87 12.35"/><polygon class="cls-17" points="18.68 12.36 18.63 28.66 18.45 28.65 18.5 12.35 18.68 12.36"/><polygon class="cls-4" points="3.02 12.28 2.98 28.58 2.87 28.64 2.92 12.34 3.02 12.28"/><polygon class="cls-5" points="4.07 12.35 4.02 28.65 3.81 28.32 3.86 12.01 4.07 12.35"/><polygon class="cls-66" points="4.18 12.39 4.13 28.69 4.02 28.65 4.07 12.35 4.18 12.39"/><polygon class="cls-6" points="6.65 12.32 6.6 28.62 6.48 28.73 6.53 12.43 6.65 12.32"/><polygon class="cls-4" points="12.84 12.4 12.79 28.71 12.68 28.77 12.73 12.47 12.84 12.4"/><polygon class="cls-5" points="12.48 12.47 12.43 28.77 12.41 28.72 12.45 12.42 12.48 12.47"/><polygon class="cls-67" points="4.42 12.45 4.37 28.75 4.13 28.69 4.18 12.39 4.42 12.45"/><polygon class="cls-48" points="1.87 12.46 1.82 28.76 1.44 28.76 1.49 12.46 1.87 12.46"/><polygon class="cls-54" points="12.58 12.49 12.54 28.8 12.43 28.77 12.48 12.47 12.58 12.49"/><polygon class="cls-6" points="12.73 12.47 12.68 28.77 12.54 28.8 12.58 12.49 12.73 12.47"/><polygon class="cls-91" points="12.92 12.3 12.88 12.29 12.84 12.32 12.84 12.4 12.73 12.47 12.58 12.49 12.48 12.47 12.45 12.42 12.5 12.39 12.57 12.36 12.6 12.34 12.61 12.29 12.59 12.23 12.56 12.18 12.51 12.13 12.61 12.13 12.62 12.09 12.65 11.99 12.71 11.99 12.72 12 12.74 12.05 12.78 12.05 12.8 12.05 12.83 12.05 12.88 12.02 12.9 12.05 12.92 12.06 12.93 12.11 13.02 12.11 13.04 12.16 13.01 12.32 12.92 12.3"/><polygon class="cls-41" points="2.2 12.47 2.15 28.78 1.82 28.76 1.87 12.46 2.2 12.47"/><polygon class="cls-60" points="2.28 12.47 2.23 28.77 2.15 28.78 2.2 12.47 2.28 12.47"/><polygon class="cls-69" points="8.49 12.48 8.45 28.78 8.34 28.8 8.38 12.49 8.49 12.48"/><polygon class="cls-56" points="1.49 12.46 1.44 28.76 1.35 28.78 1.39 12.48 1.49 12.46"/><polygon class="cls-25" points="5.42 12.5 5.38 28.8 5.27 28.81 5.32 12.51 5.42 12.5"/><polygon class="cls-96" points="2.37 12.5 2.32 28.81 2.23 28.77 2.28 12.47 2.37 12.5"/><polygon class="cls-28" points="2.93 12.41 2.89 28.71 2.54 28.81 2.58 12.51 2.93 12.41"/><polygon class="cls-83" points="6.99 12.53 6.94 28.83 6.85 28.81 6.89 12.51 6.99 12.53"/><polygon class="cls-4" points="6.53 12.43 6.48 28.73 6.22 28.83 6.27 12.53 6.53 12.43"/><polygon class="cls-39" points="2.48 12.52 2.43 28.82 2.32 28.81 2.37 12.5 2.48 12.52"/><polygon class="cls-27" points="2.58 12.51 2.54 28.81 2.43 28.82 2.48 12.52 2.58 12.51"/><polygon class="cls-31" points="8.38 12.49 8.34 28.8 8.27 28.85 8.32 12.54 8.38 12.49"/><polygon class="cls-94" points="4.64 12.56 4.59 28.86 4.37 28.75 4.42 12.45 4.64 12.56"/><polygon class="cls-97" points="7.09 12.57 7.04 28.87 6.94 28.83 6.99 12.53 7.09 12.57"/><polygon class="cls-31" points="6.27 12.53 6.22 28.83 5.96 28.89 6.01 12.59 6.27 12.53"/><polygon class="cls-48" points="6.01 12.59 5.96 28.89 5.81 28.89 5.86 12.59 6.01 12.59"/><polygon class="cls-22" points="5.86 12.59 5.81 28.89 5.38 28.8 5.42 12.5 5.86 12.59"/><polygon class="cls-60" points="1.39 12.48 1.35 28.78 1.26 28.88 1.3 12.58 1.39 12.48"/><polygon class="cls-60" points="8.32 12.54 8.27 28.85 8.22 28.91 8.27 12.6 8.32 12.54"/><polygon class="cls-17" points="1.02 12.59 0.97 28.89 0.88 28.88 0.93 12.58 1.02 12.59"/><polygon class="cls-88" points="1.3 12.58 1.26 28.88 0.97 28.89 1.02 12.59 1.3 12.58"/><polygon class="cls-18" points="5.32 12.51 5.27 28.81 5.07 28.9 5.12 12.6 5.32 12.51"/><polygon class="cls-50" points="4.76 12.6 4.71 28.9 4.59 28.86 4.64 12.56 4.76 12.6"/><polygon class="cls-98" points="4.89 12.62 4.84 28.93 4.71 28.9 4.76 12.6 4.89 12.62"/><polygon class="cls-26" points="0.93 12.58 0.88 28.88 0.44 28.91 0.49 12.61 0.93 12.58"/><polygon class="cls-38" points="5.01 12.63 4.96 28.93 4.84 28.93 4.89 12.62 5.01 12.63"/><polygon class="cls-31" points="5.12 12.6 5.07 28.9 4.96 28.93 5.01 12.63 5.12 12.6"/><polygon class="cls-24" points="7.67 12.61 7.62 28.91 7.5 28.94 7.55 12.64 7.67 12.61"/><polygon class="cls-28" points="8.27 12.6 8.22 28.91 8.17 28.94 8.22 12.64 8.27 12.6"/><polygon class="cls-56" points="0.49 12.61 0.44 28.91 0.33 28.94 0.38 12.63 0.49 12.61"/><polygon class="cls-49" points="8.22 12.64 8.17 28.94 8.03 28.96 8.08 12.66 8.22 12.64"/><polygon class="cls-51" points="8.08 12.66 8.03 28.96 7.62 28.91 7.67 12.61 8.08 12.66"/><polygon class="cls-4" points="7.55 12.64 7.5 28.94 7.43 28.98 7.47 12.68 7.55 12.64"/><polygon class="cls-58" points="7.28 12.68 7.24 28.98 7.04 28.87 7.09 12.57 7.28 12.68"/><polygon class="cls-44" points="10.48 12.71 10.44 29.02 10.37 28.95 10.42 12.65 10.48 12.71"/><polygon class="cls-4" points="0.38 12.63 0.33 28.94 0.23 28.99 0.28 12.69 0.38 12.63"/><polygon class="cls-91" points="8.48 12.38 8.49 12.48 8.38 12.49 8.32 12.54 8.27 12.6 8.22 12.64 8.08 12.66 7.67 12.61 7.55 12.64 7.47 12.68 7.39 12.71 7.28 12.68 7.09 12.57 6.99 12.53 6.89 12.51 6.97 12.41 7.1 12.34 7.37 12.23 7.44 12.17 7.51 12.09 7.61 11.92 7.55 11.92 7.55 11.9 7.64 11.85 7.73 11.79 7.83 11.74 7.94 11.74 7.97 11.75 8.12 11.87 8.15 11.94 8.17 12.02 8.21 12.11 8.41 12.3 8.48 12.38"/><polygon class="cls-59" points="7.39 12.71 7.34 29.02 7.24 28.98 7.28 12.68 7.39 12.71"/><polygon class="cls-4" points="7.47 12.68 7.43 28.98 7.34 29.02 7.39 12.71 7.47 12.68"/><polygon class="cls-99" points="0.28 12.69 0.23 28.99 0.19 29.05 0.24 12.75 0.28 12.69"/><polygon class="cls-7" points="0.24 12.75 0.19 29.05 0.16 29.12 0.2 12.81 0.24 12.75"/><polygon class="cls-5" points="10.1 12.89 10.05 29.2 10.04 29.02 10.09 12.71 10.1 12.89"/><polygon class="cls-91" points="20.48 11.88 20.41 12.03 20.32 12.06 20.25 12 20.25 11.95 20.27 11.9 20.29 11.84 20.24 11.7 20.24 11.65 20.18 11.71 20.2 11.76 20.2 11.81 20.15 11.87 20.07 11.91 19.99 11.95 19.9 11.95 19.81 11.93 19.44 11.58 19.39 11.51 19.42 11.45 19.38 11.37 19.31 11.29 19.27 11.23 19.38 11.15 19.28 11.05 19.52 10.87 19.45 10.85 19.37 10.83 19.29 10.84 19.21 10.74 19.14 10.64 19.02 10.58 18.84 10.59 18.97 10.73 18.99 10.86 18.94 10.98 18.81 11.09 18.96 11.13 19 11.19 18.94 11.24 18.82 11.25 18.77 11.38 18.89 11.46 18.91 11.52 18.89 11.59 18.87 11.68 18.89 11.78 18.99 11.94 19.05 12.18 19.04 12.26 19 12.32 18.87 12.35 18.68 12.36 18.5 12.35 18.42 12.31 18.44 12.24 18.54 12.06 18.56 11.99 18.51 11.93 18.27 11.73 17.63 11.44 17.54 11.31 17.41 11.4 17.47 11.49 17.62 11.54 17.77 11.59 17.88 11.64 18.04 11.74 18.11 11.84 17.87 11.9 17.64 12.04 17.55 12.07 17.47 12.08 17.23 12.19 17.14 12.23 17.02 12.21 16.94 12.18 16.84 12.18 16.75 12.2 16.66 12.24 16.49 12.25 16.31 12.18 15.99 11.98 15.94 11.93 15.62 11.87 15.57 11.8 15.5 11.76 15.47 11.7 15.41 11.47 15.43 11.4 15.67 11.34 15.77 11.31 15.81 11.25 15.81 11.15 15.86 11.1 15.89 11.03 15.88 10.94 15.84 10.83 15.79 10.76 15.72 11.15 15.66 11.27 15.49 11.29 15.39 11.26 15.22 11.12 15.2 11.05 15.19 10.96 15.17 10.89 15.02 10.97 15.01 11.07 15.07 11.17 15.17 11.25 15.21 11.32 15.16 11.4 15.1 11.49 15.06 11.56 15.1 11.66 15.16 11.73 15.17 11.8 15.05 11.89 15 11.95 14.96 12.02 14.88 12.04 14.72 11.98 14.66 11.92 14.52 11.72 14.5 11.67 14.38 11.37 14.26 11.43 14.17 11.43 14.1 11.38 14.01 11.31 14.1 11.3 14.16 11.27 14.2 11.22 14.19 11.15 14.38 11.21 14.32 11.14 14.29 11.07 14.33 11.03 14.46 11.05 14.44 10.99 14.36 10.96 14.27 10.95 14.18 10.94 14.27 10.87 14.36 10.84 14.46 10.78 14.6 10.74 14.46 10.68 14.43 10.63 14.37 10.57 14.54 10.56 14.62 10.49 14.7 10.45 14.82 10.52 14.9 10.42 14.81 10.37 14.63 10.36 14.45 10.36 14.36 10.46 14.41 10.32 14.44 10.27 14.45 10.2 14.58 10.21 14.76 10.23 14.92 10.19 15 10.1 14.9 10.14 14.81 10.07 14.72 10.04 14.64 10.05 14.59 10.09 14.52 10.1 14.4 10.07 14.5 10.04 14.68 9.97 14.76 9.96 14.81 9.88 14.91 9.98 15.22 9.99 15.22 9.86 15.13 9.84 14.93 9.83 14.84 9.78 14.84 9.72 14.86 9.66 14.89 9.62 15 9.61 15.1 9.58 15.19 9.55 15.34 9.56 15.42 9.6 15.49 9.65 15.57 9.54 15.47 9.52 15.55 9.46 15.66 9.44 15.77 9.44 15.9 9.46 15.69 9.64 15.59 9.7 15.81 9.68 15.89 9.76 15.98 9.77 16.03 9.73 15.92 9.59 15.99 9.54 16.09 9.51 16.3 9.35 16.36 9.31 16.39 9.24 16.4 9.19 16.37 9.13 16.3 9.06 16.25 9.13 16.22 9.19 16.18 9.24 15.98 9.38 15.92 9.4 15.83 9.37 15.81 9.23 15.71 9.14 15.62 9.18 15.6 9.23 15.63 9.29 15.71 9.36 15.52 9.35 15.43 9.37 15.35 9.41 15.3 9.22 15.12 9.17 15.21 9.38 15.15 9.44 14.99 9.46 14.89 9.51 14.86 9.41 14.9 9.33 14.94 9.25 14.83 9.16 14.84 9.23 14.82 9.29 14.75 9.32 14.66 9.33 14.67 9.39 14.62 9.51 14.73 9.55 14.72 9.6 14.61 9.62 14.49 9.59 14.53 9.73 14.44 9.74 14.35 9.66 14.44 9.51 14.33 9.52 14.25 9.5 14.19 9.46 14.16 9.4 14.38 9.33 14.26 9.29 14.14 9.29 13.93 9.32 13.98 9.42 14.02 9.5 14.08 9.57 14.21 9.64 14.17 9.7 14.2 9.78 14.16 9.83 14.05 9.79 14.02 9.7 13.91 9.72 13.81 9.68 13.66 9.54 13.63 9.6 13.65 9.65 13.7 9.71 13.78 9.76 13.62 9.86 13.57 9.9 13.71 9.88 13.88 9.89 14 9.88 14.1 9.89 14.16 9.96 14.13 10 14.04 10.03 13.94 10.01 13.96 10.06 13.99 10.11 14.03 10.16 14.08 10.2 13.77 10.08 13.64 10.04 13.58 10.12 13.71 10.14 13.62 10.2 13.83 10.28 13.94 10.31 14.08 10.3 14.13 10.38 13.96 10.4 13.77 10.39 13.44 10.36 13.54 10.44 13.7 10.48 13.87 10.5 14.04 10.54 13.86 10.6 13.92 10.66 13.86 10.7 13.74 10.69 13.63 10.62 13.62 10.7 13.67 10.75 13.73 10.8 13.81 10.84 13.73 10.86 13.82 10.94 13.71 10.95 13.62 10.93 13.53 10.9 13.4 10.88 13.29 10.86 13.27 10.81 13.29 10.74 13.22 10.66 13.18 10.56 13.12 10.45 12.98 10.36 12.97 10.6 12.91 10.7 12.71 10.72 12.69 10.67 12.54 10.59 12.47 10.54 12.39 10.59 12.36 10.63 12.36 10.68 12.36 10.72 12.38 10.8 12.36 10.86 12.28 10.84 12.14 10.79 12 10.74 11.89 10.68 11.82 10.51 11.73 10.39 11.71 10.32 11.7 10.03 11.72 9.96 11.67 9.86 11.62 9.81 11.6 9.75 11.6 9.65 11.79 9.58 12.03 9.41 12.37 9.3 12.53 9.23 13.35 8.76 13.37 8.6 13.51 8.44 13.53 8.32 13.51 8.21 13.54 8.1 13.7 8.01 13.82 8.06 13.91 8.16 13.95 8.26 14.03 8.36 14.2 8.46 14.41 8.53 14.6 8.56 14.78 8.52 14.98 8.43 15.17 8.38 15.36 8.41 15.51 8.42 15.7 8.35 15.82 8.24 15.78 8.13 15.67 8.27 15.44 8.28 15.2 8.24 15.03 8.25 14.81 8.35 14.73 8.37 14.61 8.39 14.53 8.39 14.44 8.37 14.32 8.37 14.21 8.34 14.19 8.25 14.19 8.16 14.15 8.09 13.95 7.83 14.01 7.72 14.06 7.67 13.92 7.64 13.74 7.66 13.65 7.7 13.62 7.76 13.38 7.84 13.28 7.88 13.22 7.94 13.14 8.14 13.06 8.21 13.05 8.27 13.07 8.5 13.04 8.6 12.92 8.7 12.77 8.76 12.41 8.86 12.11 8.99 11.99 9.01 11.81 9.02 11.61 9.04 11.42 9.11 11.28 9.21 11.17 9.31 11.15 9.36 11.14 9.48 10.96 9.59 10.9 9.63 10.87 9.68 10.87 9.92 10.8 10.04 10.87 10.35 10.86 10.41 10.76 10.51 10.65 10.78 10.57 10.88 10.22 11.2 10.19 11.26 10.18 11.33 10.04 11.6 9.94 11.7 9.53 11.3 9.42 11.1 9.57 11 9.7 10.97 9.77 10.94 9.83 10.9 9.65 10.94 9.37 10.95 9.24 11.03 9.21 11.14 9.3 11.22 9.42 11.3 9.62 11.67 9.59 11.73 9.43 11.79 9.32 11.75 9.12 11.58 9.06 11.68 9.14 11.76 9.27 11.84 9.35 11.93 9.24 12.08 9.21 12.14 9.21 12.21 9.04 12.22 8.89 12.15 8.79 12.05 8.66 11.85 8.38 11.57 8.33 11.5 8.28 11.21 8.19 10.96 8.19 10.89 8.22 10.8 8.31 10.69 8.42 10.58 8.54 10.52 8.61 10.52 8.7 10.54 8.8 10.56 8.88 10.54 9.03 10.46 9.1 10.44 9.18 10.42 9.11 10.35 9.06 10.27 9 10.2 8.9 10.21 8.88 10.31 8.85 10.4 8.73 10.46 8.54 10.46 8.45 10.47 8.38 10.49 8.1 10.69 7.99 10.72 7.86 10.7 7.88 10.82 7.83 10.93 7.71 11.04 7.59 11.13 7.66 11.14 7.65 11.22 7.72 11.28 7.79 11.34 7.83 11.42 7.82 11.53 7.77 11.6 7.29 11.89 7.25 11.94 7.18 12.05 7.14 12.09 7.13 12.18 7.13 12.24 7.06 12.29 6.98 12.32 6.87 12.32 6.65 12.32 6.53 12.43 6.27 12.53 6.01 12.59 5.86 12.59 5.42 12.5 5.32 12.51 5.12 12.6 5.01 12.63 4.89 12.62 4.76 12.6 4.64 12.56 4.42 12.45 4.18 12.39 4.07 12.35 3.86 12.01 3.84 11.92 3.85 11.84 3.88 11.77 3.93 11.7 4.02 11.74 4.11 11.76 4.16 11.67 4.12 11.63 3.96 11.61 3.89 11.56 3.85 11.46 3.89 11.35 3.97 11.25 4.17 10.8 4.18 10.69 4.17 10.62 4.13 10.51 4.14 10.45 4.17 10.39 4.28 10.29 4.32 10.24 4.14 10.34 4.07 10.43 4.07 10.54 4.1 10.66 4.06 10.79 3.78 11.03 3.7 11.14 3.62 11.35 3.61 11.43 3.64 11.7 3.46 11.75 3.35 11.67 3.25 11.55 3.11 11.48 3.18 11.55 3.22 11.68 3.43 11.85 3.46 11.94 3.4 12.02 3.21 12.06 3.22 12.11 3.03 12.11 3.1 12.17 3.09 12.23 3.02 12.28 2.92 12.34 2.93 12.41 2.58 12.51 2.48 12.52 2.37 12.5 2.28 12.47 2.2 12.47 1.87 12.46 1.49 12.46 1.39 12.48 1.3 12.58 1.02 12.59 0.93 12.58 0.49 12.61 0.38 12.63 0.28 12.69 0.24 12.75 0.2 12.81 0.15 12.87 0.05 12.87 0.09 12.72 0.27 12.54 1.24 12.06 1.35 11.98 1.6 11.73 1.94 11.54 2.06 11.38 2.3 10.9 2.51 10.49 2.56 10.44 2.65 10.41 2.85 10.36 3.38 9.9 3.62 9.78 4.18 9.61 4.34 9.55 4.82 9.23 6.1 8.57 6.28 8.41 7.17 6.99 7.26 6.61 7.48 6.27 7.58 5.89 7.67 5.74 7.84 5.62 8.16 5.43 9.98 4.38 10.52 4.07 12.87 2.72 13.49 2.36 15.23 1.36 17.58 0 17.97 0.29 18.14 0.37 18.38 0.44 19.14 0.49 19.35 0.53 19.48 0.58 19.57 0.66 19.74 0.89 19.78 0.93 19.86 0.98 20.08 1.09 20.15 1.14 20.22 1.25 20.38 1.36 20.44 1.53 20.32 1.68 19.88 1.94 19.81 1.81 19.67 1.85 19.53 1.98 19.47 2.1 19.45 2.27 19.24 2.61 19.25 2.79 19.3 2.84 19.45 2.92 19.5 2.98 19.58 2.97 19.77 2.88 19.95 2.83 20.15 2.8 20.41 2.79 20.53 2.79 20.77 2.71 20.91 2.74 21.01 2.76 21.32 2.77 21.45 2.75 21.6 2.72 21.87 2.6 21.97 2.58 22.15 2.61 22.28 2.68 22.5 2.87 22.76 3.04 23.66 3.44 23.78 3.51 24.03 3.7 24.09 3.77 24.06 3.88 23.97 4.01 23.83 4.13 23.68 4.2 23.59 4.19 23.55 4.15 23.39 4.17 23.3 4.18 23.13 4.11 23.03 4.13 22.94 4.18 23.05 4.24 23.2 4.33 23.25 4.39 23.29 4.51 23.24 4.61 23.11 4.69 22.9 4.74 22.89 4.79 22.77 5.05 22.69 5.15 22.36 5.29 22.25 5.36 22.09 5.49 22 5.54 21.87 5.59 21.77 5.61 21.67 5.61 21.56 5.63 21.48 5.66 21.35 5.75 20.77 6.06 20.63 6.15 20.64 6.21 20.72 6.35 20.75 6.41 20.73 6.5 20.45 7.05 20.19 7.58 19.96 7.77 19.35 8.05 19.11 8.23 19.04 8.37 19.05 8.52 19.36 9.46 19.52 9.66 19.91 10.04 20.51 11.13 20.55 11.4 20.56 11.63 20.48 11.88"/><polygon class="cls-60" points="0.2 12.81 0.16 29.12 0.11 29.18 0.15 12.87 0.2 12.81"/><polygon class="cls-32" points="0.15 12.87 0.11 29.18 0 29.17 0.05 12.87 0.15 12.87"/><polygon class="cls-51" points="14.42 13.06 14.38 29.36 14.23 29.34 14.28 13.04 14.42 13.06"/><polygon class="cls-35" points="14.54 13.07 14.5 29.38 14.38 29.36 14.42 13.06 14.54 13.07"/><polygon class="cls-90" points="14.55 13.04 14.5 29.34 14.5 29.38 14.54 13.07 14.55 13.04"/><polygon class="cls-18" points="14.28 13.04 14.23 29.34 14.13 29.39 14.18 13.09 14.28 13.04"/><polygon class="cls-5" points="13.74 13.16 13.7 29.46 13.63 29.34 13.68 13.04 13.74 13.16"/><polygon class="cls-5" points="10.08 13.16 10.03 29.47 9.97 29.36 10.01 13.05 10.08 13.16"/><polygon class="cls-5" points="13.75 13.18 13.7 29.48 13.7 29.46 13.74 13.16 13.75 13.18"/><polygon class="cls-11" points="11.48 13.11 11.43 29.41 11.36 29.51 11.4 13.21 11.48 13.11"/><polygon class="cls-46" points="13.65 13.27 13.61 29.57 13.58 29.55 13.63 13.24 13.65 13.27"/><polygon class="cls-5" points="10.17 13.28 10.13 29.58 10.03 29.47 10.08 13.16 10.17 13.28"/><polygon class="cls-79" points="14.27 13.29 14.23 29.6 14.19 29.59 14.24 13.29 14.27 13.29"/><polygon class="cls-17" points="14.36 13.3 14.31 29.6 14.23 29.6 14.27 13.29 14.36 13.3"/><polygon class="cls-59" points="14.37 13.24 14.32 29.55 14.31 29.6 14.36 13.3 14.37 13.24"/><polygon class="cls-95" points="13.74 13.3 13.7 29.61 13.61 29.57 13.65 13.27 13.74 13.3"/><polygon class="cls-46" points="13.77 13.33 13.72 29.63 13.7 29.61 13.74 13.3 13.77 13.33"/><polygon class="cls-12" points="14.24 13.29 14.19 29.59 14.14 29.66 14.18 13.35 14.24 13.29"/><polygon class="cls-86" points="10.27 13.36 10.22 29.66 10.13 29.58 10.17 13.28 10.27 13.36"/><polygon class="cls-19" points="11.4 13.21 11.36 29.51 11.28 29.67 11.33 13.36 11.4 13.21"/><polygon class="cls-4" points="11.02 13.42 10.97 29.73 10.92 29.75 10.97 13.45 11.02 13.42"/><polygon class="cls-62" points="11.22 13.47 11.17 29.77 10.97 29.73 11.02 13.42 11.22 13.47"/><polygon class="cls-49" points="11.33 13.36 11.28 29.67 11.17 29.77 11.22 13.47 11.33 13.36"/><polygon class="cls-5" points="13.78 13.49 13.73 29.8 13.72 29.63 13.77 13.33 13.78 13.49"/><polygon class="cls-58" points="13.81 13.51 13.77 29.82 13.73 29.8 13.78 13.49 13.81 13.51"/><polygon class="cls-28" points="13.96 13.47 13.91 29.78 13.77 29.82 13.81 13.51 13.96 13.47"/><polygon class="cls-5" points="13.98 13.52 13.93 29.82 13.91 29.78 13.96 13.47 13.98 13.52"/><polygon class="cls-17" points="11.03 13.53 10.98 29.83 10.94 29.83 10.98 13.53 11.03 13.53"/><polygon class="cls-17" points="10.89 13.53 10.84 29.83 10.8 29.83 10.84 13.53 10.89 13.53"/><polygon class="cls-36" points="10.98 13.53 10.94 29.83 10.84 29.83 10.89 13.53 10.98 13.53"/><polygon class="cls-62" points="14.46 13.55 14.41 29.86 14.37 29.85 14.41 13.54 14.46 13.55"/><polygon class="cls-29" points="14.52 13.56 14.47 29.86 14.41 29.86 14.46 13.55 14.52 13.56"/><polygon class="cls-5" points="10.25 13.55 10.21 29.85 10.19 29.67 10.23 13.37 10.25 13.55"/><polygon class="cls-83" points="14.55 13.56 14.51 29.87 14.47 29.86 14.52 13.56 14.55 13.56"/><polygon class="cls-31" points="14.41 13.54 14.37 29.85 14.34 29.87 14.38 13.57 14.41 13.54"/><polygon class="cls-60" points="14.38 13.57 14.34 29.87 14.32 29.89 14.37 13.58 14.38 13.57"/><polygon class="cls-4" points="14.37 13.58 14.32 29.89 14.32 29.89 14.36 13.59 14.37 13.58"/><polygon class="cls-56" points="14.36 13.59 14.32 29.89 14.28 29.9 14.32 13.6 14.36 13.59"/><polygon class="cls-4" points="14.32 13.6 14.28 29.9 14.23 29.92 14.28 13.62 14.32 13.6"/><polygon class="cls-5" points="13.96 13.65 13.91 29.95 13.91 29.9 13.96 13.6 13.96 13.65"/><polygon class="cls-90" points="10.88 13.59 10.84 29.89 10.82 29.96 10.87 13.66 10.88 13.59"/><polygon class="cls-97" points="14.06 13.69 14.01 29.99 13.91 29.95 13.96 13.65 14.06 13.69"/><polygon class="cls-30" points="14.2 13.72 14.15 30.02 14.01 29.99 14.06 13.69 14.2 13.72"/><polygon class="cls-91" points="14.42 13.06 14.28 13.04 14.18 13.09 14.23 13.12 14.28 13.09 14.32 13.12 14.36 13.2 14.37 13.24 14.36 13.3 14.27 13.29 14.24 13.29 14.18 13.35 14.29 13.38 14.39 13.43 14.49 13.5 14.55 13.56 14.52 13.56 14.46 13.55 14.41 13.54 14.38 13.57 14.37 13.58 14.36 13.59 14.32 13.6 14.28 13.62 14.29 13.7 14.2 13.72 14.06 13.69 13.96 13.65 13.96 13.6 13.98 13.52 13.96 13.47 13.81 13.51 13.78 13.49 13.77 13.33 13.74 13.3 13.65 13.27 13.63 13.24 13.65 13.22 13.71 13.2 13.75 13.18 13.74 13.16 13.68 13.04 13.79 12.92 13.96 12.82 14.08 12.77 14.19 12.85 14.44 12.96 14.55 13.04 14.54 13.07 14.42 13.06"/><polygon class="cls-56" points="14.29 13.7 14.25 30 14.15 30.02 14.2 13.72 14.29 13.7"/><polygon class="cls-23" points="10.87 13.66 10.82 29.96 10.8 30.02 10.84 13.72 10.87 13.66"/><polygon class="cls-75" points="10.8 13.76 10.75 30.07 10.6 30.05 10.65 13.75 10.8 13.76"/><polygon class="cls-69" points="10.84 13.72 10.8 30.02 10.75 30.07 10.8 13.76 10.84 13.72"/><polygon class="cls-91" points="10.87 13.66 10.84 13.72 10.8 13.76 10.65 13.75 10.26 13.79 10.16 13.76 10.25 13.55 10.23 13.37 10.27 13.36 10.17 13.28 10.08 13.16 10.01 13.05 10.03 12.98 10.1 12.89 10.09 12.71 10.18 12.67 10.3 12.73 10.42 12.74 10.48 12.71 10.42 12.65 10.58 12.65 10.74 12.77 10.88 12.76 10.93 12.88 11.08 12.99 11.27 13.07 11.48 13.11 11.4 13.21 11.33 13.36 11.22 13.47 11.02 13.42 10.97 13.45 11 13.47 11.01 13.5 11.03 13.53 10.98 13.53 10.89 13.53 10.84 13.53 10.88 13.59 10.87 13.66"/><polygon class="cls-45" points="10.26 13.79 10.21 30.09 10.11 30.06 10.16 13.76 10.26 13.79"/><polygon class="cls-27" points="10.65 13.75 10.6 30.05 10.21 30.09 10.26 13.79 10.65 13.75"/><polygon class="cls-5" points="12.88 13.9 12.83 30.2 12.71 30.02 12.76 13.71 12.88 13.9"/><polygon class="cls-20" points="13.52 13.89 13.48 30.19 13.32 30.29 13.37 13.99 13.52 13.89"/><polygon class="cls-91" points="13.52 13.89 13.37 13.99 13.08 14.02 12.88 13.9 12.76 13.71 12.77 13.54 12.94 13.44 13.04 13.46 13.22 13.64 13.5 13.81 13.52 13.89"/><polygon class="cls-58" points="13.08 14.02 13.03 30.32 12.83 30.2 12.88 13.9 13.08 14.02"/><polygon class="cls-60" points="13.37 13.99 13.32 30.29 13.03 30.32 13.08 14.02 13.37 13.99"/><polygon class="cls-76" points="9.45 14.2 9.4 30.5 9.39 30.54 9.44 14.24 9.45 14.2"/><polygon class="cls-5" points="8.09 14.3 8.04 30.6 8.01 30.38 8.06 14.08 8.09 14.3"/><polygon class="cls-5" points="12.89 14.37 12.84 30.67 12.82 30.58 12.87 14.28 12.89 14.37"/><polygon class="cls-5" points="8.93 14.37 8.88 30.67 8.82 30.58 8.86 14.28 8.93 14.37"/><polygon class="cls-90" points="9.49 14.34 9.44 30.64 9.43 30.67 9.48 14.37 9.49 14.34"/><polygon class="cls-28" points="9.48 14.37 9.43 30.67 9.38 30.71 9.43 14.41 9.48 14.37"/><polygon class="cls-72" points="12.96 14.42 12.91 30.73 12.84 30.67 12.89 14.37 12.96 14.42"/><polygon class="cls-88" points="8.7 14.39 8.66 30.69 8.63 30.73 8.68 14.43 8.7 14.39"/><polygon class="cls-4" points="8.68 14.43 8.63 30.73 8.56 30.77 8.61 14.47 8.68 14.43"/><polygon class="cls-73" points="13.15 14.49 13.11 30.79 12.91 30.73 12.96 14.42 13.15 14.49"/><polygon class="cls-4" points="9.43 14.41 9.38 30.71 9.12 30.8 9.16 14.5 9.43 14.41"/><polygon class="cls-32" points="8.61 14.47 8.56 30.77 8.53 30.83 8.58 14.52 8.61 14.47"/><polygon class="cls-74" points="13.26 14.55 13.21 30.85 13.11 30.79 13.15 14.49 13.26 14.55"/><polygon class="cls-21" points="8.58 14.52 8.53 30.83 8.51 30.85 8.55 14.55 8.58 14.52"/><polygon class="cls-4" points="9.16 14.5 9.12 30.8 8.98 30.89 9.02 14.58 9.16 14.5"/><polygon class="cls-72" points="13.33 14.6 13.29 30.9 13.21 30.85 13.26 14.55 13.33 14.6"/><polygon class="cls-32" points="8.56 14.57 8.52 30.88 8.51 30.9 8.55 14.6 8.56 14.57"/><polygon class="cls-2" points="8.3 14.6 8.25 30.9 8.21 30.9 8.25 14.6 8.3 14.6"/><polygon class="cls-49" points="8.55 14.6 8.51 30.9 8.44 30.91 8.48 14.61 8.55 14.6"/><polygon class="cls-29" points="8.48 14.61 8.44 30.91 8.25 30.9 8.3 14.6 8.48 14.61"/><polygon class="cls-34" points="13.74 14.63 13.7 30.93 13.59 30.9 13.64 14.6 13.74 14.63"/><polygon class="cls-64" points="13.64 14.6 13.59 30.9 13.49 30.93 13.54 14.63 13.64 14.6"/><polygon class="cls-60" points="8.25 14.6 8.21 30.9 8.19 30.92 8.24 14.62 8.25 14.6"/><polygon class="cls-18" points="9.02 14.58 8.98 30.89 8.89 30.93 8.94 14.62 9.02 14.58"/><polygon class="cls-32" points="14.23 14.58 14.19 30.88 14.15 30.95 14.2 14.64 14.23 14.58"/><polygon class="cls-5" points="13.38 14.66 13.34 30.96 13.29 30.9 13.33 14.6 13.38 14.66"/><polygon class="cls-91" points="9.49 14.34 9.48 14.37 9.43 14.41 9.16 14.5 9.02 14.58 8.94 14.62 8.81 14.66 8.83 14.58 8.89 14.48 8.93 14.37 8.86 14.28 8.87 14.2 8.99 14.07 9.16 13.95 9.29 13.89 9.39 13.91 9.44 13.96 9.45 14.2 9.44 14.24 9.45 14.27 9.47 14.3 9.49 14.34"/><polygon class="cls-31" points="8.94 14.62 8.89 30.93 8.76 30.96 8.81 14.66 8.94 14.62"/><polygon class="cls-7" points="13.54 14.63 13.49 30.93 13.46 30.99 13.51 14.69 13.54 14.63"/><polygon class="cls-20" points="14.2 14.64 14.15 30.95 14.07 31 14.11 14.7 14.2 14.64"/><polygon class="cls-20" points="14.11 14.7 14.07 31 13.98 31.03 14.03 14.73 14.11 14.7"/><polygon class="cls-5" points="13.42 14.76 13.38 31.06 13.34 30.96 13.38 14.66 13.42 14.76"/><polygon class="cls-36" points="13.61 14.76 13.57 31.06 13.47 31.06 13.52 14.76 13.61 14.76"/><polygon class="cls-32" points="13.52 14.76 13.47 31.06 13.38 31.06 13.42 14.76 13.52 14.76"/><polygon class="cls-51" points="14.03 14.73 13.98 31.03 13.96 31.08 14.01 14.78 14.03 14.73"/><polygon class="cls-4" points="14.01 14.78 13.96 31.08 13.89 31.12 13.94 14.82 14.01 14.78"/><polygon class="cls-4" points="8.24 14.62 8.19 30.92 7.84 31.11 7.89 14.81 8.24 14.62"/><polygon class="cls-25" points="7.62 14.81 7.57 31.12 7.47 31.13 7.52 14.83 7.62 14.81"/><polygon class="cls-5" points="12.38 14.85 12.34 31.15 12.29 31.05 12.33 14.75 12.38 14.85"/><polygon class="cls-31" points="7.52 14.83 7.47 31.13 7.42 31.14 7.47 14.84 7.52 14.83"/><polygon class="cls-5" points="7.62 14.85 7.57 31.16 7.57 31.12 7.62 14.81 7.62 14.85"/><polygon class="cls-5" points="7.63 14.87 7.58 31.17 7.57 31.16 7.62 14.85 7.63 14.87"/><polygon class="cls-63" points="7.89 14.81 7.84 31.11 7.84 31.18 7.88 14.88 7.89 14.81"/><polygon class="cls-4" points="12.79 14.81 12.74 31.11 12.59 31.2 12.63 14.9 12.79 14.81"/><polygon class="cls-4" points="13.94 14.82 13.89 31.12 13.68 31.21 13.73 14.9 13.94 14.82"/><polygon class="cls-84" points="12.63 14.9 12.59 31.2 12.45 31.21 12.49 14.9 12.63 14.9"/><polygon class="cls-74" points="12.49 14.9 12.45 31.21 12.34 31.15 12.38 14.85 12.49 14.9"/><polygon class="cls-30" points="7.75 14.89 7.71 31.2 7.58 31.17 7.63 14.87 7.75 14.89"/><polygon class="cls-5" points="10.41 14.91 10.37 31.21 10.36 31.16 10.4 14.85 10.41 14.91"/><polygon class="cls-5" points="12.83 14.91 12.78 31.22 12.74 31.11 12.79 14.81 12.83 14.91"/><polygon class="cls-99" points="11.14 14.85 11.1 31.16 11.05 31.22 11.1 14.91 11.14 14.85"/><polygon class="cls-5" points="13.55 14.93 13.5 31.24 13.5 31.21 13.55 14.91 13.55 14.93"/><polygon class="cls-51" points="7.88 14.88 7.84 31.18 7.82 31.23 7.87 14.93 7.88 14.88"/><polygon class="cls-5" points="7.78 14.94 7.73 31.24 7.71 31.2 7.75 14.89 7.78 14.94"/><polygon class="cls-46" points="13.57 14.96 13.53 31.26 13.5 31.24 13.55 14.93 13.57 14.96"/><polygon class="cls-17" points="13.73 14.92 13.69 31.23 13.67 31.27 13.71 14.96 13.73 14.92"/><polygon class="cls-100" points="12.93 14.96 12.88 31.27 12.78 31.22 12.83 14.91 12.93 14.96"/><polygon class="cls-23" points="11.1 14.91 11.05 31.22 11.03 31.28 11.07 14.97 11.1 14.91"/><polygon class="cls-58" points="13.63 14.99 13.59 31.29 13.53 31.26 13.57 14.96 13.63 14.99"/><polygon class="cls-30" points="13.05 14.99 13 31.29 12.88 31.27 12.93 14.96 13.05 14.99"/><polygon class="cls-5" points="7.8 14.97 7.76 31.28 7.73 31.24 7.78 14.94 7.8 14.97"/><polygon class="cls-91" points="8.55 14.55 8.56 14.57 8.55 14.6 8.48 14.61 8.3 14.6 8.25 14.6 8.24 14.62 7.89 14.81 7.88 14.88 7.87 14.93 7.8 14.97 7.78 14.94 7.75 14.89 7.63 14.87 7.62 14.85 7.62 14.81 7.52 14.83 7.47 14.84 7.6 14.63 7.86 14.46 8.09 14.3 8.06 14.08 8.1 14.06 8.11 14.06 8.12 14.07 8.15 14.07 8.21 14.04 8.24 14.02 8.28 13.98 8.29 13.95 8.33 13.94 8.36 13.95 8.42 13.97 8.52 14.05 8.57 14.14 8.61 14.29 8.65 14.34 8.68 14.36 8.7 14.39 8.68 14.43 8.61 14.47 8.58 14.52 8.55 14.55"/><polygon class="cls-3" points="7.87 14.93 7.82 31.23 7.76 31.28 7.8 14.97 7.87 14.93"/><polygon class="cls-91" points="14.2 14.64 14.11 14.7 14.03 14.73 14.01 14.78 13.94 14.82 13.73 14.9 13.73 14.92 13.71 14.96 13.69 14.99 13.63 14.99 13.57 14.96 13.55 14.93 13.55 14.91 13.59 14.88 13.64 14.83 13.74 14.67 13.74 14.63 13.64 14.6 13.54 14.63 13.51 14.69 13.61 14.76 13.52 14.76 13.42 14.76 13.38 14.66 13.33 14.6 13.26 14.55 13.15 14.49 12.96 14.42 12.89 14.37 12.87 14.28 13.09 14.26 13.33 14.28 13.55 14.33 13.9 14.47 14.01 14.48 14.1 14.49 14.18 14.51 14.23 14.58 14.2 14.64"/><polygon class="cls-29" points="13.69 14.99 13.64 31.3 13.59 31.29 13.63 14.99 13.69 14.99"/><polygon class="cls-60" points="13.71 14.96 13.67 31.27 13.64 31.3 13.69 14.99 13.71 14.96"/><polygon class="cls-82" points="13.18 15.04 13.13 31.34 13 31.29 13.05 14.99 13.18 15.04"/><polygon class="cls-53" points="11.92 15.04 11.88 31.35 11.73 31.24 11.77 14.94 11.92 15.04"/><polygon class="cls-4" points="12.75 14.99 12.7 31.3 12.61 31.35 12.65 15.05 12.75 14.99"/><polygon class="cls-34" points="13.29 15.06 13.24 31.36 13.13 31.34 13.18 15.04 13.29 15.06"/><polygon class="cls-47" points="13.31 14.99 13.27 31.29 13.24 31.36 13.29 15.06 13.31 14.99"/><polygon class="cls-91" points="13.29 14.81 13.31 14.99 13.29 15.06 13.18 15.04 13.05 14.99 12.93 14.96 12.83 14.91 12.79 14.81 12.63 14.9 12.49 14.9 12.38 14.85 12.33 14.75 12.35 14.65 12.59 14.39 12.68 14.4 12.78 14.45 12.96 14.54 13.17 14.65 13.25 14.71 13.29 14.81"/><polygon class="cls-5" points="11.72 15.14 11.68 31.44 11.65 31.37 11.69 15.07 11.72 15.14"/><polygon class="cls-5" points="10.25 15.19 10.2 31.49 10.19 31.38 10.23 15.08 10.25 15.19"/><polygon class="cls-74" points="10.37 15.25 10.32 31.55 10.2 31.49 10.25 15.19 10.37 15.25"/><polygon class="cls-3" points="11.23 15.07 11.18 31.37 10.79 31.64 10.83 15.34 11.23 15.07"/><polygon class="cls-5" points="10.32 15.35 10.28 31.65 10.28 31.6 10.32 15.3 10.32 15.35"/><polygon class="cls-18" points="10.83 15.34 10.79 31.64 10.69 31.69 10.74 15.38 10.83 15.34"/><polygon class="cls-16" points="11.85 15.4 11.81 31.7 11.63 31.54 11.67 15.24 11.85 15.4"/><polygon class="cls-5" points="10.36 15.4 10.32 31.7 10.28 31.65 10.32 15.35 10.36 15.4"/><polygon class="cls-81" points="13.16 15.28 13.12 31.59 13.07 31.72 13.11 15.42 13.16 15.28"/><polygon class="cls-56" points="10.74 15.38 10.69 31.69 10.43 31.74 10.47 15.43 10.74 15.38"/><polygon class="cls-91" points="11.11 15.03 11.23 15.07 10.83 15.34 10.74 15.38 10.47 15.43 10.44 15.45 10.36 15.4 10.32 15.35 10.32 15.3 10.37 15.25 10.25 15.19 10.23 15.08 10.3 14.96 10.41 14.91 10.4 14.85 10.54 14.86 10.63 14.82 10.7 14.77 10.81 14.72 10.89 14.73 11 14.77 11.1 14.82 11.14 14.85 11.1 14.91 11.07 14.97 11.11 15.03"/><polygon class="cls-4" points="10.47 15.43 10.43 31.74 10.39 31.76 10.44 15.45 10.47 15.43"/><polygon class="cls-101" points="10.44 15.45 10.39 31.76 10.32 31.7 10.36 15.4 10.44 15.45"/><polygon class="cls-20" points="13.11 15.42 13.07 31.72 12.96 31.79 13.01 15.49 13.11 15.42"/><polygon class="cls-88" points="11.74 15.47 11.69 31.77 11.64 31.84 11.69 15.54 11.74 15.47"/><polygon class="cls-4" points="12.56 15.52 12.51 31.83 12.48 31.85 12.52 15.54 12.56 15.52"/><polygon class="cls-18" points="13.01 15.49 12.96 31.79 12.83 31.86 12.88 15.55 13.01 15.49"/><polygon class="cls-44" points="12.61 15.57 12.56 31.87 12.51 31.83 12.56 15.52 12.61 15.57"/><polygon class="cls-64" points="11.69 15.54 11.64 31.84 11.6 31.87 11.65 15.57 11.69 15.54"/><polygon class="cls-5" points="11.8 15.6 11.76 31.9 11.75 31.83 11.8 15.53 11.8 15.6"/><polygon class="cls-16" points="12.65 15.61 12.6 31.91 12.56 31.87 12.61 15.57 12.65 15.61"/><polygon class="cls-82" points="12.72 15.64 12.67 31.94 12.6 31.91 12.65 15.61 12.72 15.64"/><polygon class="cls-45" points="12.8 15.66 12.75 31.96 12.67 31.94 12.72 15.64 12.8 15.66"/><polygon class="cls-84" points="12.88 15.55 12.83 31.86 12.75 31.96 12.8 15.66 12.88 15.55"/><polygon class="cls-3" points="12.71 15.71 12.67 32.01 12.56 32.04 12.61 15.74 12.71 15.71"/><polygon class="cls-75" points="12.56 15.74 12.52 32.05 12.44 32.04 12.48 15.74 12.56 15.74"/><polygon class="cls-2" points="12.61 15.74 12.56 32.04 12.52 32.05 12.56 15.74 12.61 15.74"/><polygon class="cls-5" points="11.52 15.81 11.47 32.11 11.47 32.01 11.52 15.71 11.52 15.81"/><polygon class="cls-28" points="12.48 15.74 12.44 32.04 12.3 32.14 12.35 15.84 12.48 15.74"/><polygon class="cls-47" points="11.77 15.85 11.72 32.15 11.47 32.11 11.52 15.81 11.77 15.85"/><polygon class="cls-43" points="12.35 15.84 12.3 32.14 12.04 32.17 12.09 15.87 12.35 15.84"/><polygon class="cls-41" points="12.09 15.87 12.04 32.17 11.72 32.15 11.77 15.85 12.09 15.87"/><polygon class="cls-91" points="12.61 15.57 12.56 15.52 12.52 15.54 12.58 15.68 12.71 15.71 12.61 15.74 12.56 15.74 12.48 15.74 12.35 15.84 12.09 15.87 11.77 15.85 11.52 15.81 11.52 15.71 11.55 15.6 11.62 15.51 11.74 15.47 11.69 15.54 11.65 15.57 11.7 15.58 11.71 15.59 11.75 15.6 11.8 15.6 11.8 15.53 11.84 15.47 11.85 15.4 11.67 15.24 11.69 15.18 11.72 15.14 11.69 15.07 11.76 15.07 11.92 15.04 11.77 14.94 11.8 14.84 11.95 14.77 12.15 14.76 12.24 14.76 12.26 14.79 12.26 14.84 12.31 14.9 12.42 14.95 12.51 14.97 12.75 14.99 12.65 15.05 12.7 15.08 12.89 15.11 12.99 15.2 13.06 15.28 13.16 15.28 13.11 15.42 13.01 15.49 12.88 15.55 12.8 15.66 12.72 15.64 12.65 15.61 12.61 15.57"/></g></g></g></svg>