<svg xmlns="http://www.w3.org/2000/svg" viewBox="0 0 94.51 66.01"><defs><style>.cls-1{isolation:isolate;}.cls-2{fill:#641919;}.cls-3{fill:#641818;}.cls-4{fill:#651919;}.cls-5{fill:#481212;}.cls-6{fill:#4e1313;}.cls-7{fill:#4c1313;}.cls-8{fill:#a92929;}.cls-9{fill:#a82929;}.cls-10{fill:#791e1e;}.cls-11{fill:#922424;}.cls-12{fill:#7b1e1e;}.cls-13{fill:#902323;}.cls-14{fill:#a02727;}.cls-15{fill:#7d1f1f;}.cls-16{fill:#8a2222;}.cls-17{fill:#a42828;}.cls-18{fill:#771d1d;}.cls-19{fill:#a72929;}.cls-20{fill:#942424;}.cls-21{fill:#9a2626;}.cls-22{fill:#761d1d;}.cls-23{fill:#892222;}.cls-24{fill:#962525;}.cls-25{fill:#611818;}.cls-26{fill:#972525;}.cls-27{fill:#c83131;}.cls-28{fill:#a22828;}.cls-29{fill:#551515;}.cls-30{fill:#491212;}.cls-31{fill:#6c1a1a;}.cls-32{fill:#912424;}.cls-33{fill:#882121;}.cls-34{fill:#a12727;}.cls-35{fill:#a52828;}.cls-36{fill:#7f1f1f;}.cls-37{fill:#872121;}.cls-38{fill:#531414;}.cls-39{fill:#691a1a;}.cls-40{fill:#a62929;}.cls-41{fill:#4a1212;}.cls-42{fill:#8d2222;}.cls-43{fill:#6d1b1b;}.cls-44{fill:#701b1b;}.cls-45{fill:#9c2626;}.cls-46{fill:#671919;}.cls-47{fill:#982525;}.cls-48{fill:#4b1212;}.cls-49{fill:#721c1c;}.cls-50{fill:#6e1b1b;}.cls-51{fill:#5a1616;}.cls-52{fill:#6a1a1a;}.cls-53{fill:#731c1c;}.cls-54{fill:#681919;}.cls-55{fill:#a32828;}.cls-56{fill:#4f1313;}.cls-57{fill:#681a1a;}.cls-58{fill:#7e1f1f;}.cls-59{fill:#9e2727;}.cls-60{fill:#a52929;}.cls-61{fill:#992525;}.cls-62{fill:#6b1a1a;}.cls-63{fill:#571515;}</style></defs><title>Kenya</title><g id="Layer_2" data-name="Layer 2"><g id="Layer_1-2" data-name="Layer 1"><g class="cls-1"><polygon class="cls-2" points="55.51 5.05 55.46 21.36 55.45 21.98 55.5 5.68 55.51 5.05"/><polygon class="cls-3" points="55.5 5.68 55.45 21.98 55.45 22.61 55.5 6.31 55.5 5.68"/><polygon class="cls-3" points="55.5 6.31 55.45 22.61 55.45 23.24 55.49 6.93 55.5 6.31"/><polygon class="cls-2" points="55.49 6.93 55.45 23.24 55.44 23.86 55.49 7.56 55.49 6.93"/><polygon class="cls-4" points="55.49 7.56 55.44 23.86 55.44 24.13 55.48 7.82 55.49 7.56"/><polygon class="cls-5" points="41.24 8.42 41.2 24.72 41.17 24.55 41.22 8.25 41.24 8.42"/><polygon class="cls-5" points="41.45 8.7 41.41 25 41.2 24.72 41.24 8.42 41.45 8.7"/><polygon class="cls-5" points="41.76 9.09 41.72 25.39 41.41 25 41.45 8.7 41.76 9.09"/><polygon class="cls-5" points="41.86 9.27 41.81 25.57 41.72 25.39 41.76 9.09 41.86 9.27"/><polygon class="cls-5" points="41.9 9.44 41.85 25.74 41.81 25.57 41.86 9.27 41.9 9.44"/><polygon class="cls-5" points="41.85 10.72 41.8 27.02 41.77 26.8 41.81 10.5 41.85 10.72"/><polygon class="cls-5" points="42.15 11.05 42.1 27.36 41.8 27.02 41.85 10.72 42.15 11.05"/><polygon class="cls-5" points="42.21 11.22 42.16 27.52 42.1 27.36 42.15 11.05 42.21 11.22"/><polygon class="cls-6" points="8.82 21.29 8.77 37.59 8.53 37.41 8.58 21.11 8.82 21.29"/><polygon class="cls-7" points="8.99 21.43 8.94 37.73 8.77 37.59 8.82 21.29 8.99 21.43"/><polygon class="cls-2" points="89.32 23.96 89.27 40.27 89.27 40.9 89.31 24.6 89.32 23.96"/><polygon class="cls-8" points="89.37 24.9 89.32 41.21 88.54 41.56 88.59 25.25 89.37 24.9"/><polygon class="cls-9" points="88.6 25.59 88.56 41.89 88.24 42.01 88.29 25.7 88.6 25.59"/><polygon class="cls-10" points="88.29 25.7 88.24 42.01 88.16 42.27 88.2 25.97 88.29 25.7"/><polygon class="cls-11" points="88.2 25.97 88.16 42.27 88.05 42.42 88.1 26.12 88.2 25.97"/><polygon class="cls-12" points="87.33 26.13 87.29 42.44 86.94 42.38 86.98 26.08 87.33 26.13"/><polygon class="cls-13" points="88.1 26.12 88.05 42.42 87.29 42.44 87.33 26.13 88.1 26.12"/><polygon class="cls-14" points="89.42 26.07 89.37 42.37 89.27 42.46 89.32 26.15 89.42 26.07"/><polygon class="cls-15" points="89.32 26.15 89.27 42.46 89.04 42.42 89.08 26.12 89.32 26.15"/><polygon class="cls-5" points="88.33 26.22 88.29 42.52 88.28 42.43 88.33 26.12 88.33 26.22"/><polygon class="cls-16" points="89.26 26.26 89.21 42.56 89.19 42.59 89.24 26.29 89.26 26.26"/><polygon class="cls-12" points="89.24 26.29 89.19 42.59 89.19 42.61 89.23 26.31 89.24 26.29"/><polygon class="cls-5" points="88.4 26.33 88.36 42.63 88.29 42.52 88.33 26.22 88.4 26.33"/><polygon class="cls-17" points="89.23 26.34 89.19 42.65 89.15 42.68 89.19 26.38 89.23 26.34"/><polygon class="cls-18" points="89.02 26.39 88.97 42.69 88.95 42.69 89 26.39 89.02 26.39"/><polygon class="cls-19" points="89.19 26.38 89.15 42.68 89.09 42.7 89.14 26.39 89.19 26.38"/><polygon class="cls-20" points="89.14 26.39 89.09 42.7 89.02 42.7 89.07 26.4 89.14 26.39"/><polygon class="cls-15" points="89.07 26.4 89.02 42.7 88.97 42.69 89.02 26.39 89.07 26.4"/><polygon class="cls-17" points="89 26.39 88.95 42.69 88.87 42.75 88.92 26.45 89 26.39"/><polygon class="cls-21" points="88.92 26.45 88.87 42.75 88.79 42.84 88.84 26.54 88.92 26.45"/><polygon class="cls-22" points="87.77 26.73 87.72 43.03 86.98 42.88 87.03 26.58 87.77 26.73"/><polygon class="cls-23" points="88.84 26.54 88.79 42.84 88.67 43.06 88.72 26.75 88.84 26.54"/><polygon class="cls-24" points="88.72 26.75 88.67 43.06 88.57 43.06 88.62 26.76 88.72 26.75"/><polygon class="cls-14" points="88.62 26.76 88.57 43.06 88.53 43.11 88.57 26.8 88.62 26.76"/><polygon class="cls-5" points="88.23 26.81 88.19 43.12 88.14 42.98 88.18 26.67 88.23 26.81"/><polygon class="cls-5" points="88.37 26.98 88.32 43.28 88.19 43.12 88.23 26.81 88.37 26.98"/><polygon class="cls-25" points="88.73 27 88.68 43.3 88.59 43.27 88.64 26.96 88.73 27"/><polygon class="cls-8" points="89 26.97 88.95 43.27 88.86 43.32 88.91 27.01 89 26.97"/><polygon class="cls-18" points="88.82 27.02 88.78 43.32 88.68 43.3 88.73 27 88.82 27.02"/><polygon class="cls-26" points="88.91 27.01 88.86 43.32 88.78 43.32 88.82 27.02 88.91 27.01"/><polygon class="cls-27" points="88.4 26.33 88.33 26.22 88.33 26.12 88.51 26.02 88.77 25.95 88.99 25.91 89.33 25.96 89.42 26.07 89.32 26.15 89.08 26.12 89.17 26.16 89.23 26.2 89.26 26.26 89.24 26.29 89.23 26.31 89.23 26.32 89.23 26.34 89.19 26.38 89.14 26.39 89.07 26.4 89.02 26.39 89 26.39 88.92 26.45 88.84 26.54 88.72 26.75 88.62 26.76 88.57 26.8 88.58 26.86 88.66 26.92 88.75 26.93 88.86 26.92 88.95 26.91 89 26.97 88.91 27.01 88.82 27.02 88.73 27 88.64 26.96 88.52 27.06 88.37 26.98 88.23 26.81 88.18 26.67 88.23 26.56 88.34 26.45 88.4 26.33"/><polygon class="cls-28" points="88.64 26.96 88.59 43.27 88.47 43.37 88.52 27.06 88.64 26.96"/><polygon class="cls-29" points="88.52 27.06 88.47 43.37 88.32 43.28 88.37 26.98 88.52 27.06"/><polygon class="cls-26" points="89.22 27.52 89.18 43.82 88.54 43.87 88.59 27.57 89.22 27.52"/><polygon class="cls-30" points="89.33 27.63 89.29 43.94 89.18 43.82 89.22 27.52 89.33 27.63"/><polygon class="cls-9" points="88.59 27.57 88.54 43.87 88.15 44.1 88.2 27.8 88.59 27.57"/><polygon class="cls-31" points="88.23 27.99 88.18 44.29 88.17 44.44 88.21 28.14 88.23 27.99"/><polygon class="cls-5" points="0.05 27.93 0 44.23 0.01 43.46 0.05 27.16 0.05 27.93"/><polygon class="cls-10" points="89.07 28.67 89.03 44.97 88.96 45.18 89.01 28.88 89.07 28.67"/><polygon class="cls-5" points="0.05 28.7 0 45 0 44.23 0.05 27.93 0.05 28.7"/><polygon class="cls-32" points="89.01 28.88 88.96 45.18 88.79 45.43 88.83 29.13 89.01 28.88"/><polygon class="cls-33" points="0.83 29.43 0.78 45.74 0.28 45.71 0.33 29.41 0.83 29.43"/><polygon class="cls-5" points="0.05 29.47 0 45.77 0 45 0.05 28.7 0.05 29.47"/><polygon class="cls-34" points="0.33 29.41 0.28 45.71 0 45.77 0.05 29.47 0.33 29.41"/><polygon class="cls-20" points="88.91 29.64 88.86 45.94 88.72 46.13 88.77 29.82 88.91 29.64"/><polygon class="cls-9" points="88.77 29.82 88.72 46.13 88.47 46.22 88.52 29.92 88.77 29.82"/><polygon class="cls-28" points="88.52 29.92 88.47 46.22 88.19 46.28 88.23 29.98 88.52 29.92"/><polygon class="cls-19" points="88.23 29.98 88.19 46.28 87.93 46.38 87.97 30.07 88.23 29.98"/><polygon class="cls-11" points="6.95 29.86 6.9 46.16 5.76 46.2 5.81 29.9 6.95 29.86"/><polygon class="cls-35" points="87.97 30.07 87.93 46.38 87.74 46.52 87.78 30.21 87.97 30.07"/><polygon class="cls-9" points="5.81 29.9 5.76 46.2 5.46 46.38 5.5 30.08 5.81 29.9"/><polygon class="cls-36" points="4.71 30.14 4.66 46.44 3.92 46.35 3.96 30.05 4.71 30.14"/><polygon class="cls-14" points="5.5 30.08 5.46 46.38 5.01 46.46 5.05 30.16 5.5 30.08"/><polygon class="cls-37" points="5.05 30.16 5.01 46.46 4.66 46.44 4.71 30.14 5.05 30.16"/><polygon class="cls-38" points="7.46 30.18 7.41 46.48 6.9 46.16 6.95 29.86 7.46 30.18"/><polygon class="cls-39" points="3.31 30.24 3.27 46.54 0.78 45.74 0.83 29.43 3.31 30.24"/><polygon class="cls-40" points="3.96 30.05 3.92 46.35 3.27 46.54 3.31 30.24 3.96 30.05"/><polygon class="cls-41" points="7.66 30.37 7.62 46.67 7.41 46.48 7.46 30.18 7.66 30.37"/><polygon class="cls-21" points="87.78 30.21 87.74 46.52 87.28 47.03 87.32 30.72 87.78 30.21"/><polygon class="cls-18" points="87.32 30.72 87.28 47.03 87.2 47.3 87.25 31 87.32 30.72"/><polygon class="cls-42" points="87.25 31 87.2 47.3 87.01 47.61 87.06 31.31 87.25 31"/><polygon class="cls-6" points="8.71 31.15 8.66 47.45 7.62 46.67 7.66 30.37 8.71 31.15"/><polygon class="cls-43" points="9.06 31.25 9.02 47.55 8.66 47.45 8.71 31.15 9.06 31.25"/><polygon class="cls-44" points="87.06 31.31 87.01 47.61 86.95 47.96 87 31.65 87.06 31.31"/><polygon class="cls-45" points="11.23 31.58 11.19 47.88 10.34 48 10.39 31.7 11.23 31.58"/><polygon class="cls-46" points="10.39 31.7 10.34 48 9.02 47.55 9.06 31.25 10.39 31.7"/><polygon class="cls-47" points="14.26 31.83 14.22 48.13 13.71 48.18 13.76 31.88 14.26 31.83"/><polygon class="cls-31" points="14.81 31.99 14.77 48.29 14.22 48.13 14.26 31.83 14.81 31.99"/><polygon class="cls-4" points="12.61 32.07 12.56 48.37 11.19 47.88 11.23 31.58 12.61 32.07"/><polygon class="cls-16" points="13.06 32.09 13.01 48.39 12.56 48.37 12.61 32.07 13.06 32.09"/><polygon class="cls-40" points="13.76 31.88 13.71 48.18 13.01 48.39 13.06 32.09 13.76 31.88"/><polygon class="cls-13" points="16.77 32.24 16.72 48.55 15.44 48.56 15.49 32.26 16.77 32.24"/><polygon class="cls-25" points="15.49 32.26 15.44 48.56 14.77 48.29 14.81 31.99 15.49 32.26"/><polygon class="cls-25" points="17.3 32.47 17.26 48.77 16.72 48.55 16.77 32.24 17.3 32.47"/><polygon class="cls-48" points="18.01 33.09 17.97 49.39 17.26 48.77 17.3 32.47 18.01 33.09"/><polygon class="cls-25" points="18.32 33.21 18.27 49.52 17.97 49.39 18.01 33.09 18.32 33.21"/><polygon class="cls-49" points="19.19 33.42 19.15 49.73 18.27 49.52 18.32 33.21 19.19 33.42"/><polygon class="cls-49" points="19.6 33.52 19.55 49.82 19.15 49.73 19.19 33.42 19.6 33.52"/><polygon class="cls-50" points="20.75 33.84 20.7 50.14 19.55 49.82 19.6 33.52 20.75 33.84"/><polygon class="cls-51" points="21.69 34.3 21.64 50.6 20.7 50.14 20.75 33.84 21.69 34.3"/><polygon class="cls-12" points="22.15 34.37 22.1 50.68 21.64 50.6 21.69 34.3 22.15 34.37"/><polygon class="cls-5" points="22.23 34.6 22.19 50.9 22.1 50.68 22.15 34.37 22.23 34.6"/><polygon class="cls-52" points="90.07 35.28 90.03 51.58 89.67 51.47 89.71 35.17 90.07 35.28"/><polygon class="cls-2" points="90.08 35 90.03 51.3 90.03 51.58 90.07 35.28 90.08 35"/><polygon class="cls-38" points="23.62 35.45 23.57 51.75 22.19 50.9 22.23 34.6 23.62 35.45"/><polygon class="cls-5" points="23.69 36.18 23.65 52.49 23.57 51.75 23.62 35.45 23.69 36.18"/><polygon class="cls-5" points="23.77 36.41 23.73 52.71 23.65 52.49 23.69 36.18 23.77 36.41"/><polygon class="cls-30" points="24.16 36.79 24.12 53.09 23.73 52.71 23.77 36.41 24.16 36.79"/><polygon class="cls-5" points="24.36 37.33 24.31 53.63 24.12 53.09 24.16 36.79 24.36 37.33"/><polygon class="cls-53" points="24.74 37.42 24.69 53.72 24.31 53.63 24.36 37.33 24.74 37.42"/><polygon class="cls-54" points="25.07 37.53 25.02 53.83 24.69 53.72 24.74 37.42 25.07 37.53"/><polygon class="cls-5" points="25.25 37.74 25.2 54.04 25.02 53.83 25.07 37.53 25.25 37.74"/><polygon class="cls-4" points="92.31 38.23 92.27 54.53 92.26 54.73 92.31 38.42 92.31 38.23"/><polygon class="cls-55" points="92.31 38.42 92.26 54.73 92.11 54.86 92.15 38.55 92.31 38.42"/><polygon class="cls-49" points="92.15 38.55 92.11 54.86 91.65 54.75 91.69 38.44 92.15 38.55"/><polygon class="cls-35" points="92.5 38.83 92.45 55.14 91.52 55.39 91.56 39.09 92.5 38.83"/><polygon class="cls-5" points="24.43 39.82 24.38 56.12 24.14 55.65 24.18 39.35 24.43 39.82"/><polygon class="cls-56" points="24.81 40.09 24.77 56.4 24.38 56.12 24.43 39.82 24.81 40.09"/><polygon class="cls-5" points="25.07 40.44 25.02 56.74 24.77 56.4 24.81 40.09 25.07 40.44"/><polygon class="cls-5" points="25.12 40.69 25.07 56.99 25.02 56.74 25.07 40.44 25.12 40.69"/><polygon class="cls-5" points="25.28 41.02 25.23 57.33 25.07 56.99 25.12 40.69 25.28 41.02"/><polygon class="cls-5" points="25.44 41.85 25.4 58.15 25.22 57.92 25.27 41.62 25.44 41.85"/><polygon class="cls-51" points="94.51 42.07 94.46 58.37 94.12 58.2 94.16 41.9 94.51 42.07"/><polygon class="cls-5" points="25.46 42.04 25.41 58.34 25.4 58.15 25.44 41.85 25.46 42.04"/><polygon class="cls-19" points="94.27 42.6 94.22 58.91 93.9 59.02 93.95 42.72 94.27 42.6"/><polygon class="cls-37" points="93.95 42.72 93.9 59.02 93.55 59 93.59 42.69 93.95 42.72"/><polygon class="cls-26" points="93.59 42.69 93.55 59 93.4 59.18 93.44 42.88 93.59 42.69"/><polygon class="cls-5" points="25.23 42.82 25.18 59.13 25.07 58.93 25.12 42.63 25.23 42.82"/><polygon class="cls-57" points="93.44 42.88 93.4 59.18 93.38 59.34 93.43 43.04 93.44 42.88"/><polygon class="cls-58" points="72.65 43.16 72.6 59.47 72.33 59.43 72.38 43.13 72.65 43.16"/><polygon class="cls-59" points="72.38 43.13 72.33 59.43 71.49 59.58 71.53 43.27 72.38 43.13"/><polygon class="cls-60" points="93.5 43.22 93.45 59.52 92.41 59.83 92.45 43.53 93.5 43.22"/><polygon class="cls-59" points="71.53 43.27 71.49 59.58 70.06 59.81 70.11 43.51 71.53 43.27"/><polygon class="cls-25" points="73.58 43.55 73.54 59.86 72.6 59.47 72.65 43.16 73.58 43.55"/><polygon class="cls-47" points="92.45 43.53 92.41 59.83 91.43 59.92 91.48 43.62 92.45 43.53"/><polygon class="cls-59" points="70.11 43.51 70.06 59.81 69.27 59.94 69.31 43.64 70.11 43.51"/><polygon class="cls-47" points="91.48 43.62 91.43 59.92 90.46 60.01 90.51 43.71 91.48 43.62"/><polygon class="cls-47" points="90.51 43.71 90.46 60.01 89.49 60.11 89.53 43.8 90.51 43.71"/><polygon class="cls-5" points="25.96 43.67 25.91 59.97 25.18 59.13 25.23 42.82 25.96 43.67"/><polygon class="cls-47" points="89.53 43.8 89.49 60.11 88.51 60.2 88.56 43.9 89.53 43.8"/><polygon class="cls-47" points="88.56 43.9 88.51 60.2 87.54 60.29 87.59 43.99 88.56 43.9"/><polygon class="cls-59" points="69.31 43.64 69.27 59.94 67.06 60.31 67.1 44.01 69.31 43.64"/><polygon class="cls-47" points="87.59 43.99 87.54 60.29 86.57 60.38 86.61 44.08 87.59 43.99"/><polygon class="cls-29" points="26.42 43.94 26.37 60.24 25.91 59.97 25.96 43.67 26.42 43.94"/><polygon class="cls-47" points="86.61 44.08 86.57 60.38 85.6 60.48 85.65 44.17 86.61 44.08"/><polygon class="cls-47" points="85.65 44.17 85.6 60.48 84.63 60.57 84.67 44.27 85.65 44.17"/><polygon class="cls-47" points="84.67 44.27 84.63 60.57 83.66 60.66 83.7 44.36 84.67 44.27"/><polygon class="cls-59" points="67.1 44.01 67.06 60.31 64.84 60.68 64.89 44.38 67.1 44.01"/><polygon class="cls-47" points="83.7 44.36 83.66 60.66 82.68 60.76 82.73 44.45 83.7 44.36"/><polygon class="cls-30" points="74.42 44.44 74.37 60.74 73.54 59.86 73.58 43.55 74.42 44.44"/><polygon class="cls-47" points="82.73 44.45 82.68 60.76 81.72 60.85 81.76 44.55 82.73 44.45"/><polygon class="cls-47" points="81.76 44.55 81.72 60.85 80.74 60.94 80.79 44.64 81.76 44.55"/><polygon class="cls-47" points="80.79 44.64 80.74 60.94 79.77 61.03 79.81 44.73 80.79 44.64"/><polygon class="cls-59" points="64.89 44.38 64.84 60.68 62.62 61.04 62.67 44.74 64.89 44.38"/><polygon class="cls-47" points="79.81 44.73 79.77 61.03 78.8 61.13 78.84 44.82 79.81 44.73"/><polygon class="cls-47" points="78.84 44.82 78.8 61.13 77.82 61.22 77.87 44.92 78.84 44.82"/><polygon class="cls-61" points="77.87 44.92 77.82 61.22 77.2 61.28 77.25 44.98 77.87 44.92"/><polygon class="cls-49" points="77.25 44.98 77.2 61.28 76.27 61.06 76.31 44.75 77.25 44.98"/><polygon class="cls-40" points="76.31 44.75 76.27 61.06 75.13 61.4 75.17 45.09 76.31 44.75"/><polygon class="cls-48" points="75.17 45.09 75.13 61.4 74.37 60.74 74.42 44.44 75.17 45.09"/><polygon class="cls-5" points="26.56 44.98 26.52 61.28 26.32 60.48 26.37 44.18 26.56 44.98"/><polygon class="cls-59" points="62.67 44.74 62.62 61.04 60.42 61.41 60.46 45.1 62.67 44.74"/><polygon class="cls-59" points="60.46 45.1 60.42 61.41 58.2 61.78 58.25 45.47 60.46 45.1"/><polygon class="cls-5" points="26.8 45.58 26.76 61.89 26.52 61.28 26.56 44.98 26.8 45.58"/><polygon class="cls-59" points="58.25 45.47 58.2 61.78 55.99 62.15 56.04 45.84 58.25 45.47"/><polygon class="cls-62" points="27.69 45.86 27.65 62.16 26.76 61.89 26.8 45.58 27.69 45.86"/><polygon class="cls-52" points="28.57 46.13 28.53 62.43 27.65 62.16 27.69 45.86 28.57 46.13"/><polygon class="cls-59" points="56.04 45.84 55.99 62.15 53.78 62.51 53.83 46.21 56.04 45.84"/><polygon class="cls-63" points="28.84 46.27 28.79 62.58 28.53 62.43 28.57 46.13 28.84 46.27"/><polygon class="cls-59" points="53.83 46.21 53.78 62.51 51.56 62.88 51.61 46.58 53.83 46.21"/><polygon class="cls-59" points="51.61 46.58 51.56 62.88 49.35 63.25 49.4 46.94 51.61 46.58"/><polygon class="cls-56" points="29.76 46.95 29.72 63.25 28.79 62.58 28.84 46.27 29.76 46.95"/><polygon class="cls-59" points="49.4 46.94 49.35 63.25 47.61 63.53 47.65 47.23 49.4 46.94"/><polygon class="cls-59" points="47.65 47.23 47.61 63.53 47.14 63.61 47.19 47.31 47.65 47.23"/><polygon class="cls-59" points="47.19 47.31 47.14 63.61 44.93 63.98 44.98 47.68 47.19 47.31"/><polygon class="cls-56" points="30.97 47.83 30.92 64.13 29.72 63.25 29.76 46.95 30.97 47.83"/><polygon class="cls-59" points="44.98 47.68 44.93 63.98 42.72 64.35 42.76 48.05 44.98 47.68"/><polygon class="cls-59" points="42.76 48.05 42.72 64.35 42.17 64.44 42.22 48.13 42.76 48.05"/><polygon class="cls-59" points="42.22 48.13 42.17 64.44 40.5 64.71 40.55 48.41 42.22 48.13"/><polygon class="cls-56" points="31.81 48.44 31.77 64.74 30.92 64.13 30.97 47.83 31.81 48.44"/><polygon class="cls-59" points="40.55 48.41 40.5 64.71 38.29 65.08 38.33 48.78 40.55 48.41"/><polygon class="cls-63" points="32.74 48.95 32.69 65.25 31.77 64.74 31.81 48.44 32.74 48.95"/><polygon class="cls-59" points="38.33 48.78 38.29 65.08 36.07 65.45 36.12 49.15 38.33 48.78"/><polygon class="cls-59" points="36.12 49.15 36.07 65.45 35.3 65.58 35.35 49.28 36.12 49.15"/><polygon class="cls-8" points="35.35 49.28 35.3 65.58 35.04 65.71 35.09 49.41 35.35 49.28"/><polygon class="cls-40" points="35.09 49.41 35.04 65.71 34.07 66.01 34.12 49.7 35.09 49.41"/><polygon class="cls-63" points="34.12 49.7 34.07 66.01 32.69 65.25 32.74 48.95 34.12 49.7"/><polygon class="cls-27" points="93.5 43.22 92.45 43.53 91.48 43.62 90.51 43.71 89.53 43.8 88.56 43.9 87.59 43.99 86.61 44.08 85.65 44.17 84.67 44.27 83.7 44.36 82.73 44.45 81.76 44.55 80.79 44.64 79.81 44.73 78.84 44.82 77.87 44.92 77.25 44.98 76.31 44.75 75.17 45.09 74.42 44.44 73.58 43.55 72.65 43.16 72.38 43.13 71.53 43.27 70.11 43.51 69.31 43.64 67.1 44.01 64.89 44.38 62.67 44.74 60.46 45.1 58.25 45.47 56.04 45.84 53.83 46.21 51.61 46.58 49.4 46.94 47.65 47.23 47.19 47.31 44.98 47.68 42.76 48.05 42.22 48.13 40.55 48.41 38.33 48.78 36.12 49.15 35.35 49.28 35.09 49.41 34.12 49.7 32.74 48.95 31.81 48.44 30.97 47.83 29.76 46.95 28.84 46.27 28.57 46.13 27.69 45.86 26.8 45.58 26.56 44.98 26.37 44.18 26.42 43.94 25.96 43.67 25.23 42.82 25.12 42.63 25.18 42.44 25.36 42.22 25.46 42.04 25.44 41.85 25.27 41.62 25.28 41.02 25.12 40.69 25.07 40.44 24.81 40.09 24.43 39.82 24.18 39.35 24.59 38.65 24.6 38.39 25.14 37.91 25.25 37.74 25.07 37.53 24.74 37.42 24.36 37.33 24.16 36.79 23.77 36.41 23.69 36.18 23.62 35.45 22.23 34.6 22.15 34.37 21.69 34.3 20.75 33.84 19.6 33.52 19.19 33.42 18.32 33.21 18.01 33.09 17.3 32.47 16.77 32.24 15.49 32.26 14.81 31.99 14.26 31.83 13.76 31.88 13.06 32.09 12.61 32.07 11.23 31.58 10.39 31.7 9.06 31.25 8.71 31.15 7.66 30.37 7.46 30.18 6.95 29.86 5.81 29.9 5.5 30.08 5.05 30.16 4.71 30.14 3.96 30.05 3.31 30.24 0.83 29.43 0.33 29.41 0.05 29.47 0.05 28.7 0.05 27.93 0.05 27.16 0.06 26.38 0.31 25.93 0.53 25.52 0.75 25.12 0.98 24.73 1.39 24.22 1.73 23.8 2.04 23.39 2.38 22.96 2.75 22.48 3.09 22.04 3.38 21.68 3.71 21.73 3.92 21.31 4.15 20.85 4.47 20.87 4.74 21.31 5.39 20.92 6.04 20.72 6.54 21.38 7.29 21.51 8.19 21.66 8.99 21.43 8.82 21.29 8.58 21.11 8.63 20.93 8.91 20.79 9.32 21 9.82 20.71 10.24 20.47 11.79 20.77 13.19 20.1 13.39 19.95 15.03 19.07 16.03 18.45 17.59 17.64 18.1 17.47 18.8 17.33 19.14 17.21 19.53 17.24 20.95 17.1 22.01 16.97 23.07 16.84 24.31 16.68 25.19 16.57 26.19 16.44 27.31 16.29 28.35 16.16 29.43 16.02 29.77 15.98 30.45 16.04 31.06 15.95 31.35 15.94 31.6 15.75 31.79 15.62 32.57 15.26 33.36 14.89 33.69 14.66 33.88 14.38 35.16 13.86 35.4 13.78 36.63 13.48 37.25 13.27 37.65 12.97 38.31 12.55 39.38 12.31 39.69 12.19 39.94 12.04 40.05 11.81 41.17 11.38 41.44 11.31 42.21 11.22 42.15 11.05 41.85 10.72 41.81 10.5 41.86 10.02 41.9 9.44 41.86 9.27 41.76 9.09 41.45 8.7 41.24 8.42 41.22 8.25 41.51 7.76 41.8 7.27 42.13 6.72 42.28 6.46 42.79 5.8 43.12 5.39 43.58 4.54 44.02 3.97 44.35 3.54 44.5 3.13 44.83 3.16 45.51 3.08 45.85 3.1 46.17 3.15 46.91 2.99 47.42 2.96 48.43 3.06 48.96 3.02 49.4 2.91 49.8 2.73 50.43 2.32 51.13 1.86 51.37 1.61 51.93 1.12 52.29 1.01 52.6 0.64 53.02 0.51 53.46 0.43 53.81 0.29 53.95 0 54.19 0.78 54.43 1.57 54.67 2.34 54.92 3.13 55.07 3.61 55.21 4.09 55.36 4.57 55.51 5.05 55.5 5.68 55.5 6.31 55.49 6.93 55.49 7.56 55.48 7.82 55.57 7.98 55.94 8.19 56.79 8.67 57.7 9.18 74.23 18.73 74.78 19.04 75.24 19.29 75.68 19.55 76.41 19.96 77.13 20.37 77.87 20.77 78.59 21.18 79.06 21.45 79.53 21.71 80.04 22 80.43 22.03 80.81 22.06 81.2 22.08 81.59 22.12 82.34 22.17 83.11 22.22 83.95 22.28 84.64 22.34 85.39 22.39 86.17 22.44 86.93 22.5 87.7 22.55 88.28 22.59 89.05 22.94 89.19 23.62 89.32 23.96 89.31 24.6 89.37 24.9 88.59 25.25 88.6 25.59 88.29 25.7 88.2 25.97 88.1 26.12 87.33 26.13 86.98 26.08 87.74 26.54 87.77 26.73 87.03 26.58 88.04 27.19 88.34 27.31 88.59 27.36 89.29 27.42 89.33 27.63 89.22 27.52 88.59 27.57 88.2 27.8 88.23 27.99 88.21 28.14 88.86 28.3 89.07 28.67 89.01 28.88 88.83 29.13 88.91 29.64 88.77 29.82 88.52 29.92 88.23 29.98 87.97 30.07 87.78 30.21 87.32 30.72 87.25 31 87.06 31.31 87 31.65 87.18 32.06 87.24 32.32 88.1 32.89 88.29 33.02 89.09 33.27 89.14 33.46 89.49 33.74 89.66 34.15 90.06 34.3 90.08 35 90.07 35.28 89.71 35.17 90.14 35.74 90.36 36.02 90.47 36.29 90.78 36.55 90.79 36.87 91.38 37.07 92.31 38.23 92.31 38.42 92.15 38.55 91.69 38.44 92.5 38.83 91.56 39.09 91.81 39.41 92.12 39.44 92.43 39.34 93.05 39.96 93.38 40.4 93.98 40.99 94.09 41.14 94.51 42.07 94.16 41.9 94.27 42.6 93.95 42.72 93.59 42.69 93.44 42.88 93.43 43.04 93.5 43.22"/></g></g></g></svg>