<svg xmlns="http://www.w3.org/2000/svg" viewBox="0 0 16.97 29.16"><defs><style>.cls-1{isolation:isolate;}.cls-2{fill:#6f1b1b;}.cls-3{fill:#902323;}.cls-4{fill:#9b2626;}.cls-5{fill:#8f2323;}.cls-6{fill:#481212;}.cls-7{fill:#781d1d;}.cls-8{fill:#9a2626;}.cls-9{fill:#701c1c;}.cls-10{fill:#511414;}.cls-11{fill:#8a2222;}.cls-12{fill:#8e2323;}.cls-13{fill:#801f1f;}.cls-14{fill:#7e1f1f;}.cls-15{fill:#6e1b1b;}.cls-16{fill:#551515;}.cls-17{fill:#491212;}.cls-18{fill:#7c1e1e;}.cls-19{fill:#741d1d;}.cls-20{fill:#8c2222;}.cls-21{fill:#601818;}.cls-22{fill:#932424;}.cls-23{fill:#611818;}.cls-24{fill:#a02727;}.cls-25{fill:#942424;}.cls-26{fill:#a82929;}.cls-27{fill:#a42828;}.cls-28{fill:#a92929;}.cls-29{fill:#9f2727;}.cls-30{fill:#641919;}.cls-31{fill:#5f1717;}.cls-32{fill:#812020;}.cls-33{fill:#972525;}.cls-34{fill:#a32828;}.cls-35{fill:#691a1a;}.cls-36{fill:#4a1212;}.cls-37{fill:#7b1e1e;}.cls-38{fill:#892222;}.cls-39{fill:#6c1b1b;}.cls-40{fill:#781e1e;}.cls-41{fill:#912424;}.cls-42{fill:#822020;}.cls-43{fill:#4d1313;}.cls-44{fill:#711c1c;}.cls-45{fill:#721c1c;}.cls-46{fill:#7f1f1f;}.cls-47{fill:#9d2727;}.cls-48{fill:#952424;}.cls-49{fill:#771d1d;}.cls-50{fill:#a22828;}.cls-51{fill:#731c1c;}.cls-52{fill:#882121;}.cls-53{fill:#952525;}.cls-54{fill:#501414;}.cls-55{fill:#a72929;}.cls-56{fill:#a62929;}.cls-57{fill:#a12727;}.cls-58{fill:#661919;}.cls-59{fill:#962525;}.cls-60{fill:#a52828;}.cls-61{fill:#681919;}.cls-62{fill:#681a1a;}.cls-63{fill:#591616;}.cls-64{fill:#922424;}.cls-65{fill:#621818;}.cls-66{fill:#4f1313;}.cls-67{fill:#c83131;}</style></defs><title>Lesotho</title><g id="Layer_2" data-name="Layer 2"><g id="Layer_1-2" data-name="Layer 1"><g class="cls-1"><polygon class="cls-2" points="14.93 1.16 14.88 17.46 14.87 17.53 14.91 1.23 14.93 1.16"/><polygon class="cls-3" points="14.91 1.23 14.87 17.53 14.77 17.68 14.81 1.38 14.91 1.23"/><polygon class="cls-4" points="14.81 1.38 14.77 17.68 14.63 17.83 14.68 1.53 14.81 1.38"/><polygon class="cls-5" points="14.68 1.53 14.63 17.83 14.53 17.98 14.57 1.68 14.68 1.53"/><polygon class="cls-6" points="2.11 1.7 2.07 18 2.07 17.85 2.11 1.55 2.11 1.7"/><polygon class="cls-6" points="2.25 1.98 2.2 18.28 2.07 18 2.11 1.7 2.25 1.98"/><polygon class="cls-7" points="15.32 2.17 15.28 18.47 15.24 18.58 15.29 2.28 15.32 2.17"/><polygon class="cls-6" points="1.2 2.85 1.16 19.15 1.14 19.06 1.18 2.75 1.2 2.85"/><polygon class="cls-8" points="15.55 2.52 15.5 18.82 15.15 19.21 15.19 2.91 15.55 2.52"/><polygon class="cls-6" points="1.23 2.96 1.18 19.27 1.16 19.15 1.2 2.85 1.23 2.96"/><polygon class="cls-9" points="15.19 2.91 15.15 19.21 15.11 19.41 15.15 3.11 15.19 2.91"/><polygon class="cls-6" points="1.32 3.22 1.27 19.52 1.18 19.27 1.23 2.96 1.32 3.22"/><polygon class="cls-6" points="1.34 3.26 1.29 19.57 1.27 19.52 1.32 3.22 1.34 3.26"/><polygon class="cls-6" points="1.36 3.61 1.31 19.92 1.29 19.57 1.34 3.26 1.36 3.61"/><polygon class="cls-6" points="1.45 3.95 1.41 20.25 1.31 19.92 1.36 3.61 1.45 3.95"/><polygon class="cls-6" points="1.48 4 1.43 20.31 1.41 20.25 1.45 3.95 1.48 4"/><polygon class="cls-10" points="1.57 4.07 1.53 20.37 1.43 20.31 1.48 4 1.57 4.07"/><polygon class="cls-11" points="16.97 4.29 16.92 20.59 16.89 20.66 16.93 4.36 16.97 4.29"/><polygon class="cls-4" points="16.93 4.36 16.89 20.66 16.77 20.79 16.81 4.49 16.93 4.36"/><polygon class="cls-6" points="0.82 4.47 0.77 20.77 0.72 20.68 0.77 4.38 0.82 4.47"/><polygon class="cls-12" points="16.81 4.49 16.77 20.79 16.72 20.86 16.77 4.56 16.81 4.49"/><polygon class="cls-6" points="0.9 4.56 0.85 20.87 0.77 20.77 0.82 4.47 0.9 4.56"/><polygon class="cls-6" points="0.94 4.66 0.89 20.97 0.85 20.87 0.9 4.56 0.94 4.66"/><polygon class="cls-13" points="16.77 4.56 16.72 20.86 16.52 21.35 16.57 5.04 16.77 4.56"/><polygon class="cls-14" points="16.57 5.04 16.52 21.35 16.43 21.59 16.47 5.29 16.57 5.04"/><polygon class="cls-15" points="0.22 5.27 0.17 21.57 0 21.52 0.05 5.22 0.22 5.27"/><polygon class="cls-6" points="0.14 5.49 0.1 21.79 0.1 21.73 0.14 5.42 0.14 5.49"/><polygon class="cls-16" points="0.25 5.55 0.2 21.86 0.1 21.79 0.14 5.49 0.25 5.55"/><polygon class="cls-17" points="0.35 5.66 0.31 21.96 0.2 21.86 0.25 5.55 0.35 5.66"/><polygon class="cls-6" points="0.4 5.95 0.35 22.25 0.3 22.07 0.34 5.76 0.4 5.95"/><polygon class="cls-18" points="16.47 5.29 16.43 21.59 16.17 22.33 16.21 6.03 16.47 5.29"/><polygon class="cls-6" points="0.41 6.04 0.36 22.35 0.35 22.25 0.4 5.95 0.41 6.04"/><polygon class="cls-19" points="0.39 6.21 0.34 22.52 0.24 22.49 0.29 6.19 0.39 6.21"/><polygon class="cls-20" points="0.56 6.21 0.52 22.52 0.34 22.52 0.39 6.21 0.56 6.21"/><polygon class="cls-21" points="0.65 6.25 0.6 22.55 0.52 22.52 0.56 6.21 0.65 6.25"/><polygon class="cls-22" points="16.21 6.03 16.17 22.33 15.92 22.68 15.96 6.38 16.21 6.03"/><polygon class="cls-6" points="0.51 6.38 0.47 22.69 0.46 22.63 0.5 6.33 0.51 6.38"/><polygon class="cls-23" points="0.73 6.47 0.68 22.78 0.47 22.69 0.51 6.38 0.73 6.47"/><polygon class="cls-24" points="15.96 6.38 15.92 22.68 15.57 22.99 15.62 6.69 15.96 6.38"/><polygon class="cls-6" points="0.86 6.72 0.82 23.02 0.68 22.78 0.73 6.47 0.86 6.72"/><polygon class="cls-25" points="15.62 6.69 15.57 22.99 15.21 23.47 15.25 7.17 15.62 6.69"/><polygon class="cls-6" points="0.95 7.21 0.9 23.51 0.82 23.02 0.86 6.72 0.95 7.21"/><polygon class="cls-26" points="15.25 7.17 15.21 23.47 14.99 23.6 15.03 7.29 15.25 7.17"/><polygon class="cls-27" points="15.03 7.29 14.99 23.6 14.54 23.71 14.58 7.41 15.03 7.29"/><polygon class="cls-28" points="14.58 7.41 14.54 23.71 14.41 23.77 14.46 7.46 14.58 7.41"/><polygon class="cls-6" points="0.88 7.43 0.83 23.74 0.81 23.68 0.86 7.37 0.88 7.43"/><polygon class="cls-16" points="0.96 7.48 0.91 23.78 0.83 23.74 0.88 7.43 0.96 7.48"/><polygon class="cls-29" points="14.46 7.46 14.41 23.77 14.33 23.84 14.38 7.54 14.46 7.46"/><polygon class="cls-30" points="1.17 7.56 1.12 23.86 0.91 23.78 0.96 7.48 1.17 7.56"/><polygon class="cls-31" points="1.27 7.6 1.22 23.9 1.12 23.86 1.17 7.56 1.27 7.6"/><polygon class="cls-32" points="14.38 7.54 14.33 23.84 14.22 24.11 14.27 7.81 14.38 7.54"/><polygon class="cls-33" points="14.27 7.81 14.22 24.11 14.11 24.24 14.16 7.94 14.27 7.81"/><polygon class="cls-28" points="14.16 7.94 14.11 24.24 13.75 24.4 13.8 8.1 14.16 7.94"/><polygon class="cls-6" points="1.04 8.07 1 24.38 0.96 24.33 1 8.03 1.04 8.07"/><polygon class="cls-34" points="13.8 8.1 13.75 24.4 13.61 24.51 13.66 8.21 13.8 8.1"/><polygon class="cls-10" points="1.21 8.18 1.16 24.49 1 24.38 1.04 8.07 1.21 8.18"/><polygon class="cls-17" points="1.26 8.23 1.21 24.54 1.16 24.49 1.21 8.18 1.26 8.23"/><polygon class="cls-35" points="13.66 8.21 13.61 24.51 13.6 24.65 13.64 8.35 13.66 8.21"/><polygon class="cls-6" points="1.28 8.32 1.23 24.62 1.21 24.54 1.26 8.23 1.28 8.32"/><polygon class="cls-36" points="1.24 8.53 1.2 24.83 1.15 24.79 1.2 8.49 1.24 8.53"/><polygon class="cls-37" points="1.31 8.54 1.27 24.84 1.2 24.83 1.24 8.53 1.31 8.54"/><polygon class="cls-38" points="1.4 8.54 1.35 24.84 1.27 24.84 1.31 8.54 1.4 8.54"/><polygon class="cls-39" points="1.47 8.56 1.43 24.87 1.35 24.84 1.4 8.54 1.47 8.56"/><polygon class="cls-10" points="1.56 8.62 1.51 24.93 1.43 24.87 1.47 8.56 1.56 8.62"/><polygon class="cls-6" points="1.59 8.67 1.54 24.97 1.51 24.93 1.56 8.62 1.59 8.67"/><polygon class="cls-40" points="13.8 8.75 13.75 25.05 13.73 25.12 13.78 8.81 13.8 8.75"/><polygon class="cls-11" points="13.82 8.98 13.77 25.29 13.74 25.34 13.79 9.04 13.82 8.98"/><polygon class="cls-6" points="1.6 9.04 1.55 25.35 1.53 25.01 1.57 8.71 1.6 9.04"/><polygon class="cls-27" points="13.79 9.04 13.74 25.34 13.57 25.47 13.62 9.17 13.79 9.04"/><polygon class="cls-6" points="1.65 9.16 1.6 25.46 1.55 25.35 1.6 9.04 1.65 9.16"/><polygon class="cls-41" points="13.62 9.17 13.57 25.47 13.5 25.57 13.55 9.27 13.62 9.17"/><polygon class="cls-6" points="1.75 9.29 1.7 25.59 1.6 25.46 1.65 9.16 1.75 9.29"/><polygon class="cls-42" points="13.55 9.27 13.5 25.57 13.45 25.7 13.49 9.4 13.55 9.27"/><polygon class="cls-43" points="1.66 9.47 1.61 25.77 1.53 25.71 1.58 9.41 1.66 9.47"/><polygon class="cls-6" points="1.71 9.54 1.66 25.84 1.61 25.77 1.66 9.47 1.71 9.54"/><polygon class="cls-6" points="1.73 9.65 1.69 25.96 1.66 25.84 1.71 9.54 1.73 9.65"/><polygon class="cls-44" points="14.43 9.92 14.38 26.22 14.27 26.8 14.31 10.5 14.43 9.92"/><polygon class="cls-6" points="1.03 10.86 0.98 27.16 0.97 26.88 1.02 10.57 1.03 10.86"/><polygon class="cls-6" points="0.83 11.02 0.78 27.32 0.71 27.23 0.76 10.92 0.83 11.02"/><polygon class="cls-6" points="0.84 11.08 0.8 27.38 0.78 27.32 0.83 11.02 0.84 11.08"/><polygon class="cls-45" points="15.08 11.1 15.03 27.4 15.02 27.46 15.07 11.16 15.08 11.1"/><polygon class="cls-46" points="15.07 11.16 15.02 27.46 15 27.51 15.05 11.21 15.07 11.16"/><polygon class="cls-6" points="0.65 11.18 0.6 27.48 0.57 27.41 0.62 11.11 0.65 11.18"/><polygon class="cls-37" points="15.05 11.21 15 27.51 14.98 27.57 15.03 11.26 15.05 11.21"/><polygon class="cls-16" points="0.77 11.25 0.72 27.55 0.6 27.48 0.65 11.18 0.77 11.25"/><polygon class="cls-22" points="1.42 11.35 1.38 27.65 1.21 27.66 1.26 11.36 1.42 11.35"/><polygon class="cls-47" points="1.26 11.36 1.21 27.66 1.07 27.68 1.12 11.38 1.26 11.36"/><polygon class="cls-48" points="1.12 11.38 1.07 27.68 0.9 27.69 0.95 11.39 1.12 11.38"/><polygon class="cls-6" points="0.87 11.4 0.82 27.71 0.72 27.55 0.77 11.25 0.87 11.4"/><polygon class="cls-24" points="0.95 11.39 0.9 27.69 0.82 27.71 0.87 11.4 0.95 11.39"/><polygon class="cls-13" points="1.91 11.41 1.86 27.71 1.38 27.65 1.42 11.35 1.91 11.41"/><polygon class="cls-49" points="2.08 11.44 2.03 27.75 1.86 27.71 1.91 11.41 2.08 11.44"/><polygon class="cls-50" points="15.59 11.66 15.54 27.96 15.32 28.01 15.36 11.71 15.59 11.66"/><polygon class="cls-45" points="3.93 11.88 3.89 28.18 2.03 27.75 2.08 11.44 3.93 11.88"/><polygon class="cls-51" points="4.55 12.02 4.51 28.33 3.89 28.18 3.93 11.88 4.55 12.02"/><polygon class="cls-52" points="4.83 12.04 4.79 28.34 4.51 28.33 4.55 12.02 4.83 12.04"/><polygon class="cls-25" points="5.42 12.01 5.37 28.31 4.79 28.34 4.83 12.04 5.42 12.01"/><polygon class="cls-14" points="5.67 12.04 5.62 28.35 5.37 28.31 5.42 12.01 5.67 12.04"/><polygon class="cls-53" points="7.01 12.05 6.97 28.35 6.85 28.36 6.9 12.06 7.01 12.05"/><polygon class="cls-54" points="7.08 12.1 7.04 28.4 6.97 28.35 7.01 12.05 7.08 12.1"/><polygon class="cls-55" points="6.9 12.06 6.85 28.36 6.73 28.41 6.77 12.1 6.9 12.06"/><polygon class="cls-28" points="15.36 11.71 15.32 28.01 14.47 28.43 14.51 12.12 15.36 11.71"/><polygon class="cls-56" points="14.51 12.12 14.47 28.43 14.28 28.48 14.33 12.18 14.51 12.12"/><polygon class="cls-26" points="6.77 12.1 6.73 28.41 6.58 28.49 6.63 12.19 6.77 12.1"/><polygon class="cls-57" points="14.33 12.18 14.28 28.48 14.09 28.52 14.13 12.22 14.33 12.18"/><polygon class="cls-58" points="6.12 12.2 6.07 28.5 5.62 28.35 5.67 12.04 6.12 12.2"/><polygon class="cls-48" points="14.13 12.22 14.09 28.52 13.97 28.53 14.02 12.23 14.13 12.22"/><polygon class="cls-12" points="14.02 12.23 13.97 28.53 13.87 28.53 13.91 12.23 14.02 12.23"/><polygon class="cls-6" points="7.09 12.21 7.05 28.52 7.04 28.4 7.08 12.1 7.09 12.21"/><polygon class="cls-59" points="13.91 12.23 13.87 28.53 13.77 28.54 13.81 12.23 13.91 12.23"/><polygon class="cls-45" points="6.27 12.24 6.22 28.54 6.07 28.5 6.12 12.2 6.27 12.24"/><polygon class="cls-60" points="13.81 12.23 13.77 28.54 13.66 28.57 13.71 12.26 13.81 12.23"/><polygon class="cls-29" points="6.63 12.19 6.58 28.49 6.52 28.55 6.56 12.25 6.63 12.19"/><polygon class="cls-13" points="6.48 12.26 6.43 28.57 6.22 28.54 6.27 12.24 6.48 12.26"/><polygon class="cls-50" points="6.56 12.25 6.52 28.55 6.43 28.57 6.48 12.26 6.56 12.25"/><polygon class="cls-60" points="13.71 12.26 13.66 28.57 13.61 28.6 13.66 12.3 13.71 12.26"/><polygon class="cls-11" points="13.66 12.3 13.61 28.6 13.55 28.71 13.6 12.41 13.66 12.3"/><polygon class="cls-57" points="13.6 12.41 13.55 28.71 13.5 28.76 13.55 12.46 13.6 12.41"/><polygon class="cls-6" points="7.3 12.5 7.26 28.81 7.05 28.52 7.09 12.21 7.3 12.5"/><polygon class="cls-11" points="8.86 12.52 8.82 28.82 8.72 28.82 8.77 12.52 8.86 12.52"/><polygon class="cls-35" points="9.95 12.58 9.9 28.88 9.79 28.84 9.84 12.54 9.95 12.58"/><polygon class="cls-26" points="8.77 12.52 8.72 28.82 8.61 28.88 8.66 12.58 8.77 12.52"/><polygon class="cls-28" points="13.55 12.46 13.5 28.76 13.18 28.9 13.23 12.6 13.55 12.46"/><polygon class="cls-61" points="9.11 12.6 9.06 28.91 8.82 28.82 8.86 12.52 9.11 12.6"/><polygon class="cls-62" points="10.04 12.61 9.99 28.91 9.9 28.88 9.95 12.58 10.04 12.61"/><polygon class="cls-12" points="10.38 12.61 10.34 28.91 9.99 28.91 10.04 12.61 10.38 12.61"/><polygon class="cls-57" points="9.84 12.54 9.79 28.84 9.44 28.92 9.48 12.61 9.84 12.54"/><polygon class="cls-59" points="9.48 12.61 9.44 28.92 9.24 28.93 9.29 12.63 9.48 12.61"/><polygon class="cls-14" points="9.29 12.63 9.24 28.93 9.06 28.91 9.11 12.6 9.29 12.63"/><polygon class="cls-63" points="7.54 12.63 7.49 28.93 7.26 28.81 7.3 12.5 7.54 12.63"/><polygon class="cls-42" points="10.77 12.65 10.73 28.95 10.34 28.91 10.38 12.61 10.77 12.65"/><polygon class="cls-44" points="10.86 12.67 10.82 28.97 10.73 28.95 10.77 12.65 10.86 12.67"/><polygon class="cls-56" points="13.23 12.6 13.18 28.9 12.88 28.99 12.93 12.69 13.23 12.6"/><polygon class="cls-64" points="8.66 12.58 8.61 28.88 8.53 29 8.58 12.7 8.66 12.58"/><polygon class="cls-16" points="10.93 12.71 10.89 29.01 10.82 28.97 10.86 12.67 10.93 12.71"/><polygon class="cls-38" points="12.6 12.73 12.55 29.04 11.78 29 11.83 12.7 12.6 12.73"/><polygon class="cls-4" points="12.93 12.69 12.88 28.99 12.55 29.04 12.6 12.73 12.93 12.69"/><polygon class="cls-65" points="11.02 12.74 10.97 29.05 10.89 29.01 10.93 12.71 11.02 12.74"/><polygon class="cls-59" points="11.83 12.7 11.78 29 11.08 29.06 11.12 12.75 11.83 12.7"/><polygon class="cls-42" points="11.12 12.75 11.08 29.06 10.97 29.05 11.02 12.74 11.12 12.75"/><polygon class="cls-26" points="8.58 12.7 8.53 29 8.42 29.07 8.46 12.76 8.58 12.7"/><polygon class="cls-15" points="8.1 12.78 8.05 29.08 7.49 28.93 7.54 12.63 8.1 12.78"/><polygon class="cls-55" points="8.46 12.76 8.42 29.07 8.25 29.12 8.29 12.82 8.46 12.76"/><polygon class="cls-28" points="8.29 12.82 8.25 29.12 8.16 29.16 8.2 12.85 8.29 12.82"/><polygon class="cls-66" points="8.2 12.85 8.16 29.16 8.05 29.08 8.1 12.78 8.2 12.85"/><polygon class="cls-67" points="14.44 0.62 14.59 0.7 14.64 0.88 14.75 0.96 14.86 1.02 14.91 1.08 14.93 1.16 14.91 1.23 14.81 1.38 14.68 1.53 14.57 1.68 14.58 1.85 14.69 1.97 14.85 2.06 15.11 2.16 15.32 2.17 15.29 2.28 15.4 2.35 15.52 2.43 15.55 2.52 15.19 2.91 15.15 3.11 15.24 3.28 15.37 3.46 15.48 3.66 15.65 3.77 15.82 3.92 15.99 4.02 16.23 4.05 16.38 4.03 16.45 4.06 16.52 4.09 16.64 4.15 16.85 4.2 16.95 4.23 16.97 4.29 16.93 4.36 16.81 4.49 16.77 4.56 16.57 5.04 16.47 5.29 16.21 6.03 15.96 6.38 15.62 6.69 15.25 7.17 15.03 7.29 14.58 7.41 14.46 7.46 14.38 7.54 14.27 7.81 14.16 7.94 13.8 8.1 13.66 8.21 13.64 8.35 13.7 8.44 13.79 8.63 13.8 8.75 13.78 8.81 13.82 8.93 13.82 8.98 13.79 9.04 13.62 9.17 13.55 9.27 13.49 9.4 13.51 9.52 13.64 9.61 13.82 9.63 13.96 9.6 14.1 9.6 14.29 9.68 14.41 9.81 14.43 9.92 14.31 10.5 14.35 10.58 14.43 10.61 14.64 10.65 14.74 10.68 14.79 10.72 15.04 10.99 15.06 11.03 15.08 11.1 15.07 11.16 15.05 11.21 15.03 11.26 15.05 11.33 15.18 11.44 15.3 11.51 15.44 11.57 15.59 11.66 15.36 11.71 14.51 12.12 14.33 12.18 14.13 12.22 14.02 12.23 13.91 12.23 13.81 12.23 13.71 12.26 13.66 12.3 13.6 12.41 13.55 12.46 13.23 12.6 12.93 12.69 12.6 12.73 11.83 12.7 11.12 12.75 11.02 12.74 10.93 12.71 10.86 12.67 10.77 12.65 10.38 12.61 10.04 12.61 9.95 12.58 9.84 12.54 9.48 12.61 9.29 12.63 9.11 12.6 8.86 12.52 8.77 12.52 8.66 12.58 8.58 12.7 8.46 12.76 8.29 12.82 8.2 12.85 8.1 12.78 7.54 12.63 7.3 12.5 7.09 12.21 7.08 12.1 7.01 12.05 6.9 12.06 6.77 12.1 6.63 12.19 6.56 12.25 6.48 12.26 6.27 12.24 6.12 12.2 5.67 12.04 5.42 12.01 4.83 12.04 4.55 12.02 3.93 11.88 2.08 11.44 1.91 11.41 1.42 11.35 1.26 11.36 1.12 11.38 0.95 11.39 0.87 11.4 0.77 11.25 0.65 11.18 0.62 11.11 0.69 11.07 0.84 11.08 0.83 11.02 0.76 10.92 0.83 10.85 1.03 10.86 1.02 10.57 1.14 10.39 1.32 10.26 1.36 10.2 1.41 10.1 1.56 9.97 1.64 9.85 1.73 9.65 1.71 9.54 1.66 9.47 1.58 9.41 1.75 9.29 1.65 9.16 1.6 9.04 1.57 8.71 1.59 8.67 1.56 8.62 1.47 8.56 1.4 8.54 1.31 8.54 1.24 8.53 1.2 8.49 1.22 8.42 1.25 8.38 1.28 8.32 1.26 8.23 1.21 8.18 1.04 8.07 1 8.03 1.04 7.92 1.23 7.71 1.26 7.67 1.27 7.6 1.17 7.56 0.96 7.48 0.88 7.43 0.86 7.37 0.89 7.31 0.92 7.25 0.95 7.21 0.86 6.72 0.73 6.47 0.51 6.38 0.5 6.33 0.6 6.33 0.65 6.25 0.56 6.21 0.39 6.21 0.29 6.19 0.37 6.11 0.41 6.04 0.4 5.95 0.34 5.76 0.35 5.66 0.25 5.55 0.14 5.49 0.14 5.42 0.21 5.34 0.22 5.27 0.05 5.22 0.85 4.81 0.94 4.66 0.9 4.56 0.82 4.47 0.77 4.38 0.81 4.29 0.95 4.23 1.1 4.22 1.24 4.24 1.36 4.21 1.53 4.11 1.57 4.07 1.48 4 1.45 3.95 1.36 3.61 1.34 3.26 1.32 3.22 1.23 2.96 1.2 2.85 1.18 2.75 1.26 2.73 1.59 2.5 1.66 2.45 1.86 2.41 2.02 2.33 2.15 2.23 2.24 2.12 2.25 1.98 2.11 1.7 2.11 1.55 2.19 1.43 3.06 0.87 3.15 0.77 3.27 0.4 3.36 0.34 3.58 0.32 3.77 0.33 3.96 0.36 4.14 0.43 4.51 0.58 4.67 0.6 4.98 0.43 5.16 0.43 5.71 0.53 5.81 0.52 6.06 0.42 6.21 0.38 6.37 0.35 6.54 0.35 6.73 0.36 7.47 0.48 8.2 0.48 8.3 0.42 8.5 0.35 8.71 0.31 8.85 0.32 8.99 0.41 9.13 0.44 9.28 0.42 9.46 0.36 9.79 0.29 10.92 0.31 11.21 0.21 11.48 0.07 11.77 0 12.23 0.23 12.4 0.24 12.58 0.23 12.78 0.23 12.95 0.28 13.29 0.39 13.73 0.43 13.96 0.48 14.13 0.58 14.19 0.6 14.26 0.62 14.44 0.62"/></g></g></g></svg>