<svg xmlns="http://www.w3.org/2000/svg" viewBox="0 0 45.67 30.81"><defs><style>.cls-1{isolation:isolate;}.cls-2{fill:#481212;}.cls-3{fill:#561515;}.cls-4{fill:#581515;}.cls-5{fill:#4b1212;}.cls-6{fill:#731c1c;}.cls-7{fill:#771d1d;}.cls-8{fill:#4e1313;}.cls-9{fill:#4a1212;}.cls-10{fill:#691a1a;}.cls-11{fill:#5d1717;}.cls-12{fill:#721c1c;}.cls-13{fill:#661919;}.cls-14{fill:#501313;}.cls-15{fill:#a82929;}.cls-16{fill:#541515;}.cls-17{fill:#a72929;}.cls-18{fill:#711c1c;}.cls-19{fill:#a32828;}.cls-20{fill:#8f2323;}.cls-21{fill:#501414;}.cls-22{fill:#651919;}.cls-23{fill:#6c1a1a;}.cls-24{fill:#701b1b;}.cls-25{fill:#4d1313;}.cls-26{fill:#a92929;}.cls-27{fill:#a22828;}.cls-28{fill:#8d2323;}.cls-29{fill:#9b2626;}.cls-30{fill:#a52828;}.cls-31{fill:#9d2626;}.cls-32{fill:#842020;}.cls-33{fill:#9f2727;}.cls-34{fill:#751d1d;}.cls-35{fill:#942424;}.cls-36{fill:#9e2727;}.cls-37{fill:#8b2222;}.cls-38{fill:#a12727;}.cls-39{fill:#992525;}.cls-40{fill:#a42828;}.cls-41{fill:#9a2626;}.cls-42{fill:#962525;}.cls-43{fill:#932424;}.cls-44{fill:#8e2323;}.cls-45{fill:#982525;}.cls-46{fill:#a02727;}.cls-47{fill:#862121;}.cls-48{fill:#912323;}.cls-49{fill:#922424;}.cls-50{fill:#902323;}.cls-51{fill:#701c1c;}.cls-52{fill:#601717;}.cls-53{fill:#8c2222;}.cls-54{fill:#952424;}.cls-55{fill:#9c2626;}.cls-56{fill:#872121;}.cls-57{fill:#591616;}.cls-58{fill:#621818;}.cls-59{fill:#4c1313;}.cls-60{fill:#791e1e;}.cls-61{fill:#822020;}.cls-62{fill:#531414;}.cls-63{fill:#491212;}.cls-64{fill:#571515;}.cls-65{fill:#892121;}.cls-66{fill:#c83131;}</style></defs><title>Liberia</title><g id="Layer_2" data-name="Layer 2"><g id="Layer_1-2" data-name="Layer 1"><g class="cls-1"><polygon class="cls-2" points="15.95 0.54 15.91 16.84 15.83 16.73 15.88 0.43 15.95 0.54"/><polygon class="cls-2" points="15.99 0.76 15.95 17.07 15.91 16.84 15.95 0.54 15.99 0.76"/><polygon class="cls-2" points="16.09 0.87 16.04 17.17 15.95 17.07 15.99 0.76 16.09 0.87"/><polygon class="cls-3" points="16.56 1.14 16.51 17.44 16.04 17.17 16.09 0.87 16.56 1.14"/><polygon class="cls-4" points="16.73 1.22 16.68 17.53 16.51 17.44 16.56 1.14 16.73 1.22"/><polygon class="cls-5" points="16.83 1.31 16.78 17.62 16.68 17.53 16.73 1.22 16.83 1.31"/><polygon class="cls-6" points="6.14 1.13 6.09 17.43 6.05 17.63 6.09 1.32 6.14 1.13"/><polygon class="cls-2" points="3.87 1.38 3.82 17.69 3.81 17.59 3.86 1.28 3.87 1.38"/><polygon class="cls-2" points="16.88 1.42 16.83 17.73 16.78 17.62 16.83 1.31 16.88 1.42"/><polygon class="cls-7" points="4.56 1.3 4.51 17.61 4.49 17.7 4.53 1.39 4.56 1.3"/><polygon class="cls-8" points="3.99 1.48 3.94 17.78 3.82 17.69 3.87 1.38 3.99 1.48"/><polygon class="cls-2" points="16.89 1.56 16.85 17.86 16.83 17.73 16.88 1.42 16.89 1.56"/><polygon class="cls-9" points="4.08 1.56 4.03 17.86 3.94 17.78 3.99 1.48 4.08 1.56"/><polygon class="cls-2" points="3.04 1.61 2.99 17.91 2.83 17.56 2.88 1.26 3.04 1.61"/><polygon class="cls-10" points="23.19 1.59 23.15 17.9 23.13 18.1 23.18 1.79 23.19 1.59"/><polygon class="cls-2" points="17 2.02 16.96 18.32 16.81 18.12 16.86 1.82 17 2.02"/><polygon class="cls-2" points="16.94 2.31 16.89 18.62 16.86 18.46 16.9 2.16 16.94 2.31"/><polygon class="cls-2" points="17.01 2.46 16.97 18.77 16.89 18.62 16.94 2.31 17.01 2.46"/><polygon class="cls-11" points="17.13 2.52 17.09 18.82 16.97 18.77 17.01 2.46 17.13 2.52"/><polygon class="cls-12" points="17.31 2.56 17.26 18.86 17.09 18.82 17.13 2.52 17.31 2.56"/><polygon class="cls-13" points="17.46 2.61 17.42 18.92 17.26 18.86 17.31 2.56 17.46 2.61"/><polygon class="cls-2" points="17.52 2.78 17.48 19.08 17.42 18.92 17.46 2.61 17.52 2.78"/><polygon class="cls-14" points="36.26 2.97 36.21 19.27 36.03 19.15 36.08 2.85 36.26 2.97"/><polygon class="cls-2" points="16.81 3.2 16.76 19.51 16.76 19.35 16.81 3.05 16.81 3.2"/><polygon class="cls-2" points="16.86 3.29 16.82 19.6 16.76 19.51 16.81 3.2 16.86 3.29"/><polygon class="cls-2" points="34.22 3.4 34.17 19.71 34.17 19.61 34.21 3.31 34.22 3.4"/><polygon class="cls-2" points="34.28 3.52 34.23 19.83 34.17 19.71 34.22 3.4 34.28 3.52"/><polygon class="cls-15" points="38.64 3.6 38.6 19.9 38.43 19.97 38.48 3.66 38.64 3.6"/><polygon class="cls-16" points="0.39 3.72 0.34 20.03 0 19.82 0.05 3.52 0.39 3.72"/><polygon class="cls-17" points="38.88 3.81 38.83 20.11 38.71 20.19 38.75 3.89 38.88 3.81"/><polygon class="cls-18" points="24.44 3.65 24.39 19.95 24.3 20.45 24.34 4.15 24.44 3.65"/><polygon class="cls-19" points="39.17 4.27 39.12 20.57 39.02 20.65 39.07 4.35 39.17 4.27"/><polygon class="cls-20" points="24.36 4.26 24.31 20.57 24.25 20.68 24.29 4.37 24.36 4.26"/><polygon class="cls-9" points="25.49 4.38 25.44 20.68 25.34 20.59 25.39 4.29 25.49 4.38"/><polygon class="cls-9" points="1 4.31 0.95 20.62 0.34 20.03 0.39 3.72 1 4.31"/><polygon class="cls-6" points="12.49 4.22 12.45 20.53 12.41 20.66 12.46 4.36 12.49 4.22"/><polygon class="cls-2" points="13.22 4.42 13.17 20.73 13.13 20.58 13.17 4.28 13.22 4.42"/><polygon class="cls-2" points="25.56 4.48 25.51 20.78 25.44 20.68 25.49 4.38 25.56 4.48"/><polygon class="cls-2" points="12.76 4.48 12.71 20.79 12.68 20.68 12.72 4.37 12.76 4.48"/><polygon class="cls-2" points="26.72 4.59 26.67 20.89 26.67 20.81 26.72 4.51 26.72 4.59"/><polygon class="cls-2" points="1.14 4.53 1.09 20.83 0.95 20.62 1 4.31 1.14 4.53"/><polygon class="cls-21" points="1.27 4.62 1.23 20.92 1.09 20.83 1.14 4.53 1.27 4.62"/><polygon class="cls-22" points="1.51 4.7 1.46 21.01 1.23 20.92 1.27 4.62 1.51 4.7"/><polygon class="cls-23" points="24.37 4.45 24.33 20.75 24.29 21.1 24.33 4.8 24.37 4.45"/><polygon class="cls-24" points="1.7 4.75 1.65 21.05 1.46 21.01 1.51 4.7 1.7 4.75"/><polygon class="cls-25" points="1.8 4.83 1.75 21.14 1.65 21.05 1.7 4.75 1.8 4.83"/><polygon class="cls-26" points="40.45 4.87 40.41 21.17 40 21.36 40.05 5.05 40.45 4.87"/><polygon class="cls-2" points="1.8 5.02 1.75 21.32 1.75 21.14 1.8 4.83 1.8 5.02"/><polygon class="cls-27" points="40.94 5.93 40.89 22.24 40.76 22.27 40.81 5.96 40.94 5.93"/><polygon class="cls-15" points="40.81 5.96 40.76 22.27 40.65 22.33 40.69 6.03 40.81 5.96"/><polygon class="cls-2" points="0.84 5.99 0.8 22.29 0.77 22.16 0.82 5.86 0.84 5.99"/><polygon class="cls-28" points="40.69 6.03 40.65 22.33 40.59 22.43 40.64 6.12 40.69 6.03"/><polygon class="cls-2" points="0.98 6.24 0.93 22.54 0.8 22.29 0.84 5.99 0.98 6.24"/><polygon class="cls-2" points="0.99 6.64 0.95 22.94 0.93 22.62 0.97 6.32 0.99 6.64"/><polygon class="cls-29" points="41.89 6.75 41.85 23.05 41.59 23.32 41.63 7.02 41.89 6.75"/><polygon class="cls-3" points="2.62 7.56 2.58 23.86 0.95 22.94 0.99 6.64 2.62 7.56"/><polygon class="cls-30" points="45.67 8.86 45.63 25.16 45.32 25.39 45.37 9.08 45.67 8.86"/><polygon class="cls-26" points="45.37 9.08 45.32 25.39 45.21 25.44 45.26 9.13 45.37 9.08"/><polygon class="cls-19" points="45.26 9.13 45.21 25.44 44.99 25.49 45.04 9.19 45.26 9.13"/><polygon class="cls-15" points="45.04 9.19 44.99 25.49 44.88 25.53 44.93 9.23 45.04 9.19"/><polygon class="cls-15" points="44.93 9.23 44.88 25.53 44.44 25.79 44.48 9.49 44.93 9.23"/><polygon class="cls-2" points="2.48 9.38 2.43 25.69 2.23 24.55 2.28 8.25 2.48 9.38"/><polygon class="cls-31" points="44.48 9.49 44.44 25.79 44.05 25.85 44.1 9.55 44.48 9.49"/><polygon class="cls-2" points="2.49 9.47 2.44 25.78 2.43 25.69 2.48 9.38 2.49 9.47"/><polygon class="cls-32" points="43.22 9.61 43.17 25.92 43.04 25.91 43.09 9.6 43.22 9.61"/><polygon class="cls-19" points="44.1 9.55 44.05 25.85 43.68 25.94 43.73 9.64 44.1 9.55"/><polygon class="cls-33" points="43.73 9.64 43.68 25.94 43.56 25.96 43.6 9.66 43.73 9.64"/><polygon class="cls-34" points="43.46 9.66 43.42 25.97 43.17 25.92 43.22 9.61 43.46 9.66"/><polygon class="cls-35" points="43.6 9.66 43.56 25.96 43.42 25.97 43.46 9.66 43.6 9.66"/><polygon class="cls-17" points="43.09 9.6 43.04 25.91 42.78 25.99 42.83 9.69 43.09 9.6"/><polygon class="cls-35" points="42.83 9.69 42.78 25.99 42.5 26 42.55 9.7 42.83 9.69"/><polygon class="cls-17" points="42.55 9.7 42.5 26 42.27 26.09 42.32 9.78 42.55 9.7"/><polygon class="cls-36" points="42.32 9.78 42.27 26.09 41.8 26.17 41.85 9.86 42.32 9.78"/><polygon class="cls-17" points="41.85 9.86 41.8 26.17 41.44 26.29 41.49 9.99 41.85 9.86"/><polygon class="cls-26" points="41.49 9.99 41.44 26.29 41.18 26.4 41.23 10.1 41.49 9.99"/><polygon class="cls-19" points="41.23 10.1 41.18 26.4 40.6 26.55 40.65 10.24 41.23 10.1"/><polygon class="cls-26" points="40.65 10.24 40.6 26.55 39.7 26.96 39.75 10.66 40.65 10.24"/><polygon class="cls-30" points="39.75 10.66 39.7 26.96 39.38 27.05 39.43 10.74 39.75 10.66"/><polygon class="cls-37" points="39.43 10.74 39.38 27.05 38.79 27.03 38.84 10.73 39.43 10.74"/><polygon class="cls-38" points="38.84 10.73 38.79 27.03 38.63 27.06 38.68 10.76 38.84 10.73"/><polygon class="cls-15" points="38.68 10.76 38.63 27.06 38.48 27.12 38.52 10.82 38.68 10.76"/><polygon class="cls-30" points="38.52 10.82 38.48 27.12 37.55 27.38 37.59 11.07 38.52 10.82"/><polygon class="cls-39" points="37.59 11.07 37.55 27.38 36.29 27.51 36.34 11.2 37.59 11.07"/><polygon class="cls-36" points="36.34 11.2 36.29 27.51 35.69 27.6 35.74 11.3 36.34 11.2"/><polygon class="cls-2" points="1.95 11.22 1.9 27.53 1.87 27.37 1.92 11.07 1.95 11.22"/><polygon class="cls-40" points="35.74 11.3 35.69 27.6 34.44 27.94 34.48 11.64 35.74 11.3"/><polygon class="cls-33" points="34.48 11.64 34.44 27.94 34.12 28 34.16 11.7 34.48 11.64"/><polygon class="cls-35" points="34.16 11.7 34.12 28 33.27 28.04 33.31 11.74 34.16 11.7"/><polygon class="cls-41" points="33.31 11.74 33.27 28.04 32.98 28.08 33.03 11.77 33.31 11.74"/><polygon class="cls-27" points="33.03 11.77 32.98 28.08 32.69 28.14 32.73 11.84 33.03 11.77"/><polygon class="cls-40" points="32.73 11.84 32.69 28.14 32.4 28.22 32.45 11.92 32.73 11.84"/><polygon class="cls-2" points="2.07 11.86 2.02 28.16 1.9 27.53 1.95 11.22 2.07 11.86"/><polygon class="cls-26" points="32.45 11.92 32.4 28.22 32.17 28.32 32.21 12.02 32.45 11.92"/><polygon class="cls-17" points="32.21 12.02 32.17 28.32 31.96 28.39 32.01 12.08 32.21 12.02"/><polygon class="cls-38" points="32.01 12.08 31.96 28.39 31.73 28.43 31.77 12.13 32.01 12.08"/><polygon class="cls-42" points="31.77 12.13 31.73 28.43 31.54 28.45 31.58 12.15 31.77 12.13"/><polygon class="cls-33" points="31.58 12.15 31.54 28.45 31.15 28.52 31.2 12.22 31.58 12.15"/><polygon class="cls-36" points="31.2 12.22 31.15 28.52 30.78 28.58 30.83 12.28 31.2 12.22"/><polygon class="cls-43" points="30.83 12.28 30.78 28.58 30.08 28.61 30.13 12.3 30.83 12.28"/><polygon class="cls-29" points="30.13 12.3 30.08 28.61 29.9 28.63 29.95 12.33 30.13 12.3"/><polygon class="cls-38" points="29.95 12.33 29.9 28.63 29.57 28.7 29.61 12.4 29.95 12.33"/><polygon class="cls-44" points="25.86 12.41 25.81 28.71 25.67 28.71 25.72 12.41 25.86 12.41"/><polygon class="cls-45" points="29.61 12.4 29.57 28.7 29.2 28.73 29.25 12.43 29.61 12.4"/><polygon class="cls-32" points="28.8 12.44 28.76 28.74 28.55 28.72 28.59 12.42 28.8 12.44"/><polygon class="cls-29" points="25.72 12.41 25.67 28.71 25.49 28.74 25.54 12.43 25.72 12.41"/><polygon class="cls-7" points="26.03 12.45 25.98 28.75 25.81 28.71 25.86 12.41 26.03 12.45"/><polygon class="cls-33" points="28.59 12.42 28.55 28.72 28.34 28.76 28.39 12.46 28.59 12.42"/><polygon class="cls-40" points="29.25 12.43 29.2 28.73 29.04 28.77 29.09 12.47 29.25 12.43"/><polygon class="cls-36" points="25.54 12.43 25.49 28.74 25.32 28.77 25.36 12.46 25.54 12.43"/><polygon class="cls-6" points="24.86 12.49 24.81 28.79 24.49 28.72 24.54 12.41 24.86 12.49"/><polygon class="cls-46" points="29.09 12.47 29.04 28.77 28.87 28.81 28.92 12.5 29.09 12.47"/><polygon class="cls-47" points="28.92 12.5 28.87 28.81 28.67 28.79 28.71 12.49 28.92 12.5"/><polygon class="cls-40" points="28.39 12.46 28.34 28.76 28.14 28.81 28.19 12.51 28.39 12.46"/><polygon class="cls-17" points="25.36 12.46 25.32 28.77 25.19 28.81 25.24 12.5 25.36 12.46"/><polygon class="cls-36" points="28.19 12.51 28.14 28.81 27.94 28.84 27.99 12.54 28.19 12.51"/><polygon class="cls-10" points="26.34 12.54 26.3 28.85 25.98 28.75 26.03 12.45 26.34 12.54"/><polygon class="cls-7" points="26.5 12.57 26.45 28.88 26.3 28.85 26.34 12.54 26.5 12.57"/><polygon class="cls-48" points="27.99 12.54 27.94 28.84 26.45 28.88 26.5 12.57 27.99 12.54"/><polygon class="cls-49" points="18.69 12.55 18.65 28.86 18.45 28.86 18.5 12.56 18.69 12.55"/><polygon class="cls-31" points="24.54 12.41 24.49 28.72 23.45 28.88 23.49 12.57 24.54 12.41"/><polygon class="cls-5" points="24.99 12.6 24.94 28.9 24.81 28.79 24.86 12.49 24.99 12.6"/><polygon class="cls-15" points="25.24 12.5 25.19 28.81 24.94 28.9 24.99 12.6 25.24 12.5"/><polygon class="cls-50" points="23.49 12.57 23.45 28.88 21.57 28.9 21.61 12.6 23.49 12.57"/><polygon class="cls-38" points="18.5 12.56 18.45 28.86 18.28 28.9 18.32 12.6 18.5 12.56"/><polygon class="cls-51" points="18.94 12.61 18.89 28.92 18.65 28.86 18.69 12.55 18.94 12.61"/><polygon class="cls-17" points="18.32 12.6 18.28 28.9 18.15 28.94 18.2 12.64 18.32 12.6"/><polygon class="cls-37" points="19.95 12.7 19.9 29 19.4 28.98 19.45 12.68 19.95 12.7"/><polygon class="cls-35" points="21.61 12.6 21.57 28.9 19.9 29 19.95 12.7 21.61 12.6"/><polygon class="cls-41" points="19.45 12.68 19.4 28.98 19.13 29.02 19.18 12.71 19.45 12.68"/><polygon class="cls-52" points="19.18 12.71 19.13 29.02 18.89 28.92 18.94 12.61 19.18 12.71"/><polygon class="cls-53" points="17.25 12.71 17.21 29.02 16.64 29.01 16.69 12.7 17.25 12.71"/><polygon class="cls-42" points="18.2 12.64 18.15 28.94 17.21 29.02 17.25 12.71 18.2 12.64"/><polygon class="cls-29" points="16.69 12.7 16.64 29.01 16.06 29.08 16.11 12.78 16.69 12.7"/><polygon class="cls-2" points="1.81 12.74 1.76 29.04 1.64 28.7 1.69 12.4 1.81 12.74"/><polygon class="cls-19" points="16.11 12.78 16.06 29.08 15.89 29.12 15.94 12.82 16.11 12.78"/><polygon class="cls-54" points="15.2 12.82 15.15 29.12 14.98 29.14 15.03 12.83 15.2 12.82"/><polygon class="cls-53" points="15.03 12.83 14.98 29.14 14.81 29.13 14.86 12.83 15.03 12.83"/><polygon class="cls-54" points="14.86 12.83 14.81 29.13 14.64 29.14 14.69 12.84 14.86 12.83"/><polygon class="cls-55" points="14.69 12.84 14.64 29.14 14.29 29.19 14.34 12.89 14.69 12.84"/><polygon class="cls-2" points="15.23 12.89 15.18 29.2 15.15 29.12 15.2 12.82 15.23 12.89"/><polygon class="cls-40" points="14.34 12.89 14.29 29.19 14.13 29.23 14.18 12.93 14.34 12.89"/><polygon class="cls-15" points="15.94 12.82 15.89 29.12 15.59 29.24 15.64 12.94 15.94 12.82"/><polygon class="cls-5" points="15.3 12.96 15.25 29.26 15.18 29.2 15.23 12.89 15.3 12.96"/><polygon class="cls-33" points="15.64 12.94 15.59 29.24 15.41 29.27 15.46 12.97 15.64 12.94"/><polygon class="cls-47" points="15.46 12.97 15.41 29.27 15.25 29.26 15.3 12.96 15.46 12.97"/><polygon class="cls-2" points="1.9 12.93 1.85 29.23 1.76 29.04 1.81 12.74 1.9 12.93"/><polygon class="cls-56" points="15.09 12.97 15.05 29.27 14.82 29.26 14.86 12.96 15.09 12.97"/><polygon class="cls-26" points="14.18 12.93 14.13 29.23 14 29.3 14.04 13 14.18 12.93"/><polygon class="cls-31" points="14.86 12.96 14.82 29.26 14.53 29.3 14.57 13 14.86 12.96"/><polygon class="cls-19" points="14.57 13 14.53 29.3 14.23 29.38 14.27 13.07 14.57 13"/><polygon class="cls-57" points="2.26 13.12 2.22 29.42 1.85 29.23 1.9 12.93 2.26 13.12"/><polygon class="cls-58" points="2.32 13.31 2.28 29.62 2.12 29.55 2.16 13.25 2.32 13.31"/><polygon class="cls-59" points="2.4 13.38 2.36 29.69 2.28 29.62 2.32 13.31 2.4 13.38"/><polygon class="cls-15" points="10.76 13.37 10.71 29.67 10.62 29.73 10.67 13.42 10.76 13.37"/><polygon class="cls-28" points="10.11 13.48 10.07 29.79 9.62 29.78 9.66 13.48 10.11 13.48"/><polygon class="cls-41" points="10.67 13.42 10.62 29.73 10.07 29.79 10.11 13.48 10.67 13.42"/><polygon class="cls-2" points="2.49 13.48 2.44 29.78 2.36 29.69 2.4 13.38 2.49 13.48"/><polygon class="cls-39" points="9.66 13.48 9.62 29.78 9.18 29.83 9.23 13.53 9.66 13.48"/><polygon class="cls-2" points="10.76 13.54 10.72 29.85 10.71 29.67 10.76 13.37 10.76 13.54"/><polygon class="cls-2" points="2.53 13.58 2.49 29.88 2.44 29.78 2.49 13.48 2.53 13.58"/><polygon class="cls-17" points="14.27 13.07 14.23 29.38 12.56 29.96 12.6 13.66 14.27 13.07"/><polygon class="cls-2" points="10.85 13.66 10.8 29.97 10.72 29.85 10.76 13.54 10.85 13.66"/><polygon class="cls-11" points="11.02 13.75 10.98 30.05 10.8 29.97 10.85 13.66 11.02 13.75"/><polygon class="cls-36" points="9.23 13.53 9.18 29.83 7.57 30.1 7.62 13.8 9.23 13.53"/><polygon class="cls-9" points="2.54 13.82 2.5 30.13 2.41 30.05 2.46 13.75 2.54 13.82"/><polygon class="cls-46" points="12.6 13.66 12.56 29.96 11.27 30.21 11.31 13.9 12.6 13.66"/><polygon class="cls-2" points="11.06 13.91 11.02 30.21 10.96 30.12 11.01 13.82 11.06 13.91"/><polygon class="cls-50" points="11.31 13.9 11.27 30.21 11.02 30.21 11.06 13.91 11.31 13.9"/><polygon class="cls-59" points="2.71 13.96 2.66 30.27 2.5 30.13 2.54 13.82 2.71 13.96"/><polygon class="cls-60" points="4.02 14.14 3.97 30.44 3.72 30.4 3.77 14.1 4.02 14.14"/><polygon class="cls-38" points="3.77 14.1 3.72 30.4 3.5 30.44 3.55 14.14 3.77 14.1"/><polygon class="cls-55" points="3.55 14.14 3.5 30.44 3.29 30.47 3.33 14.17 3.55 14.14"/><polygon class="cls-61" points="3 14.18 2.95 30.48 2.55 30.44 2.59 14.14 3 14.18"/><polygon class="cls-42" points="3.33 14.17 3.29 30.47 3.08 30.49 3.13 14.19 3.33 14.17"/><polygon class="cls-37" points="3.13 14.19 3.08 30.49 2.95 30.48 3 14.18 3.13 14.19"/><polygon class="cls-62" points="4.17 14.23 4.12 30.54 3.97 30.44 4.02 14.14 4.17 14.23"/><polygon class="cls-30" points="7.62 13.8 7.57 30.1 5.96 30.55 6.01 14.25 7.62 13.8"/><polygon class="cls-63" points="4.28 14.34 4.23 30.64 4.12 30.54 4.17 14.23 4.28 14.34"/><polygon class="cls-64" points="4.55 14.49 4.5 30.79 4.23 30.64 4.28 14.34 4.55 14.49"/><polygon class="cls-27" points="6.01 14.25 5.96 30.55 4.81 30.81 4.86 14.51 6.01 14.25"/><polygon class="cls-65" points="4.86 14.51 4.81 30.81 4.5 30.79 4.55 14.49 4.86 14.51"/><polygon class="cls-66" points="38.64 3.6 38.48 3.66 38.52 3.74 38.68 3.79 38.88 3.81 38.75 3.89 38.84 3.91 38.87 4.04 38.91 4.13 39.17 4.27 39.07 4.35 39.18 4.41 39.32 4.47 39.48 4.5 39.63 4.52 39.79 4.49 40.06 4.47 40.21 4.54 40.34 4.76 40.45 4.87 40.05 5.05 40.24 5.34 40.61 5.49 40.72 5.55 40.79 5.65 40.94 5.93 40.81 5.96 40.69 6.03 40.64 6.12 40.68 6.24 40.77 6.32 41.21 6.51 41.34 6.59 41.48 6.62 41.63 6.63 41.79 6.69 41.89 6.75 41.63 7.02 41.95 7.15 42.12 7.3 43.01 7.56 44.41 8.4 44.79 8.59 44.97 8.64 45.14 8.83 45.67 8.86 45.37 9.08 45.26 9.13 45.04 9.19 44.93 9.23 44.48 9.49 44.1 9.55 43.73 9.64 43.6 9.66 43.46 9.66 43.22 9.61 43.09 9.6 42.83 9.69 42.55 9.7 42.32 9.78 41.85 9.86 41.49 9.99 41.23 10.1 40.65 10.24 39.75 10.66 39.43 10.74 38.84 10.73 38.68 10.76 38.52 10.82 37.59 11.07 36.34 11.2 35.74 11.3 34.48 11.64 34.16 11.7 33.31 11.74 33.03 11.77 32.73 11.84 32.45 11.92 32.21 12.02 32.01 12.08 31.77 12.13 31.58 12.15 31.2 12.22 30.83 12.28 30.13 12.3 29.95 12.33 29.61 12.4 29.25 12.43 29.09 12.47 28.92 12.5 28.71 12.49 28.8 12.44 28.59 12.42 28.39 12.46 28.19 12.51 27.99 12.54 26.5 12.57 26.34 12.54 26.03 12.45 25.86 12.41 25.72 12.41 25.54 12.43 25.36 12.46 25.24 12.5 24.99 12.6 24.86 12.49 24.54 12.41 23.49 12.57 21.61 12.6 19.95 12.7 19.45 12.68 19.18 12.71 18.94 12.61 18.69 12.55 18.5 12.56 18.32 12.6 18.2 12.64 17.25 12.71 16.69 12.7 16.11 12.78 15.94 12.82 15.64 12.94 15.46 12.97 15.3 12.96 15.23 12.89 15.2 12.82 15.03 12.83 14.86 12.83 14.69 12.84 14.34 12.89 14.18 12.93 14.04 13 14.61 12.93 14.89 12.91 15.09 12.97 14.86 12.96 14.57 13 14.27 13.07 12.6 13.66 11.31 13.9 11.06 13.91 11.01 13.82 11.02 13.75 10.85 13.66 10.76 13.54 10.76 13.37 10.67 13.42 10.11 13.48 9.66 13.48 9.23 13.53 7.62 13.8 6.01 14.25 4.86 14.51 4.55 14.49 4.28 14.34 4.17 14.23 4.02 14.14 3.77 14.1 3.55 14.14 3.33 14.17 3.13 14.19 3 14.18 2.59 14.14 2.71 13.96 2.54 13.82 2.46 13.75 2.53 13.58 2.49 13.48 2.4 13.38 2.32 13.31 2.16 13.25 2.26 13.12 1.9 12.93 1.81 12.74 1.69 12.4 1.77 12.32 2.07 11.86 1.95 11.22 1.92 11.07 2.11 10.05 2.23 9.8 2.43 9.62 2.47 9.55 2.49 9.47 2.48 9.38 2.28 8.25 2.32 7.98 2.46 7.7 2.62 7.56 0.99 6.64 0.97 6.32 0.98 6.24 0.84 5.99 0.82 5.86 0.9 5.72 1.01 5.64 1.54 5.32 1.65 5.23 1.75 5.13 1.8 5.02 1.8 4.83 1.7 4.75 1.51 4.7 1.27 4.62 1.14 4.53 1 4.31 0.39 3.72 0.05 3.52 0.26 3.32 0.42 3.35 0.47 3.26 0.48 3 0.55 2.92 0.67 2.85 1.14 2.69 1.29 2.66 1.44 2.69 1.68 2.91 1.8 2.94 1.92 2.91 2.03 2.82 2.15 2.57 2.2 2.3 2.25 2.21 2.32 2.12 2.42 2.05 2.55 1.98 2.65 1.88 2.93 1.73 3.04 1.61 2.88 1.26 3.04 1.27 3.19 1.32 3.55 1.47 3.7 1.52 3.88 1.55 4.08 1.56 3.99 1.48 3.87 1.38 3.86 1.28 3.98 1.21 4.18 1.17 4.35 1.17 4.53 1.23 4.56 1.3 4.53 1.39 4.55 1.48 4.67 1.55 4.82 1.46 4.93 1.39 5.35 1.19 5.81 1.08 6.02 1.06 6.14 1.13 6.09 1.32 6.68 1.55 6.83 1.69 7.02 1.78 7.18 1.77 7.37 1.7 8.26 1.97 8.37 2.12 8.41 2.07 8.67 1.97 9.15 2.37 9.41 2.54 9.75 2.67 10.18 2.73 10.57 2.77 10.75 2.79 11.13 2.82 11.24 2.96 11.4 3.14 11.64 3.26 11.95 3.28 11.96 3.43 12.02 3.51 12.16 3.63 12.19 3.71 12.22 3.85 12.33 3.89 12.42 4.01 12.49 4.22 12.46 4.36 12.46 4.43 12.6 4.55 12.68 4.75 12.76 4.48 12.72 4.37 13.08 4.43 13.22 4.42 13.17 4.28 13.31 4.03 13.41 3.98 13.85 4.01 14.06 3.96 14.23 3.8 14.34 3.75 14.58 3.77 15.08 3.96 15.4 3.95 15.58 3.84 15.77 3.9 16.05 3.86 16.17 3.89 16.34 4.06 16.35 3.98 16.48 3.85 16.54 3.78 16.57 3.69 16.57 3.6 16.62 3.51 16.73 3.45 16.86 3.29 16.81 3.2 16.81 3.05 16.95 3.03 17.27 3.07 17.52 2.78 17.46 2.61 17.31 2.56 17.13 2.52 17.01 2.46 16.94 2.31 16.9 2.16 17 2.02 16.86 1.82 16.89 1.56 16.88 1.42 16.83 1.31 16.73 1.22 16.56 1.14 16.09 0.87 15.99 0.76 15.95 0.54 15.88 0.43 16.71 0 16.92 0.17 17.15 0.25 17.41 0.26 17.79 0.23 18.11 0.19 18.53 0.11 18.89 0.17 19.49 0.36 20.22 0.69 20.38 0.75 20.5 0.77 20.78 0.8 20.91 0.82 21.17 0.91 21.43 0.93 21.94 1.06 22.3 1.19 23.05 1.49 23.19 1.59 23.18 1.79 23.31 1.92 23.43 1.98 23.52 2.05 23.62 2.2 23.96 2.26 24.04 2.31 24.19 2.46 24.3 2.62 24.35 2.76 24.42 3.49 24.44 3.65 24.34 4.15 24.36 4.26 24.29 4.37 24.37 4.45 24.33 4.8 24.45 4.74 24.68 4.61 24.92 4.58 25.38 4.61 25.55 4.57 25.56 4.48 25.49 4.38 25.39 4.29 25.62 4.24 25.93 4.19 26.12 4.2 26.22 4.35 26.47 4.42 26.72 4.59 26.72 4.51 26.77 4.44 26.96 4.28 27.2 4.26 27.33 4.26 28.38 3.99 28.49 3.96 28.86 3.85 28.93 3.79 28.99 3.65 29.3 3.38 29.48 3.28 29.62 3.23 29.8 3.21 30.32 3.02 31.18 2.95 31.4 2.96 31.51 3.01 31.68 3.21 31.79 3.31 31.92 3.4 32.08 3.46 32.24 3.48 32.3 3.34 32.75 3.4 33.14 3.62 33.39 3.65 33.79 3.58 33.95 3.58 34.23 3.61 34.28 3.52 34.22 3.4 34.21 3.31 34.44 3.31 34.62 3.3 34.75 3.24 35 3.21 35.22 3.16 35.61 3.24 35.73 3.08 35.86 3.12 35.98 3.07 36.11 3.09 36.24 3.13 36.26 2.97 36.08 2.85 36.39 2.78 36.65 2.89 36.88 3.08 37.13 3.22 37.77 3.45 38.03 3.5 38.45 3.58 38.64 3.6"/></g></g></g></svg>