<svg xmlns="http://www.w3.org/2000/svg" viewBox="0 0 187.1 105.01"><defs><style>.cls-1{isolation:isolate;}.cls-2{fill:#6f1b1b;}.cls-3{fill:#641818;}.cls-4{fill:#481212;}.cls-5{fill:#4d1313;}.cls-6{fill:#521414;}.cls-7{fill:#651919;}.cls-8{fill:#561515;}.cls-9{fill:#5d1717;}.cls-10{fill:#711c1c;}.cls-11{fill:#872121;}.cls-12{fill:#581515;}.cls-13{fill:#4f1313;}.cls-14{fill:#9c2626;}.cls-15{fill:#4a1212;}.cls-16{fill:#551515;}.cls-17{fill:#591616;}.cls-18{fill:#4e1313;}.cls-19{fill:#741c1c;}.cls-20{fill:#882121;}.cls-21{fill:#a72929;}.cls-22{fill:#a82929;}.cls-23{fill:#9f2727;}.cls-24{fill:#501414;}.cls-25{fill:#661919;}.cls-26{fill:#621818;}.cls-27{fill:#631818;}.cls-28{fill:#812020;}.cls-29{fill:#791e1e;}.cls-30{fill:#691a1a;}.cls-31{fill:#5e1717;}.cls-32{fill:#942424;}.cls-33{fill:#8c2222;}.cls-34{fill:#8a2222;}.cls-35{fill:#6c1a1a;}.cls-36{fill:#862121;}.cls-37{fill:#681919;}.cls-38{fill:#932424;}.cls-39{fill:#511414;}.cls-40{fill:#922424;}.cls-41{fill:#9e2727;}.cls-42{fill:#771d1d;}.cls-43{fill:#761d1d;}.cls-44{fill:#832020;}.cls-45{fill:#a32828;}.cls-46{fill:#7a1e1e;}.cls-47{fill:#a52929;}.cls-48{fill:#571515;}.cls-49{fill:#952525;}.cls-50{fill:#5a1616;}.cls-51{fill:#992525;}.cls-52{fill:#c83131;}.cls-53{fill:#9d2727;}.cls-54{fill:#6a1a1a;}</style></defs><title>Libya</title><g id="Layer_2" data-name="Layer 2"><g id="Layer_1-2" data-name="Layer 1"><g class="cls-1"><polygon class="cls-2" points="102.69 1.97 102.64 18.27 102.44 19.41 102.49 3.1 102.69 1.97"/><polygon class="cls-3" points="83.11 5.19 83.07 21.5 83.06 21.87 83.11 5.57 83.11 5.19"/><polygon class="cls-4" points="64.59 16.47 64.55 32.77 64.42 32.2 64.46 15.9 64.59 16.47"/><polygon class="cls-4" points="64.7 18.16 64.65 34.46 64.55 32.77 64.59 16.47 64.7 18.16"/><polygon class="cls-4" points="65.95 19.76 65.91 36.06 64.65 34.46 64.7 18.16 65.95 19.76"/><polygon class="cls-5" points="66.52 20.19 66.47 36.5 65.91 36.06 65.95 19.76 66.52 20.19"/><polygon class="cls-6" points="66.85 20.41 66.8 36.71 66.47 36.5 66.52 20.19 66.85 20.41"/><polygon class="cls-7" points="67.94 20.8 67.89 37.1 66.8 36.71 66.85 20.41 67.94 20.8"/><polygon class="cls-8" points="68.29 21 68.24 37.3 67.89 37.1 67.94 20.8 68.29 21"/><polygon class="cls-9" points="68.65 21.16 68.61 37.47 68.24 37.3 68.29 21 68.65 21.16"/><polygon class="cls-10" points="70.64 21.66 70.59 37.96 68.61 37.47 68.65 21.16 70.64 21.66"/><polygon class="cls-11" points="71.58 21.72 71.54 38.02 70.59 37.96 70.64 21.66 71.58 21.72"/><polygon class="cls-10" points="72.58 21.96 72.53 38.26 71.54 38.02 71.58 21.72 72.58 21.96"/><polygon class="cls-12" points="73.61 22.51 73.57 38.81 72.53 38.26 72.58 21.96 73.61 22.51"/><polygon class="cls-13" points="73.91 22.73 73.86 39.03 73.57 38.81 73.61 22.51 73.91 22.73"/><polygon class="cls-4" points="74.45 23.39 74.41 39.7 73.86 39.03 73.91 22.73 74.45 23.39"/><polygon class="cls-4" points="74.94 24.76 74.9 41.07 74.41 39.7 74.45 23.39 74.94 24.76"/><polygon class="cls-4" points="75.17 25.23 75.12 41.53 74.9 41.07 74.94 24.76 75.17 25.23"/><polygon class="cls-4" points="75.4 26.63 75.35 42.93 75.12 41.53 75.17 25.23 75.4 26.63"/><polygon class="cls-14" points="2.41 45.73 2.36 62.03 1.84 62.11 1.89 45.8 2.41 45.73"/><polygon class="cls-8" points="0.4 46.49 0.36 62.79 0 62.59 0.05 46.29 0.4 46.49"/><polygon class="cls-15" points="1.07 47.12 1.02 63.42 0.36 62.79 0.4 46.49 1.07 47.12"/><polygon class="cls-16" points="1.52 47.38 1.47 63.68 1.02 63.42 1.07 47.12 1.52 47.38"/><polygon class="cls-15" points="1.93 47.75 1.88 64.06 1.47 63.68 1.52 47.38 1.93 47.75"/><polygon class="cls-17" points="2.79 48.19 2.75 64.5 1.88 64.06 1.93 47.75 2.79 48.19"/><polygon class="cls-18" points="3.53 48.74 3.48 65.04 2.75 64.5 2.79 48.19 3.53 48.74"/><polygon class="cls-8" points="3.97 48.98 3.92 65.29 3.48 65.04 3.53 48.74 3.97 48.98"/><polygon class="cls-19" points="4.4 49.08 4.36 65.38 3.92 65.29 3.97 48.98 4.4 49.08"/><polygon class="cls-20" points="5.73 49.15 5.68 65.45 4.36 65.38 4.4 49.08 5.73 49.15"/><polygon class="cls-4" points="6.2 49.78 6.15 66.08 5.68 65.45 5.73 49.15 6.2 49.78"/><polygon class="cls-21" points="187.09 51.03 187.05 67.33 186.34 67.8 186.39 51.49 187.09 51.03"/><polygon class="cls-22" points="186.39 51.49 186.34 67.8 185.38 68.36 185.43 52.05 186.39 51.49"/><polygon class="cls-22" points="185.43 52.05 185.38 68.36 184.57 68.83 184.62 52.52 185.43 52.05"/><polygon class="cls-22" points="184.62 52.52 184.57 68.83 183.75 69.31 183.79 53 184.62 52.52"/><polygon class="cls-22" points="183.79 53 183.75 69.31 182.86 69.82 182.91 53.52 183.79 53"/><polygon class="cls-22" points="182.91 53.52 182.86 69.82 182.12 70.25 182.16 53.95 182.91 53.52"/><polygon class="cls-22" points="182.16 53.95 182.12 70.25 181.55 70.58 181.6 54.28 182.16 53.95"/><polygon class="cls-22" points="181.6 54.28 181.55 70.58 180.48 71.2 180.53 54.9 181.6 54.28"/><polygon class="cls-5" points="4.49 55.91 4.45 72.22 3.7 71.63 3.75 55.32 4.49 55.91"/><polygon class="cls-23" points="184.04 56.93 184 73.23 182.75 73.46 182.8 57.15 184.04 56.93"/><polygon class="cls-4" points="4.66 56.79 4.61 73.09 4.45 72.22 4.49 55.91 4.66 56.79"/><polygon class="cls-23" points="182.8 57.15 182.75 73.46 181.5 73.69 181.55 57.38 182.8 57.15"/><polygon class="cls-23" points="181.55 57.38 181.5 73.69 180.25 73.91 180.3 57.61 181.55 57.38"/><polygon class="cls-23" points="180.3 57.61 180.25 73.91 179.01 74.14 179.06 57.83 180.3 57.61"/><polygon class="cls-23" points="179.06 57.83 179.01 74.14 177.77 74.36 177.81 58.06 179.06 57.83"/><polygon class="cls-23" points="177.81 58.06 177.77 74.36 176.52 74.59 176.57 58.29 177.81 58.06"/><polygon class="cls-23" points="176.57 58.29 176.52 74.59 175.27 74.82 175.32 58.52 176.57 58.29"/><polygon class="cls-23" points="175.32 58.52 175.27 74.82 174.03 75.04 174.07 58.74 175.32 58.52"/><polygon class="cls-23" points="174.07 58.74 174.03 75.04 172.78 75.27 172.83 58.97 174.07 58.74"/><polygon class="cls-4" points="3.96 58.58 3.91 74.89 3.57 74.17 3.62 57.86 3.96 58.58"/><polygon class="cls-23" points="172.83 58.97 172.78 75.27 171.53 75.5 171.58 59.2 172.83 58.97"/><polygon class="cls-23" points="171.58 59.2 171.53 75.5 170.28 75.72 170.33 59.42 171.58 59.2"/><polygon class="cls-23" points="170.33 59.42 170.28 75.72 169.04 75.95 169.08 59.65 170.33 59.42"/><polygon class="cls-4" points="4.09 59.27 4.04 75.57 3.91 74.89 3.96 58.58 4.09 59.27"/><polygon class="cls-23" points="169.08 59.65 169.04 75.95 167.8 76.18 167.84 59.88 169.08 59.65"/><polygon class="cls-23" points="167.84 59.88 167.8 76.18 166.54 76.4 166.59 60.1 167.84 59.88"/><polygon class="cls-24" points="4.67 59.67 4.63 75.97 4.04 75.57 4.09 59.27 4.67 59.67"/><polygon class="cls-23" points="166.59 60.1 166.54 76.4 165.3 76.63 165.34 60.33 166.59 60.1"/><polygon class="cls-23" points="165.34 60.33 165.3 76.63 164.05 76.86 164.09 60.55 165.34 60.33"/><polygon class="cls-2" points="6.49 60.15 6.45 76.45 4.63 75.97 4.67 59.67 6.49 60.15"/><polygon class="cls-23" points="164.09 60.55 164.05 76.86 162.8 77.08 162.85 60.78 164.09 60.55"/><polygon class="cls-25" points="7.51 60.5 7.47 76.81 6.45 76.45 6.49 60.15 7.51 60.5"/><polygon class="cls-23" points="162.85 60.78 162.8 77.08 161.55 77.31 161.6 61 162.85 60.78"/><polygon class="cls-23" points="161.6 61 161.55 77.31 160.31 77.53 160.35 61.23 161.6 61"/><polygon class="cls-23" points="160.35 61.23 160.31 77.53 159.06 77.76 159.1 61.46 160.35 61.23"/><polygon class="cls-26" points="8.88 61.05 8.83 77.35 7.47 76.81 7.51 60.5 8.88 61.05"/><polygon class="cls-23" points="159.1 61.46 159.06 77.76 157.81 77.99 157.86 61.69 159.1 61.46"/><polygon class="cls-27" points="9.84 61.41 9.8 77.72 8.83 77.35 8.88 61.05 9.84 61.41"/><polygon class="cls-23" points="157.86 61.69 157.81 77.99 156.56 78.21 156.6 61.91 157.86 61.69"/><polygon class="cls-4" points="10.05 61.66 10 77.96 9.8 77.72 9.84 61.41 10.05 61.66"/><polygon class="cls-23" points="156.6 61.91 156.56 78.21 155.31 78.43 155.36 62.13 156.6 61.91"/><polygon class="cls-23" points="155.36 62.13 155.31 78.43 154.06 78.66 154.11 62.36 155.36 62.13"/><polygon class="cls-23" points="154.11 62.36 154.06 78.66 152.81 78.89 152.86 62.58 154.11 62.36"/><polygon class="cls-4" points="10.5 62.39 10.45 78.69 10 77.96 10.05 61.66 10.5 62.39"/><polygon class="cls-23" points="152.86 62.58 152.81 78.89 151.56 79.11 151.61 62.81 152.86 62.58"/><polygon class="cls-23" points="151.61 62.81 151.56 79.11 150.31 79.34 150.35 63.03 151.61 62.81"/><polygon class="cls-23" points="150.35 63.03 150.31 79.34 149.06 79.57 149.11 63.26 150.35 63.03"/><polygon class="cls-23" points="149.11 63.26 149.06 79.57 147.82 79.79 147.86 63.48 149.11 63.26"/><polygon class="cls-4" points="10.58 63.13 10.54 79.44 10.45 78.69 10.5 62.39 10.58 63.13"/><polygon class="cls-23" points="147.86 63.48 147.82 79.79 146.56 80.01 146.61 63.71 147.86 63.48"/><polygon class="cls-23" points="146.61 63.71 146.56 80.01 145.31 80.24 145.36 63.93 146.61 63.71"/><polygon class="cls-23" points="145.36 63.93 145.31 80.24 144.06 80.46 144.1 64.16 145.36 63.93"/><polygon class="cls-23" points="144.1 64.16 144.06 80.46 142.81 80.68 142.86 64.38 144.1 64.16"/><polygon class="cls-4" points="11.02 64.19 10.97 80.5 10.54 79.44 10.58 63.13 11.02 64.19"/><polygon class="cls-23" points="142.86 64.38 142.81 80.68 141.56 80.91 141.61 64.6 142.86 64.38"/><polygon class="cls-23" points="141.61 64.6 141.56 80.91 140.31 81.13 140.35 64.83 141.61 64.6"/><polygon class="cls-23" points="140.35 64.83 140.31 81.13 139.06 81.36 139.1 65.05 140.35 64.83"/><polygon class="cls-23" points="139.1 65.05 139.06 81.36 137.8 81.58 137.85 65.28 139.1 65.05"/><polygon class="cls-23" points="137.85 65.28 137.8 81.58 136.56 81.8 136.6 65.5 137.85 65.28"/><polygon class="cls-23" points="136.6 65.5 136.56 81.8 135.53 81.99 135.57 65.68 136.6 65.5"/><polygon class="cls-4" points="11.19 65.44 11.14 81.75 10.97 80.5 11.02 64.19 11.19 65.44"/><polygon class="cls-23" points="135.57 65.68 135.53 81.99 134.05 82.25 134.1 65.95 135.57 65.68"/><polygon class="cls-23" points="134.1 65.95 134.05 82.25 132.79 82.47 132.84 66.17 134.1 65.95"/><polygon class="cls-23" points="132.84 66.17 132.79 82.47 131.55 82.7 131.59 66.39 132.84 66.17"/><polygon class="cls-23" points="131.59 66.39 131.55 82.7 130.29 82.92 130.34 66.62 131.59 66.39"/><polygon class="cls-23" points="130.34 66.62 130.29 82.92 129.04 83.14 129.09 66.84 130.34 66.62"/><polygon class="cls-23" points="129.09 66.84 129.04 83.14 127.78 83.37 127.83 67.06 129.09 66.84"/><polygon class="cls-23" points="127.83 67.06 127.78 83.37 126.53 83.59 126.58 67.29 127.83 67.06"/><polygon class="cls-23" points="126.58 67.29 126.53 83.59 125.28 83.81 125.33 67.51 126.58 67.29"/><polygon class="cls-23" points="125.33 67.51 125.28 83.81 124.03 84.03 124.07 67.73 125.33 67.51"/><polygon class="cls-23" points="124.07 67.73 124.03 84.03 122.77 84.26 122.82 67.95 124.07 67.73"/><polygon class="cls-23" points="122.82 67.95 122.77 84.26 121.52 84.48 121.56 68.18 122.82 67.95"/><polygon class="cls-23" points="121.56 68.18 121.52 84.48 120.26 84.7 120.31 68.4 121.56 68.18"/><polygon class="cls-23" points="120.31 68.4 120.26 84.7 119.02 84.93 119.06 68.62 120.31 68.4"/><polygon class="cls-23" points="119.06 68.62 119.02 84.93 117.76 85.15 117.8 68.84 119.06 68.62"/><polygon class="cls-20" points="10.49 68.69 10.45 84.99 9.58 84.95 9.63 68.64 10.49 68.69"/><polygon class="cls-20" points="11.25 68.73 11.2 85.03 10.45 84.99 10.49 68.69 11.25 68.73"/><polygon class="cls-23" points="117.8 68.84 117.76 85.15 116.5 85.37 116.55 69.06 117.8 68.84"/><polygon class="cls-28" points="13.37 68.97 13.33 85.27 11.2 85.03 11.25 68.73 13.37 68.97"/><polygon class="cls-23" points="116.55 69.06 116.5 85.37 115.25 85.59 115.29 69.29 116.55 69.06"/><polygon class="cls-23" points="115.29 69.29 115.25 85.59 113.99 85.81 114.03 69.51 115.29 69.29"/><polygon class="cls-29" points="15.63 69.37 15.58 85.67 13.33 85.27 13.37 68.97 15.63 69.37"/><polygon class="cls-23" points="114.03 69.51 113.99 85.81 112.74 86.03 112.79 69.73 114.03 69.51"/><polygon class="cls-23" points="112.79 69.73 112.74 86.03 111.48 86.26 111.53 69.95 112.79 69.73"/><polygon class="cls-23" points="111.53 69.95 111.48 86.26 110.22 86.48 110.27 70.17 111.53 69.95"/><polygon class="cls-30" points="17.97 70.12 17.93 86.42 15.58 85.67 15.63 69.37 17.97 70.12"/><polygon class="cls-23" points="110.27 70.17 110.22 86.48 108.97 86.7 109.01 70.4 110.27 70.17"/><polygon class="cls-23" points="109.01 70.4 108.97 86.7 107.71 86.92 107.75 70.62 109.01 70.4"/><polygon class="cls-23" points="107.75 70.62 107.71 86.92 106.46 87.14 106.51 70.84 107.75 70.62"/><polygon class="cls-23" points="106.51 70.84 106.46 87.14 105.2 87.36 105.25 71.06 106.51 70.84"/><polygon class="cls-30" points="20.32 70.86 20.27 87.17 17.93 86.42 17.97 70.12 20.32 70.86"/><polygon class="cls-23" points="105.25 71.06 105.2 87.36 103.94 87.58 103.99 71.28 105.25 71.06"/><polygon class="cls-23" points="103.99 71.28 103.94 87.58 103.01 87.75 103.06 71.44 103.99 71.28"/><polygon class="cls-31" points="21.63 71.45 21.58 87.75 20.27 87.17 20.32 70.86 21.63 71.45"/><polygon class="cls-32" points="103.06 71.44 103.01 87.75 102.75 88.09 102.8 71.79 103.06 71.44"/><polygon class="cls-33" points="102.8 71.79 102.75 88.09 102.55 88.42 102.6 72.12 102.8 71.79"/><polygon class="cls-34" points="102.6 72.12 102.55 88.42 102.36 88.75 102.41 72.45 102.6 72.12"/><polygon class="cls-8" points="23.08 72.27 23.04 88.57 21.58 87.75 21.63 71.45 23.08 72.27"/><polygon class="cls-33" points="102.41 72.45 102.36 88.75 102.17 89.08 102.22 72.78 102.41 72.45"/><polygon class="cls-34" points="102.22 72.78 102.17 89.08 101.98 89.41 102.03 73.11 102.22 72.78"/><polygon class="cls-18" points="24.18 73.09 24.14 89.39 23.04 88.57 23.08 72.27 24.18 73.09"/><polygon class="cls-33" points="102.03 73.11 101.98 89.41 101.78 89.74 101.83 73.44 102.03 73.11"/><polygon class="cls-34" points="101.83 73.44 101.78 89.74 101.59 90.07 101.64 73.77 101.83 73.44"/><polygon class="cls-33" points="101.64 73.77 101.59 90.07 101.39 90.4 101.44 74.1 101.64 73.77"/><polygon class="cls-34" points="101.44 74.1 101.39 90.4 101.2 90.73 101.25 74.43 101.44 74.1"/><polygon class="cls-33" points="101.25 74.43 101.2 90.73 101.01 91.06 101.06 74.76 101.25 74.43"/><polygon class="cls-18" points="26.5 74.81 26.46 91.11 24.14 89.39 24.18 73.09 26.5 74.81"/><polygon class="cls-34" points="101.06 74.76 101.01 91.06 100.82 91.39 100.87 75.09 101.06 74.76"/><polygon class="cls-26" points="27.02 75.01 26.97 91.31 26.46 91.11 26.5 74.81 27.02 75.01"/><polygon class="cls-33" points="100.87 75.09 100.82 91.39 100.63 91.72 100.67 75.42 100.87 75.09"/><polygon class="cls-34" points="100.67 75.42 100.63 91.72 100.44 92.06 100.48 75.75 100.67 75.42"/><polygon class="cls-33" points="100.48 75.75 100.44 92.06 100.24 92.38 100.29 76.08 100.48 75.75"/><polygon class="cls-35" points="30.89 76.16 30.84 92.46 26.97 91.31 27.02 75.01 30.89 76.16"/><polygon class="cls-33" points="100.29 76.08 100.24 92.38 100.05 92.71 100.09 76.41 100.29 76.08"/><polygon class="cls-34" points="100.09 76.41 100.05 92.71 99.86 93.04 99.9 76.74 100.09 76.41"/><polygon class="cls-33" points="99.9 76.74 99.86 93.04 99.65 93.38 99.7 77.07 99.9 76.74"/><polygon class="cls-36" points="99.7 77.07 99.65 93.38 99.09 94.5 99.13 78.19 99.7 77.07"/><polygon class="cls-4" points="32.59 78.05 32.55 94.35 30.84 92.46 30.89 76.16 32.59 78.05"/><polygon class="cls-4" points="32.68 78.54 32.64 94.84 32.55 94.35 32.59 78.05 32.68 78.54"/><polygon class="cls-36" points="99.13 78.19 99.09 94.5 98.57 95.51 98.62 79.21 99.13 78.19"/><polygon class="cls-15" points="33.44 79.24 33.39 95.54 32.64 94.84 32.68 78.54 33.44 79.24"/><polygon class="cls-36" points="98.62 79.21 98.57 95.51 98.07 96.53 98.11 80.23 98.62 79.21"/><polygon class="cls-30" points="35.98 80.06 35.93 96.36 33.39 95.54 33.44 79.24 35.98 80.06"/><polygon class="cls-37" points="37.23 80.47 37.19 96.78 35.93 96.36 35.98 80.06 37.23 80.47"/><polygon class="cls-38" points="38.02 80.44 37.98 96.74 37.19 96.78 37.23 80.47 38.02 80.44"/><polygon class="cls-36" points="98.11 80.23 98.07 96.53 97.56 97.54 97.6 81.24 98.11 80.23"/><polygon class="cls-39" points="39.34 81.31 39.29 97.61 37.98 96.74 38.02 80.44 39.34 81.31"/><polygon class="cls-11" points="97.6 81.24 97.56 97.54 97.36 97.92 97.41 81.61 97.6 81.24"/><polygon class="cls-14" points="97.41 81.61 97.36 97.92 96.56 98.03 96.6 81.73 97.41 81.61"/><polygon class="cls-40" points="96.6 81.73 96.56 98.03 95 98.09 95.04 81.78 96.6 81.73"/><polygon class="cls-40" points="95.04 81.78 95 98.09 93.42 98.14 93.47 81.84 95.04 81.78"/><polygon class="cls-40" points="93.47 81.84 93.42 98.14 91.86 98.19 91.91 81.89 93.47 81.84"/><polygon class="cls-40" points="91.91 81.89 91.86 98.19 90.29 98.25 90.33 81.94 91.91 81.89"/><polygon class="cls-40" points="90.33 81.94 90.29 98.25 89.59 98.27 89.64 81.97 90.33 81.94"/><polygon class="cls-41" points="89.64 81.97 89.59 98.27 88.37 98.47 88.41 82.17 89.64 81.97"/><polygon class="cls-4" points="40.03 82.17 39.99 98.48 39.29 97.61 39.34 81.31 40.03 82.17"/><polygon class="cls-22" points="88.41 82.17 88.37 98.47 87.54 98.77 87.58 82.46 88.41 82.17"/><polygon class="cls-21" points="87.58 82.46 87.54 98.77 86.81 99.02 86.85 82.72 87.58 82.46"/><polygon class="cls-22" points="86.85 82.72 86.81 99.02 86.08 99.28 86.13 82.98 86.85 82.72"/><polygon class="cls-22" points="86.13 82.98 86.08 99.28 85.36 99.54 85.4 83.23 86.13 82.98"/><polygon class="cls-22" points="85.4 83.23 85.36 99.54 84.63 99.8 84.68 83.49 85.4 83.23"/><polygon class="cls-22" points="84.68 83.49 84.63 99.8 83.91 100.05 83.95 83.75 84.68 83.49"/><polygon class="cls-21" points="83.95 83.75 83.91 100.05 83.18 100.31 83.22 84 83.95 83.75"/><polygon class="cls-22" points="83.22 84 83.18 100.31 82.45 100.57 82.5 84.26 83.22 84"/><polygon class="cls-22" points="82.5 84.26 82.45 100.57 81.73 100.83 81.78 84.52 82.5 84.26"/><polygon class="cls-22" points="81.78 84.52 81.73 100.83 81.01 101.08 81.05 84.78 81.78 84.52"/><polygon class="cls-21" points="81.05 84.78 81.01 101.08 80.28 101.34 80.32 85.03 81.05 84.78"/><polygon class="cls-42" points="69.29 85.26 69.24 101.57 67.84 101.29 67.89 84.99 69.29 85.26"/><polygon class="cls-22" points="80.32 85.03 80.28 101.34 79.55 101.59 79.6 85.29 80.32 85.03"/><polygon class="cls-4" points="39.49 85.37 39.45 101.67 39.25 101.37 39.3 85.07 39.49 85.37"/><polygon class="cls-22" points="79.6 85.29 79.55 101.59 78.83 101.85 78.87 85.55 79.6 85.29"/><polygon class="cls-43" points="70.77 85.56 70.72 101.86 69.24 101.57 69.29 85.26 70.77 85.56"/><polygon class="cls-2" points="40.05 85.51 40.01 101.82 39.45 101.67 39.49 85.37 40.05 85.51"/><polygon class="cls-22" points="78.87 85.55 78.83 101.85 78.1 102.11 78.15 85.81 78.87 85.55"/><polygon class="cls-44" points="42.28 85.73 42.24 102.03 40.01 101.82 40.05 85.51 42.28 85.73"/><polygon class="cls-45" points="67.89 84.99 67.84 101.29 63.95 102.24 64 85.94 67.89 84.99"/><polygon class="cls-42" points="73.03 86 72.98 102.31 70.72 101.86 70.77 85.56 73.03 86"/><polygon class="cls-44" points="44.71 85.96 44.66 102.26 42.24 102.03 42.28 85.73 44.71 85.96"/><polygon class="cls-21" points="78.15 85.81 78.1 102.11 77.37 102.36 77.42 86.06 78.15 85.81"/><polygon class="cls-44" points="46.66 86.15 46.62 102.45 44.66 102.26 44.71 85.96 46.66 86.15"/><polygon class="cls-42" points="74.44 86.27 74.39 102.58 72.98 102.31 73.03 86 74.44 86.27"/><polygon class="cls-22" points="77.42 86.06 77.37 102.36 76.65 102.62 76.7 86.32 77.42 86.06"/><polygon class="cls-44" points="49.08 86.38 49.04 102.68 46.62 102.45 46.66 86.15 49.08 86.38"/><polygon class="cls-46" points="49.82 86.5 49.77 102.8 49.04 102.68 49.08 86.38 49.82 86.5"/><polygon class="cls-43" points="75.97 86.58 75.92 102.88 74.39 102.58 74.44 86.27 75.97 86.58"/><polygon class="cls-22" points="76.7 86.32 76.65 102.62 75.92 102.88 75.97 86.58 76.7 86.32"/><polygon class="cls-47" points="64 85.94 63.95 102.24 61.85 102.86 61.9 86.55 64 85.94"/><polygon class="cls-26" points="50.37 86.72 50.32 103.02 49.77 102.8 49.82 86.5 50.37 86.72"/><polygon class="cls-47" points="61.9 86.55 61.85 102.86 60.17 103.35 60.22 87.04 61.9 86.55"/><polygon class="cls-48" points="51.35 87.25 51.31 103.56 50.32 103.02 50.37 86.72 51.35 87.25"/><polygon class="cls-41" points="60.22 87.04 60.17 103.35 59.41 104.09 59.46 87.79 60.22 87.04"/><polygon class="cls-48" points="52.42 87.83 52.37 104.14 51.31 103.56 51.35 87.25 52.42 87.83"/><polygon class="cls-49" points="59.46 87.79 59.41 104.09 58.93 104.7 58.98 88.4 59.46 87.79"/><polygon class="cls-50" points="53.72 88.47 53.67 104.78 52.37 104.14 52.42 87.83 53.72 88.47"/><polygon class="cls-51" points="55.61 88.28 55.56 104.58 53.67 104.78 53.72 88.47 55.61 88.28"/><polygon class="cls-52" points="101.41 0.52 102.19 1.19 102.69 1.97 102.49 3.1 103.67 3.8 104.3 4.16 105.28 4.54 106.19 4.75 106.68 4.93 107.58 5.12 107.99 5.25 108.95 6.14 109.28 6.57 109.96 7.65 110.43 8.88 111.63 9.42 113.64 9.92 114.27 10.38 115.54 10.68 115.95 10.8 116.63 11.26 119.15 11.99 119.67 12.16 120.16 12.39 173.85 43.38 174.74 43.9 177.4 45.43 178.28 45.95 179.17 46.45 180.93 47.47 181.81 47.98 183.58 49 184.92 49.77 185.59 50.16 186.26 50.55 187.09 51.03 186.39 51.49 185.43 52.05 184.62 52.52 183.79 53 182.91 53.52 182.16 53.95 181.6 54.28 180.53 54.9 184.04 56.93 182.8 57.15 181.55 57.38 180.3 57.61 179.06 57.83 177.81 58.06 176.57 58.29 175.32 58.52 174.07 58.74 172.83 58.97 171.58 59.2 170.33 59.42 169.08 59.65 167.84 59.88 166.59 60.1 165.34 60.33 164.09 60.55 162.85 60.78 161.6 61 160.35 61.23 159.1 61.46 157.86 61.69 156.6 61.91 155.36 62.13 154.11 62.36 152.86 62.58 151.61 62.81 150.35 63.03 149.11 63.26 147.86 63.48 146.61 63.71 145.36 63.93 144.1 64.16 142.86 64.38 141.61 64.6 140.35 64.83 139.1 65.05 137.85 65.28 136.6 65.5 135.57 65.68 134.1 65.95 132.84 66.17 131.59 66.39 130.34 66.62 129.09 66.84 127.83 67.06 126.58 67.29 125.33 67.51 124.07 67.73 122.82 67.95 121.56 68.18 120.31 68.4 119.06 68.62 117.8 68.84 116.55 69.06 115.29 69.29 114.03 69.51 112.79 69.73 111.53 69.95 110.27 70.17 109.01 70.4 107.75 70.62 106.51 70.84 105.25 71.06 103.99 71.28 103.06 71.44 102.8 71.79 102.6 72.12 102.41 72.45 102.22 72.78 102.03 73.11 101.83 73.44 101.64 73.77 101.44 74.1 101.25 74.43 101.06 74.76 100.87 75.09 100.67 75.42 100.48 75.75 100.29 76.08 100.09 76.41 99.9 76.74 99.7 77.07 99.13 78.19 98.62 79.21 98.11 80.23 97.6 81.24 97.41 81.61 96.6 81.73 95.04 81.78 93.47 81.84 91.91 81.89 90.33 81.94 89.64 81.97 88.41 82.17 87.58 82.46 86.85 82.72 86.13 82.98 85.4 83.23 84.68 83.49 83.95 83.75 83.22 84 82.5 84.26 81.78 84.52 81.05 84.78 80.32 85.03 79.6 85.29 78.87 85.55 78.15 85.81 77.42 86.06 76.7 86.32 75.97 86.58 74.44 86.27 73.03 86 70.77 85.56 69.29 85.26 67.89 84.99 64 85.94 61.9 86.55 60.22 87.04 59.46 87.79 58.98 88.4 56.99 88.71 55.61 88.28 53.72 88.47 52.42 87.83 51.35 87.25 50.37 86.72 49.82 86.5 49.08 86.38 46.66 86.15 44.71 85.96 42.28 85.73 40.05 85.51 39.49 85.37 39.3 85.07 40.03 82.17 39.34 81.31 38.02 80.44 37.23 80.47 35.98 80.06 33.44 79.24 32.68 78.54 32.59 78.05 30.89 76.16 27.02 75.01 26.5 74.81 24.18 73.09 23.08 72.27 21.63 71.45 20.32 70.86 17.97 70.12 15.63 69.37 13.37 68.97 11.25 68.73 10.49 68.69 9.63 68.64 9.91 67.2 10.6 65.88 11.19 65.44 11.02 64.19 10.58 63.13 10.5 62.39 10.05 61.66 9.84 61.41 8.88 61.05 7.51 60.5 6.49 60.15 4.67 59.67 4.09 59.27 3.96 58.58 3.62 57.86 3.68 57.51 4.43 57.09 4.66 56.79 4.49 55.91 3.75 55.32 4.1 53.69 5.15 51.71 6.04 50.23 6.2 49.78 5.73 49.15 4.4 49.08 3.97 48.98 3.53 48.74 2.79 48.19 1.93 47.75 1.52 47.38 1.07 47.12 0.4 46.49 0.05 46.29 2.41 45.73 1.89 45.8 2.14 45.71 3.08 45.43 5.62 45.1 6.18 45.11 7.22 44.92 8 44.76 11.17 43.33 11.74 42.94 12.91 41.7 13.71 40.76 14.45 40.46 16.7 40.08 18.15 39.26 19.21 38.89 19.93 38.73 21.36 38.14 22.39 38.07 22.99 37.99 24.07 37.95 24.69 37.96 26.13 37.4 26.93 37.29 28.38 36.56 29.98 35.92 31.27 35.76 33.49 36.03 35.1 36.99 38.3 37.85 38.75 37.92 40.48 38.09 41.38 38.11 42.25 38.05 45 37.46 47.45 36.47 49.92 35.07 51.65 34.43 53.59 33.88 54.96 33.36 57.57 32.69 58.34 32.54 59.08 32.33 59.65 32.1 60.27 32.15 61.43 31.83 62.88 31.46 64.85 31.46 67.67 31.21 68.46 31.25 69.51 31.12 71.62 30.76 72.7 30.38 73.3 30.04 73.85 29.64 74.1 29.38 74.31 29.15 74.58 28.69 74.83 27.98 75.4 26.63 75.17 25.23 74.94 24.76 74.45 23.39 73.91 22.73 73.61 22.51 72.58 21.96 71.58 21.72 70.64 21.66 68.65 21.16 68.29 21 67.94 20.8 66.85 20.41 66.52 20.19 65.95 19.76 64.7 18.16 64.59 16.47 64.46 15.9 64.87 14.32 65.75 13.03 66.03 12.14 66.41 11.47 67.98 10.56 68.66 9.97 68.85 8.6 69.2 8.32 70.55 7.84 72.13 6.76 74.07 6.01 75.57 5.82 78.44 4.91 79.04 4.84 82 4.74 83.11 5.19 83.11 5.57 84.02 5.5 85.59 5.31 87.45 4.62 88.36 4.07 89.75 3.57 91.23 3.21 92.34 3.32 93.78 2.52 95.65 1.57 96.07 1.12 98.72 0 100.53 0.42 101.41 0.52"/><polygon class="cls-53" points="58.98 88.4 58.93 104.7 56.95 105.01 56.99 88.71 58.98 88.4"/><polygon class="cls-54" points="56.99 88.71 56.95 105.01 55.56 104.58 55.61 88.28 56.99 88.71"/></g></g></g></svg>