<svg xmlns="http://www.w3.org/2000/svg" viewBox="0 0 79.45 89.18"><defs><style>.cls-1{isolation:isolate;}.cls-2{fill:#9b2626;}.cls-3{fill:#4b1212;}.cls-4{fill:#481212;}.cls-5{fill:#6f1b1b;}.cls-6{fill:#a72929;}.cls-7{fill:#781e1e;}.cls-8{fill:#6b1a1a;}.cls-9{fill:#531414;}.cls-10{fill:#521414;}.cls-11{fill:#741c1c;}.cls-12{fill:#852020;}.cls-13{fill:#7e1f1f;}.cls-14{fill:#4e1313;}.cls-15{fill:#8a2222;}.cls-16{fill:#a42828;}.cls-17{fill:#a32828;}.cls-18{fill:#5a1616;}.cls-19{fill:#551515;}.cls-20{fill:#a62929;}.cls-21{fill:#711c1c;}.cls-22{fill:#801f1f;}.cls-23{fill:#932424;}.cls-24{fill:#a92929;}.cls-25{fill:#952525;}.cls-26{fill:#a82929;}.cls-27{fill:#5c1717;}.cls-28{fill:#9a2626;}.cls-29{fill:#681a1a;}.cls-30{fill:#892121;}.cls-31{fill:#c83131;}.cls-32{fill:#701b1b;}.cls-33{fill:#571515;}.cls-34{fill:#7a1e1e;}.cls-35{fill:#691a1a;}.cls-36{fill:#912323;}.cls-37{fill:#651919;}.cls-38{fill:#7f1f1f;}.cls-39{fill:#671919;}.cls-40{fill:#631818;}.cls-41{fill:#9e2727;}.cls-42{fill:#4a1212;}.cls-43{fill:#4d1313;}.cls-44{fill:#491212;}.cls-45{fill:#6d1b1b;}.cls-46{fill:#731c1c;}.cls-47{fill:#751d1d;}.cls-48{fill:#5f1717;}.cls-49{fill:#962525;}.cls-50{fill:#4c1313;}.cls-51{fill:#541414;}.cls-52{fill:#822020;}.cls-53{fill:#781d1d;}.cls-54{fill:#561515;}.cls-55{fill:#621818;}.cls-56{fill:#832020;}.cls-57{fill:#4f1313;}.cls-58{fill:#771d1d;}.cls-59{fill:#852121;}.cls-60{fill:#721c1c;}.cls-61{fill:#8f2323;}.cls-62{fill:#761d1d;}.cls-63{fill:#641919;}.cls-64{fill:#511414;}.cls-65{fill:#a02727;}.cls-66{fill:#501414;}.cls-67{fill:#892222;}.cls-68{fill:#5c1616;}.cls-69{fill:#681919;}.cls-70{fill:#902323;}.cls-71{fill:#8b2222;}.cls-72{fill:#791e1e;}.cls-73{fill:#972525;}.cls-74{fill:#6a1a1a;}.cls-75{fill:#611818;}.cls-76{fill:#882121;}.cls-77{fill:#581515;}.cls-78{fill:#661919;}.cls-79{fill:#581616;}.cls-80{fill:#601818;}.cls-81{fill:#9f2727;}.cls-82{fill:#8d2323;}.cls-83{fill:#8c2222;}.cls-84{fill:#992626;}.cls-85{fill:#812020;}.cls-86{fill:#872121;}.cls-87{fill:#842020;}.cls-88{fill:#a52828;}.cls-89{fill:#a12828;}</style></defs><title>Madagascar</title><g id="Layer_2" data-name="Layer 2"><g id="Layer_1-2" data-name="Layer 1"><g class="cls-1"><polygon class="cls-2" points="5.17 0.56 5.12 16.86 4.67 16.92 4.71 0.62 5.17 0.56"/><polygon class="cls-3" points="3.58 0.88 3.53 17.18 2.72 16.46 2.77 0.15 3.58 0.88"/><polygon class="cls-4" points="3.94 2.98 3.9 19.28 2.71 17.6 2.76 1.29 3.94 2.98"/><polygon class="cls-4" points="4.15 3.55 4.1 19.85 3.9 19.28 3.94 2.98 4.15 3.55"/><polygon class="cls-5" points="3.45 3.96 3.41 20.26 3.03 20.16 3.08 3.86 3.45 3.96"/><polygon class="cls-6" points="3.08 3.86 3.03 20.16 2.59 20.31 2.64 4 3.08 3.86"/><polygon class="cls-7" points="5.55 4.34 5.51 20.65 3.41 20.26 3.45 3.96 5.55 4.34"/><polygon class="cls-8" points="6.85 4.73 6.8 21.03 5.51 20.65 5.55 4.34 6.85 4.73"/><polygon class="cls-4" points="7.61 5.69 7.56 21.99 6.8 21.03 6.85 4.73 7.61 5.69"/><polygon class="cls-4" points="7.77 6.1 7.72 22.4 7.56 21.99 7.61 5.69 7.77 6.1"/><polygon class="cls-9" points="8.95 6.82 8.91 23.12 7.72 22.4 7.77 6.1 8.95 6.82"/><polygon class="cls-4" points="9.36 7.31 9.32 23.62 8.91 23.12 8.95 6.82 9.36 7.31"/><polygon class="cls-4" points="9.41 7.53 9.36 23.83 9.32 23.62 9.36 7.31 9.41 7.53"/><polygon class="cls-4" points="4.83 8.84 4.78 25.14 4.74 25.08 4.78 8.78 4.83 8.84"/><polygon class="cls-10" points="4.96 8.92 4.92 25.23 4.78 25.14 4.83 8.84 4.96 8.92"/><polygon class="cls-11" points="5.05 8.94 5 25.25 4.92 25.23 4.96 8.92 5.05 8.94"/><polygon class="cls-12" points="5.13 8.95 5.09 25.25 5 25.25 5.05 8.94 5.13 8.95"/><polygon class="cls-13" points="5.22 8.96 5.17 25.26 5.09 25.25 5.13 8.95 5.22 8.96"/><polygon class="cls-14" points="5.26 8.99 5.22 25.3 5.17 25.26 5.22 8.96 5.26 8.99"/><polygon class="cls-15" points="6.79 9.24 6.74 25.55 6.71 25.6 6.75 9.3 6.79 9.24"/><polygon class="cls-4" points="4.68 9.33 4.63 25.64 4.61 25.55 4.66 9.24 4.68 9.33"/><polygon class="cls-16" points="4.82 9.3 4.77 25.6 4.63 25.64 4.68 9.33 4.82 9.3"/><polygon class="cls-17" points="6.75 9.3 6.71 25.6 6.64 25.65 6.69 9.35 6.75 9.3"/><polygon class="cls-18" points="4.92 9.35 4.87 25.65 4.77 25.6 4.82 9.3 4.92 9.35"/><polygon class="cls-19" points="6.48 9.38 6.43 25.68 6.42 25.68 6.47 9.37 6.48 9.38"/><polygon class="cls-20" points="6.69 9.35 6.64 25.65 6.59 25.69 6.63 9.39 6.69 9.35"/><polygon class="cls-21" points="6.53 9.39 6.48 25.7 6.43 25.68 6.48 9.38 6.53 9.39"/><polygon class="cls-22" points="6.59 9.4 6.54 25.7 6.48 25.7 6.53 9.39 6.59 9.4"/><polygon class="cls-17" points="6.63 9.39 6.59 25.69 6.54 25.7 6.59 9.4 6.63 9.39"/><polygon class="cls-17" points="6.47 9.37 6.42 25.68 6.39 25.7 6.44 9.4 6.47 9.37"/><polygon class="cls-4" points="4.99 9.43 4.95 25.74 4.87 25.65 4.92 9.35 4.99 9.43"/><polygon class="cls-23" points="6.44 9.4 6.39 25.7 6.33 25.78 6.38 9.48 6.44 9.4"/><polygon class="cls-3" points="5.09 9.52 5.05 25.82 4.95 25.74 4.99 9.43 5.09 9.52"/><polygon class="cls-24" points="6.38 9.48 6.33 25.78 6.05 25.9 6.1 9.6 6.38 9.48"/><polygon class="cls-16" points="6.1 9.6 6.05 25.9 5.94 25.93 5.99 9.63 6.1 9.6"/><polygon class="cls-25" points="5.99 9.63 5.94 25.93 5.78 25.94 5.83 9.64 5.99 9.63"/><polygon class="cls-26" points="5.83 9.64 5.78 25.94 5.74 25.96 5.78 9.66 5.83 9.64"/><polygon class="cls-27" points="5.42 9.67 5.37 25.98 5.05 25.82 5.09 9.52 5.42 9.67"/><polygon class="cls-6" points="5.88 9.72 5.83 26.02 5.8 26.03 5.85 9.73 5.88 9.72"/><polygon class="cls-28" points="5.85 9.73 5.8 26.03 5.77 26.04 5.81 9.73 5.85 9.73"/><polygon class="cls-29" points="5.6 9.73 5.55 26.04 5.37 25.98 5.42 9.67 5.6 9.73"/><polygon class="cls-28" points="5.81 9.73 5.77 26.04 5.74 26.04 5.78 9.73 5.81 9.73"/><polygon class="cls-28" points="5.78 9.73 5.74 26.04 5.7 26.04 5.75 9.74 5.78 9.73"/><polygon class="cls-30" points="5.75 9.74 5.7 26.04 5.55 26.04 5.6 9.73 5.75 9.74"/><polygon class="cls-31" points="6.75 9.3 6.69 9.35 6.63 9.39 6.59 9.4 6.53 9.39 6.48 9.38 6.47 9.37 6.44 9.4 6.38 9.48 6.1 9.6 5.99 9.63 5.83 9.64 5.78 9.66 5.88 9.72 5.85 9.73 5.81 9.73 5.78 9.73 5.75 9.74 5.6 9.73 5.42 9.67 5.09 9.52 4.99 9.43 4.92 9.35 4.82 9.3 4.68 9.33 4.66 9.24 4.79 9.2 4.93 9.17 4.99 9.09 5.08 9.09 5.17 9.08 5.24 9.04 5.26 8.99 5.22 8.96 5.13 8.95 5.05 8.94 4.96 8.92 4.83 8.84 4.78 8.78 4.83 8.71 4.96 8.63 5.1 8.59 5.25 8.6 5.35 8.67 5.4 8.78 5.49 8.77 5.69 8.81 5.9 8.87 5.97 8.91 6.1 8.88 6.18 8.97 6.23 9.09 6.29 9.16 6.38 9.16 6.54 9.14 6.69 9.14 6.79 9.19 6.79 9.24 6.75 9.3"/><polygon class="cls-32" points="8.16 10.06 8.12 26.36 7.66 26.25 7.71 9.94 8.16 10.06"/><polygon class="cls-4" points="8.33 10.34 8.29 26.64 8.12 26.36 8.16 10.06 8.33 10.34"/><polygon class="cls-24" points="30.93 11.37 30.89 27.67 30.22 27.95 30.27 11.64 30.93 11.37"/><polygon class="cls-33" points="31.73 11.8 31.68 28.1 30.89 27.67 30.93 11.37 31.73 11.8"/><polygon class="cls-26" points="30.27 11.64 30.22 27.95 29.8 28.2 29.84 11.89 30.27 11.64"/><polygon class="cls-3" points="5.98 12.08 5.93 28.39 4.9 27.5 4.94 11.2 5.98 12.08"/><polygon class="cls-34" points="34.03 12.19 33.98 28.49 31.68 28.1 31.73 11.8 34.03 12.19"/><polygon class="cls-6" points="36.68 12.08 36.63 28.38 35.86 28.65 35.91 12.35 36.68 12.08"/><polygon class="cls-2" points="35.91 12.35 35.86 28.65 34.88 28.78 34.93 12.48 35.91 12.35"/><polygon class="cls-35" points="34.93 12.48 34.88 28.78 33.98 28.49 34.03 12.19 34.93 12.48"/><polygon class="cls-14" points="6.16 12.58 6.11 28.88 5.78 28.63 5.82 12.33 6.16 12.58"/><polygon class="cls-36" points="8.32 12.75 8.27 29.05 7.66 29.07 7.71 12.77 8.32 12.75"/><polygon class="cls-37" points="6.7 12.78 6.65 29.08 6.11 28.88 6.16 12.58 6.7 12.78"/><polygon class="cls-38" points="7.33 12.86 7.29 29.16 6.65 29.08 6.7 12.78 7.33 12.86"/><polygon class="cls-17" points="7.71 12.77 7.66 29.07 7.29 29.16 7.33 12.86 7.71 12.77"/><polygon class="cls-23" points="8.8 13.16 8.76 29.47 8.03 29.5 8.08 13.19 8.8 13.16"/><polygon class="cls-11" points="9.77 13.38 9.73 29.68 8.76 29.47 8.8 13.16 9.77 13.38"/><polygon class="cls-4" points="10.09 14.07 10.04 30.37 9.73 29.68 9.77 13.38 10.09 14.07"/><polygon class="cls-4" points="9.21 14.46 9.17 30.77 9.11 29.8 9.15 13.49 9.21 14.46"/><polygon class="cls-39" points="13.15 15.49 13.1 31.8 12.79 31.69 12.83 15.39 13.15 15.49"/><polygon class="cls-4" points="9.23 15.68 9.19 31.98 9.17 30.77 9.21 14.46 9.23 15.68"/><polygon class="cls-4" points="13.48 15.9 13.44 32.21 13.1 31.8 13.15 15.49 13.48 15.9"/><polygon class="cls-18" points="9.72 15.92 9.67 32.23 9.19 31.98 9.23 15.68 9.72 15.92"/><polygon class="cls-26" points="12.83 15.39 12.79 31.69 10.9 32.42 10.95 16.11 12.83 15.39"/><polygon class="cls-4" points="40.2 16.23 40.15 32.53 40.12 32.45 40.16 16.14 40.2 16.23"/><polygon class="cls-40" points="10.43 16.2 10.39 32.5 9.67 32.23 9.72 15.92 10.43 16.2"/><polygon class="cls-41" points="10.95 16.11 10.9 32.42 10.39 32.5 10.43 16.2 10.95 16.11"/><polygon class="cls-42" points="40.28 16.31 40.23 32.61 40.15 32.53 40.2 16.23 40.28 16.31"/><polygon class="cls-10" points="40.38 16.37 40.34 32.68 40.23 32.61 40.28 16.31 40.38 16.37"/><polygon class="cls-42" points="40.46 16.45 40.41 32.75 40.34 32.68 40.38 16.37 40.46 16.45"/><polygon class="cls-21" points="38.48 16.75 38.44 33.05 38.37 33.36 38.42 17.06 38.48 16.75"/><polygon class="cls-4" points="40.71 17.11 40.66 33.42 40.41 32.75 40.46 16.45 40.71 17.11"/><polygon class="cls-4" points="40.74 17.3 40.69 33.6 40.66 33.42 40.71 17.11 40.74 17.3"/><polygon class="cls-4" points="40.77 17.38 40.72 33.69 40.69 33.6 40.74 17.3 40.77 17.38"/><polygon class="cls-43" points="40.87 17.46 40.83 33.77 40.72 33.69 40.77 17.38 40.87 17.46"/><polygon class="cls-4" points="11.54 17.48 11.49 33.79 11.27 33.33 11.31 17.03 11.54 17.48"/><polygon class="cls-9" points="41.06 17.58 41.01 33.88 40.83 33.77 40.87 17.46 41.06 17.58"/><polygon class="cls-3" points="41.13 17.64 41.08 33.95 41.01 33.88 41.06 17.58 41.13 17.64"/><polygon class="cls-44" points="41.2 17.71 41.15 34.02 41.08 33.95 41.13 17.64 41.2 17.71"/><polygon class="cls-4" points="41.38 18 41.34 34.31 41.15 34.02 41.2 17.71 41.38 18"/><polygon class="cls-41" points="39.47 17.69 39.43 34 39.05 34.35 39.1 18.05 39.47 17.69"/><polygon class="cls-3" points="41.52 18.13 41.48 34.43 41.34 34.31 41.38 18 41.52 18.13"/><polygon class="cls-45" points="41.77 18.2 41.73 34.5 41.48 34.43 41.52 18.13 41.77 18.2"/><polygon class="cls-31" points="40.16 16.14 40.18 16.06 40.29 15.83 40.43 15.94 40.69 16.37 41.05 16.78 41.43 17.38 41.52 17.7 41.75 18.04 41.77 18.2 41.52 18.13 41.38 18 41.2 17.71 41.13 17.64 41.06 17.58 40.87 17.46 40.77 17.38 40.74 17.3 40.71 17.11 40.46 16.45 40.38 16.37 40.28 16.31 40.2 16.23 40.16 16.14"/><polygon class="cls-4" points="12.15 18.53 12.11 34.83 11.49 33.79 11.54 17.48 12.15 18.53"/><polygon class="cls-4" points="9.41 18.72 9.36 35.03 9.31 34.03 9.36 17.73 9.41 18.72"/><polygon class="cls-4" points="12.38 19.27 12.34 35.58 12.11 34.83 12.15 18.53 12.38 19.27"/><polygon class="cls-42" points="10.07 19.32 10.02 35.62 9.36 35.03 9.41 18.72 10.07 19.32"/><polygon class="cls-4" points="10.08 19.82 10.04 36.12 10.02 35.62 10.07 19.32 10.08 19.82"/><polygon class="cls-4" points="10.34 20.13 10.29 36.44 10.04 36.12 10.08 19.82 10.34 20.13"/><polygon class="cls-46" points="11.82 21.3 11.78 37.6 10.15 37.23 10.19 20.92 11.82 21.3"/><polygon class="cls-40" points="12.35 21.5 12.3 37.8 11.78 37.6 11.82 21.3 12.35 21.5"/><polygon class="cls-47" points="13.14 21.67 13.09 37.97 12.3 37.8 12.35 21.5 13.14 21.67"/><polygon class="cls-4" points="8.62 25.34 8.57 41.65 8.52 41.13 8.56 24.83 8.62 25.34"/><polygon class="cls-48" points="9.53 26.21 9.48 42.52 8.53 42.1 8.57 25.8 9.53 26.21"/><polygon class="cls-49" points="11.03 26.37 10.98 42.67 10.27 42.72 10.32 26.42 11.03 26.37"/><polygon class="cls-5" points="10.32 26.42 10.27 42.72 9.48 42.52 9.53 26.21 10.32 26.42"/><polygon class="cls-44" points="6.21 29.96 6.17 46.27 5.27 45.38 5.32 29.07 6.21 29.96"/><polygon class="cls-4" points="3.19 32.18 3.14 48.49 3.11 48.29 3.15 31.99 3.19 32.18"/><polygon class="cls-4" points="3.31 32.89 3.26 49.19 3.14 48.49 3.19 32.18 3.31 32.89"/><polygon class="cls-14" points="1.21 36.24 1.16 52.54 0 51.67 0.05 35.37 1.21 36.24"/><polygon class="cls-19" points="2.52 37 2.48 53.3 1.16 52.54 1.21 36.24 2.52 37"/><polygon class="cls-5" points="3.11 37.15 3.06 53.46 2.48 53.3 2.52 37 3.11 37.15"/><polygon class="cls-50" points="3.37 37.37 3.32 53.67 3.06 53.46 3.11 37.15 3.37 37.37"/><polygon class="cls-4" points="3.44 37.64 3.4 53.94 3.32 53.67 3.37 37.37 3.44 37.64"/><polygon class="cls-4" points="3.46 37.92 3.42 54.22 3.4 53.94 3.44 37.64 3.46 37.92"/><polygon class="cls-4" points="3.55 38.17 3.5 54.47 3.42 54.22 3.46 37.92 3.55 38.17"/><polygon class="cls-4" points="3.92 38.91 3.88 55.21 3.5 54.47 3.55 38.17 3.92 38.91"/><polygon class="cls-4" points="3.96 39.19 3.92 55.49 3.88 55.21 3.92 38.91 3.96 39.19"/><polygon class="cls-4" points="4.33 39.66 4.28 55.97 3.92 55.49 3.96 39.19 4.33 39.66"/><polygon class="cls-44" points="4.68 40.49 4.64 56.8 4.2 56.31 4.24 40.01 4.68 40.49"/><polygon class="cls-4" points="4.98 41.51 4.93 57.81 4.64 56.8 4.68 40.49 4.98 41.51"/><polygon class="cls-4" points="5.15 41.75 5.1 58.05 4.93 57.81 4.98 41.51 5.15 41.75"/><polygon class="cls-4" points="5.5 42.42 5.45 58.72 5.1 58.05 5.15 41.75 5.5 42.42"/><polygon class="cls-51" points="6.29 42.9 6.24 59.2 5.45 58.72 5.5 42.42 6.29 42.9"/><polygon class="cls-52" points="7.31 43 7.26 59.3 6.24 59.2 6.29 42.9 7.31 43"/><polygon class="cls-53" points="8.16 43.16 8.11 59.47 7.26 59.3 7.31 43 8.16 43.16"/><polygon class="cls-14" points="8.43 43.36 8.38 59.66 8.11 59.47 8.16 43.16 8.43 43.36"/><polygon class="cls-42" points="9.1 43.97 9.05 60.27 8.38 59.66 8.43 43.36 9.1 43.97"/><polygon class="cls-54" points="9.57 44.23 9.52 60.53 9.05 60.27 9.1 43.97 9.57 44.23"/><polygon class="cls-55" points="11.18 44.86 11.13 61.16 9.52 60.53 9.57 44.23 11.18 44.86"/><polygon class="cls-33" points="12.82 45.75 12.77 62.05 11.13 61.16 11.18 44.86 12.82 45.75"/><polygon class="cls-52" points="13.88 45.86 13.83 62.16 12.77 62.05 12.82 45.75 13.88 45.86"/><polygon class="cls-56" points="15.01 45.97 14.96 62.27 13.83 62.16 13.88 45.86 15.01 45.97"/><polygon class="cls-5" points="16.19 46.28 16.14 62.59 14.96 62.27 15.01 45.97 16.19 46.28"/><polygon class="cls-18" points="17.47 46.91 17.42 63.21 16.14 62.59 16.19 46.28 17.47 46.91"/><polygon class="cls-19" points="17.89 47.16 17.85 63.46 17.42 63.21 17.47 46.91 17.89 47.16"/><polygon class="cls-4" points="18.03 47.34 17.98 63.64 17.85 63.46 17.89 47.16 18.03 47.34"/><polygon class="cls-57" points="18.39 47.6 18.35 63.9 17.98 63.64 18.03 47.34 18.39 47.6"/><polygon class="cls-55" points="18.67 47.71 18.63 64.01 18.35 63.9 18.39 47.6 18.67 47.71"/><polygon class="cls-58" points="19.02 47.78 18.97 64.08 18.63 64.01 18.67 47.71 19.02 47.78"/><polygon class="cls-59" points="20.42 47.88 20.38 64.19 18.97 64.08 19.02 47.78 20.42 47.88"/><polygon class="cls-60" points="21.2 48.06 21.15 64.37 20.38 64.19 20.42 47.88 21.2 48.06"/><polygon class="cls-61" points="21.81 48.06 21.77 64.36 21.15 64.37 21.2 48.06 21.81 48.06"/><polygon class="cls-13" points="22.14 48.1 22.1 64.41 21.77 64.36 21.81 48.06 22.14 48.1"/><polygon class="cls-47" points="22.47 48.17 22.42 64.48 22.1 64.41 22.14 48.1 22.47 48.17"/><polygon class="cls-35" points="23.07 48.37 23.02 64.67 22.42 64.48 22.47 48.17 23.07 48.37"/><polygon class="cls-4" points="23.79 49.3 23.74 65.61 23.02 64.67 23.07 48.37 23.79 49.3"/><polygon class="cls-42" points="24.2 49.68 24.16 65.99 23.74 65.61 23.79 49.3 24.2 49.68"/><polygon class="cls-62" points="25.79 50 25.74 66.31 24.16 65.99 24.2 49.68 25.79 50"/><polygon class="cls-63" points="26.07 50.11 26.03 66.41 25.74 66.31 25.79 50 26.07 50.11"/><polygon class="cls-64" points="26.56 50.43 26.51 66.73 26.03 66.41 26.07 50.11 26.56 50.43"/><polygon class="cls-4" points="26.71 50.64 26.67 66.94 26.51 66.73 26.56 50.43 26.71 50.64"/><polygon class="cls-4" points="26.81 50.84 26.77 67.15 26.67 66.94 26.71 50.64 26.81 50.84"/><polygon class="cls-4" points="26.86 51.05 26.81 67.35 26.77 67.15 26.81 50.84 26.86 51.05"/><polygon class="cls-4" points="26.93 51.71 26.88 68.02 26.81 67.8 26.85 51.5 26.93 51.71"/><polygon class="cls-4" points="27.42 52.55 27.37 68.86 26.88 68.02 26.93 51.71 27.42 52.55"/><polygon class="cls-42" points="27.85 52.97 27.81 69.27 27.37 68.86 27.42 52.55 27.85 52.97"/><polygon class="cls-4" points="27.87 53.85 27.82 70.16 27.77 69.92 27.81 53.62 27.87 53.85"/><polygon class="cls-44" points="28.09 54.09 28.04 70.39 27.82 70.16 27.87 53.85 28.09 54.09"/><polygon class="cls-50" points="28.37 54.32 28.32 70.62 28.04 70.39 28.09 54.09 28.37 54.32"/><polygon class="cls-44" points="28.57 54.53 28.52 70.83 28.32 70.62 28.37 54.32 28.57 54.53"/><polygon class="cls-4" points="28.71 55.57 28.66 71.87 28.52 70.83 28.57 54.53 28.71 55.57"/><polygon class="cls-4" points="29.11 56.28 29.06 72.59 28.66 71.87 28.71 55.57 29.11 56.28"/><polygon class="cls-50" points="30.23 57.22 30.19 73.52 29.06 72.59 29.11 56.28 30.23 57.22"/><polygon class="cls-4" points="30.94 58.02 30.89 74.33 30.19 73.52 30.23 57.22 30.94 58.02"/><polygon class="cls-4" points="30.97 58.23 30.92 74.53 30.89 74.33 30.94 58.02 30.97 58.23"/><polygon class="cls-4" points="29.98 60.07 29.93 76.38 29.61 75.98 29.65 59.67 29.98 60.07"/><polygon class="cls-35" points="79.45 60.56 79.4 76.86 79.33 77.77 79.38 61.47 79.45 60.56"/><polygon class="cls-3" points="31.51 61.41 31.46 77.71 29.93 76.38 29.98 60.07 31.51 61.41"/><polygon class="cls-4" points="31.66 62.09 31.61 78.4 31.46 77.71 31.51 61.41 31.66 62.09"/><polygon class="cls-65" points="79.45 61.88 79.41 78.18 78.9 78.64 78.94 62.34 79.45 61.88"/><polygon class="cls-66" points="31.91 62.27 31.86 78.57 31.61 78.4 31.66 62.09 31.91 62.27"/><polygon class="cls-54" points="32.28 62.47 32.23 78.78 31.86 78.57 31.91 62.27 32.28 62.47"/><polygon class="cls-44" points="32.64 62.87 32.6 79.17 32.23 78.78 32.28 62.47 32.64 62.87"/><polygon class="cls-67" points="78.94 62.34 78.9 78.64 78.21 79.88 78.26 63.57 78.94 62.34"/><polygon class="cls-4" points="32.97 63.53 32.92 79.83 32.6 79.17 32.64 62.87 32.97 63.53"/><polygon class="cls-54" points="33.62 63.9 33.58 80.21 32.92 79.83 32.97 63.53 33.62 63.9"/><polygon class="cls-24" points="78.26 63.57 78.21 79.88 77.05 80.37 77.1 64.06 78.26 63.57"/><polygon class="cls-26" points="77.1 64.06 77.05 80.37 76.3 80.82 76.35 64.52 77.1 64.06"/><polygon class="cls-9" points="35.05 64.78 35 81.09 33.58 80.21 33.62 63.9 35.05 64.78"/><polygon class="cls-58" points="35.53 64.88 35.49 81.18 35 81.09 35.05 64.78 35.53 64.88"/><polygon class="cls-29" points="35.97 65.03 35.93 81.33 35.49 81.18 35.53 64.88 35.97 65.03"/><polygon class="cls-41" points="76.35 64.52 76.3 80.82 75.57 81.54 75.61 65.23 76.35 64.52"/><polygon class="cls-68" points="36.7 65.37 36.65 81.67 35.93 81.33 35.97 65.03 36.7 65.37"/><polygon class="cls-40" points="37.8 65.79 37.75 82.09 36.65 81.67 36.7 65.37 37.8 65.79"/><polygon class="cls-69" points="38.37 65.98 38.32 82.29 37.75 82.09 37.8 65.79 38.37 65.98"/><polygon class="cls-70" points="75.61 65.23 75.57 81.54 74.84 82.64 74.88 66.33 75.61 65.23"/><polygon class="cls-40" points="39.05 66.25 39.01 82.55 38.32 82.29 38.37 65.98 39.05 66.25"/><polygon class="cls-39" points="39.74 66.48 39.7 82.78 39.01 82.55 39.05 66.25 39.74 66.48"/><polygon class="cls-61" points="40.98 66.52 40.93 82.82 40.05 82.83 40.1 66.53 40.98 66.52"/><polygon class="cls-38" points="40.1 66.53 40.05 82.83 39.7 82.78 39.74 66.48 40.1 66.53"/><polygon class="cls-71" points="42.66 66.55 42.61 82.85 42.23 82.84 42.28 66.54 42.66 66.55"/><polygon class="cls-72" points="41.49 66.61 41.44 82.91 40.93 82.82 40.98 66.52 41.49 66.61"/><polygon class="cls-73" points="42.28 66.54 42.23 82.84 41.44 82.91 41.49 66.61 42.28 66.54"/><polygon class="cls-74" points="43.05 66.67 43 82.97 42.61 82.85 42.66 66.55 43.05 66.67"/><polygon class="cls-75" points="43.67 66.93 43.62 83.23 43 82.97 43.05 66.67 43.67 66.93"/><polygon class="cls-76" points="74.88 66.33 74.84 82.64 74.44 83.37 74.48 67.07 74.88 66.33"/><polygon class="cls-77" points="44.34 67.28 44.29 83.59 43.62 83.23 43.67 66.93 44.34 67.28"/><polygon class="cls-34" points="45.19 67.43 45.14 83.73 44.29 83.59 44.34 67.28 45.19 67.43"/><polygon class="cls-59" points="74.48 67.07 74.44 83.37 74.04 84.2 74.08 67.9 74.48 67.07"/><polygon class="cls-35" points="47.35 68.13 47.31 84.43 45.14 83.73 45.19 67.43 47.35 68.13"/><polygon class="cls-78" points="74.08 67.9 74.04 84.2 74.01 84.96 74.06 68.66 74.08 67.9"/><polygon class="cls-13" points="74.06 68.66 74.01 84.96 73.75 85.67 73.79 69.36 74.06 68.66"/><polygon class="cls-79" points="48.27 69.32 48.22 85.63 47.26 85.12 47.3 68.82 48.27 69.32"/><polygon class="cls-65" points="73.79 69.36 73.75 85.67 73.39 85.99 73.43 69.69 73.79 69.36"/><polygon class="cls-18" points="49.18 69.78 49.13 86.09 48.22 85.63 48.27 69.32 49.18 69.78"/><polygon class="cls-80" points="49.99 70.12 49.95 86.43 49.13 86.09 49.18 69.78 49.99 70.12"/><polygon class="cls-6" points="73.43 69.69 73.39 85.99 71.58 87.13 71.63 70.83 73.43 69.69"/><polygon class="cls-64" points="51.16 70.9 51.11 87.2 49.95 86.43 49.99 70.12 51.16 70.9"/><polygon class="cls-81" points="71.63 70.83 71.58 87.13 70.76 87.28 70.81 70.98 71.63 70.83"/><polygon class="cls-71" points="70.81 70.98 70.76 87.28 70.23 87.27 70.28 70.96 70.81 70.98"/><polygon class="cls-16" points="70.28 70.96 70.23 87.27 69.26 87.53 69.3 71.22 70.28 70.96"/><polygon class="cls-73" points="69.3 71.22 69.26 87.53 68.91 87.56 68.96 71.25 69.3 71.22"/><polygon class="cls-82" points="68.96 71.25 68.91 87.56 67.35 87.55 67.4 71.24 68.96 71.25"/><polygon class="cls-65" points="67.4 71.24 67.35 87.55 66.69 87.68 66.74 71.38 67.4 71.24"/><polygon class="cls-6" points="66.74 71.38 66.69 87.68 66.35 87.79 66.4 71.49 66.74 71.38"/><polygon class="cls-68" points="52.35 71.46 52.3 87.76 51.11 87.2 51.16 70.9 52.35 71.46"/><polygon class="cls-11" points="53.1 71.63 53.05 87.93 52.3 87.76 52.35 71.46 53.1 71.63"/><polygon class="cls-83" points="53.5 71.63 53.46 87.94 53.05 87.93 53.1 71.63 53.5 71.63"/><polygon class="cls-84" points="54.29 71.55 54.24 87.85 53.46 87.94 53.5 71.63 54.29 71.55"/><polygon class="cls-85" points="55.25 71.66 55.21 87.96 54.24 87.85 54.29 71.55 55.25 71.66"/><polygon class="cls-86" points="56.04 71.71 56 88.02 55.21 87.96 55.25 71.66 56.04 71.71"/><polygon class="cls-24" points="66.4 71.49 66.35 87.79 65.54 88.13 65.59 71.83 66.4 71.49"/><polygon class="cls-39" points="56.35 71.81 56.3 88.12 56 88.02 56.04 71.71 56.35 71.81"/><polygon class="cls-24" points="65.59 71.83 65.54 88.13 64.81 88.52 64.86 72.22 65.59 71.83"/><polygon class="cls-57" points="56.94 72.23 56.89 88.53 56.3 88.12 56.35 71.81 56.94 72.23"/><polygon class="cls-74" points="57.24 72.32 57.2 88.63 56.89 88.53 56.94 72.23 57.24 72.32"/><polygon class="cls-87" points="58.39 72.43 58.34 88.73 57.2 88.63 57.24 72.32 58.39 72.43"/><polygon class="cls-29" points="63.29 72.48 63.24 88.78 62.8 88.63 62.84 72.33 63.29 72.48"/><polygon class="cls-39" points="58.7 72.53 58.65 88.83 58.34 88.73 58.39 72.43 58.7 72.53"/><polygon class="cls-71" points="61.93 72.58 61.88 88.89 61.04 88.86 61.09 72.56 61.93 72.58"/><polygon class="cls-88" points="62.84 72.33 62.8 88.63 61.88 88.89 61.93 72.58 62.84 72.33"/><polygon class="cls-15" points="63.11 72.59 63.07 88.89 62.6 88.87 62.65 72.57 63.11 72.59"/><polygon class="cls-81" points="61.09 72.56 61.04 88.86 60.69 88.93 60.73 72.63 61.09 72.56"/><polygon class="cls-26" points="64.86 72.22 64.81 88.52 63.64 88.97 63.69 72.66 64.86 72.22"/><polygon class="cls-38" points="63.69 72.66 63.64 88.97 63.07 88.89 63.11 72.59 63.69 72.66"/><polygon class="cls-89" points="60.73 72.63 60.69 88.93 59.5 89.18 59.54 72.88 60.73 72.63"/><polygon class="cls-75" points="59.54 72.88 59.5 89.18 58.65 88.83 58.7 72.53 59.54 72.88"/><polygon class="cls-31" points="71.63 70.83 70.81 70.98 70.28 70.96 69.3 71.22 68.96 71.25 67.4 71.24 66.74 71.38 66.4 71.49 65.59 71.83 64.86 72.22 63.69 72.66 63.11 72.59 62.65 72.57 63.29 72.48 62.84 72.33 61.93 72.58 61.09 72.56 60.73 72.63 59.54 72.88 58.7 72.53 58.39 72.43 57.24 72.32 56.94 72.23 56.35 71.81 56.04 71.71 55.25 71.66 54.29 71.55 53.5 71.63 53.1 71.63 52.35 71.46 51.16 70.9 49.99 70.12 49.18 69.78 48.27 69.32 47.3 68.82 47.35 68.13 45.19 67.43 44.34 67.28 43.67 66.93 43.05 66.67 42.66 66.55 42.28 66.54 41.49 66.61 40.98 66.52 40.1 66.53 39.74 66.48 39.05 66.25 38.37 65.98 37.8 65.79 36.7 65.37 35.97 65.03 35.53 64.88 35.05 64.78 33.62 63.9 32.97 63.53 32.64 62.87 32.28 62.47 31.91 62.27 31.66 62.09 31.51 61.41 29.98 60.07 29.65 59.67 30.18 58.89 30.36 58.71 30.97 58.23 30.94 58.02 30.23 57.22 29.11 56.28 28.71 55.57 28.57 54.53 28.37 54.32 28.09 54.09 27.87 53.85 27.81 53.62 27.82 53.39 27.85 52.97 27.42 52.55 26.93 51.71 26.85 51.5 26.86 51.05 26.81 50.84 26.71 50.64 26.56 50.43 26.07 50.11 25.79 50 24.2 49.68 23.79 49.3 23.07 48.37 22.47 48.17 22.14 48.1 21.81 48.06 21.2 48.06 20.42 47.88 19.02 47.78 18.67 47.71 18.39 47.6 18.03 47.34 17.89 47.16 17.47 46.91 16.19 46.28 15.01 45.97 13.88 45.86 12.82 45.75 11.18 44.86 9.57 44.23 9.1 43.97 8.43 43.36 8.16 43.16 7.31 43 6.29 42.9 5.5 42.42 5.15 41.75 4.98 41.51 4.68 40.49 4.24 40.01 4.33 39.66 3.96 39.19 3.92 38.91 3.55 38.17 3.46 37.92 3.44 37.64 3.37 37.37 3.11 37.15 2.52 37 1.21 36.24 0.05 35.37 2.04 34.12 3.31 32.89 3.19 32.18 3.15 31.99 3.45 31.32 3.54 31.06 4.47 31.38 5.59 30.14 6.21 29.96 5.32 29.07 5.4 28.86 6.35 28.58 6.63 28.11 8.16 26.63 10.44 27.19 11.03 26.37 10.32 26.42 9.53 26.21 8.57 25.8 8.62 25.34 8.56 24.83 8.82 24.46 8.91 24.18 9.18 23.33 9.36 22.65 9.41 22.09 9.61 21.89 11.19 21.76 11.82 22.82 11.97 23 12.03 22.79 12.45 22.28 13.14 21.67 12.35 21.5 11.82 21.3 10.19 20.92 10.22 20.68 10.31 20.4 10.34 20.13 10.08 19.82 10.07 19.32 9.41 18.72 9.36 17.73 10.44 17.99 11.01 18.68 11.98 19.51 12.38 19.27 12.15 18.53 11.54 17.48 11.31 17.03 11.64 16.03 13.48 15.9 13.15 15.49 12.83 15.39 10.95 16.11 10.43 16.2 9.72 15.92 9.23 15.68 9.21 14.46 9.15 13.49 10.09 14.07 9.77 13.38 8.8 13.16 8.08 13.19 8.32 12.75 7.71 12.77 7.33 12.86 6.7 12.78 6.16 12.58 5.82 12.33 5.98 12.08 4.94 11.2 5.61 10.79 7.44 11.05 8.33 10.34 8.16 10.06 7.71 9.94 8.23 9.81 8.29 8.92 8.59 8.47 9.28 7.98 9.38 7.76 9.41 7.53 9.36 7.31 8.95 6.82 7.77 6.1 7.61 5.69 6.85 4.73 5.55 4.34 3.45 3.96 3.08 3.86 2.64 4 4.15 3.55 3.94 2.98 2.76 1.29 2.91 0.97 3.58 0.88 2.77 0.15 3.47 0 5.17 0.56 4.71 0.62 6.13 0.72 8.62 0.9 9.2 1.27 14.61 1.67 15.09 1.9 15.58 2.25 16.54 2.5 16.94 2.74 18.51 3.13 20.11 3.62 20.85 3.77 22.57 4.6 23.2 4.82 23.66 5.07 24.12 5.44 25.68 6.03 26.46 6.47 27.26 6.88 27.82 6.99 28.09 7.12 29.56 7.64 31.08 7.98 32.11 8.05 34 8.52 34.98 9.46 35.21 9.72 36 10.93 36.45 11.77 36.68 12.08 35.91 12.35 34.93 12.48 34.03 12.19 31.73 11.8 30.93 11.37 30.27 11.64 29.84 11.89 29.85 12.75 30.56 13 31.9 13.48 32.3 13.65 33.27 14.32 34.54 14.77 35.12 14.61 35.81 14.61 36.54 15.16 36.79 15.32 37.07 15.44 37.77 15.64 38.45 16.51 38.48 16.75 38.42 17.06 38.75 17.23 39.47 17.69 39.1 18.05 39.44 19.13 40.01 19.82 40.48 20.48 40.9 20.8 41.57 20.91 43.59 21.71 44.07 21.95 44.48 22.28 45.06 22.89 45.8 23.68 46.71 24.44 47.92 25.33 48.35 26.02 48.78 26.71 49.74 27.66 50.4 28.65 50.54 29.01 52.13 30.62 53.45 32.35 54.32 33.12 54.74 33.37 55.17 33.86 55.2 33.98 56.02 35.06 56.66 35.87 57.02 36.27 57.77 37.12 59.63 38.96 60.31 39.59 60.63 39.83 60.81 40.01 61.14 40.47 61.91 41.09 62.07 41.29 64.04 43.5 65.17 45.13 66.3 46.76 66.68 47.08 66.94 47.49 68.56 48.75 68.87 49.07 69.51 49.48 70.09 50.07 70.55 50.63 71.42 51.32 73.06 53.17 74.62 54.46 75.23 55.23 75.34 55.43 75.63 56.1 76.34 56.97 76.52 57.32 77.52 58.1 78.38 59.24 78.48 59.49 78.79 60.13 78.92 60.32 79.45 60.56 79.38 61.47 79.45 61.88 78.94 62.34 78.26 63.57 77.1 64.06 76.35 64.52 75.61 65.23 74.88 66.33 74.48 67.07 74.08 67.9 74.06 68.66 73.79 69.36 73.43 69.69 71.63 70.83"/></g></g></g></svg>