<svg xmlns="http://www.w3.org/2000/svg" viewBox="0 0 68.07 42.47"><defs><style>.cls-1{isolation:isolate;}.cls-2{fill:#481212;}.cls-3{fill:#671919;}.cls-4{fill:#972525;}.cls-5{fill:#a92929;}.cls-6{fill:#a12828;}.cls-7{fill:#631818;}.cls-8{fill:#a02727;}.cls-9{fill:#882121;}.cls-10{fill:#701b1b;}.cls-11{fill:#7e1f1f;}.cls-12{fill:#651919;}.cls-13{fill:#571515;}.cls-14{fill:#a52828;}.cls-15{fill:#9b2626;}.cls-16{fill:#4a1212;}.cls-17{fill:#8a2222;}.cls-18{fill:#9a2626;}.cls-19{fill:#842020;}.cls-20{fill:#8c2222;}.cls-21{fill:#932424;}.cls-22{fill:#591616;}.cls-23{fill:#551515;}.cls-24{fill:#a22828;}.cls-25{fill:#4f1313;}.cls-26{fill:#5d1717;}.cls-27{fill:#761d1d;}.cls-28{fill:#902323;}.cls-29{fill:#731c1c;}.cls-30{fill:#661919;}.cls-31{fill:#a82929;}.cls-32{fill:#9e2727;}.cls-33{fill:#822020;}.cls-34{fill:#491212;}.cls-35{fill:#581616;}.cls-36{fill:#c83131;}.cls-37{fill:#7c1e1e;}.cls-38{fill:#611818;}.cls-39{fill:#862121;}.cls-40{fill:#5c1616;}.cls-41{fill:#6b1a1a;}.cls-42{fill:#781d1d;}.cls-43{fill:#8e2323;}.cls-44{fill:#7b1e1e;}.cls-45{fill:#7d1f1f;}.cls-46{fill:#5a1616;}.cls-47{fill:#5b1616;}.cls-48{fill:#4c1313;}.cls-49{fill:#501414;}.cls-50{fill:#a72929;}.cls-51{fill:#8f2323;}.cls-52{fill:#892222;}.cls-53{fill:#6e1b1b;}.cls-54{fill:#a62929;}.cls-55{fill:#922424;}.cls-56{fill:#5f1717;}.cls-57{fill:#6d1b1b;}.cls-58{fill:#771d1d;}.cls-59{fill:#541515;}.cls-60{fill:#681a1a;}.cls-61{fill:#982525;}.cls-62{fill:#621818;}.cls-63{fill:#791e1e;}.cls-64{fill:#9c2626;}.cls-65{fill:#5e1717;}.cls-66{fill:#812020;}.cls-67{fill:#4d1313;}.cls-68{fill:#962525;}.cls-69{fill:#942424;}.cls-70{fill:#711c1c;}.cls-71{fill:#992626;}.cls-72{fill:#7a1e1e;}.cls-73{fill:#872121;}.cls-74{fill:#9f2727;}.cls-75{fill:#832020;}.cls-76{fill:#912424;}.cls-77{fill:#741c1c;}.cls-78{fill:#691a1a;}.cls-79{fill:#a42828;}.cls-80{fill:#511414;}.cls-81{fill:#6a1a1a;}.cls-82{fill:#4e1313;}.cls-83{fill:#8d2222;}.cls-84{fill:#751d1d;}.cls-85{fill:#801f1f;}</style></defs><title>Malawi</title><g id="Layer_2" data-name="Layer 2"><g id="Layer_1-2" data-name="Layer 1"><g class="cls-1"><polygon class="cls-2" points="7.79 0.77 7.74 17.08 7.67 16.92 7.72 0.62 7.79 0.77"/><polygon class="cls-3" points="8.31 0.95 8.26 17.25 7.74 17.08 7.79 0.77 8.31 0.95"/><polygon class="cls-2" points="8.68 1.42 8.63 17.73 8.26 17.25 8.31 0.95 8.68 1.42"/><polygon class="cls-4" points="3.27 3.92 3.22 20.22 3 20.24 3.04 3.94 3.27 3.92"/><polygon class="cls-5" points="3.04 3.94 3 20.24 2.62 20.44 2.66 4.14 3.04 3.94"/><polygon class="cls-2" points="0.05 4.17 0.01 20.47 0 20.35 0.05 4.04 0.05 4.17"/><polygon class="cls-6" points="2.66 4.14 2.62 20.44 2.39 20.49 2.44 4.18 2.66 4.14"/><polygon class="cls-4" points="4.57 4.23 4.52 20.53 4.11 20.57 4.15 4.26 4.57 4.23"/><polygon class="cls-7" points="4.15 4.26 4.11 20.57 3.22 20.22 3.27 3.92 4.15 4.26"/><polygon class="cls-8" points="5.69 4.18 5.65 20.48 5.22 20.57 5.27 4.26 5.69 4.18"/><polygon class="cls-9" points="5.27 4.26 5.22 20.57 4.52 20.53 4.57 4.23 5.27 4.26"/><polygon class="cls-10" points="6.05 4.27 6.01 20.58 5.65 20.48 5.69 4.18 6.05 4.27"/><polygon class="cls-11" points="0.88 4.28 0.83 20.58 0.01 20.47 0.05 4.17 0.88 4.28"/><polygon class="cls-4" points="1.15 4.25 1.1 20.56 0.83 20.58 0.88 4.28 1.15 4.25"/><polygon class="cls-12" points="6.29 4.36 6.25 20.66 6.01 20.58 6.05 4.27 6.29 4.36"/><polygon class="cls-13" points="1.34 4.36 1.29 20.66 1.1 20.56 1.15 4.25 1.34 4.36"/><polygon class="cls-2" points="6.38 4.47 6.33 20.77 6.25 20.66 6.29 4.36 6.38 4.47"/><polygon class="cls-14" points="2.82 4.53 2.77 20.84 2.57 20.89 2.62 4.59 2.82 4.53"/><polygon class="cls-15" points="2.62 4.59 2.57 20.89 1.66 21.01 1.71 4.71 2.62 4.59"/><polygon class="cls-16" points="1.71 4.71 1.66 21.01 1.29 20.66 1.34 4.36 1.71 4.71"/><polygon class="cls-2" points="6.5 4.75 6.45 21.06 6.33 20.77 6.38 4.47 6.5 4.75"/><polygon class="cls-17" points="9.63 5 9.58 21.3 9.38 21.29 9.43 4.99 9.63 5"/><polygon class="cls-2" points="6.68 5.01 6.64 21.31 6.45 21.06 6.5 4.75 6.68 5.01"/><polygon class="cls-18" points="9.43 4.99 9.38 21.29 9.16 21.32 9.2 5.02 9.43 4.99"/><polygon class="cls-19" points="9.2 5.02 9.16 21.32 8.87 21.29 8.92 4.99 9.2 5.02"/><polygon class="cls-14" points="8.92 4.99 8.87 21.29 8.64 21.36 8.69 5.06 8.92 4.99"/><polygon class="cls-20" points="8.46 5.07 8.42 21.37 8.2 21.37 8.24 5.07 8.46 5.07"/><polygon class="cls-21" points="8.69 5.06 8.64 21.36 8.42 21.37 8.46 5.07 8.69 5.06"/><polygon class="cls-21" points="8.24 5.07 8.2 21.37 7.93 21.38 7.98 5.08 8.24 5.07"/><polygon class="cls-22" points="9.86 5.12 9.81 21.42 9.58 21.3 9.63 5 9.86 5.12"/><polygon class="cls-16" points="6.82 5.13 6.77 21.43 6.64 21.31 6.68 5.01 6.82 5.13"/><polygon class="cls-23" points="6.99 5.23 6.94 21.53 6.77 21.43 6.82 5.13 6.99 5.23"/><polygon class="cls-19" points="7.2 5.25 7.15 21.55 6.94 21.53 6.99 5.23 7.2 5.25"/><polygon class="cls-24" points="7.98 5.08 7.93 21.38 7.15 21.55 7.2 5.25 7.98 5.08"/><polygon class="cls-25" points="10.2 5.36 10.15 21.66 9.81 21.42 9.86 5.12 10.2 5.36"/><polygon class="cls-26" points="10.38 5.44 10.33 21.74 10.15 21.66 10.2 5.36 10.38 5.44"/><polygon class="cls-27" points="11.1 5.58 11.06 21.89 10.33 21.74 10.38 5.44 11.1 5.58"/><polygon class="cls-28" points="11.56 5.58 11.52 21.88 11.06 21.89 11.1 5.58 11.56 5.58"/><polygon class="cls-29" points="11.99 5.68 11.94 21.98 11.52 21.88 11.56 5.58 11.99 5.68"/><polygon class="cls-5" points="12.41 5.59 12.37 21.89 12.16 21.99 12.21 5.69 12.41 5.59"/><polygon class="cls-9" points="12.21 5.69 12.16 21.99 11.94 21.98 11.99 5.68 12.21 5.69"/><polygon class="cls-23" points="12.59 5.7 12.55 22 12.37 21.89 12.41 5.59 12.59 5.7"/><polygon class="cls-30" points="12.89 5.8 12.85 22.11 12.55 22 12.59 5.7 12.89 5.8"/><polygon class="cls-31" points="28.08 4.69 28.03 21 25.99 22.22 26.04 5.91 28.08 4.69"/><polygon class="cls-2" points="12.94 5.96 12.9 22.26 12.85 22.11 12.89 5.8 12.94 5.96"/><polygon class="cls-32" points="26.04 5.91 25.99 22.22 25.82 22.38 25.87 6.08 26.04 5.91"/><polygon class="cls-2" points="12.84 6.89 12.79 23.19 12.74 22.8 12.79 6.49 12.84 6.89"/><polygon class="cls-2" points="12.99 7.11 12.94 23.41 12.79 23.19 12.84 6.89 12.99 7.11"/><polygon class="cls-2" points="13.03 7.21 12.99 23.52 12.94 23.41 12.99 7.11 13.03 7.21"/><polygon class="cls-2" points="29.38 7.75 29.33 24.05 29.16 23.82 29.21 7.51 29.38 7.75"/><polygon class="cls-33" points="30.22 7.7 30.17 24 30.12 24.13 30.16 7.83 30.22 7.7"/><polygon class="cls-34" points="29.49 7.87 29.45 24.17 29.33 24.05 29.38 7.75 29.49 7.87"/><polygon class="cls-24" points="30.16 7.83 30.12 24.13 30 24.23 30.04 7.93 30.16 7.83"/><polygon class="cls-35" points="29.64 7.95 29.59 24.25 29.45 24.17 29.49 7.87 29.64 7.95"/><polygon class="cls-36" points="29.38 7.75 29.21 7.51 29.23 7.42 29.39 7.35 29.59 7.29 29.77 7.27 29.96 7.32 30.1 7.43 30.2 7.57 30.22 7.7 30.16 7.83 30.04 7.93 29.86 7.98 29.64 7.95 29.49 7.87 29.38 7.75"/><polygon class="cls-14" points="30.04 7.93 30 24.23 29.82 24.28 29.86 7.98 30.04 7.93"/><polygon class="cls-37" points="29.86 7.98 29.82 24.28 29.59 24.25 29.64 7.95 29.86 7.98"/><polygon class="cls-38" points="28.32 8.04 28.27 24.35 28.14 24.29 28.18 7.99 28.32 8.04"/><polygon class="cls-9" points="28.69 8.06 28.65 24.36 28.27 24.35 28.32 8.04 28.69 8.06"/><polygon class="cls-39" points="28.9 8.08 28.85 24.38 28.65 24.36 28.69 8.06 28.9 8.08"/><polygon class="cls-36" points="28.21 7.85 28.21 7.84 28.4 7.68 28.71 7.63 29 7.7 29.18 7.87 29.18 8.03 29.07 8.08 28.9 8.08 28.69 8.06 28.32 8.04 28.18 7.99 28.21 7.85"/><polygon class="cls-20" points="29.07 8.08 29.02 24.38 28.85 24.38 28.9 8.08 29.07 8.08"/><polygon class="cls-5" points="29.18 8.03 29.13 24.33 29.02 24.38 29.07 8.08 29.18 8.03"/><polygon class="cls-33" points="12.37 8.63 12.32 24.93 11.92 24.89 11.97 8.59 12.37 8.63"/><polygon class="cls-21" points="12.54 8.62 12.5 24.93 12.32 24.93 12.37 8.63 12.54 8.62"/><polygon class="cls-12" points="12.81 8.72 12.77 25.02 12.5 24.93 12.54 8.62 12.81 8.72"/><polygon class="cls-40" points="13.03 8.82 12.98 25.12 12.77 25.02 12.81 8.72 13.03 8.82"/><polygon class="cls-40" points="13.25 8.92 13.2 25.23 12.98 25.12 13.03 8.82 13.25 8.92"/><polygon class="cls-41" points="13.52 9.01 13.47 25.31 13.2 25.23 13.25 8.92 13.52 9.01"/><polygon class="cls-42" points="13.79 9.06 13.75 25.36 13.47 25.31 13.52 9.01 13.79 9.06"/><polygon class="cls-19" points="14.09 9.08 14.05 25.39 13.75 25.36 13.79 9.06 14.09 9.08"/><polygon class="cls-43" points="14.39 9.08 14.34 25.39 14.05 25.39 14.09 9.08 14.39 9.08"/><polygon class="cls-44" points="14.97 9.18 14.93 25.48 14.34 25.39 14.39 9.08 14.97 9.18"/><polygon class="cls-34" points="15.11 9.33 15.07 25.63 14.93 25.48 14.97 9.18 15.11 9.33"/><polygon class="cls-2" points="15.22 9.49 15.17 25.79 15.07 25.63 15.11 9.33 15.22 9.49"/><polygon class="cls-2" points="15.88 10.67 15.84 26.97 15.17 25.79 15.22 9.49 15.88 10.67"/><polygon class="cls-13" points="16.29 11.14 16.24 27.45 15.57 27.08 15.61 10.78 16.29 11.14"/><polygon class="cls-2" points="16.37 11.24 16.33 27.54 16.24 27.45 16.29 11.14 16.37 11.24"/><polygon class="cls-21" points="17.05 11.2 17.01 27.51 16.33 27.54 16.37 11.24 17.05 11.2"/><polygon class="cls-45" points="17.39 11.25 17.34 27.55 17.01 27.51 17.05 11.2 17.39 11.25"/><polygon class="cls-46" points="18.56 11.84 18.52 28.14 17.34 27.55 17.39 11.25 18.56 11.84"/><polygon class="cls-25" points="18.78 11.99 18.74 28.3 18.52 28.14 18.56 11.84 18.78 11.99"/><polygon class="cls-16" points="19.06 12.25 19.02 28.56 18.74 28.3 18.78 11.99 19.06 12.25"/><polygon class="cls-47" points="19.56 12.5 19.52 28.8 19.02 28.56 19.06 12.25 19.56 12.5"/><polygon class="cls-48" points="19.85 12.73 19.8 29.03 19.52 28.8 19.56 12.5 19.85 12.73"/><polygon class="cls-2" points="20.2 13.24 20.16 29.54 19.8 29.03 19.85 12.73 20.2 13.24"/><polygon class="cls-49" points="20.41 13.38 20.36 29.68 20.16 29.54 20.2 13.24 20.41 13.38"/><polygon class="cls-50" points="23.77 13.22 23.73 29.53 23.17 29.72 23.21 13.41 23.77 13.22"/><polygon class="cls-34" points="23.96 13.43 23.91 29.73 23.73 29.53 23.77 13.22 23.96 13.43"/><polygon class="cls-38" points="20.8 13.54 20.75 29.85 20.36 29.68 20.41 13.38 20.8 13.54"/><polygon class="cls-51" points="21.16 13.54 21.12 29.84 20.75 29.85 20.8 13.54 21.16 13.54"/><polygon class="cls-52" points="21.34 13.55 21.3 29.85 21.12 29.84 21.16 13.54 21.34 13.55"/><polygon class="cls-53" points="21.64 13.63 21.59 29.93 21.3 29.85 21.34 13.55 21.64 13.63"/><polygon class="cls-15" points="23.21 13.41 23.17 29.72 22.82 30.09 22.87 13.78 23.21 13.41"/><polygon class="cls-3" points="22.23 13.83 22.18 30.13 21.59 29.93 21.64 13.63 22.23 13.83"/><polygon class="cls-11" points="22.56 13.88 22.51 30.18 22.18 30.13 22.23 13.83 22.56 13.88"/><polygon class="cls-54" points="22.87 13.78 22.82 30.09 22.51 30.18 22.56 13.88 22.87 13.78"/><polygon class="cls-34" points="24.07 13.97 24.03 30.27 23.84 30.09 23.89 13.79 24.07 13.97"/><polygon class="cls-2" points="24 14.37 23.95 30.67 23.91 30.52 23.95 14.22 24 14.37"/><polygon class="cls-2" points="24.01 14.53 23.96 30.83 23.95 30.67 24 14.37 24.01 14.53"/><polygon class="cls-2" points="22.54 16.58 22.5 32.89 22.3 32.54 22.34 16.23 22.54 16.58"/><polygon class="cls-2" points="22.66 16.93 22.61 33.23 22.5 32.89 22.54 16.58 22.66 16.93"/><polygon class="cls-2" points="22.85 17.17 22.81 33.48 22.61 33.23 22.66 16.93 22.85 17.17"/><polygon class="cls-55" points="24.11 17.41 24.06 33.71 23.75 33.72 23.8 17.42 24.11 17.41"/><polygon class="cls-15" points="23.8 17.42 23.75 33.72 23.46 33.76 23.5 17.45 23.8 17.42"/><polygon class="cls-56" points="23.5 17.45 23.46 33.76 22.81 33.48 22.85 17.17 23.5 17.45"/><polygon class="cls-57" points="24.33 17.47 24.28 33.77 24.06 33.71 24.11 17.41 24.33 17.47"/><polygon class="cls-48" points="24.49 17.6 24.44 33.9 24.28 33.77 24.33 17.47 24.49 17.6"/><polygon class="cls-2" points="24.72 17.94 24.68 34.25 24.44 33.9 24.49 17.6 24.72 17.94"/><polygon class="cls-33" points="43.77 18.12 43.73 34.42 43.51 34.4 43.56 18.1 43.77 18.12"/><polygon class="cls-4" points="43.56 18.1 43.51 34.4 43.09 34.44 43.14 18.14 43.56 18.1"/><polygon class="cls-27" points="44.44 18.25 44.39 34.56 43.73 34.42 43.77 18.12 44.44 18.25"/><polygon class="cls-51" points="45.47 18.27 45.42 34.57 44.73 34.58 44.78 18.27 45.47 18.27"/><polygon class="cls-9" points="44.78 18.27 44.73 34.58 44.39 34.56 44.44 18.25 44.78 18.27"/><polygon class="cls-58" points="45.79 18.33 45.75 34.63 45.42 34.57 45.47 18.27 45.79 18.33"/><polygon class="cls-13" points="46.03 18.46 45.98 34.76 45.75 34.63 45.79 18.33 46.03 18.46"/><polygon class="cls-59" points="25.81 18.59 25.76 34.89 24.68 34.25 24.72 17.94 25.81 18.59"/><polygon class="cls-16" points="46.35 18.75 46.3 35.05 45.98 34.76 46.03 18.46 46.35 18.75"/><polygon class="cls-60" points="26.22 18.72 26.18 35.02 25.76 34.89 25.81 18.59 26.22 18.72"/><polygon class="cls-60" points="46.64 18.84 46.6 35.15 46.3 35.05 46.35 18.75 46.64 18.84"/><polygon class="cls-27" points="46.98 18.91 46.93 35.21 46.6 35.15 46.64 18.84 46.98 18.91"/><polygon class="cls-61" points="43.14 18.14 43.09 34.44 42.38 35.27 42.43 18.96 43.14 18.14"/><polygon class="cls-57" points="47.25 18.99 47.2 35.29 46.93 35.21 46.98 18.91 47.25 18.99"/><polygon class="cls-62" points="47.5 19.09 47.45 35.39 47.2 35.29 47.25 18.99 47.5 19.09"/><polygon class="cls-2" points="26.13 19.09 26.08 35.39 26.04 35.17 26.08 18.87 26.13 19.09"/><polygon class="cls-31" points="42.43 18.96 42.38 35.27 41.92 35.55 41.96 19.25 42.43 18.96"/><polygon class="cls-2" points="26.27 19.31 26.23 35.62 26.08 35.39 26.13 19.09 26.27 19.31"/><polygon class="cls-13" points="48.14 19.44 48.1 35.74 47.45 35.39 47.5 19.09 48.14 19.44"/><polygon class="cls-55" points="41.96 19.25 41.92 35.55 41.79 35.73 41.84 19.43 41.96 19.25"/><polygon class="cls-16" points="26.56 19.59 26.52 35.89 26.23 35.62 26.27 19.31 26.56 19.59"/><polygon class="cls-63" points="64.03 19.27 63.99 35.58 63.84 36.04 63.89 19.74 64.03 19.27"/><polygon class="cls-30" points="48.97 19.73 48.92 36.03 48.1 35.74 48.14 19.44 48.97 19.73"/><polygon class="cls-50" points="63.89 19.74 63.84 36.04 63.6 36.2 63.65 19.9 63.89 19.74"/><polygon class="cls-16" points="26.84 19.85 26.79 36.15 26.52 35.89 26.56 19.59 26.84 19.85"/><polygon class="cls-5" points="41.96 19.64 41.91 35.94 41.1 36.34 41.15 20.03 41.96 19.64"/><polygon class="cls-2" points="26.99 20.07 26.94 36.37 26.79 36.15 26.84 19.85 26.99 20.07"/><polygon class="cls-31" points="41.15 20.03 41.1 36.34 40.9 36.45 40.95 20.15 41.15 20.03"/><polygon class="cls-16" points="49.53 20.26 49.48 36.56 48.92 36.03 48.97 19.73 49.53 20.26"/><polygon class="cls-64" points="40.95 20.15 40.9 36.45 40.78 36.59 40.82 20.28 40.95 20.15"/><polygon class="cls-64" points="63.65 19.9 63.6 36.2 63.1 36.73 63.15 20.42 63.65 19.9"/><polygon class="cls-54" points="63.15 20.42 63.1 36.73 62.95 36.82 63 20.52 63.15 20.42"/><polygon class="cls-65" points="50.12 20.52 50.08 36.82 49.48 36.56 49.53 20.26 50.12 20.52"/><polygon class="cls-2" points="27.03 20.53 26.98 36.84 26.94 36.37 26.99 20.07 27.03 20.53"/><polygon class="cls-66" points="40.82 20.28 40.78 36.59 40.63 36.95 40.67 20.64 40.82 20.28"/><polygon class="cls-31" points="63 20.52 62.95 36.82 62.58 37.04 62.62 20.73 63 20.52"/><polygon class="cls-15" points="62.62 20.73 62.58 37.04 62.4 37.06 62.44 20.76 62.62 20.73"/><polygon class="cls-56" points="50.68 20.76 50.63 37.06 50.08 36.82 50.12 20.52 50.68 20.76"/><polygon class="cls-50" points="62.44 20.76 62.4 37.06 62.23 37.12 62.27 20.81 62.44 20.76"/><polygon class="cls-2" points="27.13 20.72 27.08 37.03 26.98 36.84 27.03 20.53 27.13 20.72"/><polygon class="cls-61" points="40.67 20.64 40.63 36.95 40.5 37.09 40.55 20.79 40.67 20.64"/><polygon class="cls-5" points="62.27 20.81 62.23 37.12 62.09 37.19 62.13 20.89 62.27 20.81"/><polygon class="cls-67" points="50.83 20.88 50.78 37.18 50.63 37.06 50.68 20.76 50.83 20.88"/><polygon class="cls-5" points="40.55 20.79 40.5 37.09 40.3 37.19 40.34 20.89 40.55 20.79"/><polygon class="cls-32" points="62.13 20.89 62.09 37.19 61.97 37.3 62.02 21 62.13 20.89"/><polygon class="cls-68" points="40.34 20.89 40.3 37.19 39.67 37.24 39.71 20.93 40.34 20.89"/><polygon class="cls-69" points="33.88 20.94 33.83 37.24 33.56 37.26 33.61 20.95 33.88 20.94"/><polygon class="cls-70" points="34.14 21 34.1 37.31 33.83 37.24 33.88 20.94 34.14 21"/><polygon class="cls-71" points="39.71 20.93 39.67 37.24 39.57 37.34 39.62 21.04 39.71 20.93"/><polygon class="cls-72" points="62.02 21 61.97 37.3 61.93 37.42 61.98 21.11 62.02 21"/><polygon class="cls-63" points="32.79 21.04 32.74 37.34 32.15 37.23 32.2 20.93 32.79 21.04"/><polygon class="cls-73" points="33.04 21.05 33 37.35 32.74 37.34 32.79 21.04 33.04 21.05"/><polygon class="cls-74" points="33.61 20.95 33.56 37.26 33 37.35 33.04 21.05 33.61 20.95"/><polygon class="cls-75" points="32.2 20.93 32.15 37.23 32.06 37.44 32.1 21.14 32.2 20.93"/><polygon class="cls-25" points="34.44 21.22 34.4 37.52 34.1 37.31 34.14 21 34.44 21.22"/><polygon class="cls-30" points="34.6 21.28 34.56 37.58 34.4 37.52 34.44 21.22 34.6 21.28"/><polygon class="cls-17" points="35.54 21.31 35.49 37.61 34.56 37.58 34.6 21.28 35.54 21.31"/><polygon class="cls-24" points="27.68 21.27 27.63 37.57 27.38 37.63 27.43 21.33 27.68 21.27"/><polygon class="cls-63" points="35.81 21.36 35.77 37.66 35.49 37.61 35.54 21.31 35.81 21.36"/><polygon class="cls-33" points="36.09 21.39 36.05 37.69 35.77 37.66 35.81 21.36 36.09 21.39"/><polygon class="cls-76" points="32.1 21.14 32.06 37.44 31.89 37.68 31.94 21.38 32.1 21.14"/><polygon class="cls-2" points="50.88 21.47 50.83 37.77 50.78 37.18 50.83 20.88 50.88 21.47"/><polygon class="cls-77" points="28.42 21.43 28.37 37.73 27.63 37.57 27.68 21.27 28.42 21.43"/><polygon class="cls-5" points="27.43 21.33 27.38 37.63 27.13 37.77 27.18 21.46 27.43 21.33"/><polygon class="cls-48" points="26.63 21.48 26.59 37.78 26.47 37.69 26.52 21.38 26.63 21.48"/><polygon class="cls-69" points="40.05 21.47 40 37.77 39.13 37.82 39.18 21.52 40.05 21.47"/><polygon class="cls-78" points="61.98 21.11 61.93 37.42 61.89 37.93 61.94 21.63 61.98 21.11"/><polygon class="cls-4" points="39.18 21.52 39.13 37.82 38.59 37.87 38.64 21.56 39.18 21.52"/><polygon class="cls-21" points="29.55 21.55 29.5 37.86 29.32 37.86 29.37 21.56 29.55 21.55"/><polygon class="cls-58" points="37.11 21.59 37.07 37.89 36.05 37.69 36.09 21.39 37.11 21.59"/><polygon class="cls-53" points="31.94 21.38 31.89 37.68 31.86 37.88 31.91 21.57 31.94 21.38"/><polygon class="cls-53" points="26.92 21.56 26.88 37.86 26.59 37.78 26.63 21.48 26.92 21.56"/><polygon class="cls-31" points="27.18 21.46 27.13 37.77 26.88 37.86 26.92 21.56 27.18 21.46"/><polygon class="cls-17" points="37.55 21.6 37.5 37.9 37.07 37.89 37.11 21.59 37.55 21.6"/><polygon class="cls-55" points="38.64 21.56 38.59 37.87 37.5 37.9 37.55 21.6 38.64 21.56"/><polygon class="cls-34" points="51.06 21.66 51.01 37.97 50.83 37.77 50.88 21.47 51.06 21.66"/><polygon class="cls-79" points="29.37 21.56 29.32 37.86 29.04 37.94 29.09 21.63 29.37 21.56"/><polygon class="cls-75" points="31.13 21.7 31.09 38 29.5 37.86 29.55 21.55 31.13 21.7"/><polygon class="cls-31" points="29.09 21.63 29.04 37.94 28.75 38.05 28.8 21.75 29.09 21.63"/><polygon class="cls-24" points="28.8 21.75 28.75 38.05 28.48 38.11 28.52 21.81 28.8 21.75"/><polygon class="cls-7" points="28.52 21.81 28.48 38.11 28.25 38.03 28.3 21.72 28.52 21.81"/><polygon class="cls-2" points="51.09 21.98 51.04 38.29 50.96 38.09 51.01 21.79 51.09 21.98"/><polygon class="cls-13" points="31.59 21.95 31.55 38.25 31.09 38 31.13 21.7 31.59 21.95"/><polygon class="cls-19" points="31.95 21.98 31.9 38.28 31.55 38.25 31.59 21.95 31.95 21.98"/><polygon class="cls-32" points="32.04 21.89 32 38.19 31.9 38.28 31.95 21.98 32.04 21.89"/><polygon class="cls-2" points="51.07 22.21 51.02 38.51 50.99 38.4 51.03 22.09 51.07 22.21"/><polygon class="cls-23" points="51.3 22.34 51.25 38.64 51.02 38.51 51.07 22.21 51.3 22.34"/><polygon class="cls-65" points="51.77 22.55 51.72 38.85 51.25 38.64 51.3 22.34 51.77 22.55"/><polygon class="cls-80" points="52.02 22.71 51.98 39.02 51.72 38.85 51.77 22.55 52.02 22.71"/><polygon class="cls-2" points="52.16 22.88 52.12 39.19 51.98 39.02 52.02 22.71 52.16 22.88"/><polygon class="cls-44" points="63.29 23.1 63.24 39.4 63.09 39.85 63.14 23.55 63.29 23.1"/><polygon class="cls-2" points="52.3 23.52 52.25 39.83 52.12 39.19 52.16 22.88 52.3 23.52"/><polygon class="cls-2" points="52.13 24.07 52.09 40.37 52.07 40.15 52.12 23.84 52.13 24.07"/><polygon class="cls-2" points="52.24 24.21 52.2 40.52 52.09 40.37 52.13 24.07 52.24 24.21"/><polygon class="cls-81" points="66.45 24.19 66.41 40.49 66.39 40.67 66.43 24.37 66.45 24.19"/><polygon class="cls-82" points="52.45 24.37 52.4 40.67 52.2 40.52 52.24 24.21 52.45 24.37"/><polygon class="cls-83" points="54.74 24.5 54.69 40.8 53.56 40.78 53.6 24.48 54.74 24.5"/><polygon class="cls-35" points="52.71 24.51 52.66 40.81 52.4 40.67 52.45 24.37 52.71 24.51"/><polygon class="cls-66" points="55.01 24.52 54.96 40.83 54.69 40.8 54.74 24.5 55.01 24.52"/><polygon class="cls-74" points="53.6 24.48 53.56 40.78 53.08 40.87 53.12 24.57 53.6 24.48"/><polygon class="cls-37" points="53.12 24.57 53.08 40.87 52.66 40.81 52.71 24.51 53.12 24.57"/><polygon class="cls-38" points="55.23 24.62 55.18 40.92 54.96 40.83 55.01 24.52 55.23 24.62"/><polygon class="cls-68" points="65.06 24.86 65.02 41.17 64.76 41.19 64.8 24.88 65.06 24.86"/><polygon class="cls-81" points="65.34 24.95 65.29 41.25 65.02 41.17 65.06 24.86 65.34 24.95"/><polygon class="cls-34" points="55.54 24.95 55.5 41.26 55.18 40.92 55.23 24.62 55.54 24.95"/><polygon class="cls-5" points="64.8 24.88 64.76 41.19 64.53 41.31 64.58 25 64.8 24.88"/><polygon class="cls-43" points="57.76 25.02 57.72 41.33 57.41 41.33 57.46 25.02 57.76 25.02"/><polygon class="cls-13" points="65.6 25.09 65.55 41.4 65.29 41.25 65.34 24.95 65.6 25.09"/><polygon class="cls-25" points="55.75 25.1 55.71 41.41 55.5 41.26 55.54 24.95 55.75 25.1"/><polygon class="cls-54" points="64.58 25 64.53 41.31 64.36 41.43 64.4 25.13 64.58 25"/><polygon class="cls-52" points="60.59 25.14 60.54 41.44 60.37 41.44 60.41 25.13 60.59 25.14"/><polygon class="cls-5" points="57.46 25.02 57.41 41.33 57.08 41.47 57.12 25.17 57.46 25.02"/><polygon class="cls-10" points="58.43 25.19 58.38 41.49 57.72 41.33 57.76 25.02 58.43 25.19"/><polygon class="cls-5" points="64.4 25.13 64.36 41.43 64.13 41.52 64.18 25.22 64.4 25.13"/><polygon class="cls-9" points="58.76 25.21 58.72 41.51 58.38 41.49 58.43 25.19 58.76 25.21"/><polygon class="cls-28" points="59.34 25.2 59.3 41.5 58.72 41.51 58.76 25.21 59.34 25.2"/><polygon class="cls-51" points="61.81 25.21 61.77 41.52 61.05 41.52 61.09 25.22 61.81 25.21"/><polygon class="cls-37" points="61.09 25.22 61.05 41.52 60.54 41.44 60.59 25.14 61.09 25.22"/><polygon class="cls-49" points="65.8 25.23 65.76 41.53 65.55 41.4 65.6 25.09 65.8 25.23"/><polygon class="cls-28" points="63.54 25.22 63.5 41.52 62.73 41.53 62.77 25.23 63.54 25.22"/><polygon class="cls-20" points="62.77 25.23 62.73 41.53 61.77 41.52 61.81 25.21 62.77 25.23"/><polygon class="cls-68" points="64.18 25.22 64.13 41.52 63.78 41.55 63.83 25.25 64.18 25.22"/><polygon class="cls-19" points="63.83 25.25 63.78 41.55 63.5 41.52 63.54 25.22 63.83 25.25"/><polygon class="cls-33" points="59.76 25.24 59.72 41.55 59.3 41.5 59.34 25.2 59.76 25.24"/><polygon class="cls-32" points="60.41 25.13 60.37 41.44 59.72 41.55 59.76 25.24 60.41 25.13"/><polygon class="cls-5" points="57.12 25.17 57.08 41.47 56.85 41.59 56.89 25.29 57.12 25.17"/><polygon class="cls-43" points="56.89 25.29 56.85 41.59 56.58 41.59 56.63 25.29 56.89 25.29"/><polygon class="cls-84" points="56.63 25.29 56.58 41.59 55.71 41.41 55.75 25.1 56.63 25.29"/><polygon class="cls-2" points="65.91 25.39 65.86 41.69 65.76 41.53 65.8 25.23 65.91 25.39"/><polygon class="cls-72" points="68.07 25.15 68.03 41.45 67.88 41.92 67.92 25.62 68.07 25.15"/><polygon class="cls-16" points="65.92 25.98 65.88 42.29 65.71 42.13 65.75 25.83 65.92 25.98"/><polygon class="cls-5" points="67.92 25.62 67.88 41.92 67.19 42.29 67.23 25.99 67.92 25.62"/><polygon class="cls-85" points="66.47 26.05 66.42 42.35 65.88 42.29 65.92 25.98 66.47 26.05"/><polygon class="cls-5" points="67.23 25.99 67.19 42.29 66.79 42.47 66.83 26.16 67.23 25.99"/><polygon class="cls-25" points="66.63 26.16 66.58 42.47 66.42 42.35 66.47 26.05 66.63 26.16"/><polygon class="cls-43" points="66.83 26.16 66.79 42.47 66.58 42.47 66.63 26.16 66.83 26.16"/><polygon class="cls-36" points="68.07 25.15 67.92 25.62 67.23 25.99 66.83 26.16 66.63 26.16 66.47 26.05 65.92 25.98 65.75 25.83 65.78 25.67 65.87 25.53 65.91 25.39 65.8 25.23 65.6 25.09 65.34 24.95 65.06 24.86 64.8 24.88 64.58 25 64.4 25.13 64.18 25.22 63.83 25.25 63.54 25.22 62.77 25.23 61.81 25.21 61.09 25.22 60.59 25.14 60.41 25.13 59.76 25.24 59.34 25.2 58.76 25.21 58.43 25.19 57.76 25.02 57.46 25.02 57.12 25.17 56.89 25.29 56.63 25.29 55.75 25.1 55.54 24.95 55.23 24.62 55.01 24.52 54.74 24.5 53.6 24.48 53.12 24.57 52.71 24.51 52.45 24.37 52.24 24.21 52.13 24.07 52.12 23.84 52.14 23.72 52.3 23.52 52.16 22.88 52.02 22.71 51.77 22.55 51.3 22.34 51.07 22.21 51.03 22.09 51.09 21.98 51.01 21.79 51.06 21.66 50.88 21.47 50.83 20.88 50.68 20.76 50.12 20.52 49.53 20.26 48.97 19.73 48.14 19.44 47.5 19.09 47.25 18.99 46.98 18.91 46.64 18.84 46.35 18.75 46.03 18.46 45.79 18.33 45.47 18.27 44.78 18.27 44.44 18.25 43.77 18.12 43.56 18.1 43.14 18.14 42.43 18.96 41.96 19.25 41.84 19.43 41.96 19.64 41.15 20.03 40.95 20.15 40.82 20.28 40.67 20.64 40.55 20.79 40.34 20.89 39.71 20.93 39.62 21.04 39.67 21.19 39.81 21.34 40.05 21.47 39.18 21.52 38.64 21.56 37.55 21.6 37.11 21.59 36.09 21.39 35.81 21.36 35.54 21.31 34.6 21.28 34.44 21.22 34.14 21 33.88 20.94 33.61 20.95 33.04 21.05 32.79 21.04 32.2 20.93 32.1 21.14 31.94 21.38 31.91 21.57 32.04 21.89 31.95 21.98 31.59 21.95 31.13 21.7 29.55 21.55 29.37 21.56 29.09 21.63 28.8 21.75 28.52 21.81 28.3 21.72 28.42 21.43 27.68 21.27 27.43 21.33 27.18 21.46 26.92 21.56 26.63 21.48 26.52 21.38 26.8 21.22 26.89 20.97 27.13 20.72 27.03 20.53 26.99 20.07 26.84 19.85 26.56 19.59 26.27 19.31 26.13 19.09 26.08 18.87 26.22 18.72 25.81 18.59 24.72 17.94 24.49 17.6 24.33 17.47 24.11 17.41 23.8 17.42 23.5 17.45 22.85 17.17 22.66 16.93 22.54 16.58 22.34 16.23 23.24 15.73 23.32 15.12 23.5 14.87 23.95 14.67 24.01 14.53 24 14.37 23.95 14.22 24.07 13.97 23.89 13.79 23.96 13.43 23.77 13.22 23.21 13.41 22.87 13.78 22.56 13.88 22.23 13.83 21.64 13.63 21.34 13.55 21.16 13.54 20.8 13.54 20.41 13.38 20.2 13.24 19.85 12.73 19.56 12.5 19.06 12.25 18.78 11.99 18.56 11.84 17.39 11.25 17.05 11.2 16.37 11.24 16.29 11.14 15.61 10.78 15.88 10.67 15.22 9.49 15.11 9.33 14.97 9.18 14.39 9.08 14.09 9.08 13.79 9.06 13.52 9.01 13.25 8.92 13.03 8.82 12.81 8.72 12.54 8.62 12.37 8.63 11.97 8.59 12.15 8.19 12.36 7.92 12.74 7.68 12.9 7.41 13.03 7.21 12.99 7.11 12.84 6.89 12.79 6.49 12.93 6.08 12.94 5.96 12.89 5.8 12.59 5.7 12.41 5.59 12.21 5.69 11.99 5.68 11.56 5.58 11.1 5.58 10.38 5.44 10.2 5.36 9.86 5.12 9.63 5 9.43 4.99 9.2 5.02 8.92 4.99 8.69 5.06 8.46 5.07 8.24 5.07 7.98 5.08 7.2 5.25 6.99 5.23 6.82 5.13 6.68 5.01 6.5 4.75 6.38 4.47 6.29 4.36 6.05 4.27 5.69 4.18 5.27 4.26 4.57 4.23 4.15 4.26 3.27 3.92 3.04 3.94 2.66 4.14 2.44 4.18 2.57 4.31 2.75 4.43 2.82 4.53 2.62 4.59 1.71 4.71 1.34 4.36 1.15 4.25 0.88 4.28 0.05 4.17 0.05 4.04 0.11 3.93 0.23 3.86 0.41 3.82 1.08 3.82 1.8 3.77 2.11 3.67 2.37 3.6 2.76 3.3 2.92 3.12 3.13 3.03 3.76 2.97 4 2.96 4.37 3.04 4.57 3.07 4.91 3 5.21 2.85 5.36 2.7 5.43 2.56 5.52 2.43 5.76 2.31 6.03 2.23 6.24 2.15 6.39 2.04 6.46 1.88 6.62 1.72 6.91 1.68 7.25 1.68 7.54 1.64 7.75 1.59 8.06 1.55 8.35 1.53 8.55 1.57 8.68 1.42 8.31 0.95 7.79 0.77 7.72 0.62 7.74 0.45 7.74 0.24 8.06 0.15 8.39 0.11 9.19 0.12 9.51 0.11 9.79 0.06 11.11 0.07 11.38 0 11.81 0.14 12.21 0.15 12.48 0.14 13.99 0.24 14.21 0.28 14.69 0.33 15 0.41 15.22 0.61 15.56 0.76 16.26 0.92 16.68 1.09 16.89 1.14 17.66 1.73 17.83 1.79 18.17 1.85 18.46 2.07 19.43 2.29 19.81 2.31 20.01 2.35 20.16 2.44 20.21 2.57 20.89 2.86 21.23 3.15 21.52 3.33 21.73 3.6 21.78 3.86 21.93 3.98 22.08 4.04 22.45 4.15 22.64 4.24 23.4 4.25 24.23 4.34 24.42 4.38 24.61 4.39 25.19 4.59 25.81 4.3 26.05 4.26 26.29 4.25 26.48 4.3 26.78 4.3 27.02 4.37 28.08 4.69 26.04 5.91 25.87 6.08 26.35 6.38 26.62 6.54 26.83 6.72 27.23 7.26 27.49 8 27.86 9.04 28.06 9.32 28.33 9.51 29.12 9.77 30.9 10.34 32.57 10.88 33.41 11.27 34.47 11.75 35.37 12.17 36.13 12.52 36.66 12.88 37.24 13.19 37.95 13.34 38.24 13.34 38.42 13.36 38.8 13.43 40.07 12.9 40.33 12.79 40.63 12.71 40.96 12.66 42.27 12.63 43.38 12.6 44.64 12.66 46.21 12.74 47.53 12.81 48.78 12.88 50.08 13.11 51.39 13.2 52.96 13.31 53.5 13.34 54.05 13.38 54.7 13.38 55.04 13.44 56.53 14.23 56.88 14.11 57.22 14.59 57.47 14.95 57.91 15.57 58.04 15.7 58.2 15.79 59.13 16.12 60.08 16.45 60.35 16.63 60.86 16.96 61.66 17.5 62.23 17.87 63.15 18.48 63.34 18.67 63.47 18.8 63.83 18.96 64.02 19.15 64.03 19.27 63.89 19.74 63.65 19.9 63.15 20.42 63 20.52 62.62 20.73 62.44 20.76 62.27 20.81 62.13 20.89 62.02 21 61.98 21.11 61.94 21.63 61.98 21.86 62.11 22.08 62.39 22.29 62.75 22.39 62.83 22.65 63.2 22.9 63.28 22.99 63.29 23.1 63.14 23.55 63.53 23.74 63.81 23.78 64.37 23.71 65.14 23.71 65.68 23.97 65.84 24.03 66.24 24.11 66.45 24.19 66.43 24.37 66.56 24.46 66.83 24.61 67.3 24.69 67.51 24.89 67.92 25.07 68.07 25.15"/></g></g></g></svg>