<svg xmlns="http://www.w3.org/2000/svg" viewBox="0 0 134.92 104.46"><defs><style>.cls-1{isolation:isolate;}.cls-2{fill:#6c1b1b;}.cls-3{fill:#671919;}.cls-4{fill:#801f1f;}.cls-5{fill:#5c1717;}.cls-6{fill:#a82929;}.cls-7{fill:#a92929;}.cls-8{fill:#5d1717;}.cls-9{fill:#902323;}.cls-10{fill:#5c1616;}.cls-11{fill:#a72929;}.cls-12{fill:#7a1e1e;}.cls-13{fill:#661919;}.cls-14{fill:#a52929;}.cls-15{fill:#9d2727;}.cls-16{fill:#a52828;}.cls-17{fill:#a32828;}.cls-18{fill:#9c2626;}.cls-19{fill:#771d1d;}.cls-20{fill:#6a1a1a;}.cls-21{fill:#5b1616;}.cls-22{fill:#992525;}.cls-23{fill:#7f1f1f;}.cls-24{fill:#a22828;}.cls-25{fill:#7c1e1e;}.cls-26{fill:#9e2727;}.cls-27{fill:#832020;}.cls-28{fill:#8f2323;}.cls-29{fill:#761d1d;}.cls-30{fill:#4c1313;}.cls-31{fill:#4b1212;}.cls-32{fill:#4a1212;}.cls-33{fill:#a62929;}.cls-34{fill:#952525;}.cls-35{fill:#982525;}.cls-36{fill:#9a2626;}.cls-37{fill:#681a1a;}.cls-38{fill:#481212;}.cls-39{fill:#651919;}.cls-40{fill:#641919;}.cls-41{fill:#6f1b1b;}.cls-42{fill:#a02727;}.cls-43{fill:#882121;}.cls-44{fill:#491212;}.cls-45{fill:#8d2323;}.cls-46{fill:#7d1f1f;}.cls-47{fill:#7e1f1f;}.cls-48{fill:#701b1b;}.cls-49{fill:#a12727;}.cls-50{fill:#912323;}.cls-51{fill:#501414;}.cls-52{fill:#5a1616;}.cls-53{fill:#852121;}.cls-54{fill:#842020;}.cls-55{fill:#942424;}.cls-56{fill:#641818;}.cls-57{fill:#531414;}.cls-58{fill:#8e2323;}.cls-59{fill:#791e1e;}.cls-60{fill:#691a1a;}.cls-61{fill:#9f2727;}.cls-62{fill:#c83131;}</style></defs><title>Mali</title><g id="Layer_2" data-name="Layer 2"><g id="Layer_1-2" data-name="Layer 1"><g class="cls-1"><polygon class="cls-2" points="134.5 14.72 134.45 31.02 134.3 32.2 134.35 15.9 134.5 14.72"/><polygon class="cls-3" points="134.35 15.9 134.3 32.2 134.25 33.05 134.3 16.75 134.35 15.9"/><polygon class="cls-4" points="134.3 16.75 134.25 33.05 134.03 33.6 134.08 17.3 134.3 16.75"/><polygon class="cls-5" points="0.69 17.75 0.64 34.05 0 33.75 0.05 17.45 0.69 17.75"/><polygon class="cls-6" points="134.92 17.93 134.87 34.23 133.88 34.63 133.93 18.33 134.92 17.93"/><polygon class="cls-5" points="1.33 18.05 1.29 34.35 0.64 34.05 0.69 17.75 1.33 18.05"/><polygon class="cls-5" points="1.98 18.34 1.93 34.65 1.29 34.35 1.33 18.05 1.98 18.34"/><polygon class="cls-7" points="133.93 18.33 133.88 34.63 132.43 35.23 132.47 18.93 133.93 18.33"/><polygon class="cls-5" points="2.62 18.64 2.58 34.95 1.93 34.65 1.98 18.34 2.62 18.64"/><polygon class="cls-5" points="3.27 18.94 3.22 35.24 2.58 34.95 2.62 18.64 3.27 18.94"/><polygon class="cls-6" points="132.47 18.93 132.43 35.23 131.5 35.61 131.55 19.3 132.47 18.93"/><polygon class="cls-5" points="3.91 19.24 3.87 35.54 3.22 35.24 3.27 18.94 3.91 19.24"/><polygon class="cls-5" points="4.56 19.54 4.51 35.84 3.87 35.54 3.91 19.24 4.56 19.54"/><polygon class="cls-8" points="5.2 19.83 5.15 36.14 4.51 35.84 4.56 19.54 5.2 19.83"/><polygon class="cls-8" points="5.9 20.16 5.85 36.46 5.15 36.14 5.2 19.83 5.9 20.16"/><polygon class="cls-9" points="131.55 19.3 131.5 35.61 130.69 36.82 130.73 20.52 131.55 19.3"/><polygon class="cls-10" points="6.39 20.39 6.34 36.69 5.85 36.46 5.9 20.16 6.39 20.39"/><polygon class="cls-11" points="130.73 20.52 130.69 36.82 130.08 37.2 130.13 20.9 130.73 20.52"/><polygon class="cls-5" points="7.49 20.9 7.44 37.2 6.34 36.69 6.39 20.39 7.49 20.9"/><polygon class="cls-6" points="130.13 20.9 130.08 37.2 129.46 37.59 129.5 21.28 130.13 20.9"/><polygon class="cls-11" points="129.5 21.28 129.46 37.59 128.84 37.97 128.89 21.67 129.5 21.28"/><polygon class="cls-5" points="8.57 21.41 8.52 37.71 7.44 37.2 7.49 20.9 8.57 21.41"/><polygon class="cls-8" points="9.07 21.64 9.03 37.94 8.52 37.71 8.57 21.41 9.07 21.64"/><polygon class="cls-6" points="128.89 21.67 128.84 37.97 128.22 38.36 128.27 22.05 128.89 21.67"/><polygon class="cls-8" points="10.04 22.09 9.99 38.39 9.03 37.94 9.07 21.64 10.04 22.09"/><polygon class="cls-6" points="128.27 22.05 128.22 38.36 127.61 38.74 127.65 22.43 128.27 22.05"/><polygon class="cls-11" points="127.65 22.43 127.61 38.74 126.99 39.13 127.04 22.82 127.65 22.43"/><polygon class="cls-5" points="11 22.54 10.96 38.84 9.99 38.39 10.04 22.09 11 22.54"/><polygon class="cls-6" points="127.04 22.82 126.99 39.13 126.37 39.51 126.42 23.2 127.04 22.82"/><polygon class="cls-5" points="11.97 22.99 11.93 39.29 10.96 38.84 11 22.54 11.97 22.99"/><polygon class="cls-11" points="126.42 23.2 126.37 39.51 125.75 39.9 125.8 23.59 126.42 23.2"/><polygon class="cls-8" points="12.94 23.43 12.89 39.74 11.93 39.29 11.97 22.99 12.94 23.43"/><polygon class="cls-6" points="125.8 23.59 125.75 39.9 125.14 40.27 125.19 23.97 125.8 23.59"/><polygon class="cls-8" points="13.9 23.88 13.85 40.18 12.89 39.74 12.94 23.43 13.9 23.88"/><polygon class="cls-11" points="125.19 23.97 125.14 40.27 124.52 40.66 124.57 24.36 125.19 23.97"/><polygon class="cls-5" points="15.07 24.43 15.02 40.73 13.85 40.18 13.9 23.88 15.07 24.43"/><polygon class="cls-6" points="124.57 24.36 124.52 40.66 123.9 41.05 123.95 24.74 124.57 24.36"/><polygon class="cls-8" points="15.82 24.78 15.77 41.08 15.02 40.73 15.07 24.43 15.82 24.78"/><polygon class="cls-11" points="123.95 24.74 123.9 41.05 123.29 41.43 123.34 25.13 123.95 24.74"/><polygon class="cls-6" points="123.34 25.13 123.29 41.43 122.67 41.81 122.72 25.51 123.34 25.13"/><polygon class="cls-8" points="16.78 25.22 16.74 41.52 15.77 41.08 15.82 24.78 16.78 25.22"/><polygon class="cls-11" points="122.72 25.51 122.67 41.81 122.06 42.2 122.1 25.9 122.72 25.51"/><polygon class="cls-5" points="17.74 25.67 17.69 41.98 16.74 41.52 16.78 25.22 17.74 25.67"/><polygon class="cls-6" points="122.1 25.9 122.06 42.2 121.44 42.58 121.48 26.28 122.1 25.9"/><polygon class="cls-8" points="18.7 26.12 18.66 42.42 17.69 41.98 17.74 25.67 18.7 26.12"/><polygon class="cls-11" points="121.48 26.28 121.44 42.58 120.97 42.87 121.02 26.57 121.48 26.28"/><polygon class="cls-8" points="19.66 26.56 19.61 42.86 18.66 42.42 18.7 26.12 19.66 26.56"/><polygon class="cls-8" points="20.62 27.01 20.58 43.31 19.61 42.86 19.66 26.56 20.62 27.01"/><polygon class="cls-12" points="121.02 26.57 120.97 42.87 120.7 43.7 120.75 27.4 121.02 26.57"/><polygon class="cls-5" points="21.57 27.45 21.53 43.76 20.58 43.31 20.62 27.01 21.57 27.45"/><polygon class="cls-3" points="120.75 27.4 120.7 43.7 120.67 44.3 120.71 28 120.75 27.4"/><polygon class="cls-8" points="22.53 27.89 22.48 44.2 21.53 43.76 21.57 27.45 22.53 27.89"/><polygon class="cls-3" points="120.71 28 120.67 44.3 120.64 44.78 120.69 28.48 120.71 28"/><polygon class="cls-8" points="23.49 28.34 23.44 44.64 22.48 44.2 22.53 27.89 23.49 28.34"/><polygon class="cls-5" points="24.44 28.78 24.39 45.09 23.44 44.64 23.49 28.34 24.44 28.78"/><polygon class="cls-13" points="120.69 28.48 120.64 44.78 120.61 45.41 120.66 29.1 120.69 28.48"/><polygon class="cls-8" points="25.4 29.23 25.35 45.53 24.39 45.09 24.44 28.78 25.4 29.23"/><polygon class="cls-8" points="26.35 29.66 26.3 45.97 25.35 45.53 25.4 29.23 26.35 29.66"/><polygon class="cls-14" points="120.66 29.1 120.61 45.41 119.4 46.28 119.45 29.98 120.66 29.1"/><polygon class="cls-8" points="27.3 30.11 27.26 46.41 26.3 45.97 26.35 29.66 27.3 30.11"/><polygon class="cls-5" points="28.25 30.55 28.21 46.85 27.26 46.41 27.3 30.11 28.25 30.55"/><polygon class="cls-7" points="119.45 29.98 119.4 46.28 117.55 47.16 117.6 30.86 119.45 29.98"/><polygon class="cls-8" points="29.2 30.99 29.16 47.29 28.21 46.85 28.25 30.55 29.2 30.99"/><polygon class="cls-15" points="117.6 30.86 117.55 47.16 117.08 47.63 117.13 31.32 117.6 30.86"/><polygon class="cls-8" points="30.16 31.43 30.11 47.73 29.16 47.29 29.2 30.99 30.16 31.43"/><polygon class="cls-7" points="117.13 31.32 117.08 47.63 115.6 48.28 115.65 31.98 117.13 31.32"/><polygon class="cls-8" points="31.11 31.87 31.06 48.17 30.11 47.73 30.16 31.43 31.11 31.87"/><polygon class="cls-5" points="32.05 32.31 32.01 48.61 31.06 48.17 31.11 31.87 32.05 32.31"/><polygon class="cls-5" points="32.51 32.52 32.46 48.83 32.01 48.61 32.05 32.31 32.51 32.52"/><polygon class="cls-16" points="116.21 32.32 116.16 48.63 113.92 49.26 113.97 32.95 116.21 32.32"/><polygon class="cls-8" points="33.52 32.99 33.48 49.3 32.46 48.83 32.51 32.52 33.52 32.99"/><polygon class="cls-17" points="113.97 32.95 113.92 49.26 112.66 49.56 112.71 33.26 113.97 32.95"/><polygon class="cls-6" points="112.71 33.26 112.66 49.56 112.09 49.77 112.14 33.46 112.71 33.26"/><polygon class="cls-8" points="34.54 33.46 34.49 49.76 33.48 49.3 33.52 32.99 34.54 33.46"/><polygon class="cls-17" points="112.14 33.46 112.09 49.77 111.75 50.05 111.79 33.74 112.14 33.46"/><polygon class="cls-5" points="35 33.67 34.95 49.98 34.49 49.76 34.54 33.46 35 33.67"/><polygon class="cls-4" points="111.79 33.74 111.75 50.05 111.59 50.43 111.64 34.13 111.79 33.74"/><polygon class="cls-18" points="111.64 34.13 111.59 50.43 110.55 50.58 110.6 34.27 111.64 34.13"/><polygon class="cls-5" points="35.84 34.06 35.8 50.37 34.95 49.98 35 33.67 35.84 34.06"/><polygon class="cls-5" points="36.82 34.52 36.78 50.83 35.8 50.37 35.84 34.06 36.82 34.52"/><polygon class="cls-5" points="37.8 34.98 37.75 51.28 36.78 50.83 36.82 34.52 37.8 34.98"/><polygon class="cls-6" points="110.6 34.27 110.55 50.58 108.81 51.57 108.86 35.27 110.6 34.27"/><polygon class="cls-5" points="38.78 35.43 38.73 51.73 37.75 51.28 37.8 34.98 38.78 35.43"/><polygon class="cls-19" points="108.86 35.27 108.81 51.57 108.6 52.34 108.64 36.04 108.86 35.27"/><polygon class="cls-5" points="39.75 35.88 39.71 52.19 38.73 51.73 38.78 35.43 39.75 35.88"/><polygon class="cls-5" points="40.72 36.33 40.68 52.63 39.71 52.19 39.75 35.88 40.72 36.33"/><polygon class="cls-5" points="41.7 36.78 41.65 53.09 40.68 52.63 40.72 36.33 41.7 36.78"/><polygon class="cls-5" points="42.67 37.24 42.63 53.54 41.65 53.09 41.7 36.78 42.67 37.24"/><polygon class="cls-20" points="108.64 36.04 108.6 52.34 108.45 53.84 108.5 37.54 108.64 36.04"/><polygon class="cls-5" points="43.65 37.69 43.6 53.99 42.63 53.54 42.67 37.24 43.65 37.69"/><polygon class="cls-5" points="44.72 38.19 44.67 54.49 43.6 53.99 43.65 37.69 44.72 38.19"/><polygon class="cls-5" points="45.17 38.4 45.12 54.7 44.67 54.49 44.72 38.19 45.17 38.4"/><polygon class="cls-21" points="45.62 38.61 45.57 54.92 45.12 54.7 45.17 38.4 45.62 38.61"/><polygon class="cls-22" points="108.5 37.54 108.45 53.84 107.28 55.19 107.32 38.89 108.5 37.54"/><polygon class="cls-5" points="46.07 38.82 46.02 55.13 45.57 54.92 45.62 38.61 46.07 38.82"/><polygon class="cls-21" points="46.52 39.04 46.47 55.34 46.02 55.13 46.07 38.82 46.52 39.04"/><polygon class="cls-5" points="47.24 39.37 47.19 55.68 46.47 55.34 46.52 39.04 47.24 39.37"/><polygon class="cls-5" points="47.95 39.7 47.91 56.01 47.19 55.68 47.24 39.37 47.95 39.7"/><polygon class="cls-10" points="48.67 40.04 48.62 56.35 47.91 56.01 47.95 39.7 48.67 40.04"/><polygon class="cls-5" points="49.38 40.38 49.34 56.68 48.62 56.35 48.67 40.04 49.38 40.38"/><polygon class="cls-10" points="50.1 40.72 50.05 57.02 49.34 56.68 49.38 40.38 50.1 40.72"/><polygon class="cls-5" points="50.81 41.05 50.76 57.35 50.05 57.02 50.1 40.72 50.81 41.05"/><polygon class="cls-23" points="107.32 38.89 107.28 55.19 106.33 57.63 106.38 41.32 107.32 38.89"/><polygon class="cls-5" points="51.53 41.38 51.48 57.69 50.76 57.35 50.81 41.05 51.53 41.38"/><polygon class="cls-24" points="106.38 41.32 106.33 57.63 105.95 57.95 106 41.64 106.38 41.32"/><polygon class="cls-10" points="52.24 41.72 52.19 58.02 51.48 57.69 51.53 41.38 52.24 41.72"/><polygon class="cls-11" points="106 41.64 105.95 57.95 105.52 58.23 105.56 41.93 106 41.64"/><polygon class="cls-5" points="52.95 42.05 52.91 58.35 52.19 58.02 52.24 41.72 52.95 42.05"/><polygon class="cls-7" points="105.56 41.93 105.52 58.23 104.93 58.52 104.97 42.22 105.56 41.93"/><polygon class="cls-5" points="53.67 42.38 53.62 58.68 52.91 58.35 52.95 42.05 53.67 42.38"/><polygon class="cls-10" points="54.38 42.72 54.34 59.02 53.62 58.68 53.67 42.38 54.38 42.72"/><polygon class="cls-5" points="55.1 43.05 55.05 59.35 54.34 59.02 54.38 42.72 55.1 43.05"/><polygon class="cls-5" points="55.79 43.38 55.74 59.68 55.05 59.35 55.1 43.05 55.79 43.38"/><polygon class="cls-5" points="56.48 43.7 56.43 60 55.74 59.68 55.79 43.38 56.48 43.7"/><polygon class="cls-25" points="106.24 43.75 106.2 60.05 106.06 60.45 106.11 44.14 106.24 43.75"/><polygon class="cls-8" points="57.17 44.02 57.13 60.32 56.43 60 56.48 43.7 57.17 44.02"/><polygon class="cls-5" points="57.86 44.34 57.81 60.65 57.13 60.32 57.17 44.02 57.86 44.34"/><polygon class="cls-8" points="58.56 44.67 58.52 60.97 57.81 60.65 57.86 44.34 58.56 44.67"/><polygon class="cls-16" points="106.11 44.14 106.06 60.45 103.36 61.19 103.4 44.88 106.11 44.14"/><polygon class="cls-6" points="103.4 44.88 103.36 61.19 102.74 61.41 102.78 45.11 103.4 44.88"/><polygon class="cls-5" points="59.25 44.99 59.21 61.3 58.52 60.97 58.56 44.67 59.25 44.99"/><polygon class="cls-26" points="102.78 45.11 102.74 61.41 102.47 61.67 102.52 45.37 102.78 45.11"/><polygon class="cls-5" points="59.94 45.32 59.9 61.62 59.21 61.3 59.25 44.99 59.94 45.32"/><polygon class="cls-8" points="60.64 45.64 60.59 61.94 59.9 61.62 59.94 45.32 60.64 45.64"/><polygon class="cls-27" points="102.52 45.37 102.47 61.67 102.24 62.17 102.29 45.86 102.52 45.37"/><polygon class="cls-5" points="61.32 45.96 61.27 62.26 60.59 61.94 60.64 45.64 61.32 45.96"/><polygon class="cls-5" points="62.01 46.28 61.96 62.59 61.27 62.26 61.32 45.96 62.01 46.28"/><polygon class="cls-5" points="62.7 46.61 62.65 62.91 61.96 62.59 62.01 46.28 62.7 46.61"/><polygon class="cls-8" points="63.39 46.93 63.35 63.23 62.65 62.91 62.7 46.61 63.39 46.93"/><polygon class="cls-5" points="64.08 47.25 64.04 63.56 63.35 63.23 63.39 46.93 64.08 47.25"/><polygon class="cls-4" points="102.32 46.48 102.27 62.79 101.86 63.81 101.9 47.51 102.32 46.48"/><polygon class="cls-5" points="64.77 47.58 64.72 63.88 64.04 63.56 64.08 47.25 64.77 47.58"/><polygon class="cls-8" points="65.46 47.9 65.41 64.2 64.72 63.88 64.77 47.58 65.46 47.9"/><polygon class="cls-28" points="69.89 48.32 69.85 64.63 67.6 64.64 67.65 48.33 69.89 48.32"/><polygon class="cls-29" points="67.65 48.33 67.6 64.64 65.41 64.2 65.46 47.9 67.65 48.33"/><polygon class="cls-30" points="70.42 48.77 70.38 65.07 69.85 64.63 69.89 48.32 70.42 48.77"/><polygon class="cls-30" points="70.95 49.22 70.91 65.52 70.38 65.07 70.42 48.77 70.95 49.22"/><polygon class="cls-30" points="71.48 49.66 71.44 65.96 70.91 65.52 70.95 49.22 71.48 49.66"/><polygon class="cls-30" points="72.02 50.11 71.97 66.41 71.44 65.96 71.48 49.66 72.02 50.11"/><polygon class="cls-7" points="104.2 49.26 104.16 65.56 101.49 66.66 101.54 50.36 104.2 49.26"/><polygon class="cls-30" points="72.56 50.56 72.52 66.87 71.97 66.41 72.02 50.11 72.56 50.56"/><polygon class="cls-31" points="73.1 51.02 73.06 67.32 72.52 66.87 72.56 50.56 73.1 51.02"/><polygon class="cls-31" points="73.64 51.48 73.6 67.78 73.06 67.32 73.1 51.02 73.64 51.48"/><polygon class="cls-32" points="74.28 52.05 74.23 68.36 73.6 67.78 73.64 51.48 74.28 52.05"/><polygon class="cls-33" points="104.32 52.02 104.27 68.33 103.21 69.08 103.26 52.78 104.32 52.02"/><polygon class="cls-11" points="103.26 52.78 103.21 69.08 101.63 70.1 101.67 53.8 103.26 52.78"/><polygon class="cls-18" points="101.67 53.8 101.63 70.1 101.15 70.17 101.2 53.87 101.67 53.8"/><polygon class="cls-34" points="101.2 53.87 101.15 70.17 100.26 70.23 100.31 53.93 101.2 53.87"/><polygon class="cls-35" points="100.31 53.93 100.26 70.23 98.04 72.86 98.09 56.56 100.31 53.93"/><polygon class="cls-36" points="101.53 57.97 101.48 74.27 100.32 75.57 100.37 59.27 101.53 57.97"/><polygon class="cls-37" points="102.99 60.2 102.94 76.5 102.85 77.75 102.9 61.45 102.99 60.2"/><polygon class="cls-38" points="47.8 66.92 47.75 83.23 47.39 82.43 47.43 66.13 47.8 66.92"/><polygon class="cls-39" points="48.34 67.12 48.3 83.42 47.75 83.23 47.8 66.92 48.34 67.12"/><polygon class="cls-40" points="48.8 67.29 48.75 83.59 48.3 83.42 48.34 67.12 48.8 67.29"/><polygon class="cls-41" points="104.72 67.67 104.67 83.97 104.41 85.58 104.45 69.28 104.72 67.67"/><polygon class="cls-6" points="108.59 71.88 108.54 88.18 107.47 88.79 107.52 72.49 108.59 71.88"/><polygon class="cls-42" points="107.52 72.49 107.47 88.79 106.81 89.39 106.86 73.09 107.52 72.49"/><polygon class="cls-43" points="106.86 73.09 106.81 89.39 106.59 89.81 106.63 73.51 106.86 73.09"/><polygon class="cls-38" points="40.9 73.97 40.86 90.28 40.76 88.36 40.81 72.06 40.9 73.97"/><polygon class="cls-44" points="41.26 74.36 41.21 90.66 40.86 90.28 40.9 73.97 41.26 74.36"/><polygon class="cls-9" points="107.13 74 107.09 90.31 106.34 91.41 106.39 75.11 107.13 74"/><polygon class="cls-45" points="105.71 75.3 105.66 91.6 101.07 91.56 101.11 75.25 105.71 75.3"/><polygon class="cls-16" points="106.39 75.11 106.34 91.41 105.66 91.6 105.71 75.3 106.39 75.11"/><polygon class="cls-31" points="33.71 76.65 33.66 92.95 33.28 92.62 33.32 76.31 33.71 76.65"/><polygon class="cls-46" points="101.11 75.25 101.07 91.56 100.29 93.72 100.33 77.42 101.11 75.25"/><polygon class="cls-38" points="34.34 77.35 34.29 93.66 33.66 92.95 33.71 76.65 34.34 77.35"/><polygon class="cls-7" points="100.33 77.42 100.29 93.72 99.76 94 99.8 77.69 100.33 77.42"/><polygon class="cls-11" points="70.91 77.94 70.86 94.24 69.88 94.58 69.93 78.27 70.91 77.94"/><polygon class="cls-47" points="76.96 78.75 76.92 95.05 70.86 94.24 70.91 77.94 76.96 78.75"/><polygon class="cls-33" points="100.06 78.29 100.01 94.59 98.77 95.46 98.81 79.16 100.06 78.29"/><polygon class="cls-7" points="98.81 79.16 98.77 95.46 98.16 95.72 98.21 79.42 98.81 79.16"/><polygon class="cls-20" points="79.36 79.49 79.32 95.79 76.92 95.05 76.96 78.75 79.36 79.49"/><polygon class="cls-7" points="98.21 79.42 98.16 95.72 97.73 95.96 97.78 79.66 98.21 79.42"/><polygon class="cls-48" points="80.71 79.83 80.66 96.14 79.32 95.79 79.36 79.49 80.71 79.83"/><polygon class="cls-49" points="82.35 79.49 82.3 95.8 80.66 96.14 80.71 79.83 82.35 79.49"/><polygon class="cls-38" points="36.02 80.28 35.98 96.58 34.29 93.66 34.34 77.35 36.02 80.28"/><polygon class="cls-50" points="70.51 79.81 70.46 96.11 69.69 97.24 69.73 80.94 70.51 79.81"/><polygon class="cls-51" points="87.37 81.09 87.33 97.4 86.48 96.8 86.52 80.5 87.37 81.09"/><polygon class="cls-7" points="86.52 80.5 86.48 96.8 84.84 97.59 84.89 81.29 86.52 80.5"/><polygon class="cls-35" points="84.89 81.29 84.84 97.59 83.68 97.7 83.73 81.4 84.89 81.29"/><polygon class="cls-38" points="83.73 81.4 83.68 97.7 82.3 95.8 82.35 79.49 83.73 81.4"/><polygon class="cls-52" points="88.13 81.47 88.08 97.77 87.33 97.4 87.37 81.09 88.13 81.47"/><polygon class="cls-39" points="69.73 80.94 69.69 97.24 69.66 98.38 69.71 82.08 69.73 80.94"/><polygon class="cls-53" points="93.93 82.19 93.88 98.49 92.32 98.37 92.36 82.07 93.93 82.19"/><polygon class="cls-11" points="97.78 79.66 97.73 95.96 93.88 98.49 93.93 82.19 97.78 79.66"/><polygon class="cls-8" points="89.81 82.24 89.77 98.54 88.08 97.77 88.13 81.47 89.81 82.24"/><polygon class="cls-35" points="92.36 82.07 92.32 98.37 90.24 98.58 90.29 82.28 92.36 82.07"/><polygon class="cls-54" points="90.29 82.28 90.24 98.58 89.77 98.54 89.81 82.24 90.29 82.28"/><polygon class="cls-55" points="39.68 82.03 39.63 98.33 37.54 98.45 37.58 82.15 39.68 82.03"/><polygon class="cls-38" points="37.58 82.15 37.54 98.45 35.98 96.58 36.02 80.28 37.58 82.15"/><polygon class="cls-56" points="40.89 82.48 40.85 98.79 39.63 98.33 39.68 82.03 40.89 82.48"/><polygon class="cls-57" points="43.23 83.91 43.18 100.21 40.85 98.79 40.89 82.48 43.23 83.91"/><polygon class="cls-58" points="46.21 84.66 46.17 100.96 44.7 100.97 44.74 84.66 46.21 84.66"/><polygon class="cls-52" points="44.74 84.66 44.7 100.97 43.18 100.21 43.23 83.91 44.74 84.66"/><polygon class="cls-59" points="47.51 84.88 47.46 101.19 46.17 100.96 46.21 84.66 47.51 84.88"/><polygon class="cls-47" points="63.28 86.05 63.24 102.35 61.01 102.05 61.05 85.75 63.28 86.05"/><polygon class="cls-6" points="69.71 82.08 69.66 98.38 63.24 102.35 63.28 86.05 69.71 82.08"/><polygon class="cls-42" points="61.05 85.75 61.01 102.05 58.54 104.32 58.58 88.02 61.05 85.75"/><polygon class="cls-60" points="57.79 88.16 57.74 104.46 47.46 101.19 47.51 84.88 57.79 88.16"/><polygon class="cls-61" points="58.58 88.02 58.54 104.32 57.74 104.46 57.79 88.16 58.58 88.02"/><polygon class="cls-62" points="128.43 8.6 129.23 9.31 129.8 9.8 130.73 10.33 131.32 10.67 132.09 11.11 132.96 13.24 133.75 14.05 134.5 14.72 134.35 15.9 134.3 16.75 134.08 17.3 134.92 17.93 133.93 18.33 132.47 18.93 131.55 19.3 130.73 20.52 130.13 20.9 129.5 21.28 128.89 21.67 128.27 22.05 127.65 22.43 127.04 22.82 126.42 23.2 125.8 23.59 125.19 23.97 124.57 24.36 123.95 24.74 123.34 25.13 122.72 25.51 122.1 25.9 121.48 26.28 121.02 26.57 120.75 27.4 120.71 28 120.69 28.48 120.66 29.1 119.45 29.98 117.6 30.86 117.13 31.32 115.65 31.98 116.21 32.32 113.97 32.95 112.71 33.26 112.14 33.46 111.79 33.74 111.64 34.13 110.6 34.27 108.86 35.27 108.64 36.04 108.5 37.54 107.32 38.89 106.38 41.32 106 41.64 105.56 41.93 104.97 42.22 106.24 43.75 106.11 44.14 103.4 44.88 102.78 45.11 102.52 45.37 102.29 45.86 102.32 46.48 101.9 47.51 102.01 47.78 102.75 48.41 103.38 48.99 104.2 49.26 101.54 50.36 102.1 50.86 104.32 52.02 103.26 52.78 101.67 53.8 101.2 53.87 100.31 53.93 98.09 56.56 99.32 57.12 100.76 57.45 101.53 57.97 100.37 59.27 101.05 59.26 101.73 59.36 102.99 60.2 102.9 61.45 103.39 61.54 103.67 66.79 104.72 67.67 104.45 69.28 104.99 69.63 106.1 69.91 106.73 70.25 107.18 70.8 108.19 71.37 108.59 71.88 107.52 72.49 106.86 73.09 106.63 73.51 107.13 74 106.39 75.11 105.71 75.3 101.11 75.25 100.33 77.42 99.8 77.69 100.06 78.29 98.81 79.16 98.21 79.42 97.78 79.66 93.93 82.19 92.36 82.07 90.29 82.28 89.81 82.24 88.13 81.47 87.37 81.09 86.52 80.5 84.89 81.29 83.73 81.4 82.35 79.49 80.71 79.83 79.36 79.49 76.96 78.75 70.91 77.94 69.93 78.27 70.51 79.81 69.73 80.94 69.71 82.08 63.28 86.05 61.05 85.75 58.58 88.02 57.79 88.16 47.51 84.88 46.21 84.66 44.74 84.66 43.23 83.91 40.89 82.48 39.68 82.03 37.58 82.15 36.02 80.28 34.34 77.35 33.71 76.65 33.32 76.31 33.6 75.03 34.02 74.34 36.07 74.44 39.24 74.2 40.21 74.29 40.7 74.29 41.26 74.36 40.9 73.97 40.81 72.06 42.37 71.04 43.77 70.51 45.72 69.55 46.55 69.15 46.89 68.62 48.8 67.29 48.34 67.12 47.8 66.92 47.43 66.13 48.33 66.4 48.92 66.78 50.06 66.12 51.1 65.52 51.82 65.1 53.28 64.25 53.85 63.92 54.73 63.41 55.68 62.85 56.68 62.27 57.72 61.67 58.8 61.04 59.92 60.4 61.04 59.75 62.18 59.09 63.3 58.43 64.43 57.78 65.54 57.13 66.62 56.51 67.66 55.9 68.67 55.32 69.61 54.77 70.49 54.25 71.01 53.95 71.48 53.68 72.35 53.17 73.24 52.66 74.28 52.05 73.64 51.48 73.1 51.02 72.56 50.56 72.02 50.11 71.48 49.66 70.95 49.22 70.42 48.77 69.89 48.32 67.65 48.33 65.46 47.9 64.77 47.58 64.08 47.25 63.39 46.93 62.7 46.61 62.01 46.28 61.32 45.96 60.64 45.64 59.94 45.32 59.25 44.99 58.56 44.67 57.86 44.34 57.17 44.02 56.48 43.7 55.79 43.38 55.1 43.05 54.38 42.72 53.67 42.38 52.95 42.05 52.24 41.72 51.53 41.38 50.81 41.05 50.1 40.72 49.38 40.38 48.67 40.04 47.95 39.7 47.24 39.37 46.52 39.04 46.07 38.82 45.62 38.61 45.17 38.4 44.72 38.19 43.65 37.69 42.67 37.24 41.7 36.78 40.72 36.33 39.75 35.88 38.78 35.43 37.8 34.98 36.82 34.52 35.84 34.06 35 33.67 34.54 33.46 33.52 32.99 32.51 32.52 32.05 32.31 31.11 31.87 30.16 31.43 29.2 30.99 28.25 30.55 27.3 30.11 26.35 29.66 25.4 29.23 24.44 28.78 23.49 28.34 22.53 27.89 21.57 27.45 20.62 27.01 19.66 26.56 18.7 26.12 17.74 25.67 16.78 25.22 15.82 24.78 15.07 24.43 13.9 23.88 12.94 23.43 11.97 22.99 11 22.54 10.04 22.09 9.07 21.64 8.57 21.41 7.49 20.9 6.39 20.39 5.9 20.16 5.2 19.83 4.56 19.54 3.91 19.24 3.27 18.94 2.62 18.64 1.98 18.34 1.33 18.05 0.69 17.75 0.05 17.45 1.5 16.6 2.97 15.75 4.44 14.9 5.9 14.04 7.37 13.19 8.83 12.34 10.29 11.49 11.76 10.63 12.61 10.54 13.47 10.46 14.32 10.36 15.17 10.27 16.44 10.15 17.34 10.06 18.25 9.97 19.15 9.89 20.06 9.79 20.97 9.71 21.88 9.62 22.78 9.53 23.69 9.45 24.59 9.36 25.49 9.27 26.4 9.19 27.31 9.1 28.21 9.01 29.12 8.92 30.02 8.83 30.93 8.74 31.91 8.65 32.9 8.55 33.88 8.45 34.86 8.36 35.84 8.26 36.82 8.16 37.8 8.07 38.79 7.97 39.77 7.87 40.75 7.78 41.73 7.67 42.71 7.58 43.69 7.48 44.68 7.38 45.66 7.29 46.64 7.19 47.62 7.09 48.59 6.99 49.57 6.9 50.56 6.8 51.53 6.7 52.51 6.6 53.5 6.5 54.47 6.4 55.45 6.31 56.43 6.2 57.41 6.11 58.38 6.01 59.37 5.91 60.34 5.81 61.33 5.71 62.3 5.61 63.27 5.51 64.26 5.41 65.23 5.31 66.21 5.21 67.19 5.11 68.17 5.01 69.14 4.91 70.12 4.81 71.09 4.71 72.07 4.62 73.05 4.51 74.02 4.41 75 4.31 75.98 4.21 76.95 4.11 77.93 4.01 79.25 3.87 80.05 4.1 80.92 4.67 81.4 5.13 86.3 4.29 87.45 4.76 89.06 4.7 91.53 4 91.75 3.5 92.99 3.13 93.5 3.14 94.01 3.19 94.77 3.32 96.77 2.72 97.14 2.52 99.34 1.69 100.55 1.42 101.24 1.37 103.47 2.14 108.22 4.22 109.25 3.62 109.81 3.14 110.71 2.36 111.11 2.02 111.62 1.57 112.53 0.79 113.44 0 114.31 0.5 115.18 1 116.05 1.49 116.91 1.99 117.78 2.48 118.64 2.99 119.51 3.48 120.37 3.97 121.23 4.47 121.61 4.69 122.1 4.96 122.96 5.46 123.82 5.96 124.69 6.45 125.54 6.95 126.4 7.43 127.26 7.93 127.7 8.18 128.43 8.6"/></g></g></g></svg>