<svg xmlns="http://www.w3.org/2000/svg" viewBox="0 0 117.39 98.86"><defs><style>.cls-1{isolation:isolate;}.cls-2{fill:#a82929;}.cls-3{fill:#551515;}.cls-4{fill:#561515;}.cls-5{fill:#481212;}.cls-6{fill:#4c1313;}.cls-7{fill:#601717;}.cls-8{fill:#a42828;}.cls-9{fill:#6e1b1b;}.cls-10{fill:#621818;}.cls-11{fill:#591616;}.cls-12{fill:#4b1212;}.cls-13{fill:#932424;}.cls-14{fill:#511414;}.cls-15{fill:#a72929;}.cls-16{fill:#a12828;}.cls-17{fill:#862121;}.cls-18{fill:#a92929;}.cls-19{fill:#a02727;}.cls-20{fill:#a62929;}.cls-21{fill:#a52828;}.cls-22{fill:#691a1a;}.cls-23{fill:#9f2727;}.cls-24{fill:#7e1f1f;}.cls-25{fill:#842020;}.cls-26{fill:#c83131;}.cls-27{fill:#711c1c;}.cls-28{fill:#6f1b1b;}.cls-29{fill:#8f2323;}.cls-30{fill:#852020;}.cls-31{fill:#942424;}.cls-32{fill:#781d1d;}.cls-33{fill:#832020;}.cls-34{fill:#972525;}.cls-35{fill:#491212;}.cls-36{fill:#a32828;}.cls-37{fill:#641818;}.cls-38{fill:#7a1e1e;}.cls-39{fill:#5a1616;}.cls-40{fill:#4f1313;}.cls-41{fill:#571515;}.cls-42{fill:#922424;}.cls-43{fill:#7b1e1e;}.cls-44{fill:#a22828;}.cls-45{fill:#731c1c;}.cls-46{fill:#8a2222;}.cls-47{fill:#7d1f1f;}.cls-48{fill:#601818;}.cls-49{fill:#721c1c;}.cls-50{fill:#9d2727;}.cls-51{fill:#611818;}.cls-52{fill:#9b2626;}.cls-53{fill:#a12727;}.cls-54{fill:#8c2222;}.cls-55{fill:#872121;}.cls-56{fill:#822020;}.cls-57{fill:#892222;}.cls-58{fill:#852121;}.cls-59{fill:#5c1616;}.cls-60{fill:#521414;}.cls-61{fill:#4a1212;}.cls-62{fill:#9e2727;}.cls-63{fill:#a52929;}.cls-64{fill:#4e1313;}.cls-65{fill:#4d1313;}.cls-66{fill:#581616;}.cls-67{fill:#501414;}</style></defs><title>Mauritania</title><g id="Layer_2" data-name="Layer 2"><g id="Layer_1-2" data-name="Layer 1"><g class="cls-1"><polygon class="cls-2" points="54.96 0 54.91 16.3 53.44 17.16 53.49 0.85 54.96 0"/><polygon class="cls-2" points="53.49 0.85 53.44 17.16 51.98 18.01 52.03 1.71 53.49 0.85"/><polygon class="cls-2" points="52.03 1.71 51.98 18.01 50.52 18.86 50.57 2.56 52.03 1.71"/><polygon class="cls-2" points="50.57 2.56 50.52 18.86 49.05 19.71 49.1 3.41 50.57 2.56"/><polygon class="cls-2" points="49.1 3.41 49.05 19.71 47.59 20.57 47.64 4.26 49.1 3.41"/><polygon class="cls-2" points="47.64 4.26 47.59 20.57 46.12 21.42 46.17 5.11 47.64 4.26"/><polygon class="cls-3" points="12.92 5.32 12.87 21.62 12.58 21.45 12.63 5.15 12.92 5.32"/><polygon class="cls-3" points="13.37 5.57 13.32 21.88 12.87 21.62 12.92 5.32 13.37 5.57"/><polygon class="cls-2" points="46.17 5.11 46.12 21.42 44.66 22.27 44.7 5.96 46.17 5.11"/><polygon class="cls-3" points="13.96 5.91 13.91 22.22 13.32 21.88 13.37 5.57 13.96 5.91"/><polygon class="cls-3" points="14.64 6.31 14.6 22.61 13.91 22.22 13.96 5.91 14.64 6.31"/><polygon class="cls-2" points="44.7 5.96 44.66 22.27 43.2 23.11 43.25 6.81 44.7 5.96"/><polygon class="cls-4" points="15.42 6.75 15.37 23.05 14.6 22.61 14.64 6.31 15.42 6.75"/><polygon class="cls-3" points="16.24 7.22 16.19 23.53 15.37 23.05 15.42 6.75 16.24 7.22"/><polygon class="cls-3" points="17.09 7.71 17.04 24.02 16.19 23.53 16.24 7.22 17.09 7.71"/><polygon class="cls-3" points="17.94 8.21 17.89 24.51 17.04 24.02 17.09 7.71 17.94 8.21"/><polygon class="cls-3" points="18.76 8.68 18.71 24.98 17.89 24.51 17.94 8.21 18.76 8.68"/><polygon class="cls-3" points="19.52 9.12 19.48 25.42 18.71 24.98 18.76 8.68 19.52 9.12"/><polygon class="cls-3" points="20.21 9.52 20.16 25.82 19.48 25.42 19.52 9.12 20.21 9.52"/><polygon class="cls-3" points="20.79 9.85 20.74 26.15 20.16 25.82 20.21 9.52 20.79 9.85"/><polygon class="cls-4" points="21.24 10.1 21.19 26.41 20.74 26.15 20.79 9.85 21.24 10.1"/><polygon class="cls-3" points="21.63 10.33 21.58 26.63 21.19 26.41 21.24 10.1 21.63 10.33"/><polygon class="cls-5" points="21.92 10.7 21.87 27 21.58 26.63 21.63 10.33 21.92 10.7"/><polygon class="cls-3" points="18.52 34.22 18.47 50.52 0 39.72 0.05 23.42 18.52 34.22"/><polygon class="cls-5" points="15.37 40.73 15.32 57.03 15.08 56.24 15.13 39.94 15.37 40.73"/><polygon class="cls-5" points="15.6 41.12 15.56 57.42 15.32 57.03 15.37 40.73 15.6 41.12"/><polygon class="cls-6" points="16 41.45 15.95 57.75 15.56 57.42 15.6 41.12 16 41.45"/><polygon class="cls-7" points="16.53 41.67 16.48 57.98 15.95 57.75 16 41.45 16.53 41.67"/><polygon class="cls-8" points="117.39 41.3 117.34 57.6 116.39 58.33 116.44 42.02 117.39 41.3"/><polygon class="cls-9" points="17.77 42.02 17.73 58.32 16.48 57.98 16.53 41.67 17.77 42.02"/><polygon class="cls-10" points="18.33 42.23 18.28 58.54 17.73 58.32 17.77 42.02 18.33 42.23"/><polygon class="cls-2" points="116.44 42.02 116.39 58.33 115.5 58.84 115.55 42.54 116.44 42.02"/><polygon class="cls-2" points="115.55 42.54 115.5 58.84 114.64 59.35 114.68 43.04 115.55 42.54"/><polygon class="cls-2" points="114.68 43.04 114.64 59.35 114.16 59.62 114.21 43.32 114.68 43.04"/><polygon class="cls-11" points="20.22 43.2 20.18 59.51 18.28 58.54 18.33 42.23 20.22 43.2"/><polygon class="cls-2" points="114.21 43.32 114.16 59.62 113.65 59.92 113.69 43.62 114.21 43.32"/><polygon class="cls-2" points="113.69 43.62 113.65 59.92 112.76 60.43 112.81 44.13 113.69 43.62"/><polygon class="cls-11" points="22.12 44.17 22.07 60.48 20.18 59.51 20.22 43.2 22.12 44.17"/><polygon class="cls-2" points="112.81 44.13 112.76 60.43 112.11 60.81 112.16 44.51 112.81 44.13"/><polygon class="cls-2" points="112.16 44.51 112.11 60.81 111.82 60.98 111.86 44.68 112.16 44.51"/><polygon class="cls-2" points="111.86 44.68 111.82 60.98 110.82 61.57 110.86 45.26 111.86 44.68"/><polygon class="cls-2" points="110.86 45.26 110.82 61.57 109.77 62.17 109.82 45.87 110.86 45.26"/><polygon class="cls-11" points="25.26 45.76 25.21 62.07 22.07 60.48 22.12 44.17 25.26 45.76"/><polygon class="cls-11" points="25.91 46.1 25.86 62.4 25.21 62.07 25.26 45.76 25.91 46.1"/><polygon class="cls-2" points="109.82 45.87 109.77 62.17 108.69 62.8 108.74 46.5 109.82 45.87"/><polygon class="cls-11" points="27.13 46.72 27.08 63.02 25.86 62.4 25.91 46.1 27.13 46.72"/><polygon class="cls-2" points="108.74 46.5 108.69 62.8 107.58 63.45 107.63 47.14 108.74 46.5"/><polygon class="cls-2" points="107.63 47.14 107.58 63.45 106.46 64.1 106.5 47.8 107.63 47.14"/><polygon class="cls-2" points="106.5 47.8 106.46 64.1 105.33 64.75 105.38 48.45 106.5 47.8"/><polygon class="cls-2" points="105.38 48.45 105.33 64.75 104.19 65.41 104.24 49.11 105.38 48.45"/><polygon class="cls-2" points="104.24 49.11 104.19 65.41 103.07 66.07 103.12 49.76 104.24 49.11"/><polygon class="cls-2" points="103.12 49.76 103.07 66.07 101.95 66.71 102 50.41 103.12 49.76"/><polygon class="cls-2" points="102 50.41 101.95 66.71 100.88 67.33 100.92 51.03 102 50.41"/><polygon class="cls-2" points="100.92 51.03 100.88 67.33 99.83 67.94 99.88 51.64 100.92 51.03"/><polygon class="cls-2" points="99.88 51.64 99.83 67.94 98.83 68.52 98.88 52.22 99.88 51.64"/><polygon class="cls-2" points="98.88 52.22 98.83 68.52 97.88 69.08 97.93 52.77 98.88 52.22"/><polygon class="cls-2" points="97.93 52.77 97.88 69.08 97 69.59 97.05 53.28 97.93 52.77"/><polygon class="cls-2" points="97.05 53.28 97 69.59 96.44 69.92 96.48 53.61 97.05 53.28"/><polygon class="cls-2" points="96.48 53.61 96.44 69.92 94.97 70.77 95.02 54.46 96.48 53.61"/><polygon class="cls-2" points="95.02 54.46 94.97 70.77 94.36 71.12 94.4 54.82 95.02 54.46"/><polygon class="cls-2" points="94.4 54.82 94.36 71.12 93.44 71.66 93.49 55.35 94.4 54.82"/><polygon class="cls-12" points="91.53 55.77 91.48 72.07 91.1 71.74 91.15 55.44 91.53 55.77"/><polygon class="cls-13" points="91.15 55.44 91.1 71.74 90.67 72.32 90.72 56.02 91.15 55.44"/><polygon class="cls-14" points="92.12 56.15 92.07 72.45 91.48 72.07 91.53 55.77 92.12 56.15"/><polygon class="cls-2" points="93.49 55.35 93.44 71.66 92.07 72.45 92.12 56.15 93.49 55.35"/><polygon class="cls-15" points="92 56.65 91.95 72.96 90.38 73.95 90.43 57.65 92 56.65"/><polygon class="cls-16" points="90.43 57.65 90.38 73.95 90.12 74.18 90.17 57.87 90.43 57.65"/><polygon class="cls-17" points="90.17 57.87 90.12 74.18 89.9 74.63 89.94 58.33 90.17 57.87"/><polygon class="cls-2" points="89.94 58.33 89.9 74.63 88.87 75.22 88.92 58.92 89.94 58.33"/><polygon class="cls-8" points="88.92 58.92 88.87 75.22 88.22 75.73 88.27 59.43 88.92 58.92"/><polygon class="cls-18" points="88.27 59.43 88.22 75.73 87.94 75.88 87.98 59.58 88.27 59.43"/><polygon class="cls-19" points="87.98 59.58 87.94 75.88 87.34 76 87.39 59.69 87.98 59.58"/><polygon class="cls-20" points="87.39 59.69 87.34 76 86.14 76.38 86.18 60.08 87.39 59.69"/><polygon class="cls-2" points="86.18 60.08 86.14 76.38 85.75 76.62 85.79 60.32 86.18 60.08"/><polygon class="cls-18" points="85.79 60.32 85.75 76.62 84.83 77.1 84.88 60.79 85.79 60.32"/><polygon class="cls-21" points="84.88 60.79 84.83 77.1 83.96 77.73 84.01 61.42 84.88 60.79"/><polygon class="cls-18" points="84.01 61.42 83.96 77.73 83.5 77.92 83.55 61.62 84.01 61.42"/><polygon class="cls-6" points="1.55 62.38 1.5 78.68 1 78.25 1.05 61.95 1.55 62.38"/><polygon class="cls-22" points="10.22 62.82 10.18 79.13 9.26 78.84 9.31 62.53 10.22 62.82"/><polygon class="cls-23" points="3.52 62.65 3.47 78.95 2.63 79.11 2.68 62.81 3.52 62.65"/><polygon class="cls-12" points="2.1 62.84 2.06 79.14 1.5 78.68 1.55 62.38 2.1 62.84"/><polygon class="cls-15" points="9.31 62.53 9.26 78.84 8.32 79.17 8.37 62.87 9.31 62.53"/><polygon class="cls-24" points="5.76 62.96 5.71 79.26 3.47 78.95 3.52 62.65 5.76 62.96"/><polygon class="cls-5" points="9.49 63.04 9.44 79.34 9.38 79.26 9.43 62.96 9.49 63.04"/><polygon class="cls-25" points="9.81 63.02 9.76 79.32 9.74 79.36 9.79 63.06 9.81 63.02"/><polygon class="cls-26" points="9.52 62.88 9.59 62.88 9.81 63.02 9.79 63.06 9.67 63.09 9.49 63.04 9.43 62.96 9.45 62.9 9.52 62.88"/><polygon class="cls-16" points="9.79 63.06 9.74 79.36 9.62 79.39 9.67 63.09 9.79 63.06"/><polygon class="cls-27" points="9.67 63.09 9.62 79.39 9.44 79.34 9.49 63.04 9.67 63.09"/><polygon class="cls-28" points="11.89 63.27 11.85 79.57 10.18 79.13 10.22 62.82 11.89 63.27"/><polygon class="cls-29" points="82.87 63.56 82.82 79.86 82.4 79.86 82.44 63.56 82.87 63.56"/><polygon class="cls-30" points="13.21 63.37 13.16 79.68 11.85 79.57 11.89 63.27 13.21 63.37"/><polygon class="cls-24" points="9.28 63.44 9.23 79.74 5.71 79.26 5.76 62.96 9.28 63.44"/><polygon class="cls-31" points="84.4 63.62 84.35 79.93 83.86 79.96 83.9 63.65 84.4 63.62"/><polygon class="cls-29" points="83.9 63.65 83.86 79.96 83.36 79.96 83.41 63.66 83.9 63.65"/><polygon class="cls-32" points="83.41 63.66 83.36 79.96 82.82 79.86 82.87 63.56 83.41 63.66"/><polygon class="cls-33" points="79.53 63.82 79.48 80.12 77.71 79.95 77.75 63.65 79.53 63.82"/><polygon class="cls-34" points="82.44 63.56 82.4 79.86 79.48 80.12 79.53 63.82 82.44 63.56"/><polygon class="cls-35" points="2.82 63.63 2.77 79.93 2.06 79.14 2.1 62.84 2.82 63.63"/><polygon class="cls-36" points="77.75 63.65 77.71 79.95 76.72 80.19 76.77 63.89 77.75 63.65"/><polygon class="cls-37" points="14.19 63.74 14.14 80.04 13.16 79.68 13.21 63.37 14.19 63.74"/><polygon class="cls-5" points="14.42 64.15 14.37 80.45 14.14 80.04 14.19 63.74 14.42 64.15"/><polygon class="cls-12" points="3.49 64.23 3.44 80.53 2.77 79.93 2.82 63.63 3.49 64.23"/><polygon class="cls-38" points="4.3 64.37 4.26 80.67 3.44 80.53 3.49 64.23 4.3 64.37"/><polygon class="cls-39" points="15.39 64.64 15.35 80.94 14.37 80.45 14.42 64.15 15.39 64.64"/><polygon class="cls-6" points="16.94 65.92 16.89 82.23 15.35 80.94 15.39 64.64 16.94 65.92"/><polygon class="cls-5" points="15.49 65.61 15.44 81.92 15.41 81.81 15.46 65.5 15.49 65.61"/><polygon class="cls-5" points="15.63 65.85 15.59 82.15 15.44 81.92 15.49 65.61 15.63 65.85"/><polygon class="cls-5" points="15.43 66.03 15.38 82.34 15.35 82.23 15.4 65.92 15.43 66.03"/><polygon class="cls-5" points="15.5 66.15 15.46 82.45 15.38 82.34 15.43 66.03 15.5 66.15"/><polygon class="cls-40" points="15.56 66.19 15.51 82.49 15.46 82.45 15.5 66.15 15.56 66.19"/><polygon class="cls-41" points="15.77 66.3 15.72 82.6 15.51 82.49 15.56 66.19 15.77 66.3"/><polygon class="cls-5" points="15.78 66.32 15.74 82.63 15.72 82.6 15.77 66.3 15.78 66.32"/><polygon class="cls-5" points="16.72 66.33 16.67 82.63 16.56 82.28 16.61 65.98 16.72 66.33"/><polygon class="cls-5" points="15.89 66.6 15.84 82.91 15.74 82.63 15.78 66.32 15.89 66.6"/><polygon class="cls-5" points="15.97 66.7 15.92 83 15.84 82.91 15.89 66.6 15.97 66.7"/><polygon class="cls-5" points="16.92 66.71 16.87 83.01 16.67 82.63 16.72 66.33 16.92 66.71"/><polygon class="cls-35" points="15.61 66.74 15.56 83.05 15.47 82.95 15.51 66.64 15.61 66.74"/><polygon class="cls-27" points="16.15 66.75 16.1 83.05 15.92 83 15.97 66.7 16.15 66.75"/><polygon class="cls-38" points="16.26 66.77 16.21 83.07 16.1 83.05 16.15 66.75 16.26 66.77"/><polygon class="cls-5" points="17.61 67.2 17.56 83.5 16.89 82.23 16.94 65.92 17.61 67.2"/><polygon class="cls-26" points="16.83 66.27 16.93 66.45 17.03 66.78 17.01 66.79 16.92 66.71 16.72 66.33 16.61 65.98 16.67 65.92 16.78 65.93 16.83 66.04 16.83 66.17 16.83 66.27"/><polygon class="cls-35" points="17.01 66.79 16.96 83.1 16.87 83.01 16.92 66.71 17.01 66.79"/><polygon class="cls-2" points="17.03 66.78 16.98 83.09 16.96 83.1 17.01 66.79 17.03 66.78"/><polygon class="cls-3" points="16.33 66.81 16.28 83.11 16.21 83.07 16.26 66.77 16.33 66.81"/><polygon class="cls-42" points="15.89 66.81 15.84 83.11 15.75 83.12 15.79 66.81 15.89 66.81"/><polygon class="cls-37" points="15.79 66.81 15.75 83.12 15.56 83.05 15.61 66.74 15.79 66.81"/><polygon class="cls-26" points="15.82 66.67 15.87 66.75 15.89 66.81 15.79 66.81 15.61 66.74 15.51 66.64 15.56 66.57 15.61 66.54 15.7 66.58 15.82 66.67"/><polygon class="cls-12" points="16.38 66.85 16.33 83.15 16.28 83.11 16.33 66.81 16.38 66.85"/><polygon class="cls-40" points="16.43 66.89 16.38 83.19 16.33 83.15 16.38 66.85 16.43 66.89"/><polygon class="cls-43" points="16.5 66.9 16.45 83.2 16.38 83.19 16.43 66.89 16.5 66.9"/><polygon class="cls-25" points="16.77 66.92 16.72 83.22 16.45 83.2 16.5 66.9 16.77 66.92"/><polygon class="cls-26" points="16.36 66.18 16.63 66.53 16.77 66.92 16.5 66.9 16.43 66.89 16.38 66.85 16.33 66.81 16.26 66.77 16.15 66.75 15.97 66.7 15.89 66.6 15.78 66.32 15.77 66.3 15.56 66.19 15.5 66.15 15.43 66.03 15.4 65.92 15.46 65.85 15.63 65.85 15.49 65.61 15.46 65.5 15.61 65.52 16.36 66.18"/><polygon class="cls-5" points="18.5 67.08 18.45 83.39 18.34 83.13 18.38 66.83 18.5 67.08"/><polygon class="cls-12" points="18.04 67.12 17.99 83.43 17.64 83.13 17.69 66.83 18.04 67.12"/><polygon class="cls-44" points="18.38 66.83 18.34 83.13 17.99 83.43 18.04 67.12 18.38 66.83"/><polygon class="cls-45" points="17.69 66.83 17.64 83.13 17.56 83.5 17.61 67.2 17.69 66.83"/><polygon class="cls-5" points="18.55 67.39 18.51 83.69 18.45 83.39 18.5 67.08 18.55 67.39"/><polygon class="cls-46" points="21.06 68.25 21.01 84.55 20.16 84.52 20.21 68.22 21.06 68.25"/><polygon class="cls-5" points="18.4 68.31 18.36 84.62 18.06 84.24 18.1 67.93 18.4 68.31"/><polygon class="cls-31" points="20.21 68.22 20.16 84.52 18.36 84.62 18.4 68.31 20.21 68.22"/><polygon class="cls-47" points="21.84 68.36 21.79 84.66 21.01 84.55 21.06 68.25 21.84 68.36"/><polygon class="cls-27" points="22.61 68.55 22.56 84.85 21.79 84.66 21.84 68.36 22.61 68.55"/><polygon class="cls-48" points="24.14 69.19 24.1 85.5 22.56 84.85 22.61 68.55 24.14 69.19"/><polygon class="cls-49" points="24.55 69.29 24.5 85.59 24.1 85.5 24.14 69.19 24.55 69.29"/><polygon class="cls-50" points="79.61 68.75 79.56 85.06 78.65 85.96 78.7 69.66 79.61 68.75"/><polygon class="cls-51" points="25.57 69.7 25.52 86 24.5 85.59 24.55 69.29 25.57 69.7"/><polygon class="cls-8" points="78.7 69.66 78.65 85.96 78.19 86.31 78.24 70 78.7 69.66"/><polygon class="cls-49" points="26.99 70.04 26.94 86.34 25.52 86 25.57 69.7 26.99 70.04"/><polygon class="cls-44" points="78.24 70 78.19 86.31 77.07 86.56 77.12 70.25 78.24 70"/><polygon class="cls-52" points="74.88 70.12 74.83 86.42 73.42 86.61 73.46 70.3 74.88 70.12"/><polygon class="cls-28" points="75.8 70.37 75.75 86.67 74.83 86.42 74.88 70.12 75.8 70.37"/><polygon class="cls-53" points="77.12 70.25 77.07 86.56 76.46 86.68 76.51 70.38 77.12 70.25"/><polygon class="cls-54" points="76.51 70.38 76.46 86.68 75.75 86.67 75.8 70.37 76.51 70.38"/><polygon class="cls-55" points="69.57 70.39 69.52 86.69 59.74 86.12 59.79 69.82 69.57 70.39"/><polygon class="cls-8" points="73.46 70.3 73.42 86.61 72.09 86.95 72.14 70.65 73.46 70.3"/><polygon class="cls-56" points="72.14 70.65 72.09 86.95 69.52 86.69 69.57 70.39 72.14 70.65"/><polygon class="cls-57" points="53.89 70.73 53.84 87.03 53.36 87.01 53.41 70.71 53.89 70.73"/><polygon class="cls-2" points="59.79 69.82 59.74 86.12 56.66 87.24 56.71 70.94 59.79 69.82"/><polygon class="cls-58" points="56.71 70.94 56.66 87.24 53.84 87.03 53.89 70.73 56.71 70.94"/><polygon class="cls-34" points="53.41 70.71 53.36 87.01 50.59 87.26 50.64 70.96 53.41 70.71"/><polygon class="cls-59" points="29.6 71.29 29.56 87.59 26.94 86.34 26.99 70.04 29.6 71.29"/><polygon class="cls-36" points="50.64 70.96 50.59 87.26 49.82 87.87 49.87 71.57 50.64 70.96"/><polygon class="cls-19" points="49.87 71.57 49.82 87.87 49.55 88.11 49.6 71.81 49.87 71.57"/><polygon class="cls-11" points="30.94 71.97 30.9 88.28 29.56 87.59 29.6 71.29 30.94 71.97"/><polygon class="cls-40" points="31.94 72.68 31.89 88.98 30.9 88.28 30.94 71.97 31.94 72.68"/><polygon class="cls-18" points="49.6 71.81 49.55 88.11 47.54 89.14 47.59 72.83 49.6 71.81"/><polygon class="cls-60" points="32.81 73.25 32.77 89.55 31.89 88.98 31.94 72.68 32.81 73.25"/><polygon class="cls-61" points="33.46 73.85 33.41 90.16 32.77 89.55 32.81 73.25 33.46 73.85"/><polygon class="cls-23" points="47.59 72.83 47.54 89.14 45.78 90.81 45.83 74.51 47.59 72.83"/><polygon class="cls-18" points="45.83 74.51 45.78 90.81 45.32 91.03 45.37 74.72 45.83 74.51"/><polygon class="cls-62" points="45.37 74.72 45.32 91.03 44.87 91.46 44.92 75.16 45.37 74.72"/><polygon class="cls-5" points="34.97 75.59 34.92 91.89 33.41 90.16 33.46 73.85 34.97 75.59"/><polygon class="cls-36" points="44.92 75.16 44.87 91.46 44.16 92.04 44.21 75.74 44.92 75.16"/><polygon class="cls-20" points="44.21 75.74 44.16 92.04 43.69 92.37 43.74 76.07 44.21 75.74"/><polygon class="cls-5" points="35.64 76.63 35.59 92.94 34.92 91.89 34.97 75.59 35.64 76.63"/><polygon class="cls-15" points="43.74 76.07 43.69 92.37 42.31 93.25 42.36 76.95 43.74 76.07"/><polygon class="cls-5" points="35.88 77.27 35.84 93.58 35.59 92.94 35.64 76.63 35.88 77.27"/><polygon class="cls-63" points="42.36 76.95 42.31 93.25 41.49 93.83 41.54 77.53 42.36 76.95"/><polygon class="cls-12" points="36.26 77.6 36.22 93.91 35.84 93.58 35.88 77.27 36.26 77.6"/><polygon class="cls-5" points="36.35 77.82 36.31 94.12 36.22 93.91 36.26 77.6 36.35 77.82"/><polygon class="cls-5" points="37.18 78.91 37.13 95.21 36.31 94.12 36.35 77.82 37.18 78.91"/><polygon class="cls-6" points="37.44 79.12 37.39 95.42 37.13 95.21 37.18 78.91 37.44 79.12"/><polygon class="cls-19" points="41.54 77.53 41.49 93.83 39.5 95.67 39.54 79.36 41.54 77.53"/><polygon class="cls-64" points="38.33 79.78 38.28 96.08 37.39 95.42 37.44 79.12 38.33 79.78"/><polygon class="cls-6" points="38.62 80.01 38.57 96.32 38.28 96.08 38.33 79.78 38.62 80.01"/><polygon class="cls-5" points="38.87 80.42 38.82 96.72 38.57 96.32 38.62 80.01 38.87 80.42"/><polygon class="cls-65" points="39.26 80.72 39.21 97.02 38.82 96.72 38.87 80.42 39.26 80.72"/><polygon class="cls-66" points="40.71 81.48 40.66 97.79 39.21 97.02 39.26 80.72 40.71 81.48"/><polygon class="cls-4" points="41.33 81.83 41.28 98.13 40.66 97.79 40.71 81.48 41.33 81.83"/><polygon class="cls-67" points="42.39 82.56 42.34 98.86 41.28 98.13 41.33 81.83 42.39 82.56"/><polygon class="cls-26" points="79.61 68.75 78.7 69.66 78.24 70 77.12 70.25 76.51 70.38 75.8 70.37 74.88 70.12 73.46 70.3 72.14 70.65 69.57 70.39 59.79 69.82 56.71 70.94 53.89 70.73 53.41 70.71 50.64 70.96 49.87 71.57 49.6 71.81 47.59 72.83 45.83 74.51 45.37 74.72 44.92 75.16 44.21 75.74 43.74 76.07 42.36 76.95 41.54 77.53 39.54 79.36 40.44 80.2 40.81 81.1 40.98 81.33 41.19 81.55 41.96 82.06 42.28 82.32 42.39 82.56 41.33 81.83 40.71 81.48 39.26 80.72 38.87 80.42 38.62 80.01 38.33 79.78 37.44 79.12 37.18 78.91 36.35 77.82 36.26 77.6 35.88 77.27 35.64 76.63 34.97 75.59 33.46 73.85 32.81 73.25 31.94 72.68 30.94 71.97 29.6 71.29 26.99 70.04 25.57 69.7 24.55 69.29 24.14 69.19 22.61 68.55 21.84 68.36 21.06 68.25 20.21 68.22 18.4 68.31 18.1 67.93 18.42 67.68 18.55 67.39 18.5 67.08 18.38 66.83 18.04 67.12 17.69 66.83 17.61 67.2 16.94 65.92 15.39 64.64 14.42 64.15 14.19 63.74 13.21 63.37 11.89 63.27 10.22 62.82 9.31 62.53 8.37 62.87 9.1 63.23 9.28 63.44 5.76 62.96 3.52 62.65 2.68 62.81 2.78 63.2 4.3 64.37 3.49 64.23 2.82 63.63 2.1 62.84 1.55 62.38 1.05 61.95 2.09 61.28 2.87 60.83 5.63 59.22 7.46 58.15 9.53 56.96 11.72 55.68 13.99 54.36 16.26 53.04 18.46 51.76 20.52 50.57 22.36 49.49 23.91 48.59 25.89 47.44 26.16 47.28 27.13 46.72 25.91 46.1 25.26 45.76 22.12 44.17 20.22 43.2 18.33 42.23 17.77 42.02 16.53 41.67 16 41.45 15.6 41.12 15.37 40.73 15.13 39.94 15.29 39.12 15.54 38.3 15.76 37.61 15.89 37.19 16.15 36.88 17.1 36.14 18.02 34.72 18.52 34.22 0.05 23.42 0.71 23.03 20.69 11.41 21.36 11.03 21.92 10.7 21.63 10.33 21.24 10.1 20.79 9.85 20.21 9.52 19.52 9.12 18.76 8.68 17.94 8.21 17.09 7.71 16.24 7.22 15.42 6.75 14.64 6.31 13.96 5.91 13.37 5.57 12.92 5.32 12.63 5.15 14.7 4.83 16.87 4.56 19.05 4.31 21.22 4.04 23.39 3.78 25.56 3.52 27.74 3.25 29.91 2.99 32.07 2.73 34.24 2.46 36.41 2.2 38.57 1.93 40.41 1.7 42.24 1.48 44.07 1.25 45.64 1.06 47.23 0.86 49.16 0.65 51.09 0.43 53.03 0.22 54.96 0 53.49 0.85 52.03 1.71 50.57 2.56 49.1 3.41 47.64 4.26 46.17 5.11 44.7 5.96 43.25 6.81 43.89 7.11 44.53 7.41 45.18 7.71 45.82 8.01 46.47 8.3 47.11 8.6 47.76 8.9 48.4 9.2 49.05 9.5 49.59 9.75 50.69 10.26 51.77 10.77 52.27 11 53.24 11.45 54.2 11.9 55.17 12.35 56.13 12.8 57.1 13.24 58.06 13.69 59.02 14.14 59.98 14.59 60.94 15.04 61.9 15.48 62.86 15.92 63.82 16.37 64.78 16.82 65.73 17.26 66.69 17.7 67.64 18.15 68.6 18.59 69.55 19.03 70.5 19.47 71.45 19.92 72.41 20.36 73.36 20.79 74.31 21.23 75.25 21.68 75.71 21.89 76.72 22.36 77.74 22.82 78.2 23.04 79.04 23.43 80.02 23.89 81 24.34 81.98 24.79 82.95 25.25 83.92 25.7 84.9 26.15 85.88 26.6 86.84 27.05 87.92 27.55 88.37 27.76 88.82 27.98 89.27 28.19 89.72 28.4 90.44 28.74 91.15 29.07 91.87 29.41 92.58 29.74 93.3 30.08 94.01 30.41 94.73 30.75 95.44 31.08 96.15 31.41 96.87 31.75 97.58 32.09 98.3 32.42 98.99 32.74 99.68 33.06 100.37 33.39 101.06 33.71 101.76 34.03 102.45 34.36 103.14 34.68 103.84 35 104.52 35.33 105.21 35.65 105.9 35.97 106.59 36.29 107.28 36.62 107.97 36.94 108.66 37.26 109.34 37.58 109.66 37.72 110.43 37.74 110.85 37.7 111.35 37.64 111.79 37.59 112.25 37.55 112.69 37.5 113.62 38.13 114.15 38.58 114.68 39.03 115.22 39.47 115.77 39.93 116.3 40.39 116.85 40.85 117.39 41.3 116.44 42.02 115.55 42.54 114.68 43.04 114.21 43.32 113.69 43.62 112.81 44.13 112.16 44.51 111.86 44.68 110.86 45.26 109.82 45.87 108.74 46.5 107.63 47.14 106.5 47.8 105.38 48.45 104.24 49.11 103.12 49.76 102 50.41 100.92 51.03 99.88 51.64 98.88 52.22 97.93 52.77 97.05 53.28 96.48 53.61 95.02 54.46 94.4 54.82 93.49 55.35 92.12 56.15 91.53 55.77 91.15 55.44 90.72 56.02 91.54 56.48 92 56.65 90.43 57.65 90.17 57.87 89.94 58.33 88.92 58.92 88.27 59.43 87.98 59.58 87.39 59.69 86.18 60.08 85.79 60.32 84.88 60.79 84.01 61.42 83.55 61.62 83.84 62.02 84.4 63.62 83.9 63.65 83.41 63.66 82.87 63.56 82.44 63.56 79.53 63.82 77.75 63.65 76.77 63.89 76.82 64.68 76.91 66.02 77.16 66.42 77.53 66.72 77.78 67 78.35 67.42 79.61 68.75"/></g></g></g></svg>