<svg xmlns="http://www.w3.org/2000/svg" viewBox="0 0 62.36 135.68"><defs><style>.cls-1{isolation:isolate;}.cls-2{fill:#952424;}.cls-3{fill:#892222;}.cls-4{fill:#481212;}.cls-5{fill:#a92929;}.cls-6{fill:#4a1212;}.cls-7{fill:#491212;}.cls-8{fill:#9c2626;}.cls-9{fill:#a62929;}.cls-10{fill:#842020;}.cls-11{fill:#a42828;}.cls-12{fill:#9a2626;}.cls-13{fill:#a22828;}.cls-14{fill:#a12828;}.cls-15{fill:#a72929;}.cls-16{fill:#761d1d;}.cls-17{fill:#9f2727;}.cls-18{fill:#9d2626;}.cls-19{fill:#832020;}.cls-20{fill:#701b1b;}.cls-21{fill:#902323;}.cls-22{fill:#872121;}.cls-23{fill:#731c1c;}.cls-24{fill:#6c1a1a;}.cls-25{fill:#791e1e;}.cls-26{fill:#992525;}.cls-27{fill:#6d1b1b;}.cls-28{fill:#a12727;}.cls-29{fill:#511414;}.cls-30{fill:#a82929;}.cls-31{fill:#4d1313;}.cls-32{fill:#a52828;}.cls-33{fill:#661919;}.cls-34{fill:#a32828;}.cls-35{fill:#4c1313;}.cls-36{fill:#521414;}.cls-37{fill:#671919;}.cls-38{fill:#7a1e1e;}.cls-39{fill:#551515;}.cls-40{fill:#8e2323;}.cls-41{fill:#751d1d;}.cls-42{fill:#8a2222;}.cls-43{fill:#7b1e1e;}.cls-44{fill:#651919;}.cls-45{fill:#641818;}.cls-46{fill:#7c1e1e;}.cls-47{fill:#711c1c;}.cls-48{fill:#862121;}.cls-49{fill:#4b1212;}.cls-50{fill:#8c2222;}.cls-51{fill:#972525;}.cls-52{fill:#531414;}.cls-53{fill:#4e1313;}.cls-54{fill:#c83131;}</style></defs><title>Morocco</title><g id="Layer_2" data-name="Layer 2"><g id="Layer_1-2" data-name="Layer 1"><g class="cls-1"><polygon class="cls-2" points="26.28 2.01 26.23 18.32 25.7 18.35 25.75 2.05 26.28 2.01"/><polygon class="cls-3" points="25.75 2.05 25.7 18.35 24.61 18.3 24.65 2 25.75 2.05"/><polygon class="cls-4" points="22.36 2.67 22.31 18.97 22.27 18.01 22.32 1.7 22.36 2.67"/><polygon class="cls-4" points="1.83 9.29 1.78 25.59 1.75 25.18 1.79 8.87 1.83 9.29"/><polygon class="cls-5" points="59.81 10.47 59.77 26.77 58.51 27.43 58.55 11.13 59.81 10.47"/><polygon class="cls-5" points="58.55 11.13 58.51 27.43 58.03 27.69 58.07 11.39 58.55 11.13"/><polygon class="cls-5" points="58.07 11.39 58.03 27.69 57.49 27.97 57.54 11.67 58.07 11.39"/><polygon class="cls-5" points="57.54 11.67 57.49 27.97 56.93 28.27 56.98 11.97 57.54 11.67"/><polygon class="cls-6" points="0.6 11.88 0.56 28.18 0 27.66 0.05 11.35 0.6 11.88"/><polygon class="cls-5" points="56.98 11.97 56.93 28.27 56.34 28.59 56.38 12.28 56.98 11.97"/><polygon class="cls-7" points="0.91 12.21 0.86 28.52 0.56 28.18 0.6 11.88 0.91 12.21"/><polygon class="cls-5" points="56.38 12.28 56.34 28.59 55.73 28.91 55.78 12.61 56.38 12.28"/><polygon class="cls-5" points="55.78 12.61 55.73 28.91 55.12 29.23 55.17 12.92 55.78 12.61"/><polygon class="cls-7" points="1.48 12.8 1.43 29.1 0.86 28.52 0.91 12.21 1.48 12.8"/><polygon class="cls-5" points="55.17 12.92 55.12 29.23 54.52 29.55 54.56 13.24 55.17 12.92"/><polygon class="cls-5" points="54.56 13.24 54.52 29.55 53.95 29.85 53.99 13.55 54.56 13.24"/><polygon class="cls-5" points="53.99 13.55 53.95 29.85 53.4 30.14 53.45 13.83 53.99 13.55"/><polygon class="cls-5" points="53.45 13.83 53.4 30.14 52.91 30.4 52.95 14.1 53.45 13.83"/><polygon class="cls-5" points="52.95 14.1 52.91 30.4 52.47 30.64 52.51 14.33 52.95 14.1"/><polygon class="cls-5" points="52.51 14.33 52.47 30.64 51.52 31.14 51.56 14.83 52.51 14.33"/><polygon class="cls-4" points="3.34 15.26 3.29 31.56 1.43 29.1 1.48 12.8 3.34 15.26"/><polygon class="cls-8" points="51.56 14.83 51.52 31.14 50.66 32.02 50.71 15.71 51.56 14.83"/><polygon class="cls-9" points="50.71 15.71 50.66 32.02 49.53 32.79 49.58 16.49 50.71 15.71"/><polygon class="cls-10" points="49.58 16.49 49.53 32.79 49.37 33.14 49.42 16.84 49.58 16.49"/><polygon class="cls-7" points="4.74 16.73 4.69 33.04 3.29 31.56 3.34 15.26 4.74 16.73"/><polygon class="cls-11" points="52.14 17.55 52.09 33.86 51.09 34.62 51.14 18.32 52.14 17.55"/><polygon class="cls-12" points="51.14 18.32 51.09 34.62 50.1 35.71 50.15 19.4 51.14 18.32"/><polygon class="cls-4" points="6.71 19.91 6.66 36.21 4.69 33.04 4.74 16.73 6.71 19.91"/><polygon class="cls-13" points="50.15 19.4 50.1 35.71 48.52 37.03 48.57 20.73 50.15 19.4"/><polygon class="cls-4" points="7.09 20.97 7.04 37.27 6.66 36.21 6.71 19.91 7.09 20.97"/><polygon class="cls-14" points="48.57 20.73 48.52 37.03 47.73 37.72 47.77 21.41 48.57 20.73"/><polygon class="cls-4" points="7.59 21.77 7.55 38.07 7.04 37.27 7.09 20.97 7.59 21.77"/><polygon class="cls-4" points="8 22.67 7.95 38.98 7.55 38.07 7.59 21.77 8 22.67"/><polygon class="cls-15" points="49.7 22.63 49.65 38.93 49.2 39.23 49.24 22.93 49.7 22.63"/><polygon class="cls-16" points="49.24 22.93 49.2 39.23 49.09 39.6 49.14 23.3 49.24 22.93"/><polygon class="cls-4" points="8.06 23.52 8.02 39.83 7.95 38.98 8 22.67 8.06 23.52"/><polygon class="cls-3" points="55.12 25.55 55.08 41.85 54.47 42.95 54.52 26.64 55.12 25.55"/><polygon class="cls-17" points="54.52 26.64 54.47 42.95 53.63 43.75 53.68 27.44 54.52 26.64"/><polygon class="cls-15" points="53.68 27.44 53.63 43.75 52.67 44.37 52.72 28.07 53.68 27.44"/><polygon class="cls-18" points="52.72 28.07 52.67 44.37 52.1 44.95 52.14 28.64 52.72 28.07"/><polygon class="cls-19" points="52.14 28.64 52.1 44.95 51.83 45.54 51.87 29.24 52.14 28.64"/><polygon class="cls-20" points="52.1 30.22 52.05 46.53 51.88 47.5 51.93 31.2 52.1 30.22"/><polygon class="cls-21" points="51.93 31.2 51.88 47.5 51.34 48.31 51.39 32.01 51.93 31.2"/><polygon class="cls-22" points="51.39 32.01 51.34 48.31 51.02 48.93 51.06 32.63 51.39 32.01"/><polygon class="cls-23" points="51.06 32.63 51.02 48.93 50.89 49.5 50.94 33.2 51.06 32.63"/><polygon class="cls-4" points="3.3 33.81 3.25 50.11 2.79 49.08 2.84 32.78 3.3 33.81"/><polygon class="cls-24" points="50.94 33.2 50.89 49.5 50.8 50.3 50.84 34 50.94 33.2"/><polygon class="cls-25" points="50.84 34 50.8 50.3 50.58 50.98 50.63 34.68 50.84 34"/><polygon class="cls-4" points="3.39 34.82 3.35 51.13 3.25 50.11 3.3 33.81 3.39 34.82"/><polygon class="cls-4" points="3.65 36.1 3.6 52.41 3.35 51.13 3.39 34.82 3.65 36.1"/><polygon class="cls-4" points="3.61 37.69 3.57 53.99 3.41 53.04 3.46 36.74 3.61 37.69"/><polygon class="cls-26" points="51.69 38.08 51.65 54.38 51.21 54.88 51.26 38.58 51.69 38.08"/><polygon class="cls-27" points="50.49 38.77 50.45 55.08 49.52 54.81 49.56 38.51 50.49 38.77"/><polygon class="cls-11" points="51.26 38.58 51.21 54.88 50.45 55.08 50.49 38.77 51.26 38.58"/><polygon class="cls-11" points="49.56 38.51 49.52 54.81 48.8 55.36 48.84 39.05 49.56 38.51"/><polygon class="cls-4" points="4.63 39.38 4.58 55.68 3.57 53.99 3.61 37.69 4.63 39.38"/><polygon class="cls-28" points="48.84 39.05 48.8 55.36 48.17 55.91 48.22 39.6 48.84 39.05"/><polygon class="cls-29" points="5.37 39.88 5.33 56.18 4.58 55.68 4.63 39.38 5.37 39.88"/><polygon class="cls-30" points="48.22 39.6 48.17 55.91 46.37 56.95 46.41 40.65 48.22 39.6"/><polygon class="cls-31" points="6.45 40.71 6.41 57.02 5.33 56.18 5.37 39.88 6.45 40.71"/><polygon class="cls-32" points="46.41 40.65 46.37 56.95 45.55 57.56 45.6 41.25 46.41 40.65"/><polygon class="cls-4" points="7.08 41.64 7.04 57.95 6.41 57.02 6.45 40.71 7.08 41.64"/><polygon class="cls-18" points="45.6 41.25 45.55 57.56 44.84 58.27 44.89 41.97 45.6 41.25"/><polygon class="cls-32" points="44.89 41.97 44.84 58.27 44.02 58.87 44.07 42.57 44.89 41.97"/><polygon class="cls-4" points="7.23 43.02 7.18 59.33 7.04 57.95 7.08 41.64 7.23 43.02"/><polygon class="cls-33" points="44.07 42.57 44.02 58.87 44 59.5 44.05 43.2 44.07 42.57"/><polygon class="cls-4" points="7.33 43.4 7.29 59.7 7.18 59.33 7.23 43.02 7.33 43.4"/><polygon class="cls-34" points="44.05 43.2 44 59.5 42.37 59.89 42.41 43.59 44.05 43.2"/><polygon class="cls-5" points="42.41 43.59 42.37 59.89 41.58 60.29 41.62 43.99 42.41 43.59"/><polygon class="cls-9" points="41.62 43.99 41.58 60.29 41.12 60.62 41.16 44.32 41.62 43.99"/><polygon class="cls-4" points="7.47 44.23 7.42 60.53 7.29 59.7 7.33 43.4 7.47 44.23"/><polygon class="cls-21" points="41.16 44.32 41.12 60.62 40.7 61.23 40.75 44.93 41.16 44.32"/><polygon class="cls-4" points="8.27 45.42 8.22 61.73 7.42 60.53 7.47 44.23 8.27 45.42"/><polygon class="cls-5" points="40.78 45.65 40.74 61.95 39.94 62.37 39.99 46.06 40.78 45.65"/><polygon class="cls-35" points="9.48 46.4 9.44 62.7 8.22 61.73 8.27 45.42 9.48 46.4"/><polygon class="cls-36" points="9.91 46.67 9.87 62.98 9.44 62.7 9.48 46.4 9.91 46.67"/><polygon class="cls-12" points="39.99 46.06 39.94 62.37 38.79 63.63 38.84 47.32 39.99 46.06"/><polygon class="cls-19" points="38.84 47.32 38.79 63.63 38.62 64.01 38.66 47.71 38.84 47.32"/><polygon class="cls-29" points="11.48 47.72 11.44 64.02 9.87 62.98 9.91 46.67 11.48 47.72"/><polygon class="cls-37" points="38.66 47.71 38.62 64.01 38.59 64.47 38.64 48.16 38.66 47.71"/><polygon class="cls-38" points="38.64 48.16 38.59 64.47 38.38 65.15 38.42 48.85 38.64 48.16"/><polygon class="cls-33" points="38.42 48.85 38.38 65.15 38.35 65.83 38.39 49.53 38.42 48.85"/><polygon class="cls-39" points="14.85 49.68 14.81 65.98 11.44 64.02 11.48 47.72 14.85 49.68"/><polygon class="cls-40" points="16.69 49.68 16.64 65.98 14.81 65.98 14.85 49.68 16.69 49.68"/><polygon class="cls-41" points="18.39 50.04 18.35 66.34 16.64 65.98 16.69 49.68 18.39 50.04"/><polygon class="cls-42" points="38.39 49.53 38.35 65.83 37.88 66.67 37.92 50.37 38.39 49.53"/><polygon class="cls-6" points="18.78 50.4 18.73 66.7 18.35 66.34 18.39 50.04 18.78 50.4"/><polygon class="cls-43" points="37.92 50.37 37.88 66.67 37.73 67.12 37.77 50.81 37.92 50.37"/><polygon class="cls-31" points="19.86 51.23 19.82 67.54 18.73 66.7 18.78 50.4 19.86 51.23"/><polygon class="cls-44" points="37.77 50.81 37.73 67.12 37.71 67.61 37.75 51.31 37.77 50.81"/><polygon class="cls-45" points="37.75 51.31 37.71 67.61 37.7 68.38 37.75 52.08 37.75 51.31"/><polygon class="cls-4" points="20.44 52.05 20.4 68.36 19.82 67.54 19.86 51.23 20.44 52.05"/><polygon class="cls-46" points="37.75 52.08 37.7 68.38 37.57 68.75 37.62 52.45 37.75 52.08"/><polygon class="cls-47" points="37.62 52.45 37.57 68.75 37.51 69.06 37.55 52.76 37.62 52.45"/><polygon class="cls-4" points="20.97 53.14 20.92 69.45 20.4 68.36 20.44 52.05 20.97 53.14"/><polygon class="cls-48" points="37.55 52.76 37.51 69.06 37.13 69.82 37.17 53.52 37.55 52.76"/><polygon class="cls-4" points="21.05 54.18 21.01 70.49 20.92 69.45 20.97 53.14 21.05 54.18"/><polygon class="cls-4" points="21.28 54.73 21.23 71.04 21.01 70.49 21.05 54.18 21.28 54.73"/><polygon class="cls-4" points="21.72 55.62 21.67 71.92 21.23 71.04 21.28 54.73 21.72 55.62"/><polygon class="cls-4" points="22.12 57.85 22.08 74.16 21.67 71.92 21.72 55.62 22.12 57.85"/><polygon class="cls-4" points="22.48 58.85 22.44 75.15 22.08 74.16 22.12 57.85 22.48 58.85"/><polygon class="cls-4" points="21.18 64.34 21.13 80.64 21.05 80.24 21.1 63.94 21.18 64.34"/><polygon class="cls-4" points="21.24 65.32 21.19 81.62 21.13 80.64 21.18 64.34 21.24 65.32"/><polygon class="cls-30" points="56.59 65.83 56.54 82.13 55.88 82.52 55.92 66.21 56.59 65.83"/><polygon class="cls-4" points="21.43 66.16 21.38 82.47 21.19 81.62 21.24 65.32 21.43 66.16"/><polygon class="cls-7" points="15.18 74.18 15.13 90.48 14.74 90.08 14.79 73.78 15.18 74.18"/><polygon class="cls-4" points="15.72 76.06 15.67 92.37 15.13 90.48 15.18 74.18 15.72 76.06"/><polygon class="cls-7" points="16.27 76.63 16.22 92.94 15.67 92.37 15.72 76.06 16.27 76.63"/><polygon class="cls-4" points="16.91 77.47 16.87 93.77 16.22 92.94 16.27 76.63 16.91 77.47"/><polygon class="cls-30" points="55.92 66.21 55.88 82.52 35.89 94.13 35.94 77.83 55.92 66.21"/><polygon class="cls-30" points="35.94 77.83 35.89 94.13 35.23 94.52 35.28 78.22 35.94 77.83"/><polygon class="cls-4" points="17.34 78.49 17.29 94.8 16.87 93.77 16.91 77.47 17.34 78.49"/><polygon class="cls-49" points="18.09 79.15 18.05 95.45 17.29 94.8 17.34 78.49 18.09 79.15"/><polygon class="cls-4" points="18.32 79.51 18.28 95.81 18.05 95.45 18.09 79.15 18.32 79.51"/><polygon class="cls-49" points="18.8 79.93 18.75 96.23 18.28 95.81 18.32 79.51 18.8 79.93"/><polygon class="cls-4" points="19.07 80.24 19.02 96.55 18.75 96.23 18.8 79.93 19.07 80.24"/><polygon class="cls-4" points="19.47 80.94 19.43 97.24 19.02 96.55 19.07 80.24 19.47 80.94"/><polygon class="cls-4" points="19.53 81.42 19.49 97.72 19.43 97.24 19.47 80.94 19.53 81.42"/><polygon class="cls-4" points="18.28 87.3 18.23 103.6 17.43 102.59 17.48 86.29 18.28 87.3"/><polygon class="cls-49" points="19.24 88.14 19.19 104.45 18.23 103.6 18.28 87.3 19.24 88.14"/><polygon class="cls-4" points="19.38 88.44 19.34 104.74 19.19 104.45 19.24 88.14 19.38 88.44"/><polygon class="cls-4" points="19.59 89.13 19.55 105.43 19.34 104.74 19.38 88.44 19.59 89.13"/><polygon class="cls-25" points="53.5 88.74 53.45 105.04 53.21 105.82 53.26 89.52 53.5 88.74"/><polygon class="cls-7" points="20.59 90.19 20.54 106.5 19.55 105.43 19.59 89.13 20.59 90.19"/><polygon class="cls-50" points="53.26 89.52 53.21 105.82 52.46 107.06 52.51 90.76 53.26 89.52"/><polygon class="cls-4" points="20.88 90.75 20.83 107.05 20.54 106.5 20.59 90.19 20.88 90.75"/><polygon class="cls-4" points="21 91.17 20.95 107.48 20.83 107.05 20.88 90.75 21 91.17"/><polygon class="cls-34" points="52.51 90.76 52.46 107.06 51.33 107.98 51.38 91.68 52.51 90.76"/><polygon class="cls-7" points="21.61 91.81 21.56 108.12 20.95 107.48 21 91.17 21.61 91.81"/><polygon class="cls-51" points="51.38 91.68 51.33 107.98 51.07 108.3 51.12 91.99 51.38 91.68"/><polygon class="cls-25" points="51.12 91.99 51.07 108.3 50.95 108.71 50.99 92.41 51.12 91.99"/><polygon class="cls-31" points="22.49 92.5 22.44 108.8 21.56 108.12 21.61 91.81 22.49 92.5"/><polygon class="cls-38" points="50.99 92.41 50.95 108.71 50.73 109.41 50.77 93.1 50.99 92.41"/><polygon class="cls-38" points="50.77 93.1 50.73 109.41 50.47 110.22 50.52 93.92 50.77 93.1"/><polygon class="cls-36" points="24.99 94.09 24.94 110.39 22.44 108.8 22.49 92.5 24.99 94.09"/><polygon class="cls-4" points="25.26 94.43 25.22 110.73 24.94 110.39 24.99 94.09 25.26 94.43"/><polygon class="cls-25" points="50.52 93.92 50.47 110.22 50.27 110.87 50.32 94.57 50.52 93.92"/><polygon class="cls-4" points="25.39 97.14 25.34 113.44 25.22 110.73 25.26 94.43 25.39 97.14"/><polygon class="cls-4" points="25.63 97.81 25.58 114.11 25.34 113.44 25.39 97.14 25.63 97.81"/><polygon class="cls-4" points="25.65 98.24 25.61 114.54 25.58 114.11 25.63 97.81 25.65 98.24"/><polygon class="cls-4" points="25.69 99.71 25.64 116.01 25.61 114.54 25.65 98.24 25.69 99.71"/><polygon class="cls-4" points="25.36 102.09 25.32 118.39 25.27 117.53 25.32 101.22 25.36 102.09"/><polygon class="cls-4" points="25.52 102.65 25.47 118.96 25.32 118.39 25.36 102.09 25.52 102.65"/><polygon class="cls-4" points="26.93 103.21 26.89 119.52 26.84 119.11 26.88 102.81 26.93 103.21"/><polygon class="cls-30" points="62.36 101.52 62.31 117.82 59.1 119.69 59.14 103.39 62.36 101.52"/><polygon class="cls-4" points="26.09 103.41 26.04 119.71 25.47 118.96 25.52 102.65 26.09 103.41"/><polygon class="cls-11" points="26.88 102.81 26.84 119.11 26.04 119.71 26.09 103.41 26.88 102.81"/><polygon class="cls-4" points="27.23 103.86 27.18 120.16 26.89 119.52 26.93 103.21 27.23 103.86"/><polygon class="cls-49" points="27.62 104.19 27.57 120.49 27.18 120.16 27.23 103.86 27.62 104.19"/><polygon class="cls-30" points="59.14 103.39 59.1 119.69 57.55 120.6 57.6 104.29 59.14 103.39"/><polygon class="cls-4" points="27.83 104.91 27.78 121.22 27.57 120.49 27.62 104.19 27.83 104.91"/><polygon class="cls-30" points="57.6 104.29 57.55 120.6 55.7 121.67 55.75 105.37 57.6 104.29"/><polygon class="cls-4" points="28.51 105.91 28.46 122.21 27.78 121.22 27.83 104.91 28.51 105.91"/><polygon class="cls-30" points="55.75 105.37 55.7 121.67 53.65 122.86 53.7 106.56 55.75 105.37"/><polygon class="cls-30" points="53.7 106.56 53.65 122.86 51.45 124.14 51.49 107.84 53.7 106.56"/><polygon class="cls-4" points="30.38 108.54 30.33 124.84 28.46 122.21 28.51 105.91 30.38 108.54"/><polygon class="cls-52" points="30.97 108.9 30.92 125.2 30.33 124.84 30.38 108.54 30.97 108.9"/><polygon class="cls-30" points="51.49 107.84 51.45 124.14 49.18 125.46 49.22 109.16 51.49 107.84"/><polygon class="cls-7" points="31.36 109.33 31.32 125.63 30.92 125.2 30.97 108.9 31.36 109.33"/><polygon class="cls-4" points="31.5 109.88 31.45 126.18 31.32 125.63 31.36 109.33 31.5 109.88"/><polygon class="cls-30" points="49.22 109.16 49.18 125.46 46.91 126.78 46.95 110.48 49.22 109.16"/><polygon class="cls-4" points="32.17 110.95 32.13 127.26 31.45 126.18 31.5 109.88 32.17 110.95"/><polygon class="cls-30" points="46.95 110.48 46.91 126.78 44.71 128.06 44.76 111.75 46.95 110.48"/><polygon class="cls-30" points="44.76 111.75 44.71 128.06 42.65 129.26 42.7 112.95 44.76 111.75"/><polygon class="cls-30" points="42.7 112.95 42.65 129.26 40.81 130.32 40.86 114.02 42.7 112.95"/><polygon class="cls-30" points="40.86 114.02 40.81 130.32 38.05 131.93 38.1 115.63 40.86 114.02"/><polygon class="cls-7" points="34.36 115.66 34.31 131.97 31.49 129.16 31.54 112.85 34.36 115.66"/><polygon class="cls-30" points="38.1 115.63 38.05 131.93 37.28 132.38 37.32 116.08 38.1 115.63"/><polygon class="cls-30" points="37.32 116.08 37.28 132.38 36.24 132.98 36.28 116.68 37.32 116.08"/><polygon class="cls-49" points="35.87 116.96 35.82 133.26 34.31 131.97 34.36 115.66 35.87 116.96"/><polygon class="cls-53" points="37.7 118.34 37.66 134.64 35.82 133.26 35.87 116.96 37.7 118.34"/><polygon class="cls-31" points="38.86 119.25 38.82 135.55 37.66 134.64 37.7 118.34 38.86 119.25"/><polygon class="cls-43" points="39.65 119.37 39.61 135.68 38.82 135.55 38.86 119.25 39.65 119.37"/><polygon class="cls-54" points="38.54 118.89 39.65 119.37 38.86 119.25 37.7 118.34 35.87 116.96 34.36 115.66 31.54 112.85 32.17 110.95 31.5 109.88 31.36 109.33 30.97 108.9 30.38 108.54 28.51 105.91 27.83 104.91 27.62 104.19 27.23 103.86 26.93 103.21 26.88 102.81 26.09 103.41 25.52 102.65 25.36 102.09 25.32 101.22 25.69 99.71 25.65 98.24 25.63 97.81 25.39 97.14 25.26 94.43 24.99 94.09 22.49 92.5 21.61 91.81 21 91.17 20.88 90.75 20.59 90.19 19.59 89.13 19.38 88.44 19.24 88.14 18.28 87.3 17.48 86.29 17.9 85.68 17.91 85.06 18.52 84.11 18.91 83.39 19.24 82.19 19.53 81.42 19.47 80.94 19.07 80.24 18.8 79.93 18.32 79.51 18.09 79.15 17.34 78.49 16.91 77.47 16.27 76.63 15.72 76.06 15.18 74.18 14.79 73.78 15.14 72.91 16.14 72.09 17.11 71.55 17.9 70.64 19.4 69.4 20.33 67.8 21.43 66.16 21.24 65.32 21.18 64.34 21.1 63.94 21.95 60.93 22.09 60.49 22.36 60.01 22.48 58.85 22.12 57.85 21.72 55.62 21.28 54.73 21.05 54.18 20.97 53.14 20.44 52.05 19.86 51.23 18.78 50.4 18.39 50.04 16.69 49.68 14.85 49.68 11.48 47.72 9.91 46.67 9.48 46.4 8.27 45.42 7.47 44.23 7.33 43.4 7.23 43.02 7.08 41.64 6.45 40.71 5.37 39.88 4.63 39.38 3.61 37.69 3.46 36.74 3.65 36.1 3.39 34.82 3.3 33.81 2.84 32.78 3.46 31.53 4.35 30.41 4.69 29.89 4.88 29.61 5.55 28.59 6.57 26.77 7.18 25.62 8.06 23.52 8 22.67 7.59 21.77 7.09 20.97 6.71 19.91 4.74 16.73 3.34 15.26 1.48 12.8 0.91 12.21 0.6 11.88 0.05 11.35 0.72 10.5 1.83 9.29 1.79 8.87 4.01 8.92 5.69 9.37 6.68 9.38 8.5 9.51 11.46 9.27 13.12 8.82 14.2 8.43 15.22 8.11 15.65 7.54 16.41 6.91 16.72 6.44 17.16 6.04 19.51 4.73 20.33 4.46 22.33 3.16 22.36 2.67 22.32 1.7 26.28 2.01 25.75 2.05 24.65 2 25.19 1.91 25.97 1.94 26.88 1.74 27.66 1.39 29.08 0.36 33.95 0.15 35.53 0 35.99 0.44 36.19 0.95 37.89 1.08 38.48 1.87 39.04 1.9 39.56 2 41.51 2.58 42.88 3.71 43.23 3.94 43.68 4.13 46.29 4.9 47.08 5.68 48.1 6.46 49.09 6.57 54 7.87 54.98 7.69 58.25 7.45 58.59 7.96 59.02 9.62 59.81 10.47 58.55 11.13 58.07 11.39 57.54 11.67 56.98 11.97 56.38 12.28 55.78 12.61 55.17 12.92 54.56 13.24 53.99 13.55 53.45 13.83 52.95 14.1 52.51 14.33 51.56 14.83 50.71 15.71 49.58 16.49 49.42 16.84 51.09 17.27 52.14 17.55 51.14 18.32 50.15 19.4 48.57 20.73 47.77 21.41 49.7 22.63 49.24 22.93 49.14 23.3 49.9 23.82 53.84 24.1 54.05 24.66 54.06 25.04 54.59 25.29 55.12 25.55 54.52 26.64 53.68 27.44 52.72 28.07 52.14 28.64 51.87 29.24 52.1 30.22 51.93 31.2 51.39 32.01 51.06 32.63 50.94 33.2 50.84 34 50.63 34.68 50.68 35.46 51.12 36.25 51.48 37.15 51.69 38.08 51.26 38.58 50.49 38.77 49.56 38.51 48.84 39.05 48.22 39.6 46.41 40.65 45.6 41.25 44.89 41.97 44.07 42.57 44.05 43.2 42.41 43.59 41.62 43.99 41.16 44.32 40.75 44.93 40.78 45.65 39.99 46.06 38.84 47.32 38.66 47.71 38.64 48.16 38.42 48.85 38.39 49.53 37.92 50.37 37.77 50.81 37.75 51.31 37.75 52.08 37.62 52.45 37.55 52.76 37.17 53.52 47.76 59.89 48.6 60.37 49.19 60.71 49.88 61.11 50.65 61.55 51.47 62.02 52.32 62.51 53.17 63.01 53.99 63.48 54.75 63.92 55.44 64.32 56.02 64.65 56.47 64.9 56.59 65.83 55.92 66.21 35.94 77.83 35.28 78.22 53.5 88.74 53.26 89.52 52.51 90.76 51.38 91.68 51.12 91.99 50.99 92.41 50.77 93.1 50.52 93.92 50.32 94.57 50.6 95.53 50.84 95.92 51.23 96.25 51.76 96.47 53 96.81 53.56 97.03 55.45 98 57.35 98.97 60.49 100.56 61.14 100.89 62.36 101.52 59.14 103.39 57.6 104.29 55.75 105.37 53.7 106.56 51.49 107.84 49.22 109.16 46.95 110.48 44.76 111.75 42.7 112.95 40.86 114.02 38.1 115.63 37.32 116.08 36.28 116.68 36.78 117.17 37.33 117.64 37.87 118.27 38.54 118.89"/></g></g></g></svg>