<svg xmlns="http://www.w3.org/2000/svg" viewBox="0 0 101.19 114.31"><defs><style>.cls-1{isolation:isolate;}.cls-2{fill:#491212;}.cls-3{fill:#481212;}.cls-4{fill:#6d1b1b;}.cls-5{fill:#822020;}.cls-6{fill:#a22828;}.cls-7{fill:#8c2222;}.cls-8{fill:#511414;}.cls-9{fill:#9d2626;}.cls-10{fill:#a62929;}.cls-11{fill:#c83131;}.cls-12{fill:#942424;}.cls-13{fill:#711c1c;}.cls-14{fill:#7b1e1e;}.cls-15{fill:#9b2626;}.cls-16{fill:#6e1b1b;}.cls-17{fill:#a52828;}.cls-18{fill:#a92929;}.cls-19{fill:#4f1313;}.cls-20{fill:#771d1d;}.cls-21{fill:#731c1c;}.cls-22{fill:#a02727;}.cls-23{fill:#a82929;}.cls-24{fill:#842020;}.cls-25{fill:#701b1b;}.cls-26{fill:#7e1f1f;}.cls-27{fill:#521414;}.cls-28{fill:#691a1a;}.cls-29{fill:#791e1e;}.cls-30{fill:#5c1717;}.cls-31{fill:#5d1717;}.cls-32{fill:#a42828;}.cls-33{fill:#912424;}.cls-34{fill:#882121;}.cls-35{fill:#912323;}.cls-36{fill:#862121;}.cls-37{fill:#571515;}.cls-38{fill:#872121;}.cls-39{fill:#812020;}.cls-40{fill:#651919;}.cls-41{fill:#9e2727;}.cls-42{fill:#661919;}.cls-43{fill:#601717;}.cls-44{fill:#7a1e1e;}.cls-45{fill:#8f2323;}.cls-46{fill:#4d1313;}.cls-47{fill:#751d1d;}.cls-48{fill:#6b1a1a;}.cls-49{fill:#4b1212;}.cls-50{fill:#892222;}.cls-51{fill:#671919;}.cls-52{fill:#9c2626;}.cls-53{fill:#a32828;}.cls-54{fill:#611818;}.cls-55{fill:#8d2323;}.cls-56{fill:#561515;}.cls-57{fill:#591616;}.cls-58{fill:#832020;}.cls-59{fill:#a72929;}.cls-60{fill:#8a2222;}.cls-61{fill:#852121;}.cls-62{fill:#4c1313;}.cls-63{fill:#5c1616;}.cls-64{fill:#5f1717;}.cls-65{fill:#4a1212;}.cls-66{fill:#992525;}.cls-67{fill:#4e1313;}.cls-68{fill:#581616;}.cls-69{fill:#5e1717;}.cls-70{fill:#781d1d;}.cls-71{fill:#551515;}.cls-72{fill:#501313;}.cls-73{fill:#9d2727;}.cls-74{fill:#932424;}.cls-75{fill:#6c1a1a;}.cls-76{fill:#952525;}.cls-77{fill:#6a1a1a;}.cls-78{fill:#501414;}.cls-79{fill:#972525;}.cls-80{fill:#581515;}.cls-81{fill:#7d1f1f;}.cls-82{fill:#801f1f;}.cls-83{fill:#9f2727;}.cls-84{fill:#541515;}.cls-85{fill:#6f1b1b;}.cls-86{fill:#5b1616;}</style></defs><title>Mozambique</title><g id="Layer_2" data-name="Layer 2"><g id="Layer_1-2" data-name="Layer 1"><g class="cls-1"><polygon class="cls-2" points="25.98 13.47 25.94 29.77 25.58 29.39 25.62 13.09 25.98 13.47"/><polygon class="cls-3" points="26.55 14.24 26.5 30.55 25.94 29.77 25.98 13.47 26.55 14.24"/><polygon class="cls-3" points="65.68 15.04 65.64 31.35 65.3 30.66 65.35 14.36 65.68 15.04"/><polygon class="cls-4" points="68.94 16.11 68.89 32.42 68.83 32.87 68.87 16.56 68.94 16.11"/><polygon class="cls-3" points="20.33 18.38 20.28 34.69 20.23 34.31 20.27 18.01 20.33 18.38"/><polygon class="cls-3" points="12.62 21.68 12.57 37.98 12.55 37.59 12.59 21.29 12.62 21.68"/><polygon class="cls-5" points="71.97 22.23 71.92 38.53 71.81 38.79 71.85 22.49 71.97 22.23"/><polygon class="cls-6" points="72.94 24.11 72.9 40.41 72.37 40.86 72.41 24.56 72.94 24.11"/><polygon class="cls-7" points="72.41 24.56 72.37 40.86 72.09 41.32 72.14 25.01 72.41 24.56"/><polygon class="cls-3" points="72.47 25.15 72.42 41.45 72.38 41.34 72.42 25.03 72.47 25.15"/><polygon class="cls-8" points="72.72 25.31 72.67 41.62 72.42 41.45 72.47 25.15 72.72 25.31"/><polygon class="cls-9" points="73.65 25.2 73.61 41.5 73.48 41.62 73.53 25.32 73.65 25.2"/><polygon class="cls-10" points="73.53 25.32 73.48 41.62 73.29 41.68 73.34 25.38 73.53 25.32"/><polygon class="cls-11" points="72.42 25.03 72.52 24.87 72.76 24.64 73.02 24.52 73.19 24.6 73.3 24.7 73.31 24.91 73.45 25.05 73.59 25.12 73.65 25.2 73.53 25.32 73.34 25.38 73.05 25.39 72.72 25.31 72.47 25.15 72.42 25.03"/><polygon class="cls-12" points="73.34 25.38 73.29 41.68 73 41.7 73.05 25.39 73.34 25.38"/><polygon class="cls-13" points="73.05 25.39 73 41.7 72.67 41.62 72.72 25.31 73.05 25.39"/><polygon class="cls-14" points="73.36 25.74 73.31 42.05 72.94 43.15 72.99 26.85 73.36 25.74"/><polygon class="cls-3" points="7.09 27.68 7.04 43.99 6.65 43.45 6.7 27.14 7.09 27.68"/><polygon class="cls-15" points="9.63 27.69 9.58 43.99 9.4 44.01 9.45 27.71 9.63 27.69"/><polygon class="cls-16" points="9.82 27.74 9.77 44.04 9.58 43.99 9.63 27.69 9.82 27.74"/><polygon class="cls-17" points="9.45 27.71 9.4 44.01 9.2 44.07 9.25 27.77 9.45 27.71"/><polygon class="cls-18" points="9.25 27.77 9.2 44.07 9.04 44.15 9.09 27.84 9.25 27.77"/><polygon class="cls-19" points="9.96 27.85 9.92 44.15 9.77 44.04 9.82 27.74 9.96 27.85"/><polygon class="cls-20" points="9.09 27.84 9.04 44.15 9.02 44.23 9.07 27.93 9.09 27.84"/><polygon class="cls-3" points="10.07 27.99 10.02 44.29 9.92 44.15 9.96 27.85 10.07 27.99"/><polygon class="cls-9" points="8.57 28.05 8.52 44.35 8.21 44.4 8.26 28.1 8.57 28.05"/><polygon class="cls-21" points="8.86 28.11 8.82 44.42 8.52 44.35 8.57 28.05 8.86 28.11"/><polygon class="cls-3" points="10.08 28.12 10.03 44.42 10.02 44.29 10.07 27.99 10.08 28.12"/><polygon class="cls-22" points="8.26 28.1 8.21 44.4 8.03 44.57 8.07 28.26 8.26 28.1"/><polygon class="cls-23" points="8.07 28.26 8.03 44.57 8.02 44.57 8.07 28.27 8.07 28.26"/><polygon class="cls-2" points="9.04 28.29 8.99 44.59 8.82 44.42 8.86 28.11 9.04 28.29"/><polygon class="cls-24" points="72.99 26.85 72.94 43.15 72.15 44.86 72.19 28.55 72.99 26.85"/><polygon class="cls-25" points="8.07 28.27 8.02 44.57 8 44.71 8.04 28.41 8.07 28.27"/><polygon class="cls-3" points="7.35 28.42 7.3 44.72 7.04 43.99 7.09 27.68 7.35 28.42"/><polygon class="cls-3" points="9.04 28.44 8.99 44.75 8.99 44.59 9.04 28.29 9.04 28.44"/><polygon class="cls-26" points="72.19 28.55 72.15 44.86 71.79 45.81 71.84 29.51 72.19 28.55"/><polygon class="cls-3" points="7.72 29.45 7.67 45.76 7.3 44.72 7.35 28.42 7.72 29.45"/><polygon class="cls-3" points="7.92 29.74 7.87 46.04 7.67 45.76 7.72 29.45 7.92 29.74"/><polygon class="cls-27" points="8.24 29.94 8.19 46.25 7.87 46.04 7.92 29.74 8.24 29.94"/><polygon class="cls-28" points="8.98 30.18 8.94 46.49 8.19 46.25 8.24 29.94 8.98 30.18"/><polygon class="cls-28" points="10.76 30.76 10.71 47.06 8.94 46.49 8.98 30.18 10.76 30.76"/><polygon class="cls-28" points="12.43 31.3 12.38 47.6 10.71 47.06 10.76 30.76 12.43 31.3"/><polygon class="cls-29" points="71.9 29.88 71.86 46.18 71.36 47.8 71.41 31.5 71.9 29.88"/><polygon class="cls-30" points="13.27 31.69 13.22 47.99 12.38 47.6 12.43 31.3 13.27 31.69"/><polygon class="cls-31" points="14.33 32.17 14.29 48.47 13.22 47.99 13.27 31.69 14.33 32.17"/><polygon class="cls-32" points="71.41 31.5 71.36 47.8 70.25 48.65 70.3 32.35 71.41 31.5"/><polygon class="cls-30" points="15.23 32.59 15.19 48.89 14.29 48.47 14.33 32.17 15.23 32.59"/><polygon class="cls-31" points="15.99 32.93 15.94 49.24 15.19 48.89 15.23 32.59 15.99 32.93"/><polygon class="cls-33" points="23.24 33.02 23.19 49.32 22.08 49.35 22.13 33.05 23.24 33.02"/><polygon class="cls-34" points="24.5 33.08 24.46 49.38 23.19 49.32 23.24 33.02 24.5 33.08"/><polygon class="cls-35" points="22.13 33.05 22.08 49.35 20.78 49.38 20.82 33.08 22.13 33.05"/><polygon class="cls-12" points="70.3 32.35 70.25 48.65 69.59 49.53 69.64 33.23 70.3 32.35"/><polygon class="cls-34" points="26.07 33.16 26.02 49.46 24.46 49.38 24.5 33.08 26.07 33.16"/><polygon class="cls-34" points="27.39 33.23 27.35 49.53 26.02 49.46 26.07 33.16 27.39 33.23"/><polygon class="cls-34" points="28.64 33.29 28.59 49.6 27.35 49.53 27.39 33.23 28.64 33.29"/><polygon class="cls-8" points="16.52 33.29 16.48 49.6 15.94 49.24 15.99 32.93 16.52 33.29"/><polygon class="cls-29" points="29.94 33.53 29.89 49.83 28.59 49.6 28.64 33.29 29.94 33.53"/><polygon class="cls-36" points="31.25 33.62 31.2 49.92 29.89 49.83 29.94 33.53 31.25 33.62"/><polygon class="cls-37" points="17.1 33.6 17.05 49.91 16.48 49.6 16.52 33.29 17.1 33.6"/><polygon class="cls-36" points="32.82 33.73 32.78 50.03 31.2 49.92 31.25 33.62 32.82 33.73"/><polygon class="cls-38" points="33.37 33.76 33.32 50.06 32.78 50.03 32.82 33.73 33.37 33.76"/><polygon class="cls-36" points="33.91 33.8 33.87 50.1 33.32 50.06 33.37 33.76 33.91 33.8"/><polygon class="cls-38" points="34.9 33.86 34.85 50.16 33.87 50.1 33.91 33.8 34.9 33.86"/><polygon class="cls-39" points="19.09 33.82 19.05 50.12 17.05 49.91 17.1 33.6 19.09 33.82"/><polygon class="cls-18" points="20.82 33.08 20.78 49.38 19.05 50.12 19.09 33.82 20.82 33.08"/><polygon class="cls-40" points="36.73 34.53 36.69 50.83 34.85 50.16 34.9 33.86 36.73 34.53"/><polygon class="cls-12" points="69.64 33.23 69.59 49.53 68.24 51.29 68.29 34.99 69.64 33.23"/><polygon class="cls-3" points="37.08 35.01 37.03 51.31 36.69 50.83 36.73 34.53 37.08 35.01"/><polygon class="cls-41" points="68.29 34.99 68.24 51.29 67.35 51.43 67.39 35.13 68.29 34.99"/><polygon class="cls-3" points="37.33 35.37 37.28 51.67 37.03 51.31 37.08 35.01 37.33 35.37"/><polygon class="cls-2" points="38.19 36.26 38.14 52.56 37.28 51.67 37.33 35.37 38.19 36.26"/><polygon class="cls-42" points="38.99 36.53 38.94 52.84 38.14 52.56 38.19 36.26 38.99 36.53"/><polygon class="cls-22" points="67.67 36.02 67.63 52.33 66.94 52.94 66.99 36.64 67.67 36.02"/><polygon class="cls-36" points="66.99 36.64 66.94 52.94 66.78 53.27 66.83 36.96 66.99 36.64"/><polygon class="cls-43" points="40.21 37.05 40.16 53.35 38.94 52.84 38.99 36.53 40.21 37.05"/><polygon class="cls-27" points="40.72 37.38 40.68 53.69 40.16 53.35 40.21 37.05 40.72 37.38"/><polygon class="cls-44" points="66.83 36.96 66.78 53.27 66.51 54.1 66.56 37.8 66.83 36.96"/><polygon class="cls-8" points="41.52 37.92 41.48 54.22 40.68 53.69 40.72 37.38 41.52 37.92"/><polygon class="cls-45" points="66.56 37.8 66.51 54.1 66.26 54.48 66.3 38.18 66.56 37.8"/><polygon class="cls-8" points="42.09 38.29 42.04 54.59 41.48 54.22 41.52 37.92 42.09 38.29"/><polygon class="cls-29" points="66.3 38.18 66.26 54.48 66.18 54.75 66.22 38.44 66.3 38.18"/><polygon class="cls-34" points="66.22 38.44 66.18 54.75 65.59 55.85 65.64 39.55 66.22 38.44"/><polygon class="cls-46" points="43.89 39.69 43.85 55.99 42.04 54.59 42.09 38.29 43.89 39.69"/><polygon class="cls-47" points="65.64 39.55 65.59 55.85 65.13 57.66 65.18 41.35 65.64 39.55"/><polygon class="cls-48" points="65.18 41.35 65.13 57.66 65.08 58.16 65.12 41.86 65.18 41.35"/><polygon class="cls-3" points="41.97 42.5 41.93 58.8 41.79 57.84 41.84 41.53 41.97 42.5"/><polygon class="cls-49" points="43.15 43.52 43.1 59.82 41.93 58.8 41.97 42.5 43.15 43.52"/><polygon class="cls-50" points="45.06 44.13 45.02 60.44 42.93 60.35 42.98 44.05 45.06 44.13"/><polygon class="cls-16" points="66 44.82 65.96 61.12 65.92 61.41 65.96 45.11 66 44.82"/><polygon class="cls-37" points="48.12 45.8 48.07 62.1 45.02 60.44 45.06 44.13 48.12 45.8"/><polygon class="cls-51" points="66.07 45.89 66.02 62.2 66 62.54 66.05 46.24 66.07 45.89"/><polygon class="cls-23" points="66.41 47.73 66.36 64.03 65.21 64.74 65.26 48.44 66.41 47.73"/><polygon class="cls-9" points="66.1 48.77 66.05 65.07 65.42 65.71 65.46 49.41 66.1 48.77"/><polygon class="cls-4" points="65.46 49.41 65.42 65.71 65.32 66.39 65.36 50.09 65.46 49.41"/><polygon class="cls-39" points="65.36 50.09 65.32 66.39 64.52 68.29 64.57 51.99 65.36 50.09"/><polygon class="cls-18" points="29.81 53.08 29.77 69.38 28.61 69.94 28.65 53.64 29.81 53.08"/><polygon class="cls-3" points="30.49 53.94 30.45 70.24 29.77 69.38 29.81 53.08 30.49 53.94"/><polygon class="cls-52" points="28.65 53.64 28.61 69.94 25.97 70.33 26.02 54.02 28.65 53.64"/><polygon class="cls-53" points="26.02 54.02 25.97 70.33 24.5 70.69 24.55 54.39 26.02 54.02"/><polygon class="cls-3" points="30.54 54.5 30.5 70.81 30.45 70.24 30.49 53.94 30.54 54.5"/><polygon class="cls-53" points="24.55 54.39 24.5 70.69 23.54 70.93 23.59 54.63 24.55 54.39"/><polygon class="cls-14" points="31.59 54.67 31.54 70.98 30.5 70.81 30.54 54.5 31.59 54.67"/><polygon class="cls-14" points="32.35 54.8 32.3 71.1 31.54 70.98 31.59 54.67 32.35 54.8"/><polygon class="cls-18" points="23.59 54.63 23.54 70.93 22.94 71.19 22.99 54.88 23.59 54.63"/><polygon class="cls-21" points="32.92 54.93 32.87 71.23 32.3 71.1 32.35 54.8 32.92 54.93"/><polygon class="cls-23" points="22.99 54.88 22.94 71.19 21.67 71.97 21.71 55.66 22.99 54.88"/><polygon class="cls-54" points="34.86 55.72 34.81 72.02 32.87 71.23 32.92 54.93 34.86 55.72"/><polygon class="cls-55" points="19.55 55.92 19.5 72.22 18.42 72.21 18.47 55.91 19.55 55.92"/><polygon class="cls-25" points="65.11 55.23 65.06 71.53 64.91 72.35 64.96 56.05 65.11 55.23"/><polygon class="cls-18" points="21.71 55.66 21.67 71.97 20.86 72.3 20.91 56 21.71 55.66"/><polygon class="cls-38" points="20.91 56 20.86 72.3 19.5 72.22 19.55 55.92 20.91 56"/><polygon class="cls-23" points="18.47 55.91 18.42 72.21 16.68 72.88 16.72 56.57 18.47 55.91"/><polygon class="cls-56" points="37.01 56.94 36.97 73.24 34.81 72.02 34.86 55.72 37.01 56.94"/><polygon class="cls-41" points="16.72 56.57 16.68 72.88 12.95 73.48 12.99 57.18 16.72 56.57"/><polygon class="cls-57" points="0.68 57.22 0.63 73.52 0 73.2 0.05 56.89 0.68 57.22"/><polygon class="cls-18" points="12.99 57.18 12.95 73.48 12.62 73.64 12.67 57.34 12.99 57.18"/><polygon class="cls-29" points="64.99 56.8 64.94 73.1 64.71 73.84 64.76 57.54 64.99 56.8"/><polygon class="cls-28" points="1.78 57.57 1.74 73.88 0.63 73.52 0.68 57.22 1.78 57.57"/><polygon class="cls-58" points="3.47 57.73 3.42 74.03 1.74 73.88 1.78 57.57 3.47 57.73"/><polygon class="cls-59" points="12.67 57.34 12.62 73.64 11.29 74.5 11.34 58.19 12.67 57.34"/><polygon class="cls-14" points="64.76 57.54 64.71 73.84 64.43 74.7 64.48 58.39 64.76 57.54"/><polygon class="cls-60" points="64.48 58.39 64.43 74.7 62.8 74.64 62.85 58.33 64.48 58.39"/><polygon class="cls-61" points="62.41 58.45 62.36 74.75 61.58 74.69 61.63 58.39 62.41 58.45"/><polygon class="cls-32" points="62.85 58.33 62.8 74.64 62.36 74.75 62.41 58.45 62.85 58.33"/><polygon class="cls-23" points="11.34 58.19 11.29 74.5 10.94 74.63 10.98 58.33 11.34 58.19"/><polygon class="cls-62" points="38.91 58.52 38.87 74.83 36.97 73.24 37.01 56.94 38.91 58.52"/><polygon class="cls-63" points="5.44 58.66 5.39 74.97 3.42 74.03 3.47 57.73 5.44 58.66"/><polygon class="cls-23" points="10.98 58.33 10.94 74.63 10.22 75.05 10.27 58.75 10.98 58.33"/><polygon class="cls-56" points="6 58.98 5.96 75.28 5.39 74.97 5.44 58.66 6 58.98"/><polygon class="cls-64" points="40.74 59.32 40.7 75.63 38.87 74.83 38.91 58.52 40.74 59.32"/><polygon class="cls-56" points="6.67 59.35 6.63 75.66 5.96 75.28 6 58.98 6.67 59.35"/><polygon class="cls-23" points="10.27 58.75 10.22 75.05 9.15 75.68 9.2 59.38 10.27 58.75"/><polygon class="cls-23" points="9.2 59.38 9.15 75.68 8.68 75.96 8.73 59.66 9.2 59.38"/><polygon class="cls-56" points="7.51 59.82 7.46 76.12 6.63 75.66 6.67 59.35 7.51 59.82"/><polygon class="cls-56" points="7.99 60.09 7.95 76.4 7.46 76.12 7.51 59.82 7.99 60.09"/><polygon class="cls-23" points="8.73 59.66 8.68 75.96 7.95 76.4 7.99 60.09 8.73 59.66"/><polygon class="cls-65" points="42.48 60.99 42.44 77.29 40.7 75.63 40.74 59.32 42.48 60.99"/><polygon class="cls-3" points="43.12 62.09 43.07 78.4 42.44 77.29 42.48 60.99 43.12 62.09"/><polygon class="cls-3" points="80.3 63.01 80.26 79.31 80.19 79.19 80.24 62.89 80.3 63.01"/><polygon class="cls-66" points="45.9 63.13 45.85 79.43 44.3 79.59 44.34 63.29 45.9 63.13"/><polygon class="cls-54" points="44.34 63.29 44.3 79.59 42.78 78.98 42.83 62.68 44.34 63.29"/><polygon class="cls-3" points="76.06 63.6 76.02 79.91 75.36 79.12 75.4 62.81 76.06 63.6"/><polygon class="cls-65" points="80.97 63.65 80.92 79.95 80.26 79.31 80.3 63.01 80.97 63.65"/><polygon class="cls-67" points="81.44 64 81.4 80.3 80.92 79.95 80.97 63.65 81.44 64"/><polygon class="cls-68" points="81.59 64.08 81.54 80.38 81.4 80.3 81.44 64 81.59 64.08"/><polygon class="cls-20" points="81.74 64.11 81.7 80.41 81.54 80.38 81.59 64.08 81.74 64.11"/><polygon class="cls-10" points="81.86 64.02 81.82 80.33 81.7 80.41 81.74 64.11 81.86 64.02"/><polygon class="cls-11" points="80.97 63.65 80.3 63.01 80.24 62.89 80.3 62.86 80.45 62.9 80.63 62.99 81.1 63.31 81.86 64.02 81.74 64.11 81.59 64.08 81.44 64 80.97 63.65"/><polygon class="cls-2" points="46.97 64.17 46.92 80.48 45.85 79.43 45.9 63.13 46.97 64.17"/><polygon class="cls-69" points="48.51 64.87 48.47 81.17 46.92 80.48 46.97 64.17 48.51 64.87"/><polygon class="cls-70" points="52.22 65.56 52.17 81.86 48.47 81.17 48.51 64.87 52.22 65.56"/><polygon class="cls-2" points="52.5 65.87 52.46 82.17 52.17 81.86 52.22 65.56 52.5 65.87"/><polygon class="cls-46" points="86.06 65.97 86.01 82.27 85.46 81.83 85.5 65.53 86.06 65.97"/><polygon class="cls-3" points="84.94 66.29 84.89 82.59 84.49 82.11 84.53 65.81 84.94 66.29"/><polygon class="cls-68" points="53.28 66.28 53.23 82.58 52.46 82.17 52.5 65.87 53.28 66.28"/><polygon class="cls-71" points="85.29 66.49 85.24 82.8 84.89 82.59 84.94 66.29 85.29 66.49"/><polygon class="cls-51" points="85.73 66.64 85.68 82.95 85.24 82.8 85.29 66.49 85.73 66.64"/><polygon class="cls-72" points="86.14 66.93 86.1 83.24 85.68 82.95 85.73 66.64 86.14 66.93"/><polygon class="cls-49" points="54 67.94 53.95 84.24 52.92 83.34 52.97 67.03 54 67.94"/><polygon class="cls-3" points="54.07 68.32 54.02 84.62 53.95 84.24 54 67.94 54.07 68.32"/><polygon class="cls-3" points="54.17 68.88 54.13 85.18 54.02 84.62 54.07 68.32 54.17 68.88"/><polygon class="cls-3" points="54.38 69.23 54.34 85.53 54.13 85.18 54.17 68.88 54.38 69.23"/><polygon class="cls-3" points="53.83 70.62 53.78 86.93 53.72 86.65 53.76 70.34 53.83 70.62"/><polygon class="cls-46" points="54.34 71.02 54.29 87.32 53.78 86.93 53.83 70.62 54.34 71.02"/><polygon class="cls-69" points="55.2 71.4 55.15 87.7 54.29 87.32 54.34 71.02 55.2 71.4"/><polygon class="cls-68" points="56.25 71.95 56.2 88.25 55.15 87.7 55.2 71.4 56.25 71.95"/><polygon class="cls-3" points="56.41 72.22 56.36 88.52 56.2 88.25 56.25 71.95 56.41 72.22"/><polygon class="cls-3" points="56.51 72.66 56.46 88.97 56.36 88.52 56.41 72.22 56.51 72.66"/><polygon class="cls-3" points="96.72 73.12 96.68 89.43 96.49 88.6 96.53 72.3 96.72 73.12"/><polygon class="cls-2" points="57.25 73.44 57.2 89.74 56.46 88.97 56.51 72.66 57.25 73.44"/><polygon class="cls-14" points="58.64 73.67 58.59 89.97 57.2 89.74 57.25 73.44 58.64 73.67"/><polygon class="cls-3" points="58.25 74.01 58.2 90.31 58.17 90.02 58.22 73.72 58.25 74.01"/><polygon class="cls-3" points="58.28 74.4 58.24 90.71 58.2 90.31 58.25 74.01 58.28 74.4"/><polygon class="cls-3" points="58.33 74.82 58.28 91.13 58.24 90.71 58.28 74.4 58.33 74.82"/><polygon class="cls-3" points="58.37 75.25 58.32 91.55 58.28 91.13 58.33 74.82 58.37 75.25"/><polygon class="cls-3" points="58.4 75.67 58.35 91.98 58.32 91.55 58.37 75.25 58.4 75.67"/><polygon class="cls-3" points="58.45 76.1 58.4 92.4 58.35 91.98 58.4 75.67 58.45 76.1"/><polygon class="cls-3" points="58.48 76.52 58.44 92.83 58.4 92.4 58.45 76.1 58.48 76.52"/><polygon class="cls-3" points="58.52 76.95 58.48 93.25 58.44 92.83 58.48 76.52 58.52 76.95"/><polygon class="cls-3" points="58.57 77.37 58.52 93.68 58.48 93.25 58.52 76.95 58.57 77.37"/><polygon class="cls-3" points="58.61 77.8 58.56 94.1 58.52 93.68 58.57 77.37 58.61 77.8"/><polygon class="cls-3" points="58.64 78.22 58.6 94.53 58.56 94.1 58.61 77.8 58.64 78.22"/><polygon class="cls-3" points="58.69 78.65 58.65 94.95 58.6 94.53 58.64 78.22 58.69 78.65"/><polygon class="cls-38" points="99.84 77.08 99.79 93.38 98.89 95.11 98.94 78.81 99.84 77.08"/><polygon class="cls-3" points="58.73 79.08 58.69 95.38 58.65 94.95 58.69 78.65 58.73 79.08"/><polygon class="cls-3" points="58.78 79.5 58.73 95.8 58.69 95.38 58.73 79.08 58.78 79.5"/><polygon class="cls-7" points="98.94 78.81 98.89 95.11 98.33 96.04 98.38 79.74 98.94 78.81"/><polygon class="cls-3" points="58.82 79.93 58.77 96.23 58.73 95.8 58.78 79.5 58.82 79.93"/><polygon class="cls-3" points="58.85 80.35 58.81 96.66 58.77 96.23 58.82 79.93 58.85 80.35"/><polygon class="cls-73" points="98.38 79.74 98.33 96.04 97.52 96.84 97.57 80.54 98.38 79.74"/><polygon class="cls-3" points="58.89 80.78 58.85 97.08 58.81 96.66 58.85 80.35 58.89 80.78"/><polygon class="cls-35" points="97.57 80.54 97.52 96.84 97.02 97.57 97.06 81.27 97.57 80.54"/><polygon class="cls-3" points="58.94 81.2 58.9 97.51 58.85 97.08 58.89 80.78 58.94 81.2"/><polygon class="cls-3" points="58.98 81.62 58.94 97.93 58.9 97.51 58.94 81.2 58.98 81.62"/><polygon class="cls-74" points="97.06 81.27 97.02 97.57 96.47 98.31 96.52 82.01 97.06 81.27"/><polygon class="cls-53" points="96.52 82.01 96.47 98.31 96.16 98.56 96.21 82.25 96.52 82.01"/><polygon class="cls-75" points="59.97 83.05 59.92 99.35 58.72 98.99 58.77 82.69 59.97 83.05"/><polygon class="cls-76" points="96.21 82.25 96.16 98.56 95.23 99.73 95.28 83.43 96.21 82.25"/><polygon class="cls-75" points="61.38 83.46 61.33 99.77 59.92 99.35 59.97 83.05 61.38 83.46"/><polygon class="cls-75" points="62.79 83.88 62.74 100.18 61.33 99.77 61.38 83.46 62.79 83.88"/><polygon class="cls-48" points="63.91 84.22 63.87 100.52 62.74 100.18 62.79 83.88 63.91 84.22"/><polygon class="cls-76" points="95.28 83.43 95.23 99.73 94.39 100.81 94.43 84.51 95.28 83.43"/><polygon class="cls-77" points="66.05 84.88 66 101.18 63.87 100.52 63.91 84.22 66.05 84.88"/><polygon class="cls-38" points="94.43 84.51 94.39 100.81 93.94 101.66 93.99 85.35 94.43 84.51"/><polygon class="cls-78" points="67.56 85.91 67.51 102.21 66 101.18 66.05 84.88 67.56 85.91"/><polygon class="cls-79" points="93.99 85.35 93.94 101.66 93.43 102.28 93.47 85.98 93.99 85.35"/><polygon class="cls-77" points="68.28 86.13 68.23 102.44 67.51 102.21 67.56 85.91 68.28 86.13"/><polygon class="cls-38" points="70 86.23 69.95 102.54 68.23 102.44 68.28 86.13 70 86.23"/><polygon class="cls-28" points="71.16 86.61 71.11 102.91 69.95 102.54 70 86.23 71.16 86.61"/><polygon class="cls-36" points="93.47 85.98 93.43 102.28 92.99 103.16 93.04 86.85 93.47 85.98"/><polygon class="cls-44" points="72.54 86.85 72.49 103.15 71.11 102.91 71.16 86.61 72.54 86.85"/><polygon class="cls-6" points="93.04 86.85 92.99 103.16 92.62 103.24 92.66 86.94 93.04 86.85"/><polygon class="cls-50" points="73.73 86.91 73.69 103.21 72.49 103.15 72.54 86.85 73.73 86.91"/><polygon class="cls-80" points="74.92 87.54 74.88 103.85 73.69 103.21 73.73 86.91 74.92 87.54"/><polygon class="cls-64" points="75.28 87.69 75.23 104 74.88 103.85 74.92 87.54 75.28 87.69"/><polygon class="cls-16" points="92.66 86.94 92.62 103.24 92.48 104.13 92.53 87.82 92.66 86.94"/><polygon class="cls-47" points="76.47 87.95 76.43 104.26 75.23 104 75.28 87.69 76.47 87.95"/><polygon class="cls-47" points="77.21 88.11 77.17 104.41 76.43 104.26 76.47 87.95 77.21 88.11"/><polygon class="cls-77" points="77.93 88.33 77.89 104.64 77.17 104.41 77.21 88.11 77.93 88.33"/><polygon class="cls-57" points="78.53 88.64 78.48 104.94 77.89 104.64 77.93 88.33 78.53 88.64"/><polygon class="cls-19" points="78.98 88.96 78.93 105.26 78.48 104.94 78.53 88.64 78.98 88.96"/><polygon class="cls-56" points="80 89.54 79.95 105.84 78.93 105.26 78.98 88.96 80 89.54"/><polygon class="cls-29" points="92.53 87.82 92.48 104.13 91.93 105.95 91.98 89.65 92.53 87.82"/><polygon class="cls-71" points="81.23 90.25 81.19 106.55 79.95 105.84 80 89.54 81.23 90.25"/><polygon class="cls-56" points="82.11 90.74 82.06 107.05 81.19 106.55 81.23 90.25 82.11 90.74"/><polygon class="cls-71" points="83.28 91.41 83.24 107.72 82.06 107.05 82.11 90.74 83.28 91.41"/><polygon class="cls-38" points="95.95 91.51 95.91 107.81 95.85 107.81 95.9 91.5 95.95 91.51"/><polygon class="cls-81" points="96.24 91.53 96.19 107.83 96.14 107.82 96.19 91.52 96.24 91.53"/><polygon class="cls-66" points="96.25 91.51 96.21 107.81 96.19 107.83 96.24 91.53 96.25 91.51"/><polygon class="cls-69" points="96.01 91.53 95.97 107.83 95.91 107.81 95.95 91.51 96.01 91.53"/><polygon class="cls-82" points="96.08 91.54 96.03 107.84 95.97 107.83 96.01 91.53 96.08 91.54"/><polygon class="cls-22" points="96.19 91.52 96.14 107.82 96.03 107.84 96.08 91.54 96.19 91.52"/><polygon class="cls-83" points="95.9 91.5 95.85 107.81 95.79 107.86 95.83 91.56 95.9 91.5"/><polygon class="cls-3" points="95.69 91.62 95.65 107.92 95.6 107.72 95.65 91.42 95.69 91.62"/><polygon class="cls-75" points="95.98 91.7 95.94 108.01 95.65 107.92 95.69 91.62 95.98 91.7"/><polygon class="cls-11" points="95.65 91.42 95.73 91.19 95.84 91.03 95.91 91.09 96.09 91.24 96.22 91.4 96.25 91.44 96.25 91.51 96.24 91.53 96.19 91.52 96.08 91.54 96.01 91.53 95.95 91.51 95.9 91.5 95.83 91.56 95.86 91.58 95.98 91.7 95.69 91.62 95.65 91.42"/><polygon class="cls-71" points="84.88 92.33 84.83 108.63 83.24 107.72 83.28 91.41 84.88 92.33"/><polygon class="cls-84" points="86.18 93.09 86.14 109.4 84.83 108.63 84.88 92.33 86.18 93.09"/><polygon class="cls-65" points="86.94 93.78 86.89 110.08 86.14 109.4 86.18 93.09 86.94 93.78"/><polygon class="cls-65" points="87.81 94.63 87.77 110.93 86.89 110.08 86.94 93.78 87.81 94.63"/><polygon class="cls-14" points="89.55 94.91 89.5 111.21 87.77 110.93 87.81 94.63 89.55 94.91"/><polygon class="cls-85" points="91.37 95.39 91.32 111.69 89.5 111.21 89.55 94.91 91.37 95.39"/><polygon class="cls-36" points="101.19 94.82 101.14 111.12 100.69 112.04 100.73 95.73 101.19 94.82"/><polygon class="cls-2" points="91.92 96 91.87 112.3 91.32 111.69 91.37 95.39 91.92 96"/><polygon class="cls-23" points="100.73 95.73 100.69 112.04 99.79 112.59 99.84 96.29 100.73 95.73"/><polygon class="cls-69" points="93.02 96.48 92.97 112.79 91.87 112.3 91.92 96 93.02 96.48"/><polygon class="cls-70" points="93.97 96.66 93.92 112.97 92.97 112.79 93.02 96.48 93.97 96.66"/><polygon class="cls-23" points="99.84 96.29 99.79 112.59 98.96 113.11 99.01 96.8 99.84 96.29"/><polygon class="cls-30" points="94.64 96.98 94.59 113.28 93.92 112.97 93.97 96.66 94.64 96.98"/><polygon class="cls-23" points="99.01 96.8 98.96 113.11 98.21 113.57 98.25 97.26 99.01 96.8"/><polygon class="cls-18" points="98.25 97.26 98.21 113.57 97.77 113.74 97.82 97.44 98.25 97.26"/><polygon class="cls-18" points="97.82 97.44 97.77 113.74 97.21 113.98 97.25 97.68 97.82 97.44"/><polygon class="cls-59" points="97.25 97.68 97.21 113.98 96.72 114.31 96.76 98 97.25 97.68"/><polygon class="cls-86" points="96.76 98 96.72 114.31 94.59 113.28 94.64 96.98 96.76 98"/><path class="cls-11" d="M97.82,97.44l-.56.24-.5.33-2.12-1L94,96.66l-1-.18L91.92,96l-.55-.61-1.82-.48-1.74-.29-.87-.84-.76-.68-1.3-.77-1.6-.92-1.17-.67-.88-.49L80,89.54,79,89l-.45-.32-.6-.31-.72-.22L76.47,88l-1.19-.26-.36-.15-1.19-.63-1.19-.06-1.38-.24L70,86.24l-1.72-.11-.72-.22-1.51-1-2.13-.65-1.13-.34-1.41-.42L60,83.05l-1.21-.36.1-.64.12-.43,0-.42,0-.42,0-.43,0-.42,0-.43-.05-.42,0-.43,0-.42,0-.43,0-.43,0-.42,0-.43,0-.42-.05-.43,0-.42,0-.43,0-.42,0-.39,0-.29.42,0-1.39-.23-.74-.78-.1-.44L56.25,72l-1.06-.55L54.34,71l-.51-.39-.07-.28.61-.34v-.77l-.2-.35-.11-.56L54,67.94,53,67l.31-.75-.78-.41-.28-.31-3.71-.69L47,64.17l-1.07-1-1.56.16-1.51-.61.28-.59L42.48,61l-1.74-1.67-1.83-.8L37,56.94l-2.15-1.22-1.94-.79-.57-.13-.76-.13-1.05-.17-.05-.56-.68-.86-1.16.56L26,54l-1.47.36-1,.24-.6.25-1.28.78-.8.34-1.36-.08H18.47l-1.75.66L13,57.18l-.32.16-1.33.85-.36.14-.71.42-1.07.63-.47.28L8,60.09l-.48-.27-.84-.47L6,59l-.56-.32-2-.93-1.69-.16-1.1-.35-.63-.33.29-.58.24-.42.31-.54.44-.56.36-.44.58-.73.5-.47.72-.67.63-.57.64-.61.52-.5.36-.45.28-.55.22-.4.63-.73L7.35,48l.45-.51.26-.42.61-.56.4-.48.46-.55.66-.77.73-.87.74-.89.55-.65.37-.45.32-.37.57-.1.83.27.6.11L17,42l.84-.07,2.39-.63.48-.6,1.11-.59.5-.73.42-.52,1.59-.19,1,0,.88.48,1.66.62L30,40.94l.56.24L31.63,43l.56.91,2.41,1,.8.46,1.09.34,1.8-.1,2-.06,1.26.06,4.8.86.76-.06.69-.37.34-.24-3.06-1.67L43,44.05l.18-.53L42,42.5l-.13-1,1.6-1.17.45-.67-1.8-1.4-.57-.37-.8-.54-.51-.33L39,36.53l-.8-.27-.86-.89L37.08,35l-.34-.48-1.84-.67-1-.06-.55,0-.54,0-1.57-.11-1.31-.09-1.3-.24-1.25-.06-1.32-.07-1.57-.08L23.24,33l-1.11,0-1.31,0-1.73.74-2-.22-.58-.31L16,32.93l-.76-.34-.9-.42-1.06-.48-.84-.39-1.67-.54L9,30.18l-.74-.24-.32-.2-.2-.29-.37-1-.26-.74-.4-.54,1.31-2,2.79-1.59L12.6,22.5l0-.82,0-.39,6.26-1.62L20,19.33l.35-.95L20.27,18l1.25-.65,1.22-.13,1-.32,1.53-.66,1-1.6.27-.41L26,13.47l-.36-.38.1-.51L26.4,12l1.37-.63,1.16,0,1-.3.49-.89.65-1.17L32.3,7.79l.9-.48L34,5.54,34.6,5l.87-.79.3-.79.39-.56.24-1,.07-.86.07-.25.27-.34L36.88,0l2.17.76L40.21.53l.07.47,1.36,1.11.33.78,4,2,1.71.5.54.59L52,7.63l.84.36,1.38,1.63,1-.18,1.22.69.84.48L59.6,12l1.07.46,1.46.4,1.49.49,1.55,1.2.51.51-.33-.68.2-.41,1.77.63,1.18.51.09.41,0,.39.31.22-.07.45.93.22,1.28,1.37.53,1.76.3.75L72,22.23l-.12.26.21.07.81,1.3.07.25-.53.45-.27.45,1.22.73L73,26.85l-.8,1.7-.35,1,.06.37-.49,1.61-1.11.86-.66.88L68.29,35l-.9.14.28.9-.68.61-.16.32-.27.84-.26.38-.08.26-.58,1.11-.46,1.8-.06.51.33.75.37.72L66,44.82l0,.29.11.78,0,.35.36,1.49-1.15.71.84.33-.64.64-.09.68-.8,1.9.07.67.07.62.24.38.11.76,0,.81-.15.82,0,.75-.23.74-.28.85-1.63-.06-.44.12-.78-.06.75.24,3.75,1.76L67.8,61.9l3-.41,5.21,2.12-.66-.8.55.36.81.48.76.2,1.1.16,1,.16.31.16.59.38.37.14.64.14.62.29.42.16.65.31,1.64,1.18.3.17.93-.17-.41-.29-.44-.15-.35-.2-.41-.48,1.52.15-.55-.43.63.32.66.33.92.93.87.54,1.78.78.39.09.65.17.45.73,1.2.85.79.91.84.6.62.36,1.42,1-.19-.82h.68l1.06,1,1.27,2.12.06.91.24.78-.9,1.74-.56.93-.81.8-.51.73-.54.74-.31.24-.93,1.18-.85,1.08-.44.84-.52.63-.43.87-.38.09-.13.88L92,89.65l.17.72.16.27.35.34.48.33.11.86,2,.89L96.33,92l1.34.52,2,1.23.47.37.53.34.54.37-.46.91-.89.56L99,96.8l-.76.46Zm-88.1-69,.18,0,.12-.1.06-.13V28L10,27.85l-.14-.11-.2,0-.17,0-.2.05-.16.08,0,.09.17.24.11.12.15.08.22,0m-.79.1L9,28.44v-.15l-.18-.18-.29-.06-.31.05-.18.16h0l0,.14.14.05.37,0h.38"/></g></g></g></svg>