<svg xmlns="http://www.w3.org/2000/svg" viewBox="0 0 134.55 95.19"><defs><style>.cls-1{isolation:isolate;}.cls-2{fill:#8f2323;}.cls-3{fill:#a62929;}.cls-4{fill:#7f1f1f;}.cls-5{fill:#651919;}.cls-6{fill:#8c2222;}.cls-7{fill:#9d2626;}.cls-8{fill:#a92929;}.cls-9{fill:#932424;}.cls-10{fill:#751d1d;}.cls-11{fill:#892121;}.cls-12{fill:#8a2222;}.cls-13{fill:#992525;}.cls-14{fill:#701b1b;}.cls-15{fill:#a72929;}.cls-16{fill:#6d1b1b;}.cls-17{fill:#a22828;}.cls-18{fill:#a12828;}.cls-19{fill:#a12727;}.cls-20{fill:#a52929;}.cls-21{fill:#a82929;}.cls-22{fill:#4d1313;}.cls-23{fill:#521414;}.cls-24{fill:#621818;}.cls-25{fill:#641818;}.cls-26{fill:#5f1717;}.cls-27{fill:#6b1a1a;}.cls-28{fill:#611818;}.cls-29{fill:#6f1b1b;}.cls-30{fill:#5c1717;}.cls-31{fill:#6c1a1a;}.cls-32{fill:#9a2626;}.cls-33{fill:#962525;}.cls-34{fill:#6a1a1a;}.cls-35{fill:#832020;}.cls-36{fill:#661919;}.cls-37{fill:#842020;}.cls-38{fill:#711c1c;}.cls-39{fill:#791e1e;}.cls-40{fill:#812020;}.cls-41{fill:#7d1f1f;}.cls-42{fill:#761d1d;}.cls-43{fill:#7a1e1e;}.cls-44{fill:#7c1e1e;}.cls-45{fill:#5e1717;}.cls-46{fill:#781d1d;}.cls-47{fill:#691a1a;}.cls-48{fill:#872121;}.cls-49{fill:#852121;}.cls-50{fill:#641919;}.cls-51{fill:#731c1c;}.cls-52{fill:#8d2222;}.cls-53{fill:#902323;}.cls-54{fill:#801f1f;}.cls-55{fill:#892222;}.cls-56{fill:#771d1d;}.cls-57{fill:#571515;}.cls-58{fill:#481212;}.cls-59{fill:#4b1212;}.cls-60{fill:#671919;}.cls-61{fill:#a42828;}.cls-62{fill:#6c1b1b;}.cls-63{fill:#9e2727;}.cls-64{fill:#4e1313;}.cls-65{fill:#972525;}.cls-66{fill:#501414;}.cls-67{fill:#5d1717;}.cls-68{fill:#631818;}.cls-69{fill:#8d2323;}.cls-70{fill:#9f2727;}.cls-71{fill:#942424;}.cls-72{fill:#7b1e1e;}.cls-73{fill:#a32828;}.cls-74{fill:#681a1a;}.cls-75{fill:#7e1f1f;}.cls-76{fill:#5a1616;}.cls-77{fill:#601818;}.cls-78{fill:#862121;}.cls-79{fill:#8e2323;}.cls-80{fill:#601717;}.cls-81{fill:#882121;}.cls-82{fill:#822020;}.cls-83{fill:#952424;}.cls-84{fill:#c83131;}</style></defs><title>Namibia</title><g id="Layer_2" data-name="Layer 2"><g id="Layer_1-2" data-name="Layer 1"><g class="cls-1"><polygon class="cls-2" points="92.52 0 92.47 16.3 92.2 16.71 92.25 0.41 92.52 0"/><polygon class="cls-3" points="92.25 0.41 92.2 16.71 90.6 17.8 90.65 1.5 92.25 0.41"/><polygon class="cls-4" points="90.65 1.5 90.6 17.8 90.21 18.79 90.26 2.49 90.65 1.5"/><polygon class="cls-5" points="90.26 2.49 90.21 18.79 90.19 19.54 90.24 3.24 90.26 2.49"/><polygon class="cls-6" points="90.24 3.24 90.19 19.54 89.91 20 89.96 3.7 90.24 3.24"/><polygon class="cls-7" points="89.96 3.7 89.91 20 89.42 20.07 89.46 3.77 89.96 3.7"/><polygon class="cls-8" points="89.46 3.77 89.42 20.07 88.24 20.67 88.29 4.36 89.46 3.77"/><polygon class="cls-9" points="88.29 4.36 88.24 20.67 87.57 21.59 87.62 5.29 88.29 4.36"/><polygon class="cls-10" points="87.62 5.29 87.57 21.59 87.52 21.81 87.56 5.51 87.62 5.29"/><polygon class="cls-11" points="87.56 5.51 87.52 21.81 86.93 22.89 86.98 6.59 87.56 5.51"/><polygon class="cls-12" points="85 8.49 84.95 24.79 82.68 24.71 82.72 8.4 85 8.49"/><polygon class="cls-13" points="82.72 8.4 82.68 24.71 80.72 24.91 80.77 8.6 82.72 8.4"/><polygon class="cls-14" points="85.86 8.71 85.82 25.01 84.95 24.79 85 8.49 85.86 8.71"/><polygon class="cls-15" points="87.17 8.24 87.13 24.54 86.22 25.13 86.26 8.82 87.17 8.24"/><polygon class="cls-16" points="86.26 8.82 86.22 25.13 85.82 25.01 85.86 8.71 86.26 8.82"/><polygon class="cls-3" points="80.77 8.6 80.72 24.91 80.2 25.26 80.25 8.96 80.77 8.6"/><polygon class="cls-3" points="80.25 8.96 80.2 25.26 79.49 25.76 79.53 9.46 80.25 8.96"/><polygon class="cls-17" points="79.53 9.46 79.49 25.76 79.02 26.16 79.07 9.86 79.53 9.46"/><polygon class="cls-18" points="79.07 9.86 79.02 26.16 78.57 26.55 78.62 10.24 79.07 9.86"/><polygon class="cls-18" points="78.62 10.24 78.57 26.55 78.12 26.93 78.17 10.63 78.62 10.24"/><polygon class="cls-19" points="78.17 10.63 78.12 26.93 77.68 27.32 77.72 11.02 78.17 10.63"/><polygon class="cls-18" points="77.72 11.02 77.68 27.32 77.23 27.71 77.27 11.41 77.72 11.02"/><polygon class="cls-18" points="77.27 11.41 77.23 27.71 76.78 28.1 76.82 11.8 77.27 11.41"/><polygon class="cls-18" points="76.82 11.8 76.78 28.1 76.33 28.49 76.37 12.18 76.82 11.8"/><polygon class="cls-18" points="76.37 12.18 76.33 28.49 75.88 28.87 75.92 12.57 76.37 12.18"/><polygon class="cls-18" points="75.92 12.57 75.88 28.87 75.43 29.26 75.47 12.96 75.92 12.57"/><polygon class="cls-18" points="75.47 12.96 75.43 29.26 74.98 29.65 75.03 13.34 75.47 12.96"/><polygon class="cls-18" points="75.03 13.34 74.98 29.65 74.53 30.03 74.58 13.73 75.03 13.34"/><polygon class="cls-18" points="74.58 13.73 74.53 30.03 74.08 30.42 74.13 14.12 74.58 13.73"/><polygon class="cls-18" points="74.13 14.12 74.08 30.42 73.63 30.81 73.68 14.51 74.13 14.12"/><polygon class="cls-18" points="73.68 14.51 73.63 30.81 73.18 31.2 73.23 14.89 73.68 14.51"/><polygon class="cls-19" points="73.23 14.89 73.18 31.2 72.74 31.59 72.78 15.28 73.23 14.89"/><polygon class="cls-18" points="72.78 15.28 72.74 31.59 72.29 31.97 72.33 15.67 72.78 15.28"/><polygon class="cls-18" points="72.33 15.67 72.29 31.97 71.84 32.36 71.88 16.06 72.33 15.67"/><polygon class="cls-20" points="71.88 16.06 71.84 32.36 70.94 33.01 70.98 16.71 71.88 16.06"/><polygon class="cls-15" points="70.98 16.71 70.94 33.01 70.64 33.2 70.69 16.89 70.98 16.71"/><polygon class="cls-15" points="70.69 16.89 70.64 33.2 70.34 33.38 70.39 17.08 70.69 16.89"/><polygon class="cls-15" points="70.39 17.08 70.34 33.38 70.04 33.57 70.09 17.27 70.39 17.08"/><polygon class="cls-15" points="70.09 17.27 70.04 33.57 69.69 33.8 69.73 17.5 70.09 17.27"/><polygon class="cls-21" points="69.73 17.5 69.69 33.8 69.33 34.03 69.37 17.72 69.73 17.5"/><polygon class="cls-15" points="69.37 17.72 69.33 34.03 68.97 34.26 69.02 17.95 69.37 17.72"/><polygon class="cls-21" points="69.02 17.95 68.97 34.26 68.61 34.48 68.66 18.18 69.02 17.95"/><polygon class="cls-15" points="94.11 33.17 94.06 49.48 87.67 53.49 87.72 37.19 94.11 33.17"/><polygon class="cls-22" points="1.23 50.52 1.18 66.82 0 65.89 0.05 49.59 1.23 50.52"/><polygon class="cls-23" points="1.74 50.85 1.69 67.16 1.18 66.82 1.23 50.52 1.74 50.85"/><polygon class="cls-24" points="2.45 51.14 2.4 67.44 1.69 67.16 1.74 50.85 2.45 51.14"/><polygon class="cls-25" points="2.88 51.3 2.83 67.6 2.4 67.44 2.45 51.14 2.88 51.3"/><polygon class="cls-26" points="3.69 51.65 3.65 67.95 2.83 67.6 2.88 51.3 3.69 51.65"/><polygon class="cls-27" points="4.36 51.85 4.32 68.15 3.65 67.95 3.69 51.65 4.36 51.85"/><polygon class="cls-28" points="5.44 52.29 5.39 68.59 4.32 68.15 4.36 51.85 5.44 52.29"/><polygon class="cls-29" points="5.89 52.41 5.84 68.71 5.39 68.59 5.44 52.29 5.89 52.41"/><polygon class="cls-30" points="6.34 52.62 6.3 68.92 5.84 68.71 5.89 52.41 6.34 52.62"/><polygon class="cls-31" points="6.76 52.74 6.71 69.05 6.3 68.92 6.34 52.62 6.76 52.74"/><polygon class="cls-6" points="7.96 52.76 7.92 69.06 6.71 69.05 6.76 52.74 7.96 52.76"/><polygon class="cls-16" points="10.02 53.35 9.97 69.65 7.92 69.06 7.96 52.76 10.02 53.35"/><polygon class="cls-32" points="13.53 53.29 13.48 69.59 12.25 69.74 12.29 53.44 13.53 53.29"/><polygon class="cls-12" points="12.29 53.44 12.25 69.74 11.55 69.72 11.6 53.41 12.29 53.44"/><polygon class="cls-33" points="11.6 53.41 11.55 69.72 10.45 69.8 10.49 53.49 11.6 53.41"/><polygon class="cls-34" points="10.49 53.49 10.45 69.8 9.97 69.65 10.02 53.35 10.49 53.49"/><polygon class="cls-35" points="16.25 53.55 16.21 69.85 13.48 69.59 13.53 53.29 16.25 53.55"/><polygon class="cls-36" points="17 53.81 16.95 70.11 16.21 69.85 16.25 53.55 17 53.81"/><polygon class="cls-33" points="17.42 53.78 17.37 70.08 16.95 70.11 17 53.81 17.42 53.78"/><polygon class="cls-37" points="18.21 53.85 18.16 70.15 17.37 70.08 17.42 53.78 18.21 53.85"/><polygon class="cls-38" points="19.34 54.13 19.29 70.43 18.16 70.15 18.21 53.85 19.34 54.13"/><polygon class="cls-39" points="19.72 54.19 19.67 70.5 19.29 70.43 19.34 54.13 19.72 54.19"/><polygon class="cls-40" points="20.44 54.27 20.39 70.57 19.67 70.5 19.72 54.19 20.44 54.27"/><polygon class="cls-5" points="21.28 54.57 21.23 70.87 20.39 70.57 20.44 54.27 21.28 54.57"/><polygon class="cls-41" points="22.23 54.71 22.19 71.01 21.23 70.87 21.28 54.57 22.23 54.71"/><polygon class="cls-42" points="23.15 54.9 23.11 71.2 22.19 71.01 22.23 54.71 23.15 54.9"/><polygon class="cls-43" points="24.53 55.13 24.48 71.44 23.11 71.2 23.15 54.9 24.53 55.13"/><polygon class="cls-41" points="25.45 55.27 25.41 71.57 24.48 71.44 24.53 55.13 25.45 55.27"/><polygon class="cls-39" points="26.95 55.54 26.91 71.84 25.41 71.57 25.45 55.27 26.95 55.54"/><polygon class="cls-4" points="29.88 55.91 29.84 72.21 29.44 72.16 29.49 55.86 29.88 55.91"/><polygon class="cls-36" points="28.04 55.92 27.99 72.23 26.91 71.84 26.95 55.54 28.04 55.92"/><polygon class="cls-3" points="29.49 55.86 29.44 72.16 29.09 72.27 29.14 55.96 29.49 55.86"/><polygon class="cls-44" points="28.64 56.02 28.6 72.32 27.99 72.23 28.04 55.92 28.64 56.02"/><polygon class="cls-13" points="29.14 55.96 29.09 72.27 28.6 72.32 28.64 56.02 29.14 55.96"/><polygon class="cls-38" points="30.71 56.12 30.67 72.42 29.84 72.21 29.88 55.91 30.71 56.12"/><polygon class="cls-5" points="31.42 56.37 31.37 72.67 30.67 72.42 30.71 56.12 31.42 56.37"/><polygon class="cls-45" points="31.76 56.52 31.71 72.82 31.37 72.67 31.42 56.37 31.76 56.52"/><polygon class="cls-36" points="32.53 56.79 32.48 73.09 31.71 72.82 31.76 56.52 32.53 56.79"/><polygon class="cls-46" points="34.24 57.11 34.19 73.41 32.48 73.09 32.53 56.79 34.24 57.11"/><polygon class="cls-47" points="35.05 57.37 35 73.67 34.19 73.41 34.24 57.11 35.05 57.37"/><polygon class="cls-38" points="37.24 57.91 37.19 74.21 35 73.67 35.05 57.37 37.24 57.91"/><polygon class="cls-37" points="37.9 57.96 37.85 74.27 37.19 74.21 37.24 57.91 37.9 57.96"/><polygon class="cls-41" points="39.92 58.26 39.87 74.56 37.85 74.27 37.9 57.96 39.92 58.26"/><polygon class="cls-48" points="40.5 58.29 40.45 74.59 39.87 74.56 39.92 58.26 40.5 58.29"/><polygon class="cls-41" points="41.61 58.45 41.56 74.76 40.45 74.59 40.5 58.29 41.61 58.45"/><polygon class="cls-49" points="43.19 58.58 43.14 74.88 41.56 74.76 41.61 58.45 43.19 58.58"/><polygon class="cls-38" points="43.89 58.75 43.85 75.05 43.14 74.88 43.19 58.58 43.89 58.75"/><polygon class="cls-50" points="44.45 58.96 44.41 75.26 43.85 75.05 43.89 58.75 44.45 58.96"/><polygon class="cls-51" points="46.51 59.42 46.46 75.72 44.41 75.26 44.45 58.96 46.51 59.42"/><polygon class="cls-52" points="47.73 59.44 47.68 75.74 46.46 75.72 46.51 59.42 47.73 59.44"/><polygon class="cls-53" points="48.69 59.42 48.64 75.72 47.68 75.74 47.73 59.44 48.69 59.42"/><polygon class="cls-54" points="51.68 59.78 51.64 76.08 48.64 75.72 48.69 59.42 51.68 59.78"/><polygon class="cls-55" points="52.7 59.82 52.66 76.13 51.64 76.08 51.68 59.78 52.7 59.82"/><polygon class="cls-42" points="53.37 59.96 53.32 76.26 52.66 76.13 52.7 59.82 53.37 59.96"/><polygon class="cls-34" points="53.92 60.13 53.87 76.43 53.32 76.26 53.37 59.96 53.92 60.13"/><polygon class="cls-56" points="54.65 60.27 54.6 76.58 53.87 76.43 53.92 60.13 54.65 60.27"/><polygon class="cls-50" points="55.04 60.42 54.99 76.72 54.6 76.58 54.65 60.27 55.04 60.42"/><polygon class="cls-41" points="55.45 60.48 55.4 76.78 54.99 76.72 55.04 60.42 55.45 60.48"/><polygon class="cls-45" points="56.52 60.95 56.47 77.25 55.4 76.78 55.45 60.48 56.52 60.95"/><polygon class="cls-57" points="57.82 61.65 57.77 77.95 56.47 77.25 56.52 60.95 57.82 61.65"/><polygon class="cls-58" points="58.2 62.15 58.15 78.46 57.77 77.95 57.82 61.65 58.2 62.15"/><polygon class="cls-59" points="57.84 62.61 57.79 78.91 57.29 78.46 57.34 62.15 57.84 62.61"/><polygon class="cls-60" points="59.85 63.28 59.81 79.59 57.79 78.91 57.84 62.61 59.85 63.28"/><polygon class="cls-26" points="60.81 63.7 60.77 80 59.81 79.59 59.85 63.28 60.81 63.7"/><polygon class="cls-58" points="60.99 63.98 60.95 80.29 60.77 80 60.81 63.7 60.99 63.98"/><polygon class="cls-58" points="61.2 64.36 61.15 80.67 60.95 80.29 60.99 63.98 61.2 64.36"/><polygon class="cls-60" points="61.61 64.5 61.56 80.81 61.15 80.67 61.2 64.36 61.61 64.5"/><polygon class="cls-31" points="63.07 64.94 63.03 81.24 61.56 80.81 61.61 64.5 63.07 64.94"/><polygon class="cls-40" points="134.55 64.19 134.51 80.5 134.1 81.47 134.15 65.17 134.55 64.19"/><polygon class="cls-61" points="134.15 65.17 134.1 81.47 133.66 81.81 133.71 65.51 134.15 65.17"/><polygon class="cls-23" points="64.17 65.65 64.12 81.95 63.03 81.24 63.07 64.94 64.17 65.65"/><polygon class="cls-62" points="64.63 65.78 64.58 82.09 64.12 81.95 64.17 65.65 64.63 65.78"/><polygon class="cls-63" points="133.71 65.51 133.66 81.81 132.88 82.58 132.92 66.28 133.71 65.51"/><polygon class="cls-64" points="66.46 67.15 66.42 83.45 64.58 82.09 64.63 65.78 66.46 67.15"/><polygon class="cls-34" points="67.2 67.38 67.16 83.68 66.42 83.45 66.46 67.15 67.2 67.38"/><polygon class="cls-47" points="67.85 67.59 67.8 83.89 67.16 83.68 67.2 67.38 67.85 67.59"/><polygon class="cls-46" points="68.91 67.79 68.86 84.09 67.8 83.89 67.85 67.59 68.91 67.79"/><polygon class="cls-38" points="69.42 67.91 69.37 84.21 68.86 84.09 68.91 67.79 69.42 67.91"/><polygon class="cls-52" points="133.39 67.36 133.35 83.67 132.9 84.4 132.95 68.09 133.39 67.36"/><polygon class="cls-51" points="70.01 68.05 69.97 84.35 69.37 84.21 69.42 67.91 70.01 68.05"/><polygon class="cls-22" points="70.62 68.52 70.57 84.82 69.97 84.35 70.01 68.05 70.62 68.52"/><polygon class="cls-2" points="72.07 68.61 72.02 84.91 71.38 84.92 71.42 68.61 72.07 68.61"/><polygon class="cls-54" points="71.42 68.61 71.38 84.92 70.57 84.82 70.62 68.52 71.42 68.61"/><polygon class="cls-37" points="72.45 68.64 72.41 84.94 72.02 84.91 72.07 68.61 72.45 68.64"/><polygon class="cls-46" points="73.56 68.84 73.51 85.15 72.41 84.94 72.45 68.64 73.56 68.84"/><polygon class="cls-34" points="73.92 68.96 73.87 85.26 73.51 85.15 73.56 68.84 73.92 68.96"/><polygon class="cls-57" points="74.52 69.28 74.47 85.59 73.87 85.26 73.92 68.96 74.52 69.28"/><polygon class="cls-47" points="74.89 69.4 74.84 85.7 74.47 85.59 74.52 69.28 74.89 69.4"/><polygon class="cls-42" points="75.59 69.54 75.54 85.84 74.84 85.7 74.89 69.4 75.59 69.54"/><polygon class="cls-44" points="133.57 68.95 133.52 85.25 133.24 86.06 133.29 69.76 133.57 68.95"/><polygon class="cls-36" points="75.94 69.66 75.89 85.97 75.54 85.84 75.59 69.54 75.94 69.66"/><polygon class="cls-65" points="133.29 69.76 133.24 86.06 133.06 86.28 133.11 69.97 133.29 69.76"/><polygon class="cls-66" points="76.22 69.85 76.17 86.15 75.89 85.97 75.94 69.66 76.22 69.85"/><polygon class="cls-7" points="133.11 69.97 133.06 86.28 131.5 86.51 131.54 70.21 133.11 69.97"/><polygon class="cls-59" points="76.71 70.27 76.66 86.57 76.17 86.15 76.22 69.85 76.71 70.27"/><polygon class="cls-21" points="131.54 70.21 131.5 86.51 129.7 87.2 129.75 70.9 131.54 70.21"/><polygon class="cls-22" points="77.54 70.9 77.49 87.2 76.66 86.57 76.71 70.27 77.54 70.9"/><polygon class="cls-67" points="77.92 71.08 77.88 87.38 77.49 87.2 77.54 70.9 77.92 71.08"/><polygon class="cls-29" points="78.53 71.24 78.49 87.54 77.88 87.38 77.92 71.08 78.53 71.24"/><polygon class="cls-61" points="129.75 70.9 129.7 87.2 128.62 88.05 128.66 71.75 129.75 70.9"/><polygon class="cls-68" points="79.87 71.75 79.82 88.05 78.49 87.54 78.53 71.24 79.87 71.75"/><polygon class="cls-58" points="80.17 72.18 80.12 88.49 79.82 88.05 79.87 71.75 80.17 72.18"/><polygon class="cls-3" points="128.66 71.75 128.62 88.05 127.27 88.98 127.31 72.68 128.66 71.75"/><polygon class="cls-67" points="81.31 72.71 81.26 89.01 80.12 88.49 80.17 72.18 81.31 72.71"/><polygon class="cls-69" points="82.1 72.72 82.05 89.02 81.26 89.01 81.31 72.71 82.1 72.72"/><polygon class="cls-3" points="127.31 72.68 127.27 88.98 126.61 89.44 126.66 73.14 127.31 72.68"/><polygon class="cls-64" points="82.55 73.06 82.5 89.36 82.05 89.02 82.1 72.72 82.55 73.06"/><polygon class="cls-43" points="83.69 73.25 83.64 89.56 82.5 89.36 82.55 73.06 83.69 73.25"/><polygon class="cls-5" points="84.07 73.39 84.02 89.7 83.64 89.56 83.69 73.25 84.07 73.39"/><polygon class="cls-8" points="126.66 73.14 126.61 89.44 125.58 89.91 125.63 73.61 126.66 73.14"/><polygon class="cls-70" points="125.63 73.61 125.58 89.91 125.19 89.98 125.24 73.68 125.63 73.61"/><polygon class="cls-71" points="125.24 73.68 125.19 89.98 124.46 90.02 124.51 73.72 125.24 73.68"/><polygon class="cls-40" points="115.28 74.05 115.23 90.35 114.27 90.25 114.32 73.94 115.28 74.05"/><polygon class="cls-64" points="84.87 73.98 84.82 90.28 84.02 89.7 84.07 73.39 84.87 73.98"/><polygon class="cls-3" points="124.51 73.72 124.46 90.02 122.4 90.64 122.44 74.34 124.51 73.72"/><polygon class="cls-23" points="85.41 74.32 85.36 90.62 84.82 90.28 84.87 73.98 85.41 74.32"/><polygon class="cls-6" points="87.58 74.45 87.54 90.75 87.09 90.75 87.14 74.44 87.58 74.45"/><polygon class="cls-32" points="87.14 74.44 87.09 90.75 86.66 90.79 86.71 74.49 87.14 74.44"/><polygon class="cls-72" points="88.01 74.52 87.96 90.82 87.54 90.75 87.58 74.45 88.01 74.52"/><polygon class="cls-73" points="86.71 74.49 86.66 90.79 86.11 90.93 86.15 74.62 86.71 74.49"/><polygon class="cls-28" points="86.15 74.62 86.11 90.93 85.36 90.62 85.41 74.32 86.15 74.62"/><polygon class="cls-27" points="117.74 74.8 117.7 91.1 115.23 90.35 115.28 74.05 117.74 74.8"/><polygon class="cls-68" points="88.54 74.73 88.5 91.03 87.96 90.82 88.01 74.52 88.54 74.73"/><polygon class="cls-37" points="119.12 74.92 119.07 91.22 117.7 91.1 117.74 74.8 119.12 74.92"/><polygon class="cls-74" points="89.34 74.99 89.3 91.29 88.5 91.03 88.54 74.73 89.34 74.99"/><polygon class="cls-22" points="119.37 75.11 119.32 91.42 119.07 91.22 119.12 74.92 119.37 75.11"/><polygon class="cls-21" points="114.32 73.94 114.27 90.25 112.28 91.4 112.33 75.1 114.32 73.94"/><polygon class="cls-27" points="120.13 75.35 120.08 91.65 119.32 91.42 119.37 75.11 120.13 75.35"/><polygon class="cls-8" points="122.44 74.34 122.4 90.64 120.08 91.65 120.13 75.35 122.44 74.34"/><polygon class="cls-58" points="89.67 75.42 89.63 91.72 89.3 91.29 89.34 74.99 89.67 75.42"/><polygon class="cls-22" points="90.44 76.01 90.39 92.31 89.63 91.72 89.67 75.42 90.44 76.01"/><polygon class="cls-75" points="92.47 76.29 92.42 92.59 90.39 92.31 90.44 76.01 92.47 76.29"/><polygon class="cls-76" points="93.13 76.62 93.08 92.92 92.42 92.59 92.47 76.29 93.13 76.62"/><polygon class="cls-5" points="93.6 76.79 93.56 93.09 93.08 92.92 93.13 76.62 93.6 76.79"/><polygon class="cls-24" points="94.18 77.02 94.13 93.32 93.56 93.09 93.6 76.79 94.18 77.02"/><polygon class="cls-77" points="94.85 77.3 94.81 93.6 94.13 93.32 94.18 77.02 94.85 77.3"/><polygon class="cls-24" points="95.65 77.61 95.6 93.91 94.81 93.6 94.85 77.3 95.65 77.61"/><polygon class="cls-78" points="96.27 77.65 96.23 93.96 95.6 93.91 95.65 77.61 96.27 77.65"/><polygon class="cls-4" points="97.69 77.84 97.64 94.14 96.23 93.96 96.27 77.65 97.69 77.84"/><polygon class="cls-41" points="99.55 78.11 99.51 94.42 97.64 94.14 97.69 77.84 99.55 78.11"/><polygon class="cls-79" points="101.69 78.45 101.65 94.76 100.32 94.76 100.36 78.46 101.69 78.45"/><polygon class="cls-80" points="100.36 78.46 100.32 94.76 99.51 94.42 99.55 78.11 100.36 78.46"/><polygon class="cls-55" points="108.4 78.79 108.35 95.09 107.43 95.05 107.47 78.75 108.4 78.79"/><polygon class="cls-34" points="102.79 78.8 102.74 95.1 101.65 94.76 101.69 78.45 102.79 78.8"/><polygon class="cls-6" points="103.24 78.81 103.19 95.11 102.74 95.1 102.79 78.8 103.24 78.81"/><polygon class="cls-12" points="109.61 78.83 109.56 95.14 108.35 95.09 108.4 78.79 109.61 78.83"/><polygon class="cls-6" points="111.29 78.86 111.24 95.17 109.56 95.14 109.61 78.83 111.29 78.86"/><polygon class="cls-81" points="111.73 78.89 111.69 95.19 111.24 95.17 111.29 78.86 111.73 78.89"/><polygon class="cls-61" points="113.17 77.79 113.13 94.09 111.69 95.19 111.73 78.89 113.17 77.79"/><polygon class="cls-81" points="105.95 78.89 105.91 95.19 104.78 95.13 104.83 78.83 105.95 78.89"/><polygon class="cls-65" points="107.47 78.75 107.43 95.05 105.91 95.19 105.95 78.89 107.47 78.75"/><polygon class="cls-82" points="103.97 78.89 103.92 95.19 103.19 95.11 103.24 78.81 103.97 78.89"/><polygon class="cls-83" points="104.83 78.83 104.78 95.13 103.92 95.19 103.97 78.89 104.83 78.83"/><polygon class="cls-84" points="133.11 69.97 131.54 70.21 129.75 70.9 128.66 71.75 127.31 72.68 126.66 73.14 125.63 73.61 125.24 73.68 124.51 73.72 122.44 74.34 120.13 75.35 119.37 75.11 119.12 74.92 117.74 74.8 115.28 74.05 114.32 73.94 112.33 75.1 113.17 77.79 111.73 78.89 111.29 78.86 109.61 78.83 108.4 78.79 107.47 78.75 105.95 78.89 104.83 78.83 103.97 78.89 103.24 78.81 102.79 78.8 101.69 78.45 100.36 78.46 99.55 78.11 97.69 77.84 96.27 77.65 95.65 77.61 94.85 77.3 94.18 77.02 93.6 76.79 93.13 76.62 92.47 76.29 90.44 76.01 89.67 75.42 89.34 74.99 88.54 74.73 88.01 74.52 87.58 74.45 87.14 74.44 86.71 74.49 86.15 74.62 85.41 74.32 84.87 73.98 84.07 73.39 83.69 73.25 82.55 73.06 82.1 72.72 81.31 72.71 80.17 72.18 79.87 71.75 78.53 71.24 77.92 71.08 77.54 70.9 76.71 70.27 76.22 69.85 75.94 69.66 75.59 69.54 74.89 69.4 74.52 69.28 73.92 68.96 73.56 68.84 72.45 68.64 72.07 68.61 71.42 68.61 70.62 68.52 70.01 68.05 69.42 67.91 68.91 67.79 67.85 67.59 67.2 67.38 66.46 67.15 64.63 65.78 64.17 65.65 63.07 64.94 61.61 64.5 61.2 64.36 60.99 63.98 60.81 63.7 59.85 63.28 57.84 62.61 57.34 62.15 58.2 62.15 57.82 61.65 56.52 60.95 55.45 60.48 55.04 60.42 54.65 60.27 53.92 60.13 53.37 59.96 52.7 59.82 51.68 59.78 48.69 59.42 47.73 59.44 46.51 59.42 44.45 58.96 43.89 58.75 43.19 58.58 41.61 58.45 40.5 58.29 39.92 58.26 37.9 57.96 37.24 57.91 35.05 57.37 34.24 57.11 32.53 56.79 31.76 56.52 31.42 56.37 30.71 56.12 29.88 55.91 29.49 55.86 29.14 55.96 28.64 56.02 28.04 55.92 26.95 55.54 25.45 55.27 24.53 55.13 23.15 54.9 22.23 54.71 21.28 54.57 20.44 54.27 19.72 54.19 19.34 54.13 18.21 53.85 17.42 53.78 17 53.81 16.25 53.55 13.53 53.29 12.29 53.44 11.6 53.41 10.49 53.49 10.02 53.35 7.96 52.76 6.76 52.74 6.34 52.62 5.89 52.41 5.44 52.29 4.36 51.85 3.69 51.65 2.88 51.3 2.45 51.14 1.74 50.85 1.23 50.52 0.05 49.59 0.61 48.84 0.69 48.53 0.83 48.29 1.05 48.06 1.31 47.86 3.42 47.24 3.86 47 4.83 46.49 5.31 45.88 5.65 45.28 5.81 45.02 6.38 43.59 6.97 43.11 9.16 42.1 10.24 42.04 11.61 42.08 12.67 42.02 13.67 41.85 14.63 41.69 15.5 41.75 17.1 40.88 17.64 40.34 19.34 39.35 21.04 38.37 22.73 37.39 24.43 36.4 26.06 35.45 27.83 34.43 31.22 32.45 32.92 31.47 34.62 30.48 36.31 29.5 37.43 28.84 38.01 28.51 39.71 27.52 41.4 26.54 42.21 26.07 43.1 25.55 44.8 24.57 45.16 24.36 45.87 24.45 46.87 24.54 47.73 24.52 49.25 24.57 50.94 24.3 51.96 23.89 52.49 23.55 53.33 22.95 54.87 22.5 55.99 21.83 56.28 21.56 58.4 20.47 58.79 20.4 59.52 20.04 60.51 19.18 61.47 18.91 65.96 16.91 66.47 16.39 67.84 15.76 68.35 15.62 69.42 15.14 70.76 13.99 72.09 12.84 73.44 11.69 74.78 10.54 75.86 9.6 76.94 8.66 78.02 7.72 79.1 6.78 79.54 6.4 79.77 6.21 80.45 5.64 80.68 5.44 80.9 5.24 81.13 5.04 81.35 4.85 81.57 4.64 81.8 4.45 82.02 4.25 82.25 4.05 82.47 3.85 82.7 3.66 82.92 3.46 83.14 3.26 83.37 3.06 83.6 2.86 83.82 2.67 84.59 2.19 84.93 1.92 85.56 1.69 87.13 0.79 87.79 0.52 88.81 0.13 92.52 0 92.25 0.41 90.65 1.5 90.26 2.49 90.24 3.24 89.96 3.7 89.46 3.77 88.29 4.36 87.62 5.29 87.56 5.51 86.98 6.59 87.17 8.24 86.26 8.82 85.86 8.71 85 8.49 82.72 8.4 80.77 8.6 80.25 8.96 79.53 9.46 79.07 9.86 78.62 10.24 78.17 10.63 77.72 11.02 77.27 11.41 76.82 11.8 76.37 12.18 75.92 12.57 75.47 12.96 75.03 13.34 74.58 13.73 74.13 14.12 73.68 14.51 73.23 14.89 72.78 15.28 72.33 15.67 71.88 16.06 70.98 16.71 70.69 16.89 70.39 17.08 70.09 17.27 69.73 17.5 69.37 17.72 69.02 17.95 68.66 18.18 73.11 21.12 73.99 21.62 74.32 21.81 74.86 22.13 75.74 22.63 76.63 23.14 77.5 23.64 78.39 24.15 79.27 24.66 80.14 25.16 81.03 25.67 81.91 26.18 82.63 26.58 83.69 27.19 84.58 27.7 85.46 28.21 86.35 28.72 87.23 29.22 87.65 29.46 88.06 29.7 88.47 29.93 88.88 30.17 89.29 30.4 89.7 30.64 90.11 30.88 90.52 31.11 90.93 31.35 91.34 31.58 91.75 31.82 92.17 32.06 92.58 32.29 92.99 32.53 93.41 32.77 93.81 33 94.11 33.17 87.72 37.19 88.33 37.54 89.41 38.17 90.48 38.79 91.56 39.41 92.64 40.03 93.88 40.74 95.11 41.45 96.35 42.17 97.1 42.6 97.6 42.88 98.84 43.6 100.08 44.32 101.12 44.92 102.57 45.75 103.82 46.48 105.08 47.19 106.33 47.91 107.58 48.64 108.9 49.4 109.31 49.63 109.73 49.87 112.19 51.29 112.6 51.53 115.48 53.19 115.89 53.43 116.31 53.67 117.96 54.62 118.38 54.86 120.44 56.06 120.86 56.3 121.27 56.53 122.94 57.5 123.36 57.74 125.44 58.94 125.86 59.18 126.28 59.42 128.79 60.87 129.21 61.11 132.15 62.81 132.57 63.05 132.99 63.29 134.55 64.19 134.15 65.17 133.71 65.51 132.92 66.28 133.39 67.36 132.95 68.09 133.57 68.95 133.29 69.76 133.11 69.97"/></g></g></g></svg>