<svg xmlns="http://www.w3.org/2000/svg" viewBox="0 0 95.02 86.68"><defs><style>.cls-1{isolation:isolate;}.cls-2{fill:#711c1c;}.cls-3{fill:#942424;}.cls-4{fill:#481212;}.cls-5{fill:#6c1a1a;}.cls-6{fill:#862121;}.cls-7{fill:#a92929;}.cls-8{fill:#a62929;}.cls-9{fill:#8f2323;}.cls-10{fill:#741c1c;}.cls-11{fill:#932424;}.cls-12{fill:#a32828;}.cls-13{fill:#902323;}.cls-14{fill:#832020;}.cls-15{fill:#6d1b1b;}.cls-16{fill:#801f1f;}.cls-17{fill:#a82929;}.cls-18{fill:#922424;}.cls-19{fill:#671919;}.cls-20{fill:#651919;}.cls-21{fill:#641818;}.cls-22{fill:#681919;}.cls-23{fill:#781d1d;}.cls-24{fill:#9c2626;}.cls-25{fill:#952424;}.cls-26{fill:#9a2626;}.cls-27{fill:#761d1d;}.cls-28{fill:#721c1c;}.cls-29{fill:#621818;}.cls-30{fill:#5a1616;}.cls-31{fill:#a42828;}.cls-32{fill:#751d1d;}.cls-33{fill:#822020;}.cls-34{fill:#9f2727;}.cls-35{fill:#521414;}.cls-36{fill:#6a1a1a;}.cls-37{fill:#8c2222;}.cls-38{fill:#9e2727;}.cls-39{fill:#541515;}.cls-40{fill:#9d2626;}.cls-41{fill:#7f1f1f;}.cls-42{fill:#4d1313;}.cls-43{fill:#791e1e;}.cls-44{fill:#872121;}.cls-45{fill:#581616;}.cls-46{fill:#4b1212;}.cls-47{fill:#551515;}.cls-48{fill:#6c1b1b;}.cls-49{fill:#5f1717;}.cls-50{fill:#701b1b;}.cls-51{fill:#491212;}.cls-52{fill:#531414;}.cls-53{fill:#882121;}.cls-54{fill:#5c1616;}.cls-55{fill:#601818;}.cls-56{fill:#511414;}.cls-57{fill:#5b1616;}.cls-58{fill:#4e1313;}.cls-59{fill:#8b2222;}.cls-60{fill:#982525;}.cls-61{fill:#a72929;}.cls-62{fill:#a52828;}.cls-63{fill:#571515;}.cls-64{fill:#a02727;}.cls-65{fill:#a22828;}.cls-66{fill:#972525;}.cls-67{fill:#a52929;}.cls-68{fill:#c83131;}.cls-69{fill:#4a1212;}.cls-70{fill:#7d1f1f;}.cls-71{fill:#a12727;}.cls-72{fill:#852121;}.cls-73{fill:#5c1717;}.cls-74{fill:#812020;}.cls-75{fill:#992626;}.cls-76{fill:#561515;}.cls-77{fill:#7e1f1f;}.cls-78{fill:#8d2323;}.cls-79{fill:#842020;}.cls-80{fill:#6b1a1a;}.cls-81{fill:#9b2626;}.cls-82{fill:#7c1e1e;}.cls-83{fill:#892222;}.cls-84{fill:#6e1b1b;}.cls-85{fill:#952525;}.cls-86{fill:#5d1717;}.cls-87{fill:#8e2323;}.cls-88{fill:#912424;}.cls-89{fill:#992525;}.cls-90{fill:#4c1313;}</style></defs><title>Nigeria</title><g id="Layer_2" data-name="Layer 2"><g id="Layer_1-2" data-name="Layer 1"><g class="cls-1"><polygon class="cls-2" points="82.41 5.22 82.36 21.52 82.28 21.93 82.33 5.62 82.41 5.22"/><polygon class="cls-3" points="82.33 5.62 82.28 21.93 81.96 22.35 82 6.04 82.33 5.62"/><polygon class="cls-4" points="57.72 6.49 57.67 22.79 57.37 21.87 57.42 5.56 57.72 6.49"/><polygon class="cls-5" points="82 6.04 81.96 22.35 81.86 23.12 81.91 6.82 82 6.04"/><polygon class="cls-6" points="81.91 6.82 81.86 23.12 81.64 23.56 81.69 7.26 81.91 6.82"/><polygon class="cls-7" points="81.69 7.26 81.64 23.56 80.61 24.14 80.66 7.83 81.69 7.26"/><polygon class="cls-8" points="80.66 7.83 80.61 24.14 80.27 24.24 80.32 7.94 80.66 7.83"/><polygon class="cls-9" points="80.32 7.94 80.27 24.24 80.02 24.63 80.07 8.32 80.32 7.94"/><polygon class="cls-10" points="80.41 9.38 80.36 25.68 80.28 26.02 80.33 9.72 80.41 9.38"/><polygon class="cls-11" points="84.06 14.53 84.01 30.83 83.4 31.66 83.45 15.35 84.06 14.53"/><polygon class="cls-11" points="83.45 15.35 83.4 31.66 83.27 31.84 83.32 15.53 83.45 15.35"/><polygon class="cls-11" points="86.57 17.82 86.52 34.12 86.26 34.47 86.31 18.17 86.57 17.82"/><polygon class="cls-12" points="86.31 18.17 86.26 34.47 85.83 34.82 85.87 18.52 86.31 18.17"/><polygon class="cls-13" points="85.87 18.52 85.83 34.82 85.57 35.2 85.61 18.89 85.87 18.52"/><polygon class="cls-4" points="40.75 18.98 40.7 35.29 40.67 33.51 40.72 17.21 40.75 18.98"/><polygon class="cls-14" points="85.65 19.24 85.61 35.55 85.39 36.02 85.44 19.71 85.65 19.24"/><polygon class="cls-15" points="89.03 22.47 88.98 38.77 88.89 39.45 88.93 23.14 89.03 22.47"/><polygon class="cls-16" points="88.93 23.14 88.89 39.45 88.59 40.19 88.63 23.89 88.93 23.14"/><polygon class="cls-17" points="88.63 23.89 88.59 40.19 88.07 40.38 88.12 24.07 88.63 23.89"/><polygon class="cls-5" points="88.12 24.07 88.07 40.38 87.99 41.06 88.03 24.75 88.12 24.07"/><polygon class="cls-18" points="88.29 25.17 88.24 41.47 87.88 41.98 87.92 25.67 88.29 25.17"/><polygon class="cls-19" points="87.92 25.67 87.88 41.98 87.86 42.31 87.91 26.01 87.92 25.67"/><polygon class="cls-4" points="22.86 27.45 22.81 43.76 22.74 43.24 22.78 26.94 22.86 27.45"/><polygon class="cls-20" points="92 30.37 91.96 46.67 91.95 47.15 91.99 30.85 92 30.37"/><polygon class="cls-21" points="91.99 30.85 91.95 47.15 91.94 47.59 91.99 31.29 91.99 30.85"/><polygon class="cls-4" points="5.79 31.64 5.75 47.95 5.58 47.62 5.63 31.32 5.79 31.64"/><polygon class="cls-22" points="93.94 32.24 93.9 48.54 93.84 49.3 93.89 32.99 93.94 32.24"/><polygon class="cls-23" points="93.89 32.99 93.84 49.3 93.57 50.23 93.61 33.93 93.89 32.99"/><polygon class="cls-22" points="93.61 33.93 93.57 50.23 93.54 50.68 93.58 34.38 93.61 33.93"/><polygon class="cls-24" points="95 35.59 94.95 51.9 94.64 52.23 94.68 35.93 95 35.59"/><polygon class="cls-25" points="91.01 36.92 90.96 53.22 90.56 53.25 90.61 36.95 91.01 36.92"/><polygon class="cls-26" points="88.3 36.92 88.25 53.22 87.88 53.27 87.93 36.97 88.3 36.92"/><polygon class="cls-27" points="91.41 37 91.36 53.3 90.96 53.22 91.01 36.92 91.41 37"/><polygon class="cls-28" points="88.67 37.01 88.62 53.31 88.25 53.22 88.3 36.92 88.67 37.01"/><polygon class="cls-29" points="89.03 37.15 88.98 53.46 88.62 53.31 88.67 37.01 89.03 37.15"/><polygon class="cls-30" points="91.75 37.17 91.7 53.48 91.36 53.3 91.41 37 91.75 37.17"/><polygon class="cls-31" points="87.93 36.97 87.88 53.27 87.14 53.46 87.19 37.16 87.93 36.97"/><polygon class="cls-7" points="90.61 36.95 90.56 53.25 89.84 53.55 89.89 37.24 90.61 36.95"/><polygon class="cls-9" points="89.89 37.24 89.84 53.55 89.41 53.55 89.46 37.24 89.89 37.24"/><polygon class="cls-32" points="89.46 37.24 89.41 53.55 88.98 53.46 89.03 37.15 89.46 37.24"/><polygon class="cls-33" points="86.47 37.29 86.43 53.59 85.62 53.5 85.67 37.2 86.47 37.29"/><polygon class="cls-34" points="87.19 37.16 87.14 53.46 86.43 53.59 86.47 37.29 87.19 37.16"/><polygon class="cls-35" points="92 37.33 91.95 53.63 91.7 53.48 91.75 37.17 92 37.33"/><polygon class="cls-30" points="92.28 37.47 92.23 53.77 91.95 53.63 92 37.33 92.28 37.47"/><polygon class="cls-36" points="85.67 37.2 85.62 53.5 85.59 53.83 85.64 37.53 85.67 37.2"/><polygon class="cls-20" points="92.91 37.7 92.86 54.01 92.23 53.77 92.28 37.47 92.91 37.7"/><polygon class="cls-37" points="93.76 37.72 93.72 54.02 92.86 54.01 92.91 37.7 93.76 37.72"/><polygon class="cls-38" points="95.02 36.48 94.97 52.78 93.72 54.02 93.76 37.72 95.02 36.48"/><polygon class="cls-39" points="1.8 38.4 1.75 54.71 0 53.66 0.05 37.36 1.8 38.4"/><polygon class="cls-40" points="86.31 38.03 86.26 54.33 84.82 55.79 84.86 39.49 86.31 38.03"/><polygon class="cls-41" points="84.86 39.49 84.82 55.79 83.55 55.62 83.6 39.32 84.86 39.49"/><polygon class="cls-42" points="3.04 39.37 3 55.67 1.75 54.71 1.8 38.4 3.04 39.37"/><polygon class="cls-4" points="3.65 40.94 3.6 57.25 3 55.67 3.04 39.37 3.65 40.94"/><polygon class="cls-43" points="83.6 39.32 83.55 55.62 82.97 57.51 83.02 41.2 83.6 39.32"/><polygon class="cls-24" points="83.5 42.87 83.46 59.18 83.22 59.42 83.27 43.11 83.5 42.87"/><polygon class="cls-28" points="83.27 43.11 83.22 59.42 83.1 59.97 83.15 43.66 83.27 43.11"/><polygon class="cls-44" points="83.15 43.66 83.1 59.97 82.87 60.41 82.92 44.11 83.15 43.66"/><polygon class="cls-45" points="5.08 43.89 5.03 60.2 3.28 59.26 3.32 42.96 5.08 43.89"/><polygon class="cls-33" points="82.92 44.11 82.87 60.41 82.78 60.63 82.82 44.33 82.92 44.11"/><polygon class="cls-46" points="5.78 44.51 5.74 60.81 5.03 60.2 5.08 43.89 5.78 44.51"/><polygon class="cls-47" points="6.08 44.68 6.03 60.98 5.74 60.81 5.78 44.51 6.08 44.68"/><polygon class="cls-48" points="6.74 44.87 6.69 61.18 6.03 60.98 6.08 44.68 6.74 44.87"/><polygon class="cls-49" points="7 44.99 6.95 61.29 6.69 61.18 6.74 44.87 7 44.99"/><polygon class="cls-50" points="83.02 44.67 82.97 60.97 82.81 61.84 82.86 45.53 83.02 44.67"/><polygon class="cls-4" points="7.22 45.49 7.17 61.8 6.95 61.29 7 44.99 7.22 45.49"/><polygon class="cls-19" points="7.93 45.73 7.88 62.04 7.17 61.8 7.22 45.49 7.93 45.73"/><polygon class="cls-20" points="8.72 46.03 8.68 62.33 7.88 62.04 7.93 45.73 8.72 46.03"/><polygon class="cls-50" points="82.93 45.76 82.89 62.07 82.71 63.02 82.76 46.72 82.93 45.76"/><polygon class="cls-4" points="8.93 47.24 8.88 63.54 8.55 62.82 8.59 46.52 8.93 47.24"/><polygon class="cls-51" points="9.21 47.54 9.16 63.84 8.88 63.54 8.93 47.24 9.21 47.54"/><polygon class="cls-52" points="9.89 47.96 9.84 64.27 9.16 63.84 9.21 47.54 9.89 47.96"/><polygon class="cls-53" points="13.36 48.13 13.31 64.44 9.84 64.27 9.89 47.96 13.36 48.13"/><polygon class="cls-54" points="14.21 48.54 14.16 64.84 13.31 64.44 13.36 48.13 14.21 48.54"/><polygon class="cls-23" points="82.85 47.64 82.8 63.94 82.48 65.04 82.53 48.73 82.85 47.64"/><polygon class="cls-55" points="15.14 48.93 15.1 65.23 14.16 64.84 14.21 48.54 15.14 48.93"/><polygon class="cls-19" points="17.71 49.82 17.66 66.12 15.1 65.23 15.14 48.93 17.71 49.82"/><polygon class="cls-4" points="17.99 50.24 17.94 66.55 17.66 66.12 17.71 49.82 17.99 50.24"/><polygon class="cls-4" points="18.35 50.75 18.31 67.05 17.94 66.55 17.99 50.24 18.35 50.75"/><polygon class="cls-4" points="17.77 51.67 17.72 67.97 17.63 67.72 17.67 51.42 17.77 51.67"/><polygon class="cls-22" points="86.73 51.59 86.68 67.89 86.64 68.41 86.69 52.11 86.73 51.59"/><polygon class="cls-56" points="18.31 52.02 18.26 68.33 17.72 67.97 17.77 51.67 18.31 52.02"/><polygon class="cls-57" points="19.71 52.69 19.66 68.99 18.26 68.33 18.31 52.02 19.71 52.69"/><polygon class="cls-42" points="20.31 53.16 20.26 69.47 19.66 68.99 19.71 52.69 20.31 53.16"/><polygon class="cls-4" points="20.35 53.44 20.3 69.74 20.26 69.47 20.31 53.16 20.35 53.44"/><polygon class="cls-4" points="20.48 53.85 20.44 70.16 20.3 69.74 20.35 53.44 20.48 53.85"/><polygon class="cls-58" points="86.51 54.39 86.46 70.69 86.26 70.54 86.3 54.23 86.51 54.39"/><polygon class="cls-44" points="87.19 53.04 87.15 69.35 86.46 70.69 86.51 54.39 87.19 53.04"/><polygon class="cls-59" points="85.89 54.69 85.84 70.99 84.42 70.95 84.47 54.64 85.89 54.69"/><polygon class="cls-7" points="86.44 54.42 86.4 70.72 85.84 70.99 85.89 54.69 86.44 54.42"/><polygon class="cls-4" points="20.59 55.3 20.55 71.61 19.81 70.55 19.86 54.25 20.59 55.3"/><polygon class="cls-7" points="87.07 56.1 87.02 72.41 86.6 72.6 86.64 56.3 87.07 56.1"/><polygon class="cls-17" points="86.64 56.3 86.6 72.6 86.03 72.93 86.08 56.63 86.64 56.3"/><polygon class="cls-7" points="86.08 56.63 86.03 72.93 85.72 73.07 85.76 56.77 86.08 56.63"/><polygon class="cls-4" points="20.51 56.63 20.46 72.93 20.42 72.21 20.46 55.91 20.51 56.63"/><polygon class="cls-60" points="85.76 56.77 85.72 73.07 85.49 73.34 85.53 57.03 85.76 56.77"/><polygon class="cls-61" points="85.53 57.03 85.49 73.34 85.08 73.59 85.13 57.29 85.53 57.03"/><polygon class="cls-47" points="21.4 57.15 21.35 73.45 20.46 72.93 20.51 56.63 21.4 57.15"/><polygon class="cls-56" points="21.94 57.51 21.89 73.81 21.35 73.45 21.4 57.15 21.94 57.51"/><polygon class="cls-4" points="22.06 57.74 22.01 74.04 21.89 73.81 21.94 57.51 22.06 57.74"/><polygon class="cls-62" points="85.13 57.29 85.08 73.59 84.08 74.32 84.13 58.02 85.13 57.29"/><polygon class="cls-4" points="22.53 58.26 22.49 74.56 22.01 74.04 22.06 57.74 22.53 58.26"/><polygon class="cls-4" points="22.59 58.6 22.54 74.9 22.49 74.56 22.53 58.26 22.59 58.6"/><polygon class="cls-63" points="82.73 58.79 82.68 75.09 81.4 74.41 81.45 58.11 82.73 58.79"/><polygon class="cls-7" points="84.13 58.02 84.08 74.32 82.68 75.09 82.73 58.79 84.13 58.02"/><polygon class="cls-64" points="83.25 59 83.2 75.3 83.11 75.39 83.15 59.08 83.25 59"/><polygon class="cls-7" points="83.15 59.08 83.11 75.39 82.85 75.52 82.89 59.22 83.15 59.08"/><polygon class="cls-36" points="81.45 58.11 81.4 74.41 81.3 75.53 81.35 59.22 81.45 58.11"/><polygon class="cls-65" points="82.89 59.22 82.85 75.52 82.77 75.59 82.81 59.29 82.89 59.22"/><polygon class="cls-66" points="82.81 59.29 82.77 75.59 82.55 75.85 82.6 59.55 82.81 59.29"/><polygon class="cls-67" points="82.6 59.55 82.55 75.85 82.44 75.93 82.49 59.62 82.6 59.55"/><polygon class="cls-15" points="81.46 59.79 81.41 76.09 81.4 76.18 81.45 59.88 81.46 59.79"/><polygon class="cls-53" points="79.72 59.87 79.68 76.17 78.09 76.09 78.14 59.79 79.72 59.87"/><polygon class="cls-7" points="82.49 59.62 82.44 75.93 81.94 76.19 81.98 59.89 82.49 59.62"/><polygon class="cls-4" points="81.7 59.89 81.66 76.19 81.59 76.09 81.64 59.79 81.7 59.89"/><polygon class="cls-59" points="80.6 59.89 80.55 76.2 79.68 76.17 79.72 59.87 80.6 59.89"/><polygon class="cls-32" points="81.82 59.92 81.78 76.22 81.66 76.19 81.7 59.89 81.82 59.92"/><polygon class="cls-68" points="82 59.46 82.35 59.39 82.5 59.34 82.61 59.26 82.78 59.09 82.89 59.02 83.08 58.87 83.17 58.84 83.22 58.92 83.25 59 83.15 59.08 82.89 59.22 82.81 59.29 82.6 59.55 82.49 59.62 81.98 59.89 81.82 59.92 81.7 59.89 81.64 59.79 81.67 59.73 81.89 59.48 82 59.46"/><polygon class="cls-38" points="81.98 59.89 81.94 76.19 81.78 76.22 81.82 59.92 81.98 59.89"/><polygon class="cls-14" points="81.35 59.22 81.3 75.53 80.98 76.24 81.03 59.93 81.35 59.22"/><polygon class="cls-14" points="81.03 59.93 80.98 76.24 80.55 76.2 80.6 59.89 81.03 59.93"/><polygon class="cls-69" points="80.59 60.11 80.54 76.41 80.45 76.33 80.5 60.03 80.59 60.11"/><polygon class="cls-4" points="80.63 60.16 80.58 76.46 80.54 76.41 80.59 60.11 80.63 60.16"/><polygon class="cls-70" points="81.74 60.21 81.69 76.52 81.66 76.6 81.71 60.3 81.74 60.21"/><polygon class="cls-4" points="80.65 60.32 80.6 76.62 80.58 76.46 80.63 60.16 80.65 60.32"/><polygon class="cls-11" points="81.71 60.3 81.66 76.6 81.61 76.68 81.65 60.38 81.71 60.3"/><polygon class="cls-4" points="80.73 60.53 80.69 76.84 80.6 76.62 80.65 60.32 80.73 60.53"/><polygon class="cls-11" points="78.42 60.66 78.37 76.96 77.29 77.02 77.33 60.71 78.42 60.66"/><polygon class="cls-71" points="81.65 60.38 81.61 76.68 81.14 77.09 81.19 60.79 81.65 60.38"/><polygon class="cls-4" points="80.74 60.79 80.69 77.09 80.69 76.84 80.73 60.53 80.74 60.79"/><polygon class="cls-34" points="80.39 60.57 80.35 76.87 79.08 77.11 79.12 60.8 80.39 60.57"/><polygon class="cls-27" points="79.12 60.8 79.08 77.11 78.37 76.96 78.42 60.66 79.12 60.8"/><polygon class="cls-4" points="80.8 60.9 80.75 77.2 80.69 77.09 80.74 60.79 80.8 60.9"/><polygon class="cls-68" points="81.57 60 81.67 60.06 81.74 60.14 81.74 60.21 81.71 60.3 81.65 60.38 81.19 60.79 80.94 60.91 80.8 60.9 80.74 60.79 80.73 60.53 80.65 60.32 80.63 60.16 80.59 60.11 80.5 60.03 80.65 60 80.93 60.05 81.07 60.01 81.34 59.82 81.46 59.79 81.45 59.88 81.48 59.94 81.57 60"/><polygon class="cls-7" points="81.19 60.79 81.14 77.09 80.9 77.21 80.94 60.91 81.19 60.79"/><polygon class="cls-72" points="80.94 60.91 80.9 77.21 80.75 77.2 80.8 60.9 80.94 60.91"/><polygon class="cls-20" points="76.57 61.16 76.52 77.46 76.02 77.28 76.06 60.98 76.57 61.16"/><polygon class="cls-46" points="22.47 61.05 22.42 77.35 21.01 76.16 21.06 59.86 22.47 61.05"/><polygon class="cls-53" points="79.85 61.32 79.81 77.62 76.52 77.46 76.57 61.16 79.85 61.32"/><polygon class="cls-32" points="77 61.79 76.96 78.09 76.9 78.32 76.95 62.02 77 61.79"/><polygon class="cls-30" points="24.44 62.02 24.39 78.32 22.42 77.35 22.47 61.05 24.44 62.02"/><polygon class="cls-4" points="77.34 62.18 77.29 78.49 76.96 78.09 77 61.79 77.34 62.18"/><polygon class="cls-16" points="77.2 62.22 77.16 78.52 76.9 78.49 76.95 62.19 77.2 62.22"/><polygon class="cls-73" points="77.8 62.4 77.75 78.7 77.29 78.49 77.34 62.18 77.8 62.4"/><polygon class="cls-4" points="58.64 62.43 58.59 78.74 58.49 78.5 58.54 62.2 58.64 62.43"/><polygon class="cls-74" points="58.54 62.2 58.49 78.5 58.35 78.84 58.39 62.54 58.54 62.2"/><polygon class="cls-19" points="78.52 62.64 78.47 78.95 77.75 78.7 77.8 62.4 78.52 62.64"/><polygon class="cls-7" points="78.78 62.52 78.74 78.82 78.47 78.95 78.52 62.64 78.78 62.52"/><polygon class="cls-7" points="76.65 62.65 76.61 78.96 76.48 79.02 76.53 62.72 76.65 62.65"/><polygon class="cls-4" points="24.97 62.62 24.92 78.92 24.39 78.32 24.44 62.02 24.97 62.62"/><polygon class="cls-73" points="76.92 62.78 76.87 79.08 76.61 78.96 76.65 62.65 76.92 62.78"/><polygon class="cls-75" points="58.39 62.54 58.35 78.84 58.17 79.04 58.22 62.74 58.39 62.54"/><polygon class="cls-9" points="61.38 62.85 61.33 79.16 60.25 79.16 60.3 62.86 61.38 62.85"/><polygon class="cls-63" points="77.44 63.06 77.39 79.37 76.87 79.08 76.92 62.78 77.44 63.06"/><polygon class="cls-7" points="78.12 62.75 78.08 79.05 77.39 79.37 77.44 63.06 78.12 62.75"/><polygon class="cls-76" points="25.69 63.02 25.64 79.33 24.92 78.92 24.97 62.62 25.69 63.02"/><polygon class="cls-77" points="60.36 63.15 60.31 79.45 58.25 79.17 58.29 62.87 60.36 63.15"/><polygon class="cls-53" points="58.22 62.74 58.17 79.04 57.93 79.48 57.98 63.18 58.22 62.74"/><polygon class="cls-78" points="53.89 63.41 53.84 79.71 53.38 79.71 53.43 63.41 53.89 63.41"/><polygon class="cls-25" points="53.43 63.41 53.38 79.71 53.01 79.73 53.06 63.43 53.43 63.41"/><polygon class="cls-79" points="54.59 63.47 54.54 79.78 53.84 79.71 53.89 63.41 54.59 63.47"/><polygon class="cls-24" points="55.22 63.38 55.17 79.68 54.54 79.78 54.59 63.47 55.22 63.38"/><polygon class="cls-80" points="77.25 63.18 77.2 79.48 77.16 79.86 77.2 63.55 77.25 63.18"/><polygon class="cls-72" points="57.06 63.52 57.02 79.82 55.17 79.68 55.22 63.38 57.06 63.52"/><polygon class="cls-81" points="53.06 63.43 53.01 79.73 52.19 79.84 52.24 63.54 53.06 63.43"/><polygon class="cls-24" points="52.24 63.54 52.19 79.84 51.84 79.89 51.89 63.58 52.24 63.54"/><polygon class="cls-13" points="51.89 63.58 51.84 79.89 51.05 79.9 51.1 63.6 51.89 63.58"/><polygon class="cls-82" points="57.93 63.65 57.88 79.96 57.02 79.82 57.06 63.52 57.93 63.65"/><polygon class="cls-36" points="57.98 63.18 57.93 79.48 57.88 79.96 57.93 63.65 57.98 63.18"/><polygon class="cls-26" points="51.1 63.6 51.05 79.9 50.63 79.95 50.68 63.65 51.1 63.6"/><polygon class="cls-7" points="77.2 63.55 77.16 79.86 76.73 80.06 76.78 63.76 77.2 63.55"/><polygon class="cls-39" points="26.71 63.63 26.67 79.94 25.64 79.33 25.69 63.02 26.71 63.63"/><polygon class="cls-7" points="63.6 63.29 63.55 79.59 62.45 80.13 62.5 63.83 63.6 63.29"/><polygon class="cls-65" points="50.68 63.65 50.63 79.95 49.65 80.18 49.69 63.88 50.68 63.65"/><polygon class="cls-52" points="27.1 63.87 27.05 80.17 26.67 79.94 26.71 63.63 27.1 63.87"/><polygon class="cls-48" points="74.64 64.08 74.59 80.38 74.16 80.25 74.2 63.95 74.64 64.08"/><polygon class="cls-17" points="49.69 63.88 49.65 80.18 49.15 80.38 49.2 64.07 49.69 63.88"/><polygon class="cls-67" points="62.5 63.83 62.45 80.13 61.45 80.42 61.5 64.12 62.5 63.83"/><polygon class="cls-83" points="61.5 64.12 61.45 80.42 60.82 80.4 60.87 64.1 61.5 64.12"/><polygon class="cls-74" points="75.21 63.84 75.16 80.14 74.98 80.57 75.03 64.27 75.21 63.84"/><polygon class="cls-57" points="75.03 64.27 74.98 80.57 74.59 80.38 74.64 64.08 75.03 64.27"/><polygon class="cls-46" points="27.43 64.16 27.39 80.47 27.05 80.17 27.1 63.87 27.43 64.16"/><polygon class="cls-4" points="75.27 64.38 75.22 80.68 75.16 80.14 75.21 63.84 75.27 64.38"/><polygon class="cls-20" points="63.36 64.45 63.31 80.75 62.58 80.48 62.62 64.18 63.36 64.45"/><polygon class="cls-12" points="76.78 63.76 76.73 80.06 75.79 80.83 75.83 64.53 76.78 63.76"/><polygon class="cls-39" points="64.82 64.52 64.77 80.83 64.44 80.63 64.49 64.32 64.82 64.52"/><polygon class="cls-4" points="75.42 64.62 75.37 80.92 75.22 80.68 75.27 64.38 75.42 64.62"/><polygon class="cls-71" points="75.83 64.53 75.79 80.83 75.37 80.92 75.42 64.62 75.83 64.53"/><polygon class="cls-73" points="63.7 64.61 63.65 80.91 63.31 80.75 63.36 64.45 63.7 64.61"/><polygon class="cls-61" points="64.49 64.32 64.44 80.63 63.65 80.91 63.7 64.61 64.49 64.32"/><polygon class="cls-17" points="49.2 64.07 49.15 80.38 47.46 81.06 47.5 64.76 49.2 64.07"/><polygon class="cls-76" points="28.43 64.73 28.38 81.03 27.39 80.47 27.43 64.16 28.43 64.73"/><polygon class="cls-41" points="29.04 64.81 28.99 81.11 28.38 81.03 28.43 64.73 29.04 64.81"/><polygon class="cls-69" points="65.44 65.1 65.4 81.4 64.77 80.83 64.82 64.52 65.44 65.1"/><polygon class="cls-29" points="65.81 65.25 65.77 81.55 65.4 81.4 65.44 65.1 65.81 65.25"/><polygon class="cls-17" points="44.46 65.05 44.41 81.35 43.72 81.6 43.76 65.29 44.46 65.05"/><polygon class="cls-71" points="75.06 65.14 75.02 81.44 73.48 81.75 73.52 65.45 75.06 65.14"/><polygon class="cls-84" points="66.51 65.43 66.46 81.74 65.77 81.55 65.81 65.25 66.51 65.43"/><polygon class="cls-61" points="73.52 65.45 73.48 81.75 73.26 81.83 73.31 65.52 73.52 65.45"/><polygon class="cls-16" points="67.18 65.51 67.13 81.81 66.46 81.74 66.51 65.43 67.18 65.51"/><polygon class="cls-56" points="30.08 65.5 30.03 81.8 28.99 81.11 29.04 64.81 30.08 65.5"/><polygon class="cls-85" points="43.76 65.29 43.72 81.6 43.48 81.9 43.53 65.59 43.76 65.29"/><polygon class="cls-43" points="67.77 65.71 67.72 82.01 66.92 81.87 66.97 65.57 67.77 65.71"/><polygon class="cls-7" points="47.5 64.76 47.46 81.06 45.62 81.95 45.67 65.65 47.5 64.76"/><polygon class="cls-86" points="30.37 65.63 30.32 81.93 30.03 81.8 30.08 65.5 30.37 65.63"/><polygon class="cls-6" points="68.22 65.74 68.17 82.05 67.72 82.01 67.77 65.71 68.22 65.74"/><polygon class="cls-43" points="30.75 65.7 30.71 82 30.32 81.93 30.37 65.63 30.75 65.7"/><polygon class="cls-53" points="31.18 65.72 31.14 82.02 30.71 82 30.75 65.7 31.18 65.72"/><polygon class="cls-20" points="68.56 65.87 68.52 82.17 68.17 82.05 68.22 65.74 68.56 65.87"/><polygon class="cls-64" points="73.31 65.52 73.26 81.83 71.4 82.18 71.44 65.88 73.31 65.52"/><polygon class="cls-87" points="71.44 65.88 71.4 82.18 70.22 82.18 70.26 65.88 71.44 65.88"/><polygon class="cls-70" points="31.57 65.77 31.53 82.08 31.14 82.02 31.18 65.72 31.57 65.77"/><polygon class="cls-88" points="70.26 65.88 70.22 82.18 68.96 82.22 69.01 65.91 70.26 65.88"/><polygon class="cls-33" points="69.01 65.91 68.96 82.22 68.52 82.17 68.56 65.87 69.01 65.91"/><polygon class="cls-14" points="43.53 65.59 43.48 81.9 43.34 82.22 43.39 65.91 43.53 65.59"/><polygon class="cls-26" points="43.39 65.91 43.34 82.22 43.12 82.46 43.16 66.16 43.39 65.91"/><polygon class="cls-4" points="31.69 66.24 31.64 82.54 31.53 82.08 31.57 65.77 31.69 66.24"/><polygon class="cls-89" points="43.16 66.16 43.12 82.46 42.83 82.79 42.88 66.49 43.16 66.16"/><polygon class="cls-4" points="42.99 67.38 42.95 83.68 42.86 83.39 42.9 67.08 42.99 67.38"/><polygon class="cls-61" points="45.67 65.65 45.62 81.95 42.95 83.68 42.99 67.38 45.67 65.65"/><polygon class="cls-76" points="33.98 67.51 33.93 83.81 31.64 82.54 31.69 66.24 33.98 67.51"/><polygon class="cls-58" points="34.31 67.75 34.26 84.05 33.93 83.81 33.98 67.51 34.31 67.75"/><polygon class="cls-77" points="42.88 66.49 42.83 82.79 42.3 84.2 42.34 67.9 42.88 66.49"/><polygon class="cls-4" points="34.38 67.99 34.33 84.29 34.26 84.05 34.31 67.75 34.38 67.99"/><polygon class="cls-73" points="34.65 68.11 34.6 84.42 34.33 84.29 34.38 67.99 34.65 68.11"/><polygon class="cls-15" points="34.99 68.21 34.95 84.51 34.6 84.42 34.65 68.11 34.99 68.21"/><polygon class="cls-7" points="42.34 67.9 42.3 84.2 41.52 84.61 41.57 68.31 42.34 67.9"/><polygon class="cls-86" points="35.3 68.35 35.25 84.65 34.95 84.51 34.99 68.21 35.3 68.35"/><polygon class="cls-5" points="36.34 68.66 36.3 84.96 35.25 84.65 35.3 68.35 36.34 68.66"/><polygon class="cls-62" points="41.57 68.31 41.52 84.61 40.75 85.18 40.79 68.88 41.57 68.31"/><polygon class="cls-4" points="36.88 69.31 36.83 85.61 36.3 84.96 36.34 68.66 36.88 69.31"/><polygon class="cls-7" points="40.79 68.88 40.75 85.18 39.67 85.74 39.72 69.44 40.79 68.88"/><polygon class="cls-57" points="37.34 69.53 37.29 85.83 36.83 85.61 36.88 69.31 37.34 69.53"/><polygon class="cls-51" points="37.73 69.94 37.68 86.25 37.29 85.83 37.34 69.53 37.73 69.94"/><polygon class="cls-90" points="37.98 70.14 37.93 86.45 37.68 86.25 37.73 69.94 37.98 70.14"/><polygon class="cls-8" points="39.72 69.44 39.67 85.74 38.33 86.68 38.38 70.38 39.72 69.44"/><polygon class="cls-47" points="38.38 70.38 38.33 86.68 37.93 86.45 37.98 70.14 38.38 70.38"/><polygon class="cls-68" points="75.06 65.14 73.52 65.45 73.31 65.52 71.44 65.88 70.26 65.88 69.01 65.91 68.56 65.87 68.22 65.74 67.77 65.71 66.97 65.57 67.18 65.51 66.51 65.43 65.81 65.25 65.44 65.1 64.82 64.52 64.49 64.32 63.7 64.61 63.36 64.45 62.62 64.18 63.13 63.74 63.6 63.29 62.5 63.83 61.5 64.12 60.87 64.1 60.99 63.33 61.27 63.2 61.38 62.85 60.3 62.86 60.36 63.15 58.29 62.87 58.64 62.43 58.54 62.2 58.39 62.54 58.22 62.74 57.98 63.18 57.93 63.65 57.06 63.52 55.22 63.38 54.59 63.47 53.89 63.41 53.43 63.41 53.06 63.43 52.24 63.54 51.89 63.58 51.1 63.6 50.68 63.65 49.69 63.88 49.2 64.07 47.5 64.76 45.67 65.65 42.99 67.38 42.9 67.08 43.48 66.3 43.79 65.98 44.46 65.05 43.76 65.29 43.53 65.59 43.39 65.91 43.16 66.16 42.88 66.49 42.34 67.9 41.57 68.31 40.79 68.88 39.72 69.44 38.38 70.38 37.98 70.14 37.73 69.94 37.34 69.53 36.88 69.31 36.34 68.66 35.3 68.35 34.99 68.21 34.65 68.11 34.38 67.99 34.31 67.75 33.98 67.51 31.69 66.24 31.57 65.77 31.18 65.72 30.75 65.7 30.37 65.63 30.08 65.5 29.04 64.81 28.43 64.73 27.43 64.16 27.1 63.87 26.71 63.63 25.69 63.02 24.97 62.62 24.44 62.02 22.47 61.05 21.06 59.86 21.41 59.5 22.59 58.6 22.53 58.26 22.06 57.74 21.94 57.51 21.4 57.15 20.51 56.63 20.46 55.91 20.59 55.3 19.86 54.25 20.05 54.06 20.48 53.85 20.35 53.44 20.31 53.16 19.71 52.69 18.31 52.02 17.77 51.67 17.67 51.42 18.35 50.75 17.99 50.24 17.71 49.82 15.14 48.93 14.21 48.54 13.36 48.13 9.89 47.96 9.21 47.54 8.93 47.24 8.59 46.52 8.72 46.03 7.93 45.73 7.22 45.49 7 44.99 6.74 44.87 6.08 44.68 5.78 44.51 5.08 43.89 3.32 42.96 3.64 41.43 3.65 40.94 3.04 39.37 1.8 38.4 0.05 37.36 0.46 37.09 0.75 35.62 0.84 35.31 1.05 35.02 1.65 34.45 2.64 33.5 3.97 33.05 4.52 32.59 5.51 32.07 5.69 31.91 5.79 31.64 5.63 31.32 6.5 30.39 9.39 29.63 12.01 28.98 12.46 28.55 13 28.29 13.84 28.13 15.66 28.1 17.92 28.16 19.46 28.42 19.91 28.5 20.76 28.54 21.23 28.53 21.61 28.5 22.62 28.02 22.86 27.45 22.78 26.94 23.72 26.51 23.96 26.38 25.05 23.98 25.17 23.78 27.29 22.8 28.68 22.66 29.74 22.53 31.01 22.49 32.49 21.97 33.26 22.05 33.89 22.01 36.15 21.29 36.42 21.17 38.57 20.18 38.81 20.04 39.07 19.78 40.75 18.98 40.72 17.21 40.73 16.96 41.2 15.19 41.37 14.96 43.89 12.69 44.62 12.16 45.96 11.55 49.16 9.66 51.67 8.8 52.7 8.55 54.19 8.34 54.73 8.3 55.41 8.1 56.27 7.55 57.36 7.15 57.72 6.49 57.42 5.56 57.93 4.56 57.94 3.88 58.48 2.87 59.4 1.27 61.18 0 64.83 0.35 68.47 0.7 70.64 1.53 72.82 2.35 73.35 2.65 75.75 2.16 76.28 1.98 77.23 2.03 79.09 2.58 79.69 2.89 80.03 3.1 80.72 3.75 80.86 4.17 82.41 5.22 82.33 5.62 82 6.04 81.91 6.82 81.69 7.26 80.66 7.83 80.32 7.94 80.07 8.32 80.07 8.62 80.14 8.91 80.26 9.16 80.41 9.38 80.33 9.72 80.77 10.16 81.39 11.98 81.59 12.31 82.19 12.94 83.23 13.8 83.5 14.13 84.06 14.53 83.45 15.35 83.32 15.53 83.42 15.73 83.86 15.89 84.24 16.29 85.05 16.51 85.88 17.16 86.28 17.44 86.57 17.82 86.31 18.17 85.87 18.52 85.61 18.89 85.65 19.24 85.44 19.71 86.48 20.04 86.9 20.71 87.09 20.97 87.35 21.13 87.64 21.25 88.76 22.06 88.97 22.27 89.03 22.47 88.93 23.14 88.63 23.89 88.12 24.07 88.03 24.75 88.29 25.17 87.92 25.67 87.91 26.01 88.14 26.2 88.46 26.37 89.11 26.62 89.45 27.19 89.83 27.46 90.12 27.58 90.53 28.08 90.79 28.99 90.99 29.38 91.85 29.83 92 30.37 91.99 30.85 91.99 31.29 92.19 31.89 93.4 32.23 93.94 32.24 93.89 32.99 93.61 33.93 93.58 34.38 94.93 35.38 95 35.59 94.68 35.93 94.77 36.29 95.02 36.48 93.76 37.72 92.91 37.7 92.28 37.47 92 37.33 91.75 37.17 91.41 37 91.01 36.92 90.61 36.95 89.89 37.24 89.46 37.24 89.03 37.15 88.67 37.01 88.3 36.92 87.93 36.97 87.19 37.16 86.47 37.29 85.67 37.2 85.64 37.53 85.83 37.71 86.31 38.03 84.86 39.49 83.6 39.32 83.02 41.2 83.5 42.87 83.27 43.11 83.15 43.66 82.92 44.11 82.82 44.33 83.02 44.67 82.86 45.53 82.93 45.76 82.76 46.72 82.78 47.44 82.85 47.64 82.53 48.73 85.49 50.7 86.73 51.59 86.69 52.11 86.94 52.41 87.19 53.04 86.51 54.39 86.3 54.23 86.44 54.42 85.89 54.69 84.47 54.64 85.15 54.74 86.38 55.06 87.07 56.1 86.64 56.3 86.08 56.63 85.76 56.77 85.53 57.03 85.13 57.29 84.13 58.02 82.73 58.79 81.45 58.11 81.35 59.22 81.03 59.93 80.6 59.89 79.72 59.87 78.14 59.79 78.62 60.02 79.25 59.93 79.62 59.98 80.39 60.57 79.12 60.8 78.42 60.66 77.33 60.71 78.97 61.11 79.85 61.32 76.57 61.16 76.06 60.98 76.2 61.11 76.47 61.23 77.38 61.32 78.24 61.89 78.78 62.52 78.52 62.64 77.8 62.4 77.34 62.18 77 61.79 76.95 62.02 77.2 62.22 76.95 62.19 77.29 62.53 78.12 62.75 77.44 63.06 76.92 62.78 76.65 62.65 76.53 62.72 76.83 62.82 77.07 62.99 77.25 63.18 77.2 63.55 76.78 63.76 75.83 64.53 75.42 64.62 75.27 64.38 75.21 63.84 75.03 64.27 74.64 64.08 74.2 63.95 75.06 65.14"/></g></g></g></svg>