<svg xmlns="http://www.w3.org/2000/svg" viewBox="0 0 97.9 110.13"><defs><style>.cls-1{isolation:isolate;}.cls-2{fill:#6e1b1b;}.cls-3{fill:#8f2323;}.cls-4{fill:#7a1e1e;}.cls-5{fill:#a92929;}.cls-6{fill:#a72929;}.cls-7{fill:#992525;}.cls-8{fill:#9c2626;}.cls-9{fill:#a32828;}.cls-10{fill:#a82929;}.cls-11{fill:#a62929;}.cls-12{fill:#a02727;}.cls-13{fill:#561515;}.cls-14{fill:#922424;}.cls-15{fill:#551515;}.cls-16{fill:#852121;}.cls-17{fill:#8c2222;}.cls-18{fill:#932424;}.cls-19{fill:#a22828;}.cls-20{fill:#4a1212;}.cls-21{fill:#a42828;}.cls-22{fill:#4f1313;}.cls-23{fill:#4e1313;}.cls-24{fill:#862121;}.cls-25{fill:#691a1a;}.cls-26{fill:#6b1a1a;}.cls-27{fill:#902323;}.cls-28{fill:#8b2222;}.cls-29{fill:#9d2626;}.cls-30{fill:#a52828;}.cls-31{fill:#791e1e;}.cls-32{fill:#8a2222;}.cls-33{fill:#9e2727;}.cls-34{fill:#481212;}.cls-35{fill:#491212;}.cls-36{fill:#942424;}.cls-37{fill:#9f2727;}.cls-38{fill:#651919;}.cls-39{fill:#741c1c;}.cls-40{fill:#812020;}.cls-41{fill:#892222;}.cls-42{fill:#4b1212;}.cls-43{fill:#701c1c;}.cls-44{fill:#5d1717;}.cls-45{fill:#822020;}.cls-46{fill:#912424;}.cls-47{fill:#7b1e1e;}.cls-48{fill:#832020;}.cls-49{fill:#731c1c;}.cls-50{fill:#9b2626;}.cls-51{fill:#c83131;}.cls-52{fill:#6a1a1a;}</style></defs><title>Niger</title><g id="Layer_2" data-name="Layer 2"><g id="Layer_1-2" data-name="Layer 1"><g class="cls-1"><polygon class="cls-2" points="97.91 43.63 97.86 59.93 97.76 60.6 97.81 44.29 97.91 43.63"/><polygon class="cls-3" points="97.81 44.29 97.76 60.6 96.57 62.41 96.61 46.11 97.81 44.29"/><polygon class="cls-4" points="96.61 46.11 96.57 62.41 95.79 64.86 95.83 48.55 96.61 46.11"/><polygon class="cls-5" points="96.45 49.45 96.41 65.75 94.2 66.7 94.25 50.4 96.45 49.45"/><polygon class="cls-6" points="94.25 50.4 94.2 66.7 93.31 67.29 93.36 50.98 94.25 50.4"/><polygon class="cls-7" points="93.36 50.98 93.31 67.29 92.57 67.36 92.61 51.06 93.36 50.98"/><polygon class="cls-8" points="92.61 51.06 92.57 67.36 91.08 67.57 91.13 51.27 92.61 51.06"/><polygon class="cls-9" points="91.13 51.27 91.08 67.57 90.05 67.82 90.1 51.52 91.13 51.27"/><polygon class="cls-6" points="90.1 51.52 90.05 67.82 87.54 68.69 87.59 52.38 90.1 51.52"/><polygon class="cls-10" points="87.59 52.38 87.54 68.69 84.34 70.57 84.38 54.27 87.59 52.38"/><polygon class="cls-5" points="84.38 54.27 84.34 70.57 83 71.19 83.05 54.88 84.38 54.27"/><polygon class="cls-11" points="83.05 54.88 83 71.19 82.41 71.59 82.45 55.29 83.05 54.88"/><polygon class="cls-12" points="82.45 55.29 82.41 71.59 79.75 73.98 79.8 57.68 82.45 55.29"/><polygon class="cls-13" points="0.92 57.6 0.88 73.9 0 73.41 0.05 57.1 0.92 57.6"/><polygon class="cls-14" points="79.8 57.68 79.75 73.98 79.58 74.21 79.63 57.91 79.8 57.68"/><polygon class="cls-15" points="1.79 58.1 1.74 74.41 0.88 73.9 0.92 57.6 1.79 58.1"/><polygon class="cls-13" points="2.66 58.6 2.61 74.9 1.74 74.41 1.79 58.1 2.66 58.6"/><polygon class="cls-16" points="79.63 57.91 79.58 74.21 79.04 75.35 79.08 59.05 79.63 57.91"/><polygon class="cls-15" points="3.54 59.1 3.49 75.41 2.61 74.9 2.66 58.6 3.54 59.1"/><polygon class="cls-13" points="4.39 59.59 4.34 75.89 3.49 75.41 3.54 59.1 4.39 59.59"/><polygon class="cls-15" points="5.26 60.09 5.21 76.39 4.34 75.89 4.39 59.59 5.26 60.09"/><polygon class="cls-13" points="6.12 60.58 6.07 76.88 5.21 76.39 5.26 60.09 6.12 60.58"/><polygon class="cls-15" points="6.98 61.08 6.93 77.38 6.07 76.88 6.12 60.58 6.98 61.08"/><polygon class="cls-15" points="7.84 61.58 7.8 77.88 6.93 77.38 6.98 61.08 7.84 61.58"/><polygon class="cls-15" points="8.22 61.79 8.17 78.09 7.8 77.88 7.84 61.58 8.22 61.79"/><polygon class="cls-13" points="8.71 62.07 8.66 78.37 8.17 78.09 8.22 61.79 8.71 62.07"/><polygon class="cls-10" points="79.36 61.37 79.31 77.67 77.56 78.72 77.61 62.42 79.36 61.37"/><polygon class="cls-15" points="9.57 62.57 9.53 78.87 8.66 78.37 8.71 62.07 9.57 62.57"/><polygon class="cls-12" points="77.61 62.42 77.56 78.72 77.19 79.06 77.24 62.76 77.61 62.42"/><polygon class="cls-15" points="10.43 63.06 10.38 79.36 9.53 78.87 9.57 62.57 10.43 63.06"/><polygon class="cls-13" points="11.3 63.55 11.25 79.86 10.38 79.36 10.43 63.06 11.3 63.55"/><polygon class="cls-5" points="77.24 62.76 77.19 79.06 74.8 80.2 74.85 63.89 77.24 62.76"/><polygon class="cls-15" points="12.15 64.05 12.11 80.35 11.25 79.86 11.3 63.55 12.15 64.05"/><polygon class="cls-13" points="13.01 64.54 12.97 80.84 12.11 80.35 12.15 64.05 13.01 64.54"/><polygon class="cls-17" points="72.32 64.73 72.27 81.03 71.13 81 71.18 64.7 72.32 64.73"/><polygon class="cls-6" points="74.85 63.89 74.8 80.2 72.27 81.03 72.32 64.73 74.85 63.89"/><polygon class="cls-18" points="71.18 64.7 71.13 81 70.35 81.04 70.4 64.73 71.18 64.7"/><polygon class="cls-15" points="13.87 65.03 13.82 81.34 12.97 80.84 13.01 64.54 13.87 65.03"/><polygon class="cls-19" points="70.4 64.73 70.35 81.04 68.12 81.55 68.17 65.25 70.4 64.73"/><polygon class="cls-15" points="14.31 65.29 14.26 81.59 13.82 81.34 13.87 65.03 14.31 65.29"/><polygon class="cls-20" points="15.12 66.05 15.07 82.35 14.26 81.59 14.31 65.29 15.12 66.05"/><polygon class="cls-21" points="68.17 65.25 68.12 81.55 63.76 82.67 63.8 66.36 68.17 65.25"/><polygon class="cls-22" points="15.97 66.65 15.93 82.95 15.07 82.35 15.12 66.05 15.97 66.65"/><polygon class="cls-15" points="16.41 66.91 16.37 83.21 15.93 82.95 15.97 66.65 16.41 66.91"/><polygon class="cls-13" points="17.34 67.43 17.29 83.73 16.37 83.21 16.41 66.91 17.34 67.43"/><polygon class="cls-15" points="17.93 67.78 17.89 84.08 17.29 83.73 17.34 67.43 17.93 67.78"/><polygon class="cls-23" points="18.81 68.44 18.76 84.75 17.89 84.08 17.93 67.78 18.81 68.44"/><polygon class="cls-24" points="63.8 66.36 63.76 82.67 62.48 85.23 62.52 68.93 63.8 66.36"/><polygon class="cls-5" points="62.52 68.93 62.48 85.23 61.28 85.86 61.33 69.56 62.52 68.93"/><polygon class="cls-25" points="61.33 69.56 61.28 85.86 61.24 86.47 61.28 70.17 61.33 69.56"/><polygon class="cls-26" points="61.28 70.17 61.24 86.47 61.2 86.81 61.25 70.51 61.28 70.17"/><polygon class="cls-20" points="20.35 70.7 20.31 87 18.65 85.46 18.7 69.16 20.35 70.7"/><polygon class="cls-27" points="54.08 70.82 54.04 87.12 52.22 87.15 52.26 70.85 54.08 70.82"/><polygon class="cls-28" points="56.35 70.88 56.3 87.18 54.04 87.12 54.08 70.82 56.35 70.88"/><polygon class="cls-29" points="52.26 70.85 52.22 87.15 51.52 87.26 51.57 70.96 52.26 70.85"/><polygon class="cls-30" points="61.25 70.51 61.2 86.81 60.51 87.33 60.56 71.03 61.25 70.51"/><polygon class="cls-4" points="57.88 71.14 57.84 87.44 56.3 87.18 56.35 70.88 57.88 71.14"/><polygon class="cls-10" points="51.57 70.96 51.52 87.26 50.94 87.48 50.99 71.18 51.57 70.96"/><polygon class="cls-31" points="58.34 71.22 58.3 87.53 57.84 87.44 57.88 71.14 58.34 71.22"/><polygon class="cls-32" points="59.19 71.25 59.14 87.56 58.3 87.53 58.34 71.22 59.19 71.25"/><polygon class="cls-33" points="60.56 71.03 60.51 87.33 59.14 87.56 59.19 71.25 60.56 71.03"/><polygon class="cls-34" points="20.49 71.4 20.45 87.7 20.31 87 20.35 70.7 20.49 71.4"/><polygon class="cls-17" points="50.99 71.18 50.94 87.48 50.67 87.92 50.72 71.61 50.99 71.18"/><polygon class="cls-21" points="50.72 71.61 50.67 87.92 47.77 88.66 47.82 72.35 50.72 71.61"/><polygon class="cls-34" points="21.38 72.64 21.34 88.94 20.45 87.7 20.49 71.4 21.38 72.64"/><polygon class="cls-9" points="47.82 72.35 47.77 88.66 45.15 89.31 45.2 73.01 47.82 72.35"/><polygon class="cls-11" points="45.2 73.01 45.15 89.31 44.08 90.08 44.13 73.77 45.2 73.01"/><polygon class="cls-34" points="20.91 73.85 20.87 90.16 20.8 89.53 20.85 73.22 20.91 73.85"/><polygon class="cls-35" points="21.33 75.1 21.29 91.41 20.75 90.84 20.8 74.54 21.33 75.1"/><polygon class="cls-36" points="44.13 73.77 44.08 90.08 42.9 91.61 42.95 75.31 44.13 73.77"/><polygon class="cls-19" points="42.95 75.31 42.9 91.61 42.35 92.07 42.4 75.77 42.95 75.31"/><polygon class="cls-5" points="42.4 75.77 42.35 92.07 41.94 92.28 41.99 75.98 42.4 75.77"/><polygon class="cls-10" points="41.99 75.98 41.94 92.28 40.03 93.47 40.08 77.17 41.99 75.98"/><polygon class="cls-37" points="40.08 77.17 40.03 93.47 39.43 94.04 39.48 77.74 40.08 77.17"/><polygon class="cls-14" points="39.48 77.74 39.43 94.04 39.22 94.33 39.27 78.03 39.48 77.74"/><polygon class="cls-31" points="39.27 78.03 39.22 94.33 39.13 94.64 39.18 78.34 39.27 78.03"/><polygon class="cls-38" points="39.18 78.34 39.13 94.64 39.09 95.82 39.14 79.52 39.18 78.34"/><polygon class="cls-19" points="39.14 79.52 39.09 95.82 38.43 96.38 38.47 80.08 39.14 79.52"/><polygon class="cls-38" points="42.08 83.66 42.03 99.97 42.02 100.45 42.07 84.15 42.08 83.66"/><polygon class="cls-39" points="42.07 84.15 42.02 100.45 41.67 101.92 41.71 85.62 42.07 84.15"/><polygon class="cls-40" points="47.01 89.06 46.97 105.37 45.45 105.2 45.49 88.9 47.01 89.06"/><polygon class="cls-33" points="45.49 88.9 45.45 105.2 44.41 105.37 44.45 89.07 45.49 88.9"/><polygon class="cls-40" points="40.12 89.17 40.08 105.47 39.41 105.4 39.46 89.1 40.12 89.17"/><polygon class="cls-36" points="39.46 89.1 39.41 105.4 37.24 105.51 37.28 89.21 39.46 89.1"/><polygon class="cls-41" points="43.09 89.3 43.05 105.6 40.08 105.47 40.12 89.17 43.09 89.3"/><polygon class="cls-33" points="44.45 89.07 44.41 105.37 43.05 105.6 43.09 89.3 44.45 89.07"/><polygon class="cls-42" points="3.22 89.92 3.17 106.22 2.39 105.55 2.44 89.25 3.22 89.92"/><polygon class="cls-43" points="4.05 90.13 4 106.44 3.17 106.22 3.22 89.92 4.05 90.13"/><polygon class="cls-34" points="4.88 91.12 4.83 107.42 4 106.44 4.05 90.13 4.88 91.12"/><polygon class="cls-8" points="31.8 90.95 31.75 107.26 29.26 107.59 29.31 91.29 31.8 90.95"/><polygon class="cls-44" points="5.26 91.29 5.21 107.6 4.83 107.42 4.88 91.12 5.26 91.29"/><polygon class="cls-45" points="5.96 91.37 5.91 107.67 5.21 107.6 5.26 91.29 5.96 91.37"/><polygon class="cls-46" points="7.79 91.32 7.74 107.62 5.91 107.67 5.96 91.37 7.79 91.32"/><polygon class="cls-44" points="33.1 91.56 33.06 107.86 31.75 107.26 31.8 90.95 33.1 91.56"/><polygon class="cls-17" points="17.28 91.85 17.23 108.16 16.68 108.14 16.72 91.84 17.28 91.85"/><polygon class="cls-8" points="16.72 91.84 16.68 108.14 16.1 108.23 16.15 91.93 16.72 91.84"/><polygon class="cls-16" points="37.28 89.21 37.24 105.51 35.86 108.34 35.91 92.03 37.28 89.21"/><polygon class="cls-47" points="18.33 92.03 18.28 108.33 17.23 108.16 17.28 91.85 18.33 92.03"/><polygon class="cls-11" points="16.15 91.93 16.1 108.23 15.71 108.36 15.75 92.05 16.15 91.93"/><polygon class="cls-48" points="19.75 92.16 19.7 108.46 18.28 108.33 18.33 92.03 19.75 92.16"/><polygon class="cls-34" points="32.8 92.54 32.75 108.84 32.52 108.28 32.56 91.98 32.8 92.54"/><polygon class="cls-48" points="33.47 92.61 33.43 108.91 32.75 108.84 32.8 92.54 33.47 92.61"/><polygon class="cls-48" points="34.66 92.72 34.62 109.02 33.43 108.91 33.47 92.61 34.66 92.72"/><polygon class="cls-14" points="29.31 91.29 29.26 107.59 28.2 109.07 28.25 92.76 29.31 91.29"/><polygon class="cls-10" points="15.75 92.05 15.71 108.36 13.83 109.04 13.88 92.73 15.75 92.05"/><polygon class="cls-49" points="13.88 92.73 13.83 109.04 7.74 107.62 7.79 91.32 13.88 92.73"/><polygon class="cls-48" points="35.79 92.83 35.74 109.13 34.62 109.02 34.66 92.72 35.79 92.83"/><polygon class="cls-48" points="37.04 92.95 37 109.25 35.74 109.13 35.79 92.83 37.04 92.95"/><polygon class="cls-5" points="28.25 92.76 28.2 109.07 27.47 109.43 27.51 93.13 28.25 92.76"/><polygon class="cls-15" points="19.16 93.1 19.12 109.41 18.54 109.07 18.59 92.77 19.16 93.1"/><polygon class="cls-50" points="27.51 93.13 27.47 109.43 26.06 109.61 26.11 93.31 27.51 93.13"/><polygon class="cls-18" points="26.11 93.31 26.06 109.61 25.39 109.64 25.44 93.34 26.11 93.31"/><polygon class="cls-18" points="25.44 93.34 25.39 109.64 24.39 109.69 24.44 93.39 25.44 93.34"/><polygon class="cls-36" points="24.44 93.39 24.39 109.69 23.18 109.75 23.23 93.45 24.44 93.39"/><polygon class="cls-13" points="19.81 93.47 19.76 109.77 19.12 109.41 19.16 93.1 19.81 93.47"/><polygon class="cls-18" points="23.23 93.45 23.18 109.75 22.44 109.79 22.49 93.49 23.23 93.45"/><polygon class="cls-18" points="22.49 93.49 22.44 109.79 21.75 109.82 21.79 93.52 22.49 93.49"/><polygon class="cls-51" points="68.61 7.02 69.72 7.88 69.95 8.32 70.17 8.75 70.39 9.18 70.81 9.79 71.38 10.17 71.68 10.37 71.97 10.57 72.26 10.77 72.55 10.97 72.85 11.18 73.15 11.38 73.44 11.57 73.73 11.77 74.02 11.98 74.31 12.18 74.61 12.37 74.91 12.58 75.2 12.78 75.49 12.98 75.78 13.18 76.08 13.38 76.37 13.58 76.67 13.78 76.95 13.98 77.25 14.18 77.54 14.38 77.83 14.57 78.13 14.77 78.42 14.98 78.7 15.17 79 15.37 79.29 15.57 79.58 15.77 79.87 15.97 80.17 16.17 80.46 16.37 80.75 16.57 81.03 16.77 81.33 16.97 81.62 17.17 81.92 17.37 82.21 17.57 82.5 17.76 82.79 17.96 83.37 18.36 83.66 18.56 83.95 18.76 84.24 18.95 84.53 19.15 84.82 19.35 85.11 19.55 85.4 19.75 85.69 19.95 85.98 20.14 86.27 20.34 86.56 20.54 86.85 20.74 87.14 20.94 87.43 21.14 87.72 21.34 88.3 21.73 88.59 21.93 88.87 22.12 89.17 22.32 89.45 22.52 89.74 22.72 90.07 23.34 90.11 23.78 90.14 24.24 90.17 24.68 90.2 25.13 90.24 25.58 90.26 26.03 90.3 26.47 90.33 26.92 90.36 27.37 90.39 27.82 90.42 28.27 90.45 28.71 90.49 29.16 90.51 29.61 90.55 30.06 90.57 30.5 90.6 30.81 90.63 31.28 90.66 31.72 90.73 31.98 90.81 32.25 90.9 32.53 90.98 32.81 91.07 33.08 91.15 33.36 91.22 33.64 91.31 33.91 91.39 34.19 91.48 34.47 91.55 34.74 91.64 35.02 91.72 35.29 91.81 35.57 91.88 35.84 91.96 36.12 92.05 36.4 92.13 36.66 92.32 36.98 92.58 37.37 93.47 37.92 93.47 38.71 93.55 40.43 93.95 40.67 94.56 40.87 94.99 41.02 95.38 41.16 97.91 43.63 97.81 44.29 96.61 46.11 95.83 48.55 96.45 49.45 94.25 50.4 93.36 50.98 92.61 51.06 91.13 51.27 90.1 51.52 87.59 52.38 84.38 54.27 83.05 54.88 82.45 55.29 79.8 57.68 79.63 57.91 79.08 59.05 79.15 59.93 79.36 61.37 77.61 62.42 77.24 62.76 74.85 63.89 72.32 64.73 71.18 64.7 70.4 64.73 68.17 65.25 63.8 66.36 62.52 68.93 61.33 69.56 61.28 70.17 61.25 70.51 60.56 71.03 59.19 71.25 58.34 71.22 57.88 71.14 56.35 70.88 54.08 70.82 52.26 70.85 51.57 70.96 50.99 71.18 50.72 71.61 47.82 72.35 45.2 73.01 44.13 73.77 42.95 75.31 42.4 75.77 41.99 75.98 40.08 77.17 39.48 77.74 39.27 78.03 39.18 78.34 39.14 79.52 38.47 80.08 40.09 81.02 41.47 82.08 42.08 83.66 42.07 84.15 41.71 85.62 43.51 86.61 44.21 87.23 45.17 87.59 46.07 88.41 47.01 89.06 45.49 88.9 44.45 89.07 43.09 89.3 40.12 89.17 39.46 89.1 37.28 89.21 35.91 92.03 36.77 92.27 37.04 92.95 35.79 92.83 34.66 92.72 33.47 92.61 32.8 92.54 32.56 91.98 33.1 91.56 31.8 90.95 29.31 91.29 28.25 92.76 27.51 93.13 26.11 93.31 25.44 93.34 24.44 93.39 23.23 93.45 22.49 93.49 21.79 93.52 20.98 93.83 19.81 93.47 19.16 93.1 18.59 92.77 19.3 92.31 19.75 92.16 18.33 92.03 17.28 91.85 16.72 91.84 16.15 91.93 15.75 92.05 13.88 92.73 7.79 91.32 5.96 91.37 5.26 91.29 4.88 91.12 4.05 90.13 3.22 89.92 2.44 89.25 3.34 88.7 4.01 88.09 5.61 87.58 7.04 86.47 7.3 85.58 7.33 85.1 7.36 84.5 7.38 84 8.09 83.38 8.71 83 9.33 82.61 9.95 82.23 10.56 81.84 11.18 81.46 11.79 81.08 12.41 80.69 13.03 80.31 13.65 79.92 14.26 79.54 14.88 79.16 15.5 78.78 16.11 78.39 16.74 78 17.34 77.62 17.97 77.24 18.28 77.04 19.09 76.03 20.54 75.43 21.33 75.1 20.8 74.54 20.91 73.85 20.85 73.22 21.38 72.64 20.49 71.4 20.35 70.7 18.7 69.16 18.81 68.44 17.93 67.78 17.34 67.43 16.41 66.91 15.97 66.65 15.12 66.05 14.31 65.29 13.87 65.03 13.01 64.54 12.15 64.05 11.3 63.55 10.43 63.06 9.57 62.57 8.71 62.07 8.22 61.79 7.84 61.58 6.98 61.08 6.12 60.58 5.26 60.09 4.39 59.59 3.54 59.1 2.66 58.6 1.79 58.1 0.92 57.6 0.05 57.1 1.05 56.23 2.04 55.36 3.03 54.49 4.03 53.62 4.55 53.16 5.71 52.15 6.86 51.13 7.39 50.67 8.06 50.08 8.25 49.84 8.33 49.56 8.38 48.98 8.42 48.52 8.45 48.05 8.49 47.59 8.52 47.13 8.56 46.67 8.6 46.2 8.64 45.74 8.67 45.28 8.7 44.82 8.74 44.35 8.77 43.89 8.8 43.43 8.84 42.96 8.88 42.5 8.91 42.04 8.95 41.58 8.97 41.15 9 40.87 9.06 40.32 9.13 39.81 9.18 39.3 9.25 38.78 9.3 38.27 9.39 37.56 9.71 36.74 9.87 36.31 10.04 35.89 10.2 35.46 10.37 35.04 10.54 34.61 10.7 34.18 10.87 33.76 11.03 33.33 11.2 32.91 11.36 32.48 11.53 32.05 11.7 31.63 11.86 31.2 12.02 30.78 12.19 30.35 12.35 29.93 12.51 29.5 12.67 29.07 12.84 28.65 13.01 28.22 13.17 27.79 13.33 27.36 13.49 26.93 13.66 26.51 13.83 26.08 13.99 25.66 14.15 25.23 14.32 24.8 14.48 24.37 14.64 23.95 14.81 23.52 14.97 23.09 15.14 22.67 15.3 22.24 15.46 21.81 15.63 21.38 15.79 20.96 15.95 20.53 16.11 20.11 16.27 19.68 16.44 19.25 16.6 18.82 16.76 18.39 16.93 17.97 17.08 17.54 17.25 17.11 17.41 16.68 17.57 16.25 17.73 15.82 17.9 15.4 18.06 14.97 18.22 14.54 18.38 14.11 18.54 13.68 18.71 13.26 18.86 12.82 19.03 12.4 19.18 11.97 19.35 11.54 19.51 11.11 19.67 10.69 19.83 10.26 19.99 9.83 20.15 9.4 20.87 9.14 21.6 8.88 22.33 8.63 23.05 8.37 23.77 8.11 24.5 7.86 25.23 7.6 25.95 7.34 26.68 7.08 27.4 6.83 28.13 6.57 28.86 6.32 29.58 6.06 30.3 5.8 31.03 5.54 31.76 5.29 32.59 4.99 33.81 4.79 34.51 4.77 36.08 4.71 37.65 4.66 39.22 4.6 40.78 4.55 41.35 4.53 41.78 4.06 42.29 3.05 42.79 2.03 43.31 1.01 43.82 0 44.36 0.21 44.89 0.42 45.41 0.64 45.94 0.85 46.47 1.06 47 1.27 47.53 1.49 48.06 1.7 48.59 1.91 49.11 2.13 49.64 2.34 50.17 2.56 50.7 2.77 51.22 2.98 51.58 3.12 51.93 3.27 52.8 3.69 53.33 3.99 53.94 4.33 54.55 4.67 55.09 4.98 55.46 5.19 56.62 5.33 57.35 5.34 62.47 6.25 62.58 6.5 62.85 6.72 63.22 6.88 64.96 6.91 66.17 6.95 66.97 6.97 67.79 7 68.61 7.02"/><polygon class="cls-52" points="20.98 93.83 20.93 110.13 19.76 109.77 19.81 93.47 20.98 93.83"/><polygon class="cls-10" points="21.79 93.52 21.75 109.82 20.93 110.13 20.98 93.83 21.79 93.52"/></g></g></g></svg>