<svg xmlns="http://www.w3.org/2000/svg" viewBox="0 0 15.4 28.43"><defs><style>.cls-1{isolation:isolate;}.cls-2{fill:#481212;}.cls-3{fill:#4c1313;}.cls-4{fill:#4e1313;}.cls-5{fill:#491212;}.cls-6{fill:#731c1c;}.cls-7{fill:#771d1d;}.cls-8{fill:#942424;}.cls-9{fill:#7f1f1f;}.cls-10{fill:#a02727;}.cls-11{fill:#8a2222;}.cls-12{fill:#982525;}.cls-13{fill:#a82929;}.cls-14{fill:#a72929;}.cls-15{fill:#a42828;}.cls-16{fill:#741c1c;}.cls-17{fill:#691a1a;}.cls-18{fill:#a62929;}.cls-19{fill:#a92929;}.cls-20{fill:#812020;}.cls-21{fill:#882121;}.cls-22{fill:#a12828;}.cls-23{fill:#6e1b1b;}.cls-24{fill:#952424;}.cls-25{fill:#801f1f;}.cls-26{fill:#6f1b1b;}.cls-27{fill:#8d2323;}.cls-28{fill:#972525;}.cls-29{fill:#a12727;}.cls-30{fill:#a22828;}.cls-31{fill:#781d1d;}.cls-32{fill:#9a2626;}.cls-33{fill:#962525;}.cls-34{fill:#922424;}.cls-35{fill:#892222;}.cls-36{fill:#932424;}.cls-37{fill:#9b2626;}.cls-38{fill:#591616;}.cls-39{fill:#611818;}.cls-40{fill:#832020;}.cls-41{fill:#4d1313;}.cls-42{fill:#a52828;}.cls-43{fill:#8f2323;}.cls-44{fill:#7d1f1f;}.cls-45{fill:#4a1212;}.cls-46{fill:#9f2727;}.cls-47{fill:#8c2222;}.cls-48{fill:#9d2626;}.cls-49{fill:#501414;}.cls-50{fill:#902323;}.cls-51{fill:#681919;}.cls-52{fill:#791e1e;}.cls-53{fill:#621818;}.cls-54{fill:#912424;}.cls-55{fill:#741d1d;}.cls-56{fill:#5a1616;}.cls-57{fill:#5b1616;}.cls-58{fill:#631818;}.cls-59{fill:#6b1a1a;}.cls-60{fill:#8e2323;}.cls-61{fill:#a32828;}.cls-62{fill:#c83131;}</style></defs><title>Rwanda</title><g id="Layer_2" data-name="Layer 2"><g id="Layer_1-2" data-name="Layer 1"><g class="cls-1"><polygon class="cls-2" points="3.69 0.6 3.64 16.9 3.6 16.82 3.65 0.52 3.69 0.6"/><polygon class="cls-3" points="3.92 0.78 3.87 17.09 3.64 16.9 3.69 0.6 3.92 0.78"/><polygon class="cls-2" points="3.98 0.86 3.94 17.17 3.87 17.09 3.92 0.78 3.98 0.86"/><polygon class="cls-2" points="3.93 1.08 3.88 17.38 3.86 17.35 3.91 1.05 3.93 1.08"/><polygon class="cls-4" points="4.01 1.14 3.96 17.45 3.88 17.38 3.93 1.08 4.01 1.14"/><polygon class="cls-5" points="4.04 1.18 4 17.48 3.96 17.45 4.01 1.14 4.04 1.18"/><polygon class="cls-2" points="4.09 1.28 4.04 17.59 4 17.48 4.04 1.18 4.09 1.28"/><polygon class="cls-2" points="4.11 1.4 4.07 17.7 4.04 17.59 4.09 1.28 4.11 1.4"/><polygon class="cls-6" points="12.4 1.84 12.35 18.14 12.33 18.25 12.38 1.95 12.4 1.84"/><polygon class="cls-2" points="3.95 2.06 3.9 18.36 3.86 18.28 3.9 1.98 3.95 2.06"/><polygon class="cls-3" points="4.17 2.23 4.12 18.54 3.9 18.36 3.95 2.06 4.17 2.23"/><polygon class="cls-2" points="4.23 2.31 4.18 18.61 4.12 18.54 4.17 2.23 4.23 2.31"/><polygon class="cls-2" points="4.23 2.39 4.19 18.69 4.18 18.61 4.23 2.31 4.23 2.39"/><polygon class="cls-2" points="4.04 3.03 4 19.33 3.91 19.21 3.96 2.91 4.04 3.03"/><polygon class="cls-7" points="15.4 3.49 15.35 19.79 15.33 19.88 15.38 3.58 15.4 3.49"/><polygon class="cls-8" points="15.38 3.58 15.33 19.88 15.26 19.97 15.31 3.67 15.38 3.58"/><polygon class="cls-2" points="1.85 3.67 1.8 19.98 1.79 19.9 1.83 3.6 1.85 3.67"/><polygon class="cls-9" points="15.31 3.67 15.26 19.97 15.22 20.07 15.27 3.76 15.31 3.67"/><polygon class="cls-2" points="1.93 3.77 1.88 20.07 1.8 19.98 1.85 3.67 1.93 3.77"/><polygon class="cls-10" points="15.27 3.76 15.22 20.07 15.15 20.13 15.2 3.83 15.27 3.76"/><polygon class="cls-11" points="15.2 3.83 15.15 20.13 15.13 20.17 15.17 3.87 15.2 3.83"/><polygon class="cls-12" points="15.17 3.87 15.13 20.17 15.09 20.22 15.14 3.92 15.17 3.87"/><polygon class="cls-13" points="15.14 3.92 15.09 20.22 15.02 20.24 15.07 3.94 15.14 3.92"/><polygon class="cls-10" points="15.07 3.94 15.02 20.24 14.51 20.34 14.55 4.04 15.07 3.94"/><polygon class="cls-14" points="14.55 4.04 14.51 20.34 14.42 20.37 14.46 4.07 14.55 4.04"/><polygon class="cls-15" points="14.46 4.07 14.42 20.37 14.34 20.43 14.39 4.13 14.46 4.07"/><polygon class="cls-16" points="14.39 4.13 14.34 20.43 14.32 20.51 14.37 4.21 14.39 4.13"/><polygon class="cls-17" points="14.45 4.36 14.4 20.67 14.4 20.75 14.45 4.44 14.45 4.36"/><polygon class="cls-14" points="14.45 4.44 14.4 20.75 14.27 20.83 14.31 4.53 14.45 4.44"/><polygon class="cls-18" points="14.31 4.53 14.27 20.83 14.07 20.89 14.12 4.59 14.31 4.53"/><polygon class="cls-19" points="14.12 4.59 14.07 20.89 13.92 20.96 13.96 4.66 14.12 4.59"/><polygon class="cls-20" points="13.96 4.66 13.92 20.96 13.87 21.08 13.91 4.77 13.96 4.66"/><polygon class="cls-19" points="13.91 4.77 13.87 21.08 13.64 21.2 13.69 4.89 13.91 4.77"/><polygon class="cls-21" points="12.49 4.96 12.45 21.27 12.38 21.26 12.42 4.96 12.49 4.96"/><polygon class="cls-22" points="13.69 4.89 13.64 21.2 13.32 21.27 13.37 4.96 13.69 4.89"/><polygon class="cls-23" points="12.62 5 12.57 21.3 12.45 21.27 12.49 4.96 12.62 5"/><polygon class="cls-24" points="13.37 4.96 13.32 21.27 12.66 21.31 12.71 5.01 13.37 4.96"/><polygon class="cls-25" points="12.71 5.01 12.66 21.31 12.57 21.3 12.62 5 12.71 5.01"/><polygon class="cls-19" points="12.42 4.96 12.38 21.26 12.11 21.38 12.15 5.07 12.42 4.96"/><polygon class="cls-18" points="12.15 5.07 12.11 21.38 11.98 21.46 12.03 5.16 12.15 5.07"/><polygon class="cls-26" points="12.03 5.16 11.98 21.46 11.97 21.53 12.02 5.23 12.03 5.16"/><polygon class="cls-2" points="0.53 5.4 0.48 21.7 0.47 21.43 0.51 5.13 0.53 5.4"/><polygon class="cls-27" points="12.04 5.4 11.99 21.71 11.94 21.79 11.99 5.49 12.04 5.4"/><polygon class="cls-28" points="11.99 5.49 11.94 21.79 11.86 21.89 11.91 5.58 11.99 5.49"/><polygon class="cls-2" points="0.6 5.59 0.55 21.89 0.48 21.7 0.53 5.4 0.6 5.59"/><polygon class="cls-29" points="11.91 5.58 11.86 21.89 11.76 21.98 11.8 5.67 11.91 5.58"/><polygon class="cls-14" points="11.8 5.67 11.76 21.98 11.66 22.04 11.71 5.74 11.8 5.67"/><polygon class="cls-18" points="11.71 5.74 11.66 22.04 11.55 22.07 11.6 5.77 11.71 5.74"/><polygon class="cls-30" points="11.6 5.77 11.55 22.07 11.25 22.14 11.3 5.83 11.6 5.77"/><polygon class="cls-19" points="11.3 5.83 11.25 22.14 11.17 22.18 11.21 5.88 11.3 5.83"/><polygon class="cls-2" points="0.07 6.16 0.02 22.46 0 22.36 0.05 6.06 0.07 6.16"/><polygon class="cls-31" points="11.39 6.38 11.35 22.68 11.32 22.79 11.36 6.48 11.39 6.38"/><polygon class="cls-2" points="0.27 6.48 0.22 22.78 0.02 22.46 0.07 6.16 0.27 6.48"/><polygon class="cls-14" points="11.36 6.48 11.32 22.79 11.17 22.88 11.22 6.58 11.36 6.48"/><polygon class="cls-2" points="0.28 6.57 0.24 22.87 0.22 22.78 0.27 6.48 0.28 6.57"/><polygon class="cls-15" points="11.22 6.58 11.17 22.88 10.96 22.93 11.01 6.63 11.22 6.58"/><polygon class="cls-32" points="11.01 6.63 10.96 22.93 10.74 22.96 10.79 6.66 11.01 6.63"/><polygon class="cls-33" points="10.13 6.65 10.08 22.95 9.94 22.96 9.98 6.66 10.13 6.65"/><polygon class="cls-34" points="10.79 6.66 10.74 22.96 10.54 22.97 10.58 6.67 10.79 6.66"/><polygon class="cls-35" points="10.58 6.67 10.54 22.97 10.08 22.95 10.13 6.65 10.58 6.67"/><polygon class="cls-15" points="9.98 6.66 9.94 22.96 9.84 22.99 9.89 6.68 9.98 6.66"/><polygon class="cls-13" points="9.89 6.68 9.84 22.99 9.78 23.02 9.82 6.72 9.89 6.68"/><polygon class="cls-13" points="9.82 6.72 9.78 23.02 9.72 23.06 9.77 6.75 9.82 6.72"/><polygon class="cls-19" points="9.77 6.75 9.72 23.06 9.66 23.08 9.71 6.78 9.77 6.75"/><polygon class="cls-36" points="9.71 6.78 9.66 23.08 9.44 23.09 9.49 6.79 9.71 6.78"/><polygon class="cls-33" points="9.49 6.79 9.44 23.09 9.34 23.1 9.39 6.8 9.49 6.79"/><polygon class="cls-37" points="9.39 6.8 9.34 23.1 9.26 23.11 9.3 6.81 9.39 6.8"/><polygon class="cls-13" points="9.3 6.81 9.26 23.11 9.19 23.15 9.23 6.85 9.3 6.81"/><polygon class="cls-2" points="0.26 7.02 0.21 23.32 0.18 23.21 0.23 6.9 0.26 7.02"/><polygon class="cls-2" points="0.39 7.25 0.34 23.56 0.21 23.32 0.26 7.02 0.39 7.25"/><polygon class="cls-2" points="0.49 7.51 0.44 23.81 0.34 23.56 0.39 7.25 0.49 7.51"/><polygon class="cls-2" points="0.64 7.88 0.59 24.18 0.44 23.81 0.49 7.51 0.64 7.88"/><polygon class="cls-2" points="0.81 8.12 0.76 24.42 0.59 24.18 0.64 7.88 0.81 8.12"/><polygon class="cls-4" points="1.01 8.28 0.97 24.58 0.76 24.42 0.81 8.12 1.01 8.28"/><polygon class="cls-38" points="1.27 8.41 1.22 24.71 0.97 24.58 1.01 8.28 1.27 8.41"/><polygon class="cls-39" points="2.48 8.9 2.43 25.2 1.22 24.71 1.27 8.41 2.48 8.9"/><polygon class="cls-40" points="11.53 8.86 11.48 25.16 11.43 25.27 11.48 8.97 11.53 8.86"/><polygon class="cls-38" points="2.74 9.04 2.69 25.34 2.43 25.2 2.48 8.9 2.74 9.04"/><polygon class="cls-30" points="11.48 8.97 11.43 25.27 11.32 25.37 11.37 9.06 11.48 8.97"/><polygon class="cls-13" points="11.37 9.06 11.32 25.37 11.16 25.46 11.21 9.16 11.37 9.06"/><polygon class="cls-18" points="11.21 9.16 11.16 25.46 10.96 25.52 11.01 9.22 11.21 9.16"/><polygon class="cls-41" points="2.97 9.22 2.93 25.52 2.69 25.34 2.74 9.04 2.97 9.22"/><polygon class="cls-13" points="11.01 9.22 10.96 25.52 10.89 25.57 10.93 9.26 11.01 9.22"/><polygon class="cls-2" points="3.18 9.46 3.14 25.76 2.93 25.52 2.97 9.22 3.18 9.46"/><polygon class="cls-20" points="11.1 9.47 11.05 25.77 11.03 25.83 11.07 9.53 11.1 9.47"/><polygon class="cls-42" points="11.07 9.53 11.03 25.83 10.9 25.93 10.94 9.63 11.07 9.53"/><polygon class="cls-19" points="10.94 9.63 10.9 25.93 10.76 25.99 10.8 9.69 10.94 9.63"/><polygon class="cls-2" points="3.27 9.7 3.22 26 3.14 25.76 3.18 9.46 3.27 9.7"/><polygon class="cls-18" points="10.8 9.69 10.76 25.99 10.39 26.1 10.43 9.8 10.8 9.69"/><polygon class="cls-15" points="10.43 9.8 10.39 26.1 10.29 26.13 10.34 9.82 10.43 9.8"/><polygon class="cls-19" points="10.34 9.82 10.29 26.13 10.24 26.15 10.29 9.85 10.34 9.82"/><polygon class="cls-8" points="10.29 9.85 10.24 26.15 10.12 26.31 10.17 10 10.29 9.85"/><polygon class="cls-11" points="10.17 10 10.12 26.31 10.1 26.35 10.14 10.05 10.17 10"/><polygon class="cls-43" points="10.14 10.05 10.1 26.35 10.06 26.4 10.11 10.1 10.14 10.05"/><polygon class="cls-19" points="10.11 10.1 10.06 26.4 9.99 26.43 10.04 10.13 10.11 10.1"/><polygon class="cls-15" points="10.04 10.13 9.99 26.43 9.87 26.53 9.91 10.23 10.04 10.13"/><polygon class="cls-44" points="9.91 10.23 9.87 26.53 9.82 26.65 9.87 10.35 9.91 10.23"/><polygon class="cls-2" points="2.77 10.38 2.73 26.68 2.73 26.61 2.77 10.31 2.77 10.38"/><polygon class="cls-32" points="9.87 10.35 9.82 26.65 9.74 26.74 9.79 10.44 9.87 10.35"/><polygon class="cls-45" points="2.82 10.42 2.77 26.72 2.73 26.68 2.77 10.38 2.82 10.42"/><polygon class="cls-46" points="9.79 10.44 9.74 26.74 9.5 26.79 9.55 10.48 9.79 10.44"/><polygon class="cls-5" points="2.87 10.47 2.83 26.78 2.77 26.72 2.82 10.42 2.87 10.47"/><polygon class="cls-2" points="2.92 10.56 2.87 26.86 2.83 26.78 2.87 10.47 2.92 10.56"/><polygon class="cls-47" points="7.41 10.58 7.36 26.88 7.19 26.88 7.24 10.58 7.41 10.58"/><polygon class="cls-13" points="9.55 10.48 9.5 26.79 9.21 26.9 9.26 10.6 9.55 10.48"/><polygon class="cls-48" points="7.24 10.58 7.19 26.88 7 26.91 7.05 10.61 7.24 10.58"/><polygon class="cls-49" points="7.48 10.63 7.43 26.93 7.36 26.88 7.41 10.58 7.48 10.63"/><polygon class="cls-13" points="9.26 10.6 9.21 26.9 9.06 26.96 9.11 10.66 9.26 10.6"/><polygon class="cls-50" points="7.87 10.66 7.83 26.97 7.55 26.97 7.6 10.67 7.87 10.66"/><polygon class="cls-51" points="7.6 10.67 7.55 26.97 7.43 26.93 7.48 10.63 7.6 10.67"/><polygon class="cls-13" points="7.05 10.61 7 26.91 6.83 26.97 6.88 10.67 7.05 10.61"/><polygon class="cls-2" points="2.96 10.67 2.92 26.98 2.87 26.86 2.92 10.56 2.96 10.67"/><polygon class="cls-52" points="8 10.69 7.96 26.99 7.83 26.97 7.87 10.66 8 10.69"/><polygon class="cls-42" points="9.11 10.66 9.06 26.96 8.96 27.03 9.01 10.73 9.11 10.66"/><polygon class="cls-3" points="8.07 10.74 8.02 27.04 7.96 26.99 8 10.69 8.07 10.74"/><polygon class="cls-2" points="2.96 10.78 2.92 27.09 2.92 26.98 2.96 10.67 2.96 10.78"/><polygon class="cls-19" points="6.88 10.67 6.83 26.97 6.51 27.11 6.56 10.81 6.88 10.67"/><polygon class="cls-2" points="8.09 10.86 8.04 27.16 8.02 27.04 8.07 10.74 8.09 10.86"/><polygon class="cls-18" points="6.56 10.81 6.51 27.11 6.32 27.17 6.36 10.87 6.56 10.81"/><polygon class="cls-5" points="8.14 10.91 8.09 27.21 8.04 27.16 8.09 10.86 8.14 10.91"/><polygon class="cls-53" points="8.22 10.94 8.17 27.25 8.09 27.21 8.14 10.91 8.22 10.94"/><polygon class="cls-54" points="9.01 10.73 8.96 27.03 8.8 27.27 8.84 10.97 9.01 10.73"/><polygon class="cls-55" points="8.42 10.99 8.38 27.29 8.17 27.25 8.22 10.94 8.42 10.99"/><polygon class="cls-30" points="6.36 10.87 6.32 27.17 5.74 27.31 5.79 11 6.36 10.87"/><polygon class="cls-56" points="8.51 11.03 8.47 27.34 8.38 27.29 8.42 10.99 8.51 11.03"/><polygon class="cls-13" points="5.79 11 5.74 27.31 5.62 27.36 5.66 11.05 5.79 11"/><polygon class="cls-16" points="8.7 11.07 8.65 27.38 8.47 27.34 8.51 11.03 8.7 11.07"/><polygon class="cls-42" points="8.84 10.97 8.8 27.27 8.65 27.38 8.7 11.07 8.84 10.97"/><polygon class="cls-14" points="5.66 11.05 5.62 27.36 5.25 27.6 5.3 11.29 5.66 11.05"/><polygon class="cls-45" points="2.82 11.36 2.77 27.66 2.64 27.54 2.69 11.23 2.82 11.36"/><polygon class="cls-57" points="2.97 11.44 2.93 27.74 2.77 27.66 2.82 11.36 2.97 11.44"/><polygon class="cls-58" points="3.13 11.49 3.08 27.8 2.93 27.74 2.97 11.44 3.13 11.49"/><polygon class="cls-52" points="3.31 11.53 3.26 27.83 3.08 27.8 3.13 11.49 3.31 11.53"/><polygon class="cls-59" points="3.42 11.56 3.37 27.86 3.26 27.83 3.31 11.53 3.42 11.56"/><polygon class="cls-60" points="3.92 11.75 3.88 28.05 3.74 28.05 3.78 11.75 3.92 11.75"/><polygon class="cls-5" points="3.46 11.75 3.42 28.05 3.36 27.99 3.41 11.69 3.46 11.75"/><polygon class="cls-61" points="3.78 11.75 3.74 28.05 3.63 28.08 3.67 11.77 3.78 11.75"/><polygon class="cls-59" points="3.57 11.78 3.53 28.08 3.42 28.05 3.46 11.75 3.57 11.78"/><polygon class="cls-33" points="3.67 11.77 3.63 28.08 3.53 28.08 3.57 11.78 3.67 11.77"/><polygon class="cls-17" points="4.12 11.81 4.07 28.11 3.88 28.05 3.92 11.75 4.12 11.81"/><polygon class="cls-11" points="5.85 11.91 5.8 28.22 5.59 28.21 5.63 11.91 5.85 11.91"/><polygon class="cls-29" points="5.63 11.91 5.59 28.21 5.39 28.25 5.44 11.95 5.63 11.91"/><polygon class="cls-19" points="5.44 11.95 5.39 28.25 5.17 28.36 5.22 12.05 5.44 11.95"/><polygon class="cls-22" points="5.22 12.05 5.17 28.36 5.05 28.38 5.09 12.08 5.22 12.05"/><polygon class="cls-37" points="5.09 12.08 5.05 28.38 4.64 28.43 4.69 12.13 5.09 12.08"/><polygon class="cls-49" points="4.59 12.13 4.54 28.43 4.07 28.11 4.12 11.81 4.59 12.13"/><polygon class="cls-60" points="4.69 12.13 4.64 28.43 4.54 28.43 4.59 12.13 4.69 12.13"/><polygon class="cls-62" points="14.01 2.28 14.52 2.84 14.75 3.04 15.23 3.28 15.34 3.38 15.4 3.49 15.38 3.58 15.31 3.67 15.27 3.76 15.2 3.83 15.17 3.87 15.14 3.92 15.07 3.94 14.55 4.04 14.46 4.07 14.39 4.13 14.37 4.21 14.45 4.36 14.45 4.44 14.31 4.53 14.12 4.59 13.96 4.66 13.91 4.77 13.69 4.89 13.37 4.96 12.71 5.01 12.62 5 12.49 4.96 12.42 4.96 12.15 5.07 12.03 5.16 12.02 5.23 12.03 5.27 12.04 5.31 12.04 5.4 11.99 5.49 11.91 5.58 11.8 5.67 11.71 5.74 11.6 5.77 11.3 5.83 11.21 5.88 11.23 5.92 11.29 5.95 11.33 5.99 11.39 6.38 11.36 6.48 11.22 6.58 11.01 6.63 10.79 6.66 10.58 6.67 10.13 6.65 9.98 6.66 9.89 6.68 9.82 6.72 9.77 6.75 9.71 6.78 9.49 6.79 9.39 6.8 9.3 6.81 9.23 6.85 9.25 6.88 9.32 6.92 9.62 7.14 10.17 7.41 10.53 7.77 11.18 8.18 11.25 8.23 11.36 8.34 11.44 8.45 11.5 8.58 11.53 8.7 11.53 8.86 11.48 8.97 11.37 9.06 11.21 9.16 11.01 9.22 10.93 9.26 10.95 9.32 11.06 9.42 11.1 9.47 11.07 9.53 10.94 9.63 10.8 9.69 10.43 9.8 10.34 9.82 10.29 9.85 10.17 10 10.14 10.05 10.11 10.1 10.04 10.13 9.91 10.23 9.87 10.35 9.79 10.44 9.55 10.48 9.26 10.6 9.11 10.66 9.01 10.73 8.84 10.97 8.7 11.07 8.51 11.03 8.42 10.99 8.22 10.94 8.14 10.91 8.09 10.86 8.07 10.74 8 10.69 7.87 10.66 7.6 10.67 7.48 10.63 7.41 10.58 7.24 10.58 7.05 10.61 6.88 10.67 6.56 10.81 6.36 10.87 5.79 11 5.66 11.05 5.3 11.29 5.3 11.46 5.85 11.91 5.63 11.91 5.44 11.95 5.22 12.05 5.09 12.08 4.69 12.13 4.59 12.13 4.12 11.81 3.92 11.75 3.78 11.75 3.67 11.77 3.57 11.78 3.46 11.75 3.41 11.69 3.42 11.56 3.31 11.53 3.13 11.49 2.97 11.44 2.82 11.36 2.69 11.23 2.7 11.13 2.82 10.99 2.92 10.89 2.96 10.78 2.96 10.67 2.92 10.56 2.87 10.47 2.82 10.42 2.77 10.38 2.77 10.31 2.81 10.26 3.01 10.16 3.23 9.93 3.27 9.7 3.18 9.46 2.97 9.22 2.74 9.04 2.48 8.9 1.27 8.41 1.01 8.28 0.81 8.12 0.64 7.88 0.49 7.51 0.39 7.25 0.26 7.02 0.23 6.9 0.28 6.57 0.27 6.48 0.07 6.16 0.05 6.06 0.11 5.97 0.59 5.67 0.6 5.59 0.53 5.4 0.51 5.13 0.59 4.87 0.75 4.66 1.03 4.52 1.16 4.43 1.26 4.34 1.31 4.22 1.34 4.11 1.4 4.01 1.53 3.91 1.62 3.87 1.85 3.84 1.91 3.82 1.93 3.77 1.85 3.67 1.83 3.6 1.86 3.54 1.9 3.5 1.96 3.46 2.07 3.44 2.53 3.5 2.7 3.55 2.99 3.71 3.19 3.75 3.41 3.75 3.57 3.69 3.7 3.6 3.79 3.48 3.99 3.08 4.04 3.03 3.96 2.91 3.96 2.81 4.06 2.61 4.23 2.39 4.23 2.31 4.17 2.23 3.95 2.06 3.9 1.98 3.92 1.93 3.98 1.9 4.03 1.86 4.06 1.82 4.1 1.73 4.11 1.4 4.09 1.28 4.04 1.18 4.01 1.14 3.93 1.08 3.91 1.05 3.98 0.9 3.98 0.86 3.92 0.78 3.69 0.6 3.65 0.52 3.71 0.43 3.84 0.38 3.98 0.33 4.11 0.28 4.19 0.2 4.24 0.13 4.32 0.07 4.45 0.03 4.54 0 4.54 0.06 4.56 0.13 4.62 0.19 4.71 0.22 4.88 0.2 4.98 0.24 5.01 0.27 5.02 0.3 5.04 0.34 5.1 0.35 5.19 0.34 5.24 0.31 5.26 0.27 5.42 0.24 5.49 0.24 5.68 0.32 5.82 0.36 6.14 0.4 6.32 0.46 6.46 0.47 6.53 0.49 6.58 0.57 6.62 0.6 6.76 0.64 6.91 0.63 7.18 0.56 7.3 0.55 7.49 0.55 7.59 0.53 8.19 0.37 8.34 0.31 8.55 0.27 8.75 0.35 8.92 0.46 8.97 0.52 8.98 0.56 9.1 0.59 9.36 0.61 9.53 0.61 9.61 0.62 9.91 0.72 10.12 0.77 10.31 0.76 10.4 0.63 10.59 0.68 10.76 0.79 11.19 1.14 11.26 1.18 11.46 1.21 11.54 1.24 11.64 1.38 11.74 1.41 12.05 1.53 12.13 1.61 12.16 1.71 12.23 1.79 12.4 1.84 12.38 1.95 12.38 1.99 12.39 2.05 12.63 1.95 12.82 2.04 13.12 2.31 13.22 2.22 13.39 2.19 13.59 2.19 13.76 2.2 14.01 2.28"/></g></g></g></svg>