<svg xmlns="http://www.w3.org/2000/svg" viewBox="0 0 60.56 43.81"><defs><style>.cls-1{isolation:isolate;}.cls-2{fill:#721c1c;}.cls-3{fill:#a92929;}.cls-4{fill:#481212;}.cls-5{fill:#852020;}.cls-6{fill:#491212;}.cls-7{fill:#4d1313;}.cls-8{fill:#641818;}.cls-9{fill:#a42828;}.cls-10{fill:#a72929;}.cls-11{fill:#a12727;}.cls-12{fill:#962525;}.cls-13{fill:#a22828;}.cls-14{fill:#a82929;}.cls-15{fill:#902323;}.cls-16{fill:#a62929;}.cls-17{fill:#852121;}.cls-18{fill:#6a1a1a;}.cls-19{fill:#842020;}.cls-20{fill:#992626;}.cls-21{fill:#9e2727;}.cls-22{fill:#7f1f1f;}.cls-23{fill:#a52828;}.cls-24{fill:#9b2626;}.cls-25{fill:#952424;}.cls-26{fill:#942424;}.cls-27{fill:#511414;}.cls-28{fill:#8e2323;}.cls-29{fill:#8b2222;}.cls-30{fill:#9f2727;}.cls-31{fill:#882121;}.cls-32{fill:#7d1f1f;}.cls-33{fill:#771d1d;}.cls-34{fill:#631818;}.cls-35{fill:#521414;}.cls-36{fill:#4a1212;}.cls-37{fill:#541414;}.cls-38{fill:#4c1313;}.cls-39{fill:#822020;}.cls-40{fill:#932424;}.cls-41{fill:#7e1f1f;}.cls-42{fill:#972525;}.cls-43{fill:#9c2626;}.cls-44{fill:#862121;}.cls-45{fill:#982525;}.cls-46{fill:#9d2727;}.cls-47{fill:#812020;}.cls-48{fill:#791e1e;}.cls-49{fill:#6d1b1b;}.cls-50{fill:#952525;}.cls-51{fill:#8a2222;}.cls-52{fill:#741c1c;}.cls-53{fill:#4b1212;}.cls-54{fill:#5b1616;}.cls-55{fill:#9a2626;}.cls-56{fill:#832020;}.cls-57{fill:#731c1c;}.cls-58{fill:#8c2222;}.cls-59{fill:#6f1b1b;}.cls-60{fill:#581616;}.cls-61{fill:#5e1717;}.cls-62{fill:#801f1f;}.cls-63{fill:#541515;}.cls-64{fill:#8f2323;}.cls-65{fill:#4f1313;}.cls-66{fill:#671919;}.cls-67{fill:#892222;}.cls-68{fill:#621818;}.cls-69{fill:#6c1b1b;}.cls-70{fill:#5a1616;}.cls-71{fill:#761d1d;}.cls-72{fill:#751d1d;}.cls-73{fill:#a02727;}.cls-74{fill:#6c1a1a;}.cls-75{fill:#591616;}.cls-76{fill:#601818;}.cls-77{fill:#992525;}.cls-78{fill:#501414;}.cls-79{fill:#661919;}.cls-80{fill:#5d1717;}.cls-81{fill:#922424;}.cls-82{fill:#8d2323;}.cls-83{fill:#a12828;}.cls-84{fill:#a32828;}.cls-85{fill:#681919;}.cls-86{fill:#7c1e1e;}.cls-87{fill:#531414;}.cls-88{fill:#9d2626;}.cls-89{fill:#581515;}.cls-90{fill:#4c1212;}.cls-91{fill:#551515;}.cls-92{fill:#872121;}.cls-93{fill:#912424;}.cls-94{fill:#6e1b1b;}.cls-95{fill:#c83131;}.cls-96{fill:#781d1d;}</style></defs><title>Senegal</title><g id="Layer_2" data-name="Layer 2"><g id="Layer_1-2" data-name="Layer 1"><g class="cls-1"><polygon class="cls-2" points="31.42 0.9 31.37 17.2 31.34 17.35 31.39 1.05 31.42 0.9"/><polygon class="cls-3" points="31.39 1.05 31.34 17.35 31.09 17.47 31.14 1.17 31.39 1.05"/><polygon class="cls-4" points="19.23 1.14 19.18 17.45 19.12 17.23 19.17 0.93 19.23 1.14"/><polygon class="cls-4" points="51.42 4.31 51.37 20.62 51.33 20.51 51.38 4.21 51.42 4.31"/><polygon class="cls-5" points="47.29 3.81 47.24 20.11 47 20.63 47.05 4.32 47.29 3.81"/><polygon class="cls-6" points="51.52 4.42 51.48 20.72 51.37 20.62 51.42 4.31 51.52 4.42"/><polygon class="cls-7" points="51.64 4.5 51.59 20.81 51.48 20.72 51.52 4.42 51.64 4.5"/><polygon class="cls-8" points="7.38 4.46 7.33 20.76 7 20.64 7.05 4.33 7.38 4.46"/><polygon class="cls-3" points="60.56 6.7 60.52 23 60.33 23.1 60.38 6.8 60.56 6.7"/><polygon class="cls-9" points="60.38 6.8 60.33 23.1 59.74 23.26 59.78 6.96 60.38 6.8"/><polygon class="cls-3" points="59.78 6.96 59.74 23.26 59.49 23.38 59.54 7.08 59.78 6.96"/><polygon class="cls-10" points="59.54 7.08 59.49 23.38 58.96 23.73 59.01 7.43 59.54 7.08"/><polygon class="cls-11" points="59.01 7.43 58.96 23.73 58.75 23.93 58.79 7.62 59.01 7.43"/><polygon class="cls-12" points="58.79 7.62 58.75 23.93 58.42 24.33 58.47 8.03 58.79 7.62"/><polygon class="cls-13" points="58.47 8.03 58.42 24.33 58.22 24.5 58.26 8.2 58.47 8.03"/><polygon class="cls-3" points="58.26 8.2 58.22 24.5 57.65 24.8 57.7 8.5 58.26 8.2"/><polygon class="cls-14" points="57.7 8.5 57.65 24.8 57.49 24.87 57.53 8.56 57.7 8.5"/><polygon class="cls-13" points="57.53 8.56 57.49 24.87 56.91 25 56.96 8.7 57.53 8.56"/><polygon class="cls-15" points="56.96 8.7 56.91 25 56.68 25.35 56.73 9.05 56.96 8.7"/><polygon class="cls-14" points="56.73 9.05 56.68 25.35 56.45 25.48 56.5 9.18 56.73 9.05"/><polygon class="cls-16" points="56.5 9.18 56.45 25.48 55.92 25.64 55.97 9.34 56.5 9.18"/><polygon class="cls-14" points="55.97 9.34 55.92 25.64 55.76 25.74 55.81 9.43 55.97 9.34"/><polygon class="cls-17" points="55.81 9.43 55.76 25.74 55.71 25.84 55.76 9.54 55.81 9.43"/><polygon class="cls-18" points="55.76 9.54 55.71 25.84 55.69 26.08 55.73 9.78 55.76 9.54"/><polygon class="cls-4" points="0.09 9.63 0.04 25.93 0 25.8 0.05 9.49 0.09 9.63"/><polygon class="cls-4" points="0.17 9.72 0.12 26.03 0.04 25.93 0.09 9.63 0.17 9.72"/><polygon class="cls-19" points="55.73 9.78 55.69 26.08 55.58 26.31 55.63 10 55.73 9.78"/><polygon class="cls-7" points="0.41 9.9 0.36 26.21 0.12 26.03 0.17 9.72 0.41 9.9"/><polygon class="cls-20" points="54.16 10.79 54.11 27.09 53.91 27.11 53.96 10.81 54.16 10.79"/><polygon class="cls-21" points="55.63 10 55.58 26.31 54.75 27.12 54.8 10.82 55.63 10"/><polygon class="cls-22" points="54.64 10.85 54.59 27.16 54.11 27.09 54.16 10.79 54.64 10.85"/><polygon class="cls-11" points="54.8 10.82 54.75 27.12 54.59 27.16 54.64 10.85 54.8 10.82"/><polygon class="cls-23" points="53.96 10.81 53.91 27.11 53.52 27.22 53.57 10.92 53.96 10.81"/><polygon class="cls-10" points="53.57 10.92 53.52 27.22 53.34 27.28 53.39 10.98 53.57 10.92"/><polygon class="cls-6" points="1.38 10.86 1.33 27.17 0.36 26.21 0.41 9.9 1.38 10.86"/><polygon class="cls-14" points="53.39 10.98 53.34 27.28 53.23 27.35 53.28 11.04 53.39 10.98"/><polygon class="cls-24" points="53.28 11.04 53.23 27.35 53.06 27.53 53.1 11.22 53.28 11.04"/><polygon class="cls-19" points="53.1 11.22 53.06 27.53 52.98 27.7 53.02 11.4 53.1 11.22"/><polygon class="cls-25" points="53.02 11.4 52.98 27.7 52.24 27.75 52.29 11.44 53.02 11.4"/><polygon class="cls-26" points="52.29 11.44 52.24 27.75 52.04 27.76 52.09 11.45 52.29 11.44"/><polygon class="cls-13" points="52.09 11.45 52.04 27.76 51.86 27.8 51.9 11.49 52.09 11.45"/><polygon class="cls-4" points="1.24 11.35 1.19 27.65 1.1 27.54 1.15 11.24 1.24 11.35"/><polygon class="cls-3" points="51.9 11.49 51.86 27.8 51.71 27.87 51.75 11.57 51.9 11.49"/><polygon class="cls-27" points="1.68 11.64 1.63 27.94 1.19 27.65 1.24 11.35 1.68 11.64"/><polygon class="cls-10" points="51.75 11.57 51.71 27.87 51.31 28.13 51.35 11.83 51.75 11.57"/><polygon class="cls-3" points="51.35 11.83 51.31 28.13 51.15 28.2 51.19 11.9 51.35 11.83"/><polygon class="cls-28" points="51.19 11.9 51.15 28.2 50.8 28.2 50.85 11.9 51.19 11.9"/><polygon class="cls-29" points="36.31 11.91 36.27 28.22 35.98 28.21 36.02 11.91 36.31 11.91"/><polygon class="cls-30" points="36.02 11.91 35.98 28.21 35.73 28.25 35.78 11.95 36.02 11.91"/><polygon class="cls-4" points="1.84 11.87 1.79 28.17 1.63 27.94 1.68 11.64 1.84 11.87"/><polygon class="cls-3" points="50.85 11.9 50.8 28.2 50.59 28.31 50.64 12.01 50.85 11.9"/><polygon class="cls-31" points="50.64 12.01 50.59 28.31 49.93 28.27 49.98 11.97 50.64 12.01"/><polygon class="cls-32" points="36.69 11.97 36.65 28.27 36.27 28.22 36.31 11.91 36.69 11.97"/><polygon class="cls-20" points="37.05 11.93 37.01 28.23 36.65 28.27 36.69 11.97 37.05 11.93"/><polygon class="cls-30" points="49.98 11.97 49.93 28.27 49.55 28.34 49.59 12.04 49.98 11.97"/><polygon class="cls-33" points="37.53 12.02 37.48 28.32 37.01 28.23 37.05 11.93 37.53 12.02"/><polygon class="cls-23" points="35.78 11.95 35.73 28.25 35.51 28.32 35.55 12.02 35.78 11.95"/><polygon class="cls-14" points="35.55 12.02 35.51 28.32 35.34 28.39 35.39 12.08 35.55 12.02"/><polygon class="cls-14" points="49.59 12.04 49.55 28.34 49.3 28.48 49.35 12.18 49.59 12.04"/><polygon class="cls-27" points="37.85 12.23 37.8 28.54 37.48 28.32 37.53 12.02 37.85 12.23"/><polygon class="cls-28" points="48.01 12.28 47.96 28.58 47.78 28.58 47.83 12.28 48.01 12.28"/><polygon class="cls-4" points="2.1 12.16 2.05 28.46 1.79 28.17 1.84 11.87 2.1 12.16"/><polygon class="cls-15" points="35.39 12.08 35.34 28.39 35.21 28.57 35.26 12.27 35.39 12.08"/><polygon class="cls-34" points="48.16 12.34 48.11 28.64 47.96 28.58 48.01 12.28 48.16 12.34"/><polygon class="cls-14" points="47.83 12.28 47.78 28.58 47.57 28.71 47.61 12.4 47.83 12.28"/><polygon class="cls-35" points="48.3 12.42 48.25 28.73 48.11 28.64 48.16 12.34 48.3 12.42"/><polygon class="cls-9" points="35.26 12.27 35.21 28.57 34.99 28.74 35.04 12.44 35.26 12.27"/><polygon class="cls-10" points="47.61 12.4 47.57 28.71 47.45 28.78 47.5 12.48 47.61 12.4"/><polygon class="cls-36" points="48.38 12.5 48.34 28.81 48.25 28.73 48.3 12.42 48.38 12.5"/><polygon class="cls-30" points="47.5 12.48 47.45 28.78 47.27 28.81 47.31 12.51 47.5 12.48"/><polygon class="cls-4" points="37.96 12.51 37.91 28.81 37.8 28.54 37.85 12.23 37.96 12.51"/><polygon class="cls-9" points="35.04 12.44 34.99 28.74 34.81 28.88 34.86 12.58 35.04 12.44"/><polygon class="cls-16" points="49.62 12.49 49.57 28.79 49.29 28.98 49.34 12.68 49.62 12.49"/><polygon class="cls-4" points="48.51 12.7 48.47 29 48.34 28.81 48.38 12.5 48.51 12.7"/><polygon class="cls-37" points="2.83 12.6 2.78 28.91 2.05 28.46 2.1 12.16 2.83 12.6"/><polygon class="cls-16" points="49.34 12.68 49.29 28.98 49.18 29.07 49.23 12.76 49.34 12.68"/><polygon class="cls-38" points="48.61 12.77 48.56 29.08 48.47 29 48.51 12.7 48.61 12.77"/><polygon class="cls-3" points="49.23 12.76 49.18 29.07 49.06 29.13 49.1 12.82 49.23 12.76"/><polygon class="cls-34" points="48.76 12.83 48.72 29.14 48.56 29.08 48.61 12.77 48.76 12.83"/><polygon class="cls-21" points="49.1 12.82 49.06 29.13 48.9 29.15 48.95 12.85 49.1 12.82"/><polygon class="cls-39" points="48.95 12.85 48.9 29.15 48.72 29.14 48.76 12.83 48.95 12.85"/><polygon class="cls-31" points="34.86 12.58 34.81 28.88 34.67 29.15 34.72 12.85 34.86 12.58"/><polygon class="cls-14" points="47.31 12.51 47.27 28.81 46.61 29.2 46.66 12.9 47.31 12.51"/><polygon class="cls-38" points="3.14 12.86 3.09 29.16 2.78 28.91 2.83 12.6 3.14 12.86"/><polygon class="cls-30" points="34.72 12.85 34.67 29.15 34.38 29.43 34.42 13.12 34.72 12.85"/><polygon class="cls-3" points="46.66 12.9 46.61 29.2 46.08 29.49 46.13 13.19 46.66 12.9"/><polygon class="cls-40" points="34.42 13.12 34.38 29.43 34.3 29.53 34.35 13.23 34.42 13.12"/><polygon class="cls-6" points="3.51 13.22 3.46 29.52 3.09 29.16 3.14 12.86 3.51 13.22"/><polygon class="cls-14" points="46.13 13.19 46.08 29.49 45.44 29.74 45.48 13.44 46.13 13.19"/><polygon class="cls-41" points="34.35 13.23 34.3 29.53 34.17 29.87 34.22 13.57 34.35 13.23"/><polygon class="cls-42" points="34.22 13.57 34.17 29.87 33.92 30.18 33.97 13.88 34.22 13.57"/><polygon class="cls-43" points="33.97 13.88 33.92 30.18 33.84 30.27 33.88 13.96 33.97 13.88"/><polygon class="cls-44" points="31.75 13.97 31.7 30.27 31.5 30.26 31.54 13.96 31.75 13.97"/><polygon class="cls-25" points="31.54 13.96 31.5 30.26 31.27 30.27 31.31 13.97 31.54 13.96"/><polygon class="cls-33" points="31.94 14.01 31.89 30.31 31.7 30.27 31.75 13.97 31.94 14.01"/><polygon class="cls-3" points="33.88 13.96 33.84 30.27 33.7 30.33 33.74 14.02 33.88 13.96"/><polygon class="cls-11" points="31.31 13.97 31.27 30.27 30.85 30.36 30.89 14.06 31.31 13.97"/><polygon class="cls-11" points="33.74 14.02 33.7 30.33 33.46 30.37 33.51 14.07 33.74 14.02"/><polygon class="cls-45" points="33.51 14.07 33.46 30.37 32.63 30.45 32.68 14.15 33.51 14.07"/><polygon class="cls-33" points="32.68 14.15 32.63 30.45 31.89 30.31 31.94 14.01 32.68 14.15"/><polygon class="cls-3" points="30.89 14.06 30.85 30.36 30.55 30.51 30.6 14.21 30.89 14.06"/><polygon class="cls-46" points="30.6 14.21 30.55 30.51 30.36 30.7 30.4 14.4 30.6 14.21"/><polygon class="cls-3" points="45.48 13.44 45.44 29.74 43.22 30.94 43.27 14.63 45.48 13.44"/><polygon class="cls-4" points="4.11 14.56 4.06 30.87 3.46 29.52 3.51 13.22 4.11 14.56"/><polygon class="cls-12" points="28.55 14.69 28.5 30.99 28.31 31.01 28.36 14.7 28.55 14.69"/><polygon class="cls-47" points="28.75 14.71 28.7 31.02 28.5 30.99 28.55 14.69 28.75 14.71"/><polygon class="cls-25" points="28.36 14.7 28.31 31.01 28.08 31.02 28.13 14.72 28.36 14.7"/><polygon class="cls-48" points="28.94 14.74 28.89 31.05 28.7 31.02 28.75 14.71 28.94 14.74"/><polygon class="cls-5" points="30.4 14.4 30.36 30.7 30.18 31.07 30.23 14.77 30.4 14.4"/><polygon class="cls-23" points="28.13 14.72 28.08 31.02 27.76 31.11 27.8 14.81 28.13 14.72"/><polygon class="cls-49" points="29.61 14.93 29.56 31.24 28.89 31.05 28.94 14.74 29.61 14.93"/><polygon class="cls-9" points="30.23 14.77 30.18 31.07 29.56 31.24 29.61 14.93 30.23 14.77"/><polygon class="cls-3" points="27.8 14.81 27.76 31.11 27.06 31.48 27.11 15.18 27.8 14.81"/><polygon class="cls-4" points="4.26 15.19 4.21 31.49 4.06 30.87 4.11 14.56 4.26 15.19"/><polygon class="cls-9" points="27.11 15.18 27.06 31.48 26.52 31.63 26.57 15.32 27.11 15.18"/><polygon class="cls-3" points="26.57 15.32 26.52 31.63 26.37 31.7 26.42 15.4 26.57 15.32"/><polygon class="cls-50" points="26.42 15.4 26.37 31.7 26.07 32.09 26.12 15.78 26.42 15.4"/><polygon class="cls-14" points="43.27 14.63 43.22 30.94 40.87 32.3 40.91 15.99 43.27 14.63"/><polygon class="cls-41" points="26.12 15.78 26.07 32.09 25.89 32.56 25.93 16.26 26.12 15.78"/><polygon class="cls-51" points="25.83 16.36 25.78 32.66 25.39 32.65 25.43 16.34 25.83 16.36"/><polygon class="cls-30" points="25.93 16.26 25.89 32.56 25.78 32.66 25.83 16.36 25.93 16.26"/><polygon class="cls-16" points="25.43 16.34 25.39 32.65 24.93 32.79 24.98 16.48 25.43 16.34"/><polygon class="cls-4" points="4.98 16.67 4.93 32.97 4.21 31.49 4.26 15.19 4.98 16.67"/><polygon class="cls-25" points="24.98 16.48 24.93 32.79 24.74 33.03 24.79 16.73 24.98 16.48"/><polygon class="cls-4" points="27.63 16.75 27.58 33.05 27.58 32.88 27.62 16.58 27.63 16.75"/><polygon class="cls-4" points="27.64 16.92 27.59 33.22 27.58 33.05 27.63 16.75 27.64 16.92"/><polygon class="cls-14" points="40.91 15.99 40.87 32.3 39.13 33.29 39.18 16.99 40.91 15.99"/><polygon class="cls-52" points="24.79 16.73 24.74 33.03 24.67 33.31 24.72 17.01 24.79 16.73"/><polygon class="cls-4" points="27.7 17.06 27.65 33.37 27.59 33.22 27.64 16.92 27.7 17.06"/><polygon class="cls-4" points="5.04 17.24 4.99 33.54 4.93 32.97 4.98 16.67 5.04 17.24"/><polygon class="cls-14" points="39.18 16.99 39.13 33.29 38.51 33.65 38.55 17.35 39.18 16.99"/><polygon class="cls-27" points="28.09 17.32 28.05 33.63 27.65 33.37 27.7 17.06 28.09 17.32"/><polygon class="cls-53" points="28.24 17.45 28.19 33.75 28.05 33.63 28.09 17.32 28.24 17.45"/><polygon class="cls-4" points="5.14 17.54 5.09 33.84 4.99 33.54 5.04 17.24 5.14 17.54"/><polygon class="cls-4" points="28.28 17.63 28.24 33.93 28.19 33.75 28.24 17.45 28.28 17.63"/><polygon class="cls-24" points="25.32 17.87 25.27 34.17 25.2 34.25 25.24 17.95 25.32 17.87"/><polygon class="cls-14" points="25.24 17.95 25.2 34.25 24.87 34.44 24.92 18.14 25.24 17.95"/><polygon class="cls-14" points="24.92 18.14 24.87 34.44 24.46 34.68 24.51 18.38 24.92 18.14"/><polygon class="cls-14" points="24.51 18.38 24.46 34.68 24.06 34.91 24.1 18.61 24.51 18.38"/><polygon class="cls-14" points="38.55 17.35 38.51 33.65 36.15 35.01 36.2 18.7 38.55 17.35"/><polygon class="cls-14" points="24.1 18.61 24.06 34.91 23.64 35.15 23.68 18.85 24.1 18.61"/><polygon class="cls-4" points="5.36 18.88 5.31 35.18 5.09 33.84 5.14 17.54 5.36 18.88"/><polygon class="cls-14" points="36.2 18.7 36.15 35.01 35.62 35.32 35.67 19.01 36.2 18.7"/><polygon class="cls-14" points="23.68 18.85 23.64 35.15 23.23 35.39 23.27 19.09 23.68 18.85"/><polygon class="cls-3" points="15.65 18.95 15.6 35.26 15.19 35.44 15.23 19.14 15.65 18.95"/><polygon class="cls-9" points="15.23 19.14 15.19 35.44 14.94 35.5 14.99 19.2 15.23 19.14"/><polygon class="cls-35" points="14.99 19.2 14.94 35.5 14.8 35.41 14.85 19.11 14.99 19.2"/><polygon class="cls-51" points="14.85 19.11 14.8 35.41 14.75 35.5 14.79 19.2 14.85 19.11"/><polygon class="cls-14" points="23.27 19.09 23.23 35.39 22.81 35.63 22.86 19.33 23.27 19.09"/><polygon class="cls-4" points="15.26 19.38 15.21 35.68 15.19 35.54 15.23 19.24 15.26 19.38"/><polygon class="cls-14" points="22.86 19.33 22.81 35.63 22.41 35.87 22.45 19.56 22.86 19.33"/><polygon class="cls-14" points="22.45 19.56 22.41 35.87 21.99 36.1 22.03 19.8 22.45 19.56"/><polygon class="cls-4" points="15.14 19.86 15.09 36.16 15.05 35.94 15.1 19.64 15.14 19.86"/><polygon class="cls-14" points="35.67 19.01 35.62 35.32 33.8 36.37 33.85 20.06 35.67 19.01"/><polygon class="cls-14" points="22.03 19.8 21.99 36.1 21.58 36.34 21.62 20.04 22.03 19.8"/><polygon class="cls-54" points="15.38 20.1 15.33 36.4 15.08 36.28 15.13 19.98 15.38 20.1"/><polygon class="cls-14" points="21.62 20.04 21.58 36.34 21.44 36.42 21.48 20.12 21.62 20.04"/><polygon class="cls-15" points="6.97 20.12 6.92 36.42 6.55 36.43 6.6 20.12 6.97 20.12"/><polygon class="cls-55" points="6.6 20.12 6.55 36.43 6.36 36.45 6.41 20.14 6.6 20.12"/><polygon class="cls-29" points="15.04 19.94 14.99 36.25 14.86 36.48 14.9 20.18 15.04 19.94"/><polygon class="cls-56" points="7.6 20.18 7.56 36.48 6.92 36.42 6.97 20.12 7.6 20.18"/><polygon class="cls-14" points="33.85 20.06 33.8 36.37 33.48 36.55 33.52 20.25 33.85 20.06"/><polygon class="cls-13" points="6.41 20.14 6.36 36.45 6.18 36.49 6.22 20.19 6.41 20.14"/><polygon class="cls-57" points="16.08 20.09 16.03 36.4 16 36.53 16.05 20.23 16.08 20.09"/><polygon class="cls-14" points="21.48 20.12 21.44 36.42 21.16 36.58 21.21 20.28 21.48 20.12"/><polygon class="cls-3" points="6.22 20.19 6.18 36.49 6 36.56 6.05 20.26 6.22 20.19"/><polygon class="cls-58" points="10.23 20.3 10.19 36.61 9.77 36.6 9.81 20.3 10.23 20.3"/><polygon class="cls-9" points="33.52 20.25 33.48 36.55 33.31 36.68 33.36 20.38 33.52 20.25"/><polygon class="cls-16" points="6.05 20.26 6 36.56 5.87 36.6 5.91 20.3 6.05 20.26"/><polygon class="cls-56" points="10.43 20.32 10.38 36.63 10.19 36.61 10.23 20.3 10.43 20.32"/><polygon class="cls-59" points="8.25 20.34 8.21 36.65 7.56 36.48 7.6 20.18 8.25 20.34"/><polygon class="cls-30" points="5.91 20.3 5.87 36.6 5.44 36.68 5.49 20.38 5.91 20.3"/><polygon class="cls-60" points="15.48 20.42 15.44 36.72 15.28 36.64 15.33 20.34 15.48 20.42"/><polygon class="cls-61" points="10.65 20.42 10.6 36.72 10.38 36.63 10.43 20.32 10.65 20.42"/><polygon class="cls-27" points="31.32 20.5 31.28 36.81 31.1 36.69 31.14 20.39 31.32 20.5"/><polygon class="cls-11" points="9.81 20.3 9.77 36.6 9.07 36.75 9.11 20.44 9.81 20.3"/><polygon class="cls-62" points="9.11 20.44 9.07 36.75 8.21 36.65 8.25 20.34 9.11 20.44"/><polygon class="cls-63" points="25.6 20.5 25.56 36.8 24.98 36.46 25.03 20.15 25.6 20.5"/><polygon class="cls-64" points="33.36 20.38 33.31 36.68 33.22 36.82 33.26 20.52 33.36 20.38"/><polygon class="cls-18" points="14.23 20.27 14.18 36.58 14.16 36.77 14.21 20.47 14.23 20.27"/><polygon class="cls-14" points="21.21 20.28 21.16 36.58 20.76 36.82 20.8 20.51 21.21 20.28"/><polygon class="cls-4" points="14.25 20.5 14.2 36.8 14.18 36.58 14.23 20.27 14.25 20.5"/><polygon class="cls-14" points="5.49 20.38 5.44 36.68 5.13 36.8 5.17 20.5 5.49 20.38"/><polygon class="cls-65" points="16.78 20.58 16.73 36.89 16.03 36.4 16.08 20.09 16.78 20.58"/><polygon class="cls-66" points="11.11 20.57 11.06 36.88 10.6 36.72 10.65 20.42 11.11 20.57"/><polygon class="cls-67" points="11.51 20.59 11.46 36.89 11.06 36.88 11.11 20.57 11.51 20.59"/><polygon class="cls-13" points="14.21 20.47 14.16 36.77 13.99 36.92 14.03 20.62 14.21 20.47"/><polygon class="cls-3" points="5.17 20.5 5.13 36.8 4.92 36.9 4.96 20.6 5.17 20.5"/><polygon class="cls-68" points="16.94 20.65 16.89 36.95 16.73 36.89 16.78 20.58 16.94 20.65"/><polygon class="cls-69" points="11.66 20.64 11.61 36.94 11.46 36.89 11.51 20.59 11.66 20.64"/><polygon class="cls-4" points="15.27 20.66 15.22 36.97 15.2 36.86 15.24 20.56 15.27 20.66"/><polygon class="cls-17" points="14.97 20.47 14.93 36.77 14.83 36.97 14.88 20.66 14.97 20.47"/><polygon class="cls-10" points="4.96 20.6 4.92 36.9 4.76 37 4.81 20.7 4.96 20.6"/><polygon class="cls-14" points="14.88 20.66 14.83 36.97 14.66 37.03 14.71 20.73 14.88 20.66"/><polygon class="cls-14" points="20.8 20.51 20.76 36.82 20.34 37.05 20.39 20.75 20.8 20.51"/><polygon class="cls-70" points="17.13 20.74 17.08 37.05 16.89 36.95 16.94 20.65 17.13 20.74"/><polygon class="cls-23" points="14.71 20.73 14.66 37.03 14.46 37.09 14.51 20.78 14.71 20.73"/><polygon class="cls-65" points="26.06 20.83 26.02 37.13 25.56 36.8 25.6 20.5 26.06 20.83"/><polygon class="cls-33" points="13.18 20.82 13.13 37.12 12.77 37.05 12.81 20.75 13.18 20.82"/><polygon class="cls-13" points="31.15 20.51 31.11 36.81 30.64 37.2 30.69 20.89 31.15 20.51"/><polygon class="cls-71" points="33.26 20.52 33.22 36.82 33.12 37.21 33.16 20.9 33.26 20.52"/><polygon class="cls-11" points="12.81 20.75 12.77 37.05 12.29 37.15 12.34 20.85 12.81 20.75"/><polygon class="cls-18" points="12.34 20.85 12.29 37.15 11.61 36.94 11.66 20.64 12.34 20.85"/><polygon class="cls-3" points="14.51 20.78 14.46 37.09 14.29 37.17 14.34 20.87 14.51 20.78"/><polygon class="cls-4" points="14.34 20.87 14.29 37.17 14.16 36.92 14.21 20.62 14.34 20.87"/><polygon class="cls-72" points="4.81 20.7 4.76 37 4.72 37.15 4.77 20.85 4.81 20.7"/><polygon class="cls-73" points="30.69 20.89 30.64 37.2 30.55 37.28 30.59 20.98 30.69 20.89"/><polygon class="cls-74" points="13.62 20.95 13.57 37.25 13.13 37.12 13.18 20.82 13.62 20.95"/><polygon class="cls-75" points="16.72 20.97 16.67 37.27 16.55 37.21 16.59 20.91 16.72 20.97"/><polygon class="cls-14" points="20.39 20.75 20.34 37.05 19.93 37.29 19.97 20.99 20.39 20.75"/><polygon class="cls-55" points="16.48 20.79 16.43 37.09 16.21 37.34 16.26 21.03 16.48 20.79"/><polygon class="cls-76" points="13.85 21.05 13.8 37.35 13.57 37.25 13.62 20.95 13.85 21.05"/><polygon class="cls-30" points="5.04 20.91 5 37.21 4.05 37.38 4.09 21.07 5.04 20.91"/><polygon class="cls-15" points="4.09 21.07 4.05 37.38 3.84 37.38 3.88 21.08 4.09 21.07"/><polygon class="cls-9" points="16.26 21.03 16.21 37.34 16.1 37.42 16.14 21.12 16.26 21.03"/><polygon class="cls-28" points="33.16 20.9 33.12 37.21 32.9 37.55 32.94 21.25 33.16 20.9"/><polygon class="cls-77" points="17.72 21.18 17.68 37.48 17.43 37.51 17.47 21.21 17.72 21.18"/><polygon class="cls-24" points="16.14 21.12 16.1 37.42 16.01 37.52 16.05 21.22 16.14 21.12"/><polygon class="cls-14" points="19.97 20.99 19.93 37.29 19.51 37.53 19.56 21.23 19.97 20.99"/><polygon class="cls-4" points="14.61 21.22 14.56 37.52 14.55 37.27 14.6 20.96 14.61 21.22"/><polygon class="cls-4" points="30.68 21.28 30.64 37.58 30.53 37.45 30.58 21.15 30.68 21.28"/><polygon class="cls-4" points="17.76 21.28 17.71 37.58 17.68 37.48 17.72 21.18 17.76 21.28"/><polygon class="cls-35" points="14.72 21.3 14.68 37.6 14.56 37.52 14.61 21.22 14.72 21.3"/><polygon class="cls-49" points="17.98 21.34 17.94 37.64 17.71 37.58 17.76 21.28 17.98 21.34"/><polygon class="cls-54" points="30.91 21.39 30.87 37.69 30.64 37.58 30.68 21.28 30.91 21.39"/><polygon class="cls-18" points="31.19 21.48 31.14 37.78 30.87 37.69 30.91 21.39 31.19 21.48"/><polygon class="cls-14" points="19.56 21.23 19.51 37.53 19.11 37.77 19.15 21.46 19.56 21.23"/><polygon class="cls-4" points="16.69 21.52 16.64 37.83 16.52 37.4 16.56 21.09 16.69 21.52"/><polygon class="cls-72" points="32.94 21.25 32.9 37.55 32.81 37.9 32.86 21.6 32.94 21.25"/><polygon class="cls-54" points="15.27 21.56 15.22 37.86 14.68 37.6 14.72 21.3 15.27 21.56"/><polygon class="cls-27" points="16.84 21.63 16.79 37.93 16.64 37.83 16.69 21.52 16.84 21.63"/><polygon class="cls-35" points="15.41 21.64 15.36 37.95 15.22 37.86 15.27 21.56 15.41 21.64"/><polygon class="cls-14" points="19.15 21.46 19.11 37.77 18.69 38 18.74 21.7 19.15 21.46"/><polygon class="cls-17" points="16.17 21.7 16.13 38.01 15.36 37.95 15.41 21.64 16.17 21.7"/><polygon class="cls-66" points="17.72 21.61 17.67 37.92 17.66 38.03 17.71 21.73 17.72 21.61"/><polygon class="cls-75" points="15.24 21.75 15.19 38.06 13.8 37.35 13.85 21.05 15.24 21.75"/><polygon class="cls-78" points="31.69 21.82 31.64 38.13 31.14 37.78 31.19 21.48 31.69 21.82"/><polygon class="cls-53" points="17.05 21.82 17 38.12 16.79 37.93 16.84 21.63 17.05 21.82"/><polygon class="cls-30" points="17.71 21.73 17.66 38.03 17.56 38.13 17.61 21.82 17.71 21.73"/><polygon class="cls-79" points="17.21 21.87 17.16 38.17 17 38.12 17.05 21.82 17.21 21.87"/><polygon class="cls-58" points="17.45 21.87 17.4 38.18 17.16 38.17 17.21 21.87 17.45 21.87"/><polygon class="cls-16" points="17.61 21.82 17.56 38.13 17.4 38.18 17.45 21.87 17.61 21.82"/><polygon class="cls-80" points="18.15 21.92 18.11 38.23 17.81 38.09 17.86 21.79 18.15 21.92"/><polygon class="cls-41" points="18.32 21.94 18.27 38.25 18.11 38.23 18.15 21.92 18.32 21.94"/><polygon class="cls-14" points="18.74 21.7 18.69 38 18.27 38.25 18.32 21.94 18.74 21.7"/><polygon class="cls-4" points="31.75 22.09 31.7 38.4 31.64 38.13 31.69 21.82 31.75 22.09"/><polygon class="cls-4" points="31.75 22.23 31.71 38.54 31.7 38.4 31.75 22.09 31.75 22.23"/><polygon class="cls-79" points="31.43 21.91 31.39 38.21 31.37 38.65 31.42 22.35 31.43 21.91"/><polygon class="cls-81" points="31.42 22.35 31.37 38.65 30.89 38.67 30.94 22.37 31.42 22.35"/><polygon class="cls-13" points="30.94 22.37 30.89 38.67 30.6 38.74 30.65 22.43 30.94 22.37"/><polygon class="cls-3" points="30.65 22.43 30.6 38.74 30.05 38.97 30.1 22.66 30.65 22.43"/><polygon class="cls-41" points="30.1 22.66 30.05 38.97 29.94 39.27 29.99 22.96 30.1 22.66"/><polygon class="cls-82" points="32.86 21.6 32.81 37.9 31.92 39.35 31.97 23.04 32.86 21.6"/><polygon class="cls-73" points="29.99 22.96 29.94 39.27 29.85 39.35 29.9 23.05 29.99 22.96"/><polygon class="cls-83" points="31.97 23.04 31.92 39.35 31.74 39.5 31.78 23.2 31.97 23.04"/><polygon class="cls-3" points="29.9 23.05 29.85 39.35 29.42 39.53 29.47 23.23 29.9 23.05"/><polygon class="cls-48" points="28.14 23.32 28.09 39.62 27.78 39.56 27.83 23.26 28.14 23.32"/><polygon class="cls-17" points="28.88 23.37 28.83 39.68 28.09 39.62 28.14 23.32 28.88 23.37"/><polygon class="cls-84" points="29.47 23.23 29.42 39.53 28.83 39.68 28.88 23.37 29.47 23.23"/><polygon class="cls-85" points="27.83 23.26 27.78 39.56 27.77 39.73 27.81 23.43 27.83 23.26"/><polygon class="cls-86" points="28.03 23.62 27.98 39.92 27.92 40.1 27.97 23.8 28.03 23.62"/><polygon class="cls-3" points="31.78 23.2 31.74 39.5 30.46 40.17 30.5 23.86 31.78 23.2"/><polygon class="cls-84" points="27.97 23.8 27.92 40.1 27.7 40.29 27.74 23.98 27.97 23.8"/><polygon class="cls-39" points="27.74 23.98 27.7 40.29 27.61 40.47 27.66 24.17 27.74 23.98"/><polygon class="cls-10" points="30.5 23.86 30.46 40.17 29.97 40.49 30.02 24.19 30.5 23.86"/><polygon class="cls-14" points="30.02 24.19 29.97 40.49 29.82 40.55 29.87 24.25 30.02 24.19"/><polygon class="cls-3" points="27.66 24.17 27.61 40.47 27.31 40.61 27.35 24.31 27.66 24.17"/><polygon class="cls-23" points="29.87 24.25 29.82 40.55 29.26 40.71 29.31 24.41 29.87 24.25"/><polygon class="cls-4" points="20.39 24.4 20.35 40.7 20.23 40.5 20.27 24.2 20.39 24.4"/><polygon class="cls-14" points="27.35 24.31 27.31 40.61 27.06 40.76 27.11 24.45 27.35 24.31"/><polygon class="cls-3" points="29.31 24.41 29.26 40.71 29.02 40.84 29.06 24.53 29.31 24.41"/><polygon class="cls-42" points="27.11 24.45 27.06 40.76 26.93 40.92 26.97 24.61 27.11 24.45"/><polygon class="cls-4" points="20.45 24.63 20.41 40.94 20.35 40.7 20.39 24.4 20.45 24.63"/><polygon class="cls-3" points="26.97 24.61 26.93 40.92 26.55 41.12 26.59 24.81 26.97 24.61"/><polygon class="cls-70" points="20.8 24.8 20.76 41.11 20.41 40.94 20.45 24.63 20.8 24.8"/><polygon class="cls-13" points="29.06 24.53 29.02 40.84 28.6 41.18 28.65 24.88 29.06 24.53"/><polygon class="cls-27" points="20.98 24.92 20.93 41.22 20.76 41.11 20.8 24.8 20.98 24.92"/><polygon class="cls-3" points="28.65 24.88 28.6 41.18 28.29 41.35 28.33 25.04 28.65 24.88"/><polygon class="cls-36" points="21.19 25.12 21.14 41.42 20.93 41.22 20.98 24.92 21.19 25.12"/><polygon class="cls-4" points="26.68 25.17 26.64 41.47 26.61 41.26 26.65 24.96 26.68 25.17"/><polygon class="cls-87" points="21.4 25.25 21.35 41.55 21.14 41.42 21.19 25.12 21.4 25.25"/><polygon class="cls-68" points="23.73 25.29 23.69 41.59 23.4 41.48 23.45 25.18 23.73 25.29"/><polygon class="cls-42" points="26.59 24.81 26.55 41.12 26.12 41.63 26.16 25.33 26.59 24.81"/><polygon class="cls-88" points="26.16 25.33 26.12 41.63 25.77 41.68 25.82 25.38 26.16 25.33"/><polygon class="cls-12" points="25.82 25.38 25.77 41.68 25.58 41.7 25.63 25.39 25.82 25.38"/><polygon class="cls-4" points="23.8 25.43 23.75 41.73 23.69 41.59 23.73 25.29 23.8 25.43"/><polygon class="cls-89" points="21.74 25.43 21.7 41.74 21.35 41.55 21.4 25.25 21.74 25.43"/><polygon class="cls-9" points="25.63 25.39 25.58 41.7 25.16 41.81 25.2 25.51 25.63 25.39"/><polygon class="cls-26" points="25.2 25.51 25.16 41.81 24.9 41.83 24.95 25.52 25.2 25.51"/><polygon class="cls-81" points="28.33 25.04 28.29 41.35 27.94 41.84 27.98 25.53 28.33 25.04"/><polygon class="cls-40" points="24.95 25.52 24.9 41.83 24.45 41.84 24.5 25.54 24.95 25.52"/><polygon class="cls-79" points="24.5 25.54 24.45 41.84 24.29 41.79 24.33 25.48 24.5 25.54"/><polygon class="cls-4" points="23.8 25.59 23.75 41.89 23.75 41.73 23.8 25.43 23.8 25.59"/><polygon class="cls-73" points="24.33 25.48 24.29 41.79 23.75 41.89 23.8 25.59 24.33 25.48"/><polygon class="cls-90" points="22.18 25.81 22.14 42.11 21.7 41.74 21.74 25.43 22.18 25.81"/><polygon class="cls-71" points="23.28 25.87 23.23 42.18 22.98 42.13 23.02 25.82 23.28 25.87"/><polygon class="cls-14" points="23.02 25.82 22.98 42.13 22.81 42.18 22.86 25.88 23.02 25.82"/><polygon class="cls-91" points="22.4 25.93 22.35 42.24 22.14 42.11 22.18 25.81 22.4 25.93"/><polygon class="cls-50" points="22.86 25.88 22.81 42.18 22.74 42.28 22.78 25.98 22.86 25.88"/><polygon class="cls-92" points="27.98 25.53 27.94 41.84 27.69 42.31 27.74 26.01 27.98 25.53"/><polygon class="cls-60" points="22.82 26.15 22.77 42.45 22.35 42.24 22.4 25.93 22.82 26.15"/><polygon class="cls-93" points="27.74 26.01 27.69 42.31 27.58 42.48 27.63 26.17 27.74 26.01"/><polygon class="cls-93" points="24.24 26.02 24.19 42.32 24.08 42.48 24.13 26.18 24.24 26.02"/><polygon class="cls-4" points="23.07 26.33 23.02 42.64 22.89 42.44 22.93 26.14 23.07 26.33"/><polygon class="cls-14" points="27.63 26.17 27.58 42.48 27.24 42.67 27.29 26.37 27.63 26.17"/><polygon class="cls-94" points="24.13 26.18 24.08 42.48 24.03 42.79 24.08 26.49 24.13 26.18"/><polygon class="cls-7" points="23.27 26.5 23.23 42.8 23.02 42.64 23.07 26.33 23.27 26.5"/><polygon class="cls-21" points="27.29 26.37 27.24 42.67 26.99 42.92 27.04 26.62 27.29 26.37"/><polygon class="cls-75" points="23.52 26.62 23.47 42.92 23.23 42.8 23.27 26.5 23.52 26.62"/><polygon class="cls-50" points="24.08 26.49 24.03 42.79 23.89 42.97 23.94 26.67 24.08 26.49"/><polygon class="cls-10" points="27.04 26.62 26.99 42.92 26.88 42.99 26.92 26.69 27.04 26.62"/><polygon class="cls-24" points="23.94 26.67 23.89 42.97 23.69 42.99 23.74 26.69 23.94 26.67"/><polygon class="cls-18" points="23.74 26.69 23.69 42.99 23.47 42.92 23.52 26.62 23.74 26.69"/><polygon class="cls-3" points="26.92 26.69 26.88 42.99 25.91 43.48 25.96 27.18 26.92 26.69"/><polygon class="cls-30" points="25.96 27.18 25.91 43.48 25.73 43.66 25.77 27.35 25.96 27.18"/><polygon class="cls-70" points="24.6 27.39 24.55 43.69 24.16 43.49 24.21 27.19 24.6 27.39"/><polygon class="cls-26" points="25.32 27.38 25.27 43.68 25.02 43.7 25.06 27.4 25.32 27.38"/><polygon class="cls-44" points="24.76 27.4 24.71 43.7 24.55 43.69 24.6 27.39 24.76 27.4"/><polygon class="cls-28" points="25.06 27.4 25.02 43.7 24.71 43.7 24.76 27.4 25.06 27.4"/><polygon class="cls-95" points="60.12 6.36 60.26 6.46 60.4 6.59 60.56 6.7 60.38 6.8 59.78 6.96 59.54 7.08 59.01 7.43 58.79 7.62 58.47 8.03 58.26 8.2 57.7 8.5 57.53 8.56 56.96 8.7 56.73 9.05 56.5 9.18 55.97 9.34 55.81 9.43 55.76 9.54 55.73 9.78 55.63 10 54.8 10.82 54.64 10.85 54.16 10.79 53.96 10.81 53.57 10.92 53.39 10.98 53.28 11.04 53.1 11.22 53.02 11.4 52.29 11.44 52.09 11.45 51.9 11.49 51.75 11.57 51.35 11.83 51.19 11.9 50.85 11.9 50.64 12.01 49.98 11.97 49.59 12.04 49.35 12.18 49.5 12.4 49.62 12.49 49.34 12.68 49.23 12.76 49.1 12.82 48.95 12.85 48.76 12.83 48.61 12.77 48.51 12.7 48.38 12.5 48.3 12.42 48.16 12.34 48.01 12.28 47.83 12.28 47.61 12.4 47.5 12.48 47.31 12.51 46.66 12.9 46.13 13.19 45.48 13.44 43.27 14.63 40.91 15.99 39.18 16.99 38.55 17.35 36.2 18.7 35.67 19.01 33.85 20.06 33.52 20.25 33.36 20.38 33.26 20.52 33.16 20.9 32.94 21.25 32.86 21.6 31.97 23.04 31.78 23.2 30.5 23.86 30.02 24.19 29.87 24.25 29.31 24.41 29.06 24.53 28.65 24.88 28.33 25.04 27.98 25.53 27.74 26.01 27.63 26.17 27.29 26.37 27.04 26.62 26.92 26.69 25.96 27.18 25.77 27.35 25.73 27.5 25.32 27.38 25.06 27.4 24.76 27.4 24.6 27.39 24.21 27.19 24.22 26.66 24.36 26.57 24.59 26.46 24.67 26.25 24.68 25.76 24.94 25.76 25.3 25.86 25.41 25.6 25.57 25.55 25.92 25.49 26.17 25.41 26.5 25.34 26.62 25.28 26.68 25.17 26.65 24.96 26.7 24.85 26.86 24.77 27.05 24.72 27.19 24.65 27.24 24.51 27.93 24.07 28.03 23.99 28.18 23.89 28.32 23.64 28.47 23.56 28.65 23.53 28.97 23.51 29.15 23.5 29.79 23.22 30.04 23.22 30.27 23.05 30.27 22.88 30.52 22.75 31.11 22.61 31.75 22.23 31.75 22.09 31.69 21.82 31.19 21.48 30.91 21.39 30.68 21.28 30.58 21.15 31.15 20.64 31.3 20.59 31.32 20.5 31.14 20.39 31.15 20.51 30.69 20.89 30.59 20.98 30.85 21.47 31.18 21.57 31.43 21.91 31.42 22.35 30.94 22.37 30.65 22.43 30.1 22.66 29.99 22.96 29.9 23.05 29.47 23.23 28.88 23.37 28.14 23.32 27.83 23.26 27.81 23.43 28.03 23.62 27.97 23.8 27.74 23.98 27.66 24.17 27.35 24.31 27.11 24.45 26.97 24.61 26.59 24.81 26.16 25.33 25.82 25.38 25.63 25.39 25.2 25.51 24.95 25.52 24.5 25.54 24.33 25.48 23.8 25.59 23.8 25.43 23.73 25.29 23.45 25.18 23.61 25.3 23.64 25.61 23.86 25.83 24.14 25.94 24.24 26.02 24.13 26.18 24.08 26.49 23.94 26.67 23.74 26.69 23.52 26.62 23.27 26.5 23.07 26.33 22.93 26.14 22.97 25.96 23.28 25.87 23.02 25.82 22.86 25.88 22.78 25.98 22.82 26.15 22.4 25.93 22.18 25.81 21.74 25.43 21.4 25.25 21.19 25.12 20.98 24.92 20.8 24.8 20.45 24.63 20.39 24.4 20.27 24.2 20.45 24.03 20.75 23.87 21.84 23.24 22.86 22.66 24.34 21.82 25.21 21.32 25.64 21.08 25.82 20.98 26.06 20.83 25.6 20.5 25.03 20.15 25.41 19.72 25.61 19.5 26.18 19.21 26.41 18.99 26.48 18.85 26.58 18.73 26.79 18.61 27.66 18.28 27.91 18.14 28.08 17.99 28.22 17.82 28.28 17.63 28.24 17.45 28.09 17.32 27.7 17.06 27.64 16.92 27.63 16.75 27.62 16.58 27.72 16.46 28.02 16.42 28.59 16.41 29.16 16.36 29.82 16.23 30.1 16.14 30.38 16.01 30.87 15.91 31.03 15.87 31.19 15.8 31.62 15.82 31.97 15.81 32.29 15.73 32.56 15.61 32.78 15.45 32.94 15.29 33.4 15.26 34 15.08 34.99 14.97 35.21 14.89 35.4 14.8 35.74 14.56 36.18 14.39 36.36 14.28 36.44 14.15 36.51 13.83 36.68 13.68 36.86 13.46 37.12 13.3 37.31 13.1 37.77 12.78 37.96 12.51 37.85 12.23 37.53 12.02 37.05 11.93 36.69 11.97 36.31 11.91 36.02 11.91 35.78 11.95 35.55 12.02 35.39 12.08 35.26 12.27 35.04 12.44 34.86 12.58 34.72 12.85 34.42 13.12 34.35 13.23 34.22 13.57 33.97 13.88 33.88 13.96 33.74 14.02 33.51 14.07 32.68 14.15 31.94 14.01 31.75 13.97 31.54 13.96 31.31 13.97 30.89 14.06 30.6 14.21 30.4 14.4 30.23 14.77 29.61 14.93 28.94 14.74 28.75 14.71 28.55 14.69 28.36 14.7 28.13 14.72 27.8 14.81 27.11 15.18 26.57 15.32 26.42 15.4 26.12 15.78 25.93 16.26 25.83 16.36 25.43 16.34 24.98 16.48 24.79 16.73 24.72 17.01 24.73 17.26 24.77 17.37 24.85 17.49 24.95 17.61 25.32 17.87 25.24 17.95 24.92 18.14 24.51 18.38 24.1 18.61 23.68 18.85 23.27 19.09 22.86 19.33 22.45 19.56 22.03 19.8 21.62 20.04 21.48 20.12 21.21 20.28 20.8 20.51 20.39 20.75 19.97 20.99 19.56 21.23 19.15 21.46 18.74 21.7 18.32 21.94 18.15 21.92 17.86 21.79 17.87 21.66 17.95 21.52 17.98 21.34 17.76 21.28 17.72 21.18 17.47 21.21 17.7 21.35 17.72 21.45 17.72 21.61 17.71 21.73 17.61 21.82 17.45 21.87 17.21 21.87 17.05 21.82 16.84 21.63 16.69 21.52 16.56 21.09 16.72 20.97 16.59 20.91 16.78 20.75 16.92 20.82 17.1 20.87 17.13 20.74 16.94 20.65 16.78 20.58 16.08 20.09 16.05 20.23 16.13 20.34 16.35 20.54 16.45 20.67 16.48 20.79 16.26 21.03 16.14 21.12 16.05 21.22 16.17 21.7 15.41 21.64 15.27 21.56 14.72 21.3 14.61 21.22 14.6 20.96 14.94 20.75 15.27 20.66 15.24 20.56 15.48 20.42 15.33 20.34 15.38 20.1 15.13 19.98 15.14 19.86 15.1 19.64 15.11 19.53 15.26 19.38 15.23 19.24 15.65 18.95 15.23 19.14 14.99 19.2 14.85 19.11 14.79 19.2 15.04 19.94 14.9 20.18 14.97 20.47 14.88 20.66 14.71 20.73 14.51 20.78 14.34 20.87 14.21 20.62 14.25 20.5 14.23 20.27 14.21 20.47 14.03 20.62 14.13 20.71 14.21 20.89 14.37 21.21 14.55 21.39 15.24 21.75 13.85 21.05 13.62 20.95 13.18 20.82 12.81 20.75 12.34 20.85 11.66 20.64 11.51 20.59 11.11 20.57 10.65 20.42 10.43 20.32 10.23 20.3 9.81 20.3 9.11 20.44 8.25 20.34 7.6 20.18 6.97 20.12 6.6 20.12 6.41 20.14 6.22 20.19 6.05 20.26 5.91 20.3 5.49 20.38 5.17 20.5 4.96 20.6 4.81 20.7 4.77 20.85 5.04 20.91 4.09 21.07 3.88 21.08 4.68 20.27 4.74 19.93 5.31 19.12 5.36 18.88 5.14 17.54 5.04 17.24 4.98 16.67 4.26 15.19 4.11 14.56 3.51 13.22 3.14 12.86 2.83 12.6 2.1 12.16 1.84 11.87 1.68 11.64 1.24 11.35 1.15 11.24 1.16 11.14 1.35 10.96 1.38 10.86 0.41 9.9 0.17 9.72 0.09 9.63 0.05 9.49 0.05 9.36 0.1 9.22 0.22 9.12 0.49 9.01 0.72 8.67 1.32 8.52 1.55 8.53 1.75 8.49 1.92 8.41 2.05 8.3 2.55 7.85 2.92 7.69 3.1 7.55 3.62 7.37 3.85 7.25 4.14 7.18 4.48 6.75 4.94 6.48 5 6.04 5.94 5.47 6.23 5.26 6.59 5.11 7.29 4.57 7.38 4.46 7.05 4.33 7.54 3.56 7.83 3.54 8.16 3.58 8.3 3.52 8.45 3.37 9.66 2.77 9.9 2.56 10.31 2.43 10.66 2.15 11.06 1.98 11.34 1.63 11.5 1.5 12.09 1.35 12.42 1.49 12.81 1.34 13.11 1.4 13.47 1.3 13.91 1.28 14.27 1.25 14.75 1.27 15.5 1.25 15.85 1.19 16.2 1.21 16.48 1.15 16.77 1.25 17.27 1.46 17.41 1.51 17.57 1.48 17.91 1.38 18.18 1.35 18.6 1.44 19.2 1.25 19.23 1.14 19.17 0.93 19.52 0.85 20.33 0.68 20.48 0.58 20.65 0.36 20.92 0.11 21.3 0.2 21.65 0.07 22.35 0 22.63 0.1 23.01 0.2 23.66 0.2 23.97 0.35 24.42 0.42 24.58 0.45 24.73 0.5 24.87 0.58 25.38 0.71 25.75 0.73 26 0.95 26.38 1.13 26.64 0.93 27.02 0.84 27.29 0.76 28.01 0.98 28.55 0.97 28.67 0.81 28.68 0.72 29.36 0.65 29.96 0.85 30.26 0.93 30.43 0.93 31.09 0.86 31.26 0.86 31.42 0.9 31.39 1.05 31.14 1.17 31.55 1.26 31.91 1.1 32.52 1.2 32.9 1.19 33.39 1.19 33.65 1.13 33.85 0.93 34.32 0.84 34.9 0.76 35.11 0.74 35.41 0.65 36.44 0.89 37.15 0.93 37.37 0.92 37.98 0.79 38.64 0.75 38.89 0.83 39.13 0.82 40.31 0.96 40.33 1.17 40.49 1.56 40.57 1.65 40.72 1.72 41.1 1.85 41.25 1.92 41.53 2.1 42.49 1.83 43.42 1.93 43.74 1.93 44.56 2.12 44.72 2.2 44.95 2.39 45.33 2.78 45.61 2.94 45.85 3 46.07 3 46.29 2.99 46.54 3 46.71 3.05 46.85 3.13 47.08 3.31 47.28 3.55 47.29 3.81 47.05 4.32 47.21 4.32 47.44 4.34 47.84 4.42 48.17 4.51 48.54 4.56 48.8 4.57 49.47 4.51 49.71 4.53 50.27 4.56 50.54 4.83 50.97 4.79 51.31 4.84 51.64 4.5 51.52 4.42 51.42 4.31 51.38 4.21 51.42 4.12 52.03 3.96 52.19 3.86 52.73 3.9 52.92 3.94 53.31 3.98 53.59 3.97 53.78 4.17 53.98 4.28 54.66 4.44 54.81 4.48 54.95 4.43 55.51 4.33 55.91 4.45 56.42 4.67 56.5 4.46 57.01 4.61 58.18 5.44 58.26 5.82 58.92 6.15 59.1 6.4 59.49 6.45 59.68 6.36 59.9 6.42 60.12 6.36"/><polygon class="cls-74" points="25.73 27.5 25.68 43.81 25.27 43.68 25.32 27.38 25.73 27.5"/><polygon class="cls-96" points="25.77 27.35 25.73 43.66 25.68 43.81 25.73 27.5 25.77 27.35"/></g></g></g></svg>