<svg xmlns="http://www.w3.org/2000/svg" viewBox="0 0 26.67 32.37"><defs><style>.cls-1{isolation:isolate;}.cls-2{fill:#691a1a;}.cls-3{fill:#7e1f1f;}.cls-4{fill:#8e2323;}.cls-5{fill:#7a1e1e;}.cls-6{fill:#a62929;}.cls-7{fill:#a22828;}.cls-8{fill:#481212;}.cls-9{fill:#511414;}.cls-10{fill:#671919;}.cls-11{fill:#7b1e1e;}.cls-12{fill:#812020;}.cls-13{fill:#9c2626;}.cls-14{fill:#a42828;}.cls-15{fill:#a82929;}.cls-16{fill:#8c2222;}.cls-17{fill:#4a1212;}.cls-18{fill:#852121;}.cls-19{fill:#721c1c;}.cls-20{fill:#491212;}.cls-21{fill:#551515;}.cls-22{fill:#4d1313;}.cls-23{fill:#a32828;}.cls-24{fill:#892222;}.cls-25{fill:#6d1b1b;}.cls-26{fill:#741c1c;}.cls-27{fill:#641919;}.cls-28{fill:#a02727;}.cls-29{fill:#711c1c;}.cls-30{fill:#4e1313;}.cls-31{fill:#6e1b1b;}.cls-32{fill:#6a1a1a;}.cls-33{fill:#9f2727;}.cls-34{fill:#992626;}.cls-35{fill:#9d2626;}.cls-36{fill:#661919;}.cls-37{fill:#972525;}.cls-38{fill:#601717;}.cls-39{fill:#a92929;}.cls-40{fill:#7d1f1f;}.cls-41{fill:#892121;}.cls-42{fill:#6b1a1a;}.cls-43{fill:#882121;}.cls-44{fill:#501414;}.cls-45{fill:#601818;}.cls-46{fill:#9b2626;}.cls-47{fill:#822020;}.cls-48{fill:#a72929;}.cls-49{fill:#932424;}.cls-50{fill:#862121;}.cls-51{fill:#8b2222;}.cls-52{fill:#a52828;}.cls-53{fill:#8a2222;}.cls-54{fill:#942424;}.cls-55{fill:#741d1d;}.cls-56{fill:#982525;}.cls-57{fill:#992525;}.cls-58{fill:#952424;}.cls-59{fill:#4b1212;}.cls-60{fill:#651919;}.cls-61{fill:#751d1d;}.cls-62{fill:#7c1e1e;}.cls-63{fill:#a12727;}.cls-64{fill:#9e2727;}.cls-65{fill:#6c1b1b;}.cls-66{fill:#9a2626;}.cls-67{fill:#5a1616;}.cls-68{fill:#902323;}.cls-69{fill:#922424;}.cls-70{fill:#872121;}.cls-71{fill:#842020;}.cls-72{fill:#801f1f;}.cls-73{fill:#531414;}.cls-74{fill:#7f1f1f;}.cls-75{fill:#621818;}.cls-76{fill:#731c1c;}.cls-77{fill:#631818;}.cls-78{fill:#581616;}.cls-79{fill:#641818;}.cls-80{fill:#962525;}.cls-81{fill:#761d1d;}.cls-82{fill:#5b1616;}.cls-83{fill:#781d1d;}.cls-84{fill:#c83131;}.cls-85{fill:#912424;}.cls-86{fill:#681919;}</style></defs><title>Sierra Leone</title><g id="Layer_2" data-name="Layer 2"><g id="Layer_1-2" data-name="Layer 1"><g class="cls-1"><polygon class="cls-2" points="14.28 0.81 14.23 17.11 14.23 17.18 14.28 0.88 14.28 0.81"/><polygon class="cls-3" points="16.39 1.04 16.34 17.34 16.32 17.41 16.36 1.11 16.39 1.04"/><polygon class="cls-4" points="16.36 1.11 16.32 17.41 16.28 17.47 16.33 1.17 16.36 1.11"/><polygon class="cls-3" points="16.33 1.17 16.28 17.47 16.25 17.53 16.3 1.23 16.33 1.17"/><polygon class="cls-5" points="21.54 2.56 21.49 18.86 21.46 18.98 21.5 2.68 21.54 2.56"/><polygon class="cls-6" points="21.5 2.68 21.46 18.98 21.32 19.07 21.36 2.77 21.5 2.68"/><polygon class="cls-7" points="21.36 2.77 21.32 19.07 21.2 19.17 21.25 2.87 21.36 2.77"/><polygon class="cls-8" points="23.23 2.93 23.19 19.23 23.16 19.14 23.21 2.84 23.23 2.93"/><polygon class="cls-2" points="21.25 2.87 21.2 19.17 21.19 19.3 21.24 3 21.25 2.87"/><polygon class="cls-9" points="3.49 2.95 3.44 19.26 3.06 19 3.11 2.7 3.49 2.95"/><polygon class="cls-8" points="3.51 3.02 3.46 19.32 3.44 19.26 3.49 2.95 3.51 3.02"/><polygon class="cls-8" points="23.4 3.21 23.36 19.51 23.19 19.23 23.23 2.93 23.4 3.21"/><polygon class="cls-8" points="23.42 3.31 23.38 19.62 23.36 19.51 23.4 3.21 23.42 3.31"/><polygon class="cls-10" points="21.36 3.32 21.31 19.63 21.31 19.74 21.35 3.44 21.36 3.32"/><polygon class="cls-11" points="21.55 3.61 21.5 19.92 21.47 20.01 21.51 3.71 21.55 3.61"/><polygon class="cls-12" points="25.74 3.77 25.69 20.07 25.64 20.19 25.69 3.89 25.74 3.77"/><polygon class="cls-13" points="25.69 3.89 25.64 20.19 25.55 20.29 25.59 3.99 25.69 3.89"/><polygon class="cls-14" points="25.59 3.99 25.55 20.29 25.43 20.38 25.48 4.08 25.59 3.99"/><polygon class="cls-15" points="25.48 4.08 25.43 20.38 24.91 20.69 24.95 4.39 25.48 4.08"/><polygon class="cls-14" points="24.95 4.39 24.91 20.69 24.79 20.78 24.84 4.48 24.95 4.39"/><polygon class="cls-16" points="24.84 4.48 24.79 20.78 24.71 20.92 24.76 4.62 24.84 4.48"/><polygon class="cls-8" points="22.39 4.61 22.34 20.91 22.33 20.76 22.38 4.45 22.39 4.61"/><polygon class="cls-17" points="22.56 4.77 22.51 21.07 22.34 20.91 22.39 4.61 22.56 4.77"/><polygon class="cls-2" points="24.92 5 24.87 21.3 24.87 21.38 24.91 5.07 24.92 5"/><polygon class="cls-18" points="24.91 5.07 24.87 21.38 24.79 21.53 24.84 5.23 24.91 5.07"/><polygon class="cls-19" points="24.84 5.23 24.79 21.53 24.78 21.59 24.83 5.29 24.84 5.23"/><polygon class="cls-20" points="0.15 5.61 0.11 21.92 0 21.81 0.05 5.51 0.15 5.61"/><polygon class="cls-21" points="0.23 5.66 0.18 21.96 0.11 21.92 0.15 5.61 0.23 5.66"/><polygon class="cls-22" points="0.66 6 0.61 22.3 0.18 21.96 0.23 5.66 0.66 6"/><polygon class="cls-8" points="0.74 6.13 0.69 22.44 0.61 22.3 0.66 6 0.74 6.13"/><polygon class="cls-20" points="0.82 6.22 0.77 22.52 0.69 22.44 0.74 6.13 0.82 6.22"/><polygon class="cls-23" points="26.56 6.31 26.52 22.61 26.39 22.72 26.44 6.41 26.56 6.31"/><polygon class="cls-8" points="0.74 6.48 0.7 22.78 0.69 22.71 0.74 6.41 0.74 6.48"/><polygon class="cls-24" points="26.44 6.41 26.39 22.72 26.21 23.03 26.26 6.73 26.44 6.41"/><polygon class="cls-8" points="0.82 6.68 0.78 22.98 0.7 22.78 0.74 6.48 0.82 6.68"/><polygon class="cls-17" points="1.09 6.93 1.04 23.23 0.78 22.98 0.82 6.68 1.09 6.93"/><polygon class="cls-25" points="26.26 6.73 26.21 23.03 26.18 23.31 26.22 7 26.26 6.73"/><polygon class="cls-8" points="1 7.06 0.96 23.36 0.93 23.31 0.98 7.01 1 7.06"/><polygon class="cls-8" points="1.22 7.41 1.18 23.71 0.96 23.36 1 7.06 1.22 7.41"/><polygon class="cls-8" points="1.64 8.18 1.59 24.49 1.18 23.71 1.22 7.41 1.64 8.18"/><polygon class="cls-26" points="26.43 8.23 26.39 24.53 26.37 24.61 26.41 8.3 26.43 8.23"/><polygon class="cls-4" points="26.41 8.3 26.37 24.61 26.32 24.68 26.37 8.38 26.41 8.3"/><polygon class="cls-8" points="1.65 8.43 1.61 24.73 1.54 24.63 1.58 8.33 1.65 8.43"/><polygon class="cls-27" points="1.79 8.48 1.75 24.78 1.61 24.73 1.65 8.43 1.79 8.48"/><polygon class="cls-28" points="26.37 8.38 26.32 24.68 26.13 24.86 26.18 8.56 26.37 8.38"/><polygon class="cls-18" points="26.18 8.56 26.13 24.86 26.01 25.11 26.05 8.8 26.18 8.56"/><polygon class="cls-8" points="1.78 8.89 1.73 25.19 1.62 24.95 1.67 8.65 1.78 8.89"/><polygon class="cls-8" points="1.11 9.7 1.07 26 0.97 25.82 1.02 9.51 1.11 9.7"/><polygon class="cls-29" points="26.05 8.8 26.01 25.11 25.81 26.12 25.86 9.82 26.05 8.8"/><polygon class="cls-30" points="1.28 9.82 1.23 26.12 1.07 26 1.11 9.7 1.28 9.82"/><polygon class="cls-31" points="1.38 9.85 1.33 26.15 1.23 26.12 1.28 9.82 1.38 9.85"/><polygon class="cls-26" points="1.62 9.9 1.58 26.2 1.33 26.15 1.38 9.85 1.62 9.9"/><polygon class="cls-8" points="1.54 10.09 1.49 26.4 1.46 26.31 1.51 10 1.54 10.09"/><polygon class="cls-8" points="1.58 10.18 1.53 26.48 1.49 26.4 1.54 10.09 1.58 10.18"/><polygon class="cls-8" points="1.7 10.35 1.66 26.65 1.53 26.48 1.58 10.18 1.7 10.35"/><polygon class="cls-8" points="1.73 10.47 1.68 26.77 1.66 26.65 1.7 10.35 1.73 10.47"/><polygon class="cls-32" points="26.01 10.55 25.97 26.85 25.96 26.92 26.01 10.61 26.01 10.55"/><polygon class="cls-4" points="26.01 10.61 25.96 26.92 25.66 27.38 25.71 11.07 26.01 10.61"/><polygon class="cls-33" points="25.71 11.07 25.66 27.38 25.58 27.45 25.63 11.15 25.71 11.07"/><polygon class="cls-34" points="2.52 11.28 2.48 27.58 2.27 27.61 2.32 11.3 2.52 11.28"/><polygon class="cls-6" points="3.61 11.22 3.56 27.53 3.21 27.64 3.25 11.34 3.61 11.22"/><polygon class="cls-7" points="2.32 11.3 2.27 27.61 2.15 27.7 2.2 11.4 2.32 11.3"/><polygon class="cls-35" points="3.25 11.34 3.21 27.64 3.06 27.79 3.1 11.49 3.25 11.34"/><polygon class="cls-15" points="3.1 11.49 3.06 27.79 2.91 27.85 2.96 11.54 3.1 11.49"/><polygon class="cls-36" points="25.75 11.49 25.71 27.8 25.7 27.93 25.75 11.63 25.75 11.49"/><polygon class="cls-14" points="2.96 11.54 2.91 27.85 2.8 27.88 2.84 11.57 2.96 11.54"/><polygon class="cls-37" points="2.2 11.4 2.15 27.7 1.97 27.93 2.02 11.63 2.2 11.4"/><polygon class="cls-4" points="2.84 11.57 2.8 27.88 2.76 27.94 2.8 11.63 2.84 11.57"/><polygon class="cls-7" points="2.8 11.63 2.76 27.94 2.67 28.01 2.72 11.71 2.8 11.63"/><polygon class="cls-6" points="2.02 11.63 1.97 27.93 1.83 28.02 1.88 11.72 2.02 11.63"/><polygon class="cls-38" points="2.51 11.74 2.46 28.04 2.13 27.9 2.17 11.6 2.51 11.74"/><polygon class="cls-39" points="2.72 11.71 2.67 28.01 2.56 28.06 2.61 11.76 2.72 11.71"/><polygon class="cls-40" points="2.61 11.76 2.56 28.06 2.46 28.04 2.51 11.74 2.61 11.76"/><polygon class="cls-41" points="0.56 11.76 0.52 28.06 0.28 28.05 0.33 11.75 0.56 11.76"/><polygon class="cls-15" points="1.88 11.72 1.83 28.02 1.63 28.1 1.68 11.8 1.88 11.72"/><polygon class="cls-37" points="1.68 11.8 1.63 28.1 1.41 28.12 1.46 11.82 1.68 11.8"/><polygon class="cls-42" points="1.46 11.82 1.41 28.12 1.2 28.06 1.25 11.76 1.46 11.82"/><polygon class="cls-15" points="1.25 11.76 1.2 28.06 1.05 28.14 1.1 11.84 1.25 11.76"/><polygon class="cls-8" points="5.78 11.91 5.73 28.21 5.44 27.77 5.48 11.47 5.78 11.91"/><polygon class="cls-43" points="26.19 11.76 26.15 28.06 26.03 28.27 26.08 11.97 26.19 11.76"/><polygon class="cls-15" points="6.31 11.89 6.26 28.2 6.11 28.25 6.16 11.95 6.31 11.89"/><polygon class="cls-39" points="1.1 11.84 1.05 28.14 0.81 28.26 0.85 11.95 1.1 11.84"/><polygon class="cls-44" points="0.85 11.95 0.81 28.26 0.52 28.06 0.56 11.76 0.85 11.95"/><polygon class="cls-14" points="6.16 11.95 6.11 28.25 5.99 28.35 6.03 12.04 6.16 11.95"/><polygon class="cls-8" points="5.81 12.07 5.76 28.37 5.73 28.21 5.78 11.91 5.81 12.07"/><polygon class="cls-45" points="5.9 12.11 5.85 28.41 5.76 28.37 5.81 12.07 5.9 12.11"/><polygon class="cls-39" points="6.03 12.04 5.99 28.35 5.85 28.41 5.9 12.11 6.03 12.04"/><polygon class="cls-46" points="5.61 12 5.56 28.31 5.4 28.48 5.44 12.18 5.61 12"/><polygon class="cls-15" points="5.44 12.18 5.4 28.48 5.28 28.55 5.33 12.25 5.44 12.18"/><polygon class="cls-15" points="5.33 12.25 5.28 28.55 5.16 28.6 5.21 12.29 5.33 12.25"/><polygon class="cls-8" points="2.14 12.32 2.09 28.63 2.07 28.4 2.11 12.09 2.14 12.32"/><polygon class="cls-15" points="5.21 12.29 5.16 28.6 5.07 28.65 5.12 12.35 5.21 12.29"/><polygon class="cls-46" points="4.76 12.21 4.71 28.51 4.54 28.69 4.59 12.39 4.76 12.21"/><polygon class="cls-8" points="4.75 12.41 4.7 28.71 4.68 28.62 4.72 12.32 4.75 12.41"/><polygon class="cls-47" points="26.48 12.33 26.43 28.63 26.35 28.8 26.4 12.5 26.48 12.33"/><polygon class="cls-47" points="5.12 12.35 5.07 28.65 5 28.81 5.05 12.5 5.12 12.35"/><polygon class="cls-8" points="4.76 12.5 4.71 28.81 4.7 28.71 4.75 12.41 4.76 12.5"/><polygon class="cls-4" points="4.62 12.46 4.58 28.77 4.54 28.82 4.58 12.52 4.62 12.46"/><polygon class="cls-8" points="5.42 12.53 5.38 28.83 5.36 28.78 5.41 12.47 5.42 12.53"/><polygon class="cls-6" points="4.58 12.52 4.54 28.82 4.4 28.87 4.45 12.57 4.58 12.52"/><polygon class="cls-48" points="5.05 12.5 5 28.81 4.89 28.88 4.94 12.57 5.05 12.5"/><polygon class="cls-49" points="4.45 12.57 4.4 28.87 4.22 28.88 4.27 12.57 4.45 12.57"/><polygon class="cls-18" points="4.27 12.57 4.22 28.88 3.94 28.86 3.99 12.55 4.27 12.57"/><polygon class="cls-8" points="5.46 12.59 5.41 28.89 5.38 28.83 5.42 12.53 5.46 12.59"/><polygon class="cls-50" points="3.99 12.55 3.94 28.86 3.91 28.92 3.96 12.61 3.99 12.55"/><polygon class="cls-51" points="3.96 12.61 3.91 28.92 3.67 28.91 3.71 12.61 3.96 12.61"/><polygon class="cls-52" points="4.94 12.57 4.89 28.88 4.74 28.92 4.79 12.62 4.94 12.57"/><polygon class="cls-50" points="4.79 12.62 4.74 28.92 4.58 28.91 4.63 12.61 4.79 12.62"/><polygon class="cls-17" points="5.51 12.64 5.47 28.94 5.41 28.89 5.46 12.59 5.51 12.64"/><polygon class="cls-21" points="5.59 12.68 5.54 28.99 5.47 28.94 5.51 12.64 5.59 12.68"/><polygon class="cls-53" points="4.22 12.63 4.18 28.93 4.13 29.01 4.18 12.71 4.22 12.63"/><polygon class="cls-21" points="2.85 12.74 2.81 29.04 2.09 28.63 2.14 12.32 2.85 12.74"/><polygon class="cls-8" points="5.48 12.83 5.44 29.13 5.4 29.07 5.45 12.76 5.48 12.83"/><polygon class="cls-51" points="26.67 12.67 26.62 28.97 26.49 29.2 26.54 12.89 26.67 12.67"/><polygon class="cls-54" points="26.54 12.89 26.49 29.2 26.29 29.21 26.34 12.9 26.54 12.89"/><polygon class="cls-9" points="3.05 12.86 3 29.16 2.81 29.04 2.85 12.74 3.05 12.86"/><polygon class="cls-8" points="5.5 12.89 5.45 29.2 5.44 29.13 5.48 12.83 5.5 12.89"/><polygon class="cls-21" points="3.15 12.92 3.11 29.23 3 29.16 3.05 12.86 3.15 12.92"/><polygon class="cls-55" points="3.26 12.95 3.21 29.25 3.11 29.23 3.15 12.92 3.26 12.95"/><polygon class="cls-18" points="3.4 12.96 3.36 29.26 3.21 29.25 3.26 12.95 3.4 12.96"/><polygon class="cls-15" points="26.34 12.9 26.29 29.21 25.96 29.33 26 13.03 26.34 12.9"/><polygon class="cls-3" points="3.59 12.98 3.54 29.29 3.36 29.26 3.4 12.96 3.59 12.98"/><polygon class="cls-33" points="26 13.03 25.96 29.33 25.75 29.37 25.8 13.06 26 13.03"/><polygon class="cls-56" points="25.45 13.05 25.4 29.36 25.21 29.38 25.25 13.07 25.45 13.05"/><polygon class="cls-19" points="3.76 13.02 3.71 29.33 3.54 29.29 3.59 12.98 3.76 13.02"/><polygon class="cls-57" points="25.8 13.06 25.75 29.37 25.54 29.39 25.58 13.09 25.8 13.06"/><polygon class="cls-58" points="25.58 13.09 25.54 29.39 25.35 29.4 25.4 13.1 25.58 13.09"/><polygon class="cls-59" points="17.41 13.07 17.36 29.38 17.25 29.29 17.3 12.98 17.41 13.07"/><polygon class="cls-31" points="4.7 12.9 4.66 29.2 4.63 29.36 4.68 13.05 4.7 12.9"/><polygon class="cls-23" points="25.25 13.07 25.21 29.38 25.14 29.43 25.19 13.12 25.25 13.07"/><polygon class="cls-16" points="24.91 13.15 24.87 29.45 24.68 29.45 24.73 13.14 24.91 13.15"/><polygon class="cls-39" points="17.3 12.98 17.25 29.29 16.97 29.43 17.02 13.13 17.3 12.98"/><polygon class="cls-60" points="4 13.11 3.95 29.41 3.71 29.33 3.76 13.02 4 13.11"/><polygon class="cls-18" points="25.19 13.12 25.14 29.43 25.12 29.48 25.16 13.17 25.19 13.12"/><polygon class="cls-47" points="25.16 13.17 25.12 29.48 24.87 29.45 24.91 13.15 25.16 13.17"/><polygon class="cls-54" points="24.73 13.14 24.68 29.45 24.04 29.48 24.08 13.18 24.73 13.14"/><polygon class="cls-39" points="17.02 13.13 16.97 29.43 16.88 29.47 16.93 13.17 17.02 13.13"/><polygon class="cls-61" points="4.16 13.14 4.11 29.45 3.95 29.41 4 13.11 4.16 13.14"/><polygon class="cls-15" points="16.93 13.17 16.88 29.47 16.81 29.52 16.85 13.21 16.93 13.17"/><polygon class="cls-37" points="4.79 13.2 4.74 29.5 4.57 29.52 4.62 13.21 4.79 13.2"/><polygon class="cls-62" points="4.62 13.21 4.57 29.52 4.11 29.45 4.16 13.14 4.62 13.21"/><polygon class="cls-63" points="16.85 13.21 16.81 29.52 16.75 29.56 16.8 13.26 16.85 13.21"/><polygon class="cls-7" points="6.15 13.21 6.1 29.52 5.82 29.58 5.86 13.27 6.15 13.21"/><polygon class="cls-64" points="6.37 13.28 6.32 29.58 6.21 29.6 6.26 13.3 6.37 13.28"/><polygon class="cls-4" points="6.26 13.3 6.21 29.6 6.11 29.6 6.16 13.3 6.26 13.3"/><polygon class="cls-65" points="6.16 13.3 6.11 29.6 6.01 29.57 6.05 13.27 6.16 13.3"/><polygon class="cls-31" points="6.46 13.3 6.41 29.61 6.32 29.58 6.37 13.28 6.46 13.3"/><polygon class="cls-8" points="17.3 13.36 17.26 29.66 17.21 29.54 17.25 13.24 17.3 13.36"/><polygon class="cls-8" points="5.42 13.34 5.37 29.64 5.27 29.52 5.32 13.21 5.42 13.34"/><polygon class="cls-16" points="5.61 13.34 5.57 29.65 5.37 29.64 5.42 13.34 5.61 13.34"/><polygon class="cls-52" points="5.86 13.27 5.82 29.58 5.57 29.65 5.61 13.34 5.86 13.27"/><polygon class="cls-66" points="14.38 13.36 14.33 29.66 14.11 29.68 14.15 13.38 14.38 13.36"/><polygon class="cls-35" points="24.08 13.18 24.04 29.48 22.55 29.71 22.6 13.41 24.08 13.18"/><polygon class="cls-19" points="16.8 13.26 16.75 29.56 16.71 29.76 16.76 13.46 16.8 13.26"/><polygon class="cls-8" points="14.35 13.48 14.3 29.79 14.27 29.73 14.31 13.42 14.35 13.48"/><polygon class="cls-32" points="14.15 13.38 14.11 29.68 14.1 29.81 14.14 13.51 14.15 13.38"/><polygon class="cls-4" points="16.76 13.46 16.71 29.76 16.67 29.83 16.71 13.53 16.76 13.46"/><polygon class="cls-67" points="14.44 13.53 14.4 29.84 14.3 29.79 14.35 13.48 14.44 13.53"/><polygon class="cls-8" points="7.77 13.58 7.73 29.88 7.69 29.81 7.73 13.5 7.77 13.58"/><polygon class="cls-48" points="16.71 13.53 16.67 29.83 16.55 29.91 16.59 13.61 16.71 13.53"/><polygon class="cls-8" points="14.51 13.61 14.46 29.92 14.4 29.84 14.44 13.53 14.51 13.61"/><polygon class="cls-63" points="16.59 13.61 16.55 29.91 16.5 29.95 16.54 13.65 16.59 13.61"/><polygon class="cls-8" points="7.82 13.63 7.78 29.94 7.73 29.88 7.77 13.58 7.82 13.63"/><polygon class="cls-22" points="7.9 13.69 7.86 30 7.78 29.94 7.82 13.63 7.9 13.69"/><polygon class="cls-16" points="16.54 13.65 16.5 29.95 16.43 30.07 16.47 13.76 16.54 13.65"/><polygon class="cls-9" points="7.99 13.75 7.94 30.06 7.86 30 7.9 13.69 7.99 13.75"/><polygon class="cls-66" points="8.52 13.74 8.47 30.05 8.35 30.06 8.39 13.76 8.52 13.74"/><polygon class="cls-3" points="8.79 13.78 8.74 30.08 8.47 30.05 8.52 13.74 8.79 13.78"/><polygon class="cls-7" points="8.39 13.76 8.35 30.06 8.22 30.09 8.26 13.79 8.39 13.76"/><polygon class="cls-8" points="9.38 13.79 9.34 30.1 9.33 30.02 9.38 13.72 9.38 13.79"/><polygon class="cls-29" points="4.1 13.78 4.05 30.09 3.96 30.06 4.01 13.76 4.1 13.78"/><polygon class="cls-32" points="8.13 13.8 8.08 30.1 7.94 30.06 7.99 13.75 8.13 13.8"/><polygon class="cls-37" points="8.26 13.79 8.22 30.09 8.08 30.1 8.13 13.8 8.26 13.79"/><polygon class="cls-47" points="4.31 13.8 4.27 30.11 4.05 30.09 4.1 13.78 4.31 13.8"/><polygon class="cls-39" points="9.38 13.72 9.33 30.02 9.09 30.12 9.14 13.82 9.38 13.72"/><polygon class="cls-29" points="8.96 13.82 8.92 30.13 8.74 30.08 8.79 13.78 8.96 13.82"/><polygon class="cls-68" points="9.14 13.82 9.09 30.12 8.92 30.13 8.96 13.82 9.14 13.82"/><polygon class="cls-32" points="4.39 13.83 4.35 30.13 4.27 30.11 4.31 13.8 4.39 13.83"/><polygon class="cls-28" points="16.47 13.76 16.43 30.07 16.31 30.17 16.36 13.87 16.47 13.76"/><polygon class="cls-8" points="9.41 13.88 9.36 30.19 9.34 30.1 9.38 13.79 9.41 13.88"/><polygon class="cls-8" points="4.49 13.93 4.44 30.24 4.35 30.13 4.39 13.83 4.49 13.93"/><polygon class="cls-52" points="22.6 13.41 22.55 29.71 20.44 30.29 20.49 13.98 22.6 13.41"/><polygon class="cls-8" points="9.46 13.96 9.41 30.26 9.36 30.19 9.41 13.88 9.46 13.96"/><polygon class="cls-28" points="7.73 13.5 7.69 29.81 7.19 30.26 7.24 13.95 7.73 13.5"/><polygon class="cls-69" points="16.36 13.87 16.31 30.17 16.23 30.29 16.28 13.98 16.36 13.87"/><polygon class="cls-8" points="14.44 13.99 14.39 30.3 14.29 29.95 14.34 13.64 14.44 13.99"/><polygon class="cls-33" points="16.28 13.98 16.23 30.29 16.17 30.34 16.21 14.04 16.28 13.98"/><polygon class="cls-59" points="9.54 14.02 9.49 30.33 9.41 30.26 9.46 13.96 9.54 14.02"/><polygon class="cls-47" points="4.73 14.03 4.68 30.33 4.57 30.32 4.62 14.02 4.73 14.03"/><polygon class="cls-70" points="4.9 14.04 4.85 30.34 4.68 30.33 4.73 14.03 4.9 14.04"/><polygon class="cls-15" points="4.62 14.02 4.57 30.32 4.47 30.36 4.52 14.06 4.62 14.02"/><polygon class="cls-8" points="4.52 14.06 4.47 30.36 4.44 30.24 4.49 13.93 4.52 14.06"/><polygon class="cls-54" points="7.24 13.95 7.19 30.26 7.11 30.37 7.15 14.07 7.24 13.95"/><polygon class="cls-71" points="5.29 14.07 5.24 30.38 4.85 30.34 4.9 14.04 5.29 14.07"/><polygon class="cls-72" points="14.25 13.8 14.21 30.1 14.08 30.41 14.13 14.11 14.25 13.8"/><polygon class="cls-41" points="5.59 14.09 5.55 30.39 5.24 30.38 5.29 14.07 5.59 14.09"/><polygon class="cls-69" points="15.37 14.11 15.32 30.41 15.12 30.42 15.16 14.12 15.37 14.11"/><polygon class="cls-59" points="15.16 14.12 15.12 30.42 14.93 30.26 14.98 13.96 15.16 14.12"/><polygon class="cls-15" points="16.21 14.04 16.17 30.34 15.95 30.43 16 14.12 16.21 14.04"/><polygon class="cls-73" points="9.72 14.13 9.67 30.44 9.49 30.33 9.54 14.02 9.72 14.13"/><polygon class="cls-39" points="16 14.12 15.95 30.43 15.88 30.46 15.92 14.16 16 14.12"/><polygon class="cls-74" points="14.98 13.96 14.93 30.26 14.85 30.47 14.9 14.17 14.98 13.96"/><polygon class="cls-8" points="14.58 14.17 14.53 30.47 14.39 30.3 14.44 13.99 14.58 14.17"/><polygon class="cls-4" points="14.9 14.17 14.85 30.47 14.53 30.47 14.58 14.17 14.9 14.17"/><polygon class="cls-60" points="15.54 14.17 15.49 30.48 15.32 30.41 15.37 14.11 15.54 14.17"/><polygon class="cls-54" points="6.33 14.16 6.29 30.47 6.14 30.47 6.19 14.17 6.33 14.16"/><polygon class="cls-3" points="6.19 14.17 6.14 30.47 5.55 30.39 5.59 14.09 6.19 14.17"/><polygon class="cls-52" points="15.92 14.16 15.88 30.46 15.67 30.52 15.72 14.22 15.92 14.16"/><polygon class="cls-29" points="15.72 14.22 15.67 30.52 15.49 30.48 15.54 14.17 15.72 14.22"/><polygon class="cls-4" points="10.98 14.22 10.93 30.52 10.66 30.52 10.71 14.22 10.98 14.22"/><polygon class="cls-8" points="6.38 14.22 6.33 30.53 6.29 30.47 6.33 14.16 6.38 14.22"/><polygon class="cls-50" points="7.15 14.07 7.11 30.37 7.02 30.54 7.07 14.24 7.15 14.07"/><polygon class="cls-37" points="10.71 14.22 10.66 30.52 10.38 30.55 10.42 14.25 10.71 14.22"/><polygon class="cls-65" points="10.15 14.26 10.1 30.56 9.67 30.44 9.72 14.13 10.15 14.26"/><polygon class="cls-49" points="10.42 14.25 10.38 30.55 10.1 30.56 10.15 14.26 10.42 14.25"/><polygon class="cls-54" points="14.13 14.11 14.08 30.41 13.95 30.58 13.99 14.28 14.13 14.11"/><polygon class="cls-49" points="13.99 14.28 13.95 30.58 13.77 30.59 13.82 14.29 13.99 14.28"/><polygon class="cls-67" points="6.47 14.27 6.42 30.57 6.33 30.53 6.38 14.22 6.47 14.27"/><polygon class="cls-75" points="6.63 14.34 6.58 30.64 6.42 30.57 6.47 14.27 6.63 14.34"/><polygon class="cls-11" points="15.48 14.3 15.44 30.61 15.41 30.68 15.46 14.38 15.48 14.3"/><polygon class="cls-8" points="16.16 14.38 16.11 30.69 16.08 30.59 16.13 14.28 16.16 14.38"/><polygon class="cls-76" points="7.07 14.24 7.02 30.54 6.99 30.71 7.03 14.41 7.07 14.24"/><polygon class="cls-23" points="12.02 14.35 11.98 30.66 11.88 30.73 11.93 14.43 12.02 14.35"/><polygon class="cls-77" points="17.5 14.52 17.45 30.82 17.37 30.79 17.42 14.49 17.5 14.52"/><polygon class="cls-78" points="6.92 14.49 6.88 30.79 6.58 30.64 6.63 14.34 6.92 14.49"/><polygon class="cls-33" points="17.42 14.49 17.37 30.79 17.15 30.83 17.2 14.53 17.42 14.49"/><polygon class="cls-39" points="13.82 14.29 13.77 30.59 13.22 30.82 13.26 14.52 13.82 14.29"/><polygon class="cls-69" points="17.2 14.53 17.15 30.83 16.95 30.84 16.99 14.54 17.2 14.53"/><polygon class="cls-23" points="20.49 13.98 20.44 30.29 18.21 30.84 18.25 14.54 20.49 13.98"/><polygon class="cls-60" points="7.06 14.54 7.01 30.84 6.88 30.79 6.92 14.49 7.06 14.54"/><polygon class="cls-28" points="16.99 14.54 16.95 30.84 16.68 30.89 16.73 14.59 16.99 14.54"/><polygon class="cls-20" points="12.02 14.59 11.97 30.89 11.91 30.83 11.96 14.52 12.02 14.59"/><polygon class="cls-15" points="13.26 14.52 13.22 30.82 13.03 30.89 13.08 14.59 13.26 14.52"/><polygon class="cls-39" points="16.73 14.59 16.68 30.89 16.6 30.93 16.65 14.62 16.73 14.59"/><polygon class="cls-8" points="16.18 14.64 16.13 30.94 16.1 30.82 16.15 14.52 16.18 14.64"/><polygon class="cls-57" points="13.08 14.59 13.03 30.89 12.58 30.94 12.63 14.64 13.08 14.59"/><polygon class="cls-79" points="12.16 14.64 12.12 30.95 11.97 30.89 12.02 14.59 12.16 14.64"/><polygon class="cls-63" points="12.63 14.64 12.58 30.94 12.44 30.97 12.49 14.67 12.63 14.64"/><polygon class="cls-80" points="12.49 14.67 12.44 30.97 12.3 30.98 12.34 14.68 12.49 14.67"/><polygon class="cls-81" points="12.34 14.68 12.3 30.98 12.12 30.95 12.16 14.64 12.34 14.68"/><polygon class="cls-69" points="11.93 14.43 11.88 30.73 11.69 31.01 11.73 14.71 11.93 14.43"/><polygon class="cls-18" points="16.65 14.62 16.6 30.93 16.55 31.03 16.6 14.73 16.65 14.62"/><polygon class="cls-64" points="16.6 14.73 16.55 31.03 16.46 31.04 16.51 14.74 16.6 14.73"/><polygon class="cls-71" points="10.95 14.73 10.9 31.03 10.77 31.02 10.81 14.71 10.95 14.73"/><polygon class="cls-80" points="16.51 14.74 16.46 31.04 16.36 31.05 16.41 14.75 16.51 14.74"/><polygon class="cls-82" points="16.41 14.75 16.36 31.05 16.13 30.94 16.18 14.64 16.41 14.75"/><polygon class="cls-48" points="10.81 14.71 10.77 31.02 10.64 31.06 10.69 14.76 10.81 14.71"/><polygon class="cls-46" points="11.73 14.71 11.69 31.01 11.16 31.08 11.21 14.77 11.73 14.71"/><polygon class="cls-83" points="11.21 14.77 11.16 31.08 10.9 31.03 10.95 14.73 11.21 14.77"/><polygon class="cls-7" points="10.69 14.76 10.64 31.06 10.54 31.09 10.59 14.78 10.69 14.76"/><polygon class="cls-41" points="10.42 14.79 10.38 31.09 10.07 31.08 10.12 14.77 10.42 14.79"/><polygon class="cls-49" points="10.59 14.78 10.54 31.09 10.38 31.09 10.42 14.79 10.59 14.78"/><polygon class="cls-6" points="18.25 14.54 18.21 30.84 16.54 31.35 16.58 15.05 18.25 14.54"/><polygon class="cls-84" points="26.67 12.67 26.54 12.89 26.34 12.9 26 13.03 25.8 13.06 25.58 13.09 25.4 13.1 25.45 13.05 25.25 13.07 25.19 13.12 25.16 13.17 24.91 13.15 24.73 13.14 24.08 13.18 22.6 13.41 20.49 13.98 18.25 14.54 16.58 15.05 16.61 14.83 16.85 14.69 17.17 14.59 17.5 14.52 17.42 14.49 17.2 14.53 16.99 14.54 16.73 14.59 16.65 14.62 16.6 14.73 16.51 14.74 16.41 14.75 16.18 14.64 16.15 14.52 16.16 14.38 16.13 14.28 16.14 14.19 16.3 14.14 16.34 14.08 16.4 14.03 16.57 13.94 16.65 13.85 16.89 13.79 17.03 13.68 17.07 13.57 17.14 13.47 17.3 13.36 17.25 13.24 17.36 13.16 17.41 13.07 17.3 12.98 17.02 13.13 16.93 13.17 16.85 13.21 16.8 13.26 16.76 13.46 16.71 13.53 16.59 13.61 16.54 13.65 16.47 13.76 16.36 13.87 16.28 13.98 16.21 14.04 16 14.12 15.92 14.16 15.72 14.22 15.54 14.17 15.37 14.11 15.16 14.12 14.98 13.96 14.9 14.17 14.58 14.17 14.44 13.99 14.34 13.64 14.51 13.61 14.44 13.53 14.35 13.48 14.31 13.42 14.38 13.36 14.15 13.38 14.14 13.51 14.25 13.8 14.13 14.11 13.99 14.28 13.82 14.29 13.26 14.52 13.08 14.59 12.63 14.64 12.49 14.67 12.34 14.68 12.16 14.64 12.02 14.59 11.96 14.52 11.96 14.45 12.02 14.35 11.93 14.43 11.73 14.71 11.21 14.77 10.95 14.73 10.81 14.71 10.69 14.76 10.59 14.78 10.42 14.79 10.12 14.77 10.22 14.69 10.31 14.48 10.41 14.39 10.53 14.34 10.67 14.29 10.98 14.22 10.71 14.22 10.42 14.25 10.15 14.26 9.72 14.13 9.54 14.02 9.46 13.96 9.41 13.88 9.38 13.79 9.38 13.72 9.14 13.82 8.96 13.82 8.79 13.78 8.52 13.74 8.39 13.76 8.26 13.79 8.13 13.8 7.99 13.75 7.9 13.69 7.82 13.63 7.77 13.58 7.73 13.5 7.24 13.95 7.15 14.07 7.07 14.24 7.03 14.41 7.06 14.54 6.92 14.49 6.63 14.34 6.47 14.27 6.38 14.22 6.33 14.16 6.19 14.17 5.59 14.09 5.29 14.07 4.9 14.04 4.73 14.03 4.62 14.02 4.52 14.06 4.49 13.93 4.39 13.83 4.31 13.8 4.1 13.78 4.01 13.76 4.17 13.69 4.38 13.66 4.43 13.56 4.55 13.49 4.71 13.45 4.87 13.42 5.05 13.43 5.41 13.48 5.75 13.42 6.07 13.41 6.36 13.38 6.46 13.3 6.37 13.28 6.26 13.3 6.16 13.3 6.05 13.27 6.15 13.21 5.86 13.27 5.61 13.34 5.42 13.34 5.32 13.21 5.34 13.13 5.46 12.97 5.5 12.89 5.48 12.83 5.45 12.76 5.59 12.68 5.51 12.64 5.46 12.59 5.42 12.53 5.41 12.47 5.5 12.45 5.96 12.21 6.12 12.16 6.2 12.12 6.28 11.95 6.31 11.89 6.16 11.95 6.03 12.04 5.9 12.11 5.81 12.07 5.78 11.91 5.48 11.47 5.52 11.68 5.61 11.85 5.61 12 5.44 12.18 5.33 12.25 5.21 12.29 5.12 12.35 5.05 12.5 4.94 12.57 4.79 12.62 4.63 12.61 4.76 12.5 4.75 12.41 4.72 12.32 4.76 12.21 4.59 12.39 4.62 12.46 4.58 12.52 4.45 12.57 4.27 12.57 3.99 12.55 3.96 12.61 3.71 12.61 3.8 12.69 3.93 12.7 4.08 12.67 4.22 12.63 4.18 12.71 4.49 12.68 4.66 12.76 4.7 12.9 4.68 13.05 4.79 13.2 4.62 13.21 4.16 13.14 4 13.11 3.76 13.02 3.59 12.98 3.4 12.96 3.26 12.95 3.15 12.92 3.05 12.86 2.85 12.74 2.14 12.32 2.11 12.09 2.16 12.04 2.39 12.05 2.89 11.75 2.98 11.67 3.05 11.56 3.22 11.44 3.61 11.22 3.25 11.34 3.1 11.49 2.96 11.54 2.84 11.57 2.8 11.63 2.72 11.71 2.61 11.76 2.51 11.74 2.17 11.6 2.24 11.49 2.38 11.37 2.52 11.28 2.32 11.3 2.2 11.4 2.02 11.63 1.88 11.72 1.68 11.8 1.46 11.82 1.25 11.76 1.1 11.84 0.85 11.95 0.56 11.76 0.33 11.75 0.34 11.57 0.53 11.35 0.68 11.23 0.8 11.18 1.22 11.13 1.41 11.07 1.5 11 1.55 10.8 1.69 10.58 1.73 10.47 1.7 10.35 1.58 10.18 1.54 10.09 1.51 10 1.62 9.9 1.38 9.85 1.28 9.82 1.11 9.7 1.02 9.51 1.05 9.37 1.31 9.38 1.39 9.25 1.5 9.17 1.64 9.1 1.76 9.01 1.78 8.89 1.67 8.65 1.73 8.54 1.79 8.48 1.65 8.43 1.58 8.33 1.64 8.18 1.22 7.41 1 7.06 0.98 7.01 1.09 6.93 0.82 6.68 0.74 6.48 0.74 6.41 0.82 6.22 0.74 6.13 0.66 6 0.23 5.66 0.15 5.61 0.05 5.51 0.14 5.29 0.33 5.05 1.11 4.35 1.27 4.26 1.47 4.24 1.7 4.24 1.95 4.2 2.12 4.15 2.26 4.1 2.37 4.04 2.54 3.9 3.51 3.02 3.49 2.95 3.11 2.7 5.91 1.05 7.3 0.23 7.49 0.14 7.79 0.06 7.88 0.01 8.02 0 8.21 0.06 8.75 0.26 8.88 0.28 9.68 0.17 10.22 0.17 10.75 0.21 11.21 0.29 11.51 0.38 11.61 0.39 11.82 0.34 12.2 0.43 12.31 0.43 12.6 0.4 12.73 0.41 13.03 0.51 13.13 0.52 13.24 0.5 13.33 0.49 13.42 0.55 13.55 0.67 13.7 0.72 13.87 0.74 14.08 0.74 14.25 0.72 14.28 0.81 14.28 0.88 14.38 0.84 14.5 0.78 14.61 0.72 14.68 0.68 14.76 0.65 14.96 0.68 15.11 0.67 15.25 0.65 15.36 0.63 15.88 0.61 15.98 0.65 16.02 0.71 16.06 0.77 16.11 0.84 16.31 0.92 16.37 0.96 16.39 1.04 16.36 1.11 16.33 1.17 16.3 1.23 16.4 1.42 16.61 1.63 16.91 1.74 17.21 1.65 17.48 1.48 17.77 1.34 17.97 1.28 18.11 1.27 18.52 1.61 18.72 1.76 19.22 2.04 19.3 2.07 19.55 2.15 19.64 2.2 20.48 2.26 20.64 2.25 20.74 2.26 21.41 2.31 21.5 2.42 21.54 2.56 21.5 2.68 21.36 2.77 21.25 2.87 21.24 3 21.27 3.14 21.36 3.32 21.35 3.44 21.39 3.51 21.47 3.57 21.55 3.61 21.51 3.71 22 4.09 22.07 4.24 22.09 4.39 22.16 4.61 22.3 4.78 22.56 4.77 22.39 4.61 22.38 4.45 22.5 4.31 22.73 4.19 22.87 4.15 23.18 4.12 23.27 4.08 23.34 3.99 23.42 3.76 23.42 3.31 23.4 3.21 23.23 2.93 23.21 2.84 23.21 2.75 23.25 2.67 23.3 2.59 23.47 2.46 23.77 2.36 23.99 2.27 24.33 2.48 24.94 3.07 25.08 3.28 25.22 3.37 25.45 3.46 25.64 3.51 25.74 3.59 25.74 3.77 25.69 3.89 25.59 3.99 25.48 4.08 24.95 4.39 24.84 4.48 24.76 4.62 24.79 4.74 24.92 5 24.91 5.07 24.84 5.23 24.83 5.29 24.86 5.34 24.93 5.39 26.56 6.31 26.44 6.41 26.26 6.73 26.22 7 26.42 8.14 26.43 8.23 26.41 8.3 26.37 8.38 26.18 8.56 26.05 8.8 25.86 9.82 25.89 9.98 26.01 10.55 26.01 10.61 25.71 11.07 25.63 11.15 25.75 11.49 25.75 11.63 25.84 11.69 26.09 11.72 26.19 11.76 26.08 11.97 26.26 12.07 26.35 12.14 26.43 12.23 26.48 12.33 26.4 12.5 26.48 12.58 26.67 12.67"/><polygon class="cls-85" points="15.59 15.08 15.54 31.38 15.29 31.39 15.34 15.08 15.59 15.08"/><polygon class="cls-47" points="15.87 15.11 15.82 31.41 15.54 31.38 15.59 15.08 15.87 15.11"/><polygon class="cls-86" points="16.4 15.04 16.36 31.34 16.35 31.43 16.4 15.13 16.4 15.04"/><polygon class="cls-14" points="15.34 15.08 15.29 31.39 15.11 31.43 15.15 15.13 15.34 15.08"/><polygon class="cls-62" points="16.13 15.15 16.09 31.45 15.82 31.41 15.87 15.11 16.13 15.15"/><polygon class="cls-39" points="15.15 15.13 15.11 31.43 15 31.49 15.05 15.18 15.15 15.13"/><polygon class="cls-23" points="16.4 15.13 16.35 31.43 16.25 31.52 16.3 15.21 16.4 15.13"/><polygon class="cls-72" points="16.15 15.25 16.11 31.55 15.95 31.53 15.99 15.23 16.15 15.25"/><polygon class="cls-7" points="16.3 15.21 16.25 31.52 16.11 31.55 16.15 15.25 16.3 15.21"/><polygon class="cls-48" points="15.05 15.18 15 31.49 14.24 31.75 14.29 15.44 15.05 15.18"/><polygon class="cls-33" points="14.29 15.44 14.24 31.75 13.91 31.8 13.96 15.5 14.29 15.44"/><polygon class="cls-39" points="13.96 15.5 13.91 31.8 13.26 32.08 13.31 15.78 13.96 15.5"/><polygon class="cls-8" points="12.52 15.79 12.47 32.1 12.47 32 12.52 15.7 12.52 15.79"/><polygon class="cls-20" points="12.58 15.86 12.54 32.16 12.47 32.1 12.52 15.79 12.58 15.86"/><polygon class="cls-48" points="13.31 15.78 13.26 32.08 12.4 32.37 12.45 16.07 13.31 15.78"/><polygon class="cls-21" points="12.45 16.07 12.4 32.37 12.35 32.35 12.4 16.04 12.45 16.07"/><polygon class="cls-84" points="16.4 15.04 16.4 15.13 16.3 15.21 16.15 15.25 15.99 15.23 16.13 15.15 15.87 15.11 15.59 15.08 15.34 15.08 15.15 15.13 15.05 15.18 14.29 15.44 13.96 15.5 13.31 15.78 12.45 16.07 12.4 16.04 12.58 15.86 12.52 15.79 12.52 15.7 12.58 15.62 12.8 15.45 13.52 15.03 13.61 14.96 13.79 14.77 14.16 14.52 14.3 14.45 14.49 14.41 14.51 14.53 14.61 14.51 14.85 14.36 15 14.31 15.15 14.29 15.32 14.29 15.48 14.3 15.46 14.38 15.53 14.42 15.76 14.51 15.86 14.59 15.89 14.66 15.9 14.73 15.95 14.83 16.05 14.89 16.33 14.99 16.4 15.04"/></g></g></g></svg>