<svg xmlns="http://www.w3.org/2000/svg" viewBox="0 0 78.92 105.08"><defs><style>.cls-1{isolation:isolate;}.cls-2{fill:#942424;}.cls-3{fill:#972525;}.cls-4{fill:#801f1f;}.cls-5{fill:#481212;}.cls-6{fill:#852121;}.cls-7{fill:#711c1c;}.cls-8{fill:#661919;}.cls-9{fill:#a82929;}.cls-10{fill:#a02727;}.cls-11{fill:#a52828;}.cls-12{fill:#a52929;}.cls-13{fill:#651919;}.cls-14{fill:#741c1c;}.cls-15{fill:#7f1f1f;}.cls-16{fill:#872121;}.cls-17{fill:#5e1717;}.cls-18{fill:#6a1a1a;}.cls-19{fill:#922424;}.cls-20{fill:#892222;}.cls-21{fill:#a92929;}.cls-22{fill:#a62929;}.cls-23{fill:#9c2626;}.cls-24{fill:#a42828;}.cls-25{fill:#8e2323;}.cls-26{fill:#912323;}.cls-27{fill:#912424;}.cls-28{fill:#611818;}.cls-29{fill:#8b2222;}.cls-30{fill:#6f1b1b;}.cls-31{fill:#6e1b1b;}.cls-32{fill:#771d1d;}.cls-33{fill:#751d1d;}.cls-34{fill:#842020;}.cls-35{fill:#832020;}.cls-36{fill:#902323;}.cls-37{fill:#7a1e1e;}.cls-38{fill:#721c1c;}.cls-39{fill:#862121;}.cls-40{fill:#6b1a1a;}.cls-41{fill:#761d1d;}.cls-42{fill:#7c1e1e;}.cls-43{fill:#561515;}.cls-44{fill:#701b1b;}.cls-45{fill:#541414;}.cls-46{fill:#551515;}.cls-47{fill:#7d1f1f;}.cls-48{fill:#c83131;}.cls-49{fill:#8c2222;}</style></defs><title>Somalia</title><g id="Layer_2" data-name="Layer 2"><g id="Layer_1-2" data-name="Layer 1"><g class="cls-1"><polygon class="cls-2" points="59.64 5.4 59.59 21.7 59.19 22.24 59.24 5.94 59.64 5.4"/><polygon class="cls-3" points="59.24 5.94 59.19 22.24 58.88 22.62 58.93 6.32 59.24 5.94"/><polygon class="cls-4" points="58.93 6.32 58.88 22.62 58.66 23.17 58.7 6.87 58.93 6.32"/><polygon class="cls-5" points="42.09 8.3 42.04 24.61 42.04 24.18 42.09 7.87 42.09 8.3"/><polygon class="cls-6" points="64.42 11.39 64.37 27.69 64.19 28.07 64.23 11.76 64.42 11.39"/><polygon class="cls-7" points="65.22 13.11 65.17 29.41 65.03 30.17 65.07 13.86 65.22 13.11"/><polygon class="cls-8" points="67.69 18.47 67.64 34.77 67.63 35.01 67.68 18.71 67.69 18.47"/><polygon class="cls-5" points="28.84 18.71 28.79 35.01 28.77 34.73 28.82 18.43 28.84 18.71"/><polygon class="cls-4" points="67.68 18.71 67.63 35.01 67.31 35.82 67.35 19.52 67.68 18.71"/><polygon class="cls-9" points="54.82 27.22 54.77 43.52 53.83 44.07 53.87 27.77 54.82 27.22"/><polygon class="cls-9" points="53.87 27.77 53.83 44.07 48.75 47.02 48.79 30.72 53.87 27.77"/><polygon class="cls-9" points="48.79 30.72 48.75 47.02 48.16 47.37 48.2 31.06 48.79 30.72"/><polygon class="cls-10" points="48.2 31.06 48.16 47.37 47.58 47.48 47.63 31.18 48.2 31.06"/><polygon class="cls-11" points="47.63 31.18 47.58 47.48 47.02 47.64 47.07 31.34 47.63 31.18"/><polygon class="cls-11" points="47.07 31.34 47.02 47.64 46.28 47.85 46.32 31.55 47.07 31.34"/><polygon class="cls-12" points="46.32 31.55 46.28 47.85 45.53 48.07 45.58 31.77 46.32 31.55"/><polygon class="cls-12" points="45.58 31.77 45.53 48.07 44.79 48.29 44.84 31.98 45.58 31.77"/><polygon class="cls-11" points="44.84 31.98 44.79 48.29 44.05 48.5 44.09 32.2 44.84 31.98"/><polygon class="cls-12" points="44.09 32.2 44.05 48.5 43.3 48.72 43.35 32.41 44.09 32.2"/><polygon class="cls-5" points="0.25 32.42 0.2 48.72 0 48.21 0.05 31.9 0.25 32.42"/><polygon class="cls-11" points="43.35 32.41 43.3 48.72 42.56 48.93 42.61 32.62 43.35 32.41"/><polygon class="cls-12" points="42.61 32.62 42.56 48.93 41.82 49.14 41.86 32.84 42.61 32.62"/><polygon class="cls-11" points="41.86 32.84 41.82 49.14 41.08 49.36 41.13 33.05 41.86 32.84"/><polygon class="cls-11" points="41.13 33.05 41.08 49.36 40.33 49.57 40.38 33.27 41.13 33.05"/><polygon class="cls-11" points="40.38 33.27 40.33 49.57 39.59 49.78 39.64 33.48 40.38 33.27"/><polygon class="cls-11" points="39.64 33.48 39.59 49.78 38.84 50 38.89 33.7 39.64 33.48"/><polygon class="cls-11" points="38.89 33.7 38.84 50 38.11 50.21 38.15 33.91 38.89 33.7"/><polygon class="cls-11" points="38.15 33.91 38.11 50.21 37.36 50.43 37.4 34.12 38.15 33.91"/><polygon class="cls-11" points="37.4 34.12 37.36 50.43 36.62 50.64 36.66 34.34 37.4 34.12"/><polygon class="cls-12" points="36.66 34.34 36.62 50.64 35.88 50.86 35.92 34.55 36.66 34.34"/><polygon class="cls-11" points="35.92 34.55 35.88 50.86 35.13 51.07 35.18 34.77 35.92 34.55"/><polygon class="cls-12" points="35.18 34.77 35.13 51.07 34.36 51.3 34.4 34.99 35.18 34.77"/><polygon class="cls-13" points="76.06 34.57 76.01 50.88 76 51.42 76.04 35.12 76.06 34.57"/><polygon class="cls-11" points="34.4 34.99 34.36 51.3 33.58 51.52 33.62 35.22 34.4 34.99"/><polygon class="cls-5" points="1.31 35.16 1.26 51.46 0.2 48.72 0.25 32.42 1.31 35.16"/><polygon class="cls-12" points="33.62 35.22 33.58 51.52 32.8 51.75 32.85 35.45 33.62 35.22"/><polygon class="cls-5" points="1.56 35.57 1.52 51.88 1.26 51.46 1.31 35.16 1.56 35.57"/><polygon class="cls-12" points="32.85 35.45 32.8 51.75 32.02 51.98 32.07 35.67 32.85 35.45"/><polygon class="cls-12" points="32.07 35.67 32.02 51.98 31.25 52.21 31.3 35.9 32.07 35.67"/><polygon class="cls-11" points="31.3 35.9 31.25 52.21 30.47 52.43 30.52 36.13 31.3 35.9"/><polygon class="cls-12" points="30.52 36.13 30.47 52.43 29.69 52.66 29.74 36.36 30.52 36.13"/><polygon class="cls-5" points="1.64 36.32 1.6 52.62 1.52 51.88 1.56 35.57 1.64 36.32"/><polygon class="cls-12" points="29.74 36.36 29.69 52.66 28.92 52.89 28.96 36.59 29.74 36.36"/><polygon class="cls-11" points="28.96 36.59 28.92 52.89 28.14 53.11 28.18 36.81 28.96 36.59"/><polygon class="cls-5" points="1.73 36.8 1.68 53.1 1.6 52.62 1.64 36.32 1.73 36.8"/><polygon class="cls-12" points="28.18 36.81 28.14 53.11 27.37 53.34 27.41 37.04 28.18 36.81"/><polygon class="cls-12" points="27.41 37.04 27.37 53.34 26.59 53.57 26.64 37.26 27.41 37.04"/><polygon class="cls-11" points="26.64 37.26 26.59 53.57 25.81 53.79 25.86 37.49 26.64 37.26"/><polygon class="cls-5" points="2.04 37.6 1.99 53.9 1.68 53.1 1.73 36.8 2.04 37.6"/><polygon class="cls-12" points="25.86 37.49 25.81 53.79 25.04 54.02 25.08 37.72 25.86 37.49"/><polygon class="cls-14" points="2.47 37.69 2.42 53.99 1.99 53.9 2.04 37.6 2.47 37.69"/><polygon class="cls-15" points="2.93 37.75 2.88 54.05 2.42 53.99 2.47 37.69 2.93 37.75"/><polygon class="cls-16" points="4.14 37.82 4.09 54.13 2.88 54.05 2.93 37.75 4.14 37.82"/><polygon class="cls-12" points="25.08 37.72 25.04 54.02 24.26 54.25 24.31 37.95 25.08 37.72"/><polygon class="cls-12" points="24.31 37.95 24.26 54.25 23.49 54.48 23.53 38.17 24.31 37.95"/><polygon class="cls-17" points="4.83 38.13 4.79 54.43 4.09 54.13 4.14 37.82 4.83 38.13"/><polygon class="cls-18" points="5.4 38.31 5.35 54.61 4.79 54.43 4.83 38.13 5.4 38.31"/><polygon class="cls-11" points="23.53 38.17 23.49 54.48 22.7 54.7 22.75 38.4 23.53 38.17"/><polygon class="cls-19" points="10.84 38.4 10.79 54.7 10.09 54.73 10.13 38.42 10.84 38.4"/><polygon class="cls-14" points="5.99 38.44 5.94 54.74 5.35 54.61 5.4 38.31 5.99 38.44"/><polygon class="cls-16" points="6.37 38.46 6.32 54.76 5.94 54.74 5.99 38.44 6.37 38.46"/><polygon class="cls-20" points="8.63 38.55 8.58 54.85 6.32 54.76 6.37 38.46 8.63 38.55"/><polygon class="cls-21" points="10.13 38.42 10.09 54.73 9.74 54.87 9.78 38.57 10.13 38.42"/><polygon class="cls-22" points="22.75 38.4 22.7 54.7 22 54.91 22.05 38.61 22.75 38.4"/><polygon class="cls-23" points="22.05 38.61 22 54.91 21.59 54.97 21.64 38.67 22.05 38.61"/><polygon class="cls-24" points="9.78 38.57 9.74 54.87 9.39 54.96 9.44 38.66 9.78 38.57"/><polygon class="cls-25" points="9.44 38.66 9.39 54.96 9.02 54.96 9.07 38.66 9.44 38.66"/><polygon class="cls-7" points="9.07 38.66 9.02 54.96 8.58 54.85 8.63 38.55 9.07 38.66"/><polygon class="cls-26" points="21.64 38.67 21.59 54.97 20.7 54.99 20.75 38.69 21.64 38.67"/><polygon class="cls-27" points="20.75 38.69 20.7 54.99 19.09 55.04 19.14 38.74 20.75 38.69"/><polygon class="cls-27" points="19.14 38.74 19.09 55.04 17.96 55.07 18.01 38.77 19.14 38.74"/><polygon class="cls-27" points="18.01 38.77 17.96 55.07 16.99 55.1 17.03 38.79 18.01 38.77"/><polygon class="cls-28" points="12.09 38.9 12.05 55.21 10.79 54.7 10.84 38.4 12.09 38.9"/><polygon class="cls-29" points="13.98 38.96 13.93 55.26 12.05 55.21 12.09 38.9 13.98 38.96"/><polygon class="cls-22" points="17.03 38.79 16.99 55.1 15.69 55.5 15.74 39.2 17.03 38.79"/><polygon class="cls-30" points="15.18 39.28 15.14 55.58 13.93 55.26 13.98 38.96 15.18 39.28"/><polygon class="cls-23" points="15.74 39.2 15.69 55.5 15.14 55.58 15.18 39.28 15.74 39.2"/><polygon class="cls-5" points="54.55 39.45 54.5 55.75 54.49 55.28 54.54 38.97 54.55 39.45"/><polygon class="cls-5" points="54.56 39.92 54.51 56.23 54.5 55.75 54.55 39.45 54.56 39.92"/><polygon class="cls-5" points="54.57 40.4 54.52 56.7 54.51 56.23 54.56 39.92 54.57 40.4"/><polygon class="cls-5" points="54.58 40.87 54.54 57.17 54.52 56.7 54.57 40.4 54.58 40.87"/><polygon class="cls-5" points="54.59 41.34 54.55 57.65 54.54 57.17 54.58 40.87 54.59 41.34"/><polygon class="cls-5" points="54.6 41.82 54.56 58.12 54.55 57.65 54.59 41.34 54.6 41.82"/><polygon class="cls-5" points="54.62 42.3 54.58 58.6 54.56 58.12 54.6 41.82 54.62 42.3"/><polygon class="cls-5" points="54.63 42.77 54.59 59.07 54.58 58.6 54.62 42.3 54.63 42.77"/><polygon class="cls-5" points="54.7 43.63 54.66 59.94 54.59 59.07 54.63 42.77 54.7 43.63"/><polygon class="cls-5" points="54.77 44.5 54.72 60.8 54.66 59.94 54.7 43.63 54.77 44.5"/><polygon class="cls-5" points="54.84 45.35 54.8 61.66 54.72 60.8 54.77 44.5 54.84 45.35"/><polygon class="cls-5" points="54.91 46.22 54.87 62.52 54.8 61.66 54.84 45.35 54.91 46.22"/><polygon class="cls-5" points="54.98 47.08 54.94 63.38 54.87 62.52 54.91 46.22 54.98 47.08"/><polygon class="cls-5" points="55.05 47.94 55 64.25 54.94 63.38 54.98 47.08 55.05 47.94"/><polygon class="cls-5" points="55.11 48.8 55.07 65.11 55 64.25 55.05 47.94 55.11 48.8"/><polygon class="cls-5" points="55.18 49.66 55.13 65.97 55.07 65.11 55.11 48.8 55.18 49.66"/><polygon class="cls-5" points="55.22 50.12 55.18 66.42 55.13 65.97 55.18 49.66 55.22 50.12"/><polygon class="cls-18" points="78.91 49.9 78.87 66.21 78.77 67.18 78.82 50.88 78.91 49.9"/><polygon class="cls-31" points="78.92 51.51 78.87 67.81 78.72 68.78 78.77 52.47 78.92 51.51"/><polygon class="cls-32" points="78.78 53.04 78.73 69.35 78.62 69.76 78.67 53.46 78.78 53.04"/><polygon class="cls-33" points="78.77 55.73 78.72 72.03 78.32 73.61 78.36 57.31 78.77 55.73"/><polygon class="cls-6" points="78.36 57.31 78.32 73.61 77.98 74.3 78.03 58 78.36 57.31"/><polygon class="cls-34" points="78.03 58 77.98 74.3 77.69 74.94 77.73 58.64 78.03 58"/><polygon class="cls-5" points="44.95 60.2 44.9 76.5 44.82 75.66 44.86 59.35 44.95 60.2"/><polygon class="cls-34" points="77.73 58.64 77.69 74.94 76.74 76.99 76.78 60.69 77.73 58.64"/><polygon class="cls-5" points="45.41 60.71 45.37 77.02 44.9 76.5 44.95 60.2 45.41 60.71"/><polygon class="cls-35" points="76.78 60.69 76.74 76.99 76.64 77.2 76.69 60.9 76.78 60.69"/><polygon class="cls-5" points="45.43 60.96 45.38 77.26 45.37 77.02 45.41 60.71 45.43 60.96"/><polygon class="cls-36" points="76.69 60.9 76.64 77.2 75.79 78.47 75.84 62.17 76.69 60.9"/><polygon class="cls-37" points="75.84 62.17 75.79 78.47 75.44 79.58 75.48 63.27 75.84 62.17"/><polygon class="cls-32" points="75.48 63.27 75.44 79.58 75.16 80.6 75.2 64.3 75.48 63.27"/><polygon class="cls-4" points="75.2 64.3 75.16 80.6 74.83 81.38 74.88 65.08 75.2 64.3"/><polygon class="cls-5" points="41.24 66.08 41.2 82.38 41.03 81.31 41.08 65.01 41.24 66.08"/><polygon class="cls-38" points="74.88 65.08 74.83 81.38 74.52 82.86 74.56 66.56 74.88 65.08"/><polygon class="cls-5" points="41.49 66.86 41.44 83.16 41.2 82.38 41.24 66.08 41.49 66.86"/><polygon class="cls-5" points="41.73 67.65 41.68 83.95 41.44 83.16 41.49 66.86 41.73 67.65"/><polygon class="cls-39" points="74.58 67.43 74.54 83.73 74.35 84.11 74.39 67.8 74.58 67.43"/><polygon class="cls-5" points="41.97 68.42 41.92 84.73 41.68 83.95 41.73 67.65 41.97 68.42"/><polygon class="cls-5" points="42.21 69.2 42.17 85.51 41.92 84.73 41.97 68.42 42.21 69.2"/><polygon class="cls-40" points="74.51 68.83 74.47 85.13 74.38 85.86 74.43 69.55 74.51 68.83"/><polygon class="cls-5" points="42.36 69.69 42.32 85.99 42.17 85.51 42.21 69.2 42.36 69.69"/><polygon class="cls-16" points="74.43 69.55 74.38 85.86 74.04 86.52 74.09 70.22 74.43 69.55"/><polygon class="cls-5" points="42.51 70.17 42.46 86.47 42.32 85.99 42.36 69.69 42.51 70.17"/><polygon class="cls-41" points="74.09 70.22 74.04 86.52 73.97 86.77 74.02 70.47 74.09 70.22"/><polygon class="cls-5" points="42.65 70.65 42.61 86.95 42.46 86.47 42.51 70.17 42.65 70.65"/><polygon class="cls-5" points="42.8 71.13 42.76 87.44 42.61 86.95 42.65 70.65 42.8 71.13"/><polygon class="cls-42" points="74.14 70.91 74.1 87.21 73.93 87.69 73.97 71.38 74.14 70.91"/><polygon class="cls-8" points="73.97 71.38 73.93 87.69 73.88 89.13 73.93 72.83 73.97 71.38"/><polygon class="cls-5" points="42.86 74.06 42.82 90.37 42.73 89.94 42.78 73.64 42.86 74.06"/><polygon class="cls-43" points="43.23 74.27 43.18 90.57 42.82 90.37 42.86 74.06 43.23 74.27"/><polygon class="cls-43" points="44.08 74.75 44.04 91.06 43.18 90.57 43.23 74.27 44.08 74.75"/><polygon class="cls-43" points="44.99 75.26 44.94 91.56 44.04 91.06 44.08 74.75 44.99 75.26"/><polygon class="cls-13" points="74.08 75.07 74.03 91.38 74.02 92.09 74.06 75.79 74.08 75.07"/><polygon class="cls-30" points="74.28 78.37 74.23 94.67 74.16 95.07 74.21 78.77 74.28 78.37"/><polygon class="cls-44" points="74.21 78.77 74.16 95.07 74.08 95.52 74.13 79.22 74.21 78.77"/><polygon class="cls-45" points="74.37 84.61 74.33 100.91 74.07 100.75 74.12 84.45 74.37 84.61"/><polygon class="cls-33" points="74.8 84.69 74.75 101 74.33 100.91 74.37 84.61 74.8 84.69"/><polygon class="cls-46" points="61.53 84.81 61.48 101.11 44.94 91.56 44.99 75.26 61.53 84.81"/><polygon class="cls-43" points="62.08 85.12 62.03 101.42 61.48 101.11 61.53 84.81 62.08 85.12"/><polygon class="cls-43" points="62.53 85.37 62.48 101.68 62.03 101.42 62.08 85.12 62.53 85.37"/><polygon class="cls-46" points="62.98 85.63 62.93 101.93 62.48 101.68 62.53 85.37 62.98 85.63"/><polygon class="cls-43" points="63.7 86.04 63.66 102.34 62.93 101.93 62.98 85.63 63.7 86.04"/><polygon class="cls-43" points="64.42 86.44 64.38 102.75 63.66 102.34 63.7 86.04 64.42 86.44"/><polygon class="cls-43" points="65.16 86.85 65.11 103.16 64.38 102.75 64.42 86.44 65.16 86.85"/><polygon class="cls-43" points="65.88 87.26 65.83 103.57 65.11 103.16 65.16 86.85 65.88 87.26"/><polygon class="cls-43" points="66.35 87.53 66.31 103.83 65.83 103.57 65.88 87.26 66.35 87.53"/><polygon class="cls-43" points="66.83 87.79 66.78 104.1 66.31 103.83 66.35 87.53 66.83 87.79"/><polygon class="cls-43" points="67.34 88.08 67.29 104.39 66.78 104.1 66.83 87.79 67.34 88.08"/><polygon class="cls-39" points="67.72 88.11 67.68 104.41 67.29 104.39 67.34 88.08 67.72 88.11"/><polygon class="cls-6" points="68.11 88.14 68.06 104.44 67.68 104.41 67.72 88.11 68.11 88.14"/><polygon class="cls-39" points="68.5 88.16 68.45 104.47 68.06 104.44 68.11 88.14 68.5 88.16"/><polygon class="cls-34" points="68.88 88.2 68.84 104.5 68.45 104.47 68.5 88.16 68.88 88.2"/><polygon class="cls-39" points="69.63 88.25 69.59 104.55 68.84 104.5 68.88 88.2 69.63 88.25"/><polygon class="cls-39" points="70.41 88.3 70.36 104.61 69.59 104.55 69.63 88.25 70.41 88.3"/><polygon class="cls-39" points="71.25 88.36 71.2 104.67 70.36 104.61 70.41 88.3 71.25 88.36"/><polygon class="cls-6" points="71.93 88.41 71.89 104.72 71.2 104.67 71.25 88.36 71.93 88.41"/><polygon class="cls-39" points="72.68 88.47 72.64 104.77 71.89 104.72 71.93 88.41 72.68 88.47"/><polygon class="cls-39" points="73.47 88.52 73.42 104.82 72.64 104.77 72.68 88.47 73.47 88.52"/><polygon class="cls-39" points="74.22 88.58 74.18 104.88 73.42 104.82 73.47 88.52 74.22 88.58"/><polygon class="cls-39" points="75 88.63 74.95 104.93 74.18 104.88 74.22 88.58 75 88.63"/><polygon class="cls-47" points="75.95 88.77 75.9 105.08 74.95 104.93 75 88.63 75.95 88.77"/><polygon class="cls-48" points="59.64 5.4 59.24 5.94 58.93 6.32 58.7 6.87 59.16 7.33 59.62 7.51 59.94 7.92 60.27 8.08 61.14 8.66 61.65 9.14 61.81 9.33 62.57 9.89 63.22 10.36 63.81 10.52 64.42 11.39 64.23 11.76 64.34 12.28 64.88 12.57 65.18 12.86 65.22 13.11 65.07 13.86 65.08 14.1 65.13 14.32 65.4 14.72 65.84 15.11 66.04 15.71 66.56 16.04 66.8 16.33 67.03 17.52 67.58 18.24 67.69 18.47 67.68 18.71 67.35 19.52 67.37 20.19 67.61 20.56 68.02 20.86 68.79 21.4 68.81 21.64 69.12 21.93 69.73 23.1 70 23.67 70.06 24.21 70.48 25.63 70.95 26.47 71.12 26.91 71.7 27.63 72.61 29.1 73.24 29.39 73.88 29.86 74.16 30.29 74.57 31.17 75.05 32.23 75.61 33.73 75.99 34.33 76.06 34.57 76.04 35.12 76.48 36.14 76.55 37.09 76.84 38.23 77.84 39.93 78.17 40.94 78.22 41.79 78.35 43.88 78.58 44.7 78.61 45.89 78.65 46.9 78.71 48.21 78.71 48.42 78.91 49.9 78.82 50.88 78.92 51.51 78.77 52.47 78.78 53.04 78.67 53.46 78.7 54.36 78.73 55.1 78.77 55.73 78.36 57.31 78.03 58 77.73 58.64 76.78 60.69 76.69 60.9 75.84 62.17 75.48 63.27 75.2 64.3 74.88 65.08 74.56 66.56 74.58 67.43 74.39 67.8 74.51 68.83 74.43 69.55 74.09 70.22 74.02 70.47 74.14 70.91 73.97 71.38 73.93 72.83 74.08 74.31 74.08 75.07 74.06 75.79 74.2 77.4 74.28 78.37 74.21 78.77 74.13 79.22 74.13 79.74 74.2 79.97 74.29 80.6 74.3 81.13 74.38 81.65 74.52 82.49 74.73 83.06 74.8 84.69 74.37 84.61 74.12 84.45 75.27 85.81 76.02 87.33 76.37 88.15 76.45 88.78 75.95 88.77 75 88.63 74.22 88.58 73.47 88.52 72.68 88.47 71.93 88.41 71.25 88.36 70.41 88.3 69.63 88.25 68.88 88.2 68.5 88.16 68.11 88.14 67.72 88.11 67.34 88.08 66.83 87.79 66.35 87.53 65.88 87.26 65.16 86.85 64.42 86.44 63.7 86.04 62.98 85.63 62.53 85.37 62.08 85.12 61.53 84.81 44.99 75.26 44.08 74.75 43.23 74.27 42.86 74.06 42.78 73.64 42.79 73.01 42.79 72.39 42.79 71.76 42.8 71.13 42.65 70.65 42.51 70.17 42.36 69.69 42.21 69.2 41.97 68.42 41.73 67.65 41.49 66.86 41.24 66.08 41.08 65.01 41.15 64.62 41.26 64.42 41.99 63.93 42.48 63.63 43.13 63.11 43.97 62.41 44.79 61.74 45.19 61.42 45.35 61.2 45.43 60.96 45.41 60.71 44.95 60.2 44.86 59.35 44.96 58.77 45.36 58.12 45.76 57.48 46.14 56.84 46.39 56.45 46.96 55.92 47.34 55.57 47.84 55.1 48.37 54.5 48.97 54.11 49.33 53.92 49.7 53.74 50.06 53.55 50.42 53.36 50.78 53.17 51.15 52.99 51.51 52.8 51.87 52.61 52.23 52.42 52.6 52.24 52.94 52.05 53.32 51.86 53.68 51.67 54.05 51.48 54.41 51.29 54.77 51.11 55.15 50.91 55.22 50.12 55.18 49.66 55.11 48.8 55.05 47.94 54.98 47.08 54.91 46.22 54.84 45.35 54.77 44.5 54.7 43.63 54.63 42.77 54.62 42.3 54.6 41.82 54.59 41.34 54.58 40.87 54.57 40.4 54.56 39.92 54.55 39.45 54.54 38.97 54.54 38.65 54.56 38 54.57 37.66 54.58 37.14 54.59 36.77 54.6 36.4 54.6 36.04 54.62 35.67 54.63 35.3 54.63 34.94 54.64 34.57 54.66 34.2 54.66 33.84 54.67 33.47 54.68 33.1 54.69 32.73 54.7 32.37 54.71 32 54.72 31.63 54.72 31.26 54.73 30.89 54.74 30.6 54.75 30.16 54.76 29.79 54.77 29.42 54.77 29.06 54.78 28.69 54.79 28.32 54.8 27.96 54.81 27.59 54.82 27.22 53.87 27.77 48.79 30.72 48.2 31.06 47.63 31.18 47.07 31.34 46.32 31.55 45.58 31.77 44.84 31.98 44.09 32.2 43.35 32.41 42.61 32.62 41.86 32.84 41.13 33.05 40.38 33.27 39.64 33.48 38.89 33.7 38.15 33.91 37.4 34.12 36.66 34.34 35.92 34.55 35.18 34.77 34.4 34.99 33.62 35.22 32.85 35.45 32.07 35.67 31.3 35.9 30.52 36.13 29.74 36.36 28.96 36.59 28.18 36.81 27.41 37.04 26.64 37.26 25.86 37.49 25.08 37.72 24.31 37.95 23.53 38.17 22.75 38.4 22.05 38.61 21.64 38.67 20.75 38.69 19.14 38.74 18.01 38.77 17.03 38.79 15.74 39.2 15.18 39.28 13.98 38.96 12.09 38.9 10.84 38.4 10.13 38.42 9.78 38.57 9.44 38.66 9.07 38.66 8.63 38.55 6.37 38.46 5.99 38.44 5.4 38.31 4.83 38.13 4.14 37.82 2.93 37.75 2.47 37.69 2.04 37.6 1.73 36.8 1.64 36.32 1.56 35.57 1.31 35.16 0.25 32.42 0.05 31.9 0.25 31.7 0.85 31.76 3.08 31.83 5.36 32.08 6.18 32.24 7.46 32.24 8.56 32.31 9.7 32.26 10.88 32.13 11.77 32.11 12.32 32.02 13.82 31.95 14.6 31.83 14.99 31.73 15.46 31.42 16.03 31.17 16.38 31.03 16.61 30.84 17.04 30.38 17.47 30.09 17.96 29.88 18.27 29.72 18.65 29.46 18.68 29.23 18.9 28.46 19.33 27.63 19.37 27.13 20.32 26.4 20.39 25.78 20.76 25.31 22.79 24.07 23.8 23.7 24.33 23.19 25.43 23.07 26.37 22.83 26.61 22.67 27.46 21.77 27.65 21.38 27.97 20.89 28.02 20.61 28.18 20.37 28.66 19.56 28.78 19.05 28.84 18.71 28.82 18.43 29.06 18.12 29.46 17.27 30.14 16.72 31.95 16.33 32.4 15.9 33.22 15.41 33.62 15.22 34.75 14.48 35.8 12.68 36.55 12.03 36.8 11.79 37.48 11.51 37.83 11.41 38.23 11.35 39 11.12 40.28 10.17 40.99 9.58 41.13 9.37 41.78 8.81 42.09 8.3 42.09 7.87 42.59 7.4 43.66 6.79 43.92 6.58 44.95 5.63 45.27 5.22 45.85 4.5 45.99 3.79 46.23 3.58 46.24 3.18 46.26 2.96 46.29 1.25 47.42 0.82 48.16 0.46 48.88 0.42 49.58 0.07 51.29 0 51.75 0.34 51.95 1.03 52.02 1.32 52.81 2.26 53.32 2.6 53.56 2.79 53.96 2.92 54.44 2.85 54.74 2.69 55.14 3.17 56.46 4.07 57.75 4.71 58.42 4.92 58.63 5.46 59.64 5.4"/><polygon class="cls-49" points="76.45 88.78 76.4 105.08 75.9 105.08 75.95 88.77 76.45 88.78"/></g></g></g></svg>