<svg xmlns="http://www.w3.org/2000/svg" viewBox="0 0 54.82 44.65"><defs><style>.cls-1{isolation:isolate;}.cls-2{fill:#481212;}.cls-3{fill:#671919;}.cls-4{fill:#a82929;}.cls-5{fill:#6b1a1a;}.cls-6{fill:#a02727;}.cls-7{fill:#a52828;}.cls-8{fill:#a52929;}.cls-9{fill:#5d1717;}.cls-10{fill:#4a1212;}.cls-11{fill:#581616;}.cls-12{fill:#741c1c;}.cls-13{fill:#8f2323;}.cls-14{fill:#7f1f1f;}.cls-15{fill:#892121;}.cls-16{fill:#6f1b1b;}.cls-17{fill:#5e1717;}.cls-18{fill:#6a1a1a;}.cls-19{fill:#8d2222;}.cls-20{fill:#7e1f1f;}.cls-21{fill:#7c1e1e;}.cls-22{fill:#a12828;}.cls-23{fill:#701b1b;}.cls-24{fill:#872121;}.cls-25{fill:#9b2626;}.cls-26{fill:#651919;}.cls-27{fill:#a92929;}.cls-28{fill:#a62929;}.cls-29{fill:#9c2626;}.cls-30{fill:#a42828;}.cls-31{fill:#8e2323;}.cls-32{fill:#711c1c;}.cls-33{fill:#912323;}.cls-34{fill:#912424;}.cls-35{fill:#9f2727;}.cls-36{fill:#a72929;}.cls-37{fill:#611818;}.cls-38{fill:#962525;}.cls-39{fill:#932424;}.cls-40{fill:#6c1b1b;}.cls-41{fill:#8b2222;}.cls-42{fill:#a12727;}.cls-43{fill:#771d1d;}.cls-44{fill:#5b1616;}.cls-45{fill:#631818;}.cls-46{fill:#8a2222;}.cls-47{fill:#c83131;}</style></defs><title>Somaliland</title><g id="Layer_2" data-name="Layer 2"><g id="Layer_1-2" data-name="Layer 1"><g class="cls-1"><polygon class="cls-2" points="35.26 2.58 35.21 18.89 35.15 18.57 35.2 2.26 35.26 2.58"/><polygon class="cls-2" points="34.9 3.31 34.86 19.61 34.8 19.41 34.84 3.1 34.9 3.31"/><polygon class="cls-2" points="28.84 7.78 28.79 24.08 28.77 23.8 28.82 7.5 28.84 7.78"/><polygon class="cls-2" points="28.18 9.44 28.13 25.74 28.09 25.6 28.13 9.3 28.18 9.44"/><polygon class="cls-3" points="21.93 13.45 21.89 29.75 21.73 29.7 21.78 13.4 21.93 13.45"/><polygon class="cls-2" points="20.86 13.96 20.82 30.26 20.77 30.02 20.82 13.72 20.86 13.96"/><polygon class="cls-2" points="20.79 14.22 20.74 30.53 20.71 30.44 20.76 14.14 20.79 14.22"/><polygon class="cls-2" points="20.43 15.11 20.39 31.41 20.35 31.16 20.39 14.85 20.43 15.11"/><polygon class="cls-4" points="54.82 16.29 54.77 32.59 53.83 33.14 53.87 16.84 54.82 16.29"/><polygon class="cls-5" points="18.68 18.3 18.64 34.6 18.48 34.56 18.52 18.25 18.68 18.3"/><polygon class="cls-4" points="53.87 16.84 53.83 33.14 48.75 36.09 48.79 19.79 53.87 16.84"/><polygon class="cls-4" points="48.79 19.79 48.75 36.09 48.16 36.44 48.2 20.13 48.79 19.79"/><polygon class="cls-6" points="48.2 20.13 48.16 36.44 47.58 36.55 47.63 20.25 48.2 20.13"/><polygon class="cls-7" points="47.63 20.25 47.58 36.55 47.02 36.71 47.07 20.41 47.63 20.25"/><polygon class="cls-7" points="47.07 20.41 47.02 36.71 46.28 36.92 46.32 20.62 47.07 20.41"/><polygon class="cls-2" points="2.35 20.58 2.3 36.88 2.29 36.79 2.34 20.48 2.35 20.58"/><polygon class="cls-2" points="2.42 20.67 2.37 36.97 2.3 36.88 2.35 20.58 2.42 20.67"/><polygon class="cls-8" points="46.32 20.62 46.28 36.92 45.53 37.14 45.58 20.84 46.32 20.62"/><polygon class="cls-9" points="0.54 20.9 0.5 37.2 0.2 37.07 0.25 20.77 0.54 20.9"/><polygon class="cls-8" points="45.58 20.84 45.53 37.14 44.79 37.36 44.84 21.06 45.58 20.84"/><polygon class="cls-7" points="44.84 21.06 44.79 37.36 44.05 37.57 44.09 21.27 44.84 21.06"/><polygon class="cls-8" points="44.09 21.27 44.05 37.57 43.3 37.79 43.35 21.48 44.09 21.27"/><polygon class="cls-2" points="0.25 21.49 0.2 37.79 0 37.28 0.05 20.98 0.25 21.49"/><polygon class="cls-7" points="43.35 21.48 43.3 37.79 42.56 38 42.61 21.69 43.35 21.48"/><polygon class="cls-8" points="42.61 21.69 42.56 38 41.82 38.21 41.86 21.91 42.61 21.69"/><polygon class="cls-7" points="41.86 21.91 41.82 38.21 41.08 38.43 41.13 22.13 41.86 21.91"/><polygon class="cls-7" points="41.13 22.13 41.08 38.43 40.33 38.64 40.38 22.34 41.13 22.13"/><polygon class="cls-7" points="40.38 22.34 40.33 38.64 39.59 38.86 39.64 22.55 40.38 22.34"/><polygon class="cls-7" points="39.64 22.55 39.59 38.86 38.84 39.07 38.89 22.77 39.64 22.55"/><polygon class="cls-7" points="38.89 22.77 38.84 39.07 38.11 39.28 38.15 22.98 38.89 22.77"/><polygon class="cls-7" points="38.15 22.98 38.11 39.28 37.36 39.5 37.4 23.19 38.15 22.98"/><polygon class="cls-7" points="37.4 23.19 37.36 39.5 36.62 39.71 36.66 23.41 37.4 23.19"/><polygon class="cls-8" points="36.66 23.41 36.62 39.71 35.88 39.93 35.92 23.63 36.66 23.41"/><polygon class="cls-7" points="35.92 23.63 35.88 39.93 35.13 40.14 35.18 23.84 35.92 23.63"/><polygon class="cls-8" points="35.18 23.84 35.13 40.14 34.36 40.37 34.4 24.06 35.18 23.84"/><polygon class="cls-2" points="1.25 24.1 1.2 40.4 0.2 37.79 0.25 21.49 1.25 24.1"/><polygon class="cls-7" points="34.4 24.06 34.36 40.37 33.58 40.59 33.62 24.29 34.4 24.06"/><polygon class="cls-2" points="1.31 24.23 1.26 40.53 1.2 40.4 1.25 24.1 1.31 24.23"/><polygon class="cls-10" points="1.52 24.43 1.47 40.73 1.26 40.53 1.31 24.23 1.52 24.43"/><polygon class="cls-8" points="33.62 24.29 33.58 40.59 32.8 40.82 32.85 24.52 33.62 24.29"/><polygon class="cls-2" points="1.58 24.52 1.53 40.82 1.47 40.73 1.52 24.43 1.58 24.52"/><polygon class="cls-8" points="32.85 24.52 32.8 40.82 32.02 41.05 32.07 24.75 32.85 24.52"/><polygon class="cls-8" points="32.07 24.75 32.02 41.05 31.25 41.28 31.3 24.97 32.07 24.75"/><polygon class="cls-2" points="1.41 24.99 1.36 41.29 1.36 41.17 1.41 24.87 1.41 24.99"/><polygon class="cls-2" points="1.49 25.1 1.44 41.4 1.36 41.29 1.41 24.99 1.49 25.1"/><polygon class="cls-7" points="31.3 24.97 31.25 41.28 30.47 41.5 30.52 25.2 31.3 24.97"/><polygon class="cls-10" points="1.57 25.18 1.52 41.48 1.44 41.4 1.49 25.1 1.57 25.18"/><polygon class="cls-2" points="1.64 25.26 1.6 41.56 1.52 41.48 1.57 25.18 1.64 25.26"/><polygon class="cls-8" points="30.52 25.2 30.47 41.5 29.69 41.73 29.74 25.43 30.52 25.2"/><polygon class="cls-2" points="1.64 25.39 1.6 41.69 1.6 41.56 1.64 25.26 1.64 25.39"/><polygon class="cls-8" points="29.74 25.43 29.69 41.73 28.92 41.96 28.96 25.66 29.74 25.43"/><polygon class="cls-2" points="1.63 25.74 1.59 42.04 1.55 41.94 1.6 25.63 1.63 25.74"/><polygon class="cls-7" points="28.96 25.66 28.92 41.96 28.14 42.18 28.18 25.88 28.96 25.66"/><polygon class="cls-2" points="1.73 25.87 1.68 42.17 1.59 42.04 1.63 25.74 1.73 25.87"/><polygon class="cls-8" points="28.18 25.88 28.14 42.18 27.37 42.41 27.41 26.11 28.18 25.88"/><polygon class="cls-10" points="1.94 26.07 1.89 42.37 1.68 42.17 1.73 25.87 1.94 26.07"/><polygon class="cls-2" points="2.02 26.17 1.98 42.48 1.89 42.37 1.94 26.07 2.02 26.17"/><polygon class="cls-8" points="27.41 26.11 27.37 42.41 26.59 42.64 26.64 26.33 27.41 26.11"/><polygon class="cls-2" points="2.06 26.28 2.02 42.59 1.98 42.48 2.02 26.17 2.06 26.28"/><polygon class="cls-7" points="26.64 26.33 26.59 42.64 25.81 42.86 25.86 26.56 26.64 26.33"/><polygon class="cls-11" points="2.04 26.67 1.99 42.97 1.84 42.89 1.89 26.59 2.04 26.67"/><polygon class="cls-8" points="25.86 26.56 25.81 42.86 25.04 43.09 25.08 26.79 25.86 26.56"/><polygon class="cls-12" points="2.47 26.76 2.42 43.06 1.99 42.97 2.04 26.67 2.47 26.76"/><polygon class="cls-13" points="3.65 26.82 3.6 43.12 2.88 43.12 2.93 26.82 3.65 26.82"/><polygon class="cls-14" points="2.93 26.82 2.88 43.12 2.42 43.06 2.47 26.76 2.93 26.82"/><polygon class="cls-15" points="3.88 26.83 3.84 43.13 3.6 43.12 3.65 26.82 3.88 26.83"/><polygon class="cls-16" points="4.14 26.89 4.09 43.2 3.84 43.13 3.88 26.83 4.14 26.89"/><polygon class="cls-8" points="25.08 26.79 25.04 43.09 24.26 43.32 24.31 27.02 25.08 26.79"/><polygon class="cls-8" points="24.31 27.02 24.26 43.32 23.49 43.55 23.53 27.25 24.31 27.02"/><polygon class="cls-17" points="4.83 27.2 4.79 43.5 4.09 43.2 4.14 26.89 4.83 27.2"/><polygon class="cls-18" points="5.4 27.38 5.35 43.68 4.79 43.5 4.83 27.2 5.4 27.38"/><polygon class="cls-19" points="7.74 27.4 7.69 43.7 7.37 43.7 7.41 27.4 7.74 27.4"/><polygon class="cls-7" points="23.53 27.25 23.49 43.55 22.7 43.77 22.75 27.47 23.53 27.25"/><polygon class="cls-20" points="8.06 27.44 8.01 43.75 7.69 43.7 7.74 27.4 8.06 27.44"/><polygon class="cls-21" points="10.84 27.47 10.79 43.77 10.45 43.72 10.49 27.42 10.84 27.47"/><polygon class="cls-22" points="10.49 27.42 10.45 43.72 10.09 43.8 10.13 27.5 10.49 27.42"/><polygon class="cls-12" points="5.99 27.51 5.94 43.81 5.35 43.68 5.4 27.38 5.99 27.51"/><polygon class="cls-23" points="8.36 27.52 8.31 43.83 8.01 43.75 8.06 27.44 8.36 27.52"/><polygon class="cls-24" points="6.37 27.53 6.32 43.83 5.94 43.81 5.99 27.51 6.37 27.53"/><polygon class="cls-25" points="7.41 27.4 7.37 43.7 6.32 43.83 6.37 27.53 7.41 27.4"/><polygon class="cls-26" points="8.63 27.62 8.58 43.92 8.31 43.83 8.36 27.52 8.63 27.62"/><polygon class="cls-27" points="10.13 27.5 10.09 43.8 9.74 43.94 9.78 27.64 10.13 27.5"/><polygon class="cls-28" points="22.75 27.47 22.7 43.77 22 43.98 22.05 27.68 22.75 27.47"/><polygon class="cls-29" points="22.05 27.68 22 43.98 21.59 44.04 21.64 27.74 22.05 27.68"/><polygon class="cls-30" points="9.78 27.64 9.74 43.94 9.39 44.03 9.44 27.73 9.78 27.64"/><polygon class="cls-31" points="9.44 27.73 9.39 44.03 9.02 44.03 9.07 27.73 9.44 27.73"/><polygon class="cls-32" points="9.07 27.73 9.02 44.03 8.58 43.92 8.63 27.62 9.07 27.73"/><polygon class="cls-33" points="21.64 27.74 21.59 44.04 20.7 44.06 20.75 27.76 21.64 27.74"/><polygon class="cls-34" points="20.75 27.76 20.7 44.06 19.09 44.11 19.14 27.81 20.75 27.76"/><polygon class="cls-34" points="19.14 27.81 19.09 44.11 17.96 44.14 18.01 27.84 19.14 27.81"/><polygon class="cls-34" points="18.01 27.84 17.96 44.14 16.99 44.17 17.03 27.86 18.01 27.84"/><polygon class="cls-35" points="17.03 27.86 16.99 44.17 16.84 44.19 16.89 27.89 17.03 27.86"/><polygon class="cls-36" points="16.89 27.89 16.84 44.19 16.74 44.26 16.78 27.96 16.89 27.89"/><polygon class="cls-37" points="12.09 27.98 12.05 44.28 10.79 43.77 10.84 27.47 12.09 27.98"/><polygon class="cls-20" points="13.64 28.05 13.6 44.35 13.15 44.3 13.2 27.99 13.64 28.05"/><polygon class="cls-38" points="13.98 28.03 13.93 44.33 13.6 44.35 13.64 28.05 13.98 28.03"/><polygon class="cls-39" points="16.78 27.96 16.74 44.26 16.64 44.39 16.69 28.09 16.78 27.96"/><polygon class="cls-40" points="12.45 28.08 12.4 44.38 12.05 44.28 12.09 27.98 12.45 28.08"/><polygon class="cls-41" points="12.76 28.09 12.71 44.39 12.4 44.38 12.45 28.08 12.76 28.09"/><polygon class="cls-42" points="13.2 27.99 13.15 44.3 12.71 44.39 12.76 28.09 13.2 27.99"/><polygon class="cls-43" points="14.44 28.11 14.39 44.42 13.93 44.33 13.98 28.03 14.44 28.11"/><polygon class="cls-27" points="16.69 28.09 16.64 44.39 16.5 44.45 16.55 28.15 16.69 28.09"/><polygon class="cls-5" points="14.6 28.16 14.55 44.47 14.39 44.42 14.44 28.11 14.6 28.16"/><polygon class="cls-29" points="16.55 28.15 16.5 44.45 15.69 44.57 15.74 28.27 16.55 28.15"/><polygon class="cls-44" points="14.84 28.28 14.79 44.58 14.55 44.47 14.6 28.16 14.84 28.28"/><polygon class="cls-45" points="14.99 28.34 14.95 44.64 14.79 44.58 14.84 28.28 14.99 28.34"/><polygon class="cls-29" points="15.74 28.27 15.69 44.57 15.14 44.65 15.18 28.35 15.74 28.27"/><polygon class="cls-46" points="15.18 28.35 15.14 44.65 14.95 44.64 14.99 28.34 15.18 28.35"/><polygon class="cls-47" points="51.44 6.98 51.65 7.56 51.87 8.15 52.07 8.73 52.29 9.31 52.5 9.89 52.71 10.48 52.92 11.05 53.13 11.64 53.35 12.22 53.55 12.8 53.77 13.39 53.98 13.97 54.19 14.55 54.4 15.13 54.61 15.71 54.82 16.29 53.87 16.84 48.79 19.79 48.2 20.13 47.63 20.25 47.07 20.41 46.32 20.62 45.58 20.84 44.84 21.06 44.09 21.27 43.35 21.48 42.61 21.69 41.86 21.91 41.13 22.13 40.38 22.34 39.64 22.55 38.89 22.77 38.15 22.98 37.4 23.19 36.66 23.41 35.92 23.63 35.18 23.84 34.4 24.06 33.62 24.29 32.85 24.52 32.07 24.75 31.3 24.97 30.52 25.2 29.74 25.43 28.96 25.66 28.18 25.88 27.41 26.11 26.64 26.33 25.86 26.56 25.08 26.79 24.31 27.02 23.53 27.25 22.75 27.47 22.05 27.68 21.64 27.74 20.75 27.76 19.14 27.81 18.01 27.84 17.03 27.86 16.89 27.89 16.78 27.96 16.69 28.09 16.55 28.15 15.74 28.27 15.18 28.35 14.99 28.34 14.84 28.28 14.6 28.16 14.44 28.11 13.98 28.03 13.64 28.05 13.2 27.99 12.76 28.09 12.45 28.08 12.09 27.98 10.84 27.47 10.49 27.42 10.13 27.5 9.78 27.64 9.44 27.73 9.07 27.73 8.63 27.62 8.36 27.52 8.06 27.44 7.74 27.4 7.41 27.4 6.37 27.53 5.99 27.51 5.4 27.38 4.83 27.2 4.14 26.89 3.88 26.83 3.65 26.82 2.93 26.82 2.47 26.76 2.04 26.67 1.89 26.59 1.91 26.5 2 26.4 2.06 26.28 2.02 26.17 1.94 26.07 1.73 25.87 1.63 25.74 1.6 25.63 1.64 25.39 1.64 25.26 1.57 25.18 1.49 25.1 1.41 24.99 1.41 24.87 1.56 24.64 1.58 24.52 1.52 24.43 1.31 24.23 1.25 24.1 0.25 21.49 0.05 20.98 0.22 20.99 0.39 20.98 0.54 20.9 0.25 20.77 0.46 20.78 0.85 20.83 1.11 20.84 1.59 20.83 1.76 20.79 1.91 20.73 2.25 20.7 2.42 20.67 2.35 20.58 2.34 20.48 2.55 20.48 3.08 20.9 3.36 20.99 3.69 21.04 3.99 21.04 4.18 20.98 4.69 21.03 4.93 21.11 5.36 21.15 6.18 21.31 7.46 21.31 8.56 21.38 9.7 21.33 10.88 21.2 11.77 21.18 12.32 21.09 13.82 21.02 14.14 20.97 14.6 20.9 14.99 20.8 15.46 20.49 16.03 20.24 16.38 20.1 16.61 19.91 16.76 19.74 17.04 19.45 17.18 19.3 17.47 19.16 17.96 18.95 18.27 18.79 18.65 18.53 18.68 18.3 18.52 18.25 18.9 17.53 18.96 17.45 19.1 17.29 19.33 16.7 19.37 16.2 19.42 16.1 19.55 16.04 19.71 15.99 19.87 15.94 19.98 15.87 20.16 15.69 20.32 15.47 20.4 15.29 20.43 15.11 20.39 14.85 20.76 14.38 20.79 14.22 20.76 14.14 20.77 14.05 20.86 13.96 20.82 13.72 20.88 13.63 21 13.56 21.43 13.47 21.93 13.45 21.78 13.4 21.89 13.33 22.79 13.14 23.05 13.02 23.35 12.92 23.5 12.89 23.8 12.77 24 12.61 24.33 12.26 24.55 12.16 24.83 12.13 25.43 12.13 25.76 12.11 26.07 12.03 26.37 11.9 26.61 11.74 26.79 11.58 26.86 11.48 26.92 11.31 27.11 11.16 27.21 11 27.46 10.84 27.56 10.77 27.65 10.45 27.97 9.96 28.02 9.68 28.18 9.44 28.13 9.3 28.66 8.63 28.78 8.12 28.84 7.78 28.82 7.5 29.06 7.19 29.13 6.95 29.46 6.34 29.54 6.24 29.64 6.15 29.88 6.05 30.14 5.79 30.4 5.69 31.95 5.4 32.22 5.3 32.4 4.97 33.22 4.48 33.62 4.29 34.75 3.55 34.9 3.4 34.9 3.31 34.84 3.1 34.91 2.99 35 2.8 35.14 2.67 35.26 2.58 35.2 2.26 35.38 2.05 35.8 1.75 35.98 1.59 36.05 1.41 36.11 1.33 36.55 1.1 36.8 0.85 36.91 0.78 37.48 0.57 37.83 0.48 38.23 0.42 39 0.19 39.24 0.08 39.35 0 51.44 6.98"/></g></g></g></svg>