<svg xmlns="http://www.w3.org/2000/svg" viewBox="0 0 115.61 117.13"><defs><style>.cls-1{isolation:isolate;}.cls-2{fill:#511414;}.cls-3{fill:#8a2222;}.cls-4{fill:#a32828;}.cls-5{fill:#9b2626;}.cls-6{fill:#9a2626;}.cls-7{fill:#8c2222;}.cls-8{fill:#6a1a1a;}.cls-9{fill:#4c1313;}.cls-10{fill:#481212;}.cls-11{fill:#561515;}.cls-12{fill:#601818;}.cls-13{fill:#4a1212;}.cls-14{fill:#681a1a;}.cls-15{fill:#4b1212;}.cls-16{fill:#872121;}.cls-17{fill:#6f1b1b;}.cls-18{fill:#551515;}.cls-19{fill:#491212;}.cls-20{fill:#a92929;}.cls-21{fill:#5a1616;}.cls-22{fill:#952424;}.cls-23{fill:#892222;}.cls-24{fill:#6e1b1b;}.cls-25{fill:#a72929;}.cls-26{fill:#882121;}.cls-27{fill:#952525;}.cls-28{fill:#a02727;}.cls-29{fill:#a22828;}.cls-30{fill:#902323;}.cls-31{fill:#691a1a;}.cls-32{fill:#771d1d;}.cls-33{fill:#9e2727;}.cls-34{fill:#842020;}.cls-35{fill:#a52828;}.cls-36{fill:#a82929;}.cls-37{fill:#982525;}.cls-38{fill:#711c1c;}.cls-39{fill:#671919;}.cls-40{fill:#7b1e1e;}.cls-41{fill:#8e2323;}.cls-42{fill:#791e1e;}.cls-43{fill:#521414;}.cls-44{fill:#5e1717;}.cls-45{fill:#7e1f1f;}.cls-46{fill:#7a1e1e;}.cls-47{fill:#9c2626;}.cls-48{fill:#4f1313;}.cls-49{fill:#591616;}.cls-50{fill:#922424;}.cls-51{fill:#661919;}.cls-52{fill:#942424;}.cls-53{fill:#a12727;}.cls-54{fill:#a62929;}.cls-55{fill:#531414;}.cls-56{fill:#812020;}.cls-57{fill:#641919;}.cls-58{fill:#5d1717;}.cls-59{fill:#761d1d;}.cls-60{fill:#912323;}.cls-61{fill:#852121;}.cls-62{fill:#9f2727;}.cls-63{fill:#a12828;}.cls-64{fill:#932424;}.cls-65{fill:#992525;}.cls-66{fill:#7d1f1f;}.cls-67{fill:#a42828;}.cls-68{fill:#501414;}.cls-69{fill:#962525;}.cls-70{fill:#631818;}.cls-71{fill:#6c1b1b;}.cls-72{fill:#832020;}.cls-73{fill:#5c1717;}.cls-74{fill:#651919;}.cls-75{fill:#7f1f1f;}.cls-76{fill:#731c1c;}.cls-77{fill:#8b2222;}.cls-78{fill:#681919;}.cls-79{fill:#992626;}.cls-80{fill:#701c1c;}.cls-81{fill:#781d1d;}.cls-82{fill:#621818;}.cls-83{fill:#751d1d;}.cls-84{fill:#7c1e1e;}.cls-85{fill:#8d2222;}.cls-86{fill:#581616;}.cls-87{fill:#6d1b1b;}.cls-88{fill:#5b1616;}.cls-89{fill:#822020;}.cls-90{fill:#8d2323;}.cls-91{fill:#611818;}.cls-92{fill:#c83131;}</style></defs><title>South Africa</title><g id="Layer_2" data-name="Layer 2"><g id="Layer_1-2" data-name="Layer 1"><g class="cls-1"><polygon class="cls-2" points="42.31 8.52 42.26 24.83 41.66 24.43 41.71 8.12 42.31 8.52"/><polygon class="cls-3" points="87.94 11.91 87.9 28.22 87.71 28.55 87.75 12.24 87.94 11.91"/><polygon class="cls-4" points="87.75 12.24 87.71 28.55 86.36 28.88 86.41 12.58 87.75 12.24"/><polygon class="cls-5" points="86.41 12.58 86.36 28.88 85.18 29.03 85.22 12.72 86.41 12.58"/><polygon class="cls-6" points="85.22 12.72 85.18 29.03 84.02 29.17 84.07 12.87 85.22 12.72"/><polygon class="cls-5" points="84.07 12.87 84.02 29.17 82.86 29.32 82.91 13.01 84.07 12.87"/><polygon class="cls-7" points="82.91 13.01 82.86 29.32 82.12 30.55 82.17 14.25 82.91 13.01"/><polygon class="cls-8" points="82.17 14.25 82.12 30.55 82.06 31.2 82.11 14.9 82.17 14.25"/><polygon class="cls-9" points="95.28 15.95 95.23 32.25 94.69 31.81 94.73 15.5 95.28 15.95"/><polygon class="cls-9" points="95.79 16.36 95.74 32.67 95.23 32.25 95.28 15.95 95.79 16.36"/><polygon class="cls-10" points="39.7 16.63 39.65 32.93 39.2 28.86 39.24 12.55 39.7 16.63"/><polygon class="cls-9" points="96.36 16.82 96.31 33.13 95.74 32.67 95.79 16.36 96.36 16.82"/><polygon class="cls-11" points="96.97 17.16 96.92 33.47 96.31 33.13 96.36 16.82 96.97 17.16"/><polygon class="cls-12" points="98.13 17.65 98.09 33.95 96.92 33.47 96.97 17.16 98.13 17.65"/><polygon class="cls-13" points="39.43 22.28 39.39 38.58 38.87 38.09 38.91 21.78 39.43 22.28"/><polygon class="cls-14" points="110.14 22.09 110.09 38.39 109.98 39.94 110.03 23.64 110.14 22.09"/><polygon class="cls-15" points="41.2 23.85 41.16 40.16 39.39 38.58 39.43 22.28 41.2 23.85"/><polygon class="cls-10" points="41.7 24.65 41.65 40.96 41.16 40.16 41.2 23.85 41.7 24.65"/><polygon class="cls-16" points="110.06 24.2 110.02 40.5 109.64 41.23 109.69 24.93 110.06 24.2"/><polygon class="cls-10" points="41.32 25.8 41.27 42.1 41.25 41.63 41.3 25.32 41.32 25.8"/><polygon class="cls-17" points="109.69 24.93 109.64 41.23 109.25 43.54 109.29 27.24 109.69 24.93"/><polygon class="cls-10" points="41.55 27.12 41.5 43.42 41.14 42.93 41.19 26.63 41.55 27.12"/><polygon class="cls-8" points="109.29 27.24 109.25 43.54 109.21 43.89 109.25 27.58 109.29 27.24"/><polygon class="cls-18" points="40.09 30.89 40.04 47.2 38.98 46.58 39.03 30.28 40.09 30.89"/><polygon class="cls-19" points="40.6 31.43 40.55 47.73 40.04 47.2 40.09 30.89 40.6 31.43"/><polygon class="cls-10" points="40.75 31.75 40.71 48.05 40.55 47.73 40.6 31.43 40.75 31.75"/><polygon class="cls-19" points="41.09 32.11 41.05 48.42 40.71 48.05 40.75 31.75 41.09 32.11"/><polygon class="cls-10" points="41.82 33.2 41.78 49.51 41.05 48.42 41.09 32.11 41.82 33.2"/><polygon class="cls-13" points="42.67 34.02 42.62 50.32 41.78 49.51 41.82 33.2 42.67 34.02"/><polygon class="cls-10" points="43.08 34.59 43.03 50.9 42.62 50.32 42.67 34.02 43.08 34.59"/><polygon class="cls-10" points="43.37 34.93 43.33 51.23 43.03 50.9 43.08 34.59 43.37 34.93"/><polygon class="cls-4" points="93.89 35.56 93.85 51.86 93.56 51.93 93.61 35.63 93.89 35.56"/><polygon class="cls-20" points="93.61 35.63 93.56 51.93 93.29 52.07 93.33 35.77 93.61 35.63"/><polygon class="cls-7" points="94.91 35.79 94.86 52.09 94.66 52.09 94.71 35.79 94.91 35.79"/><polygon class="cls-21" points="94.36 35.79 94.31 52.09 93.85 51.86 93.89 35.56 94.36 35.79"/><polygon class="cls-22" points="94.71 35.79 94.66 52.09 94.48 52.1 94.52 35.8 94.71 35.79"/><polygon class="cls-23" points="94.52 35.8 94.48 52.1 94.31 52.09 94.36 35.79 94.52 35.8"/><polygon class="cls-24" points="95.08 35.84 95.03 52.14 94.86 52.09 94.91 35.79 95.08 35.84"/><polygon class="cls-25" points="93.33 35.77 93.29 52.07 93 52.17 93.05 35.86 93.33 35.77"/><polygon class="cls-7" points="93.05 35.86 93 52.17 91.88 52.15 91.92 35.84 93.05 35.86"/><polygon class="cls-26" points="90.97 35.88 90.93 52.18 90.79 52.17 90.83 35.87 90.97 35.88"/><polygon class="cls-3" points="85.89 35.88 85.85 52.19 85.66 52.18 85.7 35.88 85.89 35.88"/><polygon class="cls-27" points="85.7 35.88 85.66 52.18 85.44 52.2 85.49 35.89 85.7 35.88"/><polygon class="cls-28" points="90.83 35.87 90.79 52.17 90.58 52.21 90.62 35.91 90.83 35.87"/><polygon class="cls-29" points="91.92 35.84 91.88 52.15 91.55 52.22 91.59 35.92 91.92 35.84"/><polygon class="cls-30" points="88.67 35.91 88.62 52.21 88.45 52.21 88.5 35.91 88.67 35.91"/><polygon class="cls-3" points="88.86 35.91 88.81 52.22 88.62 52.21 88.67 35.91 88.86 35.91"/><polygon class="cls-31" points="95.42 35.95 95.38 52.25 95.03 52.14 95.08 35.84 95.42 35.95"/><polygon class="cls-32" points="86.09 35.92 86.04 52.23 85.85 52.19 85.89 35.88 86.09 35.92"/><polygon class="cls-33" points="88.5 35.91 88.45 52.21 88.29 52.24 88.34 35.94 88.5 35.91"/><polygon class="cls-18" points="91.12 35.96 91.07 52.27 90.93 52.18 90.97 35.88 91.12 35.96"/><polygon class="cls-34" points="95.86 35.98 95.81 52.29 95.38 52.25 95.42 35.95 95.86 35.98"/><polygon class="cls-35" points="85.49 35.89 85.44 52.2 85.35 52.26 85.4 35.96 85.49 35.89"/><polygon class="cls-25" points="91.59 35.92 91.55 52.22 91.36 52.28 91.41 35.98 91.59 35.92"/><polygon class="cls-4" points="88.34 35.94 88.29 52.24 88.14 52.28 88.19 35.97 88.34 35.94"/><polygon class="cls-36" points="90.62 35.91 90.58 52.21 90.38 52.28 90.43 35.98 90.62 35.91"/><polygon class="cls-37" points="91.41 35.98 91.36 52.28 91.21 52.3 91.25 36 91.41 35.98"/><polygon class="cls-38" points="91.25 36 91.21 52.3 91.07 52.27 91.12 35.96 91.25 36"/><polygon class="cls-39" points="86.27 35.98 86.22 52.29 86.04 52.23 86.09 35.92 86.27 35.98"/><polygon class="cls-30" points="87.29 35.98 87.24 52.29 87.06 52.29 87.11 35.99 87.29 35.98"/><polygon class="cls-40" points="89.6 36.03 89.55 52.34 88.81 52.22 88.86 35.91 89.6 36.03"/><polygon class="cls-36" points="90.43 35.98 90.38 52.28 90.29 52.34 90.33 36.04 90.43 35.98"/><polygon class="cls-41" points="90.33 36.04 90.29 52.34 89.55 52.34 89.6 36.03 90.33 36.04"/><polygon class="cls-24" points="96.14 36.06 96.1 52.37 95.81 52.29 95.86 35.98 96.14 36.06"/><polygon class="cls-36" points="88.19 35.97 88.14 52.28 87.89 52.38 87.94 36.07 88.19 35.97"/><polygon class="cls-6" points="87.94 36.07 87.89 52.38 87.8 52.39 87.84 36.08 87.94 36.07"/><polygon class="cls-42" points="87.84 36.08 87.8 52.39 87.24 52.29 87.29 35.98 87.84 36.08"/><polygon class="cls-43" points="96.26 36.14 96.21 52.44 96.1 52.37 96.14 36.06 96.26 36.14"/><polygon class="cls-44" points="96.31 36.16 96.27 52.47 96.21 52.44 96.26 36.14 96.31 36.16"/><polygon class="cls-12" points="86.64 36.14 86.59 52.44 86.22 52.29 86.27 35.98 86.64 36.14"/><polygon class="cls-40" points="96.39 36.17 96.34 52.48 96.27 52.47 96.31 36.16 96.39 36.17"/><polygon class="cls-20" points="87.11 35.99 87.06 52.29 86.75 52.46 86.8 36.16 87.11 35.99"/><polygon class="cls-45" points="86.8 36.16 86.75 52.46 86.59 52.44 86.64 36.14 86.8 36.16"/><polygon class="cls-16" points="96.63 36.19 96.58 52.49 96.34 52.48 96.39 36.17 96.63 36.19"/><polygon class="cls-9" points="96.72 36.26 96.67 52.56 96.58 52.49 96.63 36.19 96.72 36.26"/><polygon class="cls-46" points="85.4 35.96 85.35 52.26 85.23 52.63 85.28 36.32 85.4 35.96"/><polygon class="cls-10" points="96.77 36.44 96.72 52.74 96.67 52.56 96.72 36.26 96.77 36.44"/><polygon class="cls-47" points="85.28 36.32 85.23 52.63 85.14 52.73 85.19 36.42 85.28 36.32"/><polygon class="cls-48" points="96.88 36.52 96.83 52.82 96.72 52.74 96.77 36.44 96.88 36.52"/><polygon class="cls-49" points="96.99 36.57 96.94 52.88 96.83 52.82 96.88 36.52 96.99 36.57"/><polygon class="cls-10" points="97.04 36.64 97 52.94 96.94 52.88 96.99 36.57 97.04 36.64"/><polygon class="cls-10" points="97.06 36.71 97.01 53.02 97 52.94 97.04 36.64 97.06 36.71"/><polygon class="cls-25" points="85.19 36.42 85.14 52.73 84.28 53.29 84.32 36.99 85.19 36.42"/><polygon class="cls-50" points="84.32 36.99 84.28 53.29 84.19 53.41 84.24 37.1 84.32 36.99"/><polygon class="cls-10" points="96.71 37.4 96.66 53.71 96.66 53.54 96.7 37.24 96.71 37.4"/><polygon class="cls-10" points="96.82 37.52 96.77 53.83 96.66 53.71 96.71 37.4 96.82 37.52"/><polygon class="cls-18" points="97.01 37.64 96.96 53.94 96.77 53.83 96.82 37.52 97.01 37.64"/><polygon class="cls-31" points="84.38 37.54 84.33 53.84 84.32 53.98 84.36 37.68 84.38 37.54"/><polygon class="cls-51" points="97.24 37.72 97.19 54.02 96.96 53.94 97.01 37.64 97.24 37.72"/><polygon class="cls-26" points="97.45 37.73 97.4 54.03 97.19 54.02 97.24 37.72 97.45 37.73"/><polygon class="cls-52" points="84.36 37.68 84.32 53.98 84.24 54.09 84.28 37.78 84.36 37.68"/><polygon class="cls-48" points="97.53 37.91 97.48 54.22 97.37 54.14 97.42 37.84 97.53 37.91"/><polygon class="cls-35" points="84.28 37.78 84.24 54.09 84.1 54.19 84.15 37.88 84.28 37.78"/><polygon class="cls-18" points="97.65 37.98 97.6 54.29 97.48 54.22 97.53 37.91 97.65 37.98"/><polygon class="cls-20" points="84.15 37.88 84.1 54.19 83.94 54.27 83.98 37.96 84.15 37.88"/><polygon class="cls-53" points="83.98 37.96 83.94 54.27 83.74 54.31 83.79 38.01 83.98 37.96"/><polygon class="cls-10" points="97.67 38.08 97.63 54.38 97.6 54.29 97.65 37.98 97.67 38.08"/><polygon class="cls-4" points="83.79 38.01 83.74 54.31 83.67 54.36 83.72 38.06 83.79 38.01"/><polygon class="cls-54" points="83.72 38.06 83.67 54.36 83.34 54.59 83.39 38.29 83.72 38.06"/><polygon class="cls-35" points="83.39 38.29 83.34 54.59 83.27 54.61 83.31 38.31 83.39 38.29"/><polygon class="cls-10" points="97.37 38.84 97.32 55.15 97.24 54.97 97.28 38.67 97.37 38.84"/><polygon class="cls-10" points="97.5 39.02 97.45 55.32 97.32 55.15 97.37 38.84 97.5 39.02"/><polygon class="cls-10" points="97.62 39.23 97.57 55.53 97.45 55.32 97.5 39.02 97.62 39.23"/><polygon class="cls-55" points="97.78 39.33 97.74 55.63 97.57 55.53 97.62 39.23 97.78 39.33"/><polygon class="cls-9" points="97.95 39.47 97.9 55.77 97.74 55.63 97.78 39.33 97.95 39.47"/><polygon class="cls-55" points="98.12 39.58 98.08 55.88 97.9 55.77 97.95 39.47 98.12 39.58"/><polygon class="cls-56" points="98.36 39.6 98.31 55.91 98.08 55.88 98.12 39.58 98.36 39.6"/><polygon class="cls-37" points="98.51 39.59 98.46 55.89 98.31 55.91 98.36 39.6 98.51 39.59"/><polygon class="cls-57" points="98.58 39.62 98.53 55.92 98.46 55.89 98.51 39.59 98.58 39.62"/><polygon class="cls-18" points="98.64 39.65 98.6 55.96 98.53 55.92 98.58 39.62 98.64 39.65"/><polygon class="cls-58" points="98.77 39.71 98.72 56.01 98.6 55.96 98.64 39.65 98.77 39.71"/><polygon class="cls-31" points="83.67 39.59 83.62 55.89 83.62 55.97 83.66 39.67 83.67 39.59"/><polygon class="cls-59" points="98.98 39.75 98.94 56.05 98.72 56.01 98.77 39.71 98.98 39.75"/><polygon class="cls-51" points="99.08 39.78 99.03 56.09 98.94 56.05 98.98 39.75 99.08 39.78"/><polygon class="cls-36" points="83.66 39.67 83.62 55.97 83.44 56.07 83.49 39.77 83.66 39.67"/><polygon class="cls-60" points="83.22 39.78 83.18 56.09 83.03 56.09 83.08 39.78 83.22 39.78"/><polygon class="cls-28" points="83.49 39.77 83.44 56.07 83.33 56.1 83.37 39.79 83.49 39.77"/><polygon class="cls-61" points="83.37 39.79 83.33 56.1 83.18 56.09 83.22 39.78 83.37 39.79"/><polygon class="cls-10" points="99.1 39.85 99.05 56.15 99.03 56.09 99.08 39.78 99.1 39.85"/><polygon class="cls-20" points="83.08 39.78 83.03 56.09 82.89 56.15 82.93 39.85 83.08 39.78"/><polygon class="cls-56" points="82.93 39.85 82.89 56.15 82.85 56.24 82.89 39.94 82.93 39.85"/><polygon class="cls-7" points="83.07 40.22 83.02 56.52 82.93 56.67 82.98 40.37 83.07 40.22"/><polygon class="cls-20" points="82.98 40.37 82.93 56.67 82.13 57.08 82.17 40.78 82.98 40.37"/><polygon class="cls-17" points="82.35 40.83 82.3 57.13 82.29 57.2 82.33 40.9 82.35 40.83"/><polygon class="cls-22" points="82.33 40.9 82.29 57.2 82.22 57.28 82.27 40.98 82.33 40.9"/><polygon class="cls-51" points="82.54 41.25 82.49 57.56 82.48 57.81 82.53 41.5 82.54 41.25"/><polygon class="cls-3" points="82.53 41.6 82.49 57.91 82.45 57.97 82.5 41.67 82.53 41.6"/><polygon class="cls-62" points="82.5 41.67 82.45 57.97 82.37 58.05 82.42 41.75 82.5 41.67"/><polygon class="cls-27" points="82.82 41.78 82.77 58.08 82.71 58.16 82.75 41.86 82.82 41.78"/><polygon class="cls-63" points="82.75 41.86 82.71 58.16 82.59 58.19 82.63 41.89 82.75 41.86"/><polygon class="cls-3" points="83.08 42.77 83.03 59.07 83 59.12 83.05 42.81 83.08 42.77"/><polygon class="cls-64" points="83.05 42.81 83 59.12 82.97 59.17 83.01 42.86 83.05 42.81"/><polygon class="cls-45" points="83.01 42.86 82.97 59.17 82.94 59.23 82.99 42.93 83.01 42.86"/><polygon class="cls-17" points="83.4 43.16 83.35 59.46 83.34 59.53 83.39 43.23 83.4 43.16"/><polygon class="cls-22" points="83.39 43.23 83.34 59.53 83.31 59.58 83.35 43.27 83.39 43.23"/><polygon class="cls-65" points="83.35 43.27 83.31 59.58 83.12 59.79 83.17 43.48 83.35 43.27"/><polygon class="cls-66" points="83.17 43.48 83.12 59.79 83.09 59.89 83.13 43.59 83.17 43.48"/><polygon class="cls-51" points="115.39 42.62 115.34 58.92 115.31 60.02 115.35 43.72 115.39 42.62"/><polygon class="cls-56" points="83.41 43.88 83.36 60.18 83.34 60.24 83.38 43.94 83.41 43.88"/><polygon class="cls-10" points="95.82 44 95.78 60.3 95.73 60.21 95.77 43.9 95.82 44"/><polygon class="cls-37" points="83.38 43.94 83.34 60.24 83.3 60.28 83.34 43.98 83.38 43.94"/><polygon class="cls-37" points="115.35 43.72 115.31 60.02 114.96 60.43 115.01 44.12 115.35 43.72"/><polygon class="cls-42" points="83.34 43.98 83.3 60.28 83.28 60.35 83.33 44.04 83.34 43.98"/><polygon class="cls-10" points="95.92 44.19 95.87 60.49 95.78 60.3 95.82 44 95.92 44.19"/><polygon class="cls-32" points="83.72 44.22 83.67 60.53 83.66 60.57 83.7 44.27 83.72 44.22"/><polygon class="cls-10" points="95.93 44.31 95.88 60.61 95.87 60.49 95.92 44.19 95.93 44.31"/><polygon class="cls-10" points="95.95 44.49 95.9 60.79 95.86 60.67 95.91 44.37 95.95 44.49"/><polygon class="cls-10" points="95.95 44.54 95.9 60.84 95.9 60.79 95.95 44.49 95.95 44.54"/><polygon class="cls-67" points="83.88 44.81 83.84 61.11 83.67 61.23 83.72 44.93 83.88 44.81"/><polygon class="cls-10" points="95.63 45.08 95.59 61.38 95.57 61.26 95.62 44.95 95.63 45.08"/><polygon class="cls-10" points="24.22 44.88 24.18 61.19 24 59.84 24.05 43.54 24.22 44.88"/><polygon class="cls-60" points="96.23 45.15 96.19 61.45 96.04 61.46 96.08 45.16 96.23 45.15"/><polygon class="cls-68" points="95.77 45.17 95.72 61.47 95.59 61.38 95.63 45.08 95.77 45.17"/><polygon class="cls-53" points="96.08 45.16 96.04 61.46 95.9 61.49 95.94 45.19 96.08 45.16"/><polygon class="cls-34" points="95.94 45.19 95.9 61.49 95.72 61.47 95.77 45.17 95.94 45.19"/><polygon class="cls-58" points="96.42 45.24 96.38 61.54 96.19 61.45 96.23 45.15 96.42 45.24"/><polygon class="cls-19" points="96.54 45.37 96.49 61.67 96.38 61.54 96.42 45.24 96.54 45.37"/><polygon class="cls-46" points="83.85 45.16 83.81 61.46 83.73 61.71 83.77 45.41 83.85 45.16"/><polygon class="cls-10" points="96.56 45.47 96.51 61.78 96.49 61.67 96.54 45.37 96.56 45.47"/><polygon class="cls-50" points="83.77 45.41 83.73 61.71 83.64 61.83 83.69 45.52 83.77 45.41"/><polygon class="cls-53" points="83.69 45.52 83.64 61.83 83.49 61.96 83.54 45.66 83.69 45.52"/><polygon class="cls-61" points="83.54 45.66 83.49 61.96 83.44 62.06 83.49 45.76 83.54 45.66"/><polygon class="cls-69" points="83.49 45.76 83.44 62.06 83.4 62.12 83.44 45.82 83.49 45.76"/><polygon class="cls-35" points="83.44 45.82 83.4 62.12 83.23 62.25 83.27 45.95 83.44 45.82"/><polygon class="cls-9" points="25.47 45.91 25.42 62.22 24.18 61.19 24.22 44.88 25.47 45.91"/><polygon class="cls-22" points="83.27 45.95 83.23 62.25 83.11 62.4 83.16 46.09 83.27 45.95"/><polygon class="cls-10" points="96.48 46.14 96.43 62.44 96.39 62.36 96.44 46.06 96.48 46.14"/><polygon class="cls-70" points="96.56 46.17 96.51 62.47 96.43 62.44 96.48 46.14 96.56 46.17"/><polygon class="cls-40" points="96.77 46.2 96.72 62.51 96.51 62.47 96.56 46.17 96.77 46.2"/><polygon class="cls-71" points="96.87 46.23 96.82 62.54 96.72 62.51 96.77 46.2 96.87 46.23"/><polygon class="cls-15" points="96.92 46.28 96.87 62.58 96.82 62.54 96.87 46.23 96.92 46.28"/><polygon class="cls-20" points="83.17 46.38 83.12 62.69 83.03 62.73 83.08 46.43 83.17 46.38"/><polygon class="cls-69" points="83.08 46.43 83.03 62.73 82.84 62.75 82.89 46.44 83.08 46.43"/><polygon class="cls-19" points="97.17 46.55 97.12 62.85 96.87 62.58 96.92 46.28 97.17 46.55"/><polygon class="cls-10" points="97.19 46.59 97.14 62.89 97.12 62.85 97.17 46.55 97.19 46.59"/><polygon class="cls-10" points="97.21 46.66 97.16 62.96 97.14 62.89 97.19 46.59 97.21 46.66"/><polygon class="cls-72" points="82.97 46.64 82.92 62.94 82.77 62.93 82.82 46.62 82.97 46.64"/><polygon class="cls-36" points="82.82 46.62 82.77 62.93 82.7 62.97 82.75 46.66 82.82 46.62"/><polygon class="cls-10" points="97.18 46.88 97.14 63.19 97.11 63.12 97.16 46.82 97.18 46.88"/><polygon class="cls-13" points="97.31 47 97.26 63.3 97.14 63.19 97.18 46.88 97.31 47"/><polygon class="cls-49" points="97.43 47.06 97.39 63.37 97.26 63.3 97.31 47 97.43 47.06"/><polygon class="cls-73" points="97.57 47.13 97.52 63.43 97.39 63.37 97.43 47.06 97.57 47.13"/><polygon class="cls-18" points="97.72 47.22 97.67 63.52 97.52 63.43 97.57 47.13 97.72 47.22"/><polygon class="cls-10" points="27.23 48 27.18 64.3 25.42 62.22 25.47 45.91 27.23 48"/><polygon class="cls-74" points="115.08 45.03 115.03 61.33 114.92 65.28 114.96 48.98 115.08 45.03"/><polygon class="cls-10" points="27.07 49.97 27.02 66.28 26.91 65.95 26.95 49.65 27.07 49.97"/><polygon class="cls-10" points="26.88 51.52 26.83 67.83 26.68 67.28 26.73 50.98 26.88 51.52"/><polygon class="cls-75" points="115.61 51.47 115.56 67.78 115.43 68.11 115.47 51.81 115.61 51.47"/><polygon class="cls-10" points="27.25 51.99 27.2 68.29 26.83 67.83 26.88 51.52 27.25 51.99"/><polygon class="cls-10" points="27.39 52.35 27.34 68.66 27.2 68.29 27.25 51.99 27.39 52.35"/><polygon class="cls-51" points="115.47 51.81 115.43 68.11 115.39 69.19 115.44 52.88 115.47 51.81"/><polygon class="cls-10" points="27.39 52.75 27.34 69.05 27.34 68.66 27.39 52.35 27.39 52.75"/><polygon class="cls-18" points="1.27 53.58 1.23 69.88 0 69.17 0.05 52.87 1.27 53.58"/><polygon class="cls-11" points="1.69 53.81 1.64 70.11 1.23 69.88 1.27 53.58 1.69 53.81"/><polygon class="cls-18" points="2.1 54.05 2.06 70.35 1.64 70.11 1.69 53.81 2.1 54.05"/><polygon class="cls-9" points="26.82 54.82 26.78 71.13 26.07 70.54 26.11 54.23 26.82 54.82"/><polygon class="cls-76" points="115.48 54.72 115.43 71.03 115.2 72.04 115.25 55.73 115.48 54.72"/><polygon class="cls-18" points="4.56 55.47 4.51 71.77 2.06 70.35 2.1 54.05 4.56 55.47"/><polygon class="cls-18" points="4.97 55.7 4.92 72.01 4.51 71.77 4.56 55.47 4.97 55.7"/><polygon class="cls-32" points="115.25 55.73 115.2 72.04 115.12 72.35 115.16 56.05 115.25 55.73"/><polygon class="cls-52" points="115.16 56.05 115.12 72.35 114.77 72.8 114.81 56.5 115.16 56.05"/><polygon class="cls-18" points="7.86 57.37 7.81 73.67 4.92 72.01 4.97 55.7 7.86 57.37"/><polygon class="cls-18" points="8.26 57.6 8.22 73.91 7.81 73.67 7.86 57.37 8.26 57.6"/><polygon class="cls-18" points="8.68 57.84 8.63 74.15 8.22 73.91 8.26 57.6 8.68 57.84"/><polygon class="cls-76" points="115.11 58.09 115.06 74.39 114.88 75.21 114.92 58.91 115.11 58.09"/><polygon class="cls-18" points="10.33 58.8 10.29 75.1 8.63 74.15 8.68 57.84 10.33 58.8"/><polygon class="cls-18" points="10.75 59.04 10.7 75.34 10.29 75.1 10.33 58.8 10.75 59.04"/><polygon class="cls-77" points="114.92 58.91 114.88 75.21 114.54 75.78 114.59 59.48 114.92 58.91"/><polygon class="cls-18" points="12.81 60.23 12.77 76.54 10.7 75.34 10.75 59.04 12.81 60.23"/><polygon class="cls-18" points="13.23 60.47 13.18 76.78 12.77 76.54 12.81 60.23 13.23 60.47"/><polygon class="cls-26" points="114.59 60.29 114.54 76.59 114.22 77.2 114.27 60.9 114.59 60.29"/><polygon class="cls-18" points="13.65 60.71 13.6 77.02 13.18 76.78 13.23 60.47 13.65 60.71"/><polygon class="cls-18" points="15.31 61.67 15.27 77.98 13.6 77.02 13.65 60.71 15.31 61.67"/><polygon class="cls-78" points="114.27 60.9 114.22 77.2 114.14 78.38 114.19 62.08 114.27 60.9"/><polygon class="cls-18" points="15.73 61.91 15.68 78.22 15.27 77.98 15.31 61.67 15.73 61.91"/><polygon class="cls-45" points="114.19 62.08 114.14 78.38 113.78 79.34 113.83 63.03 114.19 62.08"/><polygon class="cls-18" points="17.81 63.12 17.76 79.42 15.68 78.22 15.73 61.91 17.81 63.12"/><polygon class="cls-72" points="113.83 63.03 113.78 79.34 113.55 79.85 113.59 63.55 113.83 63.03"/><polygon class="cls-18" points="18.23 63.36 18.18 79.66 17.76 79.42 17.81 63.12 18.23 63.36"/><polygon class="cls-11" points="18.65 63.59 18.61 79.9 18.18 79.66 18.23 63.36 18.65 63.59"/><polygon class="cls-46" points="113.59 63.55 113.55 79.85 113.22 80.88 113.26 64.58 113.59 63.55"/><polygon class="cls-23" points="113.26 64.58 113.22 80.88 112.83 81.58 112.88 65.28 113.26 64.58"/><polygon class="cls-18" points="21.16 65.04 21.11 81.35 18.61 79.9 18.65 63.59 21.16 65.04"/><polygon class="cls-18" points="21.58 65.29 21.54 81.59 21.11 81.35 21.16 65.04 21.58 65.29"/><polygon class="cls-4" points="112.88 65.28 112.83 81.58 112.45 81.89 112.5 65.59 112.88 65.28"/><polygon class="cls-7" points="112.5 65.59 112.45 81.89 112 82.63 112.05 66.32 112.5 65.59"/><polygon class="cls-72" points="112.05 66.32 112 82.63 111.59 83.53 111.64 67.23 112.05 66.32"/><polygon class="cls-18" points="24.52 66.99 24.48 83.29 21.54 81.59 21.58 65.29 24.52 66.99"/><polygon class="cls-18" points="24.95 67.23 24.9 83.53 24.48 83.29 24.52 66.99 24.95 67.23"/><polygon class="cls-18" points="25.36 67.47 25.32 83.77 24.9 83.53 24.95 67.23 25.36 67.47"/><polygon class="cls-36" points="111.64 67.23 111.59 83.53 110.5 84.17 110.54 67.86 111.64 67.23"/><polygon class="cls-36" points="110.54 67.86 110.5 84.17 108.48 84.98 108.53 68.68 110.54 67.86"/><polygon class="cls-20" points="108.53 68.68 108.48 84.98 107.53 85.48 107.57 69.17 108.53 68.68"/><polygon class="cls-10" points="26.54 69.02 26.5 85.32 25.32 83.77 25.36 67.47 26.54 69.02"/><polygon class="cls-4" points="107.57 69.17 107.53 85.48 107.03 85.87 107.08 69.57 107.57 69.17"/><polygon class="cls-79" points="107.08 69.57 107.03 85.87 106.67 86.28 106.71 69.98 107.08 69.57"/><polygon class="cls-77" points="106.71 69.98 106.67 86.28 106.42 86.71 106.47 70.4 106.71 69.98"/><polygon class="cls-10" points="25.72 71.88 25.67 88.18 25.3 87.38 25.35 71.08 25.72 71.88"/><polygon class="cls-36" points="107.22 72.35 107.17 88.65 106.66 88.96 106.71 72.66 107.22 72.35"/><polygon class="cls-35" points="106.71 72.66 106.66 88.96 104.49 89.57 104.53 73.26 106.71 72.66"/><polygon class="cls-20" points="104.53 73.26 104.49 89.57 103.87 89.91 103.91 73.61 104.53 73.26"/><polygon class="cls-19" points="25.84 73.6 25.8 89.91 25.22 89.32 25.27 73.02 25.84 73.6"/><polygon class="cls-67" points="103.91 73.61 103.87 89.91 103.36 90.3 103.41 74 103.91 73.61"/><polygon class="cls-5" points="103.41 74 103.36 90.3 103.09 90.59 103.14 74.29 103.41 74"/><polygon class="cls-16" points="103.57 75.4 103.52 91.7 103.17 92.38 103.22 76.08 103.57 75.4"/><polygon class="cls-25" points="103.22 76.08 103.17 92.38 102.7 92.54 102.75 76.24 103.22 76.08"/><polygon class="cls-54" points="102.75 76.24 102.7 92.54 102.19 92.91 102.24 76.6 102.75 76.24"/><polygon class="cls-36" points="102.24 76.6 102.19 92.91 101.33 93.22 101.37 76.91 102.24 76.6"/><polygon class="cls-62" points="101.37 76.91 101.33 93.22 100.89 93.29 100.94 76.99 101.37 76.91"/><polygon class="cls-54" points="100.94 76.99 100.89 93.29 99.37 93.76 99.42 77.46 100.94 76.99"/><polygon class="cls-28" points="99.42 77.46 99.37 93.76 98.42 93.95 98.46 77.65 99.42 77.46"/><polygon class="cls-20" points="98.46 77.65 98.42 93.95 97.13 94.58 97.17 78.27 98.46 77.65"/><polygon class="cls-36" points="97.17 78.27 97.13 94.58 95.78 95.11 95.82 78.81 97.17 78.27"/><polygon class="cls-36" points="95.82 78.81 95.78 95.11 94.33 95.63 94.38 79.33 95.82 78.81"/><polygon class="cls-29" points="94.38 79.33 94.33 95.63 93.21 96.58 93.26 80.28 94.38 79.33"/><polygon class="cls-10" points="5.53 81.39 5.49 97.69 4.11 95.21 4.16 78.9 5.53 81.39"/><polygon class="cls-62" points="93.26 80.28 93.21 96.58 91.36 98.31 91.41 82.01 93.26 80.28"/><polygon class="cls-20" points="91.41 82.01 91.36 98.31 89.83 99.01 89.88 82.7 91.41 82.01"/><polygon class="cls-10" points="6 82.88 5.95 99.18 5.49 97.69 5.53 81.39 6 82.88"/><polygon class="cls-35" points="89.88 82.7 89.83 99.01 87.81 99.57 87.86 83.27 89.88 82.7"/><polygon class="cls-80" points="8.06 83.4 8.01 99.7 5.95 99.18 6 82.88 8.06 83.4"/><polygon class="cls-50" points="8.89 83.36 8.85 99.67 8.01 99.7 8.06 83.4 8.89 83.36"/><polygon class="cls-40" points="10.31 83.59 10.26 99.9 8.85 99.67 8.89 83.36 10.31 83.59"/><polygon class="cls-64" points="87.86 83.27 87.81 99.57 87.27 100.29 87.32 83.99 87.86 83.27"/><polygon class="cls-32" points="12.69 84.06 12.64 100.36 10.26 99.9 10.31 83.59 12.69 84.06"/><polygon class="cls-81" points="14.05 84.31 14.01 100.61 12.64 100.36 12.69 84.06 14.05 84.31"/><polygon class="cls-35" points="87.32 83.99 87.27 100.29 86.23 101.06 86.28 84.75 87.32 83.99"/><polygon class="cls-24" points="15.19 84.62 15.14 100.92 14.01 100.61 14.05 84.31 15.19 84.62"/><polygon class="cls-8" points="16.68 85.08 16.64 101.38 15.14 100.92 15.19 84.62 16.68 85.08"/><polygon class="cls-4" points="86.28 84.75 86.23 101.06 85.53 101.64 85.58 85.33 86.28 84.75"/><polygon class="cls-82" points="17.7 85.48 17.66 101.78 16.64 101.38 16.68 85.08 17.7 85.48"/><polygon class="cls-78" points="19.19 85.97 19.14 102.28 17.66 101.78 17.7 85.48 19.19 85.97"/><polygon class="cls-76" points="20.59 86.3 20.55 102.6 19.14 102.28 19.19 85.97 20.59 86.3"/><polygon class="cls-38" points="85.58 85.33 85.53 101.64 85.25 103.05 85.3 86.74 85.58 85.33"/><polygon class="cls-74" points="22.02 86.81 21.98 103.12 20.55 102.6 20.59 86.3 22.02 86.81"/><polygon class="cls-24" points="23.91 87.33 23.87 103.64 21.98 103.12 22.02 86.81 23.91 87.33"/><polygon class="cls-40" points="25.6 87.6 25.55 103.9 23.87 103.64 23.91 87.33 25.6 87.6"/><polygon class="cls-76" points="27.27 87.98 27.23 104.28 25.55 103.9 25.6 87.6 27.27 87.98"/><polygon class="cls-42" points="27.78 88.07 27.73 104.37 27.23 104.28 27.27 87.98 27.78 88.07"/><polygon class="cls-83" points="29.55 88.44 29.5 104.74 27.73 104.37 27.78 88.07 29.55 88.44"/><polygon class="cls-32" points="30.65 88.65 30.61 104.96 29.5 104.74 29.55 88.44 30.65 88.65"/><polygon class="cls-56" points="31.97 88.8 31.92 105.1 30.61 104.96 30.65 88.65 31.97 88.8"/><polygon class="cls-36" points="85.55 88.07 85.5 104.37 84 105.28 84.04 88.98 85.55 88.07"/><polygon class="cls-59" points="33.06 89.02 33.02 105.33 31.92 105.1 31.97 88.8 33.06 89.02"/><polygon class="cls-84" points="34.29 89.21 34.24 105.51 33.02 105.33 33.06 89.02 34.29 89.21"/><polygon class="cls-50" points="34.95 89.19 34.91 105.49 34.24 105.51 34.29 89.21 34.95 89.19"/><polygon class="cls-59" points="36 89.4 35.95 105.7 34.91 105.49 34.95 89.19 36 89.4"/><polygon class="cls-56" points="37.65 89.58 37.6 105.89 35.95 105.7 36 89.4 37.65 89.58"/><polygon class="cls-85" points="38.3 89.59 38.25 105.89 37.6 105.89 37.65 89.58 38.3 89.59"/><polygon class="cls-66" points="39.28 89.73 39.23 106.03 38.25 105.89 38.3 89.59 39.28 89.73"/><polygon class="cls-75" points="40.77 89.92 40.73 106.23 39.23 106.03 39.28 89.73 40.77 89.92"/><polygon class="cls-62" points="84.04 88.98 84 105.28 82.73 106.46 82.78 90.15 84.04 88.98"/><polygon class="cls-8" points="42.63 90.5 42.58 106.81 40.73 106.23 40.77 89.92 42.63 90.5"/><polygon class="cls-86" points="43.16 90.78 43.12 107.09 42.58 106.81 42.63 90.5 43.16 90.78"/><polygon class="cls-36" points="82.78 90.15 82.73 106.46 80.69 107.19 80.73 90.89 82.78 90.15"/><polygon class="cls-87" points="43.62 90.91 43.57 107.22 43.12 107.09 43.16 90.78 43.62 90.91"/><polygon class="cls-20" points="80.73 90.89 80.69 107.19 79.66 107.65 79.7 91.35 80.73 90.89"/><polygon class="cls-88" points="44.53 91.35 44.48 107.66 43.57 107.22 43.62 90.91 44.53 91.35"/><polygon class="cls-5" points="79.7 91.35 79.66 107.65 79.02 108.34 79.06 92.04 79.7 91.35"/><polygon class="cls-21" points="46.66 92.41 46.61 108.71 44.48 107.66 44.53 91.35 46.66 92.41"/><polygon class="cls-69" points="79.06 92.04 79.02 108.34 78.36 109.18 78.4 92.87 79.06 92.04"/><polygon class="cls-11" points="47.52 92.9 47.47 109.2 46.61 108.71 46.66 92.41 47.52 92.9"/><polygon class="cls-67" points="78.4 92.87 78.36 109.18 77.56 109.79 77.6 93.49 78.4 92.87"/><polygon class="cls-19" points="48.19 93.58 48.14 109.88 47.47 109.2 47.52 92.9 48.19 93.58"/><polygon class="cls-10" points="48.35 93.84 48.3 110.15 48.14 109.88 48.19 93.58 48.35 93.84"/><polygon class="cls-39" points="77.6 93.49 77.56 109.79 77.5 110.75 77.54 94.45 77.6 93.49"/><polygon class="cls-46" points="77.54 94.45 77.5 110.75 76.84 112.84 76.89 96.53 77.54 94.45"/><polygon class="cls-11" points="49.97 96.56 49.92 112.87 47.68 111.6 47.73 95.29 49.97 96.56"/><polygon class="cls-2" points="50.82 97.14 50.77 113.44 49.92 112.87 49.97 96.56 50.82 97.14"/><polygon class="cls-89" points="52.36 97.3 52.31 113.6 50.77 113.44 50.82 97.14 52.36 97.3"/><polygon class="cls-28" points="76.89 96.53 76.84 112.84 75.91 113.69 75.95 97.39 76.89 96.53"/><polygon class="cls-74" points="53.1 97.56 53.05 113.87 52.31 113.6 52.36 97.3 53.1 97.56"/><polygon class="cls-3" points="55.51 97.65 55.47 113.95 53.05 113.87 53.1 97.56 55.51 97.65"/><polygon class="cls-24" points="56.21 97.84 56.17 114.14 55.47 113.95 55.51 97.65 56.21 97.84"/><polygon class="cls-72" points="57.18 97.93 57.13 114.23 56.17 114.14 56.21 97.84 57.18 97.93"/><polygon class="cls-20" points="75.95 97.39 75.91 113.69 74.5 114.35 74.55 98.05 75.95 97.39"/><polygon class="cls-32" points="57.7 98.03 57.65 114.33 57.13 114.23 57.18 97.93 57.7 98.03"/><polygon class="cls-30" points="70.58 98.35 70.53 114.66 68.56 114.69 68.61 98.38 70.58 98.35"/><polygon class="cls-25" points="74.55 98.05 74.5 114.35 73.49 114.71 73.53 98.4 74.55 98.05"/><polygon class="cls-90" points="73.53 98.4 73.49 114.71 72.47 114.7 72.51 98.4 73.53 98.4"/><polygon class="cls-33" points="72.51 98.4 72.47 114.7 71.93 114.79 71.98 98.48 72.51 98.4"/><polygon class="cls-72" points="71.98 98.48 71.93 114.79 70.53 114.66 70.58 98.35 71.98 98.48"/><polygon class="cls-20" points="68.61 98.38 68.56 114.69 68.12 114.9 68.17 98.6 68.61 98.38"/><polygon class="cls-54" points="63.44 98.4 63.39 114.7 62.73 114.9 62.78 98.59 63.44 98.4"/><polygon class="cls-79" points="68.17 98.6 68.12 114.9 66.62 115.06 66.67 98.76 68.17 98.6"/><polygon class="cls-20" points="62.78 98.59 62.73 114.9 62.06 115.22 62.1 98.92 62.78 98.59"/><polygon class="cls-25" points="62.1 98.92 62.06 115.22 61.48 115.59 61.53 99.29 62.1 98.92"/><polygon class="cls-53" points="66.67 98.76 66.62 115.06 65.89 115.71 65.93 99.4 66.67 98.76"/><polygon class="cls-91" points="65.93 99.4 65.89 115.71 63.39 114.7 63.44 98.4 65.93 99.4"/><polygon class="cls-2" points="61.89 100.83 61.85 117.13 57.65 114.33 57.7 98.03 61.89 100.83"/><path class="cls-92" d="M76.89,96.53l-.94.86-1.4.66-1,.35h-1l-.53.08-1.4-.13-2,0-.44.22-1.5.16-.74.64-2.49-1-.66.2-.67.32-.58.37.68,1,.64.42-1,.1L57.7,98l-.52-.1-1-.09-.7-.19-2.41-.09-.74-.26-1.54-.16L50,96.56l-2.24-1.27.62-1.45-.16-.27-.67-.67-.86-.49-2.13-1.06-.91-.44-.45-.13-.54-.28-1.86-.57-1.49-.2-1-.14h-.65L36,89.4l-1-.21-.66,0L33.06,89,32,88.8l-1.32-.15-1.1-.21-1.77-.37L27.27,88,25.6,87.6l-1.69-.27L22,86.81l-1.43-.51L19.19,86l-1.49-.49-1-.4-1.49-.46-1.14-.31-1.36-.25-2.38-.47-1.42-.23-.83,0L6,82.88l-.47-1.49L4.16,78.9l2.92-.6L8,77.92l4,1.6,4.2-1.5,1.44-.17,1.15-.28.77-.64,2.59-1.85,1.57-.69,2.15-.79L25.27,73l.45-1.14-.37-.8.56-1,.63-1-1.18-1.55L25,67.23,24.52,67l-2.94-1.7L21.16,65l-2.51-1.45-.42-.23-.42-.24-2.08-1.21-.42-.24-1.66-1-.42-.24-.41-.24L10.75,59l-.42-.24-1.65-1-.42-.24-.41-.23L5,55.7l-.41-.23L2.1,54.05l-.41-.24-.42-.23L.05,52.87l1.29,0L3,52.61l1.56-.08.83.15.46.06,4.57.88,2.22.71,1.07.19.7.33.51.32.85.17.22.49.38,1,.16.33.35.67,1.46.81,2.33,0,.09-.31.4-.39,1.91-.55.6-.55.8-.62.94-.35.58-.32.5-.17.35-.57-.71-.58.82-.83.32-.3.14-.36v-.39L27.25,52l-.37-.47L26.73,51l.34-1L27,49.65,27.22,48l-1.75-2.09-1.25-1-.17-1.34.84-.75.22-.24.31-.2.43-.17,3.45-.66.78-.13,1.4,0,.52,0,.71-.26,1.08-.55.35-.21.46-.07,1,0,.48,0,.39-.16,1.42-.62.59-.06L39.2,39l1-.6.16-.51.16-.26L43,36.23l.24-.41.17-.89-.29-.34L42.67,34l-.85-.81-.73-1.1-.34-.36-.15-.32-.51-.54L39,30.28l.37-.55.79-1.07.51-.57.85-1-.36-.49.13-.83,0-.48.41-.67-.5-.8-1.77-1.57-.52-.5.79-5.15-.46-4.08.2-.58.81-.85.53-.18.87-1.1.66-1.32-.6-.4.69-1.2.72-.61,1.2-.87,1.39-1.13.81-.13L52.41,2,53.8,1,54.61.5,55.5.18,59,0l1.41.42,1.4.41,1.13.34,1.88.56,1.77,1.13,2,.25,1.56.45.89.21,1.24,0L74,4.5l1.55.41.74.15.72.23.59.3.46.32,1,.58,1.24.71.88.5,1.17.67,1.6.91.24.27,1.58.73.7,1,1.51.59-.19.34-1.34.33-1.19.14-1.15.14L82.91,13l-.74,1.24-.06.65.35.42.5.7.36.73.13.63.16.81.42.4.79.45,1,.59.57.25,1-.22,3.29.56.8.09,1.15-.24,1-.28.92-.26.53-.2.74-.42,1-.55.64-.37.6-.34L97,17.16l-.61-.34-.57-.46L95.28,16l-.55-.45.22-.37,1.14-.39.76-.35.43-.17.75-.46.83-.52.9-.55,1-.61,1.09.84.35.34.36.54,1.79,2,1.73,1.53,2.31,1.77.43.93,1.33,2.05L110,23.64l0,.56-.37.73-.4,2.31,0,.34.16.73.46,2.1.88,1.52.85,1.53.29.76.51.72.74,1.54.18.26.18.55,1,1.87.09.27.19.68L115,41l.17.65.2.58.06.44,0,1.09-.34.41.07.91L115,49l.31.57.07,1,.27.94-.13.34,0,1.07v.73l0,1.11-.23,1-.09.3-.35.46.3,1.59-.19.82-.33.57v.81l-.32.61-.08,1.18-.36,1-.24.52-.33,1-.38.71-.38.31-.45.73-.41.91-1.1.63-2,.82-1,.5-.49.39-.37.41-.24.42.47,1,.28.95-.51.31-2.17.6-.63.35-.5.39-.28.29.37.41.07.7-.36.68-.46.16-.51.36-.87.31-.43.08-1.52.47-1,.19-1.28.62-1.36.54-1.45.52-1.11,1L91.41,82l-1.53.69-2,.57-.53.72-1,.76-.7.58-.28,1.41.25,1.33L84,89l-1.26,1.17-2,.74-1,.46-.64.69-.66.83-.8.62-.06,1Zm20.6-49.26.23-.05-.15-.09-.14-.06L97.3,47l-.12-.12,0-.06,0-.06v0l0-.06,0-.07,0,0-.25-.27,0-.05-.1,0-.21,0-.08,0,0-.08.12-.59,0-.1-.12-.13-.19-.09h-.14l-.14,0-.18,0-.14-.09V45l.06-.13.07-.1.17-.12,0-.06v0l0-.12,0-.06v-.12l-.1-.19,0-.1v-.14l.14-.11.37-.16.1-.13.12-.26.08-.08.12-.05.45-.12.22-.13.37-.48.34-.31.25-.34.26-.74.09-.25.21-.49,0-.07.12-.13,0-.06,0-.06-.1,0-.21,0-.13-.06-.06,0-.07,0h-.15l-.24,0L98,39.47l-.17-.14-.16-.1L97.5,39l-.13-.17-.09-.17,0-.2.35-.39,0-.1-.12-.07-.11-.07,0-.11h-.21L97,37.64l-.19-.11-.11-.13v-.16l.1-.16.14-.14.1-.15,0-.08,0-.07L97,36.57l-.11,0-.11-.08,0-.18-.09-.07-.25,0h-.07l0,0-.12-.08L95.86,36l-.44,0-.34-.11-.17-.05h-.55l-.47-.23-.28.07-.28.14-.28.09-1.13,0-.33.08-.18.06-.16,0-.13,0L91,35.88h-.14l-.21,0-.19.07-.1.06H89.6l-.74-.12H88.5l-.16,0-.15,0-.25.1h-.1l-.55-.1H87.1l-.3.17-.17,0L86.27,36l-.18-.06-.19,0h-.41L85.4,36l-.12.36-.09.1-.87.57-.08.12v.14l.14.29v.14l-.09.1-.13.1L84,38l-.2,0-.07.06-.33.23-.08,0,0,.09,0,.12.09.26,0,0,0,.35.09.34,0,.05.06,0v.08l-.17.1-.12,0h-.29l-.15.06,0,.09L83,40l.07.1,0,.1-.09.15-.81.41.18,0,0,.08-.06.08v.07l.11.06.05,0,.11.1v.35l0,.07-.08.08.1,0h.3l-.07.08-.12,0v0l.17.07.18.27.09.49,0,0,0,0,0,.07L83,43l.07,0,.21.07.11,0,0,.07,0,0-.18.21,0,.11,0,0,.17.11,0,0,0,.09,0,.06,0,0V44l0,0h.15l.08,0,.09.06,0,0v.05l0,.33,0,.11.11.1-.16.12.06.1,0,.06,0,.07-.08.25-.08.11-.15.14-.05.1,0,.06-.17.12-.11.15v.29l-.09,0h-.19l.07.14v.06l-.15,0-.07,0,0,.08.13.07L83,47h.25l.14,0h.16L84,47l.17,0,1.85.44.62.14.28,0,.59,0,.24,0,.46.16.15,0,.21,0,.08,0,.07-.06.14-.08.13,0h.11l.07,0v.11l.21.29.24.12.56.16.1.07.09,0,.17,0,.08,0,.12-.14.11-.06H91l.24.08.19,0,.19,0L92,48.1l.11,0,.09,0h.34l.39,0,.09,0,.07,0,.08,0h.11l.71-.05.77,0,.33,0,.3-.1.31-.14.06,0,.06-.11,0,0,.1,0h.32l.2,0,.18-.06.85-.41"/><polygon class="cls-65" points="62.85 100.73 62.81 117.03 61.85 117.13 61.89 100.83 62.85 100.73"/></g></g></g></svg>