<svg xmlns="http://www.w3.org/2000/svg" viewBox="0 0 109.57 66.35"><defs><style>.cls-1{isolation:isolate;}.cls-2{fill:#5f1717;}.cls-3{fill:#611818;}.cls-4{fill:#882121;}.cls-5{fill:#581616;}.cls-6{fill:#501414;}.cls-7{fill:#571515;}.cls-8{fill:#651919;}.cls-9{fill:#721c1c;}.cls-10{fill:#481212;}.cls-11{fill:#a22828;}.cls-12{fill:#a52828;}.cls-13{fill:#7d1f1f;}.cls-14{fill:#932424;}.cls-15{fill:#7c1e1e;}.cls-16{fill:#a92929;}.cls-17{fill:#892222;}.cls-18{fill:#a72929;}.cls-19{fill:#812020;}.cls-20{fill:#a82929;}.cls-21{fill:#a62929;}.cls-22{fill:#791e1e;}.cls-23{fill:#852121;}.cls-24{fill:#7a1e1e;}.cls-25{fill:#7b1e1e;}.cls-26{fill:#862121;}.cls-27{fill:#952424;}.cls-28{fill:#952525;}.cls-29{fill:#541515;}.cls-30{fill:#962525;}.cls-31{fill:#8b2222;}.cls-32{fill:#8a2222;}.cls-33{fill:#641818;}.cls-34{fill:#671919;}.cls-35{fill:#631818;}.cls-36{fill:#822020;}.cls-37{fill:#9a2626;}.cls-38{fill:#902323;}.cls-39{fill:#9e2727;}.cls-40{fill:#842020;}.cls-41{fill:#6c1a1a;}.cls-42{fill:#8e2323;}.cls-43{fill:#9f2727;}.cls-44{fill:#4a1212;}.cls-45{fill:#832020;}.cls-46{fill:#711c1c;}.cls-47{fill:#9b2626;}.cls-48{fill:#6f1b1b;}.cls-49{fill:#5c1717;}.cls-50{fill:#9d2626;}.cls-51{fill:#541414;}.cls-52{fill:#a52929;}.cls-53{fill:#7f1f1f;}.cls-54{fill:#7e1f1f;}.cls-55{fill:#8f2323;}.cls-56{fill:#6b1a1a;}.cls-57{fill:#4e1313;}.cls-58{fill:#a32828;}.cls-59{fill:#a02727;}.cls-60{fill:#a42828;}.cls-61{fill:#6d1b1b;}.cls-62{fill:#4d1313;}.cls-63{fill:#761d1d;}.cls-64{fill:#741c1c;}.cls-65{fill:#942424;}.cls-66{fill:#8d2222;}.cls-67{fill:#912424;}.cls-68{fill:#4b1212;}.cls-69{fill:#a12828;}.cls-70{fill:#972525;}.cls-71{fill:#8d2323;}.cls-72{fill:#731c1c;}.cls-73{fill:#892121;}.cls-74{fill:#992626;}.cls-75{fill:#8c2222;}.cls-76{fill:#5b1616;}.cls-77{fill:#c83131;}.cls-78{fill:#9c2626;}</style></defs><title>S. Sudan</title><g id="Layer_2" data-name="Layer 2"><g id="Layer_1-2" data-name="Layer 1"><g class="cls-1"><polygon class="cls-2" points="38.53 2.32 38.49 18.62 38.13 18.47 38.18 2.16 38.53 2.32"/><polygon class="cls-3" points="39.19 2.59 39.14 18.89 38.49 18.62 38.53 2.32 39.19 2.59"/><polygon class="cls-4" points="38.8 5.37 38.76 21.67 34.77 21.46 34.81 5.15 38.8 5.37"/><polygon class="cls-5" points="39.53 5.75 39.49 22.06 38.76 21.67 38.8 5.37 39.53 5.75"/><polygon class="cls-6" points="40.53 6.44 40.48 22.74 39.49 22.06 39.53 5.75 40.53 6.44"/><polygon class="cls-7" points="41.26 6.83 41.21 23.13 40.48 22.74 40.53 6.44 41.26 6.83"/><polygon class="cls-8" points="41.81 7.03 41.77 23.34 41.21 23.13 41.26 6.83 41.81 7.03"/><polygon class="cls-9" points="43.32 7.39 43.27 23.7 41.77 23.34 41.81 7.03 43.32 7.39"/><polygon class="cls-10" points="43.42 7.58 43.37 23.88 43.27 23.7 43.32 7.39 43.42 7.58"/><polygon class="cls-10" points="43.67 11.94 43.63 28.25 42.96 27.36 43.01 11.05 43.67 11.94"/><polygon class="cls-11" points="71.2 11.69 71.16 28 70.64 28.43 70.68 12.13 71.2 11.69"/><polygon class="cls-12" points="70.68 12.13 70.64 28.43 70.43 28.58 70.48 12.28 70.68 12.13"/><polygon class="cls-10" points="43.91 12.55 43.87 28.86 43.63 28.25 43.67 11.94 43.91 12.55"/><polygon class="cls-13" points="70.48 12.28 70.43 28.58 70.24 29.11 70.28 12.81 70.48 12.28"/><polygon class="cls-10" points="43.91 12.77 43.87 29.07 43.87 28.86 43.91 12.55 43.91 12.77"/><polygon class="cls-14" points="69.16 12.96 69.11 29.26 68.74 29.28 68.78 12.98 69.16 12.96"/><polygon class="cls-15" points="69.52 13.02 69.48 29.32 69.11 29.26 69.16 12.96 69.52 13.02"/><polygon class="cls-16" points="70.28 12.81 70.24 29.11 69.82 29.33 69.87 13.03 70.28 12.81"/><polygon class="cls-17" points="69.87 13.03 69.82 29.33 69.48 29.32 69.52 13.02 69.87 13.03"/><polygon class="cls-10" points="44.09 13.71 44.04 30.02 43.87 29.07 43.91 12.77 44.09 13.71"/><polygon class="cls-18" points="68.78 12.98 68.74 29.28 67.43 30.12 67.48 13.82 68.78 12.98"/><polygon class="cls-16" points="67.48 13.82 67.43 30.12 66.31 30.7 66.36 14.4 67.48 13.82"/><polygon class="cls-19" points="66.36 14.4 66.31 30.7 66.19 30.99 66.24 14.69 66.36 14.4"/><polygon class="cls-10" points="44.09 15.36 44.04 31.66 44.04 30.02 44.09 13.71 44.09 15.36"/><polygon class="cls-20" points="109.56 18.9 109.52 35.21 109.09 35.45 109.14 19.15 109.56 18.9"/><polygon class="cls-4" points="103.8 19.3 103.75 35.61 103.42 35.59 103.47 19.29 103.8 19.3"/><polygon class="cls-16" points="108.24 19.22 108.19 35.53 107.91 35.67 107.96 19.36 108.24 19.22"/><polygon class="cls-21" points="105.36 19.16 105.31 35.46 104.67 35.66 104.72 19.36 105.36 19.16"/><polygon class="cls-20" points="109.14 19.15 109.09 35.45 108.6 35.74 108.64 19.44 109.14 19.15"/><polygon class="cls-5" points="108.64 19.44 108.6 35.74 108.19 35.53 108.24 19.22 108.64 19.44"/><polygon class="cls-22" points="107.96 19.36 107.91 35.67 107.86 35.85 107.9 19.54 107.96 19.36"/><polygon class="cls-10" points="104.06 19.74 104.01 36.05 103.75 35.61 103.8 19.3 104.06 19.74"/><polygon class="cls-20" points="104.72 19.36 104.67 35.66 104.01 36.05 104.06 19.74 104.72 19.36"/><polygon class="cls-23" points="103.47 19.29 103.42 35.59 103.2 36.05 103.24 19.75 103.47 19.29"/><polygon class="cls-10" points="105.87 19.82 105.82 36.12 105.31 35.46 105.36 19.16 105.87 19.82"/><polygon class="cls-24" points="106.62 19.94 106.57 36.24 105.82 36.12 105.87 19.82 106.62 19.94"/><polygon class="cls-25" points="107.52 20.09 107.48 36.39 106.57 36.24 106.62 19.94 107.52 20.09"/><polygon class="cls-20" points="108.14 19.73 108.1 36.03 107.48 36.39 107.52 20.09 108.14 19.73"/><polygon class="cls-26" points="103.24 19.75 103.2 36.05 102.99 36.47 103.04 20.17 103.24 19.75"/><polygon class="cls-25" points="103.04 20.17 102.99 36.47 102.65 36.41 102.7 20.11 103.04 20.17"/><polygon class="cls-27" points="102.7 20.11 102.65 36.41 102.37 36.78 102.42 20.48 102.7 20.11"/><polygon class="cls-28" points="102.42 20.48 102.37 36.78 102.03 37.22 102.07 20.91 102.42 20.48"/><polygon class="cls-27" points="102.07 20.91 102.03 37.22 101.65 37.7 101.7 21.39 102.07 20.91"/><polygon class="cls-27" points="101.7 21.39 101.65 37.7 101.32 38.13 101.37 21.83 101.7 21.39"/><polygon class="cls-27" points="101.37 21.83 101.32 38.13 101 38.53 101.05 22.23 101.37 21.83"/><polygon class="cls-28" points="101.05 22.23 101 38.53 100.67 38.96 100.72 22.66 101.05 22.23"/><polygon class="cls-29" points="32.54 22.75 32.49 39.06 31.54 38.49 31.59 22.19 32.54 22.75"/><polygon class="cls-30" points="100.72 22.66 100.67 38.96 100.26 39.47 100.3 23.17 100.72 22.66"/><polygon class="cls-10" points="32.72 23.22 32.67 39.52 32.49 39.06 32.54 22.75 32.72 23.22"/><polygon class="cls-31" points="100.3 23.17 100.26 39.47 100.03 39.86 100.08 23.56 100.3 23.17"/><polygon class="cls-32" points="100.08 23.56 100.03 39.86 99.8 40.26 99.85 23.96 100.08 23.56"/><polygon class="cls-4" points="99.85 23.96 99.8 40.26 99.59 40.66 99.64 24.36 99.85 23.96"/><polygon class="cls-17" points="99.64 24.36 99.59 40.66 99.34 41.12 99.38 24.82 99.64 24.36"/><polygon class="cls-33" points="99.38 24.82 99.34 41.12 99.33 41.9 99.38 25.59 99.38 24.82"/><polygon class="cls-10" points="30.61 27.66 30.57 43.97 30.44 43.73 30.49 27.43 30.61 27.66"/><polygon class="cls-29" points="30.89 27.83 30.85 44.13 30.57 43.97 30.61 27.66 30.89 27.83"/><polygon class="cls-34" points="31.4 28 31.35 44.31 30.85 44.13 30.89 27.83 31.4 28"/><polygon class="cls-33" points="99.37 27.9 99.32 44.21 99.32 44.83 99.37 28.53 99.37 27.9"/><polygon class="cls-35" points="99.38 30.02 99.33 46.32 99.33 47.05 99.37 30.75 99.38 30.02"/><polygon class="cls-36" points="99.38 31.32 99.33 47.62 99.22 47.88 99.26 31.58 99.38 31.32"/><polygon class="cls-12" points="99.26 31.58 99.22 47.88 98.96 48.06 99.01 31.76 99.26 31.58"/><polygon class="cls-16" points="99.01 31.76 98.96 48.06 97.85 48.65 97.89 32.35 99.01 31.76"/><polygon class="cls-16" points="97.89 32.35 97.85 48.65 97.21 48.98 97.26 32.68 97.89 32.35"/><polygon class="cls-37" points="97.26 32.68 97.21 48.98 95.24 49.21 95.29 32.9 97.26 32.68"/><polygon class="cls-38" points="95.29 32.9 95.24 49.21 94.88 49.75 94.92 33.45 95.29 32.9"/><polygon class="cls-32" points="94.92 33.45 94.88 49.75 94.62 50.2 94.66 33.9 94.92 33.45"/><polygon class="cls-37" points="94.66 33.9 94.62 50.2 94.24 50.63 94.28 34.32 94.66 33.9"/><polygon class="cls-21" points="94.28 34.32 94.24 50.63 93.28 51.28 93.33 34.98 94.28 34.32"/><polygon class="cls-21" points="93.33 34.98 93.28 51.28 92.16 52.04 92.2 35.74 93.33 34.98"/><polygon class="cls-39" points="92.2 35.74 92.16 52.04 91.94 52.25 91.99 35.94 92.2 35.74"/><polygon class="cls-19" points="91.99 35.94 91.94 52.25 91.47 53.38 91.51 37.08 91.99 35.94"/><polygon class="cls-30" points="91.87 37.35 91.82 53.66 91.46 54.11 91.51 37.81 91.87 37.35"/><polygon class="cls-40" points="89.46 37.95 89.41 54.25 88.01 54.12 88.06 37.82 89.46 37.95"/><polygon class="cls-41" points="90.08 38.13 90.03 54.43 89.41 54.25 89.46 37.95 90.08 38.13"/><polygon class="cls-11" points="91.51 37.81 91.46 54.11 90.03 54.43 90.08 38.13 91.51 37.81"/><polygon class="cls-42" points="88.06 37.82 88.01 54.12 87.53 54.88 87.58 38.58 88.06 37.82"/><polygon class="cls-43" points="87.58 38.58 87.53 54.88 86.88 55.51 86.92 39.21 87.58 38.58"/><polygon class="cls-20" points="86.92 39.21 86.88 55.51 85.38 56.08 85.42 39.77 86.92 39.21"/><polygon class="cls-39" points="85.42 39.77 85.38 56.08 84.53 56.22 84.58 39.92 85.42 39.77"/><polygon class="cls-21" points="84.58 39.92 84.53 56.22 84.19 56.32 84.23 40.02 84.58 39.92"/><polygon class="cls-44" points="1.18 39.87 1.13 56.17 0 55.14 0.05 38.83 1.18 39.87"/><polygon class="cls-16" points="84.23 40.02 84.19 56.32 83.88 56.46 83.92 40.16 84.23 40.02"/><polygon class="cls-20" points="83.92 40.16 83.88 56.46 83.57 56.64 83.61 40.34 83.92 40.16"/><polygon class="cls-45" points="83.61 40.34 83.57 56.64 83.39 57.02 83.44 40.72 83.61 40.34"/><polygon class="cls-10" points="1.53 40.56 1.49 56.86 1.13 56.17 1.18 39.87 1.53 40.56"/><polygon class="cls-46" points="83.44 40.72 83.39 57.02 83.35 57.21 83.4 40.91 83.44 40.72"/><polygon class="cls-10" points="1.61 40.91 1.56 57.22 1.49 56.86 1.53 40.56 1.61 40.91"/><polygon class="cls-32" points="83.4 40.91 83.35 57.21 83.13 57.6 83.18 41.3 83.4 40.91"/><polygon class="cls-47" points="82.96 42.49 82.91 58.79 82.41 58.85 82.45 42.55 82.96 42.49"/><polygon class="cls-48" points="82.45 42.55 82.41 58.85 81.87 58.71 81.91 42.41 82.45 42.55"/><polygon class="cls-49" points="83.37 42.68 83.33 58.99 82.91 58.79 82.96 42.49 83.37 42.68"/><polygon class="cls-21" points="79.13 42.57 79.08 58.87 78.04 59.19 78.08 42.88 79.13 42.57"/><polygon class="cls-50" points="78.08 42.88 78.04 59.19 77.19 59.31 77.23 43.01 78.08 42.88"/><polygon class="cls-43" points="68.27 42.94 68.22 59.25 67.69 59.34 67.74 43.04 68.27 42.94"/><polygon class="cls-2" points="80.39 43.11 80.34 59.42 79.08 58.87 79.13 42.57 80.39 43.11"/><polygon class="cls-51" points="3.4 42.93 3.35 59.23 1.39 58.04 1.43 41.73 3.4 42.93"/><polygon class="cls-52" points="77.23 43.01 77.19 59.31 76.59 59.49 76.64 43.18 77.23 43.01"/><polygon class="cls-53" points="70.06 43.17 70.02 59.47 68.22 59.25 68.27 42.94 70.06 43.17"/><polygon class="cls-50" points="81.91 42.41 81.87 58.71 81.08 59.52 81.12 43.21 81.91 42.41"/><polygon class="cls-54" points="81.12 43.21 81.08 59.52 80.34 59.42 80.39 43.11 81.12 43.21"/><polygon class="cls-55" points="75.25 43.33 75.2 59.63 74.03 59.64 74.08 43.34 75.25 43.33"/><polygon class="cls-45" points="74.08 43.34 74.03 59.64 73.18 59.56 73.22 43.25 74.08 43.34"/><polygon class="cls-29" points="70.34 43.34 70.3 59.64 70.02 59.47 70.06 43.17 70.34 43.34"/><polygon class="cls-19" points="76.2 43.43 76.16 59.73 75.2 59.63 75.25 43.33 76.2 43.43"/><polygon class="cls-20" points="76.64 43.18 76.59 59.49 76.16 59.73 76.2 43.43 76.64 43.18"/><polygon class="cls-30" points="73.22 43.25 73.18 59.56 70.95 59.72 71 43.42 73.22 43.25"/><polygon class="cls-28" points="71 43.42 70.95 59.72 70.62 59.74 70.67 43.44 71 43.42"/><polygon class="cls-56" points="70.67 43.44 70.62 59.74 70.3 59.64 70.34 43.34 70.67 43.44"/><polygon class="cls-10" points="3.45 43.43 3.4 59.73 3.35 59.23 3.4 42.93 3.45 43.43"/><polygon class="cls-12" points="67.74 43.04 67.69 59.34 66.69 60.08 66.74 43.78 67.74 43.04"/><polygon class="cls-10" points="3.54 43.81 3.5 60.12 3.4 59.73 3.45 43.43 3.54 43.81"/><polygon class="cls-57" points="4.76 44.71 4.71 61.01 3.5 60.12 3.54 43.81 4.76 44.71"/><polygon class="cls-58" points="67.16 44.85 67.12 61.16 65.84 62.18 65.89 45.88 67.16 44.85"/><polygon class="cls-10" points="5.28 45.75 5.23 62.05 4.71 61.01 4.76 44.71 5.28 45.75"/><polygon class="cls-59" points="65.89 45.88 65.84 62.18 65.34 62.28 65.39 45.97 65.89 45.88"/><polygon class="cls-30" points="65.39 45.97 65.34 62.28 64.58 62.33 64.63 46.03 65.39 45.97"/><polygon class="cls-21" points="64.63 46.03 64.58 62.33 64.17 62.62 64.22 46.32 64.63 46.03"/><polygon class="cls-57" points="5.97 46.27 5.92 62.58 5.23 62.05 5.28 45.75 5.97 46.27"/><polygon class="cls-20" points="64.22 46.32 64.17 62.62 63.71 62.89 63.75 46.58 64.22 46.32"/><polygon class="cls-60" points="63.75 46.58 63.71 62.89 62.57 63.78 62.61 47.48 63.75 46.58"/><polygon class="cls-26" points="62.61 47.48 62.57 63.78 62.35 64.2 62.4 47.9 62.61 47.48"/><polygon class="cls-61" points="18.32 47.83 18.28 64.13 17.47 63.9 17.52 47.6 18.32 47.83"/><polygon class="cls-42" points="13.89 47.9 13.85 64.2 12.57 64.2 12.62 47.9 13.89 47.9"/><polygon class="cls-13" points="33.19 47.97 33.14 64.27 32.39 64.16 32.44 47.86 33.19 47.97"/><polygon class="cls-43" points="28.51 47.88 28.47 64.18 27.95 64.27 28 47.97 28.51 47.88"/><polygon class="cls-60" points="32.44 47.86 32.39 64.16 31.85 64.31 31.9 48 32.44 47.86"/><polygon class="cls-11" points="12.62 47.9 12.57 64.2 12.27 64.27 12.32 47.96 12.62 47.9"/><polygon class="cls-59" points="31.9 48 31.85 64.31 31.51 64.37 31.55 48.07 31.9 48"/><polygon class="cls-19" points="30.4 48.08 30.36 64.38 28.47 64.18 28.51 47.88 30.4 48.08"/><polygon class="cls-26" points="30.87 48.11 30.82 64.42 30.36 64.38 30.4 48.08 30.87 48.11"/><polygon class="cls-27" points="31.55 48.07 31.51 64.37 30.82 64.42 30.87 48.11 31.55 48.07"/><polygon class="cls-22" points="14.9 48.07 14.85 64.38 13.85 64.2 13.89 47.9 14.9 48.07"/><polygon class="cls-60" points="17.52 47.6 17.47 63.9 15.53 64.4 15.57 48.09 17.52 47.6"/><polygon class="cls-32" points="15.57 48.09 15.53 64.4 14.85 64.38 14.9 48.07 15.57 48.09"/><polygon class="cls-39" points="28 47.97 27.95 64.27 27 64.43 27.05 48.13 28 47.97"/><polygon class="cls-10" points="33.28 48.15 33.23 64.45 33.14 64.27 33.19 47.97 33.28 48.15"/><polygon class="cls-16" points="12.32 47.96 12.27 64.27 11.84 64.46 11.88 48.16 12.32 47.96"/><polygon class="cls-37" points="27.05 48.13 27 64.43 26.2 64.52 26.24 48.22 27.05 48.13"/><polygon class="cls-39" points="11.88 48.16 11.84 64.46 11.51 64.52 11.56 48.22 11.88 48.16"/><polygon class="cls-62" points="19.03 48.38 18.99 64.68 18.28 64.13 18.32 47.83 19.03 48.38"/><polygon class="cls-10" points="33.35 48.43 33.3 64.73 33.23 64.45 33.28 48.15 33.35 48.43"/><polygon class="cls-10" points="4.81 48.37 4.76 64.68 4.68 64.17 4.72 47.87 4.81 48.37"/><polygon class="cls-26" points="46.11 48.62 46.06 64.92 43.22 64.72 43.27 48.42 46.11 48.62"/><polygon class="cls-16" points="11.56 48.22 11.51 64.52 10.8 64.84 10.84 48.54 11.56 48.22"/><polygon class="cls-63" points="5.57 48.53 5.53 64.83 4.76 64.68 4.81 48.37 5.57 48.53"/><polygon class="cls-15" points="6.03 48.6 5.98 64.9 5.53 64.83 5.57 48.53 6.03 48.6"/><polygon class="cls-59" points="26.24 48.22 26.2 64.52 23.98 64.95 24.02 48.65 26.24 48.22"/><polygon class="cls-58" points="43.27 48.42 43.22 64.72 41.94 65.02 41.99 48.72 43.27 48.42"/><polygon class="cls-28" points="24.02 48.65 23.98 64.95 23.25 65 23.29 48.7 24.02 48.65"/><polygon class="cls-64" points="62.4 47.9 62.35 64.2 62.13 65.13 62.18 48.83 62.4 47.9"/><polygon class="cls-65" points="41.99 48.72 41.94 65.02 40.35 65.12 40.39 48.81 41.99 48.72"/><polygon class="cls-60" points="10.84 48.54 10.8 64.84 10.4 65.15 10.45 48.85 10.84 48.54"/><polygon class="cls-43" points="40.39 48.81 40.35 65.12 39.34 65.3 39.38 48.99 40.39 48.81"/><polygon class="cls-58" points="23.29 48.7 23.25 65 22.16 65.26 22.21 48.96 23.29 48.7"/><polygon class="cls-2" points="34.82 49.06 34.77 65.37 33.3 64.73 33.35 48.43 34.82 49.06"/><polygon class="cls-66" points="35.39 49.07 35.35 65.37 34.77 65.37 34.82 49.06 35.39 49.07"/><polygon class="cls-21" points="10.45 48.85 10.4 65.15 9.85 65.31 9.9 49.01 10.45 48.85"/><polygon class="cls-67" points="9.9 49.01 9.85 65.31 9.22 65.33 9.27 49.03 9.9 49.01"/><polygon class="cls-59" points="22.21 48.96 22.16 65.26 21.61 65.37 21.65 49.07 22.21 48.96"/><polygon class="cls-64" points="19.43 49.08 19.39 65.38 18.91 65.28 18.95 48.97 19.43 49.08"/><polygon class="cls-55" points="21.65 49.07 21.61 65.37 19.39 65.38 19.43 49.08 21.65 49.07"/><polygon class="cls-21" points="62.18 48.83 62.13 65.13 60.91 65.51 60.96 49.21 62.18 48.83"/><polygon class="cls-12" points="9.27 49.03 9.22 65.33 9.02 65.48 9.06 49.18 9.27 49.03"/><polygon class="cls-18" points="39.38 48.99 39.34 65.3 38.88 65.58 38.93 49.28 39.38 48.99"/><polygon class="cls-18" points="60.96 49.21 60.91 65.51 60.64 65.68 60.69 49.38 60.96 49.21"/><polygon class="cls-68" points="46.98 49.37 46.93 65.68 46.06 64.92 46.11 48.62 46.98 49.37"/><polygon class="cls-69" points="60.69 49.38 60.64 65.68 60.41 65.88 60.46 49.58 60.69 49.38"/><polygon class="cls-18" points="38.93 49.28 38.88 65.58 38.13 65.83 38.17 49.53 38.93 49.28"/><polygon class="cls-2" points="47.47 49.58 47.42 65.89 46.93 65.68 46.98 49.37 47.47 49.58"/><polygon class="cls-70" points="9.06 49.18 9.02 65.48 8.74 65.81 8.79 49.51 9.06 49.18"/><polygon class="cls-10" points="6.2 49.52 6.16 65.82 5.91 65.24 5.95 48.94 6.2 49.52"/><polygon class="cls-16" points="60.46 49.58 60.41 65.88 60.11 66.01 60.16 49.71 60.46 49.58"/><polygon class="cls-71" points="60.16 49.71 60.11 66.01 59.23 66 59.28 49.7 60.16 49.71"/><polygon class="cls-65" points="49.64 49.7 49.59 66 49.25 66.02 49.3 49.72 49.64 49.7"/><polygon class="cls-72" points="48.06 49.72 48.01 66.02 47.42 65.89 47.47 49.58 48.06 49.72"/><polygon class="cls-24" points="48.37 49.77 48.32 66.07 48.01 66.02 48.06 49.72 48.37 49.77"/><polygon class="cls-9" points="50.01 49.79 49.96 66.09 49.59 66 49.64 49.7 50.01 49.79"/><polygon class="cls-26" points="54.87 49.8 54.82 66.1 53.4 66.01 53.44 49.7 54.87 49.8"/><polygon class="cls-11" points="38.17 49.53 38.13 65.83 37.14 66.06 37.18 49.75 38.17 49.53"/><polygon class="cls-35" points="37.18 49.75 37.14 66.06 35.35 65.37 35.39 49.07 37.18 49.75"/><polygon class="cls-73" points="48.67 49.79 48.63 66.09 48.32 66.07 48.37 49.77 48.67 49.79"/><polygon class="cls-74" points="49.3 49.72 49.25 66.02 48.63 66.09 48.67 49.79 49.3 49.72"/><polygon class="cls-17" points="50.59 49.81 50.54 66.11 49.96 66.09 50.01 49.79 50.59 49.81"/><polygon class="cls-10" points="6.35 49.69 6.3 65.99 6.16 65.82 6.2 49.52 6.35 49.69"/><polygon class="cls-43" points="59.28 49.7 59.23 66 58.3 66.18 58.34 49.87 59.28 49.7"/><polygon class="cls-13" points="58.34 49.87 58.3 66.18 57.3 66.03 57.34 49.73 58.34 49.87"/><polygon class="cls-21" points="8.79 49.51 8.74 65.81 7.8 66.11 7.85 49.81 8.79 49.51"/><polygon class="cls-56" points="51.12 49.97 51.07 66.27 50.54 66.11 50.59 49.81 51.12 49.97"/><polygon class="cls-60" points="53.44 49.7 53.4 66.01 52.31 66.29 52.36 49.99 53.44 49.7"/><polygon class="cls-75" points="52.36 49.99 52.31 66.29 51.07 66.27 51.12 49.97 52.36 49.99"/><polygon class="cls-76" points="6.8 49.91 6.76 66.21 6.3 65.99 6.35 49.69 6.8 49.91"/><polygon class="cls-50" points="57.34 49.73 57.3 66.03 55.16 66.36 55.2 50.05 57.34 49.73"/><polygon class="cls-57" points="55.2 50.05 55.16 66.36 54.82 66.1 54.87 49.8 55.2 50.05"/><polygon class="cls-77" points="109.56 18.9 109.14 19.15 108.64 19.44 108.24 19.22 107.96 19.36 107.9 19.54 108.14 19.73 107.52 20.09 106.62 19.94 105.87 19.82 105.36 19.16 104.72 19.36 104.06 19.74 103.8 19.3 103.47 19.29 103.24 19.75 103.04 20.17 102.7 20.11 102.42 20.48 102.07 20.91 101.7 21.39 101.37 21.83 101.05 22.23 100.72 22.66 100.3 23.17 100.08 23.56 99.85 23.96 99.64 24.36 99.38 24.82 99.38 25.59 99.37 26.36 99.37 27.13 99.37 27.9 99.37 28.53 99.37 29.16 99.38 30.02 99.37 30.75 99.38 31.32 99.26 31.58 99.01 31.76 97.89 32.35 97.26 32.68 95.29 32.9 94.92 33.45 94.66 33.9 94.28 34.32 93.33 34.98 92.2 35.74 91.99 35.94 91.51 37.08 91.87 37.35 91.51 37.81 90.08 38.13 89.46 37.95 88.06 37.82 87.58 38.58 86.92 39.21 85.42 39.77 84.58 39.92 84.23 40.02 83.92 40.16 83.61 40.34 83.44 40.72 83.4 40.91 83.18 41.3 83.23 42.43 83.37 42.68 82.96 42.49 82.45 42.55 81.91 42.41 81.12 43.21 80.39 43.11 79.13 42.57 78.08 42.88 77.23 43.01 76.64 43.18 76.2 43.43 75.25 43.33 74.08 43.34 73.22 43.25 71 43.42 70.67 43.44 70.34 43.34 70.06 43.17 68.27 42.94 67.74 43.04 66.74 43.78 67.16 44.85 65.89 45.88 65.39 45.97 64.63 46.03 64.22 46.32 63.75 46.58 62.61 47.48 62.4 47.9 62.18 48.83 60.96 49.21 60.69 49.38 60.46 49.58 60.16 49.71 59.28 49.7 58.34 49.87 57.34 49.73 55.2 50.05 54.87 49.8 53.44 49.7 52.36 49.99 51.12 49.97 50.59 49.81 50.01 49.79 49.64 49.7 49.3 49.72 48.67 49.79 48.37 49.77 48.06 49.72 47.47 49.58 46.98 49.37 46.11 48.62 43.27 48.42 41.99 48.72 40.39 48.81 39.38 48.99 38.93 49.28 38.17 49.53 37.18 49.75 35.39 49.07 34.82 49.06 33.35 48.43 33.28 48.15 33.19 47.97 32.44 47.86 31.9 48 31.55 48.07 30.87 48.11 30.4 48.08 28.51 47.88 28 47.97 27.05 48.13 26.24 48.22 24.02 48.65 23.29 48.7 22.21 48.96 21.65 49.07 19.43 49.08 18.95 48.97 19.03 48.38 18.32 47.83 17.52 47.6 15.57 48.09 14.9 48.07 13.89 47.9 12.62 47.9 12.32 47.96 11.88 48.16 11.56 48.22 10.84 48.54 10.45 48.85 9.9 49.01 9.27 49.03 9.06 49.18 8.79 49.51 7.85 49.81 7.12 49.92 6.8 49.91 6.35 49.69 6.2 49.52 5.95 48.94 6.03 48.6 5.57 48.53 4.81 48.37 4.72 47.87 4.84 47.7 5.1 47.01 5.75 46.52 5.97 46.27 5.28 45.75 4.76 44.71 3.54 43.81 3.45 43.43 3.4 42.93 1.43 41.73 1.52 41.13 1.61 40.91 1.53 40.56 1.18 39.87 0.05 38.83 2.31 36.98 2.76 36.47 2.98 36.27 3.73 35.76 4.11 35.34 4.86 35.34 6.12 35.95 6.79 35.91 8.45 35.95 9.52 35.78 12.25 35.91 14.96 36.03 15.44 35.97 16.1 35.72 17.84 33.69 19.52 32.67 19.88 32.52 20.82 31.97 21.43 31.7 22.56 31.13 23.18 30.73 25.4 31.02 26.07 31.05 28.73 29.52 31.4 28 30.89 27.83 30.61 27.66 30.49 27.43 30.49 26.94 30.61 26.42 31.01 25.56 31.51 24.93 32.7 23.85 32.72 23.22 32.54 22.75 31.59 22.19 31.63 21.98 31.77 21.64 32.67 20.12 32.78 19.84 35.35 19.52 37.91 19.19 41.25 19.08 42.46 18.25 43.8 17.38 44.08 17 44.09 15.36 44.09 13.71 43.91 12.77 43.91 12.55 43.67 11.94 43.01 11.05 43.19 9.25 43.42 7.58 43.32 7.39 41.81 7.03 41.26 6.83 40.53 6.44 39.53 5.75 38.8 5.37 34.81 5.15 37 3.87 39.19 2.59 38.53 2.32 38.18 2.16 40.84 0 41.35 0.35 42.28 1.32 43.07 1.77 43.88 2.34 47.07 4.18 49.9 5.43 50.19 5.87 52.44 5.46 53.8 5.49 56.42 5.35 59.03 5.2 60.3 5.46 61.13 5.99 62.28 7.05 62.76 7.49 63.23 7.8 63.55 7.96 65.1 7.41 66.86 8.32 68.89 9.39 70.92 10.45 71.2 11.69 70.68 12.13 70.48 12.28 70.28 12.81 69.87 13.03 69.52 13.02 69.16 12.96 68.78 12.98 67.48 13.82 66.36 14.4 66.24 14.69 67.95 16.92 68.85 17.66 70.17 17.28 70.75 17.08 71.93 16.89 72.32 16.43 74.03 15.88 74.42 15.81 75.47 15.77 76.05 15.71 76.69 15.54 78.35 15.55 78.92 15.69 79.54 16.05 80.2 16 80.6 16.03 81.75 16.06 82.81 16.09 84.38 15.71 85.1 15.63 86.16 16.09 86.73 15.86 87.79 15.65 88.64 15.84 88.97 15.96 89.51 16.09 89.94 16.28 90.85 16.43 91.46 16.73 92.27 16.89 92.72 17 94.05 17.24 96.56 17.95 97.27 18.18 97.98 18.17 98.82 18.04 99.28 18.01 100.37 18.45 100.92 17.83 102.26 17.34 103.66 16.8 104.16 16.67 104.34 16.94 104.97 17.19 105.48 17.76 106.89 18.65 107.27 18.81 107.71 18.87 109.56 18.9"/><polygon class="cls-78" points="7.85 49.81 7.8 66.11 7.07 66.22 7.12 49.92 7.85 49.81"/><polygon class="cls-32" points="7.12 49.92 7.07 66.22 6.76 66.21 6.8 49.91 7.12 49.92"/></g></g></g></svg>