<svg xmlns="http://www.w3.org/2000/svg" viewBox="0 0 146.56 119.8"><defs><style>.cls-1{isolation:isolate;}.cls-2{fill:#a52929;}.cls-3{fill:#481212;}.cls-4{fill:#4a1212;}.cls-5{fill:#571515;}.cls-6{fill:#a82929;}.cls-7{fill:#721c1c;}.cls-8{fill:#c83131;}.cls-9{fill:#852020;}.cls-10{fill:#942424;}.cls-11{fill:#932424;}.cls-12{fill:#992626;}.cls-13{fill:#a62929;}.cls-14{fill:#922424;}.cls-15{fill:#a52828;}.cls-16{fill:#551515;}.cls-17{fill:#a72929;}.cls-18{fill:#501414;}.cls-19{fill:#842020;}.cls-20{fill:#491212;}.cls-21{fill:#561515;}.cls-22{fill:#791e1e;}.cls-23{fill:#5e1717;}.cls-24{fill:#882121;}.cls-25{fill:#5c1717;}.cls-26{fill:#691a1a;}.cls-27{fill:#a42828;}.cls-28{fill:#6d1b1b;}.cls-29{fill:#641818;}.cls-30{fill:#9b2626;}.cls-31{fill:#801f1f;}.cls-32{fill:#8b2222;}.cls-33{fill:#812020;}.cls-34{fill:#661919;}.cls-35{fill:#a02727;}.cls-36{fill:#962525;}.cls-37{fill:#872121;}.cls-38{fill:#4d1313;}.cls-39{fill:#982525;}.cls-40{fill:#5d1717;}.cls-41{fill:#761d1d;}.cls-42{fill:#8a2222;}.cls-43{fill:#a92929;}.cls-44{fill:#5f1717;}.cls-45{fill:#832020;}.cls-46{fill:#892222;}.cls-47{fill:#9d2626;}.cls-48{fill:#a12727;}.cls-49{fill:#4c1313;}.cls-50{fill:#862121;}.cls-51{fill:#611818;}.cls-52{fill:#6e1b1b;}.cls-53{fill:#952424;}.cls-54{fill:#a22828;}.cls-55{fill:#9a2626;}.cls-56{fill:#7f1f1f;}.cls-57{fill:#852121;}.cls-58{fill:#511414;}.cls-59{fill:#9f2727;}.cls-60{fill:#541515;}.cls-61{fill:#621818;}.cls-62{fill:#5c1616;}.cls-63{fill:#952525;}.cls-64{fill:#731c1c;}.cls-65{fill:#972525;}.cls-66{fill:#4f1313;}.cls-67{fill:#4b1212;}.cls-68{fill:#8f2323;}.cls-69{fill:#992525;}.cls-70{fill:#7e1f1f;}.cls-71{fill:#751d1d;}.cls-72{fill:#581616;}.cls-73{fill:#531414;}.cls-74{fill:#7d1f1f;}.cls-75{fill:#671919;}</style></defs><title>Sudan</title><g id="Layer_2" data-name="Layer 2"><g id="Layer_1-2" data-name="Layer 1"><g class="cls-1"><polygon class="cls-2" points="88.11 2.16 88.07 18.46 87.48 18.88 87.53 2.58 88.11 2.16"/><polygon class="cls-3" points="89.46 3.35 89.41 19.66 89.36 19.52 89.4 3.21 89.46 3.35"/><polygon class="cls-4" points="89.62 3.51 89.58 19.81 89.41 19.66 89.46 3.35 89.62 3.51"/><polygon class="cls-5" points="89.85 3.63 89.8 19.93 89.58 19.81 89.62 3.51 89.85 3.63"/><polygon class="cls-6" points="90.14 3.65 90.1 19.95 90.03 19.99 90.08 3.69 90.14 3.65"/><polygon class="cls-7" points="90.08 3.69 90.03 19.99 89.8 19.93 89.85 3.63 90.08 3.69"/><polygon class="cls-8" points="89.62 3.51 89.46 3.35 89.4 3.21 89.53 3.2 89.56 3.2 89.68 3.24 90.08 3.55 90.14 3.65 90.08 3.69 89.85 3.63 89.62 3.51"/><polygon class="cls-9" points="118.97 12.02 118.92 28.32 118.72 28.74 118.77 12.44 118.97 12.02"/><polygon class="cls-10" points="118.77 12.44 118.72 28.74 117.41 30.49 117.45 14.18 118.77 12.44"/><polygon class="cls-11" points="117.51 14.46 117.47 30.76 116.69 31.81 116.74 15.5 117.51 14.46"/><polygon class="cls-12" points="116.74 15.5 116.69 31.81 115.73 32.89 115.78 16.59 116.74 15.5"/><polygon class="cls-13" points="117.09 18.14 117.04 34.44 116.25 34.7 116.3 18.39 117.09 18.14"/><polygon class="cls-14" points="116.3 18.39 116.25 34.7 115.95 35.11 116 18.81 116.3 18.39"/><polygon class="cls-13" points="116 18.81 115.95 35.11 115.35 35.53 115.4 19.23 116 18.81"/><polygon class="cls-3" points="41.2 21 41.16 37.31 40.81 36.74 40.85 20.44 41.2 21"/><polygon class="cls-3" points="41.51 21.66 41.46 37.97 41.16 37.31 41.2 21 41.51 21.66"/><polygon class="cls-15" points="138.12 40.09 138.08 56.39 135.78 58.09 135.83 41.79 138.12 40.09"/><polygon class="cls-16" points="0.93 46.26 0.89 62.57 0 62.05 0.05 45.75 0.93 46.26"/><polygon class="cls-16" points="1.82 46.77 1.77 63.08 0.89 62.57 0.93 46.26 1.82 46.77"/><polygon class="cls-16" points="4.48 48.31 4.44 64.61 1.77 63.08 1.82 46.77 4.48 48.31"/><polygon class="cls-16" points="5.37 48.82 5.33 65.13 4.44 64.61 4.48 48.31 5.37 48.82"/><polygon class="cls-16" points="6.25 49.33 6.21 65.64 5.33 65.13 5.37 48.82 6.25 49.33"/><polygon class="cls-16" points="8.02 50.35 7.97 66.66 6.21 65.64 6.25 49.33 8.02 50.35"/><polygon class="cls-16" points="8.9 50.86 8.86 67.17 7.97 66.66 8.02 50.35 8.9 50.86"/><polygon class="cls-16" points="10.66 51.88 10.62 68.18 8.86 67.17 8.9 50.86 10.66 51.88"/><polygon class="cls-16" points="12.01 52.65 11.96 68.96 10.62 68.18 10.66 51.88 12.01 52.65"/><polygon class="cls-17" points="142.85 52.35 142.81 68.65 140.37 69.48 140.41 53.18 142.85 52.35"/><polygon class="cls-16" points="12.68 53.04 12.63 69.34 11.96 68.96 12.01 52.65 12.68 53.04"/><polygon class="cls-18" points="122.82 53.63 122.77 69.94 122.26 69.59 122.31 53.29 122.82 53.63"/><polygon class="cls-16" points="13.35 53.43 13.3 69.73 12.63 69.34 12.68 53.04 13.35 53.43"/><polygon class="cls-19" points="140.41 53.18 140.37 69.48 139.94 70.38 139.99 54.08 140.41 53.18"/><polygon class="cls-18" points="14.14 53.98 14.1 70.29 13.3 69.73 13.35 53.43 14.14 53.98"/><polygon class="cls-20" points="123.75 54.61 123.7 70.91 122.77 69.94 122.82 53.63 123.75 54.61"/><polygon class="cls-21" points="124.54 55.06 124.49 71.36 123.7 70.91 123.75 54.61 124.54 55.06"/><polygon class="cls-6" points="122.31 53.29 122.26 69.59 119.06 71.41 119.11 55.1 122.31 53.29"/><polygon class="cls-20" points="125.7 56.22 125.66 72.52 124.49 71.36 124.54 55.06 125.7 56.22"/><polygon class="cls-22" points="119.11 55.1 119.06 71.41 118.42 73.47 118.47 57.16 119.11 55.1"/><polygon class="cls-23" points="128.54 57.47 128.49 73.78 125.66 72.52 125.7 56.22 128.54 57.47"/><polygon class="cls-6" points="118.47 57.16 118.42 73.47 116.23 74.74 116.28 58.44 118.47 57.16"/><polygon class="cls-10" points="140.72 58.49 140.67 74.8 137.84 74.94 137.88 58.64 140.72 58.49"/><polygon class="cls-10" points="137.88 58.64 137.84 74.94 135.22 75.08 135.27 58.78 137.88 58.64"/><polygon class="cls-24" points="135.27 58.78 135.22 75.08 134.06 75.02 134.1 58.72 135.27 58.78"/><polygon class="cls-25" points="131.52 58.87 131.48 75.17 128.49 73.78 128.54 57.47 131.52 58.87"/><polygon class="cls-26" points="142.22 58.98 142.17 75.28 140.67 74.8 140.72 58.49 142.22 58.98"/><polygon class="cls-27" points="134.1 58.72 134.06 75.02 131.86 75.58 131.91 59.28 134.1 58.72"/><polygon class="cls-20" points="131.91 59.28 131.86 75.58 131.48 75.17 131.52 58.87 131.91 59.28"/><polygon class="cls-21" points="143.32 59.6 143.27 75.9 142.17 75.28 142.22 58.98 143.32 59.6"/><polygon class="cls-16" points="11.13 59.8 11.08 76.11 7.57 74.08 7.62 57.78 11.13 59.8"/><polygon class="cls-3" points="143.75 60.34 143.7 76.64 143.27 75.9 143.32 59.6 143.75 60.34"/><polygon class="cls-4" points="144.22 60.77 144.18 77.08 143.7 76.64 143.75 60.34 144.22 60.77"/><polygon class="cls-16" points="12.76 60.74 12.71 77.05 11.08 76.11 11.13 59.8 12.76 60.74"/><polygon class="cls-6" points="146.56 60.69 146.52 77 145.4 77.65 145.44 61.35 146.56 60.69"/><polygon class="cls-25" points="145.44 61.35 145.4 77.65 144.18 77.08 144.22 60.77 145.44 61.35"/><polygon class="cls-16" points="14.38 61.69 14.34 77.99 12.71 77.05 12.76 60.74 14.38 61.69"/><polygon class="cls-16" points="16.01 62.62 15.96 78.92 14.34 77.99 14.38 61.69 16.01 62.62"/><polygon class="cls-16" points="17.63 63.55 17.59 79.86 15.96 78.92 16.01 62.62 17.63 63.55"/><polygon class="cls-28" points="124.65 62.54 124.6 78.84 124.38 80.52 124.42 64.22 124.65 62.54"/><polygon class="cls-16" points="19.26 64.49 19.21 80.79 17.59 79.86 17.63 63.55 19.26 64.49"/><polygon class="cls-16" points="20.88 65.43 20.83 81.73 19.21 80.79 19.26 64.49 20.88 65.43"/><polygon class="cls-16" points="22.49 66.36 22.45 82.66 20.83 81.73 20.88 65.43 22.49 66.36"/><polygon class="cls-16" points="24.1 67.29 24.06 83.59 22.45 82.66 22.49 66.36 24.1 67.29"/><polygon class="cls-16" points="25.72 68.22 25.68 84.52 24.06 83.59 24.1 67.29 25.72 68.22"/><polygon class="cls-16" points="27.33 69.15 27.29 85.45 25.68 84.52 25.72 68.22 27.33 69.15"/><polygon class="cls-29" points="125.55 68.64 125.5 84.95 125.49 86.59 125.54 70.28 125.55 68.64"/><polygon class="cls-16" points="28.94 70.08 28.89 86.38 27.29 85.45 27.33 69.15 28.94 70.08"/><polygon class="cls-14" points="125.54 70.28 125.49 86.59 125.22 86.97 125.27 70.67 125.54 70.28"/><polygon class="cls-16" points="30.54 71 30.5 87.3 28.89 86.38 28.94 70.08 30.54 71"/><polygon class="cls-17" points="125.27 70.67 125.22 86.97 123.88 87.84 123.92 71.53 125.27 70.67"/><polygon class="cls-6" points="123.92 71.53 123.88 87.84 123.16 88.29 123.2 71.98 123.92 71.53"/><polygon class="cls-16" points="32.15 71.93 32.1 88.23 30.5 87.3 30.54 71 32.15 71.93"/><polygon class="cls-30" points="123.2 71.98 123.16 88.29 119.33 88.78 119.38 72.47 123.2 71.98"/><polygon class="cls-30" points="119.38 72.47 119.33 88.78 116.77 89.11 116.82 72.8 119.38 72.47"/><polygon class="cls-16" points="33.76 72.85 33.71 89.15 32.1 88.23 32.15 71.93 33.76 72.85"/><polygon class="cls-30" points="116.82 72.8 116.77 89.11 114.2 89.43 114.25 73.13 116.82 72.8"/><polygon class="cls-31" points="114.25 73.13 114.2 89.43 114.09 89.71 114.14 73.41 114.25 73.13"/><polygon class="cls-16" points="35.36 73.77 35.31 90.08 33.71 89.15 33.76 72.85 35.36 73.77"/><polygon class="cls-16" points="36.95 74.69 36.91 91 35.31 90.08 35.36 73.77 36.95 74.69"/><polygon class="cls-32" points="114.14 73.41 114.09 89.71 113.19 91.23 113.23 74.93 114.14 73.41"/><polygon class="cls-33" points="113.23 74.93 113.19 91.23 113.04 91.58 113.09 75.27 113.23 74.93"/><polygon class="cls-3" points="37.3 75.19 37.26 91.49 36.91 91 36.95 74.69 37.3 75.19"/><polygon class="cls-34" points="114.18 76.51 114.14 92.81 114.12 93.44 114.16 77.14 114.18 76.51"/><polygon class="cls-35" points="114.16 77.14 114.12 93.44 112.93 94.53 112.98 78.22 114.16 77.14"/><polygon class="cls-36" points="112.98 78.22 112.93 94.53 112.43 95.15 112.47 78.85 112.98 78.22"/><polygon class="cls-3" points="31.63 79.13 31.58 95.43 31.49 94.89 31.54 78.58 31.63 79.13"/><polygon class="cls-37" points="112.47 78.85 112.43 95.15 112.05 95.87 112.09 79.57 112.47 78.85"/><polygon class="cls-7" points="112.09 79.57 112.05 95.87 111.91 96.53 111.96 80.23 112.09 79.57"/><polygon class="cls-18" points="33.32 80.3 33.27 96.61 31.58 95.43 31.63 79.13 33.32 80.3"/><polygon class="cls-29" points="111.96 80.23 111.91 96.53 111.91 97.02 111.95 80.72 111.96 80.23"/><polygon class="cls-38" points="34.14 80.93 34.09 97.23 33.27 96.61 33.32 80.3 34.14 80.93"/><polygon class="cls-3" points="34.17 81.94 34.12 98.24 34.09 97.23 34.14 80.93 34.17 81.94"/><polygon class="cls-39" points="111.95 80.72 111.91 97.02 110.15 99.11 110.2 82.81 111.95 80.72"/><polygon class="cls-3" points="34.74 83.64 34.69 99.94 34.12 98.24 34.17 81.94 34.74 83.64"/><polygon class="cls-40" points="35.77 84.11 35.72 100.41 34.69 99.94 34.74 83.64 35.77 84.11"/><polygon class="cls-41" points="106.86 84.31 106.82 100.61 104.73 100.19 104.78 83.88 106.86 84.31"/><polygon class="cls-6" points="110.2 82.81 110.15 99.11 107.49 100.64 107.54 84.33 110.2 82.81"/><polygon class="cls-42" points="107.54 84.33 107.49 100.64 106.82 100.61 106.86 84.31 107.54 84.33"/><polygon class="cls-13" points="104.78 83.88 104.73 100.19 103.98 100.72 104.03 84.41 104.78 83.88"/><polygon class="cls-43" points="104.03 84.41 103.98 100.72 103.01 101.14 103.06 84.84 104.03 84.41"/><polygon class="cls-43" points="103.06 84.84 103.01 101.14 102.24 101.56 102.28 85.26 103.06 84.84"/><polygon class="cls-6" points="102.28 85.26 102.24 101.56 101.3 102.11 101.34 85.81 102.28 85.26"/><polygon class="cls-21" points="35.62 85.87 35.57 102.17 34.61 101.63 34.65 85.33 35.62 85.87"/><polygon class="cls-44" points="37.4 86.65 37.35 102.95 35.57 102.17 35.62 85.87 37.4 86.65"/><polygon class="cls-6" points="101.34 85.81 101.3 102.11 99.26 103.28 99.31 86.97 101.34 85.81"/><polygon class="cls-21" points="38.39 87.22 38.35 103.52 37.35 102.95 37.4 86.65 38.39 87.22"/><polygon class="cls-45" points="86.51 88.66 86.46 104.97 85.63 104.89 85.68 88.58 86.51 88.66"/><polygon class="cls-39" points="99.31 86.97 99.26 103.28 97.59 105.26 97.63 88.96 99.31 86.97"/><polygon class="cls-22" points="88.86 89.09 88.82 105.39 86.46 104.97 86.51 88.66 88.86 89.09"/><polygon class="cls-46" points="93.71 89.19 93.67 105.5 90.94 105.37 90.99 89.07 93.71 89.19"/><polygon class="cls-43" points="97.63 88.96 97.59 105.26 97.1 105.51 97.15 89.21 97.63 88.96"/><polygon class="cls-27" points="90.99 89.07 90.94 105.37 90.24 105.56 90.29 89.25 90.99 89.07"/><polygon class="cls-33" points="90.29 89.25 90.24 105.56 88.82 105.39 88.86 89.09 90.29 89.25"/><polygon class="cls-47" points="97.15 89.21 97.1 105.51 96.38 105.62 96.42 89.32 97.15 89.21"/><polygon class="cls-46" points="96.42 89.32 96.38 105.62 93.67 105.5 93.71 89.19 96.42 89.32"/><polygon class="cls-48" points="85.68 88.58 85.63 104.89 83.86 106.45 83.91 90.14 85.68 88.58"/><polygon class="cls-49" points="39.35 90.27 39.31 106.57 37.7 105.28 37.75 88.97 39.35 90.27"/><polygon class="cls-50" points="40.52 90.35 40.48 106.65 39.31 106.57 39.35 90.27 40.52 90.35"/><polygon class="cls-51" points="41.33 90.68 41.29 106.98 40.48 106.65 40.52 90.35 41.33 90.68"/><polygon class="cls-52" points="42.31 90.94 42.27 107.25 41.29 106.98 41.33 90.68 42.31 90.94"/><polygon class="cls-3" points="42.39 91.26 42.34 107.56 42.27 107.25 42.31 90.94 42.39 91.26"/><polygon class="cls-3" points="42.4 92.09 42.35 108.4 42.34 107.56 42.39 91.26 42.4 92.09"/><polygon class="cls-53" points="83.91 90.14 83.86 106.45 81.85 109.03 81.9 92.73 83.91 90.14"/><polygon class="cls-3" points="41.98 93.3 41.94 109.61 41.86 109.34 41.91 93.04 41.98 93.3"/><polygon class="cls-54" points="48.41 93.09 48.36 109.39 47.25 109.65 47.3 93.34 48.41 93.09"/><polygon class="cls-55" points="47.3 93.34 47.25 109.65 45.87 109.81 45.91 93.5 47.3 93.34"/><polygon class="cls-3" points="49.02 93.99 48.98 110.29 48.36 109.39 48.41 93.09 49.02 93.99"/><polygon class="cls-56" points="49.58 94.06 49.53 110.37 48.98 110.29 49.02 93.99 49.58 94.06"/><polygon class="cls-3" points="42.49 94.22 42.44 110.52 41.94 109.61 41.98 93.3 42.49 94.22"/><polygon class="cls-57" points="46.01 93.77 45.96 110.08 45.62 110.78 45.67 94.48 46.01 93.77"/><polygon class="cls-26" points="51.84 94.79 51.8 111.09 49.53 110.37 49.58 94.06 51.84 94.79"/><polygon class="cls-58" points="43.47 94.88 43.42 111.18 42.44 110.52 42.49 94.22 43.47 94.88"/><polygon class="cls-59" points="45.67 94.48 45.62 110.78 43.42 111.18 43.47 94.88 45.67 94.48"/><polygon class="cls-3" points="53.59 94.96 53.54 111.26 53.31 111 53.36 94.69 53.59 94.96"/><polygon class="cls-60" points="52.48 95.17 52.43 111.47 51.8 111.09 51.84 94.79 52.48 95.17"/><polygon class="cls-43" points="53.36 94.69 53.31 111 52.43 111.47 52.48 95.17 53.36 94.69"/><polygon class="cls-61" points="60.29 96.26 60.24 112.56 59.68 112.34 59.72 96.03 60.29 96.26"/><polygon class="cls-49" points="55.3 96.38 55.26 112.68 53.54 111.26 53.59 94.96 55.3 96.38"/><polygon class="cls-43" points="59.72 96.03 59.68 112.34 58.78 112.84 58.82 96.53 59.72 96.03"/><polygon class="cls-62" points="55.66 96.55 55.61 112.85 55.26 112.68 55.3 96.38 55.66 96.55"/><polygon class="cls-63" points="58.82 96.53 58.78 112.84 57.36 112.93 57.4 96.63 58.82 96.53"/><polygon class="cls-64" points="56.11 96.65 56.06 112.95 55.61 112.85 55.66 96.55 56.11 96.65"/><polygon class="cls-45" points="56.6 96.7 56.55 113 56.06 112.95 56.11 96.65 56.6 96.7"/><polygon class="cls-65" points="57.4 96.63 57.36 112.93 56.55 113 56.6 96.7 57.4 96.63"/><polygon class="cls-66" points="61.89 97.4 61.84 113.7 60.24 112.56 60.29 96.26 61.89 97.4"/><polygon class="cls-67" points="62.78 98.2 62.74 114.5 61.84 113.7 61.89 97.4 62.78 98.2"/><polygon class="cls-68" points="68.65 98.31 68.61 114.61 66.23 114.63 66.28 98.33 68.65 98.31"/><polygon class="cls-33" points="65.1 98.45 65.06 114.75 62.74 114.5 62.78 98.2 65.1 98.45"/><polygon class="cls-69" points="66.28 98.33 66.23 114.63 65.06 114.75 65.1 98.45 66.28 98.33"/><polygon class="cls-70" points="71.54 98.7 71.5 115 68.61 114.61 68.65 98.31 71.54 98.7"/><polygon class="cls-70" points="74.43 99.09 74.38 115.4 71.5 115 71.54 98.7 74.43 99.09"/><polygon class="cls-71" points="74.87 99.19 74.82 115.49 74.38 115.4 74.43 99.09 74.87 99.19"/><polygon class="cls-68" points="87.46 99.45 87.41 115.75 87.17 116.11 87.22 99.81 87.46 99.45"/><polygon class="cls-72" points="76.55 100.08 76.51 116.38 74.82 115.49 74.87 99.19 76.55 100.08"/><polygon class="cls-2" points="87.22 99.81 87.17 116.11 86.63 116.5 86.68 100.2 87.22 99.81"/><polygon class="cls-73" points="77.86 100.9 77.82 117.2 76.51 116.38 76.55 100.08 77.86 100.9"/><polygon class="cls-9" points="86.68 100.2 86.63 116.5 86.26 117.29 86.3 100.99 86.68 100.2"/><polygon class="cls-74" points="86.3 100.99 86.26 117.29 86.06 117.85 86.1 101.55 86.3 100.99"/><polygon class="cls-4" points="78.71 101.67 78.67 117.97 77.82 117.2 77.86 100.9 78.71 101.67"/><polygon class="cls-24" points="86.1 101.55 86.06 117.85 85.84 118.26 85.89 101.95 86.1 101.55"/><polygon class="cls-43" points="85.89 101.95 85.84 118.26 85.03 118.59 85.08 102.29 85.89 101.95"/><polygon class="cls-43" points="85.08 102.29 85.03 118.59 84.03 119.11 84.08 102.81 85.08 102.29"/><polygon class="cls-6" points="84.08 102.81 84.03 119.11 83.52 119.3 83.56 102.99 84.08 102.81"/><polygon class="cls-15" points="80.53 103.06 80.49 119.36 79.95 119.51 80 103.21 80.53 103.06"/><polygon class="cls-75" points="80 103.21 79.95 119.51 78.39 118.98 78.44 102.68 80 103.21"/><polygon class="cls-8" points="85.89 101.95 85.08 102.29 84.08 102.81 83.56 102.99 80.91 103.5 80.53 103.06 80 103.21 78.44 102.68 78.71 101.67 77.86 100.9 76.55 100.08 74.87 99.19 74.43 99.09 71.54 98.7 68.65 98.31 66.28 98.33 65.1 98.45 62.78 98.2 61.89 97.4 60.29 96.26 59.72 96.03 58.82 96.53 57.4 96.63 56.6 96.7 56.11 96.65 55.66 96.55 55.3 96.38 53.59 94.96 53.36 94.69 52.48 95.17 51.84 94.79 49.58 94.06 49.02 93.99 48.41 93.09 47.3 93.34 45.91 93.5 46.01 93.77 45.67 94.48 43.47 94.88 42.49 94.22 41.98 93.3 41.91 93.04 42.4 92.09 42.39 91.26 42.31 90.94 41.33 90.68 40.52 90.35 39.35 90.27 37.75 88.97 38.34 87.62 38.39 87.22 37.4 86.65 35.62 85.87 34.65 85.33 35.77 84.11 34.74 83.64 34.17 81.94 34.14 80.93 33.32 80.3 31.63 79.13 31.54 78.58 33.24 77.64 33.69 77.32 34.23 76.63 34.58 76.32 35.33 75.88 36.27 75.49 37.3 75.19 36.95 74.69 35.36 73.77 33.76 72.85 32.15 71.93 30.54 71 28.94 70.08 27.33 69.15 25.72 68.22 24.1 67.29 22.49 66.36 20.88 65.43 19.26 64.49 17.63 63.55 16.01 62.62 14.38 61.69 12.76 60.74 11.13 59.8 7.62 57.78 8.68 57.16 9.25 56.83 10 56.4 10.88 55.88 11.7 55.4 12.51 54.93 13.48 54.37 14.14 53.98 13.35 53.43 12.68 53.04 12.01 52.65 10.66 51.88 8.9 50.86 8.02 50.35 6.25 49.33 5.37 48.82 4.48 48.31 1.82 46.77 0.93 46.26 0.05 45.75 0.69 45.37 3.27 43.88 3.91 43.51 5.84 42.38 6.49 42.01 7.13 41.63 8.42 40.88 9.06 40.51 10.99 39.39 11.63 39.02 12.29 38.64 14.86 37.15 15.51 36.77 18.73 34.9 19.37 34.53 20.01 34.16 21.3 33.41 21.94 33.03 25.16 31.16 25.81 30.79 26.45 30.41 29.02 28.92 29.67 28.54 31.6 27.42 32.24 27.05 32.88 26.67 35.46 25.18 36.1 24.8 39.32 22.93 39.96 22.56 40.61 22.18 41.51 21.66 41.2 21 40.85 20.44 42.32 20.45 42.74 20.94 43.13 20.71 54.28 14.23 55.68 13.42 61.84 9.84 63.38 8.95 64.92 8.05 69.53 5.37 71.07 4.47 74.15 2.69 75.69 1.79 77.23 0.9 78.77 0 79.99 0.78 81.13 1.26 83.21 1.79 85.4 2.06 86.5 2.05 88.11 2.16 87.53 2.58 88.02 3.32 88.54 3.52 89.54 4.03 90.07 4.22 91.21 4.54 91.69 4.8 92.38 5.63 93.4 5.97 94.33 6.37 96.66 7.45 97.4 7.83 98.16 8.42 99.27 8.75 101.02 9.46 101.79 9.85 103.16 10.19 103.75 10.37 104.55 10.66 106.87 10.41 109.73 9.89 110.27 9.88 110.77 9.96 111.34 9.96 112.95 10.39 113.56 10.37 114.01 10.22 116.15 9.63 117.63 9.4 118.1 10.63 118.19 10.9 118.85 11.74 118.97 12.02 118.77 12.44 117.45 14.18 117.51 14.46 116.74 15.5 115.78 16.59 117.09 18.14 116.3 18.39 116 18.81 115.4 19.23 116.15 20.8 116.4 21.14 119.42 23.33 119.91 23.99 120.47 24.65 121.06 25.36 121.17 25.63 121.18 26.02 122.21 27.12 123.55 28.6 123.61 29.34 124.54 29.86 125.83 30.44 126.25 30.64 126.99 30.98 127.95 31.41 128.89 31.84 130.3 32.48 131.56 33.9 132.51 34.3 132.87 34.49 133.04 34.73 133.45 35.29 133.93 35.62 134.5 37.16 136.11 38.82 138.12 40.09 135.83 41.79 136.6 44.54 137.41 45.79 137.43 47.16 140.12 50.26 142.01 51.6 142.85 52.35 140.41 53.18 139.99 54.08 140.25 54.78 140.49 55.58 142.78 56.56 143.74 57.9 145.24 59.72 146.03 60.41 146.56 60.69 145.44 61.35 144.22 60.77 143.75 60.34 143.32 59.6 142.22 58.98 140.72 58.49 137.88 58.64 135.27 58.78 134.1 58.72 131.91 59.28 131.52 58.87 128.54 57.47 125.7 56.22 124.54 55.06 123.75 54.61 122.82 53.63 122.31 53.29 119.11 55.1 118.47 57.16 116.28 58.44 119.98 58.57 121 59.04 121.99 59.73 122.72 60.12 123.28 60.32 124.64 60.56 124.65 62.54 124.42 64.22 125.14 65.23 125.38 65.84 125.55 67 125.55 68.64 125.54 70.28 125.27 70.67 123.92 71.53 123.2 71.98 119.38 72.47 116.82 72.8 114.25 73.13 114.14 73.41 113.23 74.93 113.09 75.27 114 76.04 114.18 76.51 114.16 77.14 112.98 78.22 112.47 78.85 112.09 79.57 111.96 80.23 111.95 80.72 110.2 82.81 107.54 84.33 106.86 84.31 104.78 83.88 104.03 84.41 103.06 84.84 102.28 85.26 101.34 85.81 99.31 86.97 97.63 88.96 97.15 89.21 96.42 89.32 93.71 89.19 90.99 89.07 90.29 89.25 88.86 89.09 86.51 88.66 85.68 88.58 83.91 90.14 81.9 92.73 82.83 93.47 84.7 96.05 84.92 96.72 86.15 97.92 86.65 98.93 87.46 99.45 87.22 99.81 86.68 100.2 86.3 100.99 86.1 101.55 85.89 101.95"/><polygon class="cls-3" points="80.91 103.5 80.86 119.81 80.49 119.36 80.53 103.06 80.91 103.5"/><polygon class="cls-35" points="83.56 102.99 83.52 119.3 80.86 119.81 80.91 103.5 83.56 102.99"/></g></g></g></svg>