<svg xmlns="http://www.w3.org/2000/svg" viewBox="0 0 16.07 24.95"><defs><style>.cls-1{isolation:isolate;}.cls-2{fill:#481212;}.cls-3{fill:#a32828;}.cls-4{fill:#8e2323;}.cls-5{fill:#a82929;}.cls-6{fill:#491212;}.cls-7{fill:#4a1212;}.cls-8{fill:#561515;}.cls-9{fill:#711c1c;}.cls-10{fill:#6d1b1b;}.cls-11{fill:#7e1f1f;}.cls-12{fill:#8c2222;}.cls-13{fill:#6b1a1a;}.cls-14{fill:#7f1f1f;}.cls-15{fill:#a52828;}.cls-16{fill:#6a1a1a;}.cls-17{fill:#822020;}.cls-18{fill:#5e1717;}.cls-19{fill:#511414;}.cls-20{fill:#a72929;}.cls-21{fill:#671919;}.cls-22{fill:#611818;}.cls-23{fill:#7c1e1e;}.cls-24{fill:#912424;}.cls-25{fill:#992626;}.cls-26{fill:#801f1f;}.cls-27{fill:#c83131;}</style></defs><title>Swaziland</title><g id="Layer_2" data-name="Layer 2"><g id="Layer_1-2" data-name="Layer 1"><g class="cls-1"><polygon class="cls-2" points="0.12 3.37 0.07 19.67 0 19.54 0.05 3.23 0.12 3.37"/><polygon class="cls-3" points="13.49 3.38 13.45 19.68 13.29 19.72 13.34 3.41 13.49 3.38"/><polygon class="cls-4" points="13.34 3.41 13.29 19.72 12.96 19.72 13.01 3.41 13.34 3.41"/><polygon class="cls-5" points="13.01 3.41 12.96 19.72 12.84 19.77 12.89 3.46 13.01 3.41"/><polygon class="cls-6" points="0.41 3.65 0.36 19.96 0.07 19.67 0.12 3.37 0.41 3.65"/><polygon class="cls-5" points="12.89 3.46 12.84 19.77 12.4 20.02 12.45 3.72 12.89 3.46"/><polygon class="cls-2" points="0.91 4.35 0.86 20.66 0.36 19.96 0.41 3.65 0.91 4.35"/><polygon class="cls-2" points="1.26 5.08 1.21 21.38 0.86 20.66 0.91 4.35 1.26 5.08"/><polygon class="cls-2" points="1.39 5.71 1.34 22.02 1.21 21.38 1.26 5.08 1.39 5.71"/><polygon class="cls-5" points="16.07 5.98 16.03 22.29 15.42 22.63 15.47 6.33 16.07 5.98"/><polygon class="cls-2" points="1.55 6.52 1.51 22.82 1.34 22.02 1.39 5.71 1.55 6.52"/><polygon class="cls-5" points="15.47 6.33 15.42 22.63 14.78 22.99 14.83 6.69 15.47 6.33"/><polygon class="cls-7" points="1.97 6.92 1.92 23.23 1.51 22.82 1.55 6.52 1.97 6.92"/><polygon class="cls-5" points="14.83 6.69 14.78 22.99 13.81 23.55 13.85 7.24 14.83 6.69"/><polygon class="cls-8" points="2.76 7.37 2.71 23.68 1.92 23.23 1.97 6.92 2.76 7.37"/><polygon class="cls-5" points="13.85 7.24 13.81 23.55 13.06 23.96 13.11 7.66 13.85 7.24"/><polygon class="cls-5" points="13.11 7.66 13.06 23.96 12.53 24.17 12.58 7.87 13.11 7.66"/><polygon class="cls-9" points="4.97 7.87 4.92 24.17 4.79 24.14 4.83 7.83 4.97 7.87"/><polygon class="cls-8" points="3.8 7.96 3.76 24.26 2.71 23.68 2.76 7.37 3.8 7.96"/><polygon class="cls-10" points="5.42 8 5.37 24.3 4.92 24.17 4.97 7.87 5.42 8"/><polygon class="cls-11" points="5.63 8.03 5.59 24.33 5.37 24.3 5.42 8 5.63 8.03"/><polygon class="cls-12" points="6.03 8.03 5.98 24.34 5.59 24.33 5.63 8.03 6.03 8.03"/><polygon class="cls-13" points="4.85 7.93 4.8 24.23 4.79 24.34 4.83 8.04 4.85 7.93"/><polygon class="cls-14" points="6.21 8.05 6.16 24.36 5.98 24.34 6.03 8.03 6.21 8.05"/><polygon class="cls-15" points="12.58 7.87 12.53 24.17 11.62 24.43 11.66 8.12 12.58 7.87"/><polygon class="cls-16" points="6.4 8.11 6.35 24.42 6.16 24.36 6.21 8.05 6.4 8.11"/><polygon class="cls-17" points="4.83 8.04 4.79 24.34 4.74 24.44 4.79 8.14 4.83 8.04"/><polygon class="cls-18" points="4.37 8.21 4.32 24.52 3.76 24.26 3.8 7.96 4.37 8.21"/><polygon class="cls-3" points="4.79 8.14 4.74 24.44 4.65 24.52 4.69 8.22 4.79 8.14"/><polygon class="cls-19" points="6.57 8.23 6.53 24.53 6.35 24.42 6.4 8.11 6.57 8.23"/><polygon class="cls-20" points="4.69 8.22 4.65 24.52 4.54 24.59 4.59 8.29 4.69 8.22"/><polygon class="cls-21" points="4.59 8.29 4.54 24.59 4.32 24.52 4.37 8.21 4.59 8.29"/><polygon class="cls-15" points="11.66 8.12 11.62 24.43 10.93 24.62 10.98 8.32 11.66 8.12"/><polygon class="cls-15" points="10.98 8.32 10.93 24.62 10.62 24.7 10.66 8.4 10.98 8.32"/><polygon class="cls-7" points="6.8 8.44 6.75 24.74 6.53 24.53 6.57 8.23 6.8 8.44"/><polygon class="cls-22" points="7.01 8.53 6.97 24.83 6.75 24.74 6.8 8.44 7.01 8.53"/><polygon class="cls-23" points="7.41 8.59 7.37 24.89 6.97 24.83 7.01 8.53 7.41 8.59"/><polygon class="cls-24" points="8.71 8.55 8.67 24.86 7.37 24.89 7.41 8.59 8.71 8.55"/><polygon class="cls-15" points="10.66 8.4 10.62 24.7 9.84 24.93 9.88 8.63 10.66 8.4"/><polygon class="cls-25" points="9.88 8.63 9.84 24.93 9.66 24.95 9.71 8.64 9.88 8.63"/><polygon class="cls-4" points="9.71 8.64 9.66 24.95 9.46 24.95 9.51 8.64 9.71 8.64"/><polygon class="cls-26" points="9.51 8.64 9.46 24.95 8.67 24.86 8.71 8.55 9.51 8.64"/><polygon class="cls-27" points="11.6 2.26 13.49 3.38 13.34 3.41 13.01 3.41 12.89 3.46 12.45 3.72 12.68 3.84 13.22 4.28 13.73 4.7 14.3 5.16 14.77 5.42 14.91 5.5 15.48 5.8 15.63 5.84 15.75 5.87 15.87 5.89 15.97 5.93 16.07 5.98 15.47 6.33 14.83 6.69 13.85 7.24 13.11 7.66 12.58 7.87 11.66 8.12 10.98 8.32 10.66 8.4 9.88 8.63 9.71 8.64 9.51 8.64 8.71 8.55 7.41 8.59 7.01 8.53 6.8 8.44 6.57 8.23 6.4 8.11 6.21 8.05 6.03 8.03 5.63 8.03 5.42 8 4.97 7.87 4.83 7.83 4.85 7.93 4.83 8.04 4.79 8.14 4.69 8.22 4.59 8.29 4.37 8.21 3.8 7.96 2.76 7.37 1.97 6.92 1.55 6.52 1.39 5.71 1.26 5.08 0.91 4.35 0.41 3.65 0.12 3.37 0.05 3.23 0.11 2.58 0.18 1.85 0.27 1.69 0.44 1.53 0.63 1.41 0.85 1.35 2.01 1.2 3.17 1.06 4.17 0.93 4.35 0.91 5.3 0.79 5.56 0.71 5.7 0.58 5.88 0.25 6.22 0.24 6.51 0.19 7.07 0 7.21 0.18 7.51 0.32 7.86 0.43 8.16 0.55 8.34 0.68 8.71 1.14 8.89 1.28 9.74 1.68 9.98 1.77 10.93 1.95 11.6 2.26"/></g></g></g></svg>