<svg xmlns="http://www.w3.org/2000/svg" viewBox="0 0 127.87 64.57"><defs><style>.cls-1{isolation:isolate;}.cls-2{fill:#601717;}.cls-3{fill:#4d1313;}.cls-4{fill:#491212;}.cls-5{fill:#481212;}.cls-6{fill:#551515;}.cls-7{fill:#6e1b1b;}.cls-8{fill:#5e1717;}.cls-9{fill:#711c1c;}.cls-10{fill:#8a2222;}.cls-11{fill:#4a1212;}.cls-12{fill:#511414;}.cls-13{fill:#4b1212;}.cls-14{fill:#972525;}.cls-15{fill:#872121;}.cls-16{fill:#9f2727;}.cls-17{fill:#631818;}.cls-18{fill:#4f1313;}.cls-19{fill:#721c1c;}.cls-20{fill:#8d2323;}.cls-21{fill:#822020;}.cls-22{fill:#9a2626;}.cls-23{fill:#a52828;}.cls-24{fill:#842020;}.cls-25{fill:#6b1a1a;}.cls-26{fill:#9b2626;}.cls-27{fill:#9e2727;}.cls-28{fill:#a82929;}.cls-29{fill:#651919;}.cls-30{fill:#8e2323;}.cls-31{fill:#942424;}.cls-32{fill:#a72929;}.cls-33{fill:#781e1e;}.cls-34{fill:#a62929;}.cls-35{fill:#791e1e;}.cls-36{fill:#912323;}.cls-37{fill:#a32828;}.cls-38{fill:#862121;}.cls-39{fill:#982525;}.cls-40{fill:#6f1b1b;}.cls-41{fill:#7b1e1e;}.cls-42{fill:#681919;}.cls-43{fill:#7c1e1e;}.cls-44{fill:#9d2626;}.cls-45{fill:#812020;}.cls-46{fill:#7e1f1f;}.cls-47{fill:#801f1f;}.cls-48{fill:#912424;}.cls-49{fill:#c83131;}.cls-50{fill:#731c1c;}.cls-51{fill:#8b2222;}.cls-52{fill:#852121;}.cls-53{fill:#5b1616;}.cls-54{fill:#4c1313;}.cls-55{fill:#a92929;}.cls-56{fill:#501414;}.cls-57{fill:#601818;}.cls-58{fill:#521414;}.cls-59{fill:#5a1616;}.cls-60{fill:#691a1a;}.cls-61{fill:#4e1313;}.cls-62{fill:#5f1717;}.cls-63{fill:#922424;}.cls-64{fill:#992525;}.cls-65{fill:#8c2222;}.cls-66{fill:#932424;}.cls-67{fill:#771d1d;}.cls-68{fill:#681a1a;}.cls-69{fill:#892222;}.cls-70{fill:#9c2626;}.cls-71{fill:#882121;}.cls-72{fill:#a22828;}.cls-73{fill:#962525;}.cls-74{fill:#781d1d;}.cls-75{fill:#761d1d;}.cls-76{fill:#641818;}.cls-77{fill:#832020;}.cls-78{fill:#7d1f1f;}.cls-79{fill:#8f2323;}.cls-80{fill:#7a1e1e;}.cls-81{fill:#751d1d;}.cls-82{fill:#6c1a1a;}.cls-83{fill:#a42828;}.cls-84{fill:#701b1b;}.cls-85{fill:#a02727;}.cls-86{fill:#992626;}.cls-87{fill:#661919;}.cls-88{fill:#571515;}.cls-89{fill:#741c1c;}.cls-90{fill:#7f1f1f;}.cls-91{fill:#561515;}.cls-92{fill:#6a1a1a;}.cls-93{fill:#541414;}.cls-94{fill:#611818;}.cls-95{fill:#a12727;}</style></defs><title>Tanzania</title><g id="Layer_2" data-name="Layer 2"><g id="Layer_1-2" data-name="Layer 1"><g class="cls-1"><polygon class="cls-2" points="86.8 0.06 86.76 16.36 86.66 16.32 86.71 0.02 86.8 0.06"/><polygon class="cls-3" points="86.91 0.14 86.86 16.45 86.76 16.36 86.8 0.06 86.91 0.14"/><polygon class="cls-4" points="87 0.24 86.95 16.54 86.86 16.45 86.91 0.14 87 0.24"/><polygon class="cls-5" points="87.06 0.34 87.02 16.64 86.95 16.54 87 0.24 87.06 0.34"/><polygon class="cls-5" points="86.89 0.37 86.84 16.68 86.83 16.58 86.88 0.28 86.89 0.37"/><polygon class="cls-6" points="86.96 0.41 86.91 16.72 86.84 16.68 86.89 0.37 86.96 0.41"/><polygon class="cls-7" points="87.05 0.44 87.01 16.74 86.91 16.72 86.96 0.41 87.05 0.44"/><polygon class="cls-8" points="87.11 0.46 87.06 16.77 87.01 16.74 87.05 0.44 87.11 0.46"/><polygon class="cls-9" points="87.49 0.39 87.44 16.69 87.42 16.82 87.47 0.52 87.49 0.39"/><polygon class="cls-5" points="87.12 0.52 87.07 16.82 87.06 16.77 87.11 0.46 87.12 0.52"/><polygon class="cls-10" points="87.47 0.52 87.42 16.82 87.38 16.9 87.42 0.59 87.47 0.52"/><polygon class="cls-11" points="86.02 0.61 85.97 16.91 85.92 16.88 85.97 0.57 86.02 0.61"/><polygon class="cls-5" points="86.04 0.65 85.99 16.96 85.97 16.91 86.02 0.61 86.04 0.65"/><polygon class="cls-12" points="85.61 0.71 85.56 17.02 85.47 16.96 85.51 0.65 85.61 0.71"/><polygon class="cls-13" points="85.76 0.84 85.71 17.15 85.56 17.02 85.61 0.71 85.76 0.84"/><polygon class="cls-14" points="86.3 0.86 86.26 17.16 86.12 17.17 86.17 0.87 86.3 0.86"/><polygon class="cls-5" points="88.08 0.89 88.03 17.19 88.01 17.16 88.06 0.86 88.08 0.89"/><polygon class="cls-6" points="85.83 0.89 85.79 17.19 85.71 17.15 85.76 0.84 85.83 0.89"/><polygon class="cls-15" points="86 0.9 85.96 17.2 85.79 17.19 85.83 0.89 86 0.9"/><polygon class="cls-16" points="86.17 0.87 86.12 17.17 85.96 17.2 86 0.9 86.17 0.87"/><polygon class="cls-17" points="88.16 0.91 88.11 17.22 88.03 17.19 88.08 0.89 88.16 0.91"/><polygon class="cls-4" points="86.38 0.94 86.33 17.24 86.26 17.16 86.3 0.86 86.38 0.94"/><polygon class="cls-18" points="88.21 0.95 88.17 17.26 88.11 17.22 88.16 0.91 88.21 0.95"/><polygon class="cls-5" points="86.2 1.11 86.16 17.41 86.09 17.34 86.14 1.04 86.2 1.11"/><polygon class="cls-5" points="86.47 1.12 86.42 17.43 86.38 17.37 86.43 1.07 86.47 1.12"/><polygon class="cls-19" points="86.38 1.15 86.33 17.45 86.16 17.41 86.2 1.11 86.38 1.15"/><polygon class="cls-20" points="86.43 1.07 86.38 17.37 86.33 17.45 86.38 1.15 86.43 1.07"/><polygon class="cls-21" points="86.99 1.19 86.95 17.49 86.84 17.48 86.89 1.18 86.99 1.19"/><polygon class="cls-22" points="86.89 1.18 86.84 17.48 86.74 17.49 86.79 1.19 86.89 1.18"/><polygon class="cls-6" points="87.05 1.22 87 17.53 86.95 17.49 86.99 1.19 87.05 1.22"/><polygon class="cls-4" points="86.5 1.27 86.45 17.57 86.41 17.53 86.45 1.22 86.5 1.27"/><polygon class="cls-23" points="86.79 1.19 86.74 17.49 86.45 17.57 86.5 1.27 86.79 1.19"/><polygon class="cls-5" points="86.92 1.38 86.87 17.68 86.84 17.62 86.89 1.31 86.92 1.38"/><polygon class="cls-12" points="87 1.43 86.95 17.73 86.87 17.68 86.92 1.38 87 1.43"/><polygon class="cls-24" points="87.48 1.46 87.43 17.77 87.34 17.76 87.39 1.46 87.48 1.46"/><polygon class="cls-25" points="87.11 1.46 87.06 17.77 86.95 17.73 87 1.43 87.11 1.46"/><polygon class="cls-26" points="87.39 1.46 87.34 17.76 87.26 17.77 87.31 1.47 87.39 1.46"/><polygon class="cls-27" points="87.71 1.47 87.66 17.77 87.55 17.79 87.6 1.49 87.71 1.47"/><polygon class="cls-5" points="87.5 1.5 87.46 17.8 87.43 17.77 87.48 1.46 87.5 1.5"/><polygon class="cls-5" points="87.12 1.5 87.08 17.8 87.06 17.77 87.11 1.46 87.12 1.5"/><polygon class="cls-28" points="87.31 1.47 87.26 17.77 87.2 17.81 87.24 1.5 87.31 1.47"/><polygon class="cls-29" points="87.84 1.52 87.8 17.82 87.66 17.77 87.71 1.47 87.84 1.52"/><polygon class="cls-13" points="87.15 1.52 87.1 17.83 87.08 17.8 87.12 1.5 87.15 1.52"/><polygon class="cls-30" points="87.24 1.5 87.2 17.81 87.15 17.88 87.2 1.57 87.24 1.5"/><polygon class="cls-4" points="87.2 1.57 87.15 17.88 87.1 17.83 87.15 1.52 87.2 1.57"/><polygon class="cls-11" points="87.61 1.6 87.56 17.9 87.46 17.8 87.5 1.5 87.61 1.6"/><polygon class="cls-5" points="87.92 1.62 87.87 17.93 87.8 17.82 87.84 1.52 87.92 1.62"/><polygon class="cls-30" points="88.02 1.62 87.97 17.93 87.87 17.93 87.92 1.62 88.02 1.62"/><polygon class="cls-5" points="88.56 1.72 88.52 18.02 88.43 17.92 88.47 1.62 88.56 1.72"/><polygon class="cls-31" points="88.47 1.62 88.43 17.92 88.34 18.03 88.39 1.73 88.47 1.62"/><polygon class="cls-32" points="88.39 1.73 88.34 18.03 88.14 18.09 88.19 1.79 88.39 1.73"/><polygon class="cls-26" points="88.19 1.79 88.14 18.09 87.64 18.16 87.69 1.86 88.19 1.79"/><polygon class="cls-33" points="87.69 1.86 87.64 18.16 87.63 18.22 87.67 1.92 87.69 1.86"/><polygon class="cls-34" points="87.67 1.92 87.63 18.22 87.52 18.26 87.56 1.95 87.67 1.92"/><polygon class="cls-35" points="87.42 1.96 87.37 18.26 87.24 18.24 87.29 1.94 87.42 1.96"/><polygon class="cls-36" points="87.56 1.95 87.52 18.26 87.37 18.26 87.42 1.96 87.56 1.95"/><polygon class="cls-32" points="88.39 1.99 88.34 18.29 88.24 18.32 88.29 2.02 88.39 1.99"/><polygon class="cls-37" points="88.29 2.02 88.24 18.32 88.16 18.34 88.2 2.04 88.29 2.02"/><polygon class="cls-38" points="88.12 2.05 88.07 18.36 87.97 18.35 88.02 2.05 88.12 2.05"/><polygon class="cls-26" points="88.2 2.04 88.16 18.34 88.07 18.36 88.12 2.05 88.2 2.04"/><polygon class="cls-5" points="88.39 2.06 88.34 18.36 88.34 18.29 88.39 1.99 88.39 2.06"/><polygon class="cls-28" points="89.47 2.15 89.42 18.45 89.38 18.47 89.43 2.17 89.47 2.15"/><polygon class="cls-4" points="89.56 2.24 89.51 18.54 89.42 18.45 89.47 2.15 89.56 2.24"/><polygon class="cls-24" points="89.65 2.25 89.6 18.55 89.51 18.54 89.56 2.24 89.65 2.25"/><polygon class="cls-39" points="89.69 2.2 89.64 18.5 89.6 18.55 89.65 2.25 89.69 2.2"/><polygon class="cls-40" points="88.16 2.29 88.11 18.59 87.97 18.55 88.02 2.25 88.16 2.29"/><polygon class="cls-15" points="88.47 2.31 88.42 18.61 88.11 18.59 88.16 2.29 88.47 2.31"/><polygon class="cls-41" points="88.61 2.33 88.56 18.63 88.42 18.61 88.47 2.31 88.61 2.33"/><polygon class="cls-42" points="89.65 2.42 89.6 18.73 89.59 18.81 89.64 2.51 89.65 2.42"/><polygon class="cls-43" points="88.39 2.52 88.34 18.82 88.22 18.8 88.27 2.5 88.39 2.52"/><polygon class="cls-6" points="89.52 2.55 89.47 18.85 89.42 18.82 89.47 2.52 89.52 2.55"/><polygon class="cls-44" points="89.47 2.52 89.42 18.82 89.35 18.89 89.4 2.59 89.47 2.52"/><polygon class="cls-45" points="89.64 2.51 89.59 18.81 89.56 18.9 89.6 2.6 89.64 2.51"/><polygon class="cls-5" points="88.41 2.61 88.37 18.91 88.34 18.82 88.39 2.52 88.41 2.61"/><polygon class="cls-5" points="89.52 2.64 89.47 18.94 89.45 18.9 89.5 2.6 89.52 2.64"/><polygon class="cls-24" points="89.56 2.64 89.51 18.95 89.47 18.94 89.52 2.64 89.56 2.64"/><polygon class="cls-26" points="89.6 2.6 89.56 18.9 89.51 18.95 89.56 2.64 89.6 2.6"/><polygon class="cls-46" points="89.4 2.59 89.35 18.89 89.33 18.96 89.38 2.65 89.4 2.59"/><polygon class="cls-11" points="88.5 2.68 88.45 18.99 88.37 18.91 88.41 2.61 88.5 2.68"/><polygon class="cls-47" points="89.33 2.69 89.28 18.99 89.16 18.98 89.2 2.67 89.33 2.69"/><polygon class="cls-23" points="89.38 2.65 89.33 18.96 89.28 18.99 89.33 2.69 89.38 2.65"/><polygon class="cls-48" points="82.39 2.75 82.35 19.05 81.97 19.06 82.02 2.76 82.39 2.75"/><polygon class="cls-28" points="89.2 2.67 89.16 18.98 88.94 19.11 88.98 2.81 89.2 2.67"/><polygon class="cls-6" points="88.73 2.82 88.68 19.12 88.45 18.99 88.5 2.68 88.73 2.82"/><polygon class="cls-49" points="85.76 0.84 85.61 0.71 85.51 0.65 85.57 0.66 85.61 0.67 85.65 0.67 85.67 0.66 85.76 0.65 85.85 0.66 85.94 0.69 85.97 0.7 86.04 0.65 86.02 0.61 85.97 0.57 85.99 0.53 86.05 0.53 86.26 0.52 86.31 0.53 86.79 0.46 86.9 0.45 86.98 0.49 87.06 0.52 87.12 0.52 87.11 0.46 87.05 0.44 86.96 0.41 86.89 0.37 86.88 0.28 86.94 0.31 87.01 0.32 87.06 0.34 87 0.24 86.91 0.14 86.8 0.06 86.71 0.02 86.85 0 86.99 0.08 87.13 0.18 87.45 0.28 87.49 0.39 87.47 0.52 87.42 0.59 87.58 0.64 87.68 0.73 87.77 0.83 87.88 0.91 88.14 0.99 88.18 1.01 88.21 0.95 88.16 0.91 88.08 0.89 88.06 0.86 88.18 0.83 88.31 0.89 88.52 1.06 88.9 1.29 88.97 1.38 89.07 1.38 89.08 1.48 89.47 1.94 89.49 2 89.49 2.04 89.52 2.07 89.63 2.13 89.69 2.2 89.65 2.25 89.56 2.24 89.47 2.15 89.43 2.17 89.49 2.26 89.51 2.29 89.51 2.33 89.6 2.36 89.65 2.42 89.64 2.51 89.6 2.6 89.56 2.64 89.52 2.64 89.5 2.6 89.52 2.55 89.47 2.52 89.4 2.59 89.38 2.65 89.33 2.69 89.2 2.67 88.98 2.81 88.85 2.85 88.73 2.82 88.5 2.68 88.41 2.61 88.39 2.52 88.27 2.5 88.34 2.44 88.61 2.33 88.47 2.31 88.16 2.29 88.02 2.25 88.14 2.21 88.29 2.14 88.39 2.06 88.39 1.99 88.29 2.02 88.2 2.04 88.12 2.05 88.02 2.05 88.12 1.99 88.24 1.86 88.34 1.81 88.52 1.77 88.56 1.72 88.47 1.62 88.39 1.73 88.19 1.79 87.69 1.86 87.67 1.92 87.56 1.95 87.42 1.96 87.29 1.94 87.39 1.91 87.47 1.91 87.53 1.89 87.56 1.83 87.64 1.81 87.9 1.69 88.02 1.62 87.92 1.62 87.84 1.52 87.71 1.47 87.6 1.49 87.61 1.6 87.5 1.5 87.48 1.46 87.39 1.46 87.31 1.47 87.24 1.5 87.2 1.57 87.15 1.52 87.12 1.5 87.11 1.46 87 1.43 86.92 1.38 86.89 1.31 86.92 1.28 87.04 1.26 87.05 1.22 86.99 1.19 86.89 1.18 86.79 1.19 86.5 1.27 86.45 1.22 86.47 1.12 86.43 1.07 86.38 1.15 86.2 1.11 86.14 1.04 86.2 0.97 86.38 0.94 86.3 0.86 86.17 0.87 86 0.9 85.83 0.89 85.76 0.84"/><polygon class="cls-50" points="88.85 2.85 88.81 19.15 88.68 19.12 88.73 2.82 88.85 2.85"/><polygon class="cls-23" points="88.98 2.81 88.94 19.11 88.81 19.15 88.85 2.85 88.98 2.81"/><polygon class="cls-5" points="88.18 3.07 88.14 19.38 88.1 19.31 88.15 3 88.18 3.07"/><polygon class="cls-24" points="88.35 3.09 88.3 19.39 88.14 19.38 88.18 3.07 88.35 3.09"/><polygon class="cls-51" points="88.51 3.09 88.46 19.4 88.3 19.39 88.35 3.09 88.51 3.09"/><polygon class="cls-28" points="89.25 2.99 89.2 19.3 89.03 19.4 89.08 3.1 89.25 2.99"/><polygon class="cls-52" points="88.65 3.1 88.61 19.41 88.46 19.4 88.51 3.09 88.65 3.1"/><polygon class="cls-14" points="89.08 3.1 89.03 19.4 88.82 19.42 88.87 3.12 89.08 3.1"/><polygon class="cls-49" points="88.9 2.97 89.03 2.92 89.18 2.94 89.25 2.99 89.08 3.1 88.87 3.12 88.65 3.1 88.51 3.09 88.35 3.09 88.18 3.07 88.15 3 88.24 2.99 88.39 2.97 88.56 2.98 88.76 3 88.9 2.97"/><polygon class="cls-38" points="88.87 3.12 88.82 19.42 88.61 19.41 88.65 3.1 88.87 3.12"/><polygon class="cls-5" points="88.57 5.39 88.52 21.7 88.52 21.56 88.57 5.25 88.57 5.39"/><polygon class="cls-18" points="89.01 5.71 88.96 22.01 88.52 21.7 88.57 5.39 89.01 5.71"/><polygon class="cls-11" points="89.16 5.85 89.12 22.16 88.96 22.01 89.01 5.71 89.16 5.85"/><polygon class="cls-53" points="88.46 5.93 88.41 22.23 88.26 22.16 88.31 5.86 88.46 5.93"/><polygon class="cls-5" points="89.18 5.99 89.14 22.29 89.12 22.16 89.16 5.85 89.18 5.99"/><polygon class="cls-12" points="88.63 6.04 88.58 22.35 88.41 22.23 88.46 5.93 88.63 6.04"/><polygon class="cls-54" points="88.73 6.12 88.68 22.43 88.58 22.35 88.63 6.04 88.73 6.12"/><polygon class="cls-16" points="88.98 6.07 88.94 22.37 88.87 22.43 88.92 6.13 88.98 6.07"/><polygon class="cls-55" points="88.92 6.13 88.87 22.43 88.8 22.47 88.84 6.17 88.92 6.13"/><polygon class="cls-17" points="88.84 6.17 88.8 22.47 88.68 22.43 88.73 6.12 88.84 6.17"/><polygon class="cls-49" points="88.73 5.97 88.85 5.99 88.98 6.07 88.92 6.13 88.84 6.17 88.73 6.12 88.63 6.04 88.46 5.93 88.31 5.86 88.33 5.78 88.41 5.84 88.56 5.89 88.7 5.9 88.73 5.97"/><polygon class="cls-56" points="92.62 6.19 92.58 22.49 92.44 22.4 92.49 6.1 92.62 6.19"/><polygon class="cls-57" points="92.85 6.29 92.81 22.59 92.58 22.49 92.62 6.19 92.85 6.29"/><polygon class="cls-58" points="92.98 6.37 92.93 22.67 92.81 22.59 92.85 6.29 92.98 6.37"/><polygon class="cls-5" points="89.21 6.41 89.17 22.71 89.09 22.55 89.14 6.24 89.21 6.41"/><polygon class="cls-5" points="92.86 6.43 92.82 22.74 92.81 22.71 92.85 6.41 92.86 6.43"/><polygon class="cls-5" points="89 6.43 88.96 22.73 88.94 22.68 88.98 6.38 89 6.43"/><polygon class="cls-5" points="92.88 6.45 92.83 22.75 92.82 22.74 92.86 6.43 92.88 6.45"/><polygon class="cls-4" points="89.05 6.48 89.01 22.78 88.96 22.73 89 6.43 89.05 6.48"/><polygon class="cls-5" points="92.71 6.53 92.66 22.84 92.64 22.77 92.69 6.47 92.71 6.53"/><polygon class="cls-6" points="89.13 6.53 89.08 22.83 89.01 22.78 89.05 6.48 89.13 6.53"/><polygon class="cls-59" points="89.22 6.57 89.17 22.87 89.08 22.83 89.13 6.53 89.22 6.57"/><polygon class="cls-47" points="85.3 6.37 85.25 22.67 85.17 22.88 85.22 6.57 85.3 6.37"/><polygon class="cls-12" points="92.8 6.59 92.76 22.9 92.66 22.84 92.71 6.53 92.8 6.59"/><polygon class="cls-56" points="89.56 6.8 89.51 23.1 89.17 22.87 89.22 6.57 89.56 6.8"/><polygon class="cls-60" points="90.09 6.97 90.05 23.27 89.51 23.1 89.56 6.8 90.09 6.97"/><polygon class="cls-61" points="93.21 7.16 93.17 23.47 93.08 23.4 93.12 7.1 93.21 7.16"/><polygon class="cls-62" points="90.53 7.16 90.49 23.46 90.05 23.27 90.09 6.97 90.53 7.16"/><polygon class="cls-22" points="93.12 7.1 93.08 23.4 92.98 23.51 93.02 7.21 93.12 7.1"/><polygon class="cls-63" points="92.14 7.29 92.1 23.6 91.99 23.6 92.04 7.3 92.14 7.29"/><polygon class="cls-63" points="92.04 7.3 91.99 23.6 91.89 23.61 91.94 7.3 92.04 7.3"/><polygon class="cls-64" points="94.96 7.18 94.92 23.48 94.76 23.66 94.81 7.36 94.96 7.18"/><polygon class="cls-47" points="92.67 7.36 92.63 23.66 92.1 23.6 92.14 7.29 92.67 7.36"/><polygon class="cls-65" points="93.03 7.37 92.98 23.67 92.63 23.66 92.67 7.36 93.03 7.37"/><polygon class="cls-24" points="91.94 7.3 91.89 23.61 91.86 23.69 91.9 7.38 91.94 7.3"/><polygon class="cls-40" points="93.17 7.4 93.12 23.7 92.98 23.67 93.03 7.37 93.17 7.4"/><polygon class="cls-29" points="93.9 7.41 93.86 23.72 93.17 23.47 93.21 7.16 93.9 7.41"/><polygon class="cls-35" points="94.11 7.45 94.06 23.75 93.86 23.72 93.9 7.41 94.11 7.45"/><polygon class="cls-39" points="92.09 7.44 92.04 23.74 91.89 23.76 91.94 7.45 92.09 7.44"/><polygon class="cls-34" points="94.81 7.36 94.76 23.66 94.45 23.76 94.49 7.46 94.81 7.36"/><polygon class="cls-66" points="94.49 7.46 94.45 23.76 94.27 23.77 94.31 7.47 94.49 7.46"/><polygon class="cls-24" points="94.31 7.47 94.27 23.77 94.06 23.75 94.11 7.45 94.31 7.47"/><polygon class="cls-5" points="90.59 7.46 90.55 23.77 90.49 23.46 90.53 7.16 90.59 7.46"/><polygon class="cls-13" points="93.27 7.49 93.22 23.79 93.12 23.7 93.17 7.4 93.27 7.49"/><polygon class="cls-23" points="93.52 7.42 93.47 23.72 93.22 23.79 93.27 7.49 93.52 7.42"/><polygon class="cls-67" points="90.76 7.5 90.72 23.8 90.55 23.77 90.59 7.46 90.76 7.5"/><polygon class="cls-39" points="92.34 7.61 92.29 23.91 92.28 23.92 92.32 7.62 92.34 7.61"/><polygon class="cls-68" points="91.15 7.62 91.1 23.93 90.72 23.8 90.76 7.5 91.15 7.62"/><polygon class="cls-46" points="91.31 7.64 91.27 23.95 91.1 23.93 91.15 7.62 91.31 7.64"/><polygon class="cls-28" points="92.33 7.64 92.28 23.94 92.27 23.95 92.31 7.65 92.33 7.64"/><polygon class="cls-37" points="92.31 7.65 92.27 23.95 92.18 23.97 92.22 7.67 92.31 7.65"/><polygon class="cls-69" points="92.04 7.67 91.99 23.98 91.27 23.95 91.31 7.64 92.04 7.67"/><polygon class="cls-67" points="92.08 7.68 92.03 23.98 91.99 23.98 92.04 7.67 92.08 7.68"/><polygon class="cls-70" points="92.22 7.67 92.18 23.97 92.08 23.99 92.12 7.69 92.22 7.67"/><polygon class="cls-49" points="89.01 5.71 88.57 5.39 88.57 5.25 88.85 5.33 89.42 5.42 89.68 5.53 89.92 5.72 90.02 5.78 90.14 5.82 90.39 5.9 90.5 5.95 90.64 6 90.97 6.04 91.35 6.17 91.41 6.17 91.57 6.1 91.68 6.14 91.74 6.2 91.8 6.26 91.87 6.32 91.98 6.38 92.08 6.42 92.18 6.45 92.31 6.47 92.33 6.57 92.34 6.62 92.39 6.68 92.45 6.6 92.55 6.58 92.68 6.6 92.8 6.59 92.71 6.53 92.69 6.47 92.73 6.44 92.85 6.47 92.88 6.45 92.86 6.43 92.85 6.41 92.98 6.37 92.85 6.29 92.62 6.19 92.49 6.1 92.75 6.12 93 6.19 94.1 6.68 94.18 6.71 94.67 6.78 94.93 6.96 94.96 7.18 94.81 7.36 94.49 7.46 94.31 7.47 94.11 7.45 93.9 7.41 93.21 7.16 93.12 7.1 93.02 7.21 93.09 7.25 93.25 7.26 93.37 7.29 93.52 7.38 93.52 7.42 93.27 7.49 93.17 7.4 93.03 7.37 92.67 7.36 92.14 7.29 92.04 7.3 91.94 7.3 91.9 7.38 91.95 7.41 92 7.39 92.02 7.4 92.04 7.42 92.09 7.44 91.94 7.45 92.02 7.53 92.18 7.61 92.34 7.61 92.32 7.62 92.33 7.64 92.31 7.65 92.22 7.67 92.12 7.69 92.08 7.68 92.04 7.67 91.31 7.64 91.15 7.62 90.76 7.5 90.59 7.46 90.53 7.16 90.09 6.97 89.56 6.8 89.22 6.57 89.13 6.53 89.05 6.48 89 6.43 88.98 6.38 89.04 6.39 89.16 6.4 89.21 6.41 89.14 6.24 89.18 5.99 89.16 5.85 89.01 5.71"/><polygon class="cls-24" points="92.12 7.69 92.08 23.99 92.03 23.98 92.08 7.68 92.12 7.69"/><polygon class="cls-19" points="99.27 9.63 99.22 25.93 99.06 26.71 99.11 10.4 99.27 9.63"/><polygon class="cls-54" points="105.25 10.44 105.21 26.74 105.15 26.7 105.19 10.39 105.25 10.44"/><polygon class="cls-5" points="105.36 10.58 105.31 26.88 105.21 26.74 105.25 10.44 105.36 10.58"/><polygon class="cls-5" points="105.36 10.62 105.31 26.92 105.31 26.88 105.36 10.58 105.36 10.62"/><polygon class="cls-5" points="105.36 10.76 105.32 27.06 105.29 26.98 105.34 10.67 105.36 10.76"/><polygon class="cls-5" points="105.4 10.85 105.36 27.15 105.32 27.06 105.36 10.76 105.4 10.85"/><polygon class="cls-4" points="105.53 10.97 105.48 27.28 105.36 27.15 105.4 10.85 105.53 10.97"/><polygon class="cls-24" points="105.67 11.29 105.62 27.59 105.53 27.58 105.58 11.28 105.67 11.29"/><polygon class="cls-28" points="105.58 11.28 105.53 27.58 105.45 27.61 105.5 11.31 105.58 11.28"/><polygon class="cls-6" points="105.35 11.42 105.3 27.72 105.26 27.7 105.31 11.4 105.35 11.42"/><polygon class="cls-23" points="105.5 11.31 105.45 27.61 105.3 27.72 105.35 11.42 105.5 11.31"/><polygon class="cls-28" points="106.56 11.74 106.51 28.04 106.44 28.08 106.48 11.78 106.56 11.74"/><polygon class="cls-32" points="106.48 11.78 106.44 28.08 106.2 28.16 106.25 11.86 106.48 11.78"/><polygon class="cls-5" points="105.22 11.92 105.17 28.22 105.1 28.14 105.15 11.83 105.22 11.92"/><polygon class="cls-71" points="105.36 11.93 105.31 28.23 105.17 28.22 105.22 11.92 105.36 11.93"/><polygon class="cls-39" points="106.25 11.86 106.2 28.16 106.07 28.31 106.12 12.01 106.25 11.86"/><polygon class="cls-5" points="105.41 12.07 105.37 28.37 105.31 28.23 105.36 11.93 105.41 12.07"/><polygon class="cls-5" points="105.33 12.52 105.29 28.82 105.26 28.78 105.3 12.47 105.33 12.52"/><polygon class="cls-5" points="105.33 12.52 105.29 28.82 105.29 28.82 105.33 12.52 105.33 12.52"/><polygon class="cls-31" points="106.32 12.34 106.27 28.64 106.11 28.86 106.16 12.55 106.32 12.34"/><polygon class="cls-5" points="105.35 12.56 105.3 28.86 105.29 28.82 105.33 12.52 105.35 12.56"/><polygon class="cls-5" points="106.61 12.6 106.56 28.9 106.52 28.66 106.57 12.36 106.61 12.6"/><polygon class="cls-11" points="105.39 12.6 105.34 28.9 105.3 28.86 105.35 12.56 105.39 12.6"/><polygon class="cls-5" points="105.4 12.61 105.35 28.91 105.34 28.9 105.39 12.6 105.4 12.61"/><polygon class="cls-72" points="106.16 12.55 106.11 28.86 106.01 28.95 106.05 12.64 106.16 12.55"/><polygon class="cls-32" points="106.05 12.64 106.01 28.95 105.91 29.01 105.95 12.71 106.05 12.64"/><polygon class="cls-5" points="106.67 12.72 106.63 29.02 106.56 28.9 106.61 12.6 106.67 12.72"/><polygon class="cls-20" points="105.76 12.75 105.72 29.06 105.35 29.05 105.4 12.75 105.76 12.75"/><polygon class="cls-72" points="105.95 12.71 105.91 29.01 105.72 29.06 105.76 12.75 105.95 12.71"/><polygon class="cls-73" points="105.4 12.75 105.35 29.05 105.16 29.07 105.21 12.77 105.4 12.75"/><polygon class="cls-49" points="105.36 10.58 105.25 10.44 105.19 10.39 105.41 10.4 105.62 10.53 105.96 10.85 106.2 11.21 106.24 11.33 106.28 11.37 106.31 11.39 106.35 11.42 106.45 11.53 106.45 11.56 106.48 11.64 106.52 11.67 106.56 11.74 106.48 11.78 106.25 11.86 106.12 12.01 106.18 12.13 106.29 12.25 106.32 12.34 106.16 12.55 106.05 12.64 105.95 12.71 105.76 12.75 105.4 12.75 105.21 12.77 105.26 12.72 105.37 12.65 105.4 12.61 105.39 12.6 105.35 12.56 105.33 12.52 105.33 12.52 105.3 12.47 105.33 12.45 105.38 12.42 105.4 12.39 105.41 12.07 105.36 11.93 105.22 11.92 105.15 11.83 105.16 11.76 105.25 11.69 105.37 11.62 105.47 11.54 105.58 11.37 105.67 11.29 105.58 11.28 105.5 11.31 105.35 11.42 105.31 11.4 105.37 11.34 105.4 11.28 105.44 11.16 105.52 11.04 105.53 10.97 105.4 10.85 105.36 10.76 105.34 10.67 105.36 10.62 105.36 10.58"/><polygon class="cls-60" points="107.08 12.61 107.04 28.91 107.02 29.13 107.07 12.82 107.08 12.61"/><polygon class="cls-11" points="106.81 12.84 106.76 29.15 106.63 29.02 106.67 12.72 106.81 12.84"/><polygon class="cls-7" points="106.95 12.88 106.91 29.19 106.76 29.15 106.81 12.84 106.95 12.88"/><polygon class="cls-55" points="107.07 12.82 107.02 29.13 106.91 29.19 106.95 12.88 107.07 12.82"/><polygon class="cls-49" points="106.61 12.6 106.57 12.36 106.75 12.22 106.91 12.14 107.04 12.18 107.06 12.27 107.08 12.61 107.07 12.82 106.95 12.88 106.81 12.84 106.67 12.72 106.61 12.6"/><polygon class="cls-55" points="111.42 16.65 111.38 32.96 110.23 33.51 110.27 17.21 111.42 16.65"/><polygon class="cls-5" points="124.64 19.3 124.59 35.6 124.54 35.31 124.58 19.01 124.64 19.3"/><polygon class="cls-35" points="119.73 19.6 119.69 35.9 119.6 36.19 119.64 19.89 119.73 19.6"/><polygon class="cls-74" points="127.87 19.71 127.83 36.01 127.76 36.24 127.8 19.94 127.87 19.71"/><polygon class="cls-73" points="127.8 19.94 127.76 36.24 127.48 36.58 127.53 20.27 127.8 19.94"/><polygon class="cls-75" points="127.53 20.27 127.48 36.58 127.42 36.83 127.46 20.53 127.53 20.27"/><polygon class="cls-76" points="127.46 20.53 127.42 36.83 127.41 37.28 127.46 20.98 127.46 20.53"/><polygon class="cls-5" points="0.54 21.8 0.49 38.1 0 37.27 0.05 20.96 0.54 21.8"/><polygon class="cls-9" points="127.46 20.98 127.41 37.28 127.16 38.54 127.2 22.24 127.46 20.98"/><polygon class="cls-77" points="2.32 21.97 2.27 38.28 0.49 38.1 0.54 21.8 2.32 21.97"/><polygon class="cls-69" points="4.33 22.07 4.29 38.37 2.27 38.28 2.32 21.97 4.33 22.07"/><polygon class="cls-78" points="5.48 22.23 5.44 38.53 4.29 38.37 4.33 22.07 5.48 22.23"/><polygon class="cls-79" points="127.2 22.24 127.16 38.54 126.72 39.22 126.76 22.92 127.2 22.24"/><polygon class="cls-58" points="6.46 22.85 6.41 39.15 5.44 38.53 5.48 22.23 6.46 22.85"/><polygon class="cls-80" points="126.76 22.92 126.72 39.22 126.51 39.87 126.56 23.57 126.76 22.92"/><polygon class="cls-6" points="7.54 23.48 7.5 39.78 6.41 39.15 6.46 22.85 7.54 23.48"/><polygon class="cls-75" points="8.73 23.72 8.68 40.02 7.5 39.78 7.54 23.48 8.73 23.72"/><polygon class="cls-27" points="126.56 23.57 126.51 39.87 125.55 40.79 125.59 24.49 126.56 23.57"/><polygon class="cls-4" points="9.24 24.28 9.2 40.59 8.68 40.02 8.73 23.72 9.24 24.28"/><polygon class="cls-34" points="125.59 24.49 125.55 40.79 125.08 41.11 125.13 24.81 125.59 24.49"/><polygon class="cls-13" points="9.47 24.48 9.43 40.78 9.2 40.59 9.24 24.28 9.47 24.48"/><polygon class="cls-5" points="9.79 25.38 9.74 41.69 9.43 40.78 9.47 24.48 9.79 25.38"/><polygon class="cls-81" points="125.13 24.81 125.08 41.11 124.7 42.65 124.75 26.34 125.13 24.81"/><polygon class="cls-55" points="124.75 26.34 124.7 42.65 123.73 43.14 123.78 26.84 124.75 26.34"/><polygon class="cls-5" points="8.74 26.64 8.69 42.94 8.59 42.52 8.63 26.22 8.74 26.64"/><polygon class="cls-72" points="123.78 26.84 123.73 43.14 123.25 43.54 123.29 27.24 123.78 26.84"/><polygon class="cls-28" points="123.29 27.24 123.25 43.54 122.38 44.05 122.43 27.74 123.29 27.24"/><polygon class="cls-16" points="122.43 27.74 122.38 44.05 122.21 44.2 122.26 27.9 122.43 27.74"/><polygon class="cls-23" points="10.16 27.39 10.11 43.69 9.8 43.92 9.85 27.61 10.16 27.39"/><polygon class="cls-13" points="9.85 27.61 9.8 43.92 8.69 42.94 8.74 26.64 9.85 27.61"/><polygon class="cls-55" points="14.3 27.49 14.25 43.79 13.83 44.01 13.88 27.71 14.3 27.49"/><polygon class="cls-82" points="122.26 27.9 122.21 44.2 122.19 44.4 122.23 28.09 122.26 27.9"/><polygon class="cls-5" points="10.45 28.09 10.41 44.39 10.11 43.69 10.16 27.39 10.45 28.09"/><polygon class="cls-72" points="13.88 27.71 13.83 44.01 11.85 44.46 11.89 28.16 13.88 27.71"/><polygon class="cls-35" points="122.23 28.09 122.19 44.4 122.01 45 122.05 28.69 122.23 28.09"/><polygon class="cls-5" points="10.7 28.48 10.66 44.78 10.41 44.39 10.45 28.09 10.7 28.48"/><polygon class="cls-83" points="11.89 28.16 11.85 44.46 10.66 44.78 10.7 28.48 11.89 28.16"/><polygon class="cls-66" points="122.05 28.69 122.01 45 121.36 45.87 121.41 29.56 122.05 28.69"/><polygon class="cls-5" points="15.94 29.79 15.9 46.09 14.25 43.79 14.3 27.49 15.94 29.79"/><polygon class="cls-41" points="121.41 29.56 121.36 45.87 121.15 46.5 121.2 30.2 121.41 29.56"/><polygon class="cls-23" points="121.24 30.41 121.19 46.71 120.23 46.99 120.28 30.69 121.24 30.41"/><polygon class="cls-65" points="119.92 30.75 119.88 47.06 119.12 47.05 119.16 30.74 119.92 30.75"/><polygon class="cls-16" points="120.28 30.69 120.23 46.99 119.88 47.06 119.92 30.75 120.28 30.69"/><polygon class="cls-64" points="119.16 30.74 119.12 47.05 118.72 47.09 118.76 30.78 119.16 30.74"/><polygon class="cls-55" points="118.76 30.78 118.72 47.09 118.37 47.24 118.41 30.93 118.76 30.78"/><polygon class="cls-55" points="118.41 30.93 118.37 47.24 117.03 47.98 117.08 31.68 118.41 30.93"/><polygon class="cls-27" points="117.08 31.68 117.03 47.98 116.74 48.26 116.78 31.96 117.08 31.68"/><polygon class="cls-10" points="116.78 31.96 116.74 48.26 116.48 48.72 116.53 32.42 116.78 31.96"/><polygon class="cls-11" points="16.68 32.19 16.64 48.49 15.79 47.7 15.84 31.4 16.68 32.19"/><polygon class="cls-5" points="16.42 32.86 16.37 49.17 16.18 48.76 16.23 32.46 16.42 32.86"/><polygon class="cls-5" points="16.48 33.4 16.43 49.7 16.37 49.17 16.42 32.86 16.48 33.4"/><polygon class="cls-11" points="16.84 33.74 16.8 50.04 16.43 49.7 16.48 33.4 16.84 33.74"/><polygon class="cls-5" points="17.02 33.98 16.97 50.28 16.8 50.04 16.84 33.74 17.02 33.98"/><polygon class="cls-84" points="117.27 34.1 117.22 50.4 117.17 50.72 117.21 34.41 117.27 34.1"/><polygon class="cls-5" points="17.13 34.22 17.09 50.53 16.97 50.28 17.02 33.98 17.13 34.22"/><polygon class="cls-5" points="17.17 34.48 17.13 50.78 17.09 50.53 17.13 34.22 17.17 34.48"/><polygon class="cls-26" points="117.21 34.41 117.17 50.72 116.56 51.36 116.6 35.06 117.21 34.41"/><polygon class="cls-26" points="116.6 35.06 116.56 51.36 115.82 52.15 115.87 35.84 116.6 35.06"/><polygon class="cls-5" points="17.3 35.7 17.26 52 17.08 51.36 17.12 35.06 17.3 35.7"/><polygon class="cls-55" points="115.87 35.84 115.82 52.15 115.04 52.52 115.08 36.22 115.87 35.84"/><polygon class="cls-55" points="115.08 36.22 115.04 52.52 114.72 52.67 114.77 36.37 115.08 36.22"/><polygon class="cls-28" points="114.77 36.37 114.72 52.67 114.03 52.93 114.07 36.62 114.77 36.37"/><polygon class="cls-85" points="114.07 36.62 114.03 52.93 113.68 52.99 113.73 36.69 114.07 36.62"/><polygon class="cls-15" points="113.3 36.71 113.25 53.01 112.85 52.99 112.9 36.69 113.3 36.71"/><polygon class="cls-31" points="113.73 36.69 113.68 52.99 113.25 53.01 113.3 36.71 113.73 36.69"/><polygon class="cls-55" points="112.9 36.69 112.85 52.99 111.91 53.51 111.96 37.21 112.9 36.69"/><polygon class="cls-27" points="111.96 37.21 111.91 53.51 111.27 54.14 111.32 37.84 111.96 37.21"/><polygon class="cls-10" points="111.41 38.1 111.36 54.41 111.17 54.74 111.22 38.44 111.41 38.1"/><polygon class="cls-59" points="14.99 38.65 14.95 54.96 14.67 54.82 14.71 38.51 14.99 38.65"/><polygon class="cls-70" points="111.22 38.44 111.17 54.74 110.58 55.37 110.63 39.06 111.22 38.44"/><polygon class="cls-18" points="15.49 39.02 15.45 55.32 14.95 54.96 14.99 38.65 15.49 39.02"/><polygon class="cls-32" points="110.63 39.06 110.58 55.37 109.02 55.88 109.06 39.58 110.63 39.06"/><polygon class="cls-86" points="109.06 39.58 109.02 55.88 108.64 56.31 108.68 40.01 109.06 39.58"/><polygon class="cls-63" points="80.64 39.93 80.59 56.23 79.5 56.27 79.54 39.97 80.64 39.93"/><polygon class="cls-10" points="83.37 40.03 83.32 56.33 80.59 56.23 80.64 39.93 83.37 40.03"/><polygon class="cls-39" points="79.54 39.97 79.5 56.27 78.86 56.33 78.91 40.02 79.54 39.97"/><polygon class="cls-5" points="16.18 39.88 16.14 56.18 15.45 55.32 15.49 39.02 16.18 39.88"/><polygon class="cls-23" points="78.91 40.02 78.86 56.33 78.55 56.41 78.6 40.11 78.91 40.02"/><polygon class="cls-52" points="85.06 40.15 85.02 56.46 83.32 56.33 83.37 40.03 85.06 40.15"/><polygon class="cls-21" points="85.54 40.2 85.49 56.51 85.02 56.46 85.06 40.15 85.54 40.2"/><polygon class="cls-55" points="108.68 40.01 108.64 56.31 107.98 56.65 108.02 40.34 108.68 40.01"/><polygon class="cls-71" points="108.02 40.34 107.98 56.65 105.69 56.52 105.73 40.22 108.02 40.34"/><polygon class="cls-44" points="105.73 40.22 105.69 56.52 104.21 56.75 104.26 40.45 105.73 40.22"/><polygon class="cls-11" points="16.62 40.28 16.57 56.58 16.14 56.18 16.18 39.88 16.62 40.28"/><polygon class="cls-6" points="86.12 40.54 86.07 56.84 85.49 56.51 85.54 40.2 86.12 40.54"/><polygon class="cls-34" points="104.26 40.45 104.21 56.75 103.56 56.96 103.61 40.66 104.26 40.45"/><polygon class="cls-87" points="86.41 40.64 86.36 56.94 86.07 56.84 86.12 40.54 86.41 40.64"/><polygon class="cls-88" points="17.19 40.59 17.15 56.89 16.57 56.58 16.62 40.28 17.19 40.59"/><polygon class="cls-89" points="87.11 40.8 87.07 57.1 86.36 56.94 86.41 40.64 87.11 40.8"/><polygon class="cls-29" points="17.9 40.84 17.85 57.14 17.15 56.89 17.19 40.59 17.9 40.84"/><polygon class="cls-17" points="87.91 41.1 87.86 57.41 87.07 57.1 87.11 40.8 87.91 41.1"/><polygon class="cls-19" points="18.66 41.02 18.61 57.32 17.85 57.14 17.9 40.84 18.66 41.02"/><polygon class="cls-39" points="103.64 41.02 103.59 57.32 103.3 57.67 103.34 41.36 103.64 41.02"/><polygon class="cls-80" points="20.12 41.27 20.08 57.57 18.61 57.32 18.66 41.02 20.12 41.27"/><polygon class="cls-28" points="79.06 40.75 79.01 57.05 77.72 57.86 77.76 41.55 79.06 40.75"/><polygon class="cls-61" points="88.68 41.67 88.63 57.97 87.86 57.41 87.91 41.1 88.68 41.67"/><polygon class="cls-87" points="21.46 41.74 21.42 58.04 20.08 57.57 20.12 41.27 21.46 41.74"/><polygon class="cls-29" points="103.34 41.36 103.3 57.67 103.28 58.52 103.33 42.22 103.34 41.36"/><polygon class="cls-50" points="23.63 42.24 23.58 58.54 21.42 58.04 21.46 41.74 23.63 42.24"/><polygon class="cls-29" points="24.31 42.48 24.27 58.79 23.58 58.54 23.63 42.24 24.31 42.48"/><polygon class="cls-87" points="91.74 42.74 91.69 59.04 88.63 57.97 88.68 41.67 91.74 42.74"/><polygon class="cls-32" points="77.76 41.55 77.72 57.86 75.71 59.18 75.76 42.87 77.76 41.55"/><polygon class="cls-69" points="75.76 42.87 75.71 59.18 74.81 59.14 74.86 42.84 75.76 42.87"/><polygon class="cls-73" points="74.86 42.84 74.81 59.14 73.93 59.21 73.98 42.9 74.86 42.84"/><polygon class="cls-55" points="103.33 42.22 103.28 58.52 101.73 59.31 101.78 43.01 103.33 42.22"/><polygon class="cls-61" points="24.77 42.82 24.72 59.12 24.27 58.79 24.31 42.48 24.77 42.82"/><polygon class="cls-13" points="92.08 43.03 92.03 59.33 91.69 59.04 91.74 42.74 92.08 43.03"/><polygon class="cls-58" points="92.42 43.25 92.38 59.55 92.03 59.33 92.08 43.03 92.42 43.25"/><polygon class="cls-5" points="24.92 43.16 24.87 59.46 24.72 59.12 24.77 42.82 24.92 43.16"/><polygon class="cls-28" points="73.98 42.9 73.93 59.21 71.88 60 71.93 43.7 73.98 42.9"/><polygon class="cls-30" points="71.93 43.7 71.88 60 71.22 60 71.27 43.7 71.93 43.7"/><polygon class="cls-5" points="92.94 43.91 92.89 60.22 92.38 59.55 92.42 43.25 92.94 43.91"/><polygon class="cls-5" points="25.1 43.83 25.05 60.14 24.87 59.46 24.92 43.16 25.1 43.83"/><polygon class="cls-60" points="93.66 44.15 93.61 60.45 92.89 60.22 92.94 43.91 93.66 44.15"/><polygon class="cls-55" points="71.27 43.7 71.22 60 70.01 60.54 70.05 44.24 71.27 43.7"/><polygon class="cls-5" points="25.38 44.15 25.34 60.46 25.05 60.14 25.1 43.83 25.38 44.15"/><polygon class="cls-10" points="98.58 44.36 98.53 60.67 96.23 60.59 96.27 44.28 98.58 44.36"/><polygon class="cls-22" points="70.05 44.24 70.01 60.54 69.5 60.6 69.54 44.3 70.05 44.24"/><polygon class="cls-27" points="96.27 44.28 96.23 60.59 95.57 60.69 95.62 44.39 96.27 44.28"/><polygon class="cls-90" points="95.62 44.39 95.57 60.69 93.61 60.45 93.66 44.15 95.62 44.39"/><polygon class="cls-59" points="25.67 44.3 25.63 60.6 25.34 60.46 25.38 44.15 25.67 44.3"/><polygon class="cls-28" points="101.78 43.01 101.73 59.31 98.94 60.9 98.99 44.6 101.78 43.01"/><polygon class="cls-91" points="98.99 44.6 98.94 60.9 98.53 60.67 98.58 44.36 98.99 44.6"/><polygon class="cls-37" points="69.54 44.3 69.5 60.6 68.16 60.92 68.2 44.62 69.54 44.3"/><polygon class="cls-42" points="26.61 44.61 26.56 60.91 25.63 60.6 25.67 44.3 26.61 44.61"/><polygon class="cls-28" points="68.2 44.62 68.16 60.92 67.46 61.18 67.5 44.88 68.2 44.62"/><polygon class="cls-31" points="66.42 44.89 66.37 61.2 65.8 61.23 65.85 44.93 66.42 44.89"/><polygon class="cls-46" points="67.24 45.01 67.19 61.31 66.37 61.2 66.42 44.89 67.24 45.01"/><polygon class="cls-55" points="67.5 44.88 67.46 61.18 67.19 61.31 67.24 45.01 67.5 44.88"/><polygon class="cls-32" points="65.85 44.93 65.8 61.23 65.46 61.35 65.51 45.05 65.85 44.93"/><polygon class="cls-62" points="27.52 45.01 27.48 61.31 26.56 60.91 26.61 44.61 27.52 45.01"/><polygon class="cls-92" points="27.85 45.11 27.81 61.41 27.48 61.31 27.52 45.01 27.85 45.11"/><polygon class="cls-78" points="28.36 45.18 28.32 61.48 27.81 61.41 27.85 45.11 28.36 45.18"/><polygon class="cls-31" points="35.36 45.2 35.32 61.51 34.37 61.55 34.41 45.25 35.36 45.2"/><polygon class="cls-38" points="29.39 45.26 29.35 61.56 28.32 61.48 28.36 45.18 29.39 45.26"/><polygon class="cls-69" points="37.42 45.29 37.38 61.6 35.32 61.51 35.36 45.2 37.42 45.29"/><polygon class="cls-85" points="34.41 45.25 34.37 61.55 33.93 61.64 33.98 45.34 34.41 45.25"/><polygon class="cls-47" points="38.44 45.42 38.4 61.72 37.38 61.6 37.42 45.29 38.44 45.42"/><polygon class="cls-28" points="65.51 45.05 65.46 61.35 64.62 61.86 64.66 45.56 65.51 45.05"/><polygon class="cls-85" points="33.98 45.34 33.93 61.64 32.97 61.82 33.02 45.52 33.98 45.34"/><polygon class="cls-40" points="30.62 45.58 30.57 61.88 29.35 61.56 29.39 45.26 30.62 45.58"/><polygon class="cls-26" points="64.66 45.56 64.62 61.86 63.56 62 63.61 45.7 64.66 45.56"/><polygon class="cls-46" points="31.02 45.64 30.97 61.94 30.57 61.88 30.62 45.58 31.02 45.64"/><polygon class="cls-14" points="33.02 45.52 32.97 61.82 31.41 61.95 31.45 45.64 33.02 45.52"/><polygon class="cls-65" points="31.45 45.64 31.41 61.95 30.97 61.94 31.02 45.64 31.45 45.64"/><polygon class="cls-81" points="40.01 45.75 39.97 62.05 38.4 61.72 38.44 45.42 40.01 45.75"/><polygon class="cls-60" points="41.08 46.1 41.04 62.4 39.97 62.05 40.01 45.75 41.08 46.1"/><polygon class="cls-5" points="61.36 46.21 61.31 62.52 61.16 62.28 61.21 45.98 61.36 46.21"/><polygon class="cls-62" points="41.59 46.31 41.54 62.62 41.04 62.4 41.08 46.1 41.59 46.31"/><polygon class="cls-6" points="61.68 46.4 61.64 62.7 61.31 62.52 61.36 46.21 61.68 46.4"/><polygon class="cls-32" points="61.21 45.98 61.16 62.28 59.91 62.7 59.95 46.4 61.21 45.98"/><polygon class="cls-67" points="62.09 46.48 62.04 62.78 61.64 62.7 61.68 46.4 62.09 46.48"/><polygon class="cls-55" points="63.61 45.7 63.56 62 62.04 62.78 62.09 46.48 63.61 45.7"/><polygon class="cls-60" points="42.39 46.57 42.34 62.88 41.54 62.62 41.59 46.31 42.39 46.57"/><polygon class="cls-73" points="59.95 46.4 59.91 62.7 59.67 63 59.71 46.7 59.95 46.4"/><polygon class="cls-31" points="57.27 46.7 57.22 63 56.43 63.05 56.48 46.74 57.27 46.7"/><polygon class="cls-93" points="57.51 46.84 57.47 63.15 57.22 63 57.27 46.7 57.51 46.84"/><polygon class="cls-94" points="57.85 46.98 57.8 63.28 57.47 63.15 57.51 46.84 57.85 46.98"/><polygon class="cls-95" points="59.71 46.7 59.67 63 58.16 63.31 58.21 47.01 59.71 46.7"/><polygon class="cls-24" points="58.21 47.01 58.16 63.31 57.8 63.28 57.85 46.98 58.21 47.01"/><polygon class="cls-90" points="46.01 47.03 45.96 63.33 42.34 62.88 42.39 46.57 46.01 47.03"/><polygon class="cls-34" points="56.48 46.74 56.43 63.05 54.68 63.6 54.73 47.29 56.48 46.74"/><polygon class="cls-19" points="47.68 47.43 47.63 63.73 45.96 63.33 46.01 47.03 47.68 47.43"/><polygon class="cls-42" points="48.44 47.68 48.39 63.98 47.63 63.73 47.68 47.43 48.44 47.68"/><polygon class="cls-42" points="49.24 47.95 49.2 64.25 48.39 63.98 48.44 47.68 49.24 47.95"/><polygon class="cls-28" points="54.73 47.29 54.68 63.6 53.37 64.37 53.41 48.06 54.73 47.29"/><polygon class="cls-67" points="50.24 48.14 50.19 64.44 49.2 64.25 49.24 47.95 50.24 48.14"/><polygon class="cls-83" points="53.41 48.06 53.37 64.37 52.97 64.47 53.01 48.17 53.41 48.06"/><polygon class="cls-70" points="53.01 48.17 52.97 64.47 52.53 64.54 52.58 48.23 53.01 48.17"/><polygon class="cls-21" points="51.27 48.24 51.22 64.55 50.19 64.44 50.24 48.14 51.27 48.24"/><polygon class="cls-73" points="52.58 48.23 52.53 64.54 52.15 64.57 52.19 48.26 52.58 48.23"/><polygon class="cls-49" points="111.22 38.44 110.63 39.06 109.06 39.58 108.68 40.01 108.02 40.34 105.73 40.22 104.26 40.45 103.61 40.66 103.64 41.02 103.34 41.36 103.33 42.22 101.78 43.01 98.99 44.6 98.58 44.36 96.27 44.28 95.62 44.39 93.66 44.15 92.94 43.91 92.42 43.25 92.08 43.03 91.74 42.74 88.68 41.67 87.91 41.1 87.11 40.8 86.41 40.64 86.12 40.54 85.54 40.2 85.06 40.15 83.37 40.03 80.64 39.93 79.54 39.97 78.91 40.02 78.6 40.11 79.06 40.75 77.76 41.55 75.76 42.87 74.86 42.84 73.98 42.9 71.93 43.7 71.27 43.7 70.05 44.24 69.54 44.3 68.2 44.62 67.5 44.88 67.24 45.01 66.42 44.89 65.85 44.93 65.51 45.05 64.66 45.56 63.61 45.7 62.09 46.48 61.68 46.4 61.36 46.21 61.21 45.98 59.95 46.4 59.71 46.7 58.21 47.01 57.85 46.98 57.51 46.84 57.27 46.7 56.48 46.74 54.73 47.29 53.41 48.06 53.01 48.17 52.58 48.23 52.19 48.26 51.27 48.24 50.24 48.14 49.24 47.95 48.44 47.68 47.68 47.43 46.01 47.03 42.39 46.57 41.59 46.31 41.08 46.1 40.01 45.75 38.44 45.42 37.42 45.29 35.36 45.2 34.41 45.25 33.98 45.34 33.02 45.52 31.45 45.64 31.02 45.64 30.62 45.58 29.39 45.26 28.36 45.18 27.85 45.11 27.52 45.01 26.61 44.61 25.67 44.3 25.38 44.15 25.1 43.83 24.92 43.16 24.77 42.82 24.31 42.48 23.63 42.24 21.46 41.74 20.12 41.27 18.66 41.02 17.9 40.84 17.19 40.59 16.62 40.28 16.18 39.88 15.49 39.02 14.99 38.65 14.71 38.51 16.13 37.57 16.54 37.42 16.82 37.28 17.19 36.17 17.2 35.9 17.3 35.7 17.12 35.06 17.17 34.48 17.13 34.22 17.02 33.98 16.84 33.74 16.48 33.4 16.42 32.86 16.23 32.46 16.68 32.19 15.84 31.4 15.94 29.98 15.94 29.79 14.3 27.49 13.88 27.71 11.89 28.16 10.7 28.48 10.45 28.09 10.16 27.39 9.85 27.61 8.74 26.64 8.63 26.22 9.79 25.38 9.47 24.48 9.24 24.28 8.73 23.72 7.54 23.48 6.46 22.85 5.48 22.23 4.33 22.07 2.32 21.97 0.54 21.8 0.05 20.96 0.41 20.45 0.63 20.18 0.75 19.96 1.04 19.85 22.05 7.71 22.77 7.58 23.54 7.45 25.75 7.08 27.97 6.71 29.64 6.44 30.19 6.35 32.4 5.98 34.61 5.61 35.08 5.53 36.82 5.25 39.03 4.88 41.25 4.51 43.46 4.14 45.67 3.77 47.89 3.41 50.09 3.04 52.31 2.68 54.52 2.31 56.74 1.94 57.53 1.81 58.96 1.57 59.8 1.43 60.9 1.81 61.94 2.25 62.89 3.2 64.27 3.22 65.29 3.22 66.26 3.13 67.24 3.03 68.21 2.94 69.18 2.85 70.15 2.75 71.12 2.66 72.02 2.58 73.07 2.48 74.04 2.38 75.01 2.29 75.98 2.2 76.96 2.1 77.93 2.01 78.9 1.92 79.88 1.83 80.84 1.73 82.39 2.75 82.02 2.76 82.67 3.23 82.89 3.39 83.29 3.84 83.45 4.13 83.55 4.43 84.33 4.92 84.98 5.7 85.18 6.03 85.3 6.37 85.22 6.57 85.75 6.83 85.95 7.26 86.03 7.48 86.69 7.94 87.91 8.74 88.84 8.86 89.71 9.44 92.47 9.18 92.96 9.2 95.51 9.52 95.75 9.65 97.14 9.05 98.62 9.24 99.27 9.63 99.11 10.4 100.02 11.94 100.2 12.13 100.81 12.62 101.42 12.84 102.05 13.12 102.18 13.58 102.19 13.07 102.71 12.92 103.39 12.84 103.75 13.19 104.12 13.33 104.39 13.48 105 14 105.38 14.48 105.7 14.9 106.87 15.92 107.52 16.02 108.71 16.53 109.11 16.53 110.91 16.66 111.42 16.65 110.27 17.21 110.78 16.92 113.6 17.31 114.25 17.64 116.9 18.64 118.31 19.13 119.73 19.6 119.64 19.89 120.02 19.96 122.44 19.74 122.83 19.95 123.15 19.46 123.66 19.3 124.64 19.3 124.58 19.01 126.28 19.17 127.38 19.14 127.87 19.71 127.8 19.94 127.53 20.27 127.46 20.53 127.46 20.98 127.2 22.24 126.76 22.92 126.56 23.57 125.59 24.49 125.13 24.81 124.75 26.34 123.78 26.84 123.29 27.24 122.43 27.74 122.26 27.9 122.23 28.09 122.05 28.69 121.41 29.56 121.2 30.2 121.24 30.41 120.28 30.69 119.92 30.75 119.16 30.74 118.76 30.78 118.41 30.93 117.08 31.68 116.78 31.96 116.53 32.42 116.82 32.78 117.1 33.18 117.27 34.1 117.21 34.41 116.6 35.06 115.87 35.84 115.08 36.22 114.77 36.37 114.07 36.62 113.73 36.69 113.3 36.71 112.9 36.69 111.96 37.21 111.32 37.84 111.41 38.1 111.22 38.44"/><polygon class="cls-65" points="52.19 48.26 52.15 64.57 51.22 64.55 51.27 48.24 52.19 48.26"/></g></g></g></svg>