<svg xmlns="http://www.w3.org/2000/svg" viewBox="0 0 45.45 34.49"><defs><style>.cls-1{isolation:isolate;}.cls-2{fill:#651919;}.cls-3{fill:#801f1f;}.cls-4{fill:#a32828;}.cls-5{fill:#5b1616;}.cls-6{fill:#a72929;}.cls-7{fill:#501414;}.cls-8{fill:#9e2727;}.cls-9{fill:#a52929;}.cls-10{fill:#9d2727;}.cls-11{fill:#751d1d;}.cls-12{fill:#902323;}.cls-13{fill:#481212;}.cls-14{fill:#4c1212;}.cls-15{fill:#4e1313;}.cls-16{fill:#942424;}.cls-17{fill:#5f1717;}.cls-18{fill:#7f1f1f;}.cls-19{fill:#a02727;}.cls-20{fill:#8e2323;}.cls-21{fill:#491212;}.cls-22{fill:#872121;}.cls-23{fill:#4b1212;}.cls-24{fill:#892222;}.cls-25{fill:#a52828;}.cls-26{fill:#a82929;}.cls-27{fill:#791e1e;}.cls-28{fill:#8b2222;}.cls-29{fill:#9b2626;}.cls-30{fill:#4c1313;}.cls-31{fill:#a22828;}.cls-32{fill:#551515;}.cls-33{fill:#741d1d;}.cls-34{fill:#571515;}.cls-35{fill:#511414;}.cls-36{fill:#6f1b1b;}.cls-37{fill:#761d1d;}.cls-38{fill:#531414;}.cls-39{fill:#5c1717;}.cls-40{fill:#6b1a1a;}.cls-41{fill:#711c1c;}.cls-42{fill:#922424;}.cls-43{fill:#691a1a;}.cls-44{fill:#882121;}.cls-45{fill:#a62929;}.cls-46{fill:#a92929;}.cls-47{fill:#852121;}.cls-48{fill:#641919;}.cls-49{fill:#a12828;}.cls-50{fill:#521414;}.cls-51{fill:#6e1b1b;}.cls-52{fill:#721c1c;}.cls-53{fill:#7c1e1e;}.cls-54{fill:#661919;}.cls-55{fill:#621818;}.cls-56{fill:#a12727;}.cls-57{fill:#992626;}.cls-58{fill:#8f2323;}.cls-59{fill:#832020;}.cls-60{fill:#842020;}.cls-61{fill:#601717;}.cls-62{fill:#731c1c;}.cls-63{fill:#671919;}.cls-64{fill:#9a2626;}.cls-65{fill:#541414;}.cls-66{fill:#541515;}.cls-67{fill:#611818;}.cls-68{fill:#5c1616;}.cls-69{fill:#932424;}.cls-70{fill:#9f2727;}.cls-71{fill:#952525;}.cls-72{fill:#972525;}.cls-73{fill:#7b1e1e;}.cls-74{fill:#591616;}.cls-75{fill:#822020;}.cls-76{fill:#6c1a1a;}.cls-77{fill:#892121;}.cls-78{fill:#982525;}.cls-79{fill:#9c2626;}.cls-80{fill:#681919;}.cls-81{fill:#812020;}.cls-82{fill:#c83131;}</style></defs><title>Togo</title><g id="Layer_2" data-name="Layer 2"><g id="Layer_1-2" data-name="Layer 1"><g class="cls-1"><polygon class="cls-2" points="9.17 1.04 9.12 17.34 9.11 17.75 9.16 1.44 9.17 1.04"/><polygon class="cls-3" points="1.74 3.13 1.69 19.43 1.44 19.4 1.48 3.1 1.74 3.13"/><polygon class="cls-4" points="1.48 3.1 1.44 19.4 1.13 19.48 1.18 3.17 1.48 3.1"/><polygon class="cls-5" points="1.97 3.24 1.92 19.54 1.69 19.43 1.74 3.13 1.97 3.24"/><polygon class="cls-6" points="1.18 3.17 1.13 19.48 1.01 19.55 1.06 3.25 1.18 3.17"/><polygon class="cls-7" points="2.18 3.39 2.14 19.69 1.92 19.54 1.97 3.24 2.18 3.39"/><polygon class="cls-8" points="1.06 3.25 1.01 19.55 0.85 19.72 0.89 3.41 1.06 3.25"/><polygon class="cls-9" points="0.89 3.41 0.85 19.72 0.74 19.79 0.78 3.49 0.89 3.41"/><polygon class="cls-6" points="0.78 3.49 0.74 19.79 0.58 19.85 0.63 3.55 0.78 3.49"/><polygon class="cls-10" points="0.63 3.55 0.58 19.85 0.37 19.88 0.42 3.58 0.63 3.55"/><polygon class="cls-11" points="0.21 3.58 0.16 19.89 0 19.85 0.05 3.55 0.21 3.58"/><polygon class="cls-12" points="0.42 3.58 0.37 19.88 0.16 19.89 0.21 3.58 0.42 3.58"/><polygon class="cls-13" points="2.27 3.67 2.22 19.98 2.14 19.69 2.18 3.39 2.27 3.67"/><polygon class="cls-14" points="2.88 4.18 2.83 20.49 2.22 19.98 2.27 3.67 2.88 4.18"/><polygon class="cls-15" points="3.1 4.35 3.05 20.65 2.83 20.49 2.88 4.18 3.1 4.35"/><polygon class="cls-13" points="3.08 4.6 3.04 20.91 3.01 20.79 3.06 4.49 3.08 4.6"/><polygon class="cls-16" points="9.5 4.7 9.46 21 9.2 21.01 9.25 4.71 9.5 4.7"/><polygon class="cls-13" points="3.15 4.7 3.11 21.01 3.04 20.91 3.08 4.6 3.15 4.7"/><polygon class="cls-17" points="8.16 4.83 8.12 21.13 7.81 21 7.86 4.69 8.16 4.83"/><polygon class="cls-18" points="8.36 4.85 8.31 21.15 8.12 21.13 8.16 4.83 8.36 4.85"/><polygon class="cls-12" points="8.57 4.85 8.52 21.15 8.31 21.15 8.36 4.85 8.57 4.85"/><polygon class="cls-18" points="8.75 4.87 8.7 21.17 8.52 21.15 8.57 4.85 8.75 4.87"/><polygon class="cls-19" points="7.86 4.69 7.81 21 7.6 21.18 7.65 4.88 7.86 4.69"/><polygon class="cls-15" points="3.4 4.89 3.35 21.19 3.11 21.01 3.15 4.7 3.4 4.89"/><polygon class="cls-6" points="9.25 4.71 9.2 21.01 8.87 21.23 8.92 4.92 9.25 4.71"/><polygon class="cls-20" points="6.31 4.92 6.26 21.23 6.05 21.23 6.09 4.92 6.31 4.92"/><polygon class="cls-21" points="9.53 4.94 9.48 21.24 9.41 21.16 9.46 4.86 9.53 4.94"/><polygon class="cls-22" points="5.18 4.95 5.13 21.26 5.02 21.25 5.06 4.95 5.18 4.95"/><polygon class="cls-23" points="3.47 4.95 3.42 21.26 3.35 21.19 3.4 4.89 3.47 4.95"/><polygon class="cls-24" points="7.33 4.97 7.28 21.27 6.26 21.23 6.31 4.92 7.33 4.97"/><polygon class="cls-25" points="7.65 4.88 7.6 21.18 7.28 21.27 7.33 4.97 7.65 4.88"/><polygon class="cls-13" points="8.82 4.98 8.78 21.28 8.7 21.17 8.75 4.87 8.82 4.98"/><polygon class="cls-26" points="8.92 4.92 8.87 21.23 8.78 21.28 8.82 4.98 8.92 4.92"/><polygon class="cls-27" points="5.4 5 5.35 21.3 5.13 21.26 5.18 4.95 5.4 5"/><polygon class="cls-28" points="5.52 5 5.47 21.3 5.35 21.3 5.4 5 5.52 5"/><polygon class="cls-29" points="6.09 4.92 6.05 21.23 5.47 21.3 5.52 5 6.09 4.92"/><polygon class="cls-30" points="9.62 5.01 9.57 21.32 9.48 21.24 9.53 4.94 9.62 5.01"/><polygon class="cls-4" points="5.06 4.95 5.02 21.25 4.64 21.34 4.69 5.04 5.06 4.95"/><polygon class="cls-21" points="3.59 5.08 3.55 21.38 3.42 21.26 3.47 4.95 3.59 5.08"/><polygon class="cls-13" points="9.67 5.09 9.63 21.4 9.57 21.32 9.62 5.01 9.67 5.09"/><polygon class="cls-31" points="4.69 5.04 4.64 21.34 4.2 21.44 4.25 5.14 4.69 5.04"/><polygon class="cls-32" points="3.73 5.16 3.69 21.46 3.55 21.38 3.59 5.08 3.73 5.16"/><polygon class="cls-19" points="4.25 5.14 4.2 21.44 3.89 21.5 3.94 5.2 4.25 5.14"/><polygon class="cls-33" points="3.94 5.2 3.89 21.5 3.69 21.46 3.73 5.16 3.94 5.2"/><polygon class="cls-34" points="9.9 5.22 9.85 21.52 9.63 21.4 9.67 5.09 9.9 5.22"/><polygon class="cls-35" points="10.35 5.51 10.3 21.82 9.85 21.52 9.9 5.22 10.35 5.51"/><polygon class="cls-36" points="10.58 5.58 10.54 21.88 10.3 21.82 10.35 5.51 10.58 5.58"/><polygon class="cls-8" points="10.91 5.52 10.86 21.82 10.54 21.88 10.58 5.58 10.91 5.52"/><polygon class="cls-17" points="11.06 5.59 11.02 21.89 10.86 21.82 10.91 5.52 11.06 5.59"/><polygon class="cls-13" points="11.11 5.74 11.07 22.04 11.02 21.89 11.06 5.59 11.11 5.74"/><polygon class="cls-13" points="11.17 6 11.13 22.31 10.95 22.09 10.99 5.78 11.17 6"/><polygon class="cls-37" points="11.41 6.05 11.36 22.36 11.13 22.31 11.17 6 11.41 6.05"/><polygon class="cls-38" points="11.63 6.19 11.58 22.49 11.36 22.36 11.41 6.05 11.63 6.19"/><polygon class="cls-13" points="11.64 6.29 11.59 22.59 11.58 22.49 11.63 6.19 11.64 6.29"/><polygon class="cls-13" points="11.69 6.38 11.64 22.68 11.59 22.59 11.64 6.29 11.69 6.38"/><polygon class="cls-23" points="11.77 6.44 11.72 22.75 11.64 22.68 11.69 6.38 11.77 6.44"/><polygon class="cls-5" points="12.14 6.62 12.1 22.93 11.72 22.75 11.77 6.44 12.14 6.62"/><polygon class="cls-21" points="12.52 7.01 12.47 23.31 12.1 22.93 12.14 6.62 12.52 7.01"/><polygon class="cls-39" points="12.65 7.07 12.61 23.38 12.47 23.31 12.52 7.01 12.65 7.07"/><polygon class="cls-3" points="12.97 7.11 12.93 23.41 12.61 23.38 12.65 7.07 12.97 7.11"/><polygon class="cls-40" points="13.11 7.15 13.06 23.45 12.93 23.41 12.97 7.11 13.11 7.15"/><polygon class="cls-39" points="13.24 7.21 13.19 23.52 13.06 23.45 13.11 7.15 13.24 7.21"/><polygon class="cls-30" points="13.34 7.29 13.29 23.59 13.19 23.52 13.24 7.21 13.34 7.29"/><polygon class="cls-13" points="13.35 7.38 13.3 23.68 13.29 23.59 13.34 7.29 13.35 7.38"/><polygon class="cls-41" points="14.04 7.46 13.99 23.76 13.79 23.72 13.84 7.41 14.04 7.46"/><polygon class="cls-26" points="13.84 7.41 13.79 23.72 13.64 23.77 13.69 7.47 13.84 7.41"/><polygon class="cls-13" points="14.08 7.54 14.04 23.84 13.99 23.76 14.04 7.46 14.08 7.54"/><polygon class="cls-42" points="16.32 7.6 16.27 23.9 16.04 23.91 16.09 7.61 16.32 7.6"/><polygon class="cls-13" points="12.81 7.65 12.76 23.95 12.67 23.79 12.71 7.48 12.81 7.65"/><polygon class="cls-43" points="16.51 7.66 16.47 23.97 16.27 23.9 16.32 7.6 16.51 7.66"/><polygon class="cls-8" points="13.69 7.47 13.64 23.77 13.44 23.97 13.48 7.67 13.69 7.47"/><polygon class="cls-44" points="15.83 7.69 15.78 23.99 15.01 23.95 15.06 7.64 15.83 7.69"/><polygon class="cls-45" points="16.09 7.61 16.04 23.91 15.78 23.99 15.83 7.69 16.09 7.61"/><polygon class="cls-46" points="15.06 7.64 15.01 23.95 14.86 24.01 14.91 7.71 15.06 7.64"/><polygon class="cls-34" points="13.01 7.76 12.96 24.06 12.76 23.95 12.81 7.65 13.01 7.76"/><polygon class="cls-47" points="13.26 7.77 13.21 24.08 12.96 24.06 13.01 7.76 13.26 7.77"/><polygon class="cls-46" points="13.48 7.67 13.44 23.97 13.21 24.08 13.26 7.77 13.48 7.67"/><polygon class="cls-6" points="14.91 7.71 14.86 24.01 14.62 24.17 14.66 7.87 14.91 7.71"/><polygon class="cls-23" points="16.79 7.9 16.74 24.2 16.47 23.97 16.51 7.66 16.79 7.9"/><polygon class="cls-4" points="14.66 7.87 14.62 24.17 14.49 24.27 14.54 7.97 14.66 7.87"/><polygon class="cls-35" points="16.97 8.02 16.93 24.32 16.74 24.2 16.79 7.9 16.97 8.02"/><polygon class="cls-12" points="14.54 7.97 14.49 24.27 14.43 24.36 14.48 8.05 14.54 7.97"/><polygon class="cls-21" points="17.03 8.08 16.98 24.38 16.93 24.32 16.97 8.02 17.03 8.08"/><polygon class="cls-26" points="13.95 8.06 13.9 24.36 13.81 24.42 13.86 8.11 13.95 8.06"/><polygon class="cls-48" points="14.13 8.12 14.08 24.43 13.9 24.36 13.95 8.06 14.13 8.12"/><polygon class="cls-13" points="17.03 8.16 16.99 24.46 16.98 24.38 17.03 8.08 17.03 8.16"/><polygon class="cls-49" points="13.86 8.11 13.81 24.42 13.68 24.53 13.72 8.23 13.86 8.11"/><polygon class="cls-39" points="13.51 8.26 13.46 24.57 13.13 24.42 13.18 8.11 13.51 8.26"/><polygon class="cls-8" points="13.72 8.23 13.68 24.53 13.46 24.57 13.51 8.26 13.72 8.23"/><polygon class="cls-13" points="17.01 8.3 16.97 24.6 16.96 24.53 17.01 8.23 17.01 8.3"/><polygon class="cls-50" points="17.14 8.38 17.09 24.68 16.97 24.6 17.01 8.3 17.14 8.38"/><polygon class="cls-51" points="17.46 8.47 17.41 24.77 17.09 24.68 17.14 8.38 17.46 8.47"/><polygon class="cls-32" points="17.57 8.53 17.52 24.83 17.41 24.77 17.46 8.47 17.57 8.53"/><polygon class="cls-22" points="14.62 8.19 14.57 24.5 14.4 24.84 14.44 8.53 14.62 8.19"/><polygon class="cls-32" points="13.92 8.54 13.87 24.84 13.77 24.79 13.82 8.48 13.92 8.54"/><polygon class="cls-52" points="14.07 8.57 14.02 24.88 13.87 24.84 13.92 8.54 14.07 8.57"/><polygon class="cls-19" points="14.44 8.53 14.4 24.84 14.3 24.92 14.35 8.62 14.44 8.53"/><polygon class="cls-13" points="17.63 8.65 17.58 24.95 17.52 24.83 17.57 8.53 17.63 8.65"/><polygon class="cls-13" points="14.1 8.65 14.05 24.95 14.02 24.88 14.07 8.57 14.1 8.65"/><polygon class="cls-43" points="14.21 8.69 14.16 24.99 14.05 24.95 14.1 8.65 14.21 8.69"/><polygon class="cls-46" points="14.35 8.62 14.3 24.92 14.16 24.99 14.21 8.69 14.35 8.62"/><polygon class="cls-13" points="17.64 8.88 17.59 25.18 17.58 24.95 17.63 8.65 17.64 8.88"/><polygon class="cls-32" points="17.74 8.94 17.7 25.24 17.59 25.18 17.64 8.88 17.74 8.94"/><polygon class="cls-30" points="17.92 9.09 17.88 25.39 17.7 25.24 17.74 8.94 17.92 9.09"/><polygon class="cls-13" points="18.02 9.27 17.97 25.57 17.88 25.39 17.92 9.09 18.02 9.27"/><polygon class="cls-13" points="18.15 9.43 18.11 25.73 17.97 25.57 18.02 9.27 18.15 9.43"/><polygon class="cls-52" points="18.45 9.5 18.41 25.8 18.11 25.73 18.15 9.43 18.45 9.5"/><polygon class="cls-53" points="19.31 9.63 19.27 25.93 18.41 25.8 18.45 9.5 19.31 9.63"/><polygon class="cls-54" points="19.73 9.77 19.68 26.07 19.27 25.93 19.31 9.63 19.73 9.77"/><polygon class="cls-13" points="19.79 9.97 19.75 26.28 19.68 26.07 19.73 9.77 19.79 9.97"/><polygon class="cls-13" points="19.84 10.04 19.8 26.34 19.75 26.28 19.79 9.97 19.84 10.04"/><polygon class="cls-35" points="19.94 10.1 19.89 26.41 19.8 26.34 19.84 10.04 19.94 10.1"/><polygon class="cls-21" points="20 10.17 19.96 26.47 19.89 26.41 19.94 10.1 20 10.17"/><polygon class="cls-13" points="19.79 10.47 19.74 26.78 19.67 26.68 19.72 10.38 19.79 10.47"/><polygon class="cls-13" points="19.8 10.56 19.75 26.86 19.74 26.78 19.79 10.47 19.8 10.56"/><polygon class="cls-17" points="19.52 10.7 19.48 27 19.37 26.96 19.42 10.66 19.52 10.7"/><polygon class="cls-55" points="19.81 10.81 19.76 27.12 19.48 27 19.52 10.7 19.81 10.81"/><polygon class="cls-11" points="23.35 10.87 23.3 27.18 22.94 27.1 22.98 10.8 23.35 10.87"/><polygon class="cls-56" points="22.98 10.8 22.94 27.1 22.3 27.23 22.35 10.93 22.98 10.8"/><polygon class="cls-33" points="20.42 10.95 20.37 27.25 19.76 27.12 19.81 10.81 20.42 10.95"/><polygon class="cls-51" points="23.68 10.97 23.64 27.27 23.3 27.18 23.35 10.87 23.68 10.97"/><polygon class="cls-57" points="22.35 10.93 22.3 27.23 22 27.27 22.05 10.96 22.35 10.93"/><polygon class="cls-58" points="22.05 10.96 22 27.27 21.69 27.27 21.74 10.97 22.05 10.96"/><polygon class="cls-28" points="21.74 10.97 21.69 27.27 21.45 27.26 21.5 10.96 21.74 10.97"/><polygon class="cls-57" points="21.5 10.96 21.45 27.26 21.01 27.31 21.06 11.01 21.5 10.96"/><polygon class="cls-59" points="21.06 11.01 21.01 27.31 20.37 27.25 20.42 10.95 21.06 11.01"/><polygon class="cls-60" points="24.3 11.02 24.26 27.32 23.64 27.27 23.68 10.97 24.3 11.02"/><polygon class="cls-53" points="24.7 11.08 24.66 27.39 24.26 27.32 24.3 11.02 24.7 11.08"/><polygon class="cls-61" points="24.9 11.16 24.85 27.47 24.66 27.39 24.7 11.08 24.9 11.16"/><polygon class="cls-13" points="24.95 11.25 24.91 27.55 24.85 27.47 24.9 11.16 24.95 11.25"/><polygon class="cls-62" points="24.99 12.15 24.94 28.45 24.56 28.36 24.61 12.06 24.99 12.15"/><polygon class="cls-17" points="25.09 12.19 25.05 28.49 24.94 28.45 24.99 12.15 25.09 12.19"/><polygon class="cls-13" points="25.14 12.36 25.1 28.66 25.05 28.49 25.09 12.19 25.14 12.36"/><polygon class="cls-55" points="25.34 12.44 25.3 28.74 25.1 28.66 25.14 12.36 25.34 12.44"/><polygon class="cls-5" points="25.68 12.6 25.63 28.91 25.3 28.74 25.34 12.44 25.68 12.6"/><polygon class="cls-63" points="25.99 12.71 25.95 29.01 25.63 28.91 25.68 12.6 25.99 12.71"/><polygon class="cls-64" points="39.62 12.67 39.57 28.97 39.49 29.07 39.53 12.76 39.62 12.67"/><polygon class="cls-32" points="26.12 12.78 26.07 29.09 25.95 29.01 25.99 12.71 26.12 12.78"/><polygon class="cls-65" points="26.36 12.93 26.32 29.23 26.07 29.09 26.12 12.78 26.36 12.93"/><polygon class="cls-26" points="39.53 12.76 39.49 29.07 38.99 29.35 39.03 13.04 39.53 12.76"/><polygon class="cls-17" points="26.91 13.17 26.86 29.47 26.32 29.23 26.36 12.93 26.91 13.17"/><polygon class="cls-66" points="27.3 13.4 27.25 29.7 26.86 29.47 26.91 13.17 27.3 13.4"/><polygon class="cls-67" points="27.75 13.58 27.7 29.89 27.25 29.7 27.3 13.4 27.75 13.58"/><polygon class="cls-38" points="28.09 13.79 28.04 30.1 27.7 29.89 27.75 13.58 28.09 13.79"/><polygon class="cls-17" points="28.23 13.86 28.19 30.16 28.04 30.1 28.09 13.79 28.23 13.86"/><polygon class="cls-13" points="28.06 14.08 28.01 30.38 27.96 30.25 28 13.95 28.06 14.08"/><polygon class="cls-7" points="28.25 14.21 28.2 30.51 28.01 30.38 28.06 14.08 28.25 14.21"/><polygon class="cls-32" points="28.43 14.31 28.38 30.62 28.2 30.51 28.25 14.21 28.43 14.31"/><polygon class="cls-13" points="28.48 14.39 28.43 30.69 28.38 30.62 28.43 14.31 28.48 14.39"/><polygon class="cls-13" points="28.34 14.76 28.29 31.06 28.27 30.92 28.31 14.62 28.34 14.76"/><polygon class="cls-21" points="28.4 14.82 28.35 31.12 28.29 31.06 28.34 14.76 28.4 14.82"/><polygon class="cls-45" points="45.45 14.83 45.4 31.13 45.27 31.22 45.32 14.92 45.45 14.83"/><polygon class="cls-35" points="28.76 15.06 28.71 31.36 28.35 31.12 28.4 14.82 28.76 15.06"/><polygon class="cls-25" points="30.42 14.98 30.37 31.29 30.12 31.47 30.16 15.17 30.42 14.98"/><polygon class="cls-2" points="30.96 15.18 30.91 31.48 30.37 31.29 30.42 14.98 30.96 15.18"/><polygon class="cls-68" points="29.12 15.23 29.07 31.53 28.71 31.36 28.76 15.06 29.12 15.23"/><polygon class="cls-31" points="30.16 15.17 30.12 31.47 30.01 31.56 30.05 15.26 30.16 15.17"/><polygon class="cls-50" points="31.09 15.26 31.05 31.57 30.91 31.48 30.96 15.18 31.09 15.26"/><polygon class="cls-46" points="30.05 15.26 30.01 31.56 29.87 31.62 29.91 15.32 30.05 15.26"/><polygon class="cls-51" points="29.53 15.34 29.48 31.64 29.07 31.53 29.12 15.23 29.53 15.34"/><polygon class="cls-69" points="29.91 15.32 29.87 31.62 29.48 31.64 29.53 15.34 29.91 15.32"/><polygon class="cls-13" points="31.25 15.46 31.21 31.76 31.05 31.57 31.09 15.26 31.25 15.46"/><polygon class="cls-70" points="45.32 14.92 45.27 31.22 44.62 31.83 44.67 15.53 45.32 14.92"/><polygon class="cls-60" points="44.67 15.53 44.62 31.83 44.56 31.95 44.61 15.65 44.67 15.53"/><polygon class="cls-30" points="31.5 15.67 31.45 31.97 31.21 31.76 31.25 15.46 31.5 15.67"/><polygon class="cls-13" points="31.74 16 31.69 32.3 31.45 31.97 31.5 15.67 31.74 16"/><polygon class="cls-35" points="31.98 16.16 31.93 32.46 31.69 32.3 31.74 16 31.98 16.16"/><polygon class="cls-39" points="32.31 16.32 32.27 32.62 31.93 32.46 31.98 16.16 32.31 16.32"/><polygon class="cls-66" points="32.59 16.48 32.55 32.79 32.27 32.62 32.31 16.32 32.59 16.48"/><polygon class="cls-4" points="44.79 15.7 44.74 32 43.7 32.86 43.75 16.55 44.79 15.7"/><polygon class="cls-13" points="32.7 16.69 32.65 32.99 32.55 32.79 32.59 16.48 32.7 16.69"/><polygon class="cls-60" points="32.48 17.12 32.43 33.43 32.25 33.41 32.3 17.11 32.48 17.12"/><polygon class="cls-71" points="32.81 17.1 32.76 33.4 32.43 33.43 32.48 17.12 32.81 17.1"/><polygon class="cls-53" points="33.03 17.13 32.98 33.44 32.76 33.4 32.81 17.1 33.03 17.13"/><polygon class="cls-30" points="33.12 17.21 33.07 33.51 32.98 33.44 33.03 17.13 33.12 17.21"/><polygon class="cls-29" points="43.75 16.55 43.7 32.86 42.97 33.65 43.02 17.35 43.75 16.55"/><polygon class="cls-13" points="33.22 17.43 33.17 33.73 33.07 33.51 33.12 17.21 33.22 17.43"/><polygon class="cls-72" points="33.64 17.53 33.59 33.83 33.46 33.84 33.5 17.54 33.64 17.53"/><polygon class="cls-55" points="33.5 17.54 33.46 33.84 33.17 33.73 33.22 17.43 33.5 17.54"/><polygon class="cls-20" points="34.8 17.55 34.76 33.85 34.56 33.85 34.61 17.55 34.8 17.55"/><polygon class="cls-73" points="34.96 17.57 34.91 33.88 34.76 33.85 34.8 17.55 34.96 17.57"/><polygon class="cls-70" points="34.61 17.55 34.56 33.85 34.38 33.88 34.43 17.58 34.61 17.55"/><polygon class="cls-74" points="35.08 17.63 35.03 33.93 34.91 33.88 34.96 17.57 35.08 17.63"/><polygon class="cls-73" points="34.29 17.64 34.25 33.94 33.59 33.83 33.64 17.53 34.29 17.64"/><polygon class="cls-46" points="34.43 17.58 34.38 33.88 34.25 33.94 34.29 17.64 34.43 17.58"/><polygon class="cls-75" points="42.46 17.66 42.41 33.96 42.23 33.95 42.27 17.64 42.46 17.66"/><polygon class="cls-12" points="43.02 17.35 42.97 33.65 42.7 34.05 42.75 17.74 43.02 17.35"/><polygon class="cls-51" points="42.75 17.74 42.7 34.05 42.41 33.96 42.46 17.66 42.75 17.74"/><polygon class="cls-55" points="36.59 17.86 36.54 34.16 36.3 34.06 36.34 17.76 36.59 17.86"/><polygon class="cls-30" points="35.36 17.86 35.31 34.16 35.03 33.93 35.08 17.63 35.36 17.86"/><polygon class="cls-46" points="36.34 17.76 36.3 34.06 36.05 34.2 36.1 17.9 36.34 17.76"/><polygon class="cls-12" points="36.1 17.9 36.05 34.2 35.81 34.2 35.86 17.9 36.1 17.9"/><polygon class="cls-46" points="42.27 17.64 42.23 33.95 41.62 34.23 41.66 17.93 42.27 17.64"/><polygon class="cls-72" points="35.86 17.9 35.81 34.2 35.65 34.22 35.7 17.91 35.86 17.9"/><polygon class="cls-12" points="41.15 17.92 41.1 34.22 40.51 34.23 40.56 17.93 41.15 17.92"/><polygon class="cls-76" points="40.56 17.93 40.51 34.23 39.8 34.02 39.85 17.72 40.56 17.93"/><polygon class="cls-2" points="35.53 17.92 35.48 34.23 35.31 34.16 35.36 17.86 35.53 17.92"/><polygon class="cls-69" points="35.7 17.91 35.65 34.22 35.48 34.23 35.53 17.92 35.7 17.91"/><polygon class="cls-3" points="41.37 17.94 41.33 34.25 41.1 34.22 41.15 17.92 41.37 17.94"/><polygon class="cls-77" points="41.52 17.95 41.48 34.26 41.33 34.25 41.37 17.94 41.52 17.95"/><polygon class="cls-10" points="41.66 17.93 41.62 34.23 41.48 34.26 41.52 17.95 41.66 17.93"/><polygon class="cls-13" points="36.67 17.95 36.62 34.26 36.54 34.16 36.59 17.86 36.67 17.95"/><polygon class="cls-26" points="39.85 17.72 39.8 34.02 39.3 34.32 39.34 18.01 39.85 17.72"/><polygon class="cls-7" points="36.79 18.04 36.74 34.34 36.62 34.26 36.67 17.95 36.79 18.04"/><polygon class="cls-6" points="39.34 18.01 39.3 34.32 39.12 34.37 39.17 18.07 39.34 18.01"/><polygon class="cls-78" points="39.17 18.07 39.12 34.37 38.97 34.39 39.02 18.08 39.17 18.07"/><polygon class="cls-44" points="39.02 18.08 38.97 34.39 38.49 34.36 38.54 18.06 39.02 18.08"/><polygon class="cls-79" points="38.54 18.06 38.49 34.36 38.23 34.4 38.27 18.09 38.54 18.06"/><polygon class="cls-80" points="37 18.11 36.95 34.41 36.74 34.34 36.79 18.04 37 18.11"/><polygon class="cls-37" points="37.24 18.16 37.19 34.46 36.95 34.41 37 18.11 37.24 18.16"/><polygon class="cls-19" points="38.27 18.09 38.23 34.4 37.74 34.49 37.78 18.19 38.27 18.09"/><polygon class="cls-81" points="37.5 18.19 37.46 34.49 37.19 34.46 37.24 18.16 37.5 18.19"/><polygon class="cls-20" points="37.78 18.19 37.74 34.49 37.46 34.49 37.5 18.19 37.78 18.19"/><polygon class="cls-82" points="45.45 14.83 45.32 14.92 44.67 15.53 44.61 15.65 44.79 15.7 43.75 16.55 43.02 17.35 42.75 17.74 42.46 17.66 42.27 17.64 41.66 17.93 41.52 17.95 41.37 17.94 41.15 17.92 40.56 17.93 39.85 17.72 39.34 18.01 39.17 18.07 39.02 18.08 38.54 18.06 38.27 18.09 37.78 18.19 37.5 18.19 37.24 18.16 37 18.11 36.79 18.04 36.67 17.95 36.59 17.86 36.34 17.76 36.1 17.9 35.86 17.9 35.7 17.91 35.53 17.92 35.36 17.86 35.08 17.63 34.96 17.57 34.8 17.55 34.61 17.55 34.43 17.58 34.29 17.64 33.64 17.53 33.5 17.54 33.22 17.43 33.12 17.21 33.03 17.13 32.81 17.1 32.48 17.12 32.3 17.11 32.36 17.03 32.45 16.98 32.65 16.77 32.7 16.69 32.59 16.48 32.31 16.32 31.98 16.16 31.74 16 31.5 15.67 31.25 15.46 31.09 15.26 30.96 15.18 30.42 14.98 30.16 15.17 30.05 15.26 29.91 15.32 29.53 15.34 29.12 15.23 28.76 15.06 28.4 14.82 28.34 14.76 28.31 14.62 28.36 14.54 28.43 14.46 28.48 14.39 28.43 14.31 28.25 14.21 28.06 14.08 28 13.95 28.23 13.86 28.09 13.79 27.75 13.58 27.3 13.4 26.91 13.17 26.36 12.93 26.12 12.78 25.99 12.71 25.68 12.6 25.34 12.44 25.14 12.36 25.09 12.19 24.99 12.15 24.61 12.06 24.71 11.7 24.75 11.6 24.91 11.35 24.95 11.25 24.9 11.16 24.7 11.08 24.3 11.02 23.68 10.97 23.35 10.87 22.98 10.8 22.35 10.93 22.05 10.96 21.74 10.97 21.5 10.96 21.06 11.01 20.42 10.95 19.81 10.81 19.52 10.7 19.42 10.66 19.47 10.54 19.57 10.51 19.8 10.56 19.79 10.47 19.72 10.38 19.96 10.23 20 10.17 19.94 10.1 19.84 10.04 19.79 9.97 19.73 9.77 19.31 9.63 18.45 9.5 18.15 9.43 18.02 9.27 17.92 9.09 17.74 8.94 17.64 8.88 17.63 8.65 17.57 8.53 17.46 8.47 17.14 8.38 17.01 8.3 17.01 8.23 17.03 8.16 17.03 8.08 16.97 8.02 16.79 7.9 16.51 7.66 16.32 7.6 16.09 7.61 15.83 7.69 15.06 7.64 14.91 7.71 14.66 7.87 14.54 7.97 14.48 8.05 14.62 8.19 14.44 8.53 14.35 8.62 14.21 8.69 14.1 8.65 14.07 8.57 13.92 8.54 13.82 8.48 14.04 8.29 14.11 8.21 14.13 8.12 13.95 8.06 13.86 8.11 13.72 8.23 13.51 8.26 13.18 8.11 13.52 7.91 13.67 7.81 13.71 7.7 13.87 7.68 14.01 7.62 14.08 7.54 14.04 7.46 13.84 7.41 13.69 7.47 13.48 7.67 13.26 7.77 13.01 7.76 12.81 7.65 12.71 7.48 13.08 7.49 13.25 7.46 13.35 7.38 13.34 7.29 13.24 7.21 13.11 7.15 12.97 7.11 12.65 7.07 12.52 7.01 12.14 6.62 11.77 6.44 11.69 6.38 11.64 6.29 11.63 6.19 11.41 6.05 11.17 6 10.99 5.78 11.11 5.74 11.06 5.59 10.91 5.52 10.58 5.58 10.35 5.51 9.9 5.22 9.67 5.09 9.62 5.01 9.53 4.94 9.46 4.86 9.5 4.7 9.25 4.71 8.92 4.92 8.82 4.98 8.75 4.87 8.57 4.85 8.36 4.85 8.16 4.83 7.86 4.69 7.65 4.88 7.33 4.97 6.31 4.92 6.09 4.92 5.52 5 5.4 5 5.18 4.95 5.06 4.95 4.69 5.04 4.25 5.14 3.94 5.2 3.73 5.16 3.59 5.08 3.47 4.95 3.4 4.89 3.15 4.7 3.08 4.6 3.06 4.49 3.1 4.35 2.88 4.18 2.27 3.67 2.18 3.39 1.97 3.24 1.74 3.13 1.48 3.1 1.18 3.17 1.06 3.25 0.89 3.41 0.78 3.49 0.63 3.55 0.42 3.58 0.21 3.58 0.05 3.55 0.45 3.4 0.86 3.24 1.84 2.86 3.67 2.16 4.36 1.9 5.25 1.55 5.52 1.61 5.73 1.82 6.26 1.17 6.6 0.89 7.23 0.51 8.06 0 8.31 0.34 8.42 0.43 8.71 0.51 8.88 0.71 9.09 0.86 9.17 1.04 9.16 1.44 9.29 1.63 9.95 1.95 10.2 2.1 10.48 2.37 11.09 2.83 11.24 2.92 11.4 2.94 12.24 2.84 13.29 2.72 13.92 2.65 14.86 2.54 16.45 2.35 17.61 2.22 17.92 2.3 18.48 2.61 19.22 3.03 19.75 3.33 20.12 3.48 20.19 3.53 20.37 3.65 20.48 3.77 20.55 3.94 20.6 4.01 20.76 4.08 20.99 4.13 21.19 4.13 21.25 4.03 21.52 4.1 22.24 4.46 22.6 4.56 22.92 4.6 24.09 4.63 24.93 4.64 25.32 4.7 25.53 4.76 25.75 4.84 26.6 5.32 27.33 5.74 27.96 6.09 28.87 6.61 29.08 6.72 29.27 6.78 29.66 6.81 29.85 6.91 29.99 7.24 30.15 7.35 30.28 7.46 31.12 7.76 31.87 8.21 32.92 8.83 33.98 9.44 35.31 10.2 35.43 10.27 36 10.6 36.66 10.98 37.66 11.55 38.64 12.11 39.62 12.67 39.53 12.76 39.03 13.04 39.63 13.24 39.82 13.27 40.01 13.25 40.14 13.26 40.24 13.3 40.48 13.49 40.6 13.56 40.74 13.61 40.92 13.66 41.13 13.72 41.2 13.8 41.22 13.87 41.25 14 41.34 14.12 41.47 14.14 41.62 14.13 41.83 14.17 42.99 14.24 43.29 14.38 43.66 14.36 44.21 14.41 44.83 14.62 45.45 14.83"/></g></g></g></svg>