<svg xmlns="http://www.w3.org/2000/svg" viewBox="0 0 60.91 53.68"><defs><style>.cls-1{isolation:isolate;}.cls-2{fill:#481212;}.cls-3{fill:#902323;}.cls-4{fill:#6e1b1b;}.cls-5{fill:#9d2626;}.cls-6{fill:#a92929;}.cls-7{fill:#491212;}.cls-8{fill:#6d1b1b;}.cls-9{fill:#4a1212;}.cls-10{fill:#982525;}.cls-11{fill:#6f1b1b;}.cls-12{fill:#9e2727;}.cls-13{fill:#8f2323;}.cls-14{fill:#842020;}.cls-15{fill:#a72929;}.cls-16{fill:#741c1c;}.cls-17{fill:#942424;}.cls-18{fill:#691a1a;}.cls-19{fill:#a82929;}.cls-20{fill:#771d1d;}.cls-21{fill:#8a2222;}.cls-22{fill:#511414;}.cls-23{fill:#5b1616;}.cls-24{fill:#551515;}.cls-25{fill:#5d1717;}.cls-26{fill:#4c1313;}.cls-27{fill:#912424;}.cls-28{fill:#801f1f;}.cls-29{fill:#932424;}.cls-30{fill:#c83131;}.cls-31{fill:#731c1c;}.cls-32{fill:#a12727;}.cls-33{fill:#872121;}.cls-34{fill:#a02727;}.cls-35{fill:#9f2727;}.cls-36{fill:#992525;}.cls-37{fill:#4b1212;}.cls-38{fill:#701c1c;}.cls-39{fill:#5a1616;}.cls-40{fill:#671919;}.cls-41{fill:#8c2222;}.cls-42{fill:#a32828;}.cls-43{fill:#521414;}.cls-44{fill:#501414;}.cls-45{fill:#621818;}.cls-46{fill:#6c1b1b;}.cls-47{fill:#5e1717;}.cls-48{fill:#9d2727;}.cls-49{fill:#862121;}.cls-50{fill:#9a2626;}.cls-51{fill:#8d2323;}.cls-52{fill:#4e1313;}.cls-53{fill:#701b1b;}.cls-54{fill:#541414;}.cls-55{fill:#812020;}.cls-56{fill:#972525;}.cls-57{fill:#8e2323;}.cls-58{fill:#581616;}.cls-59{fill:#601818;}.cls-60{fill:#8b2222;}.cls-61{fill:#531414;}.cls-62{fill:#6b1a1a;}.cls-63{fill:#611818;}.cls-64{fill:#7d1f1f;}.cls-65{fill:#711c1c;}.cls-66{fill:#5c1717;}.cls-67{fill:#962525;}.cls-68{fill:#a62929;}.cls-69{fill:#791e1e;}.cls-70{fill:#661919;}.cls-71{fill:#781d1d;}.cls-72{fill:#6c1a1a;}.cls-73{fill:#7e1f1f;}.cls-74{fill:#631818;}.cls-75{fill:#7b1e1e;}.cls-76{fill:#7c1e1e;}.cls-77{fill:#6a1a1a;}.cls-78{fill:#7f1f1f;}.cls-79{fill:#a52828;}.cls-80{fill:#681a1a;}.cls-81{fill:#882121;}.cls-82{fill:#641818;}.cls-83{fill:#641919;}.cls-84{fill:#9b2626;}.cls-85{fill:#651919;}.cls-86{fill:#852121;}</style></defs><title>Tunisia</title><g id="Layer_2" data-name="Layer 2"><g id="Layer_1-2" data-name="Layer 1"><g class="cls-1"><polygon class="cls-2" points="14.61 0.95 14.57 17.25 14.37 16.87 14.42 0.57 14.61 0.95"/><polygon class="cls-3" points="17.51 0.87 17.47 17.17 17.32 17.39 17.36 1.09 17.51 0.87"/><polygon class="cls-4" points="17.36 1.09 17.32 17.39 17.25 17.78 17.3 1.47 17.36 1.09"/><polygon class="cls-2" points="14.6 1.74 14.55 18.05 14.54 17.8 14.58 1.5 14.6 1.74"/><polygon class="cls-5" points="9.1 2.49 9.06 18.79 8.91 18.95 8.95 2.64 9.1 2.49"/><polygon class="cls-6" points="8.95 2.64 8.91 18.95 8.44 19.16 8.49 2.85 8.95 2.64"/><polygon class="cls-5" points="8.49 2.85 8.44 19.16 8.29 19.31 8.34 3.01 8.49 2.85"/><polygon class="cls-7" points="13.92 3.12 13.87 19.42 13.63 19.17 13.68 2.86 13.92 3.12"/><polygon class="cls-8" points="8.34 3.01 8.29 19.31 8.27 19.44 8.32 3.14 8.34 3.01"/><polygon class="cls-9" points="14.06 3.25 14.01 19.55 13.87 19.42 13.92 3.12 14.06 3.25"/><polygon class="cls-9" points="14.24 3.41 14.19 19.71 14.01 19.55 14.06 3.25 14.24 3.41"/><polygon class="cls-2" points="14.25 3.57 14.2 19.87 14.19 19.71 14.24 3.41 14.25 3.57"/><polygon class="cls-10" points="6.66 3.73 6.61 20.04 5.88 20.1 5.93 3.8 6.66 3.73"/><polygon class="cls-11" points="5.62 3.62 5.57 19.92 5.53 20.14 5.58 3.83 5.62 3.62"/><polygon class="cls-2" points="5.78 3.95 5.73 20.25 5.65 20.1 5.7 3.8 5.78 3.95"/><polygon class="cls-12" points="5.93 3.8 5.88 20.1 5.73 20.25 5.78 3.95 5.93 3.8"/><polygon class="cls-2" points="6.77 3.98 6.72 20.28 6.61 20.04 6.66 3.73 6.77 3.98"/><polygon class="cls-13" points="5.58 3.83 5.53 20.14 5.39 20.35 5.44 4.05 5.58 3.83"/><polygon class="cls-12" points="18.61 3.94 18.57 20.24 18.16 20.64 18.21 4.33 18.61 3.94"/><polygon class="cls-6" points="12.25 4.02 12.2 20.32 11.54 20.62 11.59 4.32 12.25 4.02"/><polygon class="cls-14" points="18.21 4.33 18.16 20.64 17.89 21.22 17.93 4.92 18.21 4.33"/><polygon class="cls-15" points="17.93 4.92 17.89 21.22 17.59 21.32 17.64 5.01 17.93 4.92"/><polygon class="cls-16" points="17.64 5.01 17.59 21.32 17.54 21.55 17.58 5.25 17.64 5.01"/><polygon class="cls-2" points="2.64 5.58 2.59 21.88 2.58 21.69 2.62 5.39 2.64 5.58"/><polygon class="cls-2" points="1.63 6.7 1.58 23 1.52 22.71 1.57 6.41 1.63 6.7"/><polygon class="cls-17" points="27.16 6.92 27.12 23.22 26.97 23.42 27.01 7.12 27.16 6.92"/><polygon class="cls-18" points="28.24 7.31 28.2 23.61 28.18 23.81 28.22 7.51 28.24 7.31"/><polygon class="cls-2" points="1.32 8.07 1.27 24.37 1.08 24.03 1.13 7.72 1.32 8.07"/><polygon class="cls-2" points="1.36 8.34 1.31 24.64 1.27 24.37 1.32 8.07 1.36 8.34"/><polygon class="cls-19" points="31.07 8.38 31.03 24.68 30.85 24.79 30.9 8.49 31.07 8.38"/><polygon class="cls-20" points="30.9 8.49 30.85 24.79 30.81 24.92 30.86 8.62 30.9 8.49"/><polygon class="cls-4" points="30.99 8.84 30.95 25.15 30.92 25.35 30.96 9.05 30.99 8.84"/><polygon class="cls-18" points="31.16 9.37 31.12 25.68 31.1 25.82 31.15 9.51 31.16 9.37"/><polygon class="cls-10" points="35.38 9.75 35.33 26.05 35.22 26.19 35.26 9.88 35.38 9.75"/><polygon class="cls-2" points="34.91 9.93 34.86 26.23 34.84 26.15 34.88 9.85 34.91 9.93"/><polygon class="cls-2" points="34.94 10.01 34.89 26.32 34.86 26.23 34.91 9.93 34.94 10.01"/><polygon class="cls-2" points="35 10.19 34.95 26.5 34.89 26.4 34.93 10.1 35 10.19"/><polygon class="cls-20" points="35.13 10.22 35.09 26.52 34.95 26.5 35 10.19 35.13 10.22"/><polygon class="cls-21" points="31.69 10.07 31.65 26.37 31.52 26.59 31.57 10.29 31.69 10.07"/><polygon class="cls-22" points="35.3 10.33 35.26 26.64 35.09 26.52 35.13 10.22 35.3 10.33"/><polygon class="cls-23" points="0.49 10.27 0.45 26.57 0 26.36 0.05 10.05 0.49 10.27"/><polygon class="cls-20" points="1.16 10.39 1.12 26.7 0.45 26.57 0.49 10.27 1.16 10.39"/><polygon class="cls-24" points="34.96 10.52 34.91 26.82 34.84 26.78 34.88 10.47 34.96 10.52"/><polygon class="cls-25" points="35.02 10.54 34.97 26.85 34.91 26.82 34.96 10.52 35.02 10.54"/><polygon class="cls-26" points="35.12 10.62 35.07 26.92 34.97 26.85 35.02 10.54 35.12 10.62"/><polygon class="cls-27" points="35.95 10.13 35.9 26.43 35.53 26.97 35.57 10.66 35.95 10.13"/><polygon class="cls-2" points="35.17 10.79 35.12 27.09 35.07 26.92 35.12 10.62 35.17 10.79"/><polygon class="cls-28" points="35.57 10.66 35.53 26.97 35.4 27.28 35.45 10.97 35.57 10.66"/><polygon class="cls-2" points="35.18 11.03 35.13 27.33 35.12 27.21 35.16 10.91 35.18 11.03"/><polygon class="cls-29" points="35.45 10.97 35.4 27.28 35.33 27.38 35.37 11.08 35.45 10.97"/><polygon class="cls-4" points="35.37 11.08 35.33 27.38 35.13 27.33 35.18 11.03 35.37 11.08"/><polygon class="cls-30" points="34.94 10.01 34.91 9.93 34.88 9.85 35.05 9.82 35.27 9.72 35.38 9.75 35.26 9.88 35.29 9.93 35.3 9.98 35.38 10.04 35.47 10.02 35.56 10.03 35.89 10.04 35.95 10.13 35.57 10.66 35.45 10.97 35.37 11.08 35.18 11.03 35.16 10.91 35.17 10.79 35.12 10.62 35.02 10.54 34.96 10.52 34.88 10.47 34.92 10.43 35.01 10.46 35.17 10.44 35.3 10.33 35.13 10.22 35 10.19 34.93 10.1 34.94 10.01"/><polygon class="cls-20" points="32.26 10.92 32.21 27.22 32.14 27.5 32.18 11.19 32.26 10.92"/><polygon class="cls-31" points="35.28 11.29 35.23 27.59 35.17 27.86 35.22 11.56 35.28 11.29"/><polygon class="cls-19" points="35.22 11.56 35.17 27.86 35.02 27.92 35.06 11.62 35.22 11.56"/><polygon class="cls-32" points="35.06 11.62 35.02 27.92 34.82 27.96 34.87 11.66 35.06 11.62"/><polygon class="cls-33" points="0.82 11.58 0.78 27.89 0.48 27.87 0.53 11.56 0.82 11.58"/><polygon class="cls-34" points="34.87 11.66 34.82 27.96 34.49 28.02 34.54 11.72 34.87 11.66"/><polygon class="cls-35" points="0.53 11.56 0.48 27.87 0.13 27.93 0.18 11.63 0.53 11.56"/><polygon class="cls-2" points="0.18 11.63 0.13 27.93 0.04 27.83 0.09 11.52 0.18 11.63"/><polygon class="cls-30" points="34.36 11.59 35.12 11.15 35.28 11.17 35.28 11.29 35.22 11.56 35.06 11.62 34.87 11.66 34.54 11.72 34.33 11.74 34.34 11.68 34.36 11.59"/><polygon class="cls-36" points="34.54 11.72 34.49 28.02 34.28 28.05 34.33 11.74 34.54 11.72"/><polygon class="cls-31" points="32.45 11.65 32.4 27.95 32.36 28.12 32.41 11.81 32.45 11.65"/><polygon class="cls-37" points="1.06 11.79 1.01 28.09 0.78 27.89 0.82 11.58 1.06 11.79"/><polygon class="cls-2" points="1.2 12.04 1.16 28.34 1.01 28.09 1.06 11.79 1.2 12.04"/><polygon class="cls-2" points="1.22 12.22 1.17 28.52 1.16 28.34 1.2 12.04 1.22 12.22"/><polygon class="cls-18" points="32.54 12.26 32.49 28.56 32.48 28.7 32.53 12.4 32.54 12.26"/><polygon class="cls-29" points="32.63 12.66 32.58 28.96 32.25 29.4 32.3 13.1 32.63 12.66"/><polygon class="cls-38" points="2.64 13.42 2.59 29.73 2.39 29.67 2.43 13.37 2.64 13.42"/><polygon class="cls-32" points="2.43 13.37 2.39 29.67 1.86 29.78 1.91 13.48 2.43 13.37"/><polygon class="cls-39" points="2.81 13.51 2.76 29.81 2.59 29.73 2.64 13.42 2.81 13.51"/><polygon class="cls-2" points="0.61 13.69 0.56 29.99 0.53 29.79 0.57 13.49 0.61 13.69"/><polygon class="cls-40" points="32.8 13.68 32.76 29.98 32.75 30.1 32.8 13.79 32.8 13.68"/><polygon class="cls-6" points="1.91 13.48 1.86 29.78 1.22 30.07 1.26 13.77 1.91 13.48"/><polygon class="cls-22" points="3.27 13.82 3.22 30.12 2.76 29.81 2.81 13.51 3.27 13.82"/><polygon class="cls-41" points="32.8 13.79 32.75 30.1 32.67 30.22 32.72 13.92 32.8 13.79"/><polygon class="cls-42" points="1.26 13.77 1.22 30.07 0.84 30.17 0.88 13.86 1.26 13.77"/><polygon class="cls-43" points="0.88 13.86 0.84 30.17 0.56 29.99 0.61 13.69 0.88 13.86"/><polygon class="cls-42" points="32.72 13.92 32.67 30.22 32.15 30.64 32.2 14.34 32.72 13.92"/><polygon class="cls-14" points="32.2 14.34 32.15 30.64 32.05 30.84 32.1 14.54 32.2 14.34"/><polygon class="cls-2" points="3.84 14.51 3.79 30.81 3.22 30.12 3.27 13.82 3.84 14.51"/><polygon class="cls-44" points="4.14 14.72 4.1 31.02 3.79 30.81 3.84 14.51 4.14 14.72"/><polygon class="cls-45" points="4.34 14.8 4.3 31.1 4.1 31.02 4.14 14.72 4.34 14.8"/><polygon class="cls-46" points="4.55 14.86 4.5 31.16 4.3 31.1 4.34 14.8 4.55 14.86"/><polygon class="cls-47" points="4.71 14.93 4.67 31.23 4.5 31.16 4.55 14.86 4.71 14.93"/><polygon class="cls-2" points="4.8 15.05 4.76 31.36 4.67 31.23 4.71 14.93 4.8 15.05"/><polygon class="cls-2" points="4.86 15.18 4.81 31.48 4.76 31.36 4.8 15.05 4.86 15.18"/><polygon class="cls-48" points="32.33 15.08 32.29 31.39 32.05 31.62 32.1 15.32 32.33 15.08"/><polygon class="cls-9" points="5.33 15.61 5.28 31.91 4.81 31.48 4.86 15.18 5.33 15.61"/><polygon class="cls-49" points="32.1 15.32 32.05 31.62 31.83 32.06 31.88 15.76 32.1 15.32"/><polygon class="cls-40" points="41.82 15.34 41.78 31.64 41.75 32.13 41.79 15.83 41.82 15.34"/><polygon class="cls-13" points="41.79 15.83 41.75 32.13 41.69 32.23 41.73 15.92 41.79 15.83"/><polygon class="cls-4" points="41.73 15.92 41.69 32.23 41.68 32.27 41.73 15.96 41.73 15.92"/><polygon class="cls-44" points="5.83 15.95 5.79 32.25 5.28 31.91 5.33 15.61 5.83 15.95"/><polygon class="cls-7" points="41.73 16.1 41.69 32.41 41.63 32.35 41.68 16.05 41.73 16.1"/><polygon class="cls-50" points="41.68 16.05 41.63 32.35 41.56 32.43 41.61 16.13 41.68 16.05"/><polygon class="cls-51" points="31.88 15.76 31.83 32.06 31.59 32.45 31.63 16.15 31.88 15.76"/><polygon class="cls-19" points="41.96 16.21 41.92 32.52 41.87 32.54 41.92 16.24 41.96 16.21"/><polygon class="cls-52" points="41.92 16.24 41.87 32.54 41.69 32.41 41.73 16.1 41.92 16.24"/><polygon class="cls-53" points="31.63 16.15 31.59 32.45 31.56 32.59 31.61 16.29 31.63 16.15"/><polygon class="cls-54" points="39.25 16.34 39.2 32.65 38.96 32.5 39.01 16.2 39.25 16.34"/><polygon class="cls-7" points="6.2 16.33 6.16 32.63 5.79 32.25 5.83 15.95 6.2 16.33"/><polygon class="cls-40" points="39.66 16.48 39.61 32.79 39.2 32.65 39.25 16.34 39.66 16.48"/><polygon class="cls-17" points="31.61 16.29 31.56 32.59 31.4 32.81 31.44 16.5 31.61 16.29"/><polygon class="cls-55" points="41.51 16.56 41.46 32.86 41.16 32.83 41.21 16.52 41.51 16.56"/><polygon class="cls-34" points="41.21 16.52 41.16 32.83 40.99 32.86 41.03 16.56 41.21 16.52"/><polygon class="cls-3" points="41.03 16.56 40.99 32.86 40.79 32.87 40.84 16.56 41.03 16.56"/><polygon class="cls-15" points="40.84 16.56 40.79 32.87 40.65 32.91 40.69 16.61 40.84 16.56"/><polygon class="cls-2" points="41.59 16.66 41.55 32.97 41.46 32.86 41.51 16.56 41.59 16.66"/><polygon class="cls-56" points="48.76 16.66 48.72 32.97 48.22 33.01 48.27 16.71 48.76 16.66"/><polygon class="cls-57" points="48.27 16.71 48.22 33.01 48.02 33.01 48.06 16.71 48.27 16.71"/><polygon class="cls-2" points="39.76 16.69 39.71 32.99 39.61 32.79 39.66 16.48 39.76 16.69"/><polygon class="cls-58" points="41.74 16.74 41.7 33.04 41.55 32.97 41.59 16.66 41.74 16.74"/><polygon class="cls-57" points="41.96 16.74 41.91 33.04 41.7 33.04 41.74 16.74 41.96 16.74"/><polygon class="cls-59" points="49.09 16.8 49.04 33.1 48.72 32.97 48.76 16.66 49.09 16.8"/><polygon class="cls-2" points="42.36 16.81 42.31 33.11 42.27 32.87 42.31 16.57 42.36 16.81"/><polygon class="cls-60" points="42.6 16.82 42.55 33.12 42.31 33.11 42.36 16.81 42.6 16.82"/><polygon class="cls-61" points="39.96 16.81 39.91 33.12 39.71 32.99 39.76 16.69 39.96 16.81"/><polygon class="cls-43" points="6.82 16.72 6.77 33.03 6.16 32.63 6.2 16.33 6.82 16.72"/><polygon class="cls-62" points="42.79 16.87 42.74 33.17 42.55 33.12 42.6 16.82 42.79 16.87"/><polygon class="cls-63" points="40.22 16.92 40.17 33.22 39.91 33.12 39.96 16.81 40.22 16.92"/><polygon class="cls-12" points="40.76 16.85 40.71 33.16 40.62 33.25 40.66 16.95 40.76 16.85"/><polygon class="cls-17" points="40.66 16.95 40.62 33.25 40.34 33.26 40.38 16.96 40.66 16.95"/><polygon class="cls-30" points="39.15 16 39.81 15.76 40.12 15.6 40.19 15.4 40.63 15.42 41.04 15.42 41.25 15.38 41.44 15.35 41.63 15.32 41.82 15.34 41.79 15.83 41.73 15.92 41.73 15.96 41.76 16.02 41.96 16.21 41.92 16.24 41.73 16.1 41.68 16.05 41.61 16.13 41.78 16.33 41.84 16.5 41.86 16.64 41.96 16.74 41.74 16.74 41.59 16.66 41.51 16.56 41.21 16.52 41.03 16.56 40.84 16.56 40.69 16.61 40.69 16.76 40.76 16.85 40.66 16.95 40.38 16.96 40.22 16.92 39.96 16.81 39.76 16.69 39.66 16.48 39.25 16.34 39.01 16.2 39.15 16"/><polygon class="cls-11" points="40.38 16.96 40.34 33.26 40.17 33.22 40.22 16.92 40.38 16.96"/><polygon class="cls-2" points="42.88 16.99 42.84 33.29 42.74 33.17 42.79 16.87 42.88 16.99"/><polygon class="cls-39" points="7.19 16.91 7.14 33.21 6.77 33.03 6.82 16.72 7.19 16.91"/><polygon class="cls-19" points="47.45 16.8 47.41 33.1 46.51 33.44 46.55 17.14 47.45 16.8"/><polygon class="cls-18" points="7.56 17.03 7.51 33.33 7.14 33.21 7.19 16.91 7.56 17.03"/><polygon class="cls-64" points="8.42 17.15 8.37 33.45 7.51 33.33 7.56 17.03 8.42 17.15"/><polygon class="cls-6" points="46.55 17.14 46.51 33.44 46.15 33.61 46.19 17.3 46.55 17.14"/><polygon class="cls-65" points="8.79 17.24 8.75 33.54 8.37 33.45 8.42 17.15 8.79 17.24"/><polygon class="cls-66" points="9.07 17.37 9.02 33.67 8.75 33.54 8.79 17.24 9.07 17.37"/><polygon class="cls-8" points="41.26 17.49 41.22 33.79 41.19 34 41.23 17.7 41.26 17.49"/><polygon class="cls-23" points="9.81 17.72 9.76 34.03 9.02 33.67 9.07 17.37 9.81 17.72"/><polygon class="cls-24" points="10.05 17.86 10 34.17 9.76 34.03 9.81 17.72 10.05 17.86"/><polygon class="cls-2" points="10.39 18.33 10.34 34.63 10 34.17 10.05 17.86 10.39 18.33"/><polygon class="cls-7" points="10.6 18.54 10.55 34.84 10.34 34.63 10.39 18.33 10.6 18.54"/><polygon class="cls-43" points="10.88 18.72 10.84 35.02 10.55 34.84 10.6 18.54 10.88 18.72"/><polygon class="cls-67" points="12.85 18.75 12.8 35.05 12.39 35.09 12.44 18.78 12.85 18.75"/><polygon class="cls-2" points="12.93 18.88 12.89 35.18 12.8 35.05 12.85 18.75 12.93 18.88"/><polygon class="cls-47" points="11.26 18.88 11.21 35.19 10.84 35.02 10.88 18.72 11.26 18.88"/><polygon class="cls-68" points="12.44 18.78 12.39 35.09 12.03 35.2 12.07 18.89 12.44 18.78"/><polygon class="cls-34" points="12.07 18.89 12.03 35.2 11.66 35.27 11.7 18.97 12.07 18.89"/><polygon class="cls-69" points="11.7 18.97 11.66 35.27 11.21 35.19 11.26 18.88 11.7 18.97"/><polygon class="cls-2" points="13.15 19.47 13.11 35.77 12.89 35.18 12.93 18.88 13.15 19.47"/><polygon class="cls-70" points="55.85 19.71 55.8 36.01 55.8 36.16 55.84 19.86 55.85 19.71"/><polygon class="cls-2" points="13.19 19.85 13.15 36.16 13.11 35.77 13.15 19.47 13.19 19.85"/><polygon class="cls-2" points="13.38 20.07 13.34 36.37 13.15 36.16 13.19 19.85 13.38 20.07"/><polygon class="cls-71" points="55.84 19.86 55.8 36.16 55.64 36.71 55.69 20.4 55.84 19.86"/><polygon class="cls-37" points="13.87 20.48 13.82 36.78 13.34 36.37 13.38 20.07 13.87 20.48"/><polygon class="cls-2" points="14.14 20.82 14.09 37.12 13.82 36.78 13.87 20.48 14.14 20.82"/><polygon class="cls-9" points="14.38 21.04 14.34 37.34 14.09 37.12 14.14 20.82 14.38 21.04"/><polygon class="cls-58" points="14.7 21.21 14.65 37.51 14.34 37.34 14.38 21.04 14.7 21.21"/><polygon class="cls-58" points="15.76 21.77 15.71 38.07 14.65 37.51 14.7 21.21 15.76 21.77"/><polygon class="cls-41" points="55.69 20.4 55.64 36.71 54.74 38.2 54.79 21.89 55.69 20.4"/><polygon class="cls-2" points="15.77 22.02 15.72 38.32 15.71 38.07 15.76 21.77 15.77 22.02"/><polygon class="cls-2" points="15.92 22.22 15.88 38.52 15.72 38.32 15.77 22.02 15.92 22.22"/><polygon class="cls-72" points="16.39 22.36 16.35 38.66 15.88 38.52 15.92 22.22 16.39 22.36"/><polygon class="cls-2" points="16.45 22.86 16.41 39.16 16.29 38.95 16.33 22.64 16.45 22.86"/><polygon class="cls-41" points="54.79 21.89 54.74 38.2 53.68 39.95 53.73 23.64 54.79 21.89"/><polygon class="cls-73" points="54.09 24.63 54.05 40.93 53.96 41.16 54.01 24.86 54.09 24.63"/><polygon class="cls-38" points="54.01 24.86 53.96 41.16 53.92 41.39 53.96 25.09 54.01 24.86"/><polygon class="cls-19" points="53.96 25.09 53.92 41.39 53.47 41.56 53.52 25.26 53.96 25.09"/><polygon class="cls-2" points="15.71 25.15 15.66 41.45 15.51 41.22 15.56 24.91 15.71 25.15"/><polygon class="cls-33" points="53.52 25.26 53.47 41.56 53.35 41.8 53.39 25.5 53.52 25.26"/><polygon class="cls-7" points="16.41 25.84 16.37 42.15 15.66 41.45 15.71 25.15 16.41 25.84"/><polygon class="cls-2" points="16.5 26.06 16.45 42.37 16.37 42.15 16.41 25.84 16.5 26.06"/><polygon class="cls-40" points="54.13 26.09 54.09 42.39 54.07 42.71 54.12 26.4 54.13 26.09"/><polygon class="cls-18" points="54.32 26.74 54.27 43.04 54.25 43.27 54.3 26.96 54.32 26.74"/><polygon class="cls-2" points="15.97 26.89 15.92 43.2 15.91 42.98 15.96 26.68 15.97 26.89"/><polygon class="cls-2" points="16.03 27.11 15.98 43.41 15.92 43.2 15.97 26.89 16.03 27.11"/><polygon class="cls-29" points="54.3 26.96 54.25 43.27 54.03 43.57 54.08 27.26 54.3 26.96"/><polygon class="cls-2" points="16.03 27.43 15.98 43.73 15.98 43.41 16.03 27.11 16.03 27.43"/><polygon class="cls-19" points="54.08 27.26 54.03 43.57 53.28 43.99 53.32 27.69 54.08 27.26"/><polygon class="cls-2" points="16.04 27.6 16 43.9 15.98 43.73 16.03 27.43 16.04 27.6"/><polygon class="cls-2" points="16.16 27.78 16.12 44.08 16 43.9 16.04 27.6 16.16 27.78"/><polygon class="cls-11" points="53.32 27.69 53.28 43.99 53.21 44.34 53.26 28.04 53.32 27.69"/><polygon class="cls-61" points="16.73 28.13 16.69 44.43 16.12 44.08 16.16 27.78 16.73 28.13"/><polygon class="cls-26" points="17.4 28.67 17.36 44.98 16.69 44.43 16.73 28.13 17.4 28.67"/><polygon class="cls-66" points="17.74 28.83 17.7 45.13 17.36 44.98 17.4 28.67 17.74 28.83"/><polygon class="cls-74" points="18.27 29.03 18.23 45.34 17.7 45.13 17.74 28.83 18.27 29.03"/><polygon class="cls-46" points="18.45 29.08 18.4 45.39 18.23 45.34 18.27 29.03 18.45 29.08"/><polygon class="cls-71" points="19.01 29.19 18.96 45.49 18.4 45.39 18.45 29.08 19.01 29.19"/><polygon class="cls-63" points="19.5 29.39 19.45 45.69 18.96 45.49 19.01 29.19 19.5 29.39"/><polygon class="cls-18" points="19.76 29.47 19.71 45.77 19.45 45.69 19.5 29.39 19.76 29.47"/><polygon class="cls-75" points="20.92 29.66 20.87 45.96 19.71 45.77 19.76 29.47 20.92 29.66"/><polygon class="cls-76" points="22.31 29.87 22.26 46.18 20.87 45.96 20.92 29.66 22.31 29.87"/><polygon class="cls-77" points="22.76 30.01 22.71 46.32 22.26 46.18 22.31 29.87 22.76 30.01"/><polygon class="cls-50" points="27.77 30.01 27.72 46.31 27.48 46.34 27.52 30.04 27.77 30.01"/><polygon class="cls-34" points="27.52 30.04 27.48 46.34 27.37 46.44 27.42 30.14 27.52 30.04"/><polygon class="cls-78" points="29.38 30.21 29.33 46.52 27.72 46.31 27.77 30.01 29.38 30.21"/><polygon class="cls-19" points="27.42 30.14 27.37 46.44 27.05 46.57 27.09 30.27 27.42 30.14"/><polygon class="cls-34" points="27.09 30.27 27.05 46.57 26.86 46.61 26.9 30.3 27.09 30.27"/><polygon class="cls-78" points="31.1 30.43 31.06 46.73 29.33 46.52 29.38 30.21 31.1 30.43"/><polygon class="cls-10" points="26.9 30.3 26.86 46.61 25.58 46.73 25.63 30.42 26.9 30.3"/><polygon class="cls-4" points="31.44 30.52 31.39 46.83 31.06 46.73 31.1 30.43 31.44 30.52"/><polygon class="cls-79" points="25.63 30.42 25.58 46.73 25.26 46.82 25.3 30.51 25.63 30.42"/><polygon class="cls-24" points="23.82 30.62 23.77 46.92 22.71 46.32 22.76 30.01 23.82 30.62"/><polygon class="cls-6" points="25.3 30.51 25.26 46.82 24.92 46.99 24.96 30.68 25.3 30.51"/><polygon class="cls-80" points="24.29 30.77 24.24 47.08 23.77 46.92 23.82 30.62 24.29 30.77"/><polygon class="cls-41" points="24.64 30.78 24.6 47.08 24.24 47.08 24.29 30.77 24.64 30.78"/><polygon class="cls-68" points="24.96 30.68 24.92 46.99 24.6 47.08 24.64 30.78 24.96 30.68"/><polygon class="cls-81" points="41.92 30.92 41.88 47.23 41.67 47.22 41.71 30.91 41.92 30.92"/><polygon class="cls-69" points="42.15 30.96 42.1 47.27 41.88 47.23 41.92 30.92 42.15 30.96"/><polygon class="cls-10" points="41.71 30.91 41.67 47.22 39.75 47.4 39.8 31.09 41.71 30.91"/><polygon class="cls-39" points="32.64 31.11 32.59 47.41 31.39 46.83 31.44 30.52 32.64 31.11"/><polygon class="cls-82" points="42.92 31.25 42.87 47.56 42.1 47.27 42.15 30.96 42.92 31.25"/><polygon class="cls-10" points="39.8 31.09 39.75 47.4 37.36 47.62 37.41 31.31 39.8 31.09"/><polygon class="cls-10" points="37.41 31.31 37.36 47.62 35.54 47.79 35.58 31.49 37.41 31.31"/><polygon class="cls-39" points="33.51 31.54 33.47 47.85 32.59 47.41 32.64 31.11 33.51 31.54"/><polygon class="cls-83" points="43.97 31.64 43.92 47.95 42.87 47.56 42.92 31.25 43.97 31.64"/><polygon class="cls-46" points="33.87 31.65 33.83 47.95 33.47 47.85 33.51 31.54 33.87 31.65"/><polygon class="cls-60" points="34.25 31.66 34.2 47.96 33.83 47.95 33.87 31.65 34.25 31.66"/><polygon class="cls-84" points="35.58 31.49 35.54 47.79 34.2 47.96 34.25 31.66 35.58 31.49"/><polygon class="cls-83" points="45.02 32.03 44.98 48.33 43.92 47.95 43.97 31.64 45.02 32.03"/><polygon class="cls-83" points="46.06 32.42 46.02 48.72 44.98 48.33 45.02 32.03 46.06 32.42"/><polygon class="cls-85" points="47.11 32.8 47.06 49.1 46.02 48.72 46.06 32.42 47.11 32.8"/><polygon class="cls-83" points="48.15 33.19 48.1 49.49 47.06 49.1 47.11 32.8 48.15 33.19"/><polygon class="cls-85" points="49.19 33.57 49.14 49.87 48.1 49.49 48.15 33.19 49.19 33.57"/><polygon class="cls-83" points="50.23 33.95 50.18 50.26 49.14 49.87 49.19 33.57 50.23 33.95"/><polygon class="cls-85" points="51.27 34.33 51.22 50.64 50.18 50.26 50.23 33.95 51.27 34.33"/><polygon class="cls-85" points="52.31 34.72 52.27 51.02 51.22 50.64 51.27 34.33 52.31 34.72"/><polygon class="cls-83" points="53.34 35.1 53.3 51.4 52.27 51.02 52.31 34.72 53.34 35.1"/><polygon class="cls-85" points="54.38 35.48 54.34 51.78 53.3 51.4 53.34 35.1 54.38 35.48"/><polygon class="cls-86" points="60.91 35.47 60.86 51.77 60.79 51.93 60.83 35.62 60.91 35.47"/><polygon class="cls-83" points="55.42 35.86 55.37 52.17 54.34 51.78 54.38 35.48 55.42 35.86"/><polygon class="cls-15" points="60.83 35.62 60.79 51.93 60.34 52.22 60.39 35.92 60.83 35.62"/><polygon class="cls-12" points="60.39 35.92 60.34 52.22 60.2 52.37 60.24 36.06 60.39 35.92"/><polygon class="cls-85" points="56.45 36.24 56.4 52.54 55.37 52.17 55.42 35.86 56.45 36.24"/><polygon class="cls-83" points="57.48 36.62 57.44 52.93 56.4 52.54 56.45 36.24 57.48 36.62"/><polygon class="cls-85" points="58.52 37 58.47 53.3 57.44 52.93 57.48 36.62 58.52 37"/><polygon class="cls-81" points="60.24 36.06 60.2 52.37 59.5 53.68 59.55 37.37 60.24 36.06"/><polygon class="cls-85" points="59.55 37.37 59.5 53.68 58.47 53.3 58.52 37 59.55 37.37"/><polygon class="cls-30" points="60.24 36.06 59.55 37.37 58.52 37 57.48 36.62 56.45 36.24 55.42 35.86 54.38 35.48 53.34 35.1 52.31 34.72 51.27 34.33 50.23 33.95 49.19 33.57 48.15 33.19 47.11 32.8 46.06 32.42 45.02 32.03 43.97 31.64 42.92 31.25 42.15 30.96 41.92 30.92 41.71 30.91 39.8 31.09 37.41 31.31 35.58 31.49 34.25 31.66 33.87 31.65 33.51 31.54 32.64 31.11 31.44 30.52 31.1 30.43 29.38 30.21 27.77 30.01 27.52 30.04 27.42 30.14 27.09 30.27 26.9 30.3 25.63 30.42 25.3 30.51 24.96 30.68 24.64 30.78 24.29 30.77 23.82 30.62 22.76 30.01 22.31 29.87 20.92 29.66 19.76 29.47 19.5 29.39 19.01 29.19 18.45 29.08 18.27 29.03 17.74 28.83 17.4 28.67 16.73 28.13 16.16 27.78 16.04 27.6 16.03 27.43 16.03 27.11 15.97 26.89 15.96 26.68 16.09 26.46 16.43 26.17 16.5 26.06 16.41 25.84 15.71 25.15 15.56 24.91 15.63 24.65 15.94 24.17 16.02 23.9 16.36 23.37 16.4 23.01 16.45 22.86 16.33 22.64 16.39 22.36 15.92 22.22 15.77 22.02 15.76 21.77 14.7 21.21 14.38 21.04 14.14 20.82 13.87 20.48 13.38 20.07 13.19 19.85 13.15 19.47 12.93 18.88 12.85 18.75 12.44 18.78 12.07 18.89 11.7 18.97 11.26 18.88 10.88 18.72 10.6 18.54 10.39 18.33 10.05 17.86 9.81 17.72 9.07 17.37 8.79 17.24 8.42 17.15 7.56 17.03 7.19 16.91 6.82 16.72 6.2 16.33 5.83 15.95 5.33 15.61 4.86 15.18 4.8 15.05 4.71 14.93 4.55 14.86 4.34 14.8 4.14 14.72 3.84 14.51 3.27 13.82 2.81 13.51 2.64 13.42 2.43 13.37 1.91 13.48 1.26 13.77 0.88 13.86 0.61 13.69 0.57 13.49 0.64 13.31 0.91 12.97 1.22 12.22 1.2 12.04 1.06 11.79 0.82 11.58 0.53 11.56 0.18 11.63 0.09 11.52 0.19 11.35 0.41 11.18 0.68 11.05 0.86 10.89 1.12 10.51 1.16 10.39 0.49 10.27 0.05 10.05 0.39 9.56 0.53 9.46 1.09 9.13 1.18 9.01 1.23 8.71 1.33 8.54 1.36 8.34 1.32 8.07 1.13 7.72 1.17 7.36 1.31 7.13 1.63 6.7 1.57 6.41 2.48 5.79 2.64 5.58 2.62 5.39 3.13 5 3.21 4.87 3.26 4.73 3.47 4.59 3.65 4.27 3.71 4.14 4.08 3.89 4.16 3.77 5.12 3.35 5.62 3.62 5.58 3.83 5.44 4.05 5.51 4.25 5.92 4.34 6.64 4.22 6.77 3.98 6.66 3.73 5.93 3.8 5.78 3.95 5.7 3.8 6.61 3.29 6.91 2.91 7.25 2.93 7.79 2.69 8.21 2.68 8.87 2.5 9.1 2.49 8.95 2.64 8.49 2.85 8.34 3.01 8.32 3.14 8.5 3.19 8.74 3.13 8.95 3.02 9.31 3.35 9.77 3.56 10.44 3.66 11.06 3.66 11.43 3.59 11.92 3.61 12.14 3.88 12.25 4.02 11.59 4.32 11.62 4.54 12.07 4.49 12.11 4.22 12.57 4.33 12.99 4.36 13.37 4.31 13.72 4.15 14.09 3.72 14.25 3.57 14.24 3.41 14.06 3.25 13.92 3.12 13.68 2.86 13.68 2.73 13.79 2.64 14.13 2.47 14.35 2.28 14.51 2.07 14.6 1.74 14.58 1.5 14.61 0.95 14.42 0.57 14.72 0.35 14.78 0.09 14.9 0 15.28 0.01 15.74 0.29 16.19 0.38 16.61 0.54 17.38 0.65 17.51 0.87 17.36 1.09 17.3 1.47 17.48 1.8 17.61 2.2 18.01 2.98 18.55 3.71 18.61 3.94 18.21 4.33 17.93 4.92 17.64 5.01 17.58 5.25 17.7 5.55 17.92 5.79 18.16 6.04 18.42 6.28 18.84 6.54 19.25 6.8 19.55 6.93 19.92 7.04 20.12 7.1 20.53 7.22 21 7.3 21.23 7.31 22.24 7.49 22.44 7.5 23.33 7.49 23.56 7.45 23.84 7.38 24.09 7.07 24.51 7.02 24.67 7.24 24.87 7.32 25.46 7.26 26.29 7.05 26.53 6.88 26.88 6.86 27.16 6.92 27.01 7.12 27.17 7.25 27.62 7.42 27.84 7.43 28.24 7.31 28.22 7.51 28.4 7.66 28.57 7.8 28.95 7.98 29.03 8.13 29.36 8.28 29.77 8.33 30.3 8.37 30.54 8.35 30.79 8.3 31.07 8.38 30.9 8.49 30.86 8.62 30.99 8.84 30.96 9.05 31.05 9.21 31.16 9.37 31.15 9.51 31.41 9.62 31.64 9.78 31.69 10.07 31.57 10.29 31.59 10.52 31.83 10.61 31.94 10.73 32.26 10.92 32.18 11.19 32.44 11.4 32.45 11.65 32.41 11.81 32.44 12.07 32.54 12.26 32.53 12.4 32.61 12.52 32.63 12.66 32.3 13.1 32.62 13.51 32.8 13.68 32.8 13.79 32.72 13.92 32.2 14.34 32.1 14.54 32.33 15.08 32.1 15.32 31.88 15.76 31.63 16.15 31.61 16.29 31.44 16.5 31.46 16.7 31.62 16.89 31.87 17.3 31.96 17.51 32.09 17.73 32.27 17.81 32.6 18 32.78 18.07 33.18 18.2 33.35 18.27 33.67 18.38 34.12 18.47 35.6 18.63 37.77 18.59 38.18 18.54 38.91 18.37 39.27 18.24 39.66 17.93 40.02 17.56 40.2 17.18 40.73 17.16 41.26 17.49 41.23 17.7 41.89 18.11 42.26 18.06 42.48 17.86 42.67 17.39 42.85 17.21 42.88 16.99 42.79 16.87 42.6 16.82 42.36 16.81 42.31 16.57 43.16 16.25 43.55 16.23 44.14 16.31 44.67 16.55 44.78 16.82 45.4 17.02 45.57 17.18 45.71 17.04 45.97 17.04 46.28 17.07 46.52 17.03 46.71 16.96 47.23 16.86 47.45 16.8 46.55 17.14 46.19 17.3 46.37 17.49 46.72 17.5 46.94 17.51 47.16 17.58 47.44 17.5 47.68 17.3 48.02 17.17 48.79 16.97 49.09 16.8 48.76 16.66 48.27 16.71 48.06 16.71 49.09 16.61 49.63 16.49 50.05 16.67 50.61 17.21 51.16 17.55 51.57 17.93 52.44 18.37 53.17 18.91 53.61 19.16 54.05 19.26 54.93 19.25 55.37 19.32 55.72 19.5 55.85 19.71 55.84 19.86 55.69 20.4 54.79 21.89 53.73 23.64 53.74 23.86 54.09 24.38 54.09 24.63 54.01 24.86 53.96 25.09 53.52 25.26 53.39 25.5 53.95 25.89 54.13 26.09 54.12 26.4 54.27 26.63 54.32 26.74 54.3 26.96 54.08 27.26 53.32 27.69 53.26 28.04 53.6 28.76 53.66 29.28 53.73 29.45 54.17 29.78 56.14 30.33 57.16 30.68 57.81 30.81 57.96 30.89 58.22 31.09 58.52 31.23 59.23 31.44 59.48 31.59 59.69 31.83 60.14 32.56 60.23 33.31 60.66 34.37 60.91 35.47 60.83 35.62 60.39 35.92 60.24 36.06"/></g></g></g></svg>