<svg xmlns="http://www.w3.org/2000/svg" viewBox="0 0 50.46 54.71"><defs><style>.cls-1{isolation:isolate;}.cls-2{fill:#671919;}.cls-3{fill:#7b1e1e;}.cls-4{fill:#481212;}.cls-5{fill:#842020;}.cls-6{fill:#711c1c;}.cls-7{fill:#801f1f;}.cls-8{fill:#6f1b1b;}.cls-9{fill:#8e2323;}.cls-10{fill:#a52929;}.cls-11{fill:#7f1f1f;}.cls-12{fill:#661919;}.cls-13{fill:#a02727;}.cls-14{fill:#4a1212;}.cls-15{fill:#791e1e;}.cls-16{fill:#9d2626;}.cls-17{fill:#a82929;}.cls-18{fill:#6a1a1a;}.cls-19{fill:#8a2222;}.cls-20{fill:#892222;}.cls-21{fill:#972525;}.cls-22{fill:#7a1e1e;}.cls-23{fill:#681a1a;}.cls-24{fill:#721c1c;}.cls-25{fill:#7e1f1f;}.cls-26{fill:#4e1313;}.cls-27{fill:#6e1b1b;}.cls-28{fill:#4c1313;}.cls-29{fill:#922424;}.cls-30{fill:#581616;}.cls-31{fill:#992525;}.cls-32{fill:#681919;}.cls-33{fill:#521414;}.cls-34{fill:#7c1e1e;}.cls-35{fill:#621818;}.cls-36{fill:#9d2727;}.cls-37{fill:#952424;}.cls-38{fill:#962525;}.cls-39{fill:#741c1c;}.cls-40{fill:#9b2626;}.cls-41{fill:#812020;}.cls-42{fill:#a92929;}.cls-43{fill:#5c1717;}.cls-44{fill:#491212;}.cls-45{fill:#8d2323;}.cls-46{fill:#a22828;}.cls-47{fill:#8b2222;}.cls-48{fill:#641818;}.cls-49{fill:#4b1212;}.cls-50{fill:#551515;}.cls-51{fill:#5f1717;}.cls-52{fill:#5d1717;}.cls-53{fill:#4d1313;}.cls-54{fill:#651919;}.cls-55{fill:#5a1616;}.cls-56{fill:#9e2727;}.cls-57{fill:#a72929;}.cls-58{fill:#872121;}.cls-59{fill:#691a1a;}.cls-60{fill:#a62929;}.cls-61{fill:#6d1b1b;}.cls-62{fill:#701b1b;}.cls-63{fill:#852020;}.cls-64{fill:#5b1616;}.cls-65{fill:#771d1d;}.cls-66{fill:#511414;}.cls-67{fill:#862121;}.cls-68{fill:#4f1313;}.cls-69{fill:#611818;}.cls-70{fill:#942424;}.cls-71{fill:#741d1d;}.cls-72{fill:#902323;}.cls-73{fill:#822020;}.cls-74{fill:#751d1d;}.cls-75{fill:#601818;}.cls-76{fill:#761d1d;}.cls-77{fill:#c83131;}</style></defs><title>Uganda</title><g id="Layer_2" data-name="Layer 2"><g id="Layer_1-2" data-name="Layer 1"><g class="cls-1"><polygon class="cls-2" points="20.18 0.52 20.13 16.82 20.11 17.24 20.15 0.93 20.18 0.52"/><polygon class="cls-3" points="20.52 0.92 20.48 17.22 20.43 17.35 20.48 1.05 20.52 0.92"/><polygon class="cls-4" points="16.39 1.33 16.34 17.63 16.34 17 16.38 0.7 16.39 1.33"/><polygon class="cls-4" points="16.39 2.19 16.35 18.49 16.34 17.63 16.39 1.33 16.39 2.19"/><polygon class="cls-5" points="34.33 3.32 34.29 19.62 34.23 19.75 34.28 3.44 34.33 3.32"/><polygon class="cls-6" points="34.28 3.44 34.23 19.75 34.2 19.87 34.25 3.57 34.28 3.44"/><polygon class="cls-7" points="40.19 6.43 40.15 22.74 40.02 23.04 40.07 6.74 40.19 6.43"/><polygon class="cls-8" points="40.5 7.4 40.46 23.7 40.39 24.12 40.44 7.82 40.5 7.4"/><polygon class="cls-9" points="41.59 8.34 41.54 24.64 41.43 24.82 41.48 8.52 41.59 8.34"/><polygon class="cls-10" points="41.48 8.52 41.43 24.82 40.94 25.17 40.99 8.87 41.48 8.52"/><polygon class="cls-11" points="40.99 8.87 40.94 25.17 40.89 25.3 40.94 8.99 40.99 8.87"/><polygon class="cls-12" points="40.94 8.99 40.89 25.3 40.88 25.56 40.93 9.25 40.94 8.99"/><polygon class="cls-13" points="40.93 9.25 40.88 25.56 40.63 25.78 40.68 9.48 40.93 9.25"/><polygon class="cls-4" points="8.62 9.4 8.57 25.71 8.48 25.55 8.53 9.25 8.62 9.4"/><polygon class="cls-14" points="9.03 9.78 8.99 26.09 8.57 25.71 8.62 9.4 9.03 9.78"/><polygon class="cls-15" points="40.9 9.67 40.85 25.97 40.79 26.18 40.84 9.88 40.9 9.67"/><polygon class="cls-16" points="40.84 9.88 40.79 26.18 40.62 26.2 40.66 9.9 40.84 9.88"/><polygon class="cls-17" points="40.66 9.9 40.62 26.2 40.48 26.26 40.52 9.95 40.66 9.9"/><polygon class="cls-4" points="4.59 10.82 4.54 27.12 4.48 26.4 4.53 10.1 4.59 10.82"/><polygon class="cls-18" points="41.63 11.51 41.59 27.81 41.58 27.93 41.62 11.63 41.63 11.51"/><polygon class="cls-4" points="3.89 11.66 3.84 27.97 3.84 27.78 3.88 11.47 3.89 11.66"/><polygon class="cls-19" points="41.62 11.63 41.58 27.93 41.37 28.3 41.41 12 41.62 11.63"/><polygon class="cls-20" points="41.8 12.64 41.75 28.95 41.65 29.13 41.7 12.83 41.8 12.64"/><polygon class="cls-21" points="41.7 12.83 41.65 29.13 41.48 29.34 41.52 13.04 41.7 12.83"/><polygon class="cls-22" points="41.52 13.04 41.48 29.34 41.41 29.54 41.46 13.23 41.52 13.04"/><polygon class="cls-4" points="0.25 14.6 0.2 30.9 0 30.28 0.05 13.98 0.25 14.6"/><polygon class="cls-23" points="42.73 14.46 42.69 30.76 42.66 31.09 42.71 14.79 42.73 14.46"/><polygon class="cls-24" points="0.95 14.67 0.9 30.97 0.59 30.9 0.64 14.59 0.95 14.67"/><polygon class="cls-25" points="0.64 14.59 0.59 30.9 0.51 31.11 0.56 14.81 0.64 14.59"/><polygon class="cls-26" points="1.18 14.84 1.13 31.14 0.9 30.97 0.95 14.67 1.18 14.84"/><polygon class="cls-27" points="1.47 14.92 1.42 31.22 1.13 31.14 1.18 14.84 1.47 14.92"/><polygon class="cls-4" points="0.47 14.93 0.42 31.23 0.2 30.9 0.25 14.6 0.47 14.93"/><polygon class="cls-21" points="0.56 14.81 0.51 31.11 0.42 31.23 0.47 14.93 0.56 14.81"/><polygon class="cls-4" points="1.61 15.14 1.56 31.45 1.42 31.22 1.47 14.92 1.61 15.14"/><polygon class="cls-4" points="1.63 15.38 1.58 31.68 1.56 31.45 1.61 15.14 1.63 15.38"/><polygon class="cls-4" points="1.74 15.79 1.69 32.09 1.58 31.68 1.63 15.38 1.74 15.79"/><polygon class="cls-4" points="1.85 15.99 1.8 32.3 1.69 32.09 1.74 15.79 1.85 15.99"/><polygon class="cls-4" points="2.38 16.62 2.34 32.92 1.8 32.3 1.85 15.99 2.38 16.62"/><polygon class="cls-4" points="2.6 16.86 2.55 33.16 2.34 32.92 2.38 16.62 2.6 16.86"/><polygon class="cls-28" points="2.71 16.96 2.66 33.26 2.55 33.16 2.6 16.86 2.71 16.96"/><polygon class="cls-29" points="3.77 16.97 3.72 33.27 3.5 33.28 3.55 16.98 3.77 16.97"/><polygon class="cls-30" points="2.84 17.03 2.8 33.33 2.66 33.26 2.71 16.96 2.84 17.03"/><polygon class="cls-20" points="3.02 17.03 2.98 33.34 2.8 33.33 2.84 17.03 3.02 17.03"/><polygon class="cls-31" points="3.55 16.98 3.5 33.28 2.98 33.34 3.02 17.03 3.55 16.98"/><polygon class="cls-3" points="4.19 17.04 4.14 33.34 3.72 33.27 3.77 16.97 4.19 17.04"/><polygon class="cls-32" points="4.52 17.15 4.47 33.45 4.14 33.34 4.19 17.04 4.52 17.15"/><polygon class="cls-33" points="4.77 17.31 4.73 33.61 4.47 33.45 4.52 17.15 4.77 17.31"/><polygon class="cls-4" points="5.1 17.92 5.05 34.23 4.73 33.61 4.77 17.31 5.1 17.92"/><polygon class="cls-30" points="10.86 18.32 10.81 34.63 10.51 34.47 10.56 18.17 10.86 18.32"/><polygon class="cls-34" points="12.24 18.35 12.19 34.65 11.97 34.62 12.02 18.32 12.24 18.35"/><polygon class="cls-35" points="11.02 18.39 10.98 34.69 10.81 34.63 10.86 18.32 11.02 18.39"/><polygon class="cls-36" points="12.02 18.32 11.97 34.62 11.38 34.71 11.42 18.41 12.02 18.32"/><polygon class="cls-37" points="10.56 18.17 10.51 34.47 10.31 34.72 10.36 18.42 10.56 18.17"/><polygon class="cls-38" points="11.42 18.41 11.38 34.71 11.14 34.73 11.19 18.43 11.42 18.41"/><polygon class="cls-39" points="11.19 18.43 11.14 34.73 10.98 34.69 11.02 18.39 11.19 18.43"/><polygon class="cls-4" points="5.6 18.51 5.56 34.81 5.05 34.23 5.1 17.92 5.6 18.51"/><polygon class="cls-28" points="12.5 18.57 12.46 34.87 12.19 34.65 12.24 18.35 12.5 18.57"/><polygon class="cls-40" points="8.68 18.56 8.63 34.86 8.45 34.88 8.5 18.58 8.68 18.56"/><polygon class="cls-41" points="9.84 18.68 9.79 34.98 8.63 34.86 8.68 18.56 9.84 18.68"/><polygon class="cls-42" points="10.36 18.42 10.31 34.72 9.79 34.98 9.84 18.68 10.36 18.42"/><polygon class="cls-17" points="8.5 18.58 8.45 34.88 8.2 35.03 8.25 18.72 8.5 18.58"/><polygon class="cls-4" points="5.71 18.76 5.67 35.06 5.56 34.81 5.6 18.51 5.71 18.76"/><polygon class="cls-33" points="5.83 18.83 5.79 35.14 5.67 35.06 5.71 18.76 5.83 18.83"/><polygon class="cls-4" points="12.65 18.88 12.61 35.18 12.46 34.87 12.5 18.57 12.65 18.88"/><polygon class="cls-43" points="6.1 18.96 6.05 35.26 5.79 35.14 5.83 18.83 6.1 18.96"/><polygon class="cls-44" points="6.27 19.12 6.22 35.42 6.05 35.26 6.1 18.96 6.27 19.12"/><polygon class="cls-45" points="8.45 19.07 8.4 35.37 8.3 35.53 8.35 19.23 8.45 19.07"/><polygon class="cls-4" points="6.33 19.25 6.28 35.55 6.22 35.42 6.27 19.12 6.33 19.25"/><polygon class="cls-46" points="8.35 19.23 8.3 35.53 8.14 35.57 8.18 19.26 8.35 19.23"/><polygon class="cls-34" points="7.71 19.26 7.67 35.57 7.49 35.54 7.54 19.24 7.71 19.26"/><polygon class="cls-47" points="7.96 19.27 7.91 35.58 7.67 35.57 7.71 19.26 7.96 19.27"/><polygon class="cls-29" points="8.18 19.26 8.14 35.57 7.91 35.58 7.96 19.27 8.18 19.26"/><polygon class="cls-16" points="7.54 19.24 7.49 35.54 6.61 35.68 6.66 19.38 7.54 19.24"/><polygon class="cls-48" points="6.66 19.38 6.61 35.68 6.28 35.55 6.33 19.25 6.66 19.38"/><polygon class="cls-4" points="12.76 19.39 12.71 35.7 12.61 35.18 12.65 18.88 12.76 19.39"/><polygon class="cls-4" points="12.87 19.95 12.82 36.25 12.71 35.7 12.76 19.39 12.87 19.95"/><polygon class="cls-4" points="12.91 20.15 12.86 36.45 12.82 36.25 12.87 19.95 12.91 20.15"/><polygon class="cls-4" points="13.03 20.75 12.98 37.06 12.86 36.45 12.91 20.15 13.03 20.75"/><polygon class="cls-4" points="12.75 23.88 12.7 40.18 12.54 39.44 12.59 23.14 12.75 23.88"/><polygon class="cls-4" points="12.84 24.26 12.79 40.56 12.7 40.18 12.75 23.88 12.84 24.26"/><polygon class="cls-4" points="12.98 24.92 12.93 41.22 12.79 40.56 12.84 24.26 12.98 24.92"/><polygon class="cls-4" points="12.5 25.73 12.45 42.03 12.4 41.91 12.45 25.6 12.5 25.73"/><polygon class="cls-4" points="12.5 25.83 12.46 42.13 12.45 42.03 12.5 25.73 12.5 25.83"/><polygon class="cls-4" points="12.1 26.26 12.05 42.57 12.02 42.3 12.06 26 12.1 26.26"/><polygon class="cls-49" points="12.31 26.45 12.26 42.76 12.05 42.57 12.1 26.26 12.31 26.45"/><polygon class="cls-4" points="12.31 26.55 12.26 42.85 12.26 42.76 12.31 26.45 12.31 26.55"/><polygon class="cls-50" points="12.44 26.62 12.39 42.92 12.26 42.85 12.31 26.55 12.44 26.62"/><polygon class="cls-51" points="12.74 26.75 12.7 43.06 12.39 42.92 12.44 26.62 12.74 26.75"/><polygon class="cls-4" points="12.82 26.85 12.78 43.15 12.7 43.06 12.74 26.75 12.82 26.85"/><polygon class="cls-4" points="12.9 27.13 12.86 43.44 12.78 43.15 12.82 26.85 12.9 27.13"/><polygon class="cls-4" points="13 27.48 12.95 43.78 12.86 43.44 12.9 27.13 13 27.48"/><polygon class="cls-4" points="12.39 28.81 12.35 45.11 12.16 44.84 12.21 28.54 12.39 28.81"/><polygon class="cls-52" points="12.78 28.98 12.73 45.29 12.35 45.11 12.39 28.81 12.78 28.98"/><polygon class="cls-53" points="13.26 29.36 13.21 45.66 12.73 45.29 12.78 28.98 13.26 29.36"/><polygon class="cls-50" points="13.39 29.43 13.34 45.74 13.21 45.66 13.26 29.36 13.39 29.43"/><polygon class="cls-54" points="14.05 29.67 14 45.98 13.34 45.74 13.39 29.43 14.05 29.67"/><polygon class="cls-55" points="14.32 29.81 14.27 46.11 14 45.98 14.05 29.67 14.32 29.81"/><polygon class="cls-4" points="14.45 30.02 14.4 46.33 14.27 46.11 14.32 29.81 14.45 30.02"/><polygon class="cls-4" points="14.47 30.18 14.42 46.49 14.4 46.33 14.45 30.02 14.47 30.18"/><polygon class="cls-4" points="14.52 30.62 14.48 46.92 14.42 46.49 14.47 30.18 14.52 30.62"/><polygon class="cls-4" points="14.57 30.74 14.53 47.04 14.48 46.92 14.52 30.62 14.57 30.74"/><polygon class="cls-4" points="14.67 30.84 14.62 47.15 14.53 47.04 14.57 30.74 14.67 30.84"/><polygon class="cls-4" points="15.32 31.81 15.28 48.11 14.62 47.15 14.67 30.84 15.32 31.81"/><polygon class="cls-17" points="50.46 20.31 50.41 36.61 30.07 48.44 30.12 32.13 50.46 20.31"/><polygon class="cls-56" points="30.12 32.13 30.07 48.44 29.91 48.46 29.96 32.16 30.12 32.13"/><polygon class="cls-4" points="15.44 32.21 15.39 48.52 15.28 48.11 15.32 31.81 15.44 32.21"/><polygon class="cls-57" points="29.96 32.16 29.91 48.46 29.62 48.56 29.66 32.26 29.96 32.16"/><polygon class="cls-49" points="15.67 32.42 15.63 48.72 15.39 48.52 15.44 32.21 15.67 32.42"/><polygon class="cls-58" points="29.66 32.26 29.62 48.56 29.5 48.79 29.55 32.48 29.66 32.26"/><polygon class="cls-32" points="16.04 32.54 15.99 48.84 15.63 48.72 15.67 32.42 16.04 32.54"/><polygon class="cls-30" points="16.17 32.61 16.12 48.91 15.99 48.84 16.04 32.54 16.17 32.61"/><polygon class="cls-40" points="29.55 32.48 29.5 48.79 29.33 48.98 29.38 32.67 29.55 32.48"/><polygon class="cls-4" points="16.25 32.7 16.21 49.01 16.12 48.91 16.17 32.61 16.25 32.7"/><polygon class="cls-4" points="16.4 32.9 16.35 49.2 16.21 49.01 16.25 32.7 16.4 32.9"/><polygon class="cls-59" points="29.38 32.67 29.33 48.98 29.3 49.34 29.34 33.04 29.38 32.67"/><polygon class="cls-60" points="29.34 33.04 29.3 49.34 29.07 49.5 29.12 33.19 29.34 33.04"/><polygon class="cls-42" points="29.12 33.19 29.07 49.5 28.92 49.57 28.96 33.27 29.12 33.19"/><polygon class="cls-28" points="16.96 33.36 16.91 49.66 16.35 49.2 16.4 32.9 16.96 33.36"/><polygon class="cls-60" points="28.96 33.27 28.92 49.57 28.61 49.78 28.65 33.48 28.96 33.27"/><polygon class="cls-53" points="17.15 33.52 17.11 49.82 16.91 49.66 16.96 33.36 17.15 33.52"/><polygon class="cls-36" points="28.65 33.48 28.61 49.78 28.52 49.87 28.57 33.57 28.65 33.48"/><polygon class="cls-28" points="17.7 33.96 17.65 50.26 17.11 49.82 17.15 33.52 17.7 33.96"/><polygon class="cls-28" points="17.79 34.03 17.75 50.34 17.65 50.26 17.7 33.96 17.79 34.03"/><polygon class="cls-42" points="28.57 33.57 28.52 49.87 27.57 50.38 27.62 34.08 28.57 33.57"/><polygon class="cls-61" points="27.62 34.08 27.57 50.38 27.51 50.83 27.56 34.53 27.62 34.08"/><polygon class="cls-28" points="18.48 34.6 18.43 50.9 17.75 50.34 17.79 34.03 18.48 34.6"/><polygon class="cls-54" points="18.68 34.67 18.64 50.98 18.43 50.9 18.48 34.6 18.68 34.67"/><polygon class="cls-62" points="19.03 34.76 18.98 51.06 18.64 50.98 18.68 34.67 19.03 34.76"/><polygon class="cls-14" points="19.72 35.42 19.68 51.72 18.98 51.06 19.03 34.76 19.72 35.42"/><polygon class="cls-54" points="27.75 35.15 27.71 51.45 27.7 51.78 27.74 35.48 27.75 35.15"/><polygon class="cls-63" points="27.74 35.48 27.7 51.78 27.65 51.88 27.7 35.57 27.74 35.48"/><polygon class="cls-53" points="20.16 35.77 20.12 52.07 19.68 51.72 19.72 35.42 20.16 35.77"/><polygon class="cls-33" points="20.3 35.86 20.25 52.16 20.12 52.07 20.16 35.77 20.3 35.86"/><polygon class="cls-54" points="20.61 35.97 20.57 52.27 20.25 52.16 20.3 35.86 20.61 35.97"/><polygon class="cls-64" points="20.76 36.04 20.72 52.35 20.57 52.27 20.61 35.97 20.76 36.04"/><polygon class="cls-65" points="27.81 35.98 27.76 52.28 27.66 52.66 27.7 36.35 27.81 35.98"/><polygon class="cls-66" points="21.22 36.35 21.18 52.65 20.72 52.35 20.76 36.04 21.22 36.35"/><polygon class="cls-4" points="21.24 36.44 21.19 52.74 21.18 52.65 21.22 36.35 21.24 36.44"/><polygon class="cls-67" points="27.7 36.35 27.66 52.66 27.57 52.83 27.61 36.53 27.7 36.35"/><polygon class="cls-61" points="27.61 36.53 27.57 52.83 27.55 52.96 27.6 36.66 27.61 36.53"/><polygon class="cls-4" points="21.27 36.78 21.23 53.08 21.06 52.9 21.1 36.59 21.27 36.78"/><polygon class="cls-68" points="21.65 37.05 21.61 53.35 21.23 53.08 21.27 36.78 21.65 37.05"/><polygon class="cls-69" points="21.79 37.1 21.74 53.41 21.61 53.35 21.65 37.05 21.79 37.1"/><polygon class="cls-8" points="22.14 37.2 22.09 53.5 21.74 53.41 21.79 37.1 22.14 37.2"/><polygon class="cls-19" points="27.69 36.78 27.64 53.08 27.38 53.53 27.43 37.23 27.69 36.78"/><polygon class="cls-41" points="26.17 37.24 26.13 53.55 25.67 53.49 25.71 37.19 26.17 37.24"/><polygon class="cls-12" points="26.34 37.3 26.29 53.6 26.13 53.55 26.17 37.24 26.34 37.3"/><polygon class="cls-55" points="22.4 37.33 22.35 53.63 22.09 53.5 22.14 37.2 22.4 37.33"/><polygon class="cls-70" points="27.43 37.23 27.38 53.53 27.29 53.65 27.34 37.35 27.43 37.23"/><polygon class="cls-60" points="27.34 37.35 27.29 53.65 27.17 53.74 27.21 37.44 27.34 37.35"/><polygon class="cls-30" points="26.63 37.45 26.58 53.76 26.29 53.6 26.34 37.3 26.63 37.45"/><polygon class="cls-57" points="27.21 37.44 27.17 53.74 27.01 53.8 27.05 37.49 27.21 37.44"/><polygon class="cls-71" points="26.83 37.5 26.78 53.8 26.58 53.76 26.63 37.45 26.83 37.5"/><polygon class="cls-72" points="27.05 37.49 27.01 53.8 26.78 53.8 26.83 37.5 27.05 37.49"/><polygon class="cls-73" points="25.71 37.19 25.67 53.49 25.52 53.82 25.57 37.52 25.71 37.19"/><polygon class="cls-28" points="22.73 37.61 22.69 53.91 22.35 53.63 22.4 37.33 22.73 37.61"/><polygon class="cls-60" points="25.57 37.52 25.52 53.82 25.21 53.92 25.26 37.62 25.57 37.52"/><polygon class="cls-50" points="22.89 37.7 22.85 54 22.69 53.91 22.73 37.61 22.89 37.7"/><polygon class="cls-74" points="23.05 37.73 23.01 54.03 22.85 54 22.89 37.7 23.05 37.73"/><polygon class="cls-41" points="23.22 37.75 23.18 54.05 23.01 54.03 23.05 37.73 23.22 37.75"/><polygon class="cls-57" points="25.26 37.62 25.21 53.92 24.99 54.06 25.04 37.76 25.26 37.62"/><polygon class="cls-75" points="23.45 37.85 23.41 54.15 23.18 54.05 23.22 37.75 23.45 37.85"/><polygon class="cls-19" points="25.04 37.76 24.99 54.06 24.93 54.16 24.98 37.86 25.04 37.76"/><polygon class="cls-39" points="24.98 37.86 24.93 54.16 24.91 54.27 24.96 37.96 24.98 37.86"/><polygon class="cls-14" points="23.63 38.02 23.59 54.32 23.41 54.15 23.45 37.85 23.63 38.02"/><polygon class="cls-76" points="23.95 38.08 23.9 54.38 23.59 54.32 23.63 38.02 23.95 38.08"/><polygon class="cls-5" points="24.96 37.96 24.91 54.27 24.85 54.39 24.9 38.09 24.96 37.96"/><polygon class="cls-50" points="24.07 38.15 24.02 54.45 23.9 54.38 23.95 38.08 24.07 38.15"/><polygon class="cls-56" points="24.9 38.09 24.85 54.39 24.76 54.48 24.8 38.18 24.9 38.09"/><polygon class="cls-57" points="24.8 38.18 24.76 54.48 24.63 54.57 24.67 38.26 24.8 38.18"/><polygon class="cls-77" points="38.34 4.9 38.52 5.14 39.85 5.95 39.96 6.06 40.19 6.43 40.07 6.74 40.11 7.01 40.5 7.4 40.44 7.82 40.7 7.94 41.08 8.03 41.41 8.13 41.59 8.34 41.48 8.52 40.99 8.87 40.94 8.99 40.93 9.25 40.68 9.48 40.75 9.58 40.9 9.67 40.84 9.88 40.66 9.9 40.52 9.95 40.52 10.11 40.58 10.21 40.65 10.32 40.77 10.43 41.05 10.6 41.15 10.7 41.41 11.04 41.46 11.29 41.63 11.51 41.62 11.63 41.41 12 41.6 12.22 41.78 12.45 41.8 12.64 41.7 12.83 41.52 13.04 41.46 13.23 41.55 13.41 42.05 13.9 42.14 14.15 42.3 14.28 42.62 14.37 42.73 14.46 42.71 14.79 42.88 15.5 43.03 16.1 43.14 16.19 44.03 16.46 44.91 16.73 45.18 16.88 46.1 17.55 47.31 18.43 48.15 19.05 49.08 19.55 50.46 20.31 30.12 32.13 29.96 32.16 29.66 32.26 29.55 32.48 29.38 32.67 29.34 33.04 29.12 33.19 28.96 33.27 28.65 33.48 28.57 33.57 27.62 34.08 27.56 34.53 27.56 34.74 27.73 35.03 27.75 35.15 27.74 35.48 27.7 35.57 27.81 35.98 27.7 36.35 27.61 36.53 27.6 36.66 27.69 36.78 27.43 37.23 27.34 37.35 27.21 37.44 27.05 37.49 26.83 37.5 26.63 37.45 26.34 37.3 26.17 37.24 25.71 37.19 25.57 37.52 25.26 37.62 25.04 37.76 24.98 37.86 24.96 37.96 24.9 38.09 24.8 38.18 24.67 38.26 24.39 38.41 24.07 38.15 23.95 38.08 23.63 38.02 23.45 37.85 23.22 37.75 23.05 37.73 22.89 37.7 22.73 37.61 22.4 37.33 22.14 37.2 21.79 37.1 21.65 37.05 21.27 36.78 21.1 36.59 21.24 36.44 21.22 36.35 20.76 36.04 20.61 35.97 20.3 35.86 20.16 35.77 19.72 35.42 19.03 34.76 18.68 34.67 18.48 34.6 17.79 34.03 17.7 33.96 17.15 33.52 16.96 33.36 16.4 32.9 16.25 32.7 16.17 32.61 16.04 32.54 15.67 32.42 15.44 32.21 15.32 31.81 14.67 30.84 14.57 30.74 14.52 30.62 14.47 30.18 14.45 30.02 14.32 29.81 14.05 29.67 13.39 29.43 13.26 29.36 12.78 28.98 12.39 28.81 12.21 28.54 12.28 28.31 12.29 28.21 12.45 27.98 13 27.48 12.9 27.13 12.82 26.85 12.74 26.75 12.44 26.62 12.31 26.55 12.31 26.45 12.1 26.26 12.06 26 12.5 25.83 12.5 25.73 12.45 25.6 12.47 25.49 12.71 25.37 12.88 25.22 12.98 24.92 12.84 24.26 12.75 23.88 12.59 23.14 12.76 22.2 12.94 21.25 13.03 20.75 12.91 20.15 12.87 19.95 12.76 19.39 12.65 18.88 12.5 18.57 12.24 18.35 12.02 18.32 11.42 18.41 11.19 18.43 11.02 18.39 10.86 18.32 10.56 18.17 10.36 18.42 9.84 18.68 8.68 18.56 8.5 18.58 8.25 18.72 8.32 18.89 8.45 19.07 8.35 19.23 8.18 19.26 7.96 19.27 7.71 19.26 7.54 19.24 6.66 19.38 6.33 19.25 6.27 19.12 6.1 18.96 5.83 18.83 5.71 18.76 5.6 18.51 5.1 17.92 4.77 17.31 4.52 17.15 4.19 17.04 3.77 16.97 3.55 16.98 3.02 17.03 2.84 17.03 2.71 16.96 2.6 16.86 2.38 16.62 1.85 15.99 1.74 15.79 1.63 15.38 1.61 15.14 1.47 14.92 1.18 14.84 0.95 14.67 0.64 14.59 0.56 14.81 0.47 14.93 0.25 14.6 0.05 13.98 0.09 13.59 0.24 13.26 0.38 13.12 0.45 12.89 0.51 12.64 0.63 12.51 0.94 12.33 1.25 12.19 1.59 12.09 2.44 11.94 3.74 11.72 3.89 11.66 3.88 11.47 3.94 11.38 4.52 10.92 4.59 10.82 4.53 10.1 4.73 10.02 5.08 9.99 6.08 10.02 6.33 10.06 6.48 10.12 6.8 10.28 6.96 10.32 7.65 10.01 8.04 9.99 8.35 10.01 8.53 9.97 9.03 9.78 8.62 9.4 8.53 9.25 9.01 8.11 9.22 7.91 10.34 7.14 11.3 6.49 11.68 6.07 11.94 5.62 12.04 5.21 12.12 5.12 12.3 5.07 13.82 4.98 14.03 4.95 14.28 4.85 14.91 4.52 16.03 3.93 16.28 3.75 16.38 3.52 16.39 2.92 16.39 2.19 16.39 1.33 16.38 0.7 16.39 0.07 16.67 0.01 16.93 0 17.17 0.04 17.37 0.16 18.18 0.4 19.19 0.76 19.25 0.9 19.57 0.91 19.83 0.63 19.95 0.56 20.18 0.52 20.15 0.93 20.52 0.92 20.48 1.05 20.73 0.95 20.86 0.87 20.95 0.77 21.39 0.77 21.76 0.87 21.98 0.55 22.15 0.51 22.59 0.52 22.78 0.48 22.94 0.43 23.29 0.46 23.8 0.78 24 0.97 24.07 1.15 24.28 1.43 24.53 1.64 25.4 1.85 26.28 2.29 26.5 2.33 26.73 2.3 27.13 2.17 27.36 2.15 27.57 2.18 28.77 2.65 28.95 2.68 29.4 2.69 29.66 2.72 30.38 2.42 31.15 2.6 31.83 2.87 32.69 3.04 33.48 3.02 33.64 3.07 34.01 3.07 34.18 3.1 34.32 3.2 34.33 3.32 34.28 3.44 34.25 3.57 34.35 3.69 34.66 3.82 35.53 4.03 35.94 4.13 36.96 4.37 37.09 4.44 37.32 4.64 37.44 4.73 37.59 4.8 37.74 4.86 37.91 4.9 38.34 4.9"/><polygon class="cls-42" points="24.67 38.26 24.63 54.57 24.35 54.71 24.39 38.41 24.67 38.26"/><polygon class="cls-28" points="24.39 38.41 24.35 54.71 24.02 54.45 24.07 38.15 24.39 38.41"/></g></g></g></svg>