<svg xmlns="http://www.w3.org/2000/svg" viewBox="0 0 47.09 77.41"><defs><style>.cls-1{isolation:isolate;}.cls-2{fill:#a22828;}.cls-3{fill:#a82929;}.cls-4{fill:#491212;}.cls-5{fill:#481212;}.cls-6{fill:#4b1212;}.cls-7{fill:#661919;}.cls-8{fill:#4d1313;}.cls-9{fill:#942424;}.cls-10{fill:#4e1313;}.cls-11{fill:#8c2222;}.cls-12{fill:#9b2626;}.cls-13{fill:#a42828;}.cls-14{fill:#972525;}.cls-15{fill:#791e1e;}.cls-16{fill:#4a1212;}.cls-17{fill:#681a1a;}.cls-18{fill:#561515;}.cls-19{fill:#7a1e1e;}.cls-20{fill:#6e1b1b;}.cls-21{fill:#531414;}.cls-22{fill:#691a1a;}.cls-23{fill:#6d1b1b;}.cls-24{fill:#a52828;}.cls-25{fill:#4c1313;}.cls-26{fill:#591616;}.cls-27{fill:#5b1616;}.cls-28{fill:#4f1313;}.cls-29{fill:#511414;}.cls-30{fill:#621818;}.cls-31{fill:#801f1f;}.cls-32{fill:#c83131;}.cls-33{fill:#721c1c;}</style></defs><title>W. Sahara_1</title><g id="Layer_2" data-name="Layer 2"><g id="Layer_1-2" data-name="Layer 1"><g class="cls-1"><polygon class="cls-2" points="41.92 7.05 41.87 23.36 41.27 23.86 41.32 7.56 41.92 7.05"/><polygon class="cls-3" points="41.32 7.56 41.27 23.86 40.61 24.25 40.65 7.95 41.32 7.56"/><polygon class="cls-4" points="0.44 17.8 0.4 34.1 0 33.67 0.05 17.37 0.44 17.8"/><polygon class="cls-4" points="0.99 18.37 0.95 34.67 0.4 34.1 0.44 17.8 0.99 18.37"/><polygon class="cls-5" points="1.64 19.2 1.59 35.51 0.95 34.67 0.99 18.37 1.64 19.2"/><polygon class="cls-3" points="40.65 7.95 40.61 24.25 20.62 35.87 20.66 19.56 40.65 7.95"/><polygon class="cls-3" points="20.66 19.56 20.62 35.87 19.96 36.26 20 19.95 20.66 19.56"/><polygon class="cls-5" points="1.91 19.99 1.87 36.3 1.59 35.51 1.64 19.2 1.91 19.99"/><polygon class="cls-5" points="2.07 20.23 2.02 36.53 1.87 36.3 1.91 19.99 2.07 20.23"/><polygon class="cls-6" points="2.82 20.89 2.77 37.19 2.02 36.53 2.07 20.23 2.82 20.89"/><polygon class="cls-5" points="3.05 21.25 3.01 37.55 2.77 37.19 2.82 20.89 3.05 21.25"/><polygon class="cls-6" points="3.53 21.67 3.48 37.97 3.01 37.55 3.05 21.25 3.53 21.67"/><polygon class="cls-5" points="3.79 21.98 3.75 38.28 3.48 37.97 3.53 21.67 3.79 21.98"/><polygon class="cls-5" points="4.2 22.67 4.15 38.98 3.75 38.28 3.79 21.98 4.2 22.67"/><polygon class="cls-5" points="4.26 23.16 4.21 39.46 4.15 38.98 4.2 22.67 4.26 23.16"/><polygon class="cls-5" points="2.64 26.79 2.59 43.09 2.55 42.62 2.6 26.31 2.64 26.79"/><polygon class="cls-5" points="2.36 28.59 2.32 44.9 2.16 44.33 2.21 28.03 2.36 28.59"/><polygon class="cls-5" points="2.59 28.89 2.55 45.19 2.32 44.9 2.36 28.59 2.59 28.89"/><polygon class="cls-7" points="3.01 29.03 2.96 45.34 2.55 45.19 2.59 28.89 3.01 29.03"/><polygon class="cls-8" points="3.55 29.46 3.5 45.76 2.96 45.34 3.01 29.03 3.55 29.46"/><polygon class="cls-4" points="3.97 29.88 3.92 46.18 3.5 45.76 3.55 29.46 3.97 29.88"/><polygon class="cls-5" points="4.11 30.18 4.06 46.48 3.92 46.18 3.97 29.88 4.11 30.18"/><polygon class="cls-5" points="4.32 30.86 4.28 47.17 4.06 46.48 4.11 30.18 4.32 30.86"/><polygon class="cls-9" points="38.45 30.63 38.41 46.94 37.94 47.55 37.98 31.25 38.45 30.63"/><polygon class="cls-5" points="4.73 31.41 4.69 47.71 4.28 47.17 4.32 30.86 4.73 31.41"/><polygon class="cls-4" points="5.03 31.71 4.98 48.02 4.69 47.71 4.73 31.41 5.03 31.71"/><polygon class="cls-10" points="5.32 31.93 5.27 48.23 4.98 48.02 5.03 31.71 5.32 31.93"/><polygon class="cls-11" points="37.98 31.25 37.94 47.55 37.19 48.8 37.23 32.49 37.98 31.25"/><polygon class="cls-5" points="5.6 32.49 5.56 48.79 5.27 48.23 5.32 31.93 5.6 32.49"/><polygon class="cls-12" points="37.23 32.49 37.19 48.8 37.02 48.98 37.06 32.67 37.23 32.49"/><polygon class="cls-5" points="5.73 32.91 5.68 49.21 5.56 48.79 5.6 32.49 5.73 32.91"/><polygon class="cls-13" points="37.06 32.67 37.02 48.98 36.06 49.72 36.1 33.42 37.06 32.67"/><polygon class="cls-4" points="6.34 33.55 6.29 49.85 5.68 49.21 5.73 32.91 6.34 33.55"/><polygon class="cls-14" points="36.1 33.42 36.06 49.72 35.8 50.03 35.85 33.73 36.1 33.42"/><polygon class="cls-15" points="35.85 33.73 35.8 50.03 35.67 50.45 35.72 34.14 35.85 33.73"/><polygon class="cls-16" points="6.98 34.16 6.94 50.46 6.29 49.85 6.34 33.55 6.98 34.16"/><polygon class="cls-17" points="7.22 34.23 7.17 50.54 6.94 50.46 6.98 34.16 7.22 34.23"/><polygon class="cls-18" points="7.96 34.66 7.92 50.96 7.17 50.54 7.22 34.23 7.96 34.66"/><polygon class="cls-19" points="35.72 34.14 35.67 50.45 35.46 51.14 35.5 34.84 35.72 34.14"/><polygon class="cls-18" points="9.31 35.42 9.27 51.72 7.92 50.96 7.96 34.66 9.31 35.42"/><polygon class="cls-19" points="35.5 34.84 35.46 51.14 35.2 51.96 35.25 35.65 35.5 34.84"/><polygon class="cls-5" points="9.43 35.6 9.38 51.9 9.27 51.72 9.31 35.42 9.43 35.6"/><polygon class="cls-8" points="9.71 35.82 9.67 52.13 9.38 51.9 9.43 35.6 9.71 35.82"/><polygon class="cls-5" points="9.99 36.17 9.94 52.47 9.67 52.13 9.71 35.82 9.99 36.17"/><polygon class="cls-15" points="35.25 35.65 35.2 51.96 35 52.6 35.05 36.3 35.25 35.65"/><polygon class="cls-5" points="10.44 36.74 10.39 53.04 9.94 52.47 9.99 36.17 10.44 36.74"/><polygon class="cls-5" points="10.37 37.26 10.33 53.56 10.28 53.36 10.33 37.06 10.37 37.26"/><polygon class="cls-4" points="10.65 37.54 10.6 53.84 10.33 53.56 10.37 37.26 10.65 37.54"/><polygon class="cls-5" points="10.11 38.88 10.07 55.18 10.05 54.97 10.09 38.66 10.11 38.88"/><polygon class="cls-5" points="10.35 39.54 10.31 55.84 10.07 55.18 10.11 38.88 10.35 39.54"/><polygon class="cls-5" points="10.38 39.98 10.34 56.28 10.31 55.84 10.35 39.54 10.38 39.98"/><polygon class="cls-5" points="10.39 40.92 10.35 57.23 10.34 56.28 10.38 39.98 10.39 40.92"/><polygon class="cls-5" points="10.41 41.44 10.37 57.75 10.28 57.48 10.32 41.18 10.41 41.44"/><polygon class="cls-5" points="10.46 41.79 10.41 58.09 10.37 57.75 10.41 41.44 10.46 41.79"/><polygon class="cls-5" points="10.52 41.94 10.47 58.24 10.41 58.09 10.46 41.79 10.52 41.94"/><polygon class="cls-5" points="10.54 42.11 10.49 58.41 10.47 58.24 10.52 41.94 10.54 42.11"/><polygon class="cls-20" points="10.81 43.38 10.76 59.69 10.35 59.58 10.4 43.27 10.81 43.38"/><polygon class="cls-21" points="11.11 43.58 11.07 59.88 10.76 59.69 10.81 43.38 11.11 43.58"/><polygon class="cls-3" points="47.09 43.25 47.04 59.56 46.07 60.12 46.12 43.82 47.09 43.25"/><polygon class="cls-5" points="11.31 43.82 11.27 60.13 11.07 59.88 11.11 43.58 11.31 43.82"/><polygon class="cls-5" points="10.09 43.82 10.04 60.13 10 59.26 10.05 42.96 10.09 43.82"/><polygon class="cls-3" points="46.12 43.82 46.07 60.12 45.8 60.28 45.84 43.98 46.12 43.82"/><polygon class="cls-5" points="11.35 43.96 11.3 60.26 11.27 60.13 11.31 43.82 11.35 43.96"/><polygon class="cls-22" points="10.56 43.66 10.52 59.96 10.46 60.62 10.51 44.32 10.56 43.66"/><polygon class="cls-5" points="10.25 44.39 10.2 60.69 10.04 60.13 10.09 43.82 10.25 44.39"/><polygon class="cls-5" points="11.61 44.54 11.56 60.85 11.3 60.26 11.35 43.96 11.61 44.54"/><polygon class="cls-5" points="10.54 44.88 10.49 61.18 10.2 60.69 10.25 44.39 10.54 44.88"/><polygon class="cls-5" points="11.66 44.95 11.62 61.25 11.56 60.85 11.61 44.54 11.66 44.95"/><polygon class="cls-3" points="45.84 43.98 45.8 60.28 43.83 61.43 43.87 45.12 45.84 43.98"/><polygon class="cls-16" points="10.82 45.15 10.77 61.45 10.49 61.18 10.54 44.88 10.82 45.15"/><polygon class="cls-5" points="11.85 45.33 11.8 61.63 11.62 61.25 11.66 44.95 11.85 45.33"/><polygon class="cls-5" points="11.96 45.59 11.91 61.89 11.8 61.63 11.85 45.33 11.96 45.59"/><polygon class="cls-6" points="12.35 45.93 12.3 62.23 11.91 61.89 11.96 45.59 12.35 45.93"/><polygon class="cls-3" points="43.87 45.12 43.83 61.43 42.28 62.33 42.32 46.03 43.87 45.12"/><polygon class="cls-5" points="12.56 46.65 12.51 62.95 12.3 62.23 12.35 45.93 12.56 46.65"/><polygon class="cls-3" points="42.32 46.03 42.28 62.33 40.43 63.41 40.48 47.1 42.32 46.03"/><polygon class="cls-5" points="13.24 47.64 13.19 63.95 12.51 62.95 12.56 46.65 13.24 47.64"/><polygon class="cls-3" points="40.48 47.1 40.43 63.41 38.58 64.48 38.63 48.18 40.48 47.1"/><polygon class="cls-23" points="14.01 48.19 13.96 64.49 13.74 64.43 13.79 48.12 14.01 48.19"/><polygon class="cls-3" points="38.63 48.18 38.58 64.48 38.38 64.6 38.42 48.3 38.63 48.18"/><polygon class="cls-24" points="13.79 48.12 13.74 64.43 13.39 64.69 13.43 48.38 13.79 48.12"/><polygon class="cls-5" points="13.43 48.38 13.39 64.69 13.19 64.39 13.23 48.08 13.43 48.38"/><polygon class="cls-16" points="14.48 48.63 14.44 64.93 13.96 64.49 14.01 48.19 14.48 48.63"/><polygon class="cls-5" points="14.52 48.9 14.48 65.2 14.44 64.93 14.48 48.63 14.52 48.9"/><polygon class="cls-3" points="38.42 48.3 38.38 64.6 36.18 65.88 36.22 49.58 38.42 48.3"/><polygon class="cls-5" points="14.69 49.69 14.64 65.99 14.48 65.2 14.52 48.9 14.69 49.69"/><polygon class="cls-5" points="14.8 49.97 14.76 66.28 14.64 65.99 14.69 49.69 14.8 49.97"/><polygon class="cls-4" points="15.1 50.27 15.06 66.58 14.76 66.28 14.8 49.97 15.1 50.27"/><polygon class="cls-21" points="15.7 50.64 15.65 66.94 15.06 66.58 15.1 50.27 15.7 50.64"/><polygon class="cls-3" points="36.22 49.58 36.18 65.88 33.91 67.2 33.95 50.9 36.22 49.58"/><polygon class="cls-4" points="16.09 51.06 16.04 67.36 15.65 66.94 15.7 50.64 16.09 51.06"/><polygon class="cls-5" points="16.23 51.61 16.18 67.91 16.04 67.36 16.09 51.06 16.23 51.61"/><polygon class="cls-3" points="33.95 50.9 33.91 67.2 31.63 68.52 31.68 52.22 33.95 50.9"/><polygon class="cls-4" points="16.81 52.22 16.77 68.53 16.18 67.91 16.23 51.61 16.81 52.22"/><polygon class="cls-5" points="16.9 52.39 16.85 68.69 16.77 68.53 16.81 52.22 16.9 52.39"/><polygon class="cls-5" points="16.9 52.69 16.85 68.99 16.85 68.69 16.9 52.39 16.9 52.69"/><polygon class="cls-3" points="31.68 52.22 31.63 68.52 29.44 69.79 29.48 53.49 31.68 52.22"/><polygon class="cls-5" points="16.09 54.07 16.05 70.37 15.94 69.97 15.99 53.67 16.09 54.07"/><polygon class="cls-5" points="16.26 54.3 16.21 70.61 16.05 70.37 16.09 54.07 16.26 54.3"/><polygon class="cls-5" points="16.27 54.59 16.22 70.89 16.21 70.61 16.26 54.3 16.27 54.59"/><polygon class="cls-3" points="29.48 53.49 29.44 69.79 27.38 70.99 27.42 54.69 29.48 53.49"/><polygon class="cls-3" points="27.42 54.69 27.38 70.99 25.54 72.06 25.58 55.76 27.42 54.69"/><polygon class="cls-5" points="17 55.81 16.95 72.12 16.22 70.89 16.27 54.59 17 55.81"/><polygon class="cls-5" points="17.11 55.94 17.06 72.25 16.95 72.12 17 55.81 17.11 55.94"/><polygon class="cls-25" points="17.35 56.14 17.3 72.44 17.06 72.25 17.11 55.94 17.35 56.14"/><polygon class="cls-5" points="17.52 56.38 17.47 72.69 17.3 72.44 17.35 56.14 17.52 56.38"/><polygon class="cls-26" points="18.27 56.77 18.23 73.08 17.47 72.69 17.52 56.38 18.27 56.77"/><polygon class="cls-5" points="18.5 57.05 18.46 73.36 18.23 73.08 18.27 56.77 18.5 57.05"/><polygon class="cls-27" points="18.8 57.2 18.76 73.5 18.46 73.36 18.5 57.05 18.8 57.2"/><polygon class="cls-3" points="25.58 55.76 25.54 72.06 22.78 73.66 22.82 57.36 25.58 55.76"/><polygon class="cls-28" points="19.08 57.4 19.04 73.7 18.76 73.5 18.8 57.2 19.08 57.4"/><polygon class="cls-3" points="22.82 57.36 22.78 73.66 22 74.11 22.05 57.81 22.82 57.36"/><polygon class="cls-4" points="19.86 58.16 19.81 74.46 19.04 73.7 19.08 57.4 19.86 58.16"/><polygon class="cls-21" points="20.03 58.27 19.98 74.57 19.81 74.46 19.86 58.16 20.03 58.27"/><polygon class="cls-3" points="22.05 57.81 22 74.11 20.96 74.72 21.01 58.41 22.05 57.81"/><polygon class="cls-29" points="20.39 58.51 20.35 74.81 19.98 74.57 20.03 58.27 20.39 58.51"/><polygon class="cls-16" points="20.59 58.7 20.55 75 20.35 74.81 20.39 58.51 20.59 58.7"/><polygon class="cls-10" points="22.43 60.07 22.39 76.38 20.55 75 20.59 58.7 22.43 60.07"/><polygon class="cls-4" points="22.78 60.44 22.73 76.75 22.39 76.38 22.43 60.07 22.78 60.44"/><polygon class="cls-21" points="23.2 60.7 23.15 77 22.73 76.75 22.78 60.44 23.2 60.7"/><polygon class="cls-4" points="23.39 60.9 23.34 77.21 23.15 77 23.2 60.7 23.39 60.9"/><polygon class="cls-30" points="23.59 60.98 23.54 77.29 23.34 77.21 23.39 60.9 23.59 60.98"/><polygon class="cls-31" points="24.12 61.05 24.07 77.35 23.54 77.29 23.59 60.98 24.12 61.05"/><polygon class="cls-32" points="41.92 7.05 41.32 7.56 40.65 7.95 20.66 19.56 20 19.95 38.23 30.47 38.45 30.63 37.98 31.25 37.23 32.49 37.06 32.67 36.1 33.42 35.85 33.73 35.72 34.14 35.5 34.84 35.25 35.65 35.05 36.3 35.09 36.47 35.33 37.26 35.56 37.65 35.96 37.98 36.49 38.21 37.73 38.55 38.29 38.77 40.18 39.74 42.08 40.71 45.22 42.3 45.87 42.63 47.09 43.25 46.12 43.82 45.84 43.98 43.87 45.12 42.32 46.03 40.48 47.1 38.63 48.18 38.42 48.3 36.22 49.58 33.95 50.9 31.68 52.22 29.48 53.49 27.42 54.69 25.58 55.76 22.82 57.36 22.05 57.81 21.01 58.41 21.51 58.91 22.06 59.37 22.6 60.01 22.78 60.16 23.26 60.63 23.45 60.76 24.38 61.11 24.12 61.05 23.59 60.98 23.39 60.9 23.2 60.7 22.78 60.44 22.43 60.07 20.59 58.7 20.39 58.51 20.03 58.27 19.86 58.16 19.08 57.4 18.8 57.2 18.5 57.05 18.27 56.77 17.52 56.38 17.35 56.14 17.11 55.94 17 55.81 16.27 54.59 16.26 54.3 16.09 54.07 15.99 53.67 16.06 53.44 16.9 52.69 16.9 52.39 16.81 52.22 16.23 51.61 16.09 51.06 15.7 50.64 15.1 50.27 14.8 49.97 14.69 49.69 14.52 48.9 14.48 48.63 14.01 48.19 13.79 48.12 13.43 48.38 13.23 48.08 13.24 47.64 12.56 46.65 12.35 45.93 11.96 45.59 11.85 45.33 11.66 44.95 11.61 44.54 11.35 43.96 11.31 43.82 11.11 43.58 10.81 43.38 10.4 43.27 10.56 43.66 10.51 44.32 10.59 44.46 10.82 45.15 10.54 44.88 10.25 44.39 10.09 43.82 10.05 42.96 10.17 42.79 10.28 42.52 10.48 42.28 10.54 42.11 10.52 41.94 10.46 41.79 10.41 41.44 10.32 41.18 10.39 40.92 10.38 39.98 10.35 39.54 10.11 38.88 10.09 38.66 10.11 38.43 10.54 37.89 10.65 37.54 10.37 37.26 10.33 37.06 10.36 36.89 10.44 36.74 9.99 36.17 9.71 35.82 9.43 35.6 9.31 35.42 7.96 34.66 7.22 34.23 6.98 34.16 6.34 33.55 5.73 32.91 5.6 32.49 5.32 31.93 5.03 31.71 4.73 31.41 4.32 30.86 4.11 30.18 3.97 29.88 3.55 29.46 3.01 29.03 2.59 28.89 2.36 28.59 2.21 28.03 2.47 27.74 2.63 27.42 2.64 26.79 2.6 26.31 3.24 25.85 3.64 25.13 3.97 23.93 4.26 23.16 4.2 22.67 3.79 21.98 3.53 21.67 3.05 21.25 2.82 20.89 2.07 20.23 1.91 19.99 1.64 19.2 0.99 18.37 0.44 17.8 0.05 17.37 29.67 0 32.48 1.62 32.88 1.85 33.33 2.11 33.91 2.45 34.6 2.85 35.38 3.28 36.2 3.76 37.05 4.25 37.9 4.74 38.72 5.21 39.48 5.66 40.17 6.05 40.74 6.38 41.2 6.64 41.49 6.8 41.92 7.05"/><polygon class="cls-33" points="24.38 61.11 24.33 77.41 24.07 77.35 24.12 61.05 24.38 61.11"/></g></g></g></svg>