<svg xmlns="http://www.w3.org/2000/svg" viewBox="0 0 82.16 86.13"><defs><style>.cls-1{isolation:isolate;}.cls-2{fill:#661919;}.cls-3{fill:#8c2222;}.cls-4{fill:#671919;}.cls-5{fill:#761d1d;}.cls-6{fill:#922424;}.cls-7{fill:#511414;}.cls-8{fill:#481212;}.cls-9{fill:#681a1a;}.cls-10{fill:#711c1c;}.cls-11{fill:#a82929;}.cls-12{fill:#701b1b;}.cls-13{fill:#a42828;}.cls-14{fill:#721c1c;}.cls-15{fill:#781d1d;}.cls-16{fill:#972525;}.cls-17{fill:#4a1212;}.cls-18{fill:#982525;}.cls-19{fill:#5b1616;}.cls-20{fill:#541414;}.cls-21{fill:#a22828;}.cls-22{fill:#992525;}.cls-23{fill:#491212;}.cls-24{fill:#8e2323;}.cls-25{fill:#a92929;}.cls-26{fill:#551515;}.cls-27{fill:#832020;}.cls-28{fill:#8d2323;}.cls-29{fill:#531414;}.cls-30{fill:#a52828;}.cls-31{fill:#571515;}.cls-32{fill:#882121;}.cls-33{fill:#9e2727;}.cls-34{fill:#a72929;}.cls-35{fill:#6e1b1b;}.cls-36{fill:#952525;}.cls-37{fill:#872121;}.cls-38{fill:#6d1b1b;}.cls-39{fill:#932424;}.cls-40{fill:#8a2222;}.cls-41{fill:#751d1d;}.cls-42{fill:#7f1f1f;}.cls-43{fill:#a12727;}.cls-44{fill:#9f2727;}.cls-45{fill:#a02727;}.cls-46{fill:#962525;}.cls-47{fill:#8b2222;}.cls-48{fill:#521414;}.cls-49{fill:#9c2626;}.cls-50{fill:#942424;}.cls-51{fill:#a32828;}.cls-52{fill:#8f2323;}.cls-53{fill:#681919;}.cls-54{fill:#631818;}.cls-55{fill:#601818;}.cls-56{fill:#8d2222;}.cls-57{fill:#561515;}.cls-58{fill:#801f1f;}.cls-59{fill:#691a1a;}.cls-60{fill:#6c1a1a;}.cls-61{fill:#591616;}.cls-62{fill:#902323;}.cls-63{fill:#5c1717;}.cls-64{fill:#822020;}.cls-65{fill:#812020;}.cls-66{fill:#541515;}.cls-67{fill:#7c1e1e;}.cls-68{fill:#581515;}.cls-69{fill:#852121;}.cls-70{fill:#791e1e;}.cls-71{fill:#6b1a1a;}.cls-72{fill:#641919;}.cls-73{fill:#651919;}.cls-74{fill:#9b2626;}.cls-75{fill:#892222;}.cls-76{fill:#a62929;}.cls-77{fill:#9a2626;}.cls-78{fill:#7d1f1f;}.cls-79{fill:#952424;}.cls-80{fill:#741c1c;}.cls-81{fill:#c83131;}</style></defs><title>Zambia</title><g id="Layer_2" data-name="Layer 2"><g id="Layer_1-2" data-name="Layer 1"><g class="cls-1"><polygon class="cls-2" points="62.23 2.4 62.19 18.7 62.16 19.25 62.21 2.95 62.23 2.4"/><polygon class="cls-3" points="62.36 3.17 62.32 19.47 61.55 20.74 61.59 4.44 62.36 3.17"/><polygon class="cls-4" points="72.93 9.38 72.88 25.68 72.77 27.69 72.82 11.39 72.93 9.38"/><polygon class="cls-5" points="17.6 12.39 17.55 28.69 16.67 28.51 16.72 12.21 17.6 12.39"/><polygon class="cls-6" points="72.82 11.39 72.77 27.69 71.87 28.95 71.92 12.65 72.82 11.39"/><polygon class="cls-7" points="18.16 12.75 18.11 29.05 17.55 28.69 17.6 12.39 18.16 12.75"/><polygon class="cls-8" points="18.48 13.23 18.44 29.53 18.11 29.05 18.16 12.75 18.48 13.23"/><polygon class="cls-8" points="18.77 14.37 18.72 30.67 18.44 29.53 18.48 13.23 18.77 14.37"/><polygon class="cls-9" points="76.36 16.13 76.31 32.43 76.25 33.25 76.3 16.95 76.36 16.13"/><polygon class="cls-10" points="76.3 16.95 76.25 33.25 76.2 33.53 76.25 17.23 76.3 16.95"/><polygon class="cls-11" points="19.43 17.09 19.39 33.39 19 33.54 19.05 17.24 19.43 17.09"/><polygon class="cls-8" points="18.3 17.26 18.26 33.56 18.13 33.34 18.18 17.04 18.3 17.26"/><polygon class="cls-12" points="82.16 17.1 82.12 33.4 82.05 33.79 82.09 17.49 82.16 17.1"/><polygon class="cls-13" points="19.05 17.24 19 33.54 18.61 33.65 18.65 17.34 19.05 17.24"/><polygon class="cls-14" points="18.65 17.34 18.61 33.65 18.26 33.56 18.3 17.26 18.65 17.34"/><polygon class="cls-15" points="22.63 17.68 22.58 33.98 19.39 33.39 19.43 17.09 22.63 17.68"/><polygon class="cls-16" points="82.09 17.49 82.05 33.79 81.68 34.24 81.72 17.93 82.09 17.49"/><polygon class="cls-8" points="81.32 18.04 81.28 34.34 81.23 33.94 81.28 17.64 81.32 18.04"/><polygon class="cls-14" points="23.72 17.94 23.68 34.24 22.58 33.98 22.63 17.68 23.72 17.94"/><polygon class="cls-7" points="24.08 18.18 24.03 34.48 23.68 34.24 23.72 17.94 24.08 18.18"/><polygon class="cls-17" points="24.3 18.38 24.26 34.68 24.03 34.48 24.08 18.18 24.3 18.38"/><polygon class="cls-18" points="81.72 17.93 81.68 34.24 81.13 34.89 81.17 18.59 81.72 17.93"/><polygon class="cls-8" points="24.66 18.85 24.61 35.15 24.26 34.68 24.3 18.38 24.66 18.85"/><polygon class="cls-19" points="25.18 19.1 25.13 35.4 24.61 35.15 24.66 18.85 25.18 19.1"/><polygon class="cls-16" points="81.17 18.59 81.13 34.89 80.39 35.78 80.43 19.47 81.17 18.59"/><polygon class="cls-20" points="25.7 19.41 25.66 35.72 25.13 35.4 25.18 19.1 25.7 19.41"/><polygon class="cls-17" points="25.9 19.6 25.85 35.91 25.66 35.72 25.7 19.41 25.9 19.6"/><polygon class="cls-8" points="26.01 19.78 25.96 36.09 25.85 35.91 25.9 19.6 26.01 19.78"/><polygon class="cls-8" points="26.09 20.1 26.05 36.4 25.96 36.09 26.01 19.78 26.09 20.1"/><polygon class="cls-18" points="80.43 19.47 80.39 35.78 79.65 36.65 79.7 20.34 80.43 19.47"/><polygon class="cls-18" points="79.7 20.34 79.65 36.65 79 37.42 79.04 21.12 79.7 20.34"/><polygon class="cls-2" points="28.75 21.03 28.71 37.33 26.05 36.4 26.09 20.1 28.75 21.03"/><polygon class="cls-16" points="79.04 21.12 79 37.42 78.54 37.97 78.59 21.66 79.04 21.12"/><polygon class="cls-18" points="78.59 21.66 78.54 37.97 78.14 38.45 78.18 22.14 78.59 21.66"/><polygon class="cls-21" points="78.18 22.14 78.14 38.45 77.7 38.81 77.75 22.51 78.18 22.14"/><polygon class="cls-22" points="77.75 22.51 77.7 38.81 77.53 39.01 77.57 22.7 77.75 22.51"/><polygon class="cls-23" points="30.26 22.66 30.22 38.96 28.71 37.33 28.75 21.03 30.26 22.66"/><polygon class="cls-24" points="77.57 22.7 77.53 39.01 77.26 39.43 77.31 23.12 77.57 22.7"/><polygon class="cls-25" points="47.31 22.92 47.27 39.22 46.96 39.39 47.01 23.08 47.31 22.92"/><polygon class="cls-26" points="48.03 23.34 47.98 39.64 47.27 39.22 47.31 22.92 48.03 23.34"/><polygon class="cls-27" points="47.01 23.08 46.96 39.39 46.81 39.72 46.86 23.41 47.01 23.08"/><polygon class="cls-18" points="77.31 23.12 77.26 39.43 76.82 39.94 76.87 23.64 77.31 23.12"/><polygon class="cls-28" points="46.86 23.41 46.81 39.72 46.63 40.01 46.68 23.71 46.86 23.41"/><polygon class="cls-26" points="48.81 23.8 48.77 40.1 47.98 39.64 48.03 23.34 48.81 23.8"/><polygon class="cls-8" points="31.32 23.83 31.27 40.13 30.22 38.96 30.26 22.66 31.32 23.83"/><polygon class="cls-22" points="76.87 23.64 76.82 39.94 76.24 40.61 76.28 24.31 76.87 23.64"/><polygon class="cls-29" points="32 24.25 31.95 40.55 31.27 40.13 31.32 23.83 32 24.25"/><polygon class="cls-30" points="46.68 23.71 46.63 40.01 45.7 40.7 45.74 24.39 46.68 23.71"/><polygon class="cls-31" points="32.23 24.38 32.19 40.68 31.95 40.55 32 24.25 32.23 24.38"/><polygon class="cls-26" points="49.95 24.45 49.9 40.75 48.77 40.1 48.81 23.8 49.95 24.45"/><polygon class="cls-8" points="32.54 24.87 32.49 41.17 32.19 40.68 32.23 24.38 32.54 24.87"/><polygon class="cls-22" points="76.28 24.31 76.24 40.61 75.61 41.34 75.65 25.04 76.28 24.31"/><polygon class="cls-26" points="50.96 25.03 50.91 41.34 49.9 40.75 49.95 24.45 50.96 25.03"/><polygon class="cls-8" points="32.79 25.2 32.75 41.5 32.49 41.17 32.54 24.87 32.79 25.2"/><polygon class="cls-32" points="75.65 25.04 75.61 41.34 75.39 41.75 75.44 25.45 75.65 25.04"/><polygon class="cls-33" points="46.7 25.01 46.65 41.31 46.08 41.88 46.13 25.57 46.7 25.01"/><polygon class="cls-26" points="52.13 25.72 52.09 42.02 50.91 41.34 50.96 25.03 52.13 25.72"/><polygon class="cls-25" points="46.13 25.57 46.08 41.88 45.74 42.05 45.79 25.75 46.13 25.57"/><polygon class="cls-8" points="33.06 25.77 33.02 42.07 32.75 41.5 32.79 25.2 33.06 25.77"/><polygon class="cls-32" points="75.44 25.45 75.39 41.75 75.1 42.3 75.15 25.99 75.44 25.45"/><polygon class="cls-34" points="45.79 25.75 45.74 42.05 44.54 42.45 44.58 26.14 45.79 25.75"/><polygon class="cls-35" points="34.34 26.12 34.3 42.42 33.02 42.07 33.06 25.77 34.34 26.12"/><polygon class="cls-26" points="53.15 26.3 53.1 42.61 52.09 42.02 52.13 25.72 53.15 26.3"/><polygon class="cls-36" points="75.15 25.99 75.1 42.3 74.75 42.74 74.8 26.44 75.15 25.99"/><polygon class="cls-18" points="44.58 26.14 44.54 42.45 41.92 42.69 41.97 26.39 44.58 26.14"/><polygon class="cls-37" points="41.97 26.39 41.92 42.69 41.54 42.67 41.59 26.37 41.97 26.39"/><polygon class="cls-38" points="35.31 26.39 35.27 42.69 34.3 42.42 34.34 26.12 35.31 26.39"/><polygon class="cls-39" points="39.76 26.42 39.72 42.73 38.89 42.76 38.93 26.46 39.76 26.42"/><polygon class="cls-33" points="41.59 26.37 41.54 42.67 40.92 42.77 40.97 26.47 41.59 26.37"/><polygon class="cls-40" points="40.97 26.47 40.92 42.77 39.72 42.73 39.76 26.42 40.97 26.47"/><polygon class="cls-6" points="37.73 26.54 37.69 42.84 36.22 42.89 36.27 26.59 37.73 26.54"/><polygon class="cls-41" points="36.27 26.59 36.22 42.89 35.27 42.69 35.31 26.39 36.27 26.59"/><polygon class="cls-42" points="38.25 26.6 38.21 42.91 37.69 42.84 37.73 26.54 38.25 26.6"/><polygon class="cls-43" points="38.93 26.46 38.89 42.76 38.21 42.91 38.25 26.6 38.93 26.46"/><polygon class="cls-26" points="54.12 26.86 54.07 43.16 53.1 42.61 53.15 26.3 54.12 26.86"/><polygon class="cls-33" points="74.8 26.44 74.75 42.74 74.23 43.25 74.28 26.94 74.8 26.44"/><polygon class="cls-26" points="55.13 27.45 55.08 43.75 54.07 43.16 54.12 26.86 55.13 27.45"/><polygon class="cls-44" points="74.28 26.94 74.23 43.25 73.58 43.86 73.63 27.55 74.28 26.94"/><polygon class="cls-26" points="55.88 27.88 55.84 44.19 55.08 43.75 55.13 27.45 55.88 27.88"/><polygon class="cls-44" points="73.63 27.55 73.58 43.86 73.06 44.35 73.11 28.05 73.63 27.55"/><polygon class="cls-8" points="55.91 28.13 55.86 44.44 55.84 44.19 55.88 27.88 55.91 28.13"/><polygon class="cls-45" points="73.11 28.05 73.06 44.35 72.24 45.1 72.29 28.79 73.11 28.05"/><polygon class="cls-44" points="72.29 28.79 72.24 45.1 71.73 45.57 71.78 29.27 72.29 28.79"/><polygon class="cls-46" points="71.78 29.27 71.73 45.57 71.15 46.3 71.2 30 71.78 29.27"/><polygon class="cls-46" points="71.2 30 71.15 46.3 70.8 46.74 70.85 30.44 71.2 30"/><polygon class="cls-36" points="70.85 30.44 70.8 46.74 70.36 47.3 70.4 31 70.85 30.44"/><polygon class="cls-47" points="70.4 31 70.36 47.3 70.05 47.84 70.09 31.53 70.4 31"/><polygon class="cls-40" points="70.09 31.53 70.05 47.84 69.81 48.26 69.86 31.96 70.09 31.53"/><polygon class="cls-17" points="25.89 32.15 25.85 48.45 25.23 47.87 25.28 31.57 25.89 32.15"/><polygon class="cls-30" points="69.86 31.96 69.81 48.26 69.3 48.64 69.34 32.34 69.86 31.96"/><polygon class="cls-23" points="26.09 32.35 26.05 48.65 25.85 48.45 25.89 32.15 26.09 32.35"/><polygon class="cls-48" points="26.62 32.68 26.58 48.98 26.05 48.65 26.09 32.35 26.62 32.68"/><polygon class="cls-8" points="26.76 32.91 26.71 49.21 26.58 48.98 26.62 32.68 26.76 32.91"/><polygon class="cls-11" points="74.8 34.52 74.75 50.83 74.27 51.01 74.31 34.71 74.8 34.52"/><polygon class="cls-25" points="74.31 34.71 74.27 51.01 73.06 51.59 73.11 35.28 74.31 34.71"/><polygon class="cls-13" points="73.11 35.28 73.06 51.59 72.84 51.76 72.89 35.46 73.11 35.28"/><polygon class="cls-49" points="72.89 35.46 72.84 51.76 72.65 51.96 72.7 35.66 72.89 35.46"/><polygon class="cls-13" points="72.7 35.66 72.65 51.96 72.43 52.13 72.47 35.83 72.7 35.66"/><polygon class="cls-25" points="72.47 35.83 72.43 52.13 72.11 52.28 72.16 35.98 72.47 35.83"/><polygon class="cls-34" points="72.16 35.98 72.11 52.28 71.39 52.52 71.43 36.22 72.16 35.98"/><polygon class="cls-25" points="71.43 36.22 71.39 52.52 71.06 52.67 71.11 36.37 71.43 36.22"/><polygon class="cls-50" points="71.11 36.37 71.06 52.67 70.8 53.02 70.85 36.72 71.11 36.37"/><polygon class="cls-51" points="70.85 36.72 70.8 53.02 70.56 53.21 70.61 36.91 70.85 36.72"/><polygon class="cls-18" points="70.61 36.91 70.56 53.21 70.31 53.5 70.36 37.2 70.61 36.91"/><polygon class="cls-45" points="70.36 37.2 70.31 53.5 69.55 54.18 69.6 37.88 70.36 37.2"/><polygon class="cls-21" points="69.6 37.88 69.55 54.18 68.98 54.66 69.03 38.35 69.6 37.88"/><polygon class="cls-52" points="69.03 38.35 68.98 54.66 68.12 55.97 68.17 39.66 69.03 38.35"/><polygon class="cls-53" points="68.18 39.94 68.14 56.25 68.09 56.95 68.14 40.65 68.18 39.94"/><polygon class="cls-54" points="0.58 40.53 0.54 56.83 0 56.63 0.05 40.32 0.58 40.53"/><polygon class="cls-55" points="1.21 40.79 1.17 57.09 0.54 56.83 0.58 40.53 1.21 40.79"/><polygon class="cls-43" points="68.14 40.65 68.09 56.95 67.66 57.34 67.7 41.03 68.14 40.65"/><polygon class="cls-56" points="5.78 40.68 5.74 56.98 5.55 57.29 5.59 40.99 5.78 40.68"/><polygon class="cls-57" points="1.6 41.01 1.55 57.31 1.17 57.09 1.21 40.79 1.6 41.01"/><polygon class="cls-35" points="2.1 41.14 2.05 57.45 1.55 57.31 1.6 41.01 2.1 41.14"/><polygon class="cls-58" points="67.7 41.03 67.66 57.34 67.47 57.8 67.52 41.49 67.7 41.03"/><polygon class="cls-57" points="3.25 41.79 3.2 58.09 2.05 57.45 2.1 41.14 3.25 41.79"/><polygon class="cls-59" points="4.31 42.13 4.26 58.43 3.2 58.09 3.25 41.79 4.31 42.13"/><polygon class="cls-8" points="4.77 42.76 4.72 59.06 4.26 58.43 4.31 42.13 4.77 42.76"/><polygon class="cls-8" points="4.87 43.03 4.83 59.33 4.72 59.06 4.77 42.76 4.87 43.03"/><polygon class="cls-31" points="5.89 43.59 5.85 59.89 4.83 59.33 4.87 43.03 5.89 43.59"/><polygon class="cls-60" points="70.3 43.68 70.25 59.98 70.2 60.36 70.25 44.06 70.3 43.68"/><polygon class="cls-61" points="6.67 43.99 6.63 60.29 5.85 59.89 5.89 43.59 6.67 43.99"/><polygon class="cls-8" points="6.87 44.26 6.82 60.56 6.63 60.29 6.67 43.99 6.87 44.26"/><polygon class="cls-62" points="70.25 44.06 70.2 60.36 69.73 61.06 69.78 44.75 70.25 44.06"/><polygon class="cls-48" points="7.7 44.78 7.65 61.09 6.82 60.56 6.87 44.26 7.7 44.78"/><polygon class="cls-48" points="8.6 45.36 8.56 61.66 7.65 61.09 7.7 44.78 8.6 45.36"/><polygon class="cls-63" points="8.93 45.51 8.89 61.82 8.56 61.66 8.6 45.36 8.93 45.51"/><polygon class="cls-64" points="9.29 45.55 9.24 61.85 8.89 61.82 8.93 45.51 9.29 45.55"/><polygon class="cls-65" points="9.88 45.62 9.83 61.92 9.24 61.85 9.29 45.55 9.88 45.62"/><polygon class="cls-61" points="10.31 45.84 10.26 62.14 9.83 61.92 9.88 45.62 10.31 45.84"/><polygon class="cls-66" points="10.84 46.15 10.79 62.45 10.26 62.14 10.31 45.84 10.84 46.15"/><polygon class="cls-8" points="10.95 46.47 10.9 62.78 10.79 62.45 10.84 46.15 10.95 46.47"/><polygon class="cls-39" points="69.78 44.75 69.73 61.06 68.28 63 68.33 46.7 69.78 44.75"/><polygon class="cls-67" points="68.33 46.7 68.28 63 68.13 63.43 68.18 47.13 68.33 46.7"/><polygon class="cls-8" points="11.2 47.06 11.16 63.36 10.9 62.78 10.95 46.47 11.2 47.06"/><polygon class="cls-23" points="11.55 47.4 11.51 63.7 11.16 63.36 11.2 47.06 11.55 47.4"/><polygon class="cls-35" points="68.18 47.13 68.13 63.43 68.02 64.12 68.07 47.82 68.18 47.13"/><polygon class="cls-17" points="11.93 47.77 11.88 64.07 11.51 63.7 11.55 47.4 11.93 47.77"/><polygon class="cls-8" points="12.11 48.02 12.06 64.32 11.88 64.07 11.93 47.77 12.11 48.02"/><polygon class="cls-62" points="68.07 47.82 68.02 64.12 67.68 64.63 67.73 48.32 68.07 47.82"/><polygon class="cls-68" points="12.62 48.29 12.57 64.59 12.06 64.32 12.11 48.02 12.62 48.29"/><polygon class="cls-27" points="12.93 48.31 12.89 64.62 12.57 64.59 12.62 48.29 12.93 48.31"/><polygon class="cls-28" points="13.67 48.32 13.63 64.63 12.89 64.62 12.93 48.31 13.67 48.32"/><polygon class="cls-69" points="14.01 48.35 13.96 64.65 13.63 64.63 13.67 48.32 14.01 48.35"/><polygon class="cls-70" points="14.34 48.41 14.29 64.71 13.96 64.65 14.01 48.35 14.34 48.41"/><polygon class="cls-71" points="14.67 48.51 14.62 64.81 14.29 64.71 14.34 48.41 14.67 48.51"/><polygon class="cls-62" points="67.73 48.32 67.68 64.63 67.11 65.48 67.15 49.17 67.73 48.32"/><polygon class="cls-64" points="67.15 49.17 67.11 65.48 66.97 65.79 67.01 49.49 67.15 49.17"/><polygon class="cls-9" points="68.24 52.44 68.19 68.74 68.14 69.49 68.19 53.19 68.24 52.44"/><polygon class="cls-72" points="68.78 55.88 68.73 72.18 68.72 72.47 68.77 56.16 68.78 55.88"/><polygon class="cls-73" points="68.77 56.16 68.72 72.47 68.72 72.69 68.77 56.39 68.77 56.16"/><polygon class="cls-44" points="68.77 56.39 68.72 72.69 68.27 73.11 68.32 56.81 68.77 56.39"/><polygon class="cls-26" points="2.32 56.86 2.28 73.17 1.25 72.58 1.3 56.27 2.32 56.86"/><polygon class="cls-58" points="68.32 56.81 68.27 73.11 68.15 73.41 68.2 57.1 68.32 56.81"/><polygon class="cls-26" points="3.34 57.45 3.3 73.76 2.28 73.17 2.32 56.86 3.34 57.45"/><polygon class="cls-74" points="68.2 57.1 68.15 73.41 67.61 74 67.65 57.69 68.2 57.1"/><polygon class="cls-75" points="67.65 57.69 67.61 74 67.34 74.47 67.39 58.17 67.65 57.69"/><polygon class="cls-11" points="67.39 58.17 67.34 74.47 66.67 74.73 66.72 58.43 67.39 58.17"/><polygon class="cls-44" points="66.72 58.43 66.67 74.73 65.24 75 65.28 58.69 66.72 58.43"/><polygon class="cls-26" points="5.4 58.64 5.35 74.94 3.3 73.76 3.34 57.45 5.4 58.64"/><polygon class="cls-33" points="65.28 58.69 65.24 75 64.45 75.13 64.5 58.83 65.28 58.69"/><polygon class="cls-11" points="64.5 58.83 64.45 75.13 64.09 75.27 64.13 58.97 64.5 58.83"/><polygon class="cls-51" points="64.13 58.97 64.09 75.27 63.88 75.44 63.92 59.13 64.13 58.97"/><polygon class="cls-26" points="6.01 58.99 5.97 75.3 5.35 74.94 5.4 58.64 6.01 58.99"/><polygon class="cls-76" points="63.92 59.13 63.88 75.44 63.22 75.64 63.26 59.34 63.92 59.13"/><polygon class="cls-26" points="6.42 59.23 6.38 75.53 5.97 75.3 6.01 58.99 6.42 59.23"/><polygon class="cls-11" points="63.26 59.34 63.22 75.64 62.68 75.96 62.73 59.65 63.26 59.34"/><polygon class="cls-26" points="7.45 59.82 7.4 76.13 6.38 75.53 6.42 59.23 7.45 59.82"/><polygon class="cls-26" points="8.48 60.41 8.44 76.72 7.4 76.13 7.45 59.82 8.48 60.41"/><polygon class="cls-56" points="62.73 59.65 62.68 75.96 62.02 77.03 62.07 60.72 62.73 59.65"/><polygon class="cls-11" points="62.07 60.72 62.02 77.03 61.67 77.23 61.71 60.93 62.07 60.72"/><polygon class="cls-43" points="61.71 60.93 61.67 77.23 61.08 77.35 61.12 61.05 61.71 60.93"/><polygon class="cls-65" points="61.12 61.05 61.08 77.35 60.1 77.25 60.15 60.94 61.12 61.05"/><polygon class="cls-49" points="60.15 60.94 60.1 77.25 59.05 77.39 59.1 61.09 60.15 60.94"/><polygon class="cls-26" points="9.51 61.01 9.46 77.31 8.44 76.72 8.48 60.41 9.51 61.01"/><polygon class="cls-34" points="59.1 61.09 59.05 77.39 58.42 77.81 58.47 61.51 59.1 61.09"/><polygon class="cls-26" points="10.54 61.6 10.49 77.9 9.46 77.31 9.51 61.01 10.54 61.6"/><polygon class="cls-21" points="58.47 61.51 58.42 77.81 58.06 78.12 58.1 61.81 58.47 61.51"/><polygon class="cls-34" points="58.1 61.81 58.06 78.12 57.33 78.59 57.38 62.29 58.1 61.81"/><polygon class="cls-30" points="57.38 62.29 57.33 78.59 56.95 78.7 56.99 62.4 57.38 62.29"/><polygon class="cls-13" points="56.99 62.4 56.95 78.7 56.12 78.92 56.17 62.62 56.99 62.4"/><polygon class="cls-26" points="12.6 62.79 12.55 79.09 10.49 77.9 10.54 61.6 12.6 62.79"/><polygon class="cls-77" points="56.17 62.62 56.12 78.92 51.08 79.51 51.13 63.21 56.17 62.62"/><polygon class="cls-26" points="13.63 63.38 13.58 79.69 12.55 79.09 12.6 62.79 13.63 63.38"/><polygon class="cls-11" points="51.13 63.21 51.08 79.51 49.94 79.96 49.99 63.66 51.13 63.21"/><polygon class="cls-11" points="49.99 63.66 49.94 79.96 49.64 80.14 49.69 63.83 49.99 63.66"/><polygon class="cls-26" points="14.66 63.98 14.62 80.28 13.58 79.69 13.63 63.38 14.66 63.98"/><polygon class="cls-25" points="49.69 63.83 49.64 80.14 47.99 80.96 48.03 64.66 49.69 63.83"/><polygon class="cls-26" points="15.69 64.58 15.64 80.88 14.62 80.28 14.66 63.98 15.69 64.58"/><polygon class="cls-13" points="48.03 64.66 47.99 80.96 47.55 81.3 47.6 65 48.03 64.66"/><polygon class="cls-26" points="16.73 65.17 16.69 81.47 15.64 80.88 15.69 64.58 16.73 65.17"/><polygon class="cls-25" points="47.6 65 47.55 81.3 47.04 81.56 47.09 65.26 47.6 65"/><polygon class="cls-30" points="47.09 65.26 47.04 81.56 46.41 82.03 46.45 65.73 47.09 65.26"/><polygon class="cls-26" points="17.77 65.77 17.72 82.07 16.69 81.47 16.73 65.17 17.77 65.77"/><polygon class="cls-43" points="46.45 65.73 46.41 82.03 46.18 82.23 46.23 65.93 46.45 65.73"/><polygon class="cls-43" points="46.23 65.93 46.18 82.23 45.95 82.43 46 66.13 46.23 65.93"/><polygon class="cls-45" points="46 66.13 45.95 82.43 45.74 82.63 45.78 66.33 46 66.13"/><polygon class="cls-26" points="18.7 66.3 18.65 82.61 17.72 82.07 17.77 65.77 18.7 66.3"/><polygon class="cls-43" points="45.78 66.33 45.74 82.63 45.51 82.83 45.56 66.53 45.78 66.33"/><polygon class="cls-43" points="45.56 66.53 45.51 82.83 45.29 83.02 45.33 66.72 45.56 66.53"/><polygon class="cls-26" points="19.39 66.71 19.35 83.01 18.65 82.61 18.7 66.3 19.39 66.71"/><polygon class="cls-43" points="45.33 66.72 45.29 83.02 45.06 83.22 45.11 66.92 45.33 66.72"/><polygon class="cls-43" points="45.11 66.92 45.06 83.22 44.83 83.42 44.88 67.12 45.11 66.92"/><polygon class="cls-26" points="20.09 67.11 20.04 83.42 19.35 83.01 19.39 66.71 20.09 67.11"/><polygon class="cls-43" points="44.88 67.12 44.83 83.42 44.61 83.62 44.66 67.31 44.88 67.12"/><polygon class="cls-43" points="44.66 67.31 44.61 83.62 44.38 83.82 44.43 67.51 44.66 67.31"/><polygon class="cls-26" points="20.79 67.52 20.75 83.82 20.04 83.42 20.09 67.11 20.79 67.52"/><polygon class="cls-45" points="44.43 67.51 44.38 83.82 44.16 84.02 44.21 67.72 44.43 67.51"/><polygon class="cls-43" points="44.21 67.72 44.16 84.02 43.94 84.21 43.98 67.91 44.21 67.72"/><polygon class="cls-26" points="21.5 67.93 21.45 84.23 20.75 83.82 20.79 67.52 21.5 67.93"/><polygon class="cls-43" points="43.98 67.91 43.94 84.21 43.71 84.41 43.76 68.11 43.98 67.91"/><polygon class="cls-57" points="21.83 68.11 21.79 84.42 21.45 84.23 21.5 67.93 21.83 68.11"/><polygon class="cls-43" points="43.76 68.11 43.71 84.41 43.49 84.61 43.54 68.31 43.76 68.11"/><polygon class="cls-43" points="43.54 68.31 43.49 84.61 43.26 84.81 43.31 68.5 43.54 68.31"/><polygon class="cls-45" points="43.31 68.5 43.26 84.81 43.04 85.01 43.09 68.71 43.31 68.5"/><polygon class="cls-57" points="22.96 68.75 22.91 85.05 21.79 84.42 21.83 68.11 22.96 68.75"/><polygon class="cls-37" points="23.36 68.77 23.31 85.08 22.91 85.05 22.96 68.75 23.36 68.77"/><polygon class="cls-51" points="43.09 68.71 43.04 85.01 42.58 85.38 42.62 69.08 43.09 68.71"/><polygon class="cls-21" points="42.62 69.08 42.58 85.38 42.36 85.57 42.4 69.27 42.62 69.08"/><polygon class="cls-4" points="24.81 69.26 24.76 85.57 23.31 85.08 23.36 68.77 24.81 69.26"/><polygon class="cls-58" points="38.39 69.46 38.35 85.76 37.42 85.65 37.46 69.35 38.39 69.46"/><polygon class="cls-46" points="42.4 69.27 42.36 85.57 39.31 85.81 39.36 69.5 42.4 69.27"/><polygon class="cls-52" points="39.36 69.5 39.31 85.81 38.69 85.81 38.73 69.51 39.36 69.5"/><polygon class="cls-78" points="38.73 69.51 38.69 85.81 38.35 85.76 38.39 69.46 38.73 69.51"/><polygon class="cls-30" points="37.46 69.35 37.42 85.65 36.87 85.81 36.91 69.51 37.46 69.35"/><polygon class="cls-47" points="33.91 69.5 33.86 85.8 33.24 85.79 33.28 69.48 33.91 69.5"/><polygon class="cls-78" points="34.5 69.58 34.45 85.89 33.86 85.8 33.91 69.5 34.5 69.58"/><polygon class="cls-21" points="36.91 69.51 36.87 85.81 36.29 85.94 36.33 69.64 36.91 69.51"/><polygon class="cls-69" points="32.57 69.64 32.53 85.94 29.83 85.73 29.88 69.43 32.57 69.64"/><polygon class="cls-21" points="33.28 69.48 33.24 85.79 32.53 85.94 32.57 69.64 33.28 69.48"/><polygon class="cls-79" points="36.33 69.64 36.29 85.94 35.49 85.99 35.54 69.68 36.33 69.64"/><polygon class="cls-44" points="35.54 69.68 35.49 85.99 35.17 86.05 35.22 69.74 35.54 69.68"/><polygon class="cls-80" points="35.22 69.74 35.17 86.05 34.45 85.89 34.5 69.58 35.22 69.74"/><polygon class="cls-10" points="27.05 69.82 27 86.13 24.76 85.57 24.81 69.26 27.05 69.82"/><polygon class="cls-49" points="29.88 69.43 29.83 85.73 27 86.13 27.05 69.82 29.88 69.43"/><polygon class="cls-81" points="61.36 1.74 62.23 2.4 62.21 2.95 62.36 3.17 61.59 4.44 64.35 5.24 64.84 6.23 65.59 7.15 65.86 7.48 67.94 7.9 68.16 8.06 68.33 8.25 69.22 8.79 69.58 9.3 70.02 9.57 70.54 9.6 71.01 9.69 71.6 9.89 71.93 9.94 72.25 9.85 72.59 9.48 72.93 9.38 72.82 11.39 71.92 12.65 72.03 12.99 72.76 13.5 74.09 14.01 74.74 14.5 75.5 15.15 75.65 15.38 75.94 15.65 76.21 15.91 76.36 16.13 76.3 16.95 76.25 17.23 76.3 17.62 76.8 17.39 77.66 17.39 77.67 17.7 78.46 17.7 79.66 17.66 80.83 17.97 81.32 18.04 81.28 17.64 81.48 17.27 82.16 17.1 82.09 17.49 81.72 17.93 81.17 18.59 80.43 19.47 79.7 20.34 79.04 21.12 78.59 21.66 78.18 22.14 77.75 22.51 77.57 22.7 77.31 23.12 76.87 23.64 76.28 24.31 75.65 25.04 75.44 25.45 75.15 25.99 74.8 26.44 74.28 26.94 73.63 27.55 73.11 28.05 72.29 28.79 71.78 29.27 71.2 30 70.85 30.44 70.4 31 70.09 31.53 69.86 31.96 69.34 32.34 69.87 32.72 70.19 32.87 71.3 33.22 71.78 33.31 72.14 33.26 73.44 33.63 74.03 33.97 74.64 34.13 74.8 34.52 74.31 34.71 73.11 35.28 72.89 35.46 72.7 35.66 72.47 35.83 72.16 35.98 71.43 36.22 71.11 36.37 70.85 36.72 70.61 36.91 70.36 37.2 69.6 37.88 69.03 38.35 68.17 39.66 68.18 39.94 68.14 40.65 67.7 41.03 67.52 41.49 67.56 41.68 68.17 42.12 68.37 42.34 68.6 42.52 68.92 42.56 69.13 42.87 69.8 43.13 70.06 43.46 70.3 43.68 70.25 44.06 69.78 44.75 68.33 46.7 68.18 47.13 68.07 47.82 67.73 48.32 67.15 49.17 67.01 49.49 67.05 49.81 67.51 51.12 67.64 51.32 68.06 51.72 68.22 52.03 68.24 52.44 68.19 53.19 68.27 55.27 68.78 55.88 68.77 56.16 68.77 56.39 68.32 56.81 68.2 57.1 67.65 57.69 67.39 58.17 66.72 58.43 65.28 58.69 64.5 58.83 64.13 58.97 63.92 59.13 63.26 59.34 62.73 59.65 62.07 60.72 61.71 60.93 61.12 61.05 60.15 60.94 59.1 61.09 58.47 61.51 58.1 61.81 57.38 62.29 56.99 62.4 56.17 62.62 51.13 63.21 49.99 63.66 49.69 63.83 48.03 64.66 47.6 65 47.09 65.26 46.45 65.73 46.23 65.93 46 66.13 45.78 66.33 45.56 66.53 45.33 66.72 45.11 66.92 44.88 67.12 44.66 67.31 44.43 67.51 44.21 67.72 43.98 67.91 43.76 68.11 43.54 68.31 43.31 68.5 43.09 68.71 42.62 69.08 42.4 69.27 39.36 69.5 38.73 69.51 38.39 69.46 37.46 69.35 36.91 69.51 36.33 69.64 35.54 69.68 35.22 69.74 34.5 69.58 33.91 69.5 33.28 69.48 32.57 69.64 29.88 69.43 27.05 69.82 24.81 69.26 23.36 68.77 22.96 68.75 21.83 68.11 21.5 67.93 20.79 67.52 20.09 67.11 19.39 66.71 18.7 66.3 17.77 65.77 16.73 65.17 15.69 64.58 14.66 63.98 13.63 63.38 12.6 62.79 10.54 61.6 9.51 61.01 8.48 60.41 7.45 59.82 6.42 59.23 6.01 58.99 5.4 58.64 3.34 57.45 2.32 56.86 1.3 56.27 14.67 48.51 14.34 48.41 14.01 48.35 13.67 48.32 12.93 48.31 12.62 48.29 12.11 48.02 11.93 47.77 11.55 47.4 11.2 47.06 10.95 46.47 10.84 46.15 10.31 45.84 9.88 45.62 9.29 45.55 8.93 45.51 8.6 45.36 7.7 44.78 6.87 44.26 6.67 43.99 5.89 43.59 4.87 43.03 4.77 42.76 4.31 42.13 3.25 41.79 2.1 41.14 1.6 41.01 1.21 40.79 0.58 40.53 0.05 40.32 0.28 40.2 0.66 40.05 1.04 39.94 2.88 40.03 3.26 39.82 4.25 39.66 5.78 40.68 5.59 40.99 6.2 40.93 7 40.82 7.66 40.38 8.03 39.23 8.53 38.93 8.73 38.75 8.98 38.33 9.17 38.12 9.45 37.98 10.31 37.38 10.62 37.1 10.93 36.56 12.85 37.44 14.06 37.99 15.52 37.8 16.77 37.3 17.14 37.25 17.54 37.24 17.94 37.18 18.47 36.9 19.49 36.63 20.16 36.63 21.54 35.88 22.39 35.61 23 35.12 23.25 34.97 24.39 34.78 24.95 34.49 25.27 34.37 26.43 33.6 26.64 33.41 26.75 33.17 26.76 32.91 26.62 32.68 26.09 32.35 25.89 32.15 25.28 31.57 25.59 31.05 25.85 30.87 26.65 30.85 27.01 31.03 27.23 31.17 27.98 31.41 29.97 31.14 30.82 31.27 31.12 31.41 32.37 31.76 33.26 31.74 33.92 31.75 34.49 31.52 34.77 31.34 35.94 30.66 37.47 30.35 40.66 29.63 41.36 29.78 42.05 29.82 43.92 30.6 44.5 29.97 45.04 29.98 46.08 30.05 46.72 30.17 47.68 30.39 49.39 30.75 49.78 30.85 50.18 30.85 52.16 29.49 52.74 28.73 52.8 28.17 55.48 28.38 55.91 28.13 55.88 27.88 55.13 27.45 54.12 26.86 53.15 26.3 52.13 25.72 50.96 25.03 49.95 24.45 48.81 23.8 48.03 23.34 47.31 22.92 47.01 23.08 46.86 23.41 46.68 23.71 45.74 24.39 45.95 24.77 46.7 25.01 46.13 25.57 45.79 25.75 44.58 26.14 41.97 26.39 41.59 26.37 40.97 26.47 39.76 26.42 38.93 26.46 38.25 26.6 37.73 26.54 36.27 26.59 35.31 26.39 34.34 26.12 33.06 25.77 32.79 25.2 32.54 24.87 32.23 24.38 32 24.25 31.32 23.83 30.26 22.66 28.75 21.03 26.09 20.1 26.01 19.78 25.9 19.6 25.7 19.41 25.18 19.1 24.66 18.85 24.3 18.38 24.08 18.18 23.72 17.94 22.63 17.68 19.43 17.09 19.05 17.24 18.65 17.34 18.3 17.26 18.18 17.04 18.28 16.77 18.59 16.25 18.76 15.63 18.77 14.37 18.48 13.23 18.16 12.75 17.6 12.39 16.72 12.21 17.35 11.47 18.32 10.71 19.2 10.02 20.38 9.09 21.95 7.83 23.43 6.66 24.56 5.76 26.01 4.63 26.96 3.87 27.77 4.14 28.76 4.33 29.79 4.43 30.72 4.45 31.1 4.42 31.54 4.36 31.94 4.25 32.22 4.09 33.47 3.21 35.33 2.83 36.03 3.03 36.37 3.17 36.73 3.2 37.86 3.11 38.34 2.69 39.73 2.17 39.88 2.4 40.21 2.59 40.61 2.67 40.96 2.54 42.63 1.89 44.03 1.24 44.37 1.12 44.77 1.07 45.37 1.18 46.03 1.06 46.73 0.81 47.24 0.55 48.58 0.43 49.26 0.25 49.83 0.45 51.08 0.77 52.42 0 54.97 0.24 55.43 0.34 55.87 0.82 56.06 1.07 57.35 1.14 59.57 1.42 60.34 1.64 60.83 1.64 61.36 1.74"/></g></g></g></svg>