<svg xmlns="http://www.w3.org/2000/svg" viewBox="0 0 72.65 54.94"><defs><style>.cls-1{isolation:isolate;}.cls-2{fill:#641919;}.cls-3{fill:#7b1e1e;}.cls-4{fill:#481212;}.cls-5{fill:#952424;}.cls-6{fill:#a92929;}.cls-7{fill:#a32828;}.cls-8{fill:#8d2323;}.cls-9{fill:#511414;}.cls-10{fill:#a42828;}.cls-11{fill:#4e1313;}.cls-12{fill:#491212;}.cls-13{fill:#4d1313;}.cls-14{fill:#7c1e1e;}.cls-15{fill:#4a1212;}.cls-16{fill:#661919;}.cls-17{fill:#a22828;}.cls-18{fill:#571515;}.cls-19{fill:#5d1717;}.cls-20{fill:#781d1d;}.cls-21{fill:#832020;}.cls-22{fill:#a12828;}.cls-23{fill:#a82929;}.cls-24{fill:#a62929;}.cls-25{fill:#922424;}.cls-26{fill:#852020;}.cls-27{fill:#9a2626;}.cls-28{fill:#a02727;}.cls-29{fill:#a72929;}.cls-30{fill:#992525;}.cls-31{fill:#982525;}.cls-32{fill:#852121;}.cls-33{fill:#551515;}.cls-34{fill:#681919;}.cls-35{fill:#711c1c;}.cls-36{fill:#791e1e;}.cls-37{fill:#8c2222;}.cls-38{fill:#9d2626;}.cls-39{fill:#7a1e1e;}.cls-40{fill:#932424;}.cls-41{fill:#962525;}.cls-42{fill:#9f2727;}.cls-43{fill:#691a1a;}.cls-44{fill:#822020;}.cls-45{fill:#902323;}.cls-46{fill:#5b1616;}.cls-47{fill:#862121;}.cls-48{fill:#912424;}.cls-49{fill:#741c1c;}.cls-50{fill:#701b1b;}.cls-51{fill:#4b1212;}.cls-52{fill:#651919;}.cls-53{fill:#4f1313;}.cls-54{fill:#6a1a1a;}.cls-55{fill:#611818;}.cls-56{fill:#a12727;}.cls-57{fill:#5f1717;}.cls-58{fill:#581616;}.cls-59{fill:#751d1d;}.cls-60{fill:#9e2727;}.cls-61{fill:#681a1a;}.cls-62{fill:#771d1d;}.cls-63{fill:#801f1f;}.cls-64{fill:#9b2626;}.cls-65{fill:#9c2626;}.cls-66{fill:#882121;}.cls-67{fill:#8a2222;}.cls-68{fill:#521414;}.cls-69{fill:#6e1b1b;}.cls-70{fill:#a52828;}.cls-71{fill:#5a1616;}.cls-72{fill:#531414;}.cls-73{fill:#972525;}.cls-74{fill:#7f1f1f;}.cls-75{fill:#6f1b1b;}.cls-76{fill:#c83131;}</style></defs><title>Zimbabwe</title><g id="Layer_2" data-name="Layer 2"><g id="Layer_1-2" data-name="Layer 1"><g class="cls-1"><polygon class="cls-2" points="44.16 0.86 44.11 17.17 44.1 17.71 44.15 1.41 44.16 0.86"/><polygon class="cls-3" points="51.24 4.19 51.19 20.49 51.13 20.66 51.18 4.36 51.24 4.19"/><polygon class="cls-4" points="26.06 4.88 26.02 21.19 26 20.95 26.05 4.65 26.06 4.88"/><polygon class="cls-5" points="57.43 8.51 57.38 24.81 57.2 25.04 57.25 8.74 57.43 8.51"/><polygon class="cls-6" points="57.25 8.74 57.2 25.04 56.91 25.18 56.95 8.88 57.25 8.74"/><polygon class="cls-7" points="56.95 8.88 56.91 25.18 56.73 25.32 56.78 9.02 56.95 8.88"/><polygon class="cls-8" points="56.78 9.02 56.73 25.32 56.4 25.86 56.45 9.56 56.78 9.02"/><polygon class="cls-4" points="12.29 12.03 12.24 28.33 12.11 28 12.16 11.69 12.29 12.03"/><polygon class="cls-4" points="63.75 12.22 63.71 28.52 63.7 28.29 63.75 11.99 63.75 12.22"/><polygon class="cls-4" points="11.75 13 11.7 29.3 11.62 29.07 11.67 12.77 11.75 13"/><polygon class="cls-9" points="12.12 13.24 12.07 29.54 11.7 29.3 11.75 13 12.12 13.24"/><polygon class="cls-10" points="66.86 13.18 66.82 29.48 66.53 29.7 66.58 13.4 66.86 13.18"/><polygon class="cls-11" points="12.32 13.4 12.28 29.7 12.07 29.54 12.12 13.24 12.32 13.4"/><polygon class="cls-12" points="12.52 13.61 12.47 29.92 12.28 29.7 12.32 13.4 12.52 13.61"/><polygon class="cls-13" points="12.76 13.79 12.71 30.1 12.47 29.92 12.52 13.61 12.76 13.79"/><polygon class="cls-14" points="13.07 13.84 13.02 30.14 12.71 30.1 12.76 13.79 13.07 13.84"/><polygon class="cls-15" points="13.55 14.3 13.51 30.6 13.02 30.14 13.07 13.84 13.55 14.3"/><polygon class="cls-16" points="14.1 14.49 14.06 30.79 13.51 30.6 13.55 14.3 14.1 14.49"/><polygon class="cls-4" points="14.24 14.78 14.19 31.09 14.06 30.79 14.1 14.49 14.24 14.78"/><polygon class="cls-4" points="14.46 15.07 14.42 31.37 14.19 31.09 14.24 14.78 14.46 15.07"/><polygon class="cls-4" points="14.46 15.43 14.42 31.74 14.42 31.37 14.46 15.07 14.46 15.43"/><polygon class="cls-17" points="68.27 16.73 68.22 33.03 67.98 33.23 68.03 16.92 68.27 16.73"/><polygon class="cls-6" points="68.03 16.92 67.98 33.23 67.63 33.38 67.68 17.08 68.03 16.92"/><polygon class="cls-10" points="67.68 17.08 67.63 33.38 67.38 33.57 67.43 17.27 67.68 17.08"/><polygon class="cls-7" points="72.23 20.56 72.18 36.86 71.84 36.94 71.88 20.64 72.23 20.56"/><polygon class="cls-4" points="11.2 21.09 11.15 37.39 11.12 37.07 11.17 20.77 11.2 21.09"/><polygon class="cls-4" points="11.66 22.4 11.61 38.7 11.15 37.39 11.2 21.09 11.66 22.4"/><polygon class="cls-4" points="11.79 22.6 11.75 38.9 11.61 38.7 11.66 22.4 11.79 22.6"/><polygon class="cls-15" points="12.22 23 12.17 39.3 11.75 38.9 11.79 22.6 12.22 23"/><polygon class="cls-4" points="12.38 23.3 12.33 39.61 12.17 39.3 12.22 23 12.38 23.3"/><polygon class="cls-4" points="12.39 23.72 12.35 40.02 12.33 39.61 12.38 23.3 12.39 23.72"/><polygon class="cls-4" points="12.52 26.69 12.47 42.99 12.29 40.77 12.34 24.47 12.52 26.69"/><polygon class="cls-18" points="12.7 26.79 12.65 43.09 12.47 42.99 12.52 26.69 12.7 26.79"/><polygon class="cls-19" points="12.87 26.87 12.83 43.17 12.65 43.09 12.7 26.79 12.87 26.87"/><polygon class="cls-4" points="12.93 27.16 12.88 43.46 12.83 43.17 12.87 26.87 12.93 27.16"/><polygon class="cls-20" points="72.65 28.55 72.6 44.85 72.48 45.28 72.52 28.97 72.65 28.55"/><polygon class="cls-20" points="72.52 28.97 72.48 45.28 72.33 45.8 72.37 29.5 72.52 28.97"/><polygon class="cls-21" points="72.37 29.5 72.33 45.8 71.94 45.76 71.99 29.46 72.37 29.5"/><polygon class="cls-22" points="71.99 29.46 71.94 45.76 70.96 45.97 71 29.67 71.99 29.46"/><polygon class="cls-22" points="71 29.67 70.96 45.97 70.64 46.25 70.69 29.94 71 29.67"/><polygon class="cls-23" points="70.69 29.94 70.64 46.25 70.1 46.45 70.14 30.15 70.69 29.94"/><polygon class="cls-23" points="70.14 30.15 70.1 46.45 69.2 46.77 69.25 30.47 70.14 30.15"/><polygon class="cls-6" points="69.25 30.47 69.2 46.77 68.77 46.98 68.81 30.68 69.25 30.47"/><polygon class="cls-24" points="68.81 30.68 68.77 46.98 68.52 47.06 68.56 30.76 68.81 30.68"/><polygon class="cls-25" points="68.56 30.76 68.52 47.06 68.39 47.24 68.44 30.93 68.56 30.76"/><polygon class="cls-24" points="68.44 30.93 68.39 47.24 67.71 47.7 67.76 31.39 68.44 30.93"/><polygon class="cls-26" points="67.76 31.39 67.71 47.7 67.58 47.98 67.63 31.67 67.76 31.39"/><polygon class="cls-6" points="67.63 31.67 67.58 47.98 67.01 48.23 67.05 31.92 67.63 31.67"/><polygon class="cls-6" points="67.05 31.92 67.01 48.23 66.53 48.44 66.58 32.14 67.05 31.92"/><polygon class="cls-27" points="66.58 32.14 66.53 48.44 66.18 48.82 66.23 32.52 66.58 32.14"/><polygon class="cls-28" points="66.23 32.52 66.18 48.82 65.87 49.11 65.92 32.8 66.23 32.52"/><polygon class="cls-23" points="65.92 32.8 65.87 49.11 65.64 49.25 65.68 32.95 65.92 32.8"/><polygon class="cls-29" points="65.68 32.95 65.64 49.25 65.35 49.35 65.4 33.05 65.68 32.95"/><polygon class="cls-30" points="65.4 33.05 65.35 49.35 65 49.39 65.04 33.08 65.4 33.05"/><polygon class="cls-7" points="65.04 33.08 65 49.39 64.33 49.55 64.38 33.25 65.04 33.08"/><polygon class="cls-10" points="64.38 33.25 64.33 49.55 64.08 49.74 64.12 33.44 64.38 33.25"/><polygon class="cls-24" points="64.12 33.44 64.08 49.74 63.71 49.85 63.75 33.55 64.12 33.44"/><polygon class="cls-31" points="63.75 33.55 63.71 49.85 63.39 49.88 63.44 33.58 63.75 33.55"/><polygon class="cls-23" points="63.44 33.58 63.39 49.88 63.02 50.02 63.07 33.71 63.44 33.58"/><polygon class="cls-32" points="63.07 33.71 63.02 50.02 62.68 49.99 62.73 33.69 63.07 33.71"/><polygon class="cls-17" points="62.73 33.69 62.68 49.99 62.02 50.14 62.07 33.84 62.73 33.69"/><polygon class="cls-6" points="62.07 33.84 62.02 50.14 61.63 50.3 61.68 34 62.07 33.84"/><polygon class="cls-28" points="61.68 34 61.63 50.3 61.39 50.35 61.43 34.05 61.68 34"/><polygon class="cls-23" points="61.43 34.05 61.39 50.35 61.11 50.45 61.16 34.15 61.43 34.05"/><polygon class="cls-27" points="61.16 34.15 61.11 50.45 60.47 50.53 60.52 34.23 61.16 34.15"/><polygon class="cls-6" points="60.52 34.23 60.47 50.53 59.88 50.85 59.92 34.55 60.52 34.23"/><polygon class="cls-4" points="0.37 34.44 0.33 50.74 0 50.24 0.05 33.94 0.37 34.44"/><polygon class="cls-33" points="0.57 34.55 0.53 50.85 0.33 50.74 0.37 34.44 0.57 34.55"/><polygon class="cls-34" points="0.78 34.62 0.74 50.92 0.53 50.85 0.57 34.55 0.78 34.62"/><polygon class="cls-10" points="59.92 34.55 59.88 50.85 59.38 51.24 59.43 34.93 59.92 34.55"/><polygon class="cls-35" points="1.45 34.79 1.41 51.09 0.74 50.92 0.78 34.62 1.45 34.79"/><polygon class="cls-5" points="3.28 34.83 3.24 51.13 2.88 51.16 2.93 34.85 3.28 34.83"/><polygon class="cls-6" points="59.43 34.93 59.38 51.24 59.13 51.35 59.17 35.05 59.43 34.93"/><polygon class="cls-36" points="3.69 34.9 3.64 51.2 3.24 51.13 3.28 34.83 3.69 34.9"/><polygon class="cls-14" points="2.2 34.9 2.15 51.2 1.41 51.09 1.45 34.79 2.2 34.9"/><polygon class="cls-37" points="2.56 34.91 2.52 51.21 2.15 51.2 2.2 34.9 2.56 34.91"/><polygon class="cls-38" points="2.93 34.85 2.88 51.16 2.52 51.21 2.56 34.91 2.93 34.85"/><polygon class="cls-35" points="4.44 35.09 4.39 51.39 3.64 51.2 3.69 34.9 4.44 35.09"/><polygon class="cls-39" points="5.2 35.22 5.15 51.52 4.39 51.39 4.44 35.09 5.2 35.22"/><polygon class="cls-37" points="59.17 35.05 59.13 51.35 58.91 51.72 58.96 35.41 59.17 35.05"/><polygon class="cls-40" points="9.19 35.37 9.15 51.67 8.83 51.69 8.88 35.38 9.19 35.37"/><polygon class="cls-16" points="5.67 35.38 5.63 51.68 5.15 51.52 5.2 35.22 5.67 35.38"/><polygon class="cls-29" points="58.96 35.41 58.91 51.72 58.5 51.86 58.55 35.56 58.96 35.41"/><polygon class="cls-14" points="5.9 35.41 5.85 51.72 5.63 51.68 5.67 35.38 5.9 35.41"/><polygon class="cls-37" points="6.8 35.43 6.75 51.73 5.85 51.72 5.9 35.41 6.8 35.43"/><polygon class="cls-41" points="7.37 35.39 7.32 51.69 6.75 51.73 6.8 35.43 7.37 35.39"/><polygon class="cls-42" points="8.88 35.38 8.83 51.69 8.44 51.76 8.49 35.45 8.88 35.38"/><polygon class="cls-43" points="9.51 35.47 9.46 51.78 9.15 51.67 9.19 35.37 9.51 35.47"/><polygon class="cls-40" points="8.49 35.45 8.44 51.76 8.08 51.77 8.13 35.47 8.49 35.45"/><polygon class="cls-44" points="8.13 35.47 8.08 51.77 7.32 51.69 7.37 35.39 8.13 35.47"/><polygon class="cls-41" points="53.55 35.73 53.51 52.03 52.8 52.09 52.85 35.78 53.55 35.73"/><polygon class="cls-28" points="35.36 35.59 35.32 51.89 34.52 52.05 34.57 35.74 35.36 35.59"/><polygon class="cls-9" points="35.62 35.76 35.58 52.07 35.32 51.89 35.36 35.59 35.62 35.76"/><polygon class="cls-45" points="58.55 35.56 58.5 51.86 58.28 52.18 58.33 35.87 58.55 35.56"/><polygon class="cls-46" points="10.07 35.74 10.02 52.05 9.46 51.78 9.51 35.47 10.07 35.74"/><polygon class="cls-22" points="34.57 35.74 34.52 52.05 34.18 52.12 34.23 35.81 34.57 35.74"/><polygon class="cls-4" points="53.63 35.87 53.59 52.18 53.51 52.03 53.55 35.73 53.63 35.87"/><polygon class="cls-7" points="52.85 35.78 52.8 52.09 52.37 52.19 52.42 35.88 52.85 35.78"/><polygon class="cls-47" points="58.33 35.87 58.28 52.18 58.22 52.3 58.27 36 58.33 35.87"/><polygon class="cls-4" points="35.79 35.95 35.74 52.26 35.58 52.07 35.62 35.76 35.79 35.95"/><polygon class="cls-48" points="12.41 35.86 12.36 52.16 10.78 52.21 10.82 35.91 12.41 35.86"/><polygon class="cls-49" points="10.82 35.91 10.78 52.21 10.02 52.05 10.07 35.74 10.82 35.91"/><polygon class="cls-4" points="53.7 36.04 53.65 52.34 53.59 52.18 53.63 35.87 53.7 36.04"/><polygon class="cls-30" points="58.27 36 58.22 52.3 57.05 52.42 57.09 36.12 58.27 36"/><polygon class="cls-6" points="52.42 35.88 52.37 52.19 51.95 52.41 51.99 36.11 52.42 35.88"/><polygon class="cls-42" points="29.18 35.78 29.14 52.08 27.66 52.35 27.71 36.04 29.18 35.78"/><polygon class="cls-17" points="34.23 35.81 34.18 52.12 33.87 52.38 33.92 36.07 34.23 35.81"/><polygon class="cls-50" points="30.39 36.09 30.35 52.39 29.14 52.08 29.18 35.78 30.39 36.09"/><polygon class="cls-4" points="53.78 36.16 53.74 52.47 53.65 52.34 53.7 36.04 53.78 36.16"/><polygon class="cls-27" points="27.71 36.04 27.66 52.35 27.19 52.4 27.23 36.1 27.71 36.04"/><polygon class="cls-51" points="36 36.13 35.95 52.44 35.74 52.26 35.79 35.95 36 36.13"/><polygon class="cls-24" points="51.99 36.11 51.95 52.41 51.69 52.49 51.74 36.19 51.99 36.11"/><polygon class="cls-6" points="27.23 36.1 27.19 52.4 26.95 52.51 26.99 36.21 27.23 36.1"/><polygon class="cls-52" points="13.27 36.17 13.22 52.48 12.36 52.16 12.41 35.86 13.27 36.17"/><polygon class="cls-53" points="54.06 36.36 54.01 52.66 53.74 52.47 53.78 36.16 54.06 36.36"/><polygon class="cls-6" points="33.92 36.07 33.87 52.38 33.28 52.64 33.32 36.34 33.92 36.07"/><polygon class="cls-7" points="57.09 36.12 57.05 52.42 55.84 52.72 55.89 36.41 57.09 36.12"/><polygon class="cls-54" points="36.72 36.36 36.68 52.66 35.95 52.44 36 36.13 36.72 36.36"/><polygon class="cls-23" points="26.99 36.21 26.95 52.51 26.73 52.64 26.77 36.34 26.99 36.21"/><polygon class="cls-55" points="54.41 36.51 54.36 52.81 54.01 52.66 54.06 36.36 54.41 36.51"/><polygon class="cls-56" points="51.74 36.19 51.69 52.49 50.27 52.8 50.32 36.49 51.74 36.19"/><polygon class="cls-23" points="55.89 36.41 55.84 52.72 55.55 52.83 55.6 36.53 55.89 36.41"/><polygon class="cls-23" points="26.77 36.34 26.73 52.64 26.44 52.75 26.49 36.45 26.77 36.34"/><polygon class="cls-57" points="31.35 36.5 31.3 52.8 30.35 52.39 30.39 36.09 31.35 36.5"/><polygon class="cls-58" points="37.02 36.52 36.97 52.82 36.68 52.66 36.72 36.36 37.02 36.52"/><polygon class="cls-59" points="54.81 36.59 54.76 52.89 54.36 52.81 54.41 36.51 54.81 36.59"/><polygon class="cls-60" points="55.6 36.53 55.55 52.83 55.18 52.9 55.22 36.59 55.6 36.53"/><polygon class="cls-8" points="55.22 36.59 55.18 52.9 54.76 52.89 54.81 36.59 55.22 36.59"/><polygon class="cls-4" points="13.54 36.48 13.49 52.79 13.22 52.48 13.27 36.17 13.54 36.48"/><polygon class="cls-24" points="50.32 36.49 50.27 52.8 49.87 52.92 49.92 36.62 50.32 36.49"/><polygon class="cls-5" points="49.92 36.62 49.87 52.92 49.41 52.95 49.46 36.65 49.92 36.62"/><polygon class="cls-61" points="13.92 36.61 13.88 52.91 13.49 52.79 13.54 36.48 13.92 36.61"/><polygon class="cls-28" points="26.49 36.45 26.44 52.75 25.31 52.97 25.36 36.66 26.49 36.45"/><polygon class="cls-14" points="14.36 36.67 14.31 52.98 13.88 52.91 13.92 36.61 14.36 36.67"/><polygon class="cls-6" points="49.46 36.65 49.41 52.95 49.07 53.09 49.12 36.78 49.46 36.65"/><polygon class="cls-32" points="14.83 36.71 14.78 53.01 14.31 52.98 14.36 36.67 14.83 36.71"/><polygon class="cls-23" points="33.32 36.34 33.28 52.64 32.53 53.08 32.58 36.77 33.32 36.34"/><polygon class="cls-23" points="25.36 36.66 25.31 52.97 25.02 53.08 25.07 36.78 25.36 36.66"/><polygon class="cls-29" points="49.12 36.78 49.07 53.09 48.8 53.18 48.85 36.87 49.12 36.78"/><polygon class="cls-62" points="15.29 36.8 15.24 53.1 14.78 53.01 14.83 36.71 15.29 36.8"/><polygon class="cls-23" points="25.07 36.78 25.02 53.08 24.86 53.18 24.91 36.87 25.07 36.78"/><polygon class="cls-10" points="32.58 36.77 32.53 53.08 32.33 53.23 32.38 36.92 32.58 36.77"/><polygon class="cls-63" points="22.9 37.06 22.85 53.36 22.44 53.31 22.48 37.01 22.9 37.06"/><polygon class="cls-64" points="22.48 37.01 22.44 53.31 21.99 53.37 22.04 37.07 22.48 37.01"/><polygon class="cls-65" points="48.85 36.87 48.8 53.18 48.54 53.46 48.58 37.15 48.85 36.87"/><polygon class="cls-38" points="24.91 36.87 24.86 53.18 23.42 53.39 23.47 37.09 24.91 36.87"/><polygon class="cls-66" points="23.47 37.09 23.42 53.39 22.85 53.36 22.9 37.06 23.47 37.09"/><polygon class="cls-67" points="32.38 36.92 32.33 53.23 32.21 53.45 32.25 37.15 32.38 36.92"/><polygon class="cls-53" points="32.25 37.15 32.21 53.45 31.3 52.8 31.35 36.5 32.25 37.15"/><polygon class="cls-15" points="37.74 37.2 37.69 53.5 36.97 52.82 37.02 36.52 37.74 37.2"/><polygon class="cls-29" points="22.04 37.07 21.99 53.37 21.5 53.53 21.54 37.23 22.04 37.07"/><polygon class="cls-60" points="20.66 37.22 20.61 53.52 20.38 53.56 20.43 37.26 20.66 37.22"/><polygon class="cls-30" points="21.54 37.23 21.5 53.53 21.08 53.58 21.12 37.27 21.54 37.23"/><polygon class="cls-63" points="21.12 37.27 21.08 53.58 20.61 53.52 20.66 37.22 21.12 37.27"/><polygon class="cls-68" points="37.96 37.34 37.91 53.64 37.69 53.5 37.74 37.2 37.96 37.34"/><polygon class="cls-23" points="20.43 37.26 20.38 53.56 20.14 53.66 20.19 37.35 20.43 37.26"/><polygon class="cls-8" points="20.19 37.35 20.14 53.66 18.89 53.65 18.93 37.34 20.19 37.35"/><polygon class="cls-29" points="48.58 37.15 48.54 53.46 47.39 53.84 47.43 37.53 48.58 37.15"/><polygon class="cls-29" points="18.93 37.34 18.89 53.65 18.52 53.77 18.57 37.47 18.93 37.34"/><polygon class="cls-69" points="17.73 37.47 17.68 53.78 15.24 53.1 15.29 36.8 17.73 37.47"/><polygon class="cls-63" points="18.15 37.53 18.1 53.83 17.68 53.78 17.73 37.47 18.15 37.53"/><polygon class="cls-65" points="18.57 37.47 18.52 53.77 18.1 53.83 18.15 37.53 18.57 37.47"/><polygon class="cls-70" points="47.43 37.53 47.39 53.84 47.04 53.94 47.08 37.63 47.43 37.53"/><polygon class="cls-71" points="38.54 37.63 38.5 53.94 37.91 53.64 37.96 37.34 38.54 37.63"/><polygon class="cls-23" points="47.08 37.63 47.04 53.94 46.74 54.05 46.78 37.75 47.08 37.63"/><polygon class="cls-72" points="39.15 38.01 39.1 54.32 38.5 53.94 38.54 37.63 39.15 38.01"/><polygon class="cls-47" points="41.14 38.02 41.1 54.33 40.65 54.3 40.7 37.99 41.14 38.02"/><polygon class="cls-73" points="40.7 37.99 40.65 54.3 39.85 54.37 39.9 38.06 40.7 37.99"/><polygon class="cls-47" points="39.9 38.06 39.85 54.37 39.1 54.32 39.15 38.01 39.9 38.06"/><polygon class="cls-74" points="41.58 38.08 41.53 54.38 41.1 54.33 41.14 38.02 41.58 38.08"/><polygon class="cls-23" points="46.78 37.75 46.74 54.05 45.94 54.5 45.99 38.2 46.78 37.75"/><polygon class="cls-36" points="42.62 38.26 42.57 54.56 41.53 54.38 41.58 38.08 42.62 38.26"/><polygon class="cls-37" points="42.84 38.26 42.8 54.57 42.57 54.56 42.62 38.26 42.84 38.26"/><polygon class="cls-23" points="45.99 38.2 45.94 54.5 45.35 54.73 45.4 38.43 45.99 38.2"/><polygon class="cls-75" points="44.21 38.63 44.17 54.93 42.8 54.57 42.84 38.26 44.21 38.63"/><polygon class="cls-6" points="45.4 38.43 45.35 54.73 44.94 54.94 44.98 38.64 45.4 38.43"/><polygon class="cls-37" points="44.98 38.64 44.94 54.94 44.17 54.93 44.21 38.63 44.98 38.64"/><polygon class="cls-76" points="55.22 6.22 55.4 6.53 55.47 6.72 55.8 7.16 56.15 7.91 56.75 8.02 56.99 8.1 57.21 8.24 57.34 8.38 57.43 8.51 57.25 8.74 56.95 8.88 56.78 9.02 56.45 9.56 56.92 9.79 57.43 10.15 58.35 9.94 59.56 10.05 60.24 10.66 60.41 10.76 60.64 11.1 60.67 11.4 60.94 11.56 61.19 11.75 62.05 11.71 62.64 12.11 63.75 12.22 63.75 11.99 64.38 12.12 65.01 12.14 65.22 12.09 65.6 12.3 65.88 12.48 66.17 12.79 66.66 13.1 66.86 13.18 66.58 13.4 66.74 13.64 66.93 14.18 67.08 14.41 67.56 14.7 67.74 15.24 67.84 15.8 68.05 16.15 68.25 16.52 68.27 16.73 68.03 16.92 67.68 17.08 67.43 17.27 67.49 17.55 67.72 17.76 68 17.94 68.86 18.32 69.68 18.69 69.91 18.87 70.07 19.14 70.17 19.59 70.32 20.26 72.23 20.56 71.88 20.64 71.92 20.93 71.95 21.32 71.99 21.75 72.03 22.17 72.07 22.6 72.11 23.02 72.15 23.44 72.19 23.87 72.23 24.3 72.28 24.72 72.31 25.15 72.36 25.57 72.4 26 72.44 26.42 72.48 26.85 72.52 27.27 72.56 27.7 72.61 28.13 72.65 28.55 72.52 28.97 72.37 29.5 71.99 29.46 71 29.67 70.69 29.94 70.14 30.15 69.25 30.47 68.81 30.68 68.56 30.76 68.44 30.93 67.76 31.39 67.63 31.67 67.05 31.92 66.58 32.14 66.23 32.52 65.92 32.8 65.68 32.95 65.4 33.05 65.04 33.08 64.38 33.25 64.12 33.44 63.75 33.55 63.44 33.58 63.07 33.71 62.73 33.69 62.07 33.84 61.68 34 61.43 34.05 61.16 34.15 60.52 34.23 59.92 34.55 59.43 34.93 59.17 35.05 58.96 35.41 58.55 35.56 58.33 35.87 58.27 36 57.09 36.12 55.89 36.41 55.6 36.53 55.22 36.59 54.81 36.59 54.41 36.51 54.06 36.36 53.78 36.16 53.7 36.04 53.63 35.87 53.55 35.73 52.85 35.78 52.42 35.88 51.99 36.11 51.74 36.19 50.32 36.49 49.92 36.62 49.46 36.65 49.12 36.78 48.85 36.87 48.58 37.15 47.43 37.53 47.08 37.63 46.78 37.75 45.99 38.2 45.4 38.43 44.98 38.64 44.21 38.63 42.84 38.26 42.62 38.26 41.58 38.08 41.14 38.02 40.7 37.99 39.9 38.06 39.15 38.01 38.54 37.63 37.96 37.34 37.74 37.2 37.02 36.52 36.72 36.36 36 36.13 35.79 35.95 35.62 35.76 35.36 35.59 34.57 35.74 34.23 35.81 33.92 36.07 33.32 36.34 32.58 36.77 32.38 36.92 32.25 37.15 31.35 36.5 30.39 36.09 29.18 35.78 27.71 36.04 27.23 36.1 26.99 36.21 26.77 36.34 26.49 36.45 25.36 36.66 25.07 36.78 24.91 36.87 23.47 37.09 22.9 37.06 22.48 37.01 22.04 37.07 21.54 37.23 21.12 37.27 20.66 37.22 20.43 37.26 20.19 37.35 18.93 37.34 18.57 37.47 18.15 37.53 17.73 37.47 15.29 36.8 14.83 36.71 14.36 36.67 13.92 36.61 13.54 36.48 13.27 36.17 12.41 35.86 10.82 35.91 10.07 35.74 9.51 35.47 9.19 35.37 8.88 35.38 8.49 35.45 8.13 35.47 7.37 35.39 6.8 35.43 5.9 35.41 5.67 35.38 5.2 35.22 4.44 35.09 3.69 34.9 3.28 34.83 2.93 34.85 2.56 34.91 2.2 34.9 1.45 34.79 0.78 34.62 0.57 34.55 0.37 34.44 0.05 33.94 0.68 33.88 1.15 33.68 1.44 33.6 2.03 33.28 2.62 32.78 2.81 32.49 2.96 32.39 3.56 32.26 3.78 32.21 4 32.19 4.73 32.12 5.87 32.21 6.15 32.05 6.4 31.68 6.93 30.68 7.75 30.46 8.29 30.25 8.65 30.1 9.44 29.97 9.8 29.86 10.01 29.78 10.54 29.74 11.38 29.55 11.55 29.24 11.8 28.97 12.14 28.44 12.35 28.38 12.43 28.15 12.77 27.9 12.92 27.66 12.92 27.44 12.93 27.16 12.87 26.87 12.7 26.79 12.52 26.69 12.34 24.47 12.39 23.72 12.38 23.3 12.22 23 11.79 22.6 11.66 22.4 11.2 21.09 11.17 20.77 11.3 20.45 11.88 19.6 12.22 19.1 12.33 18.41 12.48 17.98 13.93 16.03 14.19 15.82 14.38 15.71 14.46 15.43 14.46 15.07 14.24 14.78 14.1 14.49 13.55 14.3 13.07 13.84 12.76 13.79 12.52 13.61 12.32 13.4 12.12 13.24 11.75 13 11.67 12.77 11.67 12.52 12.15 12.13 12.29 12.03 12.16 11.69 12.32 10.94 13.1 9.7 13.7 9.27 13.78 8.89 13.89 8.78 14.51 8.48 14.76 8.18 15 7.99 15.15 7.76 15.26 7.65 15.58 7.5 16.31 7.25 16.63 7.11 16.85 6.93 17.04 6.74 17.26 6.56 17.58 6.44 17.86 6.41 18.31 6.02 18.77 5.91 18.95 5.8 19.11 5.58 19.67 5.9 20.34 6.27 21.17 6.74 21.66 7.01 22.39 6.58 22.86 6.3 23.94 5.67 24.65 5.25 25 5.12 25.45 5.07 25.68 5.07 26.06 4.88 26.05 4.65 26.33 4.26 26.66 4.1 27.48 3.81 28.41 3.81 30.39 3.5 31.57 2.9 31.8 2.85 32.14 2.83 32.98 2.85 33.21 2.84 33.64 2.76 34.26 2.92 35.38 2.58 36.66 1.81 37.25 1.55 38.21 1.31 39.69 0.95 40.8 0.67 41.57 0.92 41.88 0.89 42.32 0.56 42.82 0.38 43.04 0.27 43.19 0 43.48 0 44.02 0.53 44.12 0.72 44.16 0.86 44.15 1.41 45.25 1.6 46.02 1.72 46.58 1.85 47.1 2.05 47.37 2.19 48.16 2.3 48.52 2.64 48.77 3.08 49.15 3.38 49.8 3.31 50.44 3.7 50.68 3.86 51.01 4.03 51.24 4.19 51.18 4.36 51.81 4.89 53.53 5.72 53.78 5.85 53.92 6 54.41 6.24 54.96 6.21 55.22 6.22"/></g></g></g></svg>