<svg fill="#fff" xmlns="http://www.w3.org/2000/svg" xmlns:xlink="http://www.w3.org/1999/xlink" version="1.1" x="0px" y="0px" viewBox="0 0 64 64" style="enable-background:new 0 0 64 64;" xml:space="preserve"><g><path d="M60.999,1c-4.57,0-8.604,3.08-9.807,7.49c-0.644,2.358-2.382,4.309-4.651,5.216l-5.426,2.17   C40.572,15.335,39.824,15,38.999,15h-3v-2c0-6.617-5.383-12-12-12s-12,5.383-12,12v4.451l-8.758,5.574   c-1.404,0.893-2.242,2.418-2.242,4.137C0.999,29.83,3.169,32,5.837,32c0.958,0,1.887-0.281,2.684-0.812l11.479-7.652V23h2h2v2   c-1.654,0-3,1.346-3,3v3h2.806l-4.643,26h-0.163c-1.654,0-3,1.346-3,3v3h32v-3c0-1.654-1.346-3-3-3h-0.163l-4.643-26h2.806v-3   c0-1.654-1.346-3-3-3v-2h2v-1.301c1.458-0.51,5.256-1.699,9-1.699c3.208,0,4.77,4.711,5.414,7.521   C57.021,30.158,59.317,32,61.999,32h1V1H60.999z M7.411,29.523C6.943,29.835,6.399,30,5.837,30c-1.564,0-2.838-1.273-2.838-2.894   c0-0.976,0.491-1.87,1.315-2.394l9.685-6.164V13c0-5.514,4.486-10,10-10s10,4.486,10,10v2h-4v-1c0-3.309-2.691-6-6-6s-6,2.691-6,6   v3v5.465L7.411,29.523z M22.183,17h-2.184v-3c0-2.206,1.794-4,4-4s4,1.794,4,4v1h-3C23.697,15,22.597,15.839,22.183,17z M21.999,21   h-2v-2h2V21z M45.999,60v1h-28v-1c0-0.552,0.448-1,1-1h26C45.551,59,45.999,59.448,45.999,60z M40.999,28v1H34v2h4.162l4.643,26   H21.193l4.643-26H32v-2h-9.001v-1c0-0.552,0.448-1,1-1h16C40.551,27,40.999,27.448,40.999,28z M39.999,21h-2v1v1v2h-12v-2H36v-2   H23.999v-3c0-0.552,0.448-1,1-1h3h8h3c0.552,0,1,0.448,1,1V21z M60.999,29.864c-1.294-0.361-2.318-1.409-2.637-2.792   C56.999,21.137,54.453,18,50.999,18c-3.593,0-7.126,0.972-9,1.585V18c0-0.106-0.021-0.207-0.031-0.31l5.316-2.126   c2.849-1.139,5.031-3.587,5.839-6.547C54.089,5.474,57.328,3,60.999,3V29.864z"></path><polygon points="33.999,38 29.999,38 29.999,40 33.999,40 33.999,42 29.999,42 29.999,44 33.999,44 33.999,46 29.999,46 29.999,48    33.999,48 33.999,50 29.999,50 29.999,52 33.999,52 33.999,55 35.999,55 35.999,35 33.999,35  "></polygon></g></svg>
