<svg fill="#fff" xmlns="http://www.w3.org/2000/svg" xmlns:xlink="http://www.w3.org/1999/xlink" version="1.1" x="0px" y="0px" viewBox="0 0 512 512" enable-background="new 0 0 512 512" xml:space="preserve"><g><path d="M510,399.4V55.3H2v344.1h163.9v8.2c-22.6,0-41,18.4-41,41v8.2h262.2v-8.2c0-22.6-18.4-41-41-41v-8.2H510z M18.4,383V71.6   h475.2V383H18.4z M346.1,424c10.7,0,19.8,6.8,23.2,16.4H142.7c3.4-9.5,12.5-16.4,23.2-16.4h16.4v-24.6h147.5V424H346.1z"></path><path d="M469,96.2H43v262.2H469V96.2z M452.6,112.6v106.5h-87L340.7,269l-33-140.4l-51.5,111.7L221.8,163l-31.4,102.2L152,142.3   l-48,76.8H59.4V112.6H452.6z M59.4,342V235.5h53.7l33.9-54.3l43.5,139.3l34.1-110.9l31.2,70.3l46.8-101.3l32.5,138.2l40.6-81.3   h76.9V342H59.4z"></path></g></svg>
