<svg fill="#fff" xmlns="http://www.w3.org/2000/svg" xmlns:xlink="http://www.w3.org/1999/xlink" version="1.1" x="0px" y="0px" viewBox="0 0 100 100" enable-background="new 0 0 100 100" xml:space="preserve"><path d="M64.733,61.478c-0.804-0.18-1.61,0.327-1.792,1.136c-0.09,0.402-0.807,0.479-0.848,0.483  c-0.818,0.05-1.447,0.75-1.406,1.571c0.039,0.802,0.703,1.426,1.496,1.426c0.025,0,0.051-0.001,0.076-0.002  c1.118-0.056,3.137-0.712,3.609-2.822C66.051,62.461,65.542,61.659,64.733,61.478z M69.877,52.995  c-2.758-2.35-5.973-3.463-9.047-3.146c-2.87,0.3-5.512,1.841-7.437,4.339c-1.35,1.752-2.179,3.284-2.643,4.624  c-2.144-0.475-4.034-0.581-5.655-0.314c-0.105-1.284-0.644-2.488-1.606-3.479c-1.491-1.533-3.717-2.317-6.221-2.316  c-0.143-1.683-1.168-2.848-2.393-3.335c-2.355-0.937-5.817,0.229-7.877,4.267c-0.817,1.602-0.867,3.3-0.142,4.782  c0.51,1.042,1.622,2.327,3.945,3.221c-1.794,2.437-2.821,5.638-1.985,9.103c0.961,3.972,5.377,7.334,11.813,8.992  c2.456,0.633,5.166,0.999,7.85,0.999c5.059,0,10.024-1.301,13.018-4.567c0.801-0.874,1.24-1.494,1.594-1.993  c0.6-0.847,0.848-1.197,2.824-2.239c4.438-2.341,7.236-5.965,7.676-9.942C73.966,58.604,72.612,55.326,69.877,52.995z   M70.609,61.658c-0.328,2.973-2.549,5.75-6.093,7.619c-2.493,1.315-3.043,1.987-3.872,3.158c-0.321,0.453-0.684,0.965-1.357,1.7  c-3.557,3.88-11.701,4.29-17.907,2.69c-5.265-1.356-8.961-3.959-9.646-6.792c-0.924-3.824,1.463-7.521,4.299-9.194  c0.713-0.422,0.949-1.342,0.528-2.055s-1.341-0.948-2.054-0.529c-0.475,0.28-0.943,0.606-1.398,0.972  c-1.845-0.451-3.099-1.195-3.557-2.131c-0.385-0.786-0.148-1.576,0.119-2.1c1.293-2.538,3.21-3.193,4.096-2.842  c0.402,0.16,0.526,0.524,0.534,0.906c-0.337,0.079-0.672,0.152-1.011,0.258c-0.791,0.248-1.231,1.089-0.984,1.88  c0.248,0.791,1.088,1.229,1.881,0.983c3.535-1.109,6.062-0.192,7.151,0.928c0.689,0.709,0.902,1.586,0.676,2.546  c-1.33,0.885-2.033,2.058-2.242,2.907c-0.07,0.289-0.104,0.588-0.111,0.89c-0.145,0.205-0.516,0.702-1.327,1.187  c-0.711,0.426-0.943,1.347-0.519,2.058c0.281,0.47,0.779,0.73,1.289,0.73c0.262,0,0.527-0.068,0.769-0.212  c0.293-0.176,0.547-0.354,0.778-0.531c0.064,0.104,0.125,0.209,0.195,0.313c2.237,3.292,6.992,5.947,11.83,6.609  c0.068,0.009,0.137,0.014,0.205,0.014c0.738,0,1.381-0.545,1.484-1.297c0.111-0.82-0.463-1.577-1.283-1.689  c-4.441-0.607-8.27-3.138-9.756-5.323c-0.539-0.794-0.768-1.517-0.641-2.032c0.043-0.173,0.35-0.771,1.17-1.246  c1.02-0.589,2.953-1.061,6.424-0.262c0.032,0.588,0.145,1.118,0.315,1.593c-0.8-0.167-1.647-0.279-2.491-0.283h-0.008  c-0.825,0-1.496,0.667-1.5,1.493c-0.004,0.828,0.664,1.503,1.492,1.507c2.615,0.013,5.52,1.455,5.549,1.47  c0.602,0.302,1.336,0.165,1.787-0.335c0.453-0.501,0.516-1.242,0.152-1.812c-0.021-0.033-0.535-0.835-1.734-2.314  c-1.569-1.938,0.535-5.263,1.928-7.071c1.439-1.868,3.297-2.97,5.373-3.187c2.283-0.24,4.631,0.607,6.789,2.446  C69.896,56.954,70.873,59.279,70.609,61.658z M33.947,34.593h6.811c0.703,3.618,3.892,6.359,7.712,6.359s7.009-2.741,7.712-6.359  h6.811c0.653,0,1.231-0.423,1.43-1.046c0.197-0.622-0.03-1.302-0.564-1.679L49.97,22.049v-1.278c0-0.828-0.671-1.5-1.5-1.5  s-1.5,0.672-1.5,1.5v1.278l-13.889,9.819c-0.533,0.377-0.762,1.057-0.563,1.679C32.716,34.17,33.294,34.593,33.947,34.593z   M48.47,37.952c-2.153,0-3.962-1.416-4.599-3.359h9.197C52.432,36.536,50.623,37.952,48.47,37.952z M48.47,24.662l9.803,6.931  H38.667L48.47,24.662z M57.299,39.909l2.602,1.503c0.236,0.137,0.494,0.201,0.748,0.201c0.519,0,1.023-0.269,1.301-0.75  c0.414-0.717,0.169-1.635-0.549-2.049L58.8,37.312c-0.718-0.415-1.636-0.169-2.05,0.549C56.336,38.577,56.582,39.495,57.299,39.909z   M46.97,44.135v3.011c0,0.828,0.671,1.5,1.5,1.5s1.5-0.672,1.5-1.5v-3.011c0-0.828-0.671-1.5-1.5-1.5S46.97,43.307,46.97,44.135z   M53.25,41.36c-0.717,0.414-0.963,1.332-0.549,2.049l1.503,2.602c0.278,0.481,0.782,0.75,1.3,0.75c0.255,0,0.514-0.064,0.749-0.201  c0.718-0.414,0.964-1.332,0.549-2.049l-1.503-2.602C54.886,41.192,53.967,40.946,53.25,41.36z M40.189,37.86  c-0.415-0.718-1.333-0.964-2.05-0.549l-2.602,1.503c-0.717,0.414-0.963,1.332-0.548,2.049c0.278,0.481,0.782,0.75,1.3,0.75  c0.255,0,0.514-0.064,0.75-0.201l2.601-1.503C40.357,39.495,40.604,38.577,40.189,37.86z M40.686,46.56  c0.236,0.137,0.495,0.201,0.75,0.201c0.518,0,1.021-0.269,1.3-0.75l1.503-2.603c0.415-0.717,0.17-1.635-0.548-2.049  c-0.718-0.415-1.635-0.169-2.05,0.549l-1.503,2.603C39.723,45.228,39.969,46.146,40.686,46.56z"></path></svg>
