<svg fill="#fff" xmlns="http://www.w3.org/2000/svg" xmlns:xlink="http://www.w3.org/1999/xlink" version="1.1" x="0px" y="0px" viewBox="0 0 512 512" enable-background="new 0 0 512 512" xml:space="preserve"><g><path d="M280.6,165.9h-49.2v57.4h-57.4v49.2h57.4v57.4h49.2v-57.4h57.4v-49.2h-57.4V165.9z M321.5,239.6V256h-57.4v57.4h-16.4V256   h-57.4v-16.4h57.4v-57.4h16.4v57.4H321.5z"></path><path d="M477.2,2H34.8v491.6h41V510h16.4v-16.4h327.7V510h16.4v-16.4h41V2z M460.8,477.2H51.2V18.4h409.7V477.2z"></path><path d="M428.1,354.3h16.4v-65.5h-16.4v-90.1h16.4v-65.5h-16.4V51.2H83.9v393.3h344.1V354.3z M428.1,337.9h-16.4v-32.8h16.4V337.9z    M428.1,182.3h-16.4v-32.8h16.4V182.3z M100.3,428.1V67.5h311.4v65.5h-16.4v65.5h16.4v90.1h-16.4v65.5h16.4v73.7H100.3z"></path><path d="M145.4,354.3c-15.8,0-28.7,12.9-28.7,28.7s12.9,28.7,28.7,28.7s28.7-12.9,28.7-28.7S161.2,354.3,145.4,354.3z M145.4,395.3   c-6.8,0-12.3-5.5-12.3-12.3s5.5-12.3,12.3-12.3s12.3,5.5,12.3,12.3S152.2,395.3,145.4,395.3z"></path><rect x="247.8" y="100.3" width="16.4" height="16.4"></rect><rect x="280.6" y="100.3" width="16.4" height="16.4"></rect><rect x="215" y="100.3" width="16.4" height="16.4"></rect></g></svg>
